<?xml version="1.0" encoding="UTF-8"?><svg xmlns="http://www.w3.org/2000/svg" id="Outline" version="1.1" viewBox="0 0 48 48"><path d="M41,20c0-1.29999-.84003-2.40002-2-2.82001v-9.17999c0-1.65002-1.34998-3-3-3H12c-1.65002,0-3,1.34998-3,3v9.17999c-1.15997.41998-2,1.52002-2,2.82001s.84003,2.39996,2,2.82001v6.95996c-.60999.54999-1,1.34003-1,2.22003v6c0,.54999.45001,1,1,1h2v3c0,.54999.45001,1,1,1h4c.54999,0,1-.45001,1-1v-3h14v3c0,.54999.45001,1,1,1h4c.54999,0,1-.45001,1-1v-3h2c.54999,0,1-.45001,1-1v-6c0-.88-.39001-1.67004-1-2.22003v-6.95996c1.15997-.42004,2-1.52002,2-2.82001ZM11,8c0-.54999.45001-1,1-1h24c.54999,0,1,.45001,1,1v9h-2v-3c0-1.65002-1.34998-3-3-3h-4c-1.65002,0-3,1.34998-3,3v3h-2v-3c0-1.65002-1.34998-3-3-3h-4c-1.65002,0-3,1.34998-3,3v3h-2v-9ZM33,14v3h-6v-3c0-.54999.45001-1,1-1h4c.54999,0,1,.45001,1,1ZM21,14v3h-6v-3c0-.54999.45001-1,1-1h4c.54999,0,1,.45001,1,1ZM15,41h-2v-2h2v2ZM35,41h-2v-2h2v2ZM38,37H10v-5c0-.54999.45001-1,1-1h26c.54999,0,1,.45001,1,1v5ZM11,29v-6h26v6H11ZM38,21H10c-.54999,0-1-.45001-1-1s.45001-1,1-1h28c.54999,0,1,.45001,1,1s-.45001,1-1,1Z" fill="#000" stroke-width="0"/><path d="M35,33H13c-.55273,0-1,.44727-1,1s.44727,1,1,1h22c.55273,0,1-.44727,1-1s-.44727-1-1-1Z" fill="#000" stroke-width="0"/></svg>