<?xml version="1.0" encoding="UTF-8"?><svg xmlns="http://www.w3.org/2000/svg" id="Outline" version="1.1" viewBox="0 0 48 48"><path d="M40,12h-1v-1c0-1.65002-1.34998-3-3-3h-2v-1c0-1.10004-.90002-2-2-2h-2c-1.09998,0-2,.89996-2,2v1h-3v-1c0-1.10004-.90002-2-2-2h-2c-1.09998,0-2,.89996-2,2v1h-3v-1c0-1.10004-.90002-2-2-2h-2c-1.09998,0-2,.89996-2,2v1h-2c-1.65002,0-3,1.34998-3,3v24c0,1.64996,1.34998,3,3,3h1v1c0,1.64996,1.34998,3,3,3h20.40997c1.05005.63,2.28003,1,3.59003,1,3.85999,0,7-3.14001,7-7V15c0-1.65002-1.34998-3-3-3ZM30,7h2v4h-2v-4ZM21,7h2v4h-2v-4ZM12,7h2v4h-2v-4ZM7,11c0-.54999.45001-1,1-1h2v1c0,1.09998.90002,2,2,2h2c1.09998,0,2-.90002,2-2v-1h3v1c0,1.09998.90002,2,2,2h2c1.09998,0,2-.90002,2-2v-1h3v1c0,1.09998.90002,2,2,2h2c1.09998,0,2-.90002,2-2v-1h2c.54999,0,1,.45001,1,1v4H7v-4ZM8,36c-.54999,0-1-.45001-1-1v-18h30v12.07996c-.33002-.04999-.65997-.07996-1-.07996-3.85999,0-7,3.14001-7,7H8ZM12,40c-.54999,0-1-.45001-1-1v-1h18.28998c.22003.71997.55005,1.39996.97003,2H12ZM36,41c-2.76001,0-5-2.23999-5-5s2.23999-5,5-5,5,2.23999,5,5-2.23999,5-5,5ZM41,31.10999c-.57001-.59003-1.25-1.07001-2-1.41998v-15.69h1c.54999,0,1,.45001,1,1v16.10999Z" fill="#000" stroke-width="0"/><path d="M37.79297,33.79297l-2.29297,2.29297-1.29297-1.29297c-.39062-.39062-1.02344-.39062-1.41406,0s-.39062,1.02344,0,1.41406l2,2c.19531.19531.45117.29297.70703.29297s.51172-.09766.70703-.29297l3-3c.39062-.39062.39062-1.02344,0-1.41406s-1.02344-.39062-1.41406,0Z" fill="#000" stroke-width="0"/><path d="M10,25h4c.55225,0,1-.44727,1-1v-4c0-.55273-.44775-1-1-1h-4c-.55225,0-1,.44727-1,1v4c0,.55273.44775,1,1,1ZM11,21h2v2h-2v-2Z" fill="#000" stroke-width="0"/><path d="M18,25h4c.55225,0,1-.44727,1-1v-4c0-.55273-.44775-1-1-1h-4c-.55225,0-1,.44727-1,1v4c0,.55273.44775,1,1,1ZM19,21h2v2h-2v-2Z" fill="#000" stroke-width="0"/><path d="M14,33c.55225,0,1-.44727,1-1v-4c0-.55273-.44775-1-1-1h-4c-.55225,0-1,.44727-1,1v4c0,.55273.44775,1,1,1h4ZM11,29h2v2h-2v-2Z" fill="#000" stroke-width="0"/><path d="M18,33h4c.55225,0,1-.44727,1-1v-4c0-.55273-.44775-1-1-1h-4c-.55225,0-1,.44727-1,1v4c0,.55273.44775,1,1,1ZM19,29h2v2h-2v-2Z" fill="#000" stroke-width="0"/><path d="M26,25h4c.55225,0,1-.44727,1-1v-4c0-.55273-.44775-1-1-1h-4c-.55225,0-1,.44727-1,1v4c0,.55273.44775,1,1,1ZM27,21h2v2h-2v-2Z" fill="#000" stroke-width="0"/></svg>