<?xml version="1.0" encoding="UTF-8"?><svg xmlns="http://www.w3.org/2000/svg" id="Outline" version="1.1" viewBox="0 0 48 48"><path d="M40,12h-1v-1c0-1.65002-1.34998-3-3-3h-3v-1c0-1.10004-.90002-2-2-2h-2c-1.09998,0-2,.89996-2,2v1h-10v-1c0-1.10004-.90002-2-2-2h-2c-1.09998,0-2,.89996-2,2v1h-3c-1.65002,0-3,1.34998-3,3v24c0,1.64996,1.34998,3,3,3h1v1c0,1.64996,1.34998,3,3,3h19.14001c1.14001.64001,2.45996,1,3.85999,1,4.40997,0,8-3.59003,8-8V15c0-1.65002-1.34998-3-3-3ZM29,7h2v4h-2v-4ZM13,7h2v4h-2v-4ZM7,11c0-.54999.45001-1,1-1h3v1c0,1.09998.90002,2,2,2h2c1.09998,0,2-.90002,2-2v-1h10v1c0,1.09998.90002,2,2,2h2c1.09998,0,2-.90002,2-2v-1h3c.54999,0,1,.45001,1,1v4H7v-4ZM8,36c-.54999,0-1-.45001-1-1v-18h30v10.26001c-.64001-.16003-1.31-.26001-2-.26001-4.40997,0-8,3.58997-8,8,0,.33997.03003.66998.07001,1H8ZM12,40c-.54999,0-1-.45001-1-1v-1h16.59003c.28998.72998.69,1.39996,1.16998,2H12ZM35,41c-3.31,0-6-2.69-6-6s2.69-6,6-6,6,2.69,6,6-2.69,6-6,6ZM41,29.72998c-.57001-.65002-1.25-1.21002-2-1.65002v-14.07996h1c.54999,0,1,.45001,1,1v14.72998Z" fill="#000" stroke-width="0"/><path d="M36.79297,32.79297l-2.29297,2.29297-1.29297-1.29297c-.39062-.39062-1.02344-.39062-1.41406,0s-.39062,1.02344,0,1.41406l2,2c.19531.19531.45117.29297.70703.29297s.51172-.09766.70703-.29297l3-3c.39062-.39062.39062-1.02344,0-1.41406s-1.02344-.39062-1.41406,0Z" fill="#000" stroke-width="0"/><path d="M10,25h24c.55273,0,1-.44727,1-1v-4c0-.55273-.44727-1-1-1H10c-.55273,0-1,.44727-1,1v4c0,.55273.44727,1,1,1ZM11,21h22v2H11v-2Z" fill="#000" stroke-width="0"/><path d="M10,29h14c.55273,0,1-.44727,1-1s-.44727-1-1-1h-14c-.55273,0-1,.44727-1,1s.44727,1,1,1Z" fill="#000" stroke-width="0"/><path d="M24,34c.55273,0,1-.44727,1-1s-.44727-1-1-1h-14c-.55273,0-1,.44727-1,1s.44727,1,1,1h14Z" fill="#000" stroke-width="0"/></svg>