<?xml version="1.0" encoding="UTF-8"?><svg xmlns="http://www.w3.org/2000/svg" id="Outline" version="1.1" viewBox="0 0 48 48"><path d="M40,14h-1v-1c0-1.65002-1.34998-3-3-3H8c-1.65002,0-3,1.34998-3,3v18c0,1.64996,1.34998,3,3,3h1v1c0,1.64996,1.34998,3,3,3h28c1.65002,0,3-1.35004,3-3v-18c0-1.65002-1.34998-3-3-3ZM8,32c-.54999,0-1-.45001-1-1V13c0-.54999.45001-1,1-1h28c.54999,0,1,.45001,1,1v18c0,.54999-.45001,1-1,1H8ZM41,35c0,.54999-.45001,1-1,1H12c-.54999,0-1-.45001-1-1v-1h25c1.65002,0,3-1.35004,3-3v-15h1c.54999,0,1,.45001,1,1v18Z" fill="#000" stroke-width="0"/><path d="M11,22h6c1.10254,0,2-.89746,2-2v-4c0-1.10254-.89746-2-2-2h-6c-1.10254,0-2,.89746-2,2v4c0,1.10254.89746,2,2,2ZM11,16h6l.00195,4h-6.00195v-4Z" fill="#000" stroke-width="0"/><path d="M32,14c-1.6543,0-3,1.3457-3,3s1.3457,3,3,3,3-1.3457,3-3-1.3457-3-3-3ZM32,18c-.55176,0-1-.44824-1-1s.44824-1,1-1,1,.44824,1,1-.44824,1-1,1Z" fill="#000" stroke-width="0"/><path d="M10,26h3c.55273,0,1-.44727,1-1s-.44727-1-1-1h-3c-.55273,0-1,.44727-1,1s.44727,1,1,1Z" fill="#000" stroke-width="0"/><path d="M16,25c0,.55273.44727,1,1,1h3c.55273,0,1-.44727,1-1s-.44727-1-1-1h-3c-.55273,0-1,.44727-1,1Z" fill="#000" stroke-width="0"/><path d="M24,26h3c.55273,0,1-.44727,1-1s-.44727-1-1-1h-3c-.55273,0-1,.44727-1,1s.44727,1,1,1Z" fill="#000" stroke-width="0"/><path d="M34,24h-3c-.55273,0-1,.44727-1,1s.44727,1,1,1h3c.55273,0,1-.44727,1-1s-.44727-1-1-1Z" fill="#000" stroke-width="0"/><path d="M34,28H10c-.55273,0-1,.44727-1,1s.44727,1,1,1h24c.55273,0,1-.44727,1-1s-.44727-1-1-1Z" fill="#000" stroke-width="0"/></svg>