<?xml version="1.0" encoding="UTF-8"?><svg xmlns="http://www.w3.org/2000/svg" id="Outline" version="1.1" viewBox="0 0 48 48"><path d="M43,16v-8c0-1.65002-1.34998-3-3-3h-12c-1.65002,0-3,1.34998-3,3v8c0,1.64996,1.34998,3,3,3h2.71997l-.5,2h-7.21997v-3c0-2.79999-1.65997-5.22003-4.03998-6.33002.63995-.71002,1.03998-1.64001,1.03998-2.66998,0-2.21002-1.78998-4-4-4s-4,1.78998-4,4c0,1.02997.40002,1.95996,1.03998,2.66998-2.38,1.10999-4.03998,3.53003-4.03998,6.33002v3h-3c-.54999,0-1,.45001-1,1v4c0,.54999.45001,1,1,1h2v14h-2c-.54999,0-1,.45001-1,1s.45001,1,1,1h36c.54999,0,1-.45001,1-1s-.45001-1-1-1h-2v-14h2c.54999,0,1-.45001,1-1v-4c0-.54999-.45001-1-1-1h-4.21997l-.5-2h2.71997c1.65002,0,3-1.35004,3-3ZM16,7c1.09998,0,2,.89996,2,2,0,1.09998-.90002,2-2,2s-2-.90002-2-2c0-1.10004.90002-2,2-2ZM16.89001,15.69l-.89001.89996-.89001-.89996.67004-2.67004c.06995,0,.13995-.01996.21997-.01996s.15002.01996.21997.01996l.67004,2.67004ZM11,18c0-1.85999,1.03998-3.47003,2.54999-4.33002l-.51996,2.09003c-.09003.33997.00995.69995.25995.94995l2,2c.20001.19.45001.29004.71002.29004s.51001-.10004.71002-.29004l2-2c.25-.25.34998-.60999.25995-.94995l-.51996-2.09003c1.51001.85999,2.54999,2.47003,2.54999,4.33002v3h-10v-3ZM12,41h-2v-14h2v14ZM34,41H14v-14h20v14ZM38,41h-2v-14h2v14ZM41,23v2H7v-2h34ZM32.28003,21l.5-2h2.43994l.5,2h-3.43994ZM28,17c-.54999,0-1-.45001-1-1v-8c0-.54999.45001-1,1-1h12c.54999,0,1,.45001,1,1v8c0,.54999-.45001,1-1,1h-12Z" fill="#000" stroke-width="0"/><path d="M17,31h14c.55273,0,1-.44775,1-1s-.44727-1-1-1h-14c-.55273,0-1,.44775-1,1s.44727,1,1,1Z" fill="#000" stroke-width="0"/><path d="M17,35h14c.55273,0,1-.44775,1-1s-.44727-1-1-1h-14c-.55273,0-1,.44775-1,1s.44727,1,1,1Z" fill="#000" stroke-width="0"/><path d="M17,39h14c.55273,0,1-.44775,1-1s-.44727-1-1-1h-14c-.55273,0-1,.44775-1,1s.44727,1,1,1Z" fill="#000" stroke-width="0"/></svg>