<?xml version="1.0" encoding="UTF-8"?><svg xmlns="http://www.w3.org/2000/svg" id="Outline" version="1.1" viewBox="0 0 48 48"><path d="M42,27h-2v-13c0-1.65002-1.34998-3-3-3h-11v-3c0-1.65002-1.34998-3-3-3h-12c-1.65002,0-3,1.34998-3,3v19h-2c-.54999,0-1,.45001-1,1v14c0,.54999.45001,1,1,1h36c.54999,0,1-.45001,1-1v-14c0-.54999-.45001-1-1-1ZM26,13h11c.54999,0,1,.45001,1,1v13h-12v-14ZM10,8c0-.54999.45001-1,1-1h12c.54999,0,1,.45001,1,1v19h-14V8ZM19,41H7v-2h12v2ZM23,41h-2v-6h2v6ZM27,41h-2v-6h2v6ZM41,41h-12v-2h12v2ZM41,37h-12v-3c0-.54999-.45001-1-1-1h-8c-.54999,0-1,.45001-1,1v3H7v-8h34v8Z" fill="#000" stroke-width="0"/><path d="M29,17h1c.55225,0,1-.44775,1-1s-.44775-1-1-1h-1c-.55225,0-1,.44775-1,1s.44775,1,1,1Z" fill="#000" stroke-width="0"/><path d="M34,17h1c.55225,0,1-.44775,1-1s-.44775-1-1-1h-1c-.55225,0-1,.44775-1,1s.44775,1,1,1Z" fill="#000" stroke-width="0"/><path d="M29,21h1c.55225,0,1-.44775,1-1s-.44775-1-1-1h-1c-.55225,0-1,.44775-1,1s.44775,1,1,1Z" fill="#000" stroke-width="0"/><path d="M34,21h1c.55225,0,1-.44775,1-1s-.44775-1-1-1h-1c-.55225,0-1,.44775-1,1s.44775,1,1,1Z" fill="#000" stroke-width="0"/><path d="M30,23h-1c-.55225,0-1,.44775-1,1s.44775,1,1,1h1c.55225,0,1-.44775,1-1s-.44775-1-1-1Z" fill="#000" stroke-width="0"/><path d="M34,25h1c.55225,0,1-.44775,1-1s-.44775-1-1-1h-1c-.55225,0-1,.44775-1,1s.44775,1,1,1Z" fill="#000" stroke-width="0"/><path d="M15,13h-2c-.55225,0-1,.44775-1,1s.44775,1,1,1h2c.55225,0,1-.44775,1-1s-.44775-1-1-1Z" fill="#000" stroke-width="0"/><path d="M21,13h-2c-.55225,0-1,.44775-1,1s.44775,1,1,1h2c.55225,0,1-.44775,1-1s-.44775-1-1-1Z" fill="#000" stroke-width="0"/><path d="M15,9h-2c-.55225,0-1,.44775-1,1s.44775,1,1,1h2c.55225,0,1-.44775,1-1s-.44775-1-1-1Z" fill="#000" stroke-width="0"/><path d="M21,9h-2c-.55225,0-1,.44775-1,1s.44775,1,1,1h2c.55225,0,1-.44775,1-1s-.44775-1-1-1Z" fill="#000" stroke-width="0"/><path d="M15,17h-2c-.55225,0-1,.44775-1,1s.44775,1,1,1h2c.55225,0,1-.44775,1-1s-.44775-1-1-1Z" fill="#000" stroke-width="0"/><path d="M21,17h-2c-.55225,0-1,.44775-1,1s.44775,1,1,1h2c.55225,0,1-.44775,1-1s-.44775-1-1-1Z" fill="#000" stroke-width="0"/><path d="M15,21h-2c-.55225,0-1,.44775-1,1s.44775,1,1,1h2c.55225,0,1-.44775,1-1s-.44775-1-1-1Z" fill="#000" stroke-width="0"/><path d="M21,21h-2c-.55225,0-1,.44775-1,1s.44775,1,1,1h2c.55225,0,1-.44775,1-1s-.44775-1-1-1Z" fill="#000" stroke-width="0"/></svg>