<?xml version="1.0" encoding="UTF-8"?><svg xmlns="http://www.w3.org/2000/svg" id="Outline" version="1.1" viewBox="0 0 48 48"><path d="M40,33h-1v-3c0-1.29999-.84003-2.40002-2-2.82001v-10.17999c1.09998,0,2-.90002,2-2v-5c0-2.76001-2.23999-5-5-5s-5,2.23999-5,5v5c0,1.09998.90002,2,2,2v10.17999c-1.15997.41998-2,1.52002-2,2.82001v3h-1c-1.65002,0-3,1.34998-3,3v6c0,.54999.45001,1,1,1h16c.54999,0,1-.45001,1-1v-6c0-1.65002-1.34998-3-3-3ZM31,10c0-1.65002,1.34998-3,3-3s3,1.34998,3,3v5h-6v-5ZM35,17v10h-2v-10h2ZM31,30c0-.54999.45001-1,1-1h4c.54999,0,1,.45001,1,1v3h-6v-3ZM41,41h-14v-2h14v2ZM41,37h-14v-1c0-.54999.45001-1,1-1h12c.54999,0,1,.45001,1,1v1Z" fill="#000" stroke-width="0"/><path d="M19.82001,13.19c.72998-.87,1.17999-1.97003,1.17999-3.19,0-2.76001-2.23999-5-5-5s-5,2.23999-5,5c0,1.21997.45001,2.32001,1.17999,3.19-4.08997.83997-7.17999,4.46997-7.17999,8.81v6c0,.54999.45001,1,1,1h3v12c0,1.09998.90002,2,2,2h2c1.09998,0,2-.90002,2-2v-9h2v9c0,1.09998.90002,2,2,2h2c1.09998,0,2-.90002,2-2v-12h3c.54999,0,1-.45001,1-1v-6c0-4.34003-3.09003-7.97003-7.17999-8.81ZM16,7c1.65002,0,3,1.34998,3,3s-1.34998,3-3,3-3-1.35004-3-3,1.34998-3,3-3ZM25,27h-2v-5c0-.54999-.45001-1-1-1s-1,.45001-1,1v19h-2v-10c0-.54999-.45001-1-1-1h-4c-.54999,0-1,.45001-1,1v10h-2v-19c0-.54999-.45001-1-1-1s-1,.45001-1,1v5h-2v-5c0-3.85999,3.14001-7,7-7h4c3.85999,0,7,3.14001,7,7v5Z" fill="#000" stroke-width="0"/></svg>