<?xml version="1.0" encoding="UTF-8"?><svg xmlns="http://www.w3.org/2000/svg" id="Outline" version="1.1" viewBox="0 0 48 48"><path d="M40,5H8c-1.65002,0-3,1.34998-3,3v28c0,1.64996,1.34998,3,3,3h2v3c0,.54999.45001,1,1,1h4c.54999,0,1-.45001,1-1v-3h16v3c0,.54999.45001,1,1,1h4c.54999,0,1-.45001,1-1v-3h2c1.65002,0,3-1.35004,3-3V8c0-1.65002-1.34998-3-3-3ZM14,41h-2v-2h2v2ZM36,41h-2v-2h2v2ZM41,36c0,.54999-.45001,1-1,1H8c-.54999,0-1-.45001-1-1V8c0-.54999.45001-1,1-1h32c.54999,0,1,.45001,1,1v28Z" fill="#000" stroke-width="0"/><path d="M36,9H12c-1.65002,0-3,1.34998-3,3v20c0,1.64996,1.34998,3,3,3h24c1.65002,0,3-1.35004,3-3V12c0-1.65002-1.34998-3-3-3ZM23,33h-11c-.54999,0-1-.45001-1-1V12c0-.54999.45001-1,1-1h11v22ZM37,32c0,.54999-.45001,1-1,1h-11V11h11c.54999,0,1,.45001,1,1v20Z" fill="#000" stroke-width="0"/><path d="M16,18.81567v1.18433c0,.55273.44775,1,1,1s1-.44727,1-1v-1.18427c1.1615-.41412,2-1.51379,2-2.81573,0-1.6543-1.3457-3-3-3s-3,1.3457-3,3c0,1.30194.8385,2.40155,2,2.81567ZM17,15c.55127,0,1,.44824,1,1s-.44873,1-1,1-1-.44824-1-1,.44873-1,1-1Z" fill="#000" stroke-width="0"/><path d="M31,13c-1.65002,0-3,1.34998-3,3,0,1.29999.84003,2.39996,2,2.82001v1.17999c0,.54999.45001,1,1,1s1-.45001,1-1v-1.17999c1.15997-.42004,2-1.52002,2-2.82001,0-1.65002-1.34998-3-3-3ZM31,17c-.54999,0-1-.45001-1-1s.45001-1,1-1,1,.45001,1,1-.45001,1-1,1Z" fill="#000" stroke-width="0"/><path d="M14,26h6c.55225,0,1-.44727,1-1s-.44775-1-1-1h-6c-.55225,0-1,.44727-1,1s.44775,1,1,1Z" fill="#000" stroke-width="0"/><path d="M20,28h-6c-.55225,0-1,.44727-1,1s.44775,1,1,1h6c.55225,0,1-.44727,1-1s-.44775-1-1-1Z" fill="#000" stroke-width="0"/><path d="M34,24h-6c-.55225,0-1,.44727-1,1s.44775,1,1,1h6c.55225,0,1-.44727,1-1s-.44775-1-1-1Z" fill="#000" stroke-width="0"/><path d="M34,28h-6c-.55225,0-1,.44727-1,1s.44775,1,1,1h6c.55225,0,1-.44727,1-1s-.44775-1-1-1Z" fill="#000" stroke-width="0"/></svg>