<?xml version="1.0" encoding="UTF-8"?><svg xmlns="http://www.w3.org/2000/svg" id="Outline" version="1.1" viewBox="0 0 48 48"><path d="M42.65002,39.54999l-2.40002-16c-.22998-1.47998-1.46997-2.54999-2.96997-2.54999h-7.48004c1.72003-2.29999,3.20001-4.90002,3.20001-7,0-4.96002-4.03998-9-9-9s-9,4.03998-9,9c0,2.09998,1.47998,4.70001,3.20001,7h-7.48004c-1.5,0-2.73999,1.07001-2.96997,2.54999l-2.40002,16c-.13.87.13,1.73999.70001,2.40997.57001.66003,1.40002,1.04004,2.27002,1.04004h31.35999c.87,0,1.70001-.38,2.27002-1.04004.57001-.66998.83002-1.53998.70001-2.40997ZM17,14c0-3.85999,3.14001-7,7-7s7,3.14001,7,7c0,2.95996-4.54999,8.14001-7,10.59998-2.45001-2.45996-7-7.64001-7-10.59998ZM9.72998,23.84998c.07001-.48999.48999-.84998.98999-.84998h9.08002c1.64001,1.92999,3.16003,3.39001,3.51001,3.72998.19.17999.44.27002.69.27002s.5-.09003.69-.27002c.34998-.33997,1.87-1.79999,3.51001-3.72998h9.08002c.5,0,.91998.35999.98999.84998l.76996,5.15002H8.96002l.76996-5.15002ZM21,41h-12.67999c-.28998,0-.56-.12-.76001-.35004-.19-.21997-.27002-.50995-.22998-.79999l.72998-4.84998h12.94v6ZM25,34v7h-2v-7c0-.54999-.45001-1-1-1h-13.64001l.29999-2h30.68005l.29999,2h-13.64001c-.54999,0-1,.45001-1,1ZM40.44,40.64996c-.20001.23004-.47003.35004-.76001.35004h-12.67999v-6h12.94l.72998,4.84998c.04004.29004-.03998.58002-.22998.79999Z" fill="#000" stroke-width="0"/><path d="M29,14c0-2.75684-2.24316-5-5-5s-5,2.24316-5,5,2.24316,5,5,5,5-2.24316,5-5ZM21,14c0-1.6543,1.3457-3,3-3s3,1.3457,3,3-1.3457,3-3,3-3-1.3457-3-3Z" fill="#000" stroke-width="0"/></svg>