<?xml version="1.0" encoding="UTF-8"?><svg xmlns="http://www.w3.org/2000/svg" id="Outline" version="1.1" viewBox="0 0 48 48"><path d="M40,5H8c-1.65002,0-3,1.34998-3,3v28c0,1.64996,1.34998,3,3,3h2v3c0,.54999.45001,1,1,1h4c.54999,0,1-.45001,1-1v-3h16v3c0,.54999.45001,1,1,1h4c.54999,0,1-.45001,1-1v-3h2c1.65002,0,3-1.35004,3-3V8c0-1.65002-1.34998-3-3-3ZM14,41h-2v-2h2v2ZM36,41h-2v-2h2v2ZM41,36c0,.54999-.45001,1-1,1H8c-.54999,0-1-.45001-1-1V8c0-.54999.45001-1,1-1h32c.54999,0,1,.45001,1,1v28Z" fill="#000" stroke-width="0"/><path d="M36,9H12c-1.65002,0-3,1.34998-3,3v20c0,1.64996,1.34998,3,3,3h24c1.65002,0,3-1.35004,3-3V12c0-1.65002-1.34998-3-3-3ZM37,32c0,.54999-.45001,1-1,1H12c-.54999,0-1-.45001-1-1V12c0-.54999.45001-1,1-1h24c.54999,0,1,.45001,1,1v20Z" fill="#000" stroke-width="0"/><path d="M24,13c-4.96002,0-9,4.03998-9,9s4.03998,9,9,9,9-4.04004,9-9-4.03998-9-9-9ZM24,29c-3.85999,0-7-3.14001-7-7s3.14001-7,7-7,7,3.14001,7,7-3.14001,7-7,7Z" fill="#000" stroke-width="0"/><path d="M25,17h-2c-.54999,0-1,.45001-1,1v8c0,.54999.45001,1,1,1s1-.45001,1-1v-3h1c1.65002,0,3-1.35004,3-3s-1.34998-3-3-3ZM25,21h-1v-2h1c.54999,0,1,.45001,1,1s-.45001,1-1,1Z" fill="#000" stroke-width="0"/></svg>