<?xml version="1.0" encoding="UTF-8"?><svg xmlns="http://www.w3.org/2000/svg" id="Outline" version="1.1" viewBox="0 0 48 48"><path d="M42,27c.54999,0,1-.45001,1-1v-4c0-.54999-.45001-1-1-1h-4.26001v-1c0-2.41003-1.71997-4.42999-4-4.90002v-1.09998c0-.54999-.45001-1-1-1s-1,.45001-1,1v1.09998c-2.27997.47003-4,2.48999-4,4.90002v1h-4.73999v-3c0-2.79999-1.65997-5.22003-4.03998-6.33002.63995-.71002,1.03998-1.64001,1.03998-2.66998,0-2.21002-1.78998-4-4-4s-4,1.78998-4,4c0,1.02997.40002,1.95996,1.03998,2.66998-2.38,1.10999-4.03998,3.53003-4.03998,6.33002v3h-3c-.54999,0-1,.45001-1,1v4c0,.54999.45001,1,1,1h2v14h-2c-.54999,0-1,.45001-1,1s.45001,1,1,1h36c.54999,0,1-.45001,1-1s-.45001-1-1-1h-2v-14h2ZM29.73999,20c0-1.65002,1.35004-3,3-3,1.66003,0,3,1.34998,3,3v1h-6v-1ZM16,7c1.09998,0,2,.89996,2,2,0,1.09998-.90002,2-2,2s-2-.90002-2-2c0-1.10004.90002-2,2-2ZM16.89001,15.69l-.89001.89996-.89001-.89996.67004-2.67004c.06995,0,.13995-.01996.21997-.01996s.15002.01996.21997.01996l.67004,2.67004ZM11,18c0-1.85999,1.03998-3.47003,2.54999-4.33002l-.51996,2.09003c-.09003.33997.00995.69995.25995.94995l2,2c.20001.19.45001.29004.71002.29004s.51001-.10004.71002-.29004l2-2c.25-.25.34998-.60999.25995-.94995l-.51996-2.09003c1.51001.85999,2.54999,2.47003,2.54999,4.33002v3h-10v-3ZM12,41h-2v-14h2v14ZM34,41H14v-14h20v14ZM38,41h-2v-14h2v14ZM7,25v-2h34v2H7Z" fill="#000" stroke-width="0"/><path d="M25.67192,13.34331c.38739.38733,1.02694.38703,1.41401-.00005.39062-.39062.39062-1.02344,0-1.41406l-2.12158-2.12158c-.39062-.39062-1.02344-.39062-1.41406,0s-.39062,1.02344,0,1.41406c0,0,2.12158,2.12158,2.12163,2.12163Z" fill="#000" stroke-width="0"/><path d="M32.74268,11c.55225,0,1-.44775,1-1v-3c0-.55225-.44775-1-1-1s-1,.44775-1,1v3c0,.55225.44775,1,1,1Z" fill="#000" stroke-width="0"/><path d="M41.93506,9.80762c-.39062-.39062-1.02344-.39062-1.41406,0l-2.12158,2.12158c-.39062.39062-.39062,1.02337,0,1.414.37296.37296,1.02521.38892,1.41406.00006l2.12158-2.12158c.39062-.39062.39062-1.02344,0-1.41406Z" fill="#000" stroke-width="0"/><path d="M17,39h14c.55225,0,1-.44775,1-1v-8c0-.55225-.44775-1-1-1h-14c-.55225,0-1,.44775-1,1v8c0,.55225.44775,1,1,1ZM18,31h12v6h-12v-6Z" fill="#000" stroke-width="0"/></svg>