<?xml version="1.0" encoding="UTF-8"?><svg xmlns="http://www.w3.org/2000/svg" id="Outline" version="1.1" viewBox="0 0 48 48"><path d="M43,32v-9c0-1.65002-1.34998-3-3-3h-2.38l1.27002-2.54999c.15997-.31.14001-.68005-.04004-.98004-.17999-.28998-.5-.46997-.84998-.46997h-1v-1c0-3.52002-2.60999-6.42999-6-6.92004v-2.07996c0-.54999-.45001-1-1-1s-1,.45001-1,1v2.07996c-3.39001.49005-6,3.40002-6,6.92004v1h-1c-.34998,0-.66998.17999-.84998.46997-.18005.29999-.20001.67004-.04004.98004l1.27002,2.54999h-3.38v-2c0-2.21002-1.78998-4-4-4h-2.17999c-.41998-1.16003-1.52002-2-2.82001-2h-2c-1.65002,0-3,1.34998-3,3s1.34998,3,3,3h2c1.29999,0,2.40002-.84003,2.82001-2h2.17999c1.09998,0,2,.89996,2,2v14c0,1.29999.84003,2.39996,2,2.82001v2.35999c-1.15997.41998-2,1.52002-2,2.82001,0,1.64996,1.34998,3,3,3s3-1.35004,3-3c0-1.29999-.84003-2.40002-2-2.82001v-2.35999c.37-.14001.71002-.34003,1-.60004.53003.48004,1.22998.78003,2,.78003s1.46997-.29999,2-.78003c.53003.48004,1.22998.78003,2,.78003s1.46997-.29999,2-.78003c.53003.48004,1.22998.78003,2,.78003s1.46997-.29999,2-.78003c.53003.48004,1.22998.78003,2,.78003s1.46997-.29999,2-.78003c.28998.26001.63.46002,1,.60004v2.35999c-1.15997.41998-2,1.52002-2,2.82001,0,1.64996,1.34998,3,3,3s3-1.35004,3-3c0-1.29999-.84003-2.40002-2-2.82001v-2.35999c1.15997-.42004,2-1.52002,2-2.82001ZM10,16h-2c-.54999,0-1-.45001-1-1s.45001-1,1-1h2c.54999,0,1,.45001,1,1s-.45001,1-1,1ZM25,15c0-2.76001,2.23999-5,5-5s5,2.23999,5,5v1h-10v-1ZM36.38,18l-1,2h-10.76001l-1-2h12.76001ZM20,41c-.54999,0-1-.45001-1-1s.45001-1,1-1,1,.45001,1,1-.45001,1-1,1ZM21,32c0,.54999-.45001,1-1,1s-1-.45001-1-1v-3h2v3ZM25,32c0,.54999-.45001,1-1,1s-1-.45001-1-1v-3h2v3ZM29,32c0,.54999-.45001,1-1,1s-1-.45001-1-1v-3h2v3ZM33,32c0,.54999-.45001,1-1,1s-1-.45001-1-1v-3h2v3ZM37,32c0,.54999-.45001,1-1,1s-1-.45001-1-1v-3h2v3ZM19,27v-5h21c.54999,0,1,.45001,1,1v4h-22ZM40,41c-.54999,0-1-.45001-1-1s.45001-1,1-1,1,.45001,1,1-.45001,1-1,1ZM40,33c-.54999,0-1-.45001-1-1v-3h2v3c0,.54999-.45001,1-1,1Z" fill="#000" stroke-width="0"/></svg>