<?xml version="1.0" encoding="UTF-8"?><svg xmlns="http://www.w3.org/2000/svg" id="Outline" version="1.1" viewBox="0 0 48 48"><path d="M21.12695,9.95654l-.13428.68799c-.12305.62988.12304,1.25585.64257,1.63329.49986.36316,1.19805.41478,1.75197.10597l.61279-.33984.6123.33984c.56104.31152,1.23242.27051,1.75244-.10596.51953-.37744.76562-1.00342.64258-1.6333l-.13428-.68799.5127-.47754c.47021-.43701.63867-1.08838.44043-1.69922-.19824-.61035-.71729-1.03809-1.35449-1.11572l-.69629-.08496-.29541-.63525c-.271-.58252-.83838-.94385-1.47998-.94385s-1.20898.36133-1.47998.94385l-.29541.63525-.69629.08496c-.63721.07764-1.15625.50537-1.35449,1.11572-.19824.61084-.02979,1.26221.44043,1.69922l.5127.47754ZM23.01807,8.49707c.34277-.04199.63965-.25781.78564-.5708l.19629-.42188.19629.42188c.146.31299.44287.52881.78564.5708l.46289.05664-.34082.31738c-.25293.23535-.3667.58447-.30029.92334l.08936.45752-.40772-.22607c-.2993-.1666-.6713-.16666-.9707,0l-.40771.22607.08936-.45752c.06641-.33887-.04736-.68799-.30029-.92334l-.34082-.31738.46289-.05664Z" fill="#000" stroke-width="0"/><path d="M11.12695,9.95654l-.13428.68799c-.12305.62988.12304,1.25585.64256,1.63329.49929.36275,1.19876.41438,1.75197.10597l.61279-.33984.6123.33984c.56152.31152,1.23193.27051,1.75244-.10596.51953-.37744.76562-1.00342.64258-1.6333l-.13428-.68799.5127-.47754c.47021-.43701.63867-1.08838.44043-1.69922-.19824-.61035-.71729-1.03809-1.35449-1.11572l-.69629-.08496-.29541-.63525c-.271-.58252-.83838-.94385-1.47998-.94385s-1.20898.36133-1.47998.94385l-.29541.63525-.69629.08496c-.63721.07764-1.15625.50537-1.35449,1.11572-.19824.61084-.02979,1.26221.44043,1.69922l.5127.47754ZM13.01807,8.49707c.34277-.04199.63965-.25781.78564-.5708l.19629-.42188.19629.42188c.146.31299.44287.52881.78564.5708l.46289.05664-.34082.31738c-.25293.23535-.3667.58447-.30029.92334l.08936.45752-.40771-.22607c-.15088-.08398-.31787-.12598-.48535-.12598s-.33447.04199-.48535.12598l-.40771.22607.08936-.45752c.06641-.33887-.04736-.68799-.30029-.92334l-.34082-.31738.46289-.05664Z" fill="#000" stroke-width="0"/><path d="M31.12695,9.95654l-.13428.68799c-.12305.62988.12305,1.25586.64257,1.6333.49481.35948,1.19135.4185,1.75196.10596l.61279-.33984.6123.33984c.56055.31152,1.23193.27051,1.75244-.10596.51953-.37744.76562-1.00342.64258-1.6333l-.13428-.68799.5127-.47754c.47021-.43701.63867-1.08838.44043-1.69922-.19824-.61035-.71729-1.03809-1.35449-1.11572l-.69629-.08496-.29541-.63525c-.271-.58252-.83838-.94385-1.47998-.94385s-1.20898.36133-1.47998.94385l-.29541.63525-.69629.08496c-.63721.07764-1.15625.50537-1.35449,1.11572-.19824.61084-.02979,1.26221.44043,1.69922l.5127.47754ZM33.01807,8.49707c.34277-.04199.63965-.25781.78564-.5708l.19629-.42188.19629.42188c.146.31299.44287.52881.78564.5708l.46289.05664-.34082.31738c-.25293.23535-.3667.58447-.30029.92334l.08936.45752-.40771-.22607c-.2998-.16623-.67107-.16678-.9707,0l-.40771.22607.08936-.45752c.06641-.33887-.04736-.68799-.30029-.92334l-.34082-.31738.46289-.05664Z" fill="#000" stroke-width="0"/><path d="M37,41h-2v-24c0-1.65002-1.34998-3-3-3h-16c-1.65002,0-3,1.34998-3,3v24h-2c-.54999,0-1,.45001-1,1s.45001,1,1,1h26c.54999,0,1-.45001,1-1s-.45001-1-1-1ZM26,41h-4v-5h4v5ZM33,41h-5v-6c0-.54999-.45001-1-1-1h-6c-.54999,0-1,.45001-1,1v6h-5v-24c0-.54999.45001-1,1-1h16c.54999,0,1,.45001,1,1v24Z" fill="#000" stroke-width="0"/><path d="M22,18h-4c-.55225,0-1,.44775-1,1v4c0,.55225.44775,1,1,1h4c.55225,0,1-.44775,1-1v-4c0-.55225-.44775-1-1-1ZM21,22h-2v-2h2v2Z" fill="#000" stroke-width="0"/><path d="M30,18h-4c-.55225,0-1,.44775-1,1v4c0,.55225.44775,1,1,1h4c.55225,0,1-.44775,1-1v-4c0-.55225-.44775-1-1-1ZM29,22h-2v-2h2v2Z" fill="#000" stroke-width="0"/><path d="M30,26h-4c-.55225,0-1,.44775-1,1v4c0,.55225.44775,1,1,1h4c.55225,0,1-.44775,1-1v-4c0-.55225-.44775-1-1-1ZM29,30h-2v-2h2v2Z" fill="#000" stroke-width="0"/><path d="M22,26h-4c-.55225,0-1,.44775-1,1v4c0,.55225.44775,1,1,1h4c.55225,0,1-.44775,1-1v-4c0-.55225-.44775-1-1-1ZM21,30h-2v-2h2v2Z" fill="#000" stroke-width="0"/></svg>