<?xml version="1.0" encoding="UTF-8"?><svg xmlns="http://www.w3.org/2000/svg" id="Outline" version="1.1" viewBox="0 0 48 48"><path d="M36.78003,33.12c.13995-.35004.21997-.72998.21997-1.12,0-1.29999-.84003-2.40002-2-2.82001v-5.17999c0-1.65002-1.34998-3-3-3h-16c-1.65002,0-3,1.34998-3,3v5.17999c-1.15997.41998-2,1.52002-2,2.82001,0,.39001.08002.76996.21997,1.12-1.26996.33997-2.21997,1.5-2.21997,2.88v6c0,.54999.45001,1,1,1h28c.54999,0,1-.45001,1-1v-6c0-1.38-.95001-2.54004-2.21997-2.88ZM15,24c0-.54999.45001-1,1-1h16c.54999,0,1,.45001,1,1v5h-2v-3c0-.54999-.45001-1-1-1h-4c-.54999,0-1,.45001-1,1v3h-2v-3c0-.54999-.45001-1-1-1h-4c-.54999,0-1,.45001-1,1v3h-2v-5ZM29,27v2h-2v-2h2ZM21,27v2h-2v-2h2ZM14,31h20c.54999,0,1,.45001,1,1s-.45001,1-1,1H14c-.54999,0-1-.45001-1-1s.45001-1,1-1ZM37,41H11v-5c0-.54999.45001-1,1-1h24c.54999,0,1,.45001,1,1v5Z" fill="#000" stroke-width="0"/><circle cx="27" cy="10" r="1" fill="#000" stroke-width="0"/><path d="M40,5H8c-1.65002,0-3,1.34998-3,3v5c0,.54999.45001,1,1,1s1-.45001,1-1v-5c0-.54999.45001-1,1-1h5v9c0,1.64996,1.34998,3,3,3h16c1.65002,0,3-1.35004,3-3V7h5c.54999,0,1,.45001,1,1v5c0,.54999.45001,1,1,1s1-.45001,1-1v-5c0-1.65002-1.34998-3-3-3ZM16.40997,17l5.59003-5.59003,5.59003,5.59003h-11.18005ZM32,17h-1.59003l-2-2,1.59003-1.59003,2.92999,2.92999c-.14001.39001-.5.66003-.92999.66003ZM33,13.58997l-2.28998-2.29999c-.39001-.39001-1.03003-.39001-1.42004,0l-2.28998,2.29999-4.28998-4.29999c-.39001-.39001-1.03003-.39001-1.42004,0l-6.28998,6.29999V7h18v6.58997Z" fill="#000" stroke-width="0"/><path d="M11,23v-4c0-.55273-.44775-1-1-1h-4c-.55225,0-1,.44727-1,1v4c0,.55273.44775,1,1,1h4c.55225,0,1-.44727,1-1ZM9,22h-2v-2h2v2Z" fill="#000" stroke-width="0"/><path d="M42,18h-4c-.55225,0-1,.44727-1,1v4c0,.55273.44775,1,1,1h4c.55225,0,1-.44727,1-1v-4c0-.55273-.44775-1-1-1ZM41,22h-2v-2h2v2Z" fill="#000" stroke-width="0"/></svg>