<?xml version="1.0" encoding="UTF-8"?><svg xmlns="http://www.w3.org/2000/svg" id="Outline" version="1.1" viewBox="0 0 48 48"><path d="M32,13h-2v-5c0-1.65002-1.34998-3-3-3h-6c-1.65002,0-3,1.34998-3,3v5h-2c-1.65002,0-3,1.34998-3,3v20c0,1.64996,1.34998,3,3,3v3c0,.54999.45001,1,1,1h4c.54999,0,1-.45001,1-1v-3h4v3c0,.54999.45001,1,1,1h4c.54999,0,1-.45001,1-1v-3c1.65002,0,3-1.35004,3-3v-20c0-1.65002-1.34998-3-3-3ZM20,8c0-.54999.45001-1,1-1h6c.54999,0,1,.45001,1,1v5h-8v-5ZM20,41h-2v-2h2v2ZM30,41h-2v-2h2v2ZM33,36c0,.54999-.45001,1-1,1h-16c-.54999,0-1-.45001-1-1v-20c0-.54999.45001-1,1-1h16c.54999,0,1,.45001,1,1v20Z" fill="#000" stroke-width="0"/><path d="M29,25h-10c-1.10254,0-2,.89697-2,2v6c0,1.10303.89746,2,2,2h10c1.10254,0,2-.89697,2-2v-6c0-1.10303-.89746-2-2-2ZM19,33v-6h10l.00098,6h-10.00098Z" fill="#000" stroke-width="0"/><path d="M31,17h-13c-.55273,0-1,.44775-1,1v3c0,.55225.44727,1,1,1s1-.44775,1-1v-2h11v2c0,.55225.44727,1,1,1s1-.44775,1-1v-3c0-.55225-.44727-1-1-1Z" fill="#000" stroke-width="0"/><path d="M26,29h-4c-.55273,0-1,.44775-1,1s.44727,1,1,1h4c.55273,0,1-.44775,1-1s-.44727-1-1-1Z" fill="#000" stroke-width="0"/></svg>