<?xml version="1.0" encoding="UTF-8"?><svg xmlns="http://www.w3.org/2000/svg" id="Outline" version="1.1" viewBox="0 0 48 48"><path d="M32,41h-2v-24c0-1.65002-1.34998-3-3-3H11c-1.65002,0-3,1.34998-3,3v24h-2c-.54999,0-1,.45001-1,1s.45001,1,1,1h26c.54999,0,1-.45001,1-1s-.45001-1-1-1ZM21,41h-4v-5h4v5ZM28,41h-5v-6c0-.54999-.45001-1-1-1h-6c-.54999,0-1,.45001-1,1v6h-5v-24c0-.54999.45001-1,1-1h16c.54999,0,1,.45001,1,1v24Z" fill="#000" stroke-width="0"/><path d="M17,18h-4c-.55225,0-1,.44775-1,1v4c0,.55225.44775,1,1,1h4c.55225,0,1-.44775,1-1v-4c0-.55225-.44775-1-1-1ZM16,22h-2v-2h2v2Z" fill="#000" stroke-width="0"/><path d="M25,18h-4c-.55225,0-1,.44775-1,1v4c0,.55225.44775,1,1,1h4c.55225,0,1-.44775,1-1v-4c0-.55225-.44775-1-1-1ZM24,22h-2v-2h2v2Z" fill="#000" stroke-width="0"/><path d="M25,26h-4c-.55225,0-1,.44775-1,1v4c0,.55225.44775,1,1,1h4c.55225,0,1-.44775,1-1v-4c0-.55225-.44775-1-1-1ZM24,30h-2v-2h2v2Z" fill="#000" stroke-width="0"/><path d="M17,26h-4c-.55225,0-1,.44775-1,1v4c0,.55225.44775,1,1,1h4c.55225,0,1-.44775,1-1v-4c0-.55225-.44775-1-1-1ZM16,30h-2v-2h2v2Z" fill="#000" stroke-width="0"/><path d="M42.77832,8.22168c-4.28906-4.28906-11.26758-4.28906-15.55664,0-.39062.39062-.39062,1.02344,0,1.41406s1.02344.39062,1.41406,0c3.50977-3.50879,9.21875-3.50879,12.72852,0,.38619.38618,1.0277.38635,1.41405,0,.39062-.39062.39062-1.02344,0-1.41406Z" fill="#000" stroke-width="0"/><path d="M30.05029,11.05029c-.39062.39062-.39062,1.02344,0,1.41406s1.02344.39062,1.41406,0c1.94922-1.94922,5.12207-1.94922,7.07128,0,.37535.37535,1.02235.39172,1.41407,0,.39062-.39062.39062-1.02344,0-1.41406-2.72949-2.72949-7.16992-2.72949-9.89941,0Z" fill="#000" stroke-width="0"/><path d="M35,13.00098c-.80225,0-1.55566.31201-2.12158.87793-.39014.39062-.39014,1.02393.00049,1.41455.39062.38965,1.02393.39014,1.41455-.00049.18799-.18848.43896-.29199.70654-.29199s.51855.10352.70654.29199c.38635.38635,1.02818.38588,1.41455.00049.39062-.39062.39062-1.02393.00049-1.41455-.56592-.56592-1.31934-.87793-2.12158-.87793Z" fill="#000" stroke-width="0"/><circle cx="35" cy="18" r="1" fill="#000" stroke-width="0"/></svg>