<?xml version="1.0" encoding="UTF-8"?><svg xmlns="http://www.w3.org/2000/svg" id="Outline" version="1.1" viewBox="0 0 64 64"><path d="M46,33h-6c-3.74,0-6.95-2.29-8.31-5.55v-.02c0-.01-.01-.01-.01-.02-.44-1.05-.68-2.2-.68-3.41v-7.18c1.16-.42,2-1.52,2-2.82v-4c0-1.65-1.35-3-3-3H10c-1.65,0-3,1.35-3,3v4c0,1.3.84,2.4,2,2.82v37.18c0,1.65,1.35,3,3,3h8c.55,0,1-.45,1-1v-1h4.76l3.79,1.89c.14.07.29.11.45.11h24c1.65,0,3-1.35,3-3v-10c0-6.07-4.93-11-11-11ZM31.08,30.41l-2.64,1.76c-.45.31-.58.93-.27,1.39.306.454.938.572,1.39.27l2.84-1.9c.46.45.96.86,1.5,1.22l-.85,2.53c-.17.53.11,1.09.631,1.27.525.143,1.089-.09,1.269-.63l.73-2.2c.74.31,1.51.54,2.32.69v2.19c0,.55.45,1,1,1s1-.45,1-1v-2h4v14H11V17h18v6h-2c-.55,0-1,.45-1,1s.45,1,1,1h2.05c.07.73.21,1.44.41,2.12l-2.78.93c-.52.18-.8.74-.63,1.27.173.541.751.772,1.27.63l2.89-.97c.25.5.54.98.87,1.43ZM9,14v-4c0-.55.45-1,1-1h20c.55,0,1,.45,1,1v4c0,.55-.45,1-1,1H10c-.55,0-1-.45-1-1ZM55,54c0,.55-.45,1-1,1h-23.76l-3.79-1.89c-.14-.07-.29-.11-.45-.11h-6c-.55,0-1,.45-1,1v1h-7c-.55,0-1-.45-1-1v-3h44v3ZM55,49h-9v-14c4.96,0,9,4.04,9,9v5Z"/><path d="M28,38h-1.586l1.293-1.293c.391-.391.391-1.023,0-1.414s-1.023-.391-1.414,0l-2.707,2.707h-1.586v-1.586l2.707-2.707c.391-.391.391-1.023,0-1.414s-1.023-.391-1.414,0l-1.293,1.293v-1.586c0-.552-.447-1-1-1s-1,.448-1,1v1.586l-1.293-1.293c-.391-.391-1.023-.391-1.414,0s-.391,1.023,0,1.414l2.707,2.707v1.586h-1.586l-2.707-2.707c-.391-.391-1.023-.391-1.414,0s-.391,1.023,0,1.414l1.293,1.293h-1.586c-.553,0-1,.448-1,1s.447,1,1,1h1.586l-1.293,1.293c-.391.391-.391,1.023,0,1.414.388.388,1.024.389,1.414,0l2.707-2.707h1.586v1.586l-2.707,2.707c-.391.391-.391,1.023,0,1.414s1.023.391,1.414,0l1.293-1.293v1.586c0,.552.447,1,1,1s1-.448,1-1v-1.586l1.293,1.293c.362.362,1.023.392,1.414,0,.391-.391.391-1.023,0-1.414l-2.707-2.707v-1.586h1.586l2.707,2.707c.368.368,1.014.4,1.414,0,.391-.391.391-1.023,0-1.414l-1.293-1.293h1.586c.553,0,1-.448,1-1s-.447-1-1-1Z"/></svg>