<?xml version="1.0" encoding="UTF-8"?><svg xmlns="http://www.w3.org/2000/svg" id="Outline" version="1.1" viewBox="0 0 64 64"><path d="M56,50.5h-3v-24.26h.01c.37.18.77.26,1.17.26.53,0,1.06-.15,1.52-.45.82-.52,1.3-1.41,1.3-2.37,0-1.1-.65-2.1-1.64-2.56l-22.94-10.52c-.27-.12-.57-.12-.84,0l-8.58,3.94v-.04c0-2.25-1.87-4.04-4.13-4-.44-1.72-2.01-3-3.87-3s-3.43,1.28-3.87,3c-2.24-.04-4.13,1.75-4.13,4,0,2.21,1.79,4,4,4h3.36l-5.72,2.62c-.99.46-1.64,1.46-1.64,2.56,0,.96.48,1.85,1.3,2.37.81.52,1.82.59,2.69.19h.01v24.26h-3c-.55,0-1,.45-1,1v4c0,.55.45,1,1,1h48c.55,0,1-.45,1-1v-4c0-.55-.45-1-1-1ZM11,16.5c-1.1,0-2-.9-2-2,0-1.33,1.32-2.39,2.67-1.87.3.11.65.07.92-.12.27-.18.43-.49.43-.82,0-.08-.01-.16-.02-.19,0-1.1.9-2,2-2s2,.9,2,1.94c-.01.05-.02.2-.02.25,0,.33.16.64.43.82.27.19.62.23.92.12,1.35-.51,2.67.54,2.67,1.87,0,.4-.13.78-.35,1.12l-1.93.88h-7.72ZM10.16,24.42c-.37.17-.67.02-.78-.05-.12-.07-.38-.29-.38-.69,0-.32.19-.61.48-.74l22.52-10.33,22.52,10.33c.29.13.48.42.48.74,0,.4-.26.62-.38.69-.11.07-.41.22-.78.05l-21.42-9.82c-.27-.12-.57-.12-.84,0l-21.42,9.82ZM13,44.5v-4h3v4h-3ZM16,46.5v4h-3v-4h3ZM13,38.5v-4h5.11c-1.07,1.05-1.81,2.44-2.03,4h-3.08ZM18,39.5c0-2.76,2.24-5,5-5s5,2.24,5,5v11h-10v-11ZM27.89,34.5h5.11v4h-3.08c-.22-1.56-.96-2.95-2.03-4ZM33,40.5v4h-3v-4h3ZM30,46.5h21v4h-21v-4ZM35,44.5v-10h12v10h-12ZM49,44.5v-4h2v4h-2ZM49,38.5v-4h2v4h-2ZM13,32.5v-4h38v4H13ZM13,26.5v-1.18l19-8.71,19,8.71v1.18H13ZM55,54.5H9v-2h46v2Z"/><circle cx="21" cy="44.5" r="1"/></svg>