<?xml version="1.0" encoding="UTF-8"?><svg xmlns="http://www.w3.org/2000/svg" id="Outline" version="1.1" viewBox="0 0 64 64"><path d="M29.707,43.293l-2.707-2.707v-1.586h1.586l2.707,2.707c.195.195.451.293.707.293s.512-.098.707-.293c.391-.391.391-1.023,0-1.414l-1.293-1.293h1.586c.552,0,1-.448,1-1s-.448-1-1-1h-1.586l1.293-1.293c.391-.391.391-1.023,0-1.414s-1.023-.391-1.414,0l-2.707,2.707h-1.586v-1.586l2.707-2.707c.391-.391.391-1.023,0-1.414s-1.023-.391-1.414,0l-1.293,1.293v-1.586c0-.552-.448-1-1-1s-1,.448-1,1v1.586l-1.293-1.293c-.391-.391-1.023-.391-1.414,0s-.391,1.023,0,1.414l2.707,2.707v1.586h-1.586l-2.707-2.707c-.391-.391-1.023-.391-1.414,0s-.391,1.023,0,1.414l1.293,1.293h-1.586c-.552,0-1,.448-1,1s.448,1,1,1h1.586l-1.293,1.293c-.391.391-.391,1.023,0,1.414.195.195.451.293.707.293s.512-.098.707-.293l2.707-2.707h1.586v1.586l-2.707,2.707c-.391.391-.391,1.023,0,1.414s1.023.391,1.414,0l1.293-1.293v1.586c0,.552.448,1,1,1s1-.448,1-1v-1.586l1.293,1.293c.195.195.451.293.707.293s.512-.098.707-.293c.391-.391.391-1.023,0-1.414Z"/><path d="M49,20h-5c0-1.65-1.35-3-3-3H11c-1.65,0-3,1.35-3,3v20c0,4.63,2.44,8.7,6.1,11h-5.1c-.55,0-1,.45-1,1,0,2.76,2.24,5,5,5h26c2.76,0,5-2.24,5-5,0-.55-.45-1-1-1h-5.1c3.66-2.3,6.1-6.37,6.1-11h5c3.86,0,7-3.14,7-7v-6c0-3.86-3.14-7-7-7ZM41.83,53c-.41,1.16-1.53,2-2.83,2H13c-1.3,0-2.42-.84-2.83-2h31.66ZM42,40c0,6.07-4.93,11-11,11h-10c-6.07,0-11-4.93-11-11v-16h32v16ZM42,22H10v-2c0-.55.45-1,1-1h30c.55,0,1,.45,1,1v2ZM44,26.11h5c.55,0,1,.45,1,1v5.78c0,.55-.45,1-1,1h-5v-7.78ZM54,33c0,2.76-2.24,5-5,5h-5v-2.11h5c1.65,0,3-1.35,3-3v-5.78c0-1.65-1.35-3-3-3h-5v-2.11h5c2.76,0,5,2.24,5,5v6Z"/><g><path d="M16.293,7.293l-1,1c-.941.941-.941,2.473,0,3.414.162.162.162.424,0,.586l-1,1c-.391.391-.391,1.023,0,1.414.387.387,1.027.387,1.414,0l1-1c.941-.941.941-2.473,0-3.414-.162-.162-.162-.424,0-.586l1-1c.391-.391.391-1.023,0-1.414s-1.023-.391-1.414,0Z"/><path d="M21.293,7.293l-1,1c-.941.941-.941,2.473,0,3.414.162.162.162.424,0,.586l-1,1c-.391.391-.391,1.023,0,1.414.387.387,1.026.388,1.414,0l1-1c.941-.941.941-2.473,0-3.414-.162-.162-.162-.424,0-.586l1-1c.391-.391.391-1.023,0-1.414s-1.023-.391-1.414,0Z"/><path d="M26.293,7.293l-1,1c-.941.941-.941,2.473,0,3.414.162.162.162.424,0,.586l-1,1c-.391.391-.391,1.023,0,1.414.387.387,1.026.388,1.414,0l1-1c.941-.941.941-2.473,0-3.414-.162-.162-.162-.424,0-.586l1-1c.391-.391.391-1.023,0-1.414s-1.023-.391-1.414,0Z"/><path d="M31.293,7.293l-1,1c-.941.941-.941,2.473,0,3.414.162.162.162.424,0,.586l-1,1c-.391.391-.391,1.023,0,1.414.371.371,1.017.397,1.414,0l1-1c.941-.941.941-2.473,0-3.414-.162-.162-.162-.424,0-.586l1-1c.391-.391.391-1.023,0-1.414s-1.023-.391-1.414,0Z"/><path d="M37.707,8.707c.391-.391.391-1.023,0-1.414s-1.023-.391-1.414,0l-1,1c-.941.941-.941,2.473,0,3.414.162.162.162.424,0,.586l-1,1c-.391.391-.391,1.023,0,1.414.387.387,1.027.387,1.414,0l1-1c.941-.941.941-2.473,0-3.414-.162-.162-.162-.424,0-.586l1-1Z"/></g><path d="M39,39c-.552,0-1,.448-1,1,0,3.86-3.14,7-7,7-.552,0-1,.448-1,1s.448,1,1,1c4.962,0,9-4.038,9-9,0-.552-.448-1-1-1Z"/><path d="M21,47c-3.86,0-7-3.14-7-7,0-.552-.448-1-1-1s-1,.448-1,1c0,4.962,4.038,9,9,9,.552,0,1-.448,1-1s-.448-1-1-1Z"/></svg>