<?xml version="1.0" encoding="UTF-8"?><svg xmlns="http://www.w3.org/2000/svg" id="Outline" version="1.1" viewBox="0 0 64 64"><path d="M54,51h-3v-28.67l2.8-3.73c.23-.3.26-.71.09-1.05-.17-.34-.51-.55-.89-.55h-28v-4.18c1.16-.42,2-1.52,2-2.82,0-1.65-1.35-3-3-3h-8c-1.65,0-3,1.35-3,3,0,1.3.84,2.4,2,2.82v4.18h-4c-.38,0-.72.21-.89.55-.17.34-.14.75.09,1.05l2.8,3.73v28.67h-3c-1.65,0-3,1.35-3,3s1.35,3,3,3h44c1.65,0,3-1.35,3-3s-1.35-3-3-3ZM16,9h8c.55,0,1,.45,1,1s-.45,1-1,1h-8c-.55,0-1-.45-1-1s.45-1,1-1ZM23,13v4h-6v-4h6ZM51,19l-1.5,2H14.5l-1.5-2h38ZM32,25c-7.72,0-14,6.28-14,14v12h-3v-28h34v28h-3v-12c0-7.72-6.28-14-14-14ZM32.74,43.33c-.37-.42-1.11-.42-1.48,0-.55.61-3.26,3.73-3.26,5.67,0,.35.06.68.14,1-2.46-1.36-4.14-3.99-4.14-7,0-3.4,5.27-9.06,8-11.64.49.47,1.21,1.18,2.03,2.03.32.34.48.78.47,1.25-.02.46-.22.89-.61,1.23-1.25,1.11-1.61,2.93-.86,4.42l1.08,2.16c.305.611,1.114.725,1.6.26l3.13-3.13c.76,1.36,1.16,2.53,1.16,3.42,0,3.01-1.68,5.64-4.14,7,.08-.32.14-.65.14-1,0-1.94-2.71-5.06-3.26-5.67ZM34,49c0,1.1-.9,2-2,2s-2-.9-2-2c0-.64.94-2.13,2-3.45,1.06,1.32,2,2.81,2,3.45ZM42,43c0-1.53-.71-3.4-2.12-5.57-.331-.51-1.095-.594-1.55-.16l-3.05,3.05-.46-.92c-.34-.69-.18-1.52.44-2.07.75-.67,1.19-1.6,1.23-2.6.05-1.02-.32-1.98-1.01-2.71-1.55-1.63-2.76-2.72-2.81-2.77-.38-.33-.96-.33-1.34,0-.95.86-9.33,8.48-9.33,13.75,0,3.27,1.59,6.17,4.03,8h-6.03v-12c0-6.62,5.38-12,12-12s12,5.38,12,12v12h-6.03c2.44-1.83,4.03-4.73,4.03-8ZM54,55H10c-.55,0-1-.45-1-1s.45-1,1-1h44c.55,0,1,.45,1,1s-.45,1-1,1Z"/></svg>