<?xml version="1.0" encoding="UTF-8"?><svg xmlns="http://www.w3.org/2000/svg" id="Outline" version="1.1" viewBox="0 0 64 64"><path d="M53,34.87h-2.18c-.37-1.22-1.3-2.21-2.56-2.63-10.48-3.5-22.03-3.49-32.52,0-1.26.42-2.19,1.41-2.56,2.63h-2.18c-2.21,0-4,1.8-4,4v6c0,2.21,1.79,4,4,4h2.06c.28,2.92,2.35,5.39,5.24,6.11l5.49,1.37c.39.1.8.15,1.2.15,1.16,0,2.3-.4,3.21-1.16l2.52-2.1c.74-.62,1.82-.62,2.56,0l2.52,2.1c1.22,1.02,2.87,1.4,4.41,1.01l5.49-1.37c2.89-.72,4.96-3.19,5.24-6.11h2.06c2.21,0,4-1.79,4-4v-6c0-2.2-1.79-4-4-4ZM13,46.87h-2c-1.1,0-2-.89-2-2v-6c0-1.1.9-2,2-2h2v10ZM49,48.19c0,2.3-1.56,4.29-3.79,4.85l-5.48,1.37c-.93.23-1.92.01-2.65-.61l-2.52-2.09c-1.48-1.24-3.64-1.24-5.12,0l-2.52,2.09c-.73.62-1.72.84-2.65.61l-5.48-1.37c-2.23-.56-3.79-2.55-3.79-4.85v-12.15c0-.87.55-1.63,1.37-1.9,5.04-1.68,10.33-2.52,15.63-2.52s10.59.84,15.63,2.52c.82.27,1.37,1.03,1.37,1.9v12.15ZM55,44.87c0,1.11-.9,2-2,2h-2v-10h2c1.1,0,2,.9,2,2v6Z"/><path d="M46.3,35.81c-9.26-2.93-19.34-2.93-28.6,0-.42.13-.7.52-.7.95v11.43c0,1.38.93,2.57,2.27,2.91l5.49,1.37c.08.02.16.03.24.03.23,0,.46-.08.64-.23l2.52-2.1c2.15-1.79,5.53-1.79,7.68,0l2.52,2.1c.25.2.57.28.88.2l5.49-1.37c1.34-.34,2.27-1.53,2.27-2.91v-11.43c0-.43-.28-.82-.7-.95ZM45,48.19c0,.46-.31.86-.76.97l-4.99,1.25-2.13-1.78c-1.43-1.19-3.25-1.85-5.12-1.85s-3.69.66-5.12,1.85l-2.13,1.78-4.99-1.25c-.45-.11-.76-.51-.76-.97v-10.69c8.44-2.52,17.56-2.52,26,0v10.69Z"/><path d="M22.707,42.58l3-3c.391-.391.391-1.023,0-1.414s-1.023-.391-1.414,0l-3,3c-.391.391-.391,1.023,0,1.414.387.387,1.026.388,1.414,0Z"/><path d="M29.293,39.166l-7,7c-.391.391-.391,1.023,0,1.414.387.387,1.026.388,1.414,0l7-7c.391-.391.391-1.023,0-1.414s-1.023-.391-1.414,0Z"/><path d="M18,16.5h1.586l-1.293,1.293c-.391.391-.391,1.023,0,1.414.387.387,1.028.386,1.414,0l2.707-2.707h1.586v1.586l-2.707,2.707c-.391.391-.391,1.023,0,1.414s1.023.391,1.414,0l1.293-1.293v1.586c0,.552.447,1,1,1s1-.448,1-1v-1.586s1.293,1.293,1.293,1.293c.387.387,1.026.388,1.414,0,.391-.391.391-1.023,0-1.414l-2.707-2.707v-1.586h1.586l2.707,2.707c.365.365,1.026.388,1.414,0,.391-.391.391-1.023,0-1.414l-1.293-1.293h1.586c.553,0,1-.448,1-1s-.447-1-1-1h-1.586l1.293-1.293c.391-.391.391-1.023,0-1.414s-1.023-.391-1.414,0l-2.707,2.707h-1.586v-1.586l2.707-2.707c.391-.391.391-1.023,0-1.414s-1.023-.391-1.414,0l-1.293,1.293v-1.586c0-.552-.447-1-1-1s-1,.448-1,1v1.586l-1.293-1.293c-.391-.391-1.023-.391-1.414,0s-.391,1.023,0,1.414l2.707,2.707v1.586h-1.586l-2.707-2.707c-.391-.391-1.023-.391-1.414,0s-.391,1.023,0,1.414l1.293,1.293h-1.586c-.553,0-1,.448-1,1s.447,1,1,1Z"/><path d="M45,18.914v1.586h-1.586l-2.707-2.707c-.391-.391-1.023-.391-1.414,0s-.391,1.023,0,1.414l1.293,1.293h-1.586c-.553,0-1,.448-1,1s.447,1,1,1h1.586l-1.293,1.293c-.391.391-.391,1.023,0,1.414.387.387,1.027.387,1.414,0l2.707-2.707h1.586v1.586l-2.707,2.707c-.391.391-.391,1.023,0,1.414s1.023.391,1.414,0l1.293-1.293v1.586c0,.552.447,1,1,1s1-.448,1-1v-1.586s1.293,1.293,1.293,1.293c.387.387,1.028.386,1.414,0,.391-.391.391-1.023,0-1.414l-2.707-2.707v-1.586h1.586s2.707,2.707,2.707,2.707c.387.387,1.027.386,1.414,0,.391-.391.391-1.023,0-1.414l-1.293-1.293h1.586c.553,0,1-.448,1-1s-.447-1-1-1h-1.586l1.293-1.293c.391-.391.391-1.023,0-1.414s-1.023-.391-1.414,0l-2.707,2.707h-1.586v-1.586l2.707-2.707c.391-.391.391-1.023,0-1.414s-1.023-.391-1.414,0l-1.293,1.293v-1.586c0-.552-.447-1-1-1s-1,.448-1,1v1.586l-1.293-1.293c-.391-.391-1.023-.391-1.414,0s-.391,1.023,0,1.414l2.707,2.707Z"/><path d="M14,26.5c0,1.654,1.346,3,3,3s3-1.346,3-3-1.346-3-3-3-3,1.346-3,3ZM17,25.5c.552,0,1,.449,1,1s-.448,1-1,1-1-.449-1-1,.448-1,1-1Z"/><path d="M12,14.5c1.654,0,3-1.346,3-3s-1.346-3-3-3-3,1.346-3,3,1.346,3,3,3ZM12,10.5c.552,0,1,.449,1,1s-.448,1-1,1-1-.449-1-1,.448-1,1-1Z"/><path d="M38,15.5c1.654,0,3-1.346,3-3s-1.346-3-3-3-3,1.346-3,3,1.346,3,3,3ZM38,11.5c.552,0,1,.449,1,1s-.448,1-1,1-1-.449-1-1,.448-1,1-1Z"/><path d="M31,24.5c0,1.654,1.346,3,3,3s3-1.346,3-3-1.346-3-3-3-3,1.346-3,3ZM34,23.5c.552,0,1,.449,1,1s-.448,1-1,1-1-.449-1-1,.448-1,1-1Z"/><path d="M54,13.5c1.654,0,3-1.346,3-3s-1.346-3-3-3-3,1.346-3,3,1.346,3,3,3ZM54,9.5c.552,0,1,.449,1,1s-.448,1-1,1-1-.449-1-1,.448-1,1-1Z"/></svg>