<?xml version="1.0" encoding="UTF-8"?><svg xmlns="http://www.w3.org/2000/svg" id="Outline" version="1.1" viewBox="0 0 64 64"><path d="M54,45.14v-6.14c0-10.74-7.73-19.69-17.92-21.61,1.18-1.1,1.92-2.66,1.92-4.39,0-3.31-2.69-6-6-6s-6,2.69-6,6c0,1.73.74,3.29,1.92,4.39-10.19,1.92-17.92,10.87-17.92,21.61v6.14c-1.72.45-3,2-3,3.86v4c0,2.21,1.79,4,4,4h42c2.21,0,4-1.79,4-4v-4c0-1.86-1.28-3.41-3-3.86ZM32,9c2.21,0,4,1.79,4,4s-1.79,4-4,4-4-1.79-4-4,1.79-4,4-4ZM32,19c9.86,0,18.05,7.18,19.69,16.58l-2.89.96c-1.07.35-2.24.23-3.2-.35l-.59-.36c-1.86-1.11-4.17-1.11-6.02,0-1.23.74-2.75.74-3.98,0-1.86-1.11-4.17-1.11-6.02,0-1.23.74-2.75.74-3.98,0-1.86-1.11-4.16-1.11-6.03,0l-.58.36c-.97.58-2.13.7-3.2.35l-2.89-.96c1.64-9.4,9.83-16.58,19.69-16.58ZM12,39c0-.47.04-.93.07-1.4l2.49.83c1.63.55,3.4.35,4.87-.53l.58-.35c1.23-.73,2.75-.73,3.98,0,1.85,1.12,4.17,1.12,6.02,0,1.23-.73,2.75-.73,3.98,0,1.85,1.12,4.17,1.12,6.02,0,1.23-.73,2.75-.73,3.97,0l.59.35c.92.55,1.96.84,3.01.84.63,0,1.25-.1,1.86-.31l2.49-.83c.03.47.07.93.07,1.4v.6l-3.2,1.07c-1.07.36-2.24.23-3.2-.35l-.59-.35c-1.85-1.12-4.17-1.12-6.02,0-1.23.73-2.75.73-3.98,0-1.85-1.12-4.17-1.12-6.02,0-1.23.73-2.75.73-3.98,0-1.85-1.12-4.16-1.12-6.02,0l-.59.35c-.96.58-2.13.71-3.2.35l-3.2-1.07v-.6ZM12,41.71l2.56.86c.61.2,1.24.3,1.86.3,1.05,0,2.09-.29,3.01-.84l.58-.35c1.23-.73,2.75-.73,3.98,0,1.86,1.12,4.17,1.12,6.02,0,1.23-.73,2.75-.73,3.98,0,1.86,1.12,4.17,1.12,6.02,0,1.23-.73,2.75-.73,3.98,0l.58.35c1.47.88,3.24,1.08,4.87.54l2.56-.86v3.29H12v-3.29ZM55,53c0,1.1-.9,2-2,2h-2v-5c0-.55-.45-1-1-1s-1,.45-1,1v5h-4v-5c0-.55-.45-1-1-1s-1,.45-1,1v5h-4v-5c0-.55-.45-1-1-1s-1,.45-1,1v5h-4v-5c0-.55-.45-1-1-1s-1,.45-1,1v5h-4v-5c0-.55-.45-1-1-1s-1,.45-1,1v5h-4v-5c0-.55-.45-1-1-1s-1,.45-1,1v5h-4v-5c0-.55-.45-1-1-1s-1,.45-1,1v5h-2c-1.1,0-2-.9-2-2v-4c0-1.1.9-2,2-2h42c1.1,0,2,.9,2,2v4Z"/><path d="M27,28h2.184c.302.847.969,1.514,1.816,1.816v2.184c0,.553.448,1,1,1s1-.447,1-1v-2.184c.847-.302,1.514-.969,1.816-1.816h2.184c.552,0,1-.447,1-1s-.448-1-1-1h-2.184c-.302-.847-.969-1.514-1.816-1.816v-2.184c0-.553-.448-1-1-1s-1,.447-1,1v2.184c-.847.302-1.514.969-1.816,1.816h-2.184c-.552,0-1,.447-1,1s.448,1,1,1ZM32,26c.551,0,1,.448,1,1s-.449,1-1,1-1-.448-1-1,.449-1,1-1Z"/></svg>