<?xml version="1.0" encoding="UTF-8"?><svg xmlns="http://www.w3.org/2000/svg" id="Outline" version="1.1" viewBox="0 0 64 64"><path d="M56,7H8c-.55,0-1,.45-1,1v6c0,.55.45,1,1,1h1.19l5.83,28.2c.1.47.51.81,1,.8.48-.01.88-.36.97-.83l3.19-18.34,2.85,11.41c.11.44.49.75.94.76.46,0,.85-.27.98-.7l3.58-11.45,3.48,31.26c.05.5.47.88.98.89h.01c.5,0,.92-.37.99-.86l4.12-29.67,2.9,16.7c.09.48.5.83.99.83h.01c.49,0,.9-.36.98-.84l3.29-20.55,2.76,9.66c.12.43.5.72.94.73.42-.02.83-.27.97-.68l4-12c.03-.11.05-.21.05-.32v-5h1c.55,0,1-.45,1-1v-6c0-.55-.45-1-1-1ZM53,19.84l-2.93,8.78-3.11-10.89c-.13-.46-.55-.76-1.02-.73-.47.03-.85.38-.93.84l-3.05,19.09-2.97-17.1c-.09-.49-.49-.83-1.01-.83-.49.01-.9.37-.97.86l-3.9,28.08-3.12-28.05c-.05-.47-.42-.84-.89-.89h-.1c-.43,0-.82.28-.95.7l-3.94,12.61-3.14-12.55c-.11-.46-.51-.79-1.01-.76-.47.02-.86.36-.95.83l-3.09,17.82-4.69-22.65h41.77v4.84ZM55,13H9v-4h46v4Z"/><path d="M16,46c-2.206,0-4,1.794-4,4s1.794,4,4,4,4-1.794,4-4-1.794-4-4-4ZM16,52c-1.103,0-2-.897-2-2s.897-2,2-2,2,.897,2,2-.897,2-2,2Z"/><path d="M24,39c-2.206,0-4,1.794-4,4s1.794,4,4,4,4-1.794,4-4-1.794-4-4-4ZM24,45c-1.103,0-2-.897-2-2s.897-2,2-2,2,.897,2,2-.897,2-2,2Z"/><path d="M42,46c-2.206,0-4,1.794-4,4s1.794,4,4,4,4-1.794,4-4-1.794-4-4-4ZM42,52c-1.103,0-2-.897-2-2s.897-2,2-2,2,.897,2,2-.897,2-2,2Z"/><path d="M50,36c-2.206,0-4,1.794-4,4s1.794,4,4,4,4-1.794,4-4-1.794-4-4-4ZM50,42c-1.103,0-2-.897-2-2s.897-2,2-2,2,.897,2,2-.897,2-2,2Z"/></svg>