<?xml version="1.0" encoding="UTF-8"?><svg xmlns="http://www.w3.org/2000/svg" id="Outline" version="1.1" viewBox="0 0 64 64"><path d="M47,44h4.5c3.03,0,5.5-2.47,5.5-5.5s-2.47-5.5-5.5-5.5h-5.5v-12.68s1.65.62,1.65.62c.303.114.656.066.92-.12.27-.19.43-.49.43-.82v-4c0-.42-.26-.79-.65-.94l-4.35-1.63v-5.43c0-.55-.45-1-1-1h-4c-.55,0-1,.45-1,1v3.18l-5.65-2.12c-.23-.08-.47-.08-.7,0l-16,6c-.39.15-.65.52-.65.94v4c0,.33.16.63.43.82s.61.23.92.12l1.65-.62v12.68h-6.5c-2.48,0-4.5,2.02-4.5,4.5s2.02,4.5,4.5,4.5h5c1.38,0,2.5,1.12,2.5,2.5s-1.12,2.5-2.5,2.5h-4.5c-2.76,0-5,2.24-5,5s2.24,5,5,5h36.5c2.48,0,4.5-2.02,4.5-4.5s-2.02-4.5-4.5-4.5h-1.5c-1.1,0-2-.9-2-2s.9-2,2-2ZM40,9h2v3.68l-2-.75v-2.93ZM17,18.56v-1.87l15-5.62,15,5.62v1.87l-14.65-5.5c-.11-.04-.23-.06-.35-.06s-.24.02-.35.06l-14.65,5.5ZM41,25h-8c-.55,0-1,.45-1,1v7h-12v-13.43l12-4.5,12,4.5v13.43h-2v-7c0-.55-.45-1-1-1ZM40,27v6h-6v-6h6ZM47,50h1.5c1.38,0,2.5,1.12,2.5,2.5s-1.12,2.5-2.5,2.5H12c-1.65,0-3-1.35-3-3s1.35-3,3-3h4.5c2.48,0,4.5-2.02,4.5-4.5s-2.02-4.5-4.5-4.5h-5c-1.38,0-2.5-1.12-2.5-2.5s1.12-2.5,2.5-2.5h40c1.93,0,3.5,1.57,3.5,3.5s-1.57,3.5-3.5,3.5h-4.5c-2.21,0-4,1.79-4,4s1.79,4,4,4Z"/><path d="M29,25h-6c-.553,0-1,.447-1,1v4c0,.553.447,1,1,1h6c.553,0,1-.447,1-1v-4c0-.553-.447-1-1-1ZM28,29h-4v-2h4v2Z"/><path d="M29,39c.553,0,1-.447,1-1s-.447-1-1-1h-8c-.553,0-1,.447-1,1s.447,1,1,1h8Z"/><path d="M52,38c0-.553-.447-1-1-1h-8c-.553,0-1,.447-1,1s.447,1,1,1h8c.553,0,1-.447,1-1Z"/><path d="M32,42h8c.553,0,1-.447,1-1s-.447-1-1-1h-8c-.553,0-1,.447-1,1s.447,1,1,1Z"/><path d="M36,44h-8c-.553,0-1,.447-1,1s.447,1,1,1h8c.553,0,1-.447,1-1s-.447-1-1-1Z"/><path d="M34,48h-8c-.553,0-1,.447-1,1s.447,1,1,1h8c.553,0,1-.447,1-1s-.447-1-1-1Z"/><path d="M21,51h-8c-.553,0-1,.447-1,1s.447,1,1,1h8c.553,0,1-.447,1-1s-.447-1-1-1Z"/><path d="M37,52c0,.553.447,1,1,1h8c.553,0,1-.447,1-1s-.447-1-1-1h-8c-.553,0-1,.447-1,1Z"/></svg>