<?xml version="1.0" encoding="UTF-8"?><svg xmlns="http://www.w3.org/2000/svg" id="Outline" version="1.1" viewBox="0 0 64 64"><path d="M56.91,55.59L38.91,15.59c-.16-.36-.52-.59-.91-.59s-.75.23-.91.59l-8.7,19.31-5.47-13.28c-.15-.38-.51-.62-.92-.62s-.77.24-.92.62L7.08,55.62c-.13.31-.1.66.09.94.18.27.5.44.83.44h48c.34,0,.66-.17.84-.46.18-.28.21-.64.07-.95ZM38,18.44l6.99,15.53-3.1,6.06-5.06-7.58c-.19-.29-.5-.47-.85-.45-.35.01-.66.19-.84.49l-2.25,3.74-1.84-2.36,6.95-15.43ZM22,24.63l3.39,8.22-3.39,4.49-3.39-4.49,3.39-8.22ZM9.49,55l8.24-20,3.47,4.6c.19.25.49.4.8.4s.61-.15.8-.4l3.47-4.6,8.24,20H9.49ZM36.67,55l-7.23-17.56.68-1.51,2.09,2.68c.2.26.52.41.85.39.33-.02.63-.2.8-.49l2.18-3.64,5.13,7.68c.18.28.5.45.83.45h.06c.35-.02.67-.23.83-.54l3.15-6.15,8.41,18.69h-17.78Z"/><path d="M11,18h8c2.206,0,4-1.794,4-4,0-2.247-1.874-4.059-4.126-3.998-.444-1.724-2.013-3.002-3.874-3.002s-3.43,1.278-3.874,3.002c-2.234-.065-4.126,1.751-4.126,3.998,0,2.206,1.794,4,4,4ZM11,12c.224,0,.442.041.668.126.306.116.651.073.921-.114.27-.187.431-.494.431-.822,0-.078-.009-.163-.02-.19,0-1.103.897-2,2-2s2,.897,2.001,1.943c-.008.05-.021.196-.021.247,0,.328.161.635.431.822.27.187.615.23.921.114,1.342-.502,2.669.547,2.668,1.874,0,1.103-.897,2-2,2h-8c-1.103,0-2-.897-2-2s.897-2,2-2Z"/><path d="M45,18h8c2.206,0,4-1.794,4-4,0-2.247-1.873-4.059-4.126-3.998-.444-1.724-2.013-3.002-3.874-3.002s-3.43,1.278-3.874,3.002c-2.234-.065-4.126,1.751-4.126,3.998,0,2.206,1.794,4,4,4ZM45,12c.224,0,.442.041.668.126.306.116.652.073.921-.114.27-.187.431-.494.431-.822,0-.078-.009-.163-.02-.19,0-1.103.897-2,2-2s2,.897,2.001,1.943c-.008.05-.021.196-.021.247,0,.328.161.635.431.822.269.187.614.23.921.114,1.342-.502,2.668.547,2.668,1.874,0,1.103-.897,2-2,2h-8c-1.103,0-2-.897-2-2s.897-2,2-2Z"/><path d="M30,17c2.757,0,5-2.243,5-5s-2.243-5-5-5-5,2.243-5,5,2.243,5,5,5ZM30,9c1.654,0,3,1.346,3,3s-1.346,3-3,3-3-1.346-3-3,1.346-3,3-3Z"/><circle cx="17" cy="21" r="1"/><circle cx="10" cy="24" r="1"/><circle cx="14" cy="26" r="1"/><circle cx="15" cy="30" r="1"/><circle cx="11" cy="34" r="1"/><circle cx="10" cy="29" r="1"/><circle cx="47" cy="21" r="1"/><circle cx="54" cy="24" r="1"/><circle cx="50" cy="26" r="1"/><circle cx="49" cy="30" r="1"/><circle cx="53" cy="34" r="1"/><circle cx="54" cy="29" r="1"/><circle cx="32" cy="20" r="1"/><circle cx="28" cy="20" r="1"/><circle cx="27" cy="24" r="1"/><circle cx="29" cy="28" r="1"/><circle cx="31" cy="24" r="1"/></svg>