<?xml version="1.0" encoding="UTF-8"?><svg xmlns="http://www.w3.org/2000/svg" id="Outline" version="1.1" viewBox="0 0 64 64"><path d="M46,7H12c-.55,0-1,.45-1,1v48c0,.55.45,1,1,1h34c3.86,0,7-3.14,7-7V14c0-3.86-3.14-7-7-7ZM17,55h-4V9h4v46ZM51,50c0,2.76-2.24,5-5,5h-27V9h27c2.76,0,5,2.24,5,5v36Z"/><path d="M35,11c-7.72,0-14,6.28-14,14s6.28,14,14,14,14-6.28,14-14-6.28-14-14-14ZM45.89,20c.57,1.24.94,2.58,1.06,4h-4.97c-.05-1.41-.2-2.75-.43-4h4.34ZM44.73,18h-3.65c-.47-1.66-1.1-3.09-1.86-4.22,2.23.84,4.14,2.32,5.51,4.22ZM30.02,24c.06-1.44.21-2.78.46-4h9.04c.25,1.22.4,2.56.46,4h-9.96ZM39.98,26c-.06,1.44-.21,2.78-.46,4h-9.04c-.25-1.22-.4-2.56-.46-4h9.96ZM35,13c1.46,0,3.03,1.89,4.01,5h-8.02c.98-3.11,2.55-5,4.01-5ZM30.78,13.78c-.76,1.13-1.39,2.56-1.86,4.22h-3.65c1.37-1.9,3.28-3.38,5.51-4.22ZM24.11,20h4.34c-.23,1.25-.38,2.59-.43,4h-4.97c.12-1.42.49-2.76,1.06-4ZM24.11,30c-.57-1.24-.94-2.58-1.06-4h4.97c.05,1.41.2,2.75.43,4h-4.34ZM25.27,32h3.65c.47,1.66,1.1,3.09,1.86,4.22-2.23-.84-4.14-2.32-5.51-4.22ZM35,37c-1.46,0-3.03-1.89-4.01-5h8.02c-.98,3.11-2.55,5-4.01,5ZM39.22,36.22c.76-1.13,1.39-2.56,1.86-4.22h3.65c-1.37,1.9-3.28,3.38-5.51,4.22ZM45.89,30h-4.34c.23-1.25.38-2.59.43-4h4.97c-.12,1.42-.49,2.76-1.06,4Z"/><path d="M48,41h-26c-.553,0-1,.448-1,1s.447,1,1,1h26c.553,0,1-.448,1-1s-.447-1-1-1Z"/><path d="M46,51h-22c-.553,0-1,.448-1,1s.447,1,1,1h22c.553,0,1-.448,1-1s-.447-1-1-1Z"/><path d="M45,48c.553,0,1-.448,1-1s-.447-1-1-1h-20c-.553,0-1,.448-1,1s.447,1,1,1h20Z"/></svg>