<?xml version="1.0" encoding="UTF-8"?><svg xmlns="http://www.w3.org/2000/svg" id="Outline" version="1.1" viewBox="0 0 64 64"><path d="M55.36,42.65L36.08,9.35c-.84-1.45-2.4-2.35-4.08-2.35s-3.24.9-4.08,2.35L8.64,42.65c-.85,1.48-.86,3.24,0,4.72.85,1.48,2.38,2.36,4.08,2.36h14.28v6.27c0,.55.45,1,1,1h8c.55,0,1-.45,1-1v-6.27h14.28c1.7,0,3.23-.88,4.08-2.36.86-1.48.85-3.24,0-4.72ZM35,55h-6v-5h6v5ZM53.63,46.37c-.49.85-1.37,1.36-2.35,1.36H12.72c-.98,0-1.86-.51-2.35-1.36-.49-.85-.49-1.87,0-2.72L29.65,10.36c.48-.84,1.38-1.36,2.35-1.36s1.87.52,2.35,1.36l19.28,33.29c.49.85.49,1.87,0,2.72Z"/><path d="M51.65,44.23L32.87,11.78c-.36-.62-1.38-.62-1.74,0L12.35,44.23c-.18.31-.18.69,0,1,.17.31.5.5.86.5h37.58c.36,0,.69-.19.86-.5.18-.31.18-.69,0-1ZM14.95,43.73l17.05-29.45,17.05,29.45H14.95Z"/><path d="M39,34.37h-1.59l1.3,1.29c.39.39.39,1.02,0,1.41-.396.396-1.023.397-1.42,0l-2.7-2.7h-1.59v2.58l2.71,2.71c.39.39.39,1.02,0,1.41-.395.395-1.023.397-1.42,0l-1.29-1.29v.59c0,.55-.45,1-1,1s-1-.45-1-1v-.59l-1.29,1.29c-.39.39-1.03.39-1.42,0-.39-.39-.39-1.02,0-1.41l2.71-2.71v-2.58h-1.59l-2.7,2.7c-.396.396-1.024.396-1.42,0-.39-.39-.39-1.02,0-1.41l1.3-1.29h-1.59c-.55,0-1-.45-1-1,0-.56.45-1,1-1h1.59l-1.3-1.3c-.39-.39-.39-1.02,0-1.41.39-.39,1.03-.39,1.42,0l2.7,2.71h1.59v-1.59l-2.71-2.71c-.39-.39-.39-1.02,0-1.41.39-.39,1.03-.39,1.42,0l1.29,1.29v-1.58c0-.56.45-1,1-1s1,.44,1,1v1.58l1.29-1.29c.39-.39,1.03-.39,1.42,0,.39.39.39,1.02,0,1.41l-2.71,2.71v1.59h1.59l2.7-2.71c.39-.39,1.03-.39,1.42,0,.39.39.39,1.02,0,1.41l-1.3,1.3h1.59c.55,0,1,.44,1,1,0,.55-.45,1-1,1Z"/></svg>