<?xml version="1.0" encoding="UTF-8"?><svg xmlns="http://www.w3.org/2000/svg" id="Outline" version="1.1" viewBox="0 0 64 64"><path d="M47.499,38c-.55,0-1,.45-1,1v4c0,.55.45,1,1,1,.98,0,1.93.42,2.59,1.15.67.74.99,1.7.89,2.7-.17,1.77-1.79,3.15-3.68,3.15h-5.3v-2c.88,0,1.71-.38,2.29-1.06.57-.67.81-1.56.67-2.44-.23-1.42-1.55-2.5-3.07-2.5h-10.89v-5c0-.55-.45-1-1-1h-8.32l-1.75-4.37c-.15-.38-.52-.63-.93-.63h-9c-.3,0-.58.13-.77.36s-.27.53-.21.82l1.98,10.91v.91c0,1.86,1.28,3.41,3,3.86v2.14h-4c-1.65,0-3,1.35-3,3s1.35,3,3,3h37.2c5.15,0,9.45-3.89,9.78-8.85.18-2.66-.73-5.19-2.54-7.13-1.79-1.92-4.32-3.02-6.94-3.02ZM12.999,45v-1c0-.06-.01-.12-.02-.18l-1.78-9.82h7.12l1.75,4.37c.15.38.52.63.93.63h8v5c0,.55.45,1,1,1h11.89c.54,0,1.02.36,1.1.82.04.31-.03.6-.23.83-.19.22-.47.35-.76.35H14.999c-1.1,0-2-.9-2-2ZM39.999,49v2h-2v-2h2ZM35.999,49v2h-16v-2h16ZM17.999,49v2h-2v-2h2ZM54.979,48.02c-.26,3.91-3.68,6.98-7.78,6.98H9.999c-.55,0-1-.45-1-1s.45-1,1-1h37.3c2.91,0,5.4-2.18,5.67-4.95.15-1.55-.36-3.1-1.4-4.24-.81-.9-1.9-1.5-3.07-1.72v-2.02c1.7.23,3.29,1.04,4.48,2.31,1.43,1.54,2.14,3.54,2,5.64Z"/><path d="M19.999,16h1.586l-1.293,1.293c-.391.391-.391,1.023,0,1.414.389.389,1.025.388,1.414,0l2.707-2.707h1.586v1.586l-2.707,2.707c-.391.391-.391,1.023,0,1.414s1.023.391,1.414,0l1.293-1.293v1.586c0,.553.448,1,1,1s1-.447,1-1v-1.586l1.293,1.293c.365.365,1.014.4,1.414,0,.391-.391.391-1.023,0-1.414l-2.707-2.707v-1.586h1.586l2.707,2.707c.369.369,1.016.398,1.414,0,.391-.391.391-1.023,0-1.414l-1.293-1.293h1.586c.552,0,1-.447,1-1s-.448-1-1-1h-1.586l1.293-1.293c.391-.391.391-1.023,0-1.414s-1.023-.391-1.414,0l-2.707,2.707h-1.586v-1.586l2.707-2.707c.391-.391.391-1.023,0-1.414s-1.023-.391-1.414,0l-1.293,1.293v-1.586c0-.553-.448-1-1-1s-1,.447-1,1v1.586l-1.293-1.293c-.391-.391-1.023-.391-1.414,0s-.391,1.023,0,1.414l2.707,2.707v1.586h-1.586l-2.707-2.707c-.391-.391-1.023-.391-1.414,0s-.391,1.023,0,1.414l1.293,1.293h-1.586c-.552,0-1,.447-1,1s.448,1,1,1Z"/><path d="M42.292,19.293c-.391.391-.391,1.023,0,1.414l2.707,2.707v1.586h-1.586l-2.707-2.707c-.391-.391-1.023-.391-1.414,0s-.391,1.023,0,1.414l1.293,1.293h-1.586c-.552,0-1,.447-1,1s.448,1,1,1h1.586l-1.293,1.293c-.391.391-.391,1.023,0,1.414.389.389,1.026.388,1.414,0l2.707-2.707h1.586v1.586l-2.707,2.707c-.391.391-.391,1.023,0,1.414s1.023.391,1.414,0l1.293-1.293v1.586c0,.553.448,1,1,1s1-.447,1-1v-1.586l1.293,1.293c.389.389,1.026.388,1.414,0,.391-.391.391-1.023,0-1.414l-2.707-2.707v-1.586h1.586s2.704,2.704,2.707,2.707c.389.389,1.026.388,1.414,0,.391-.391.391-1.023,0-1.414l-1.293-1.293h1.586c.552,0,1-.447,1-1s-.448-1-1-1h-1.586l1.293-1.293c.391-.391.391-1.023,0-1.414s-1.023-.391-1.414,0l-2.707,2.707h-1.586v-1.586l2.707-2.707c.391-.391.391-1.023,0-1.414s-1.023-.391-1.414,0l-1.293,1.293v-1.586c0-.553-.448-1-1-1s-1,.447-1,1v1.586l-1.293-1.293c-.391-.391-1.023-.391-1.414,0Z"/><path d="M9.999,13c1.654,0,3-1.346,3-3s-1.346-3-3-3-3,1.346-3,3,1.346,3,3,3ZM9.999,9c.551,0,1,.448,1,1s-.449,1-1,1-1-.448-1-1,.449-1,1-1Z"/><path d="M11.999,19c0,1.654,1.346,3,3,3s3-1.346,3-3-1.346-3-3-3-3,1.346-3,3ZM14.999,18c.551,0,1,.448,1,1s-.449,1-1,1-1-.448-1-1,.449-1,1-1Z"/><path d="M53.999,13c1.654,0,3-1.346,3-3s-1.346-3-3-3-3,1.346-3,3,1.346,3,3,3ZM53.999,9c.551,0,1,.448,1,1s-.449,1-1,1-1-.448-1-1,.449-1,1-1Z"/><path d="M39.999,14c1.654,0,3-1.346,3-3s-1.346-3-3-3-3,1.346-3,3,1.346,3,3,3ZM39.999,10c.551,0,1,.448,1,1s-.449,1-1,1-1-.448-1-1,.449-1,1-1Z"/></svg>