<?xml version="1.0" encoding="UTF-8"?><svg xmlns="http://www.w3.org/2000/svg" id="Outline" version="1.1" viewBox="0 0 64 64"><path d="M29.457,38c-1.654,0-3,1.346-3,3s1.346,3,3,3,3-1.346,3-3-1.346-3-3-3ZM29.457,42c-.552,0-1-.448-1-1s.448-1,1-1,1,.448,1,1-.448,1-1,1Z"/><path d="M29.457,46c-1.654,0-3,1.346-3,3s1.346,3,3,3,3-1.346,3-3-1.346-3-3-3ZM29.457,50c-.552,0-1-.448-1-1s.448-1,1-1,1,.448,1,1-.448,1-1,1Z"/><path d="M25.457,28c0,1.683,1.757,3,4,3s4-1.317,4-3-1.757-3-4-3-4,1.317-4,3ZM29.457,27c1.221,0,2,.592,2,1s-.779,1-2,1-2-.592-2-1,.779-1,2-1Z"/><circle cx="25.457" cy="23" r="1"/><circle cx="33.457" cy="23" r="1"/><path d="M51.179,33.23l-1.77-.48,1.38-.79c.48-.27.65-.88.37-1.36-.27-.48-.88-.65-1.36-.38l-1.38.79.48-1.76c.15-.54-.16-1.08-.7-1.23-.53-.15-1.08.17-1.23.7l-1,3.69-4.88,2.79c-.9-1.35-2.05-2.54-3.41-3.52,1.12-1.62,1.78-3.57,1.78-5.68,0-2.27-.76-4.41-2.12-6.15,1.22-.38,2.12-1.5,2.12-2.85,0-1.65-1.35-3-3-3v-3c0-2.21-1.8-4-4-4h-6c-2.21,0-4,1.79-4,4v3c-1.66,0-3,1.35-3,3,0,1.35.89,2.47,2.12,2.85-1.37,1.74-2.12,3.88-2.12,6.15,0,2.11.66,4.06,1.77,5.68-1.35.98-2.5,2.17-3.41,3.52l-4.87-2.79-1.01-3.69c-.14-.53-.7-.85-1.23-.7-.53.15-.84.69-.7,1.23l.48,1.76-1.37-.79c-.48-.27-1.09-.1-1.37.38-.27.48-.11,1.09.37,1.36l1.38.79-1.76.48c-.54.14-.85.69-.7,1.23.12.44.52.73.96.73.09,0,.17-.01.26-.03l3.7-1.01,4.87,2.78c-.89,1.86-1.37,3.92-1.37,6.07,0,2.09.46,4.14,1.35,6h-.35c-2.21,0-4,1.79-4,4s1.79,4,4,4h26c2.2,0,4-1.79,4-4s-1.8-4-4-4h-.35c.89-1.86,1.35-3.91,1.35-6,0-2.15-.48-4.21-1.37-6.07l4.87-2.78,3.69,1.01c.09.02.18.03.27.03.44,0,.84-.29.96-.73.15-.54-.17-1.09-.7-1.23ZM24.459,11c0-1.1.9-2,2-2h6c1.1,0,2,.9,2,2v3h-10v-3ZM21.459,17c0-.55.45-1,1-1h14c.55,0,1,.45,1,1s-.45,1-1,1h-14c-.55,0-1-.45-1-1ZM24.199,20h10.52c1.74,1.51,2.74,3.67,2.74,6,0,4.41-3.59,8-8,8s-8-3.59-8-8c0-2.33,1-4.49,2.74-6ZM42.459,51c1.1,0,2,.9,2,2s-.9,2-2,2h-26c-1.1,0-2-.9-2-2s.9-2,2-2h2.05c.36,0,.7-.2.88-.52.17-.32.16-.71-.04-1.02-1.24-1.92-1.89-4.16-1.89-6.46,0-3.95,1.9-7.54,5.09-9.78,1.8,1.72,4.23,2.78,6.91,2.78s5.1-1.06,6.9-2.78c3.2,2.24,5.1,5.83,5.1,9.78,0,2.3-.66,4.54-1.89,6.46-.2.31-.21.7-.04,1.02.18.32.51.52.88.52h2.05Z"/><path d="M55.999,16h-1.59l1.3,1.29c.39.39.39,1.03,0,1.42-.383.383-1.037.385-1.42,0l-2.7-2.71h-1.59v1.59l2.71,2.7c.39.39.39,1.03,0,1.42-.382.382-1.038.386-1.42,0l-1.29-1.3v1.59c0,.55-.45,1-1,1s-1-.45-1-1v-1.59l-1.29,1.3c-.39.39-1.03.39-1.42,0s-.39-1.03,0-1.42l2.71-2.7v-1.59h-1.59s-2.698,2.708-2.7,2.71c-.383.384-1.037.383-1.42,0-.39-.39-.39-1.03,0-1.42l1.3-1.29h-1.59c-.55,0-1-.45-1-1s.45-1,1-1h1.59l-1.3-1.29c-.39-.39-.39-1.03,0-1.42.39-.39,1.03-.39,1.42,0l2.7,2.71h1.59v-1.59l-2.71-2.7c-.39-.39-.39-1.03,0-1.42.39-.39,1.03-.39,1.42,0l1.29,1.3v-1.59c0-.55.45-1,1-1s1,.45,1,1v1.59l1.29-1.3c.39-.39,1.03-.39,1.42,0,.39.39.39,1.03,0,1.42l-2.71,2.7v1.59h1.59l2.7-2.71c.39-.39,1.03-.39,1.42,0,.39.39.39,1.03,0,1.42l-1.3,1.29h1.59c.55,0,1,.45,1,1s-.45,1-1,1Z"/></svg>