<?xml version="1.0" encoding="UTF-8"?><svg xmlns="http://www.w3.org/2000/svg" id="Outline" version="1.1" viewBox="0 0 64 64"><path d="M53.05,35.112l-6.518,1.746-6.83-3.943c-.477-.275-.528-.731-.528-.915s.052-.64.528-.915l6.83-3.943,6.518,1.746c1.493.401,3.075-.311,3.679-1.655.764-1.702-.187-3.738-1.99-4.221l-4.895-1.312,1.283-4.789c.399-1.493-.312-3.074-1.655-3.678-1.701-.766-3.738.188-4.221,1.99l-1.775,6.624-6.83,3.943c-.476.276-.897.092-1.057,0s-.528-.364-.528-.915v-7.886l4.772-4.772c1.091-1.093,1.266-2.818.405-4.013-1.088-1.509-3.332-1.706-4.651-.387l-3.583,3.583-3.505-3.504c-1.092-1.093-2.818-1.265-4.015-.407-1.514,1.086-1.705,3.331-.386,4.651l4.849,4.849v7.886c0,.551-.369.823-.528.915-.159.091-.58.276-1.057,0l-6.83-3.943-1.744-6.512c-.421-1.562-1.953-2.591-3.469-2.339-1.761.293-2.93,2.077-2.467,3.809l1.312,4.895-4.781,1.281c-1.561.418-2.59,1.942-2.34,3.468.289,1.764,2.08,2.927,3.809,2.467l6.624-1.774,6.83,3.943c.477.275.528.731.528.915s-.052.64-.528.915l-6.83,3.943-6.518-1.746c-1.494-.4-3.076.311-3.679,1.655-.763,1.701.187,3.738,1.99,4.221l4.895,1.312-1.283,4.789c-.399,1.492.312,3.074,1.655,3.678,1.701.766,3.738-.188,4.221-1.99l1.775-6.624,6.83-3.943c.477-.275.898-.091,1.057,0,.159.092.528.364.528.915v7.886l-4.772,4.772c-1.091,1.093-1.266,2.818-.405,4.013,1.088,1.511,3.331,1.707,4.651.387l3.583-3.583,3.505,3.505c1.092,1.091,2.818,1.264,4.015.406,1.513-1.086,1.704-3.332.386-4.651l-4.849-4.849v-7.886c0-.551.369-.823.528-.915.158-.092.58-.275,1.057,0l6.83,3.943,1.744,6.512c.42,1.561,1.947,2.585,3.469,2.339,1.763-.286,2.928-2.083,2.467-3.809l-1.312-4.895,4.895-1.312c1.803-.483,2.756-2.522,1.99-4.22-.604-1.345-2.188-2.056-3.679-1.656ZM54.898,38.486c-.125.269-.362.485-.678.57l-5.86,1.57c-.533.143-.85.691-.707,1.225,0,0,1.563,5.833,1.57,5.86.163.607-.246,1.217-.857,1.318-.528.084-1.062-.313-1.215-.884l-1.852-6.911c-.068-.256-.236-.475-.466-.607l-7.188-4.15c-.956-.551-2.099-.552-3.057,0-.957.552-1.528,1.542-1.528,2.647v8.3c0,.265.105.52.293.707,0,0,5.134,5.134,5.142,5.142.465.465.386,1.235-.141,1.614-.402.29-1.031.203-1.432-.197l-4.212-4.212c-.391-.391-1.023-.391-1.414,0,0,0-4.272,4.271-4.29,4.289-.467.467-1.236.384-1.614-.142-.289-.402-.202-1.03.197-1.431l5.064-5.064c.188-.188.293-.442.293-.707v-8.3c0-1.105-.571-2.095-1.528-2.647-.479-.276-1.004-.415-1.528-.415s-1.05.138-1.528.414l-7.188,4.15c-.229.133-.397.351-.466.607,0,0-1.873,6.987-1.883,7.024-.168.627-.887.945-1.469.685-.451-.204-.69-.791-.544-1.338l1.542-5.754c.068-.256.033-.529-.1-.759s-.352-.397-.607-.466c0,0-5.839-1.565-5.86-1.57-.636-.17-.951-.877-.684-1.469.202-.451.79-.689,1.337-.543l6.918,1.853c.254.069.528.033.759-.1l7.188-4.15c.957-.553,1.528-1.542,1.528-2.647s-.571-2.095-1.528-2.647l-7.188-4.15c-.23-.132-.505-.169-.759-.1l-7.024,1.882c-.571.153-1.216-.233-1.316-.858-.085-.516.312-1.061.883-1.214l5.747-1.54c.533-.143.85-.691.707-1.225l-1.57-5.86c-.162-.606.243-1.217.857-1.318.519-.084,1.062.312,1.215.884l1.852,6.911c.068.256.236.475.466.607l7.188,4.15c.956.552,2.099.553,3.057,0,.957-.552,1.528-1.542,1.528-2.647v-8.3c0-.265-.105-.52-.293-.707,0,0-5.123-5.123-5.142-5.142-.465-.465-.384-1.237.141-1.614.402-.288,1.031-.202,1.432.198l4.212,4.211c.391.391,1.023.391,1.414,0l4.29-4.29c.465-.465,1.234-.387,1.614.142.289.402.202,1.03-.197,1.431l-5.064,5.064c-.188.188-.293.442-.293.707v8.3c0,1.105.571,2.095,1.528,2.647.958.554,2.101.552,3.057,0l7.188-4.15c.229-.133.397-.351.466-.607l1.883-7.024c.171-.638.875-.949,1.469-.685.451.204.69.792.544,1.338l-1.542,5.754c-.068.256-.033.529.1.759s.352.397.607.466l5.86,1.57c.637.171.951.876.684,1.469-.202.451-.79.689-1.337.543l-6.918-1.853c-.256-.069-.529-.033-.759.1l-7.188,4.15c-.957.553-1.528,1.542-1.528,2.647s.571,2.095,1.528,2.647l7.188,4.15c.229.132.503.168.759.1l6.918-1.853c.552-.148,1.134.092,1.337.544.134.3.121.626-.006.899Z"/><path d="M32.004,28c-2.206,0-4,1.794-4,4s1.794,4,4,4,4-1.794,4-4-1.794-4-4-4ZM32.004,34c-1.103,0-2-.897-2-2s.897-2,2-2,2,.897,2,2-.897,2-2,2Z"/></svg>