<?xml version="1.0" encoding="UTF-8"?><svg xmlns="http://www.w3.org/2000/svg" id="Outline" version="1.1" viewBox="0 0 64 64"><path d="M19,11c-6.62,0-12,5.38-12,12v18c0,6.62,5.38,12,12,12s12-5.38,12-12v-18c0-6.62-5.38-12-12-12ZM19,13c5.18,0,9.45,3.95,9.95,9h-2.01c-.5-3.94-3.87-7-7.94-7s-7.44,3.06-7.94,7h-2.01c.5-5.05,4.77-9,9.95-9ZM9,29h2v6h-2v-6ZM19,51c-5.18,0-9.45-3.95-9.95-9h2.01c.5,3.94,3.87,7,7.94,7s7.44-3.06,7.94-7h2.01c-.5,5.05-4.77,9-9.95,9ZM29,40h-3c-.55,0-1,.45-1,1,0,3.31-2.69,6-6,6s-6-2.69-6-6c0-.55-.45-1-1-1h-3v-3h3c.55,0,1-.45,1-1v-1h12v1c0,.55.45,1,1,1h3v3ZM13,33v-2h12v2h-12ZM29,35h-2v-6h2v6ZM29,27h-3c-.55,0-1,.45-1,1v1h-12v-1c0-.55-.45-1-1-1h-3v-3h3c.55,0,1-.45,1-1,0-3.31,2.69-6,6-6s6,2.69,6,6c0,.55.45,1,1,1h3v3Z"/><path d="M45,11c-6.62,0-12,5.38-12,12v18c0,6.62,5.38,12,12,12s12-5.38,12-12v-18c0-6.62-5.38-12-12-12ZM45,13c5.18,0,9.45,3.95,9.95,9h-2.01c-.5-3.94-3.87-7-7.94-7s-7.44,3.06-7.94,7h-2.01c.5-5.05,4.77-9,9.95-9ZM35,29h2v6h-2v-6ZM45,51c-5.18,0-9.45-3.95-9.95-9h2.01c.5,3.94,3.87,7,7.94,7s7.44-3.06,7.94-7h2.01c-.5,5.05-4.77,9-9.95,9ZM55,40h-3c-.55,0-1,.45-1,1,0,3.31-2.69,6-6,6s-6-2.69-6-6c0-.55-.45-1-1-1h-3v-3h3c.55,0,1-.45,1-1v-1h12v1c0,.55.45,1,1,1h3v3ZM39,33v-2h12v2h-12ZM55,35h-2v-6h2v6ZM55,27h-3c-.55,0-1,.45-1,1v1h-12v-1c0-.55-.45-1-1-1h-3v-3h3c.55,0,1-.45,1-1,0-3.31,2.69-6,6-6s6,2.69,6,6c0,.55.45,1,1,1h3v3Z"/></svg>