<svg width="512" height="512" viewBox="0 0 512 512" fill="none" xmlns="http://www.w3.org/2000/svg">
<rect width="512" height="512" rx="40" fill="#27556B"/>
<path d="M174.584 425.524C174.918 427.56 177.398 433.784 179.364 434.38C180.313 434.668 181.929 434.336 182.142 433.211C182.668 430.452 178.7 428.504 176.877 427.142C176.138 426.592 175.668 425.397 174.584 425.524ZM152.983 223.487C150.403 224.576 147.176 227.432 147.583 230.505C148.014 231.018 149.448 228.09 149.633 227.831C150.691 226.332 152.003 225.038 152.983 223.487ZM260.431 103.801L258.157 96.5365L253.973 109.501C256.175 107.636 257.822 105.188 260.431 103.801ZM267.973 98.6633C268.116 98.4168 268.004 98.1236 267.877 97.8877C267.408 97.0319 265.299 94.6953 264.506 93.9664C263.261 92.8255 261.658 91.8116 260.19 90.9787L259.641 91.2744C260.548 94.7289 262.12 98.972 265.925 100.006L267.973 98.6633ZM234.799 40.3568L237.048 41.4797C241.545 45.2168 246.351 49.0217 250.329 53.3165C251.387 54.4599 252.801 56.7947 253.831 57.6474C255.644 59.1493 261.054 60.7776 262.335 62.1053C262.737 62.5229 262.692 63.2854 263.004 63.5941C263.39 63.9757 264.137 63.7267 264.793 64.2346C265.602 64.862 265.595 66.2756 266.147 66.9316C266.676 67.5646 267.67 67.3493 267.729 68.5941C267.752 69.0635 267.436 69.5384 267.46 69.9454C267.52 71.0528 268.046 72.1812 267.623 73.3246C265.976 74.323 264.719 72.5777 263.152 72.4974C263.199 77.9412 262.437 83.3925 260.803 88.5823C262.452 89.8534 264.423 90.787 265.699 92.5012C266.644 93.7697 267.577 96.4406 269.556 96.7649C270.046 96.8451 272.637 95.1907 273.127 94.7656C274.863 93.2512 275.192 91.5495 277.754 90.2113C279.969 89.0573 281.673 89.7027 283.332 89.0392C285.477 88.1834 285.073 84.6585 288.805 86.1343C289.943 86.5856 290.2 88.5512 290.416 86.0074L289.609 85.8648C290.236 83.6627 290.584 81.1449 290.703 78.8575C291.232 68.8126 287.957 59.3908 296.63 51.8308C300.305 48.6277 310.075 43.2543 314.862 42.7899C320.273 42.2633 326.528 43.324 330.784 46.8463C332.008 47.8603 332.781 49.1985 333.894 50.218C334.805 51.0502 336.161 51.7741 337.141 52.643C343.964 58.6831 349.891 69.1294 342.007 76.9646C341.522 77.4495 340.381 77.95 340.243 78.1734C339.647 79.1537 339.46 82.4707 338.817 83.7678C338.384 84.6442 337.149 84.9038 336.923 85.6532C336.599 86.7399 337.167 88.4074 337.154 89.6604C337.144 90.4279 336.879 91.0814 336.856 91.8004C336.721 95.9756 337.596 99.4613 331.635 97.6668C330.234 98.7921 330.33 101.124 327.958 100.592C329.179 103.551 326.775 103.03 325.644 104.355C324.835 105.302 325.143 106.721 324.453 107.683C323.953 108.381 321.885 109.571 321.003 109.711C318.692 110.082 314.437 107.615 311.88 107.444L306.643 112.646C308.783 115.343 311.506 117.929 312.294 121.386C307.112 120.691 307.299 127.811 306.334 131.496C305.61 134.258 303.774 138.81 303.401 141.258C303.061 143.478 302.978 150.991 303.1 153.385C303.191 155.203 306.557 163.8 307.429 166.095C307.791 167.049 308.738 168.525 308.933 169.181C309.115 169.786 308.94 170.442 309.099 170.909C309.211 171.24 309.989 171.573 310.365 172.071C311.021 172.94 311.239 175.074 311.374 175.17C311.605 175.336 312.489 175.473 312.937 175.712C315.256 176.946 314.265 176.339 316.449 176.495C317.012 176.533 317.614 177.035 318.106 177.011C318.713 176.982 320.067 175.724 321.607 175.66C323.345 175.584 325.005 176.809 326.405 176.425C326.768 176.324 327.118 175.904 327.619 175.748C330.173 174.949 333.706 176.137 336.45 176.23C339.716 176.339 344.246 175.844 347.398 175.006C348.472 174.721 350.396 173.673 351.109 173.559C351.799 173.45 352.24 173.886 353.067 173.673C354.852 173.214 361.175 168.408 363.239 167.08C363.644 166.818 364.181 166.831 364.557 166.507C365.413 155.445 367.28 144.468 368.411 133.463C366.899 132.223 368.58 130.693 368.935 129.021C369.192 127.799 369.781 123.385 369.729 122.272C369.703 121.71 369.26 121.383 369.275 120.74C369.293 120.084 369.861 119.383 370.001 118.743C370.538 116.269 370.982 110.605 374.278 110.058C376.359 109.715 377.359 110.353 378.413 112.107C379.507 113.935 379.18 115.691 378.988 117.74C378.467 123.321 377.78 129.179 377.064 134.721C375.752 144.914 373.676 155.033 372.541 165.259C372.654 165.716 375.088 165.973 375.813 166.294C377.639 167.106 378.254 168.761 377.569 170.61C377.429 170.991 376.908 171.305 376.892 171.486C376.843 172.08 378.715 173.1 377.605 175.239C377.346 175.737 376.423 176.258 376.342 176.66C376.262 177.062 376.876 177.918 376.82 178.75C376.747 179.813 375.666 180.97 375.604 181.476C375.554 181.872 375.816 182.503 375.759 183.099C375.627 184.455 374.735 185.625 373.718 186.473C372.667 187.349 370.826 187.803 370.199 188.353C369.594 188.883 369.662 192.086 369.538 193.097C367.984 205.743 366.781 218.217 365.181 230.874C362.346 253.323 358.694 275.705 356.041 298.172C353.263 321.707 351.378 345.375 348.745 368.935C345.408 398.825 341.87 428.751 338.216 458.607C337.886 461.289 337.663 465.272 337.082 467.739C336.893 468.533 335.98 469.759 335.288 468.836C334.528 467.822 334.652 466.32 334.709 465.097C335.373 451.108 337.873 435.941 339.297 421.876C345.19 363.634 350.94 305.398 356.581 247.123C357.556 237.045 358.951 226.954 359.818 216.868C360.002 214.718 359.893 214.186 359.564 212.264C359.201 210.148 360.111 208.485 360.331 206.576C360.598 204.273 360.482 201.561 360.731 199.359C360.899 197.883 362.891 189.799 362.409 189.169C360.113 188.523 357.844 187.823 355.487 188.495C353.254 189.13 354.517 190.894 353.163 192.125C351.267 192.066 348.868 191.223 347.029 191.365C342.911 191.684 335.255 195.469 330.864 196.817C318.337 200.66 307.11 200.727 294.339 202.146C293.076 202.286 289.069 202.154 288.415 202.973C288.011 203.484 286.335 208.642 286.426 209.249C286.462 210.038 287.331 210.245 287.629 210.616C289.527 212.968 290.479 215.295 290.539 218.373C292.899 219.732 292.45 217.592 293.392 217.139C293.812 216.934 294.943 216.874 295.303 217.12C296.172 217.725 294.886 227.386 294.058 228.604C293.247 229.798 291.649 228.573 290.428 228.889C289.925 232.712 289.39 237.386 287.691 240.874C287.341 241.59 286.179 242.861 286.099 243.35C285.839 244.951 287.785 248.112 285.928 249.645C284.156 251.11 281.065 251.761 278.811 251.847C279.014 253.629 279.703 255.356 279.859 257.148C281.405 274.851 283.54 292.575 285.023 310.327C285.241 312.944 284.992 316.209 285.318 318.673C285.778 322.164 287.982 325.642 288.262 330.043C288.397 332.175 287.593 335.603 287.777 337.007C287.881 337.785 289.214 339.971 289.494 341.237C290.521 345.885 288.423 349.785 284.514 352.231C285.145 356.328 285.785 360.478 286.102 364.617C287.007 376.457 286.835 389.121 284.084 400.677C283.762 402.028 282.237 406.097 282.325 406.997C282.437 408.089 284.024 411.354 284.397 413.048C284.939 415.501 284.602 417.796 284.973 419.741C285.873 424.425 288.311 430.507 289.748 435.247C290.228 436.83 290.86 440.979 291.916 441.993C292.476 442.533 295.646 443.345 296.631 443.76C301.735 445.912 304.987 447.274 310.799 447.412C314.757 447.507 319.599 445.991 322.955 448.76C328.134 453.035 323.577 461.515 318.512 463.618L319 465.724C317.233 466.79 316.889 467.503 314.725 466.58L314.998 467.929C313.867 467.854 312.765 468.609 311.644 468.465C310.604 468.336 309.959 467.078 308.69 467.374L308.231 468.997C307.162 468.673 304.346 469.593 303.653 469.145C303.417 468.991 303.35 468.486 303.114 468.335C302.634 468.029 301.576 468.221 300.969 468.229L300.816 469.014C298.209 468.561 295.58 468.003 292.955 467.694C291.049 467.469 286.598 466.841 284.948 467.181C284.437 467.285 282.86 468.397 282.596 468.2C282.391 466.335 281.029 466.8 279.65 467.147L279.588 469.11L276.924 470.091L276.615 468.506C275.835 468.358 274.942 468.444 274.341 469.006L274.243 470.495L271.035 471.118C269.792 468.104 268.418 468.376 268.031 471.595C266.966 471.551 265.591 472.015 264.634 472C263.82 471.989 264.351 470.42 263.516 470.127C262.126 469.64 262.362 470.732 261.685 471.194C260.78 471.811 259.063 470.836 258.056 470.594L257.989 469.178C256.293 467.653 254.477 469.676 252.367 468.722L252.317 467.697C252.219 467.542 251.467 467.513 251.181 467.348C250.497 466.94 249.776 463.066 249.685 462.088C249.154 456.273 251.166 450.752 250.741 445.365C250.523 442.616 248.666 441.306 248.557 438.36C248.464 435.746 250.282 432.061 250.183 430.538C250.087 429.018 248.002 426.477 248.009 423.767C248.014 422.346 249.109 421.306 249.119 420.263C249.132 418.969 248.061 416.297 247.83 414.785C247.35 411.673 247.508 408.535 247.48 405.389C247.385 394.842 247.083 384.042 247.221 373.526C247.241 371.938 247.698 369.827 247.677 368.715C247.666 368.017 247.2 367.192 247.197 366.236C247.195 364.915 247.895 363.897 247.973 362.932C248.03 362.211 247.672 361.614 247.822 360.631C247.975 359.622 249.01 358.593 249.056 358.09C249.101 357.636 247.705 355.631 247.778 354.119C247.853 352.54 249.697 350.294 249.653 349.513C249.611 348.759 248.522 346.681 247.894 346.116C247.254 348.388 247.448 351.256 246.883 353.474C246.312 355.722 242.946 358.16 241.136 359.612C239.354 361.044 236.039 362.87 234.618 364.299C233.524 365.398 232.017 368.503 230.969 369.968C224.62 378.845 216.99 388.368 209.556 396.356C200.15 406.463 188.935 414.785 177.952 423.085L178.097 423.767L181.995 424.976C182.363 425.095 182.106 425.521 181.875 425.666C181.255 426.05 176.707 423.046 175.783 424.709C175.391 425.56 179.611 428.083 180.382 428.773C182.031 430.249 184.432 432.637 181.886 434.585C178.016 437.547 175.871 430.295 174.318 428.226C174.554 433.561 174.852 437.764 177.978 442.251C179.448 444.365 181.432 445.599 182.908 447.855C184.612 450.457 186.313 454.007 185.598 457.205C185.102 459.425 179.998 460.807 178.006 460.804C176.663 460.802 175.132 460.153 174.163 460.112C173.109 460.066 171.177 460.727 170.29 459.392C169.782 458.627 170.114 457.052 168.778 459.013C168.307 458.253 166.6 457.587 166.193 457.011C165.622 456.207 166.216 454.308 164.455 453.95L163.648 454.692C163.026 453.759 160.809 452.283 160.393 451.447C160.093 450.846 160.992 450.447 160.692 449.842C160.027 448.501 158.858 449.038 158.506 448.784C158.039 448.447 157.515 446.839 157.032 446.188C155.715 444.407 152.063 441.45 151.228 439.554C150.881 438.768 151.588 437.738 151.361 436.87C151.176 436.66 149.304 437.728 148.835 437.628C148.505 437.558 148.29 436.995 147.935 436.907C147.537 436.811 147.084 437.202 146.498 437.034C145.806 436.836 145.424 435.841 144.615 435.784L145.302 434.171C144.369 433.043 144.07 432.908 142.719 433.504L141.495 432.282L142.065 430.661C141.02 428.89 140.421 430.524 139.469 429.73C137.848 428.381 139.029 427.276 138.263 426.338C137.731 425.684 137.161 425.928 136.653 425.518C135.854 424.875 135.081 421.825 134.562 421.535C134.236 421.35 133.675 421.576 133.115 421.223C132.913 421.096 132.005 419.867 131.974 419.67C131.915 419.276 132.355 418.949 132.389 418.601C132.507 417.468 131.518 416.861 132.405 415.066C133.417 413.025 141.189 407.615 143.449 406.127C146.338 404.226 149.551 402.314 152.71 400.93C151.714 398.038 153.514 395.945 155.555 394.2C156.178 393.668 157.249 393.308 157.698 392.828C158.364 392.115 158.567 391.038 159.607 390.146C161.531 388.492 162.244 389.48 164.068 388.938C165.245 388.588 166.734 386.889 168.075 386.599C166.856 381.323 169.209 377.133 172.313 373.146C175.978 368.447 180.382 365.379 184.58 361.379C189.917 356.296 195.268 351.029 199.973 345.445C201.404 343.749 203.777 342.066 205.66 340.87C206.605 340.271 209.8 338.847 210.222 338.409C210.806 337.807 210.832 336.195 211.296 335.502C211.569 335.097 212.274 335.022 212.577 334.69C213.104 334.112 213.293 332.95 214.133 332.058C215.534 330.566 217.715 329.661 219.557 328.839L220.765 316.528C217.086 303.963 215.905 291.833 216.982 278.726C217.088 277.429 217.78 275.294 217.7 274.167C217.638 273.29 216.867 271.954 216.738 270.863C216.566 269.395 216.815 267.792 216.704 266.306C216.37 264.555 210.837 261.396 209.541 259.964C208.667 259.002 206.32 254.821 206.18 253.605C205.811 250.418 206.577 246.95 206.447 243.747C201.254 244.841 195.709 245.059 190.577 243.553C185.991 242.204 181.333 240.044 176.641 238.853L161.202 227.556C160.1 225.622 160.164 223.202 160.543 221.057C160.403 220.896 158.256 222.475 157.986 222.683C154.234 225.572 150.528 230.051 149.741 234.831C147.301 233.83 145.462 230.577 146.297 228.004C147.514 224.246 151.923 221.308 155.424 219.85C156.443 219.425 161.109 218.188 161.356 217.677C156.986 215.114 153.189 210.919 151.236 206.196C150.738 204.992 149.475 200.983 149.475 199.852V193.236H147.854L148.124 188.101L150.113 188.065L150.52 187.663C151.135 180.411 152.494 172.955 154.87 166.085C155.337 164.741 156.766 162.192 156.976 161.167C157.38 159.178 157.056 155.719 157.307 153.398C157.987 147.132 159.981 140.132 164.803 135.843C161.849 130.767 159.805 123.583 163.675 118.441C166.416 114.797 169.998 110.427 174.135 108.375C175.048 107.919 176.256 107.81 177.115 107.304C178.824 106.292 179.514 104.143 182.416 104.91C182.334 103.777 182.704 102.35 183.837 101.876C184.309 101.678 185.572 101.718 185.616 101.274C183.905 98.4573 188.358 98.395 190.249 98.4261C189.157 96.1256 187.738 94.2378 187.141 91.6777C183.44 75.8393 191.307 66.5264 201.717 56.2849C207.952 50.1539 214.669 44.0099 223.189 41.2998L227.243 40.3556C227.243 40.3556 231.834 39.5539 234.804 40.3581" fill="white"/>
</svg>
