<svg width="512" height="512" viewBox="0 0 512 512" fill="none" xmlns="http://www.w3.org/2000/svg">
<g clip-path="url(#clip0_10_648)">
<path d="M221.918 0.421598C221.918 0.421598 227.358 -0.528398 230.878 0.424528L233.538 1.75363C238.868 6.18276 244.564 10.6928 249.279 15.7829C250.533 17.1382 252.209 19.9051 253.429 20.9157C255.578 22.6958 261.99 24.6254 263.508 26.1989C263.984 26.694 263.932 27.5977 264.301 27.9636C264.759 28.4157 265.644 28.1205 266.422 28.7224C267.381 29.466 267.372 31.1411 268.026 31.9187C268.653 32.6689 269.831 32.414 269.901 33.8894C269.929 34.4456 269.554 35.0085 269.582 35.4909C269.653 36.8033 270.277 38.1407 269.776 39.4958C267.825 40.679 266.333 38.6108 264.478 38.5153C264.533 44.9672 263.629 51.428 261.692 57.5788C263.647 59.0852 265.984 60.1917 267.496 62.2234C268.615 63.7267 269.721 66.8925 272.066 67.2771C272.647 67.3722 275.718 65.4108 276.299 64.9069C278.355 63.1122 278.746 61.0955 281.782 59.5095C284.407 58.1419 286.427 58.907 288.394 58.1208C290.936 57.1065 290.457 52.9285 294.88 54.6775C296.229 55.2123 296.534 57.542 296.789 54.5271L295.833 54.3581C296.577 51.7482 296.989 48.7644 297.13 46.0534C297.757 34.1485 293.875 22.9813 304.153 14.0212C308.509 10.2251 320.088 3.85686 325.763 3.30636C332.175 2.68228 339.589 3.93949 344.633 8.11398C346.084 9.3156 346.999 10.9018 348.318 12.1101C349.398 13.0963 351.005 13.9544 352.167 14.9841C360.254 22.1427 367.278 34.5241 357.935 43.8103C357.36 44.3849 356.007 44.9781 355.844 45.2429C355.137 46.4053 354.916 50.3355 354.153 51.8728C353.64 52.9113 352.177 53.2192 351.909 54.1071C351.525 55.3952 352.198 57.3722 352.183 58.8571C352.17 59.7666 351.856 60.5414 351.829 61.3933C351.669 66.3416 352.706 70.4722 345.642 68.3454C343.982 69.6792 344.095 72.4431 341.283 71.8132C342.73 75.32 339.881 74.7026 338.541 76.2732C337.582 77.3951 337.948 79.0761 337.13 80.2165C336.537 81.0435 334.086 82.4539 333.041 82.6198C330.302 83.0593 325.258 80.1362 322.228 79.9333L316.021 86.0993C318.558 89.2957 321.784 92.3608 322.719 96.4577C316.578 95.6342 316.799 104.072 315.655 108.44C314.797 111.714 312.621 117.108 312.179 120.009C311.776 122.641 311.678 131.545 311.822 134.382C311.93 136.536 315.919 146.725 316.952 149.446C317.382 150.577 318.504 152.327 318.735 153.104C318.951 153.82 318.745 154.598 318.933 155.151C319.065 155.544 319.987 155.938 320.433 156.528C321.21 157.557 321.468 160.085 321.628 160.201C321.902 160.398 322.95 160.56 323.481 160.843C326.229 162.306 325.055 161.588 327.644 161.772C328.31 161.818 329.024 162.412 329.607 162.384C330.327 162.349 331.931 160.859 333.757 160.782C335.817 160.693 337.783 162.143 339.443 161.688C339.873 161.569 340.289 161.071 340.882 160.886C343.909 159.94 348.096 161.347 351.349 161.458C355.219 161.587 360.588 161 364.323 160.008C365.596 159.67 367.877 158.427 368.722 158.292C369.539 158.163 370.063 158.679 371.043 158.426C373.159 157.882 380.652 152.187 383.099 150.613C383.578 150.303 384.215 150.318 384.66 149.934C385.675 136.825 387.888 123.814 389.229 110.771C387.437 109.302 389.428 107.488 389.85 105.506C390.154 104.057 390.851 98.8264 390.79 97.5075C390.759 96.8408 390.234 96.4531 390.252 95.6911C390.274 94.9137 390.947 94.0839 391.113 93.3249C391.749 90.3925 392.275 83.6796 396.182 83.031C398.647 82.6252 399.834 83.3816 401.082 85.4597C402.379 87.6269 401.991 89.7071 401.764 92.1355C401.145 98.7504 400.332 105.694 399.483 112.262C397.928 124.342 395.468 136.336 394.122 148.456C394.258 148.996 397.141 149.301 398.001 149.682C400.165 150.644 400.893 152.605 400.082 154.797C399.916 155.248 399.298 155.621 399.279 155.836C399.222 156.539 401.44 157.748 400.125 160.283C399.817 160.873 398.723 161.492 398.628 161.967C398.533 162.444 399.261 163.458 399.194 164.444C399.108 165.704 397.827 167.075 397.753 167.675C397.695 168.144 398.004 168.892 397.937 169.598C397.779 171.206 396.722 172.592 395.518 173.597C394.272 174.636 392.09 175.174 391.347 175.826C390.63 176.453 390.711 180.249 390.563 181.448C388.722 196.436 387.296 211.22 385.399 226.22C382.04 252.827 377.712 279.353 374.567 305.981C371.275 333.875 369.041 361.927 365.921 389.849C361.965 425.274 357.772 460.743 353.44 496.128C353.05 499.306 352.786 504.027 352.098 506.95C351.873 507.89 350.791 509.344 349.971 508.251C349.07 507.049 349.217 505.268 349.285 503.818C350.072 487.239 353.035 469.263 354.723 452.594C361.707 383.567 368.521 314.546 375.207 245.479C376.363 233.534 378.016 221.574 379.043 209.621C379.261 207.073 379.132 206.443 378.742 204.165C378.312 201.657 379.39 199.686 379.651 197.424C379.968 194.694 379.83 191.48 380.125 188.87C380.325 187.121 382.686 177.54 382.114 176.793C379.394 176.027 376.705 175.197 373.91 175.994C371.264 176.747 372.761 178.837 371.156 180.297C368.909 180.226 366.066 179.227 363.887 179.396C359.005 179.774 349.931 184.259 344.728 185.857C329.881 190.412 316.575 190.491 301.439 192.173C299.943 192.339 295.193 192.182 294.418 193.153C293.938 193.759 291.953 199.872 292.061 200.592C292.103 201.526 293.133 201.772 293.486 202.212C295.736 204.999 296.865 207.757 296.936 211.405C299.733 213.015 299.201 210.48 300.316 209.942C300.815 209.699 302.155 209.629 302.582 209.921C303.611 210.639 302.087 222.086 301.106 223.531C300.144 224.945 298.25 223.494 296.803 223.869C296.207 228.4 295.574 233.939 293.561 238.073C293.146 238.921 291.769 240.427 291.673 241.008C291.365 242.904 293.67 246.652 291.47 248.468C289.37 250.205 285.707 250.977 283.036 251.078C283.276 253.19 284.093 255.237 284.277 257.36C286.109 278.342 288.639 299.348 290.397 320.388C290.656 323.49 290.361 327.359 290.748 330.279C291.292 334.416 293.904 338.538 294.236 343.755C294.396 346.281 293.444 350.345 293.662 352.009C293.786 352.931 295.364 355.522 295.696 357.021C296.914 362.53 294.427 367.152 289.795 370.051C290.542 374.908 291.301 379.826 291.676 384.732C292.748 398.764 292.546 413.773 289.284 427.468C288.903 429.07 287.095 433.893 287.2 434.96C287.333 436.254 289.214 440.123 289.656 442.131C290.299 445.039 289.899 447.759 290.339 450.064C291.406 455.615 294.294 462.823 295.997 468.441C296.566 470.316 297.316 475.234 298.567 476.436C299.231 477.076 302.987 478.038 304.155 478.53C310.205 481.081 314.059 482.695 320.947 482.858C325.638 482.972 331.377 481.174 335.354 484.457C341.493 489.523 336.092 499.573 330.089 502.066L330.667 504.562C328.573 505.825 328.164 506.67 325.601 505.576L325.924 507.175C324.583 507.085 323.278 507.981 321.949 507.811C320.717 507.658 319.951 506.167 318.448 506.517L317.903 508.441C316.637 508.057 313.299 509.147 312.479 508.616C312.199 508.435 312.119 507.836 311.839 507.657C311.27 507.294 310.016 507.521 309.297 507.53L309.115 508.462C306.026 507.924 302.909 507.263 299.798 506.897C297.539 506.63 292.263 505.885 290.309 506.288C289.703 506.411 287.836 507.729 287.521 507.497C287.279 505.287 285.664 505.837 284.029 506.249L283.956 508.575L280.799 509.737L280.434 507.859C279.508 507.684 278.45 507.785 277.737 508.452L277.621 510.217L273.818 510.954C272.346 507.382 270.718 507.706 270.26 511.52C268.997 511.468 267.366 512.018 266.232 512C265.268 511.987 265.897 510.129 264.908 509.781C263.261 509.203 263.54 510.497 262.737 511.045C261.665 511.776 259.63 510.62 258.438 510.334L258.357 508.655C256.347 506.848 254.196 509.245 251.694 508.115L251.636 506.9C251.518 506.716 250.627 506.682 250.289 506.486C249.478 506.003 248.623 501.412 248.516 500.253C247.886 493.361 250.27 486.816 249.767 480.432C249.508 477.174 247.308 475.622 247.179 472.131C247.068 469.032 249.223 464.665 249.105 462.86C248.992 461.059 246.522 458.047 246.53 454.835C246.536 453.151 247.833 451.918 247.845 450.682C247.86 449.149 246.591 445.982 246.317 444.19C245.749 440.502 245.936 436.783 245.903 433.054C245.79 420.553 245.433 407.754 245.596 395.29C245.62 393.409 246.161 390.906 246.136 389.588C246.123 388.761 245.57 387.784 245.567 386.65C245.564 385.086 246.394 383.877 246.486 382.734C246.554 381.88 246.13 381.172 246.308 380.008C246.489 378.812 247.715 377.592 247.771 376.996C247.823 376.458 246.17 374.082 246.256 372.29C246.345 370.418 248.53 367.756 248.478 366.831C248.428 365.937 247.137 363.474 246.394 362.804C245.634 365.497 245.864 368.897 245.194 371.525C244.517 374.19 240.528 377.079 238.383 378.8C236.271 380.496 232.342 382.66 230.658 384.354C229.361 385.658 227.575 389.337 226.333 391.073C218.808 401.594 209.766 412.881 200.956 422.348C189.808 434.326 176.516 444.191 163.498 454.027L163.67 454.836L168.29 456.267C168.727 456.409 168.422 456.913 168.148 457.085C167.414 457.54 162.023 453.981 160.928 455.951C160.464 456.959 165.465 459.951 166.378 460.768C168.333 462.517 171.179 465.347 168.161 467.656C163.575 471.166 161.033 462.572 159.192 460.119C159.472 466.442 159.825 471.425 163.529 476.742C165.272 479.247 167.624 480.71 169.373 483.384C171.392 486.467 173.409 490.675 172.561 494.466C171.973 497.097 165.924 498.734 163.563 498.731C161.972 498.728 160.157 497.96 159.008 497.911C157.76 497.856 155.469 498.639 154.418 497.056C153.816 496.15 154.209 494.285 152.626 496.608C152.067 495.707 150.044 494.917 149.562 494.235C148.885 493.282 149.589 491.032 147.502 490.608L146.546 491.487C145.808 490.38 143.181 488.631 142.688 487.641C142.332 486.928 143.398 486.455 143.042 485.739C142.255 484.15 140.869 484.786 140.451 484.485C139.898 484.085 139.277 482.18 138.705 481.408C137.143 479.297 132.816 475.793 131.826 473.546C131.415 472.615 132.253 471.394 131.983 470.365C131.765 470.116 129.546 471.382 128.989 471.262C128.599 471.18 128.344 470.512 127.923 470.408C127.452 470.294 126.914 470.758 126.22 470.558C125.4 470.324 124.947 469.144 123.988 469.077L124.803 467.165C123.696 465.828 123.343 465.668 121.741 466.375L120.29 464.926L120.967 463.006C119.728 460.906 119.018 462.843 117.89 461.902C115.969 460.304 117.367 458.994 116.46 457.882C115.83 457.107 115.154 457.396 114.552 456.911C113.605 456.149 112.689 452.534 112.074 452.189C111.687 451.971 111.023 452.238 110.359 451.82C110.12 451.67 109.045 450.214 109.007 449.979C108.936 449.512 109.458 449.125 109.499 448.713C109.638 447.369 108.466 446.65 109.518 444.523C110.716 442.104 119.927 435.693 122.605 433.928C126.03 431.676 129.838 429.41 133.582 427.768C132.402 424.341 134.535 421.861 136.954 419.793C137.692 419.163 138.961 418.735 139.493 418.167C140.283 417.321 140.523 416.045 141.756 414.988C144.037 413.027 144.882 414.198 147.043 413.555C148.439 413.141 150.203 411.128 151.793 410.784C150.349 404.532 153.136 399.565 156.815 394.84C161.159 389.27 166.379 385.634 171.354 380.894C177.68 374.87 184.022 368.627 189.598 362.009C191.294 359.999 194.107 358.004 196.339 356.587C197.459 355.876 201.244 354.189 201.745 353.67C202.437 352.956 202.467 351.045 203.018 350.224C203.341 349.745 204.177 349.656 204.536 349.262C205.16 348.577 205.384 347.199 206.38 346.142C208.04 344.375 210.625 343.302 212.808 342.328L214.24 327.737C209.879 312.845 208.48 298.469 209.756 282.934C209.882 281.398 210.702 278.868 210.607 277.531C210.534 276.492 209.62 274.909 209.467 273.615C209.264 271.876 209.559 269.976 209.427 268.215C209.031 266.14 202.475 262.396 200.938 260.699C199.902 259.559 197.12 254.604 196.954 253.162C196.517 249.384 197.425 245.274 197.271 241.478C191.116 242.775 184.544 243.033 178.461 241.248C173.026 239.649 167.506 237.089 161.945 235.678L143.646 222.289C142.34 219.996 142.417 217.128 142.866 214.586C142.699 214.397 140.156 216.266 139.836 216.512C135.388 219.937 130.996 225.245 130.064 230.91C127.172 229.724 124.992 225.87 125.982 222.82C127.424 218.366 132.65 214.884 136.8 213.156C138.008 212.652 143.537 211.185 143.829 210.58C138.65 207.543 134.149 202.57 131.835 196.972C131.245 195.546 129.748 190.794 129.748 189.454V181.613H127.827L128.146 175.527L130.505 175.484L130.987 175.008C131.716 166.413 133.327 157.576 136.143 149.433C136.696 147.841 138.389 144.821 138.638 143.606C139.117 141.248 138.733 137.148 139.031 134.397C139.837 126.971 142.201 118.675 147.915 113.592C144.414 107.576 141.992 99.0614 146.578 92.9665C149.827 88.648 154.072 83.4683 158.975 81.0368C160.057 80.4962 161.489 80.367 162.507 79.7673C164.532 78.5685 165.35 76.0208 168.79 76.9304C168.692 75.5871 169.13 73.8959 170.474 73.3337C171.033 73.0999 172.529 73.1467 172.582 72.6208C170.554 69.283 175.831 69.2089 178.072 69.2458C176.778 66.5193 175.097 64.2819 174.39 61.2478C170.003 42.4763 179.327 31.4386 191.665 19.3005C199.055 12.0342 207.015 4.7527 217.113 1.54074L221.918 0.421598ZM159.507 456.917C159.903 459.33 162.842 466.707 165.172 467.414C166.297 467.755 168.212 467.362 168.465 466.028C169.089 462.758 164.385 460.449 162.225 458.835C161.348 458.183 160.791 456.766 159.507 456.917ZM133.906 217.466C130.848 218.756 127.025 222.141 127.507 225.783C128.017 226.391 129.716 222.922 129.935 222.614C131.189 220.838 132.744 219.304 133.906 217.466ZM253.598 82.3718C256.207 80.1616 258.159 77.2603 261.252 75.6159L258.557 67.0066L253.598 82.3718ZM260.314 60.7693C261.39 64.8634 263.253 69.8927 267.763 71.1189L270.19 69.5271C270.359 69.2351 270.228 68.8876 270.077 68.6081C269.521 67.5939 267.022 64.8249 266.081 63.9607C264.606 62.6085 262.705 61.4067 260.966 60.4196L260.314 60.7693Z" fill="white"/>
</g>
<defs>
<clipPath id="clip0_10_648">
<rect width="512" height="512" fill="white"/>
</clipPath>
</defs>
</svg>
