<?xml version="1.0" encoding="UTF-8"?><svg xmlns="http://www.w3.org/2000/svg" version="1.1" viewBox="0 0 64 64"><g><g id="Ouutline"><g><path d="M41.11703,17.5v-2c0-2.48145-2.01855-4.5-4.5-4.5H15.61703c-2.48145,0-4.5,2.01855-4.5,4.5v2c0,1.00684.34326,1.99609.96631,2.78613,1.31152,1.66211,2.03369,3.86816,2.03369,6.21387v17.5c0,1.6543,1.3457,3,3,3h18c1.6543,0,3-1.3457,3-3v-17.5c0-2.26953.75342-4.5166,2.12061-6.32812.56689-.75.87939-1.69922.87939-2.67188ZM39.11703,17.5c0,.54004-.16846,1.06152-.4751,1.4668-1.62842,2.15625-2.5249,4.83203-2.5249,7.5332v17.5c0,.55176-.44873,1-1,1h-18c-.55127,0-1-.44824-1-1v-17.5c0-2.79297-.875-5.43945-2.46338-7.45215-.34619-.43848-.53662-.98828-.53662-1.54785v-2c0-1.37891,1.12158-2.5,2.5-2.5h21c1.37842,0,2.5,1.12109,2.5,2.5v2Z"/><path d="M50.00705,13.27997l-5.56-1.07996c-1.29004-3.05005-4.31-5.20001-7.83002-5.20001H15.61703c-4.69,0-8.5,3.81-8.5,8.5v2c0,1.82996.59998,3.64001,1.70001,5.09998.83997,1.12,1.29999,2.5,1.29999,3.90002v21.5c0,1.64996,1.34998,3,3,3h3.72998c.44.51001,1.03003.85999,1.70001.98999l25.52002,4.95001c.19.03998.38.06.57001.06,1.40997,0,2.67999-1,2.94995-2.42999l4.10004-21.10004c.27002-1.39996.96997-2.64001,2.02002-3.58997,1.34998-1.22003,2.28998-2.88,2.63995-4.67999l.38-1.96002c.89001-4.59998-2.12-9.07001-6.71997-9.96002ZM13.11703,49c-.54999,0-1-.45001-1-1v-21.5c0-1.83002-.59998-3.64001-1.70001-5.10004-.83997-1.12-1.29999-2.5-1.29999-3.89996v-2c0-3.58002,2.91998-6.5,6.5-6.5h21c3.58002,0,6.5,2.91998,6.5,6.5v2c0,1.39996-.46002,2.77997-1.29999,3.89996-1.10004,1.46002-1.70001,3.27002-1.70001,5.10004v21.5c0,.54999-.45001,1-1,1H13.11703ZM54.76706,22.85999l-.38,1.96002c-.27002,1.38-.98004,2.64996-2.02002,3.57996-1.37,1.24005-2.28998,2.86005-2.64001,4.69l-4.09998,21.10004c-.10999.54999-.62.88995-1.17999.78998l-20.51001-3.97998h15.17999c1.65002,0,3-1.35004,3-3v-21.5c0-1.40002.46002-2.78003,1.29999-3.90002,1.10004-1.45996,1.70001-3.27002,1.70001-5.09998v-2c0-.39001-.03998-.78003-.09003-1.15002l4.60004.89001c3.52002.69,5.82001,4.09998,5.14001,7.62Z"/></g></g></g></svg>