<?xml version="1.0" encoding="UTF-8"?><svg xmlns="http://www.w3.org/2000/svg" version="1.1" viewBox="0 0 64 64"><g><g id="Ouutline"><g><path d="M56.87,47.01001c-.17999-.32001-.51001-.51001-.87-.51001h-7.10999c1.29999-1.27002,2.10999-3.04004,2.10999-5v-4c0-.54999-.45001-1-1-1h-1v-4.59003c1.14001-.66998,1.91998-1.83002,1.98999-3.20001.04999-.81995-.15997-1.62-.58002-2.29999.35004-.15997.59003-.5.59003-.90997v-3c0-6.07001-4.92999-11-11-11h-16c-6.07001,0-11,4.92999-11,11v3c0,.41998.26001.76996.62.91998-.34998.54999-.58002,1.17999-.60999,1.87-.06,1.10999.33002,2.16003,1.08997,2.96002.26001.27997.57001.5.90002.69v4.56h-1c-.54999,0-1,.45001-1,1v4c0,1.95996.81,3.72998,2.10999,5h-7.10999c-.35999,0-.69.19-.87.51001-.17999.31-.16998.69995.01001,1,1.65997,2.76996,4.96997,4.48999,8.63,4.48999h32.45996c3.66003,0,6.97003-1.72003,8.63-4.48999.17999-.30005.19-.69.01001-1ZM15,22.5c0-4.96002,4.03998-9,9-9h16c4.96002,0,9,4.03998,9,9v2H15v-2ZM17.16998,26.5h29.83002c.54999,0,1.07001.21997,1.45001.62.38.40997.58002.92999.54999,1.48999-.06,1.03998-1.03003,1.89001-2.16998,1.89001h-1.83002c-1.65002,0-3,1.34998-3,3v3.99985c0,.62611-.58412,1.06698-1.17999.99014-.46002-.08002-.82001-.56-.82001-1.09998v-3.89001c0-1.65002-1.34998-3-3-3h-20c-.54999,0-1.07001-.22003-1.45001-.62-.38-.41003-.58002-.92999-.54999-1.48999.06-1.04004,1.03003-1.89001,2.16998-1.89001ZM47,32.5v4h-3v-3c0-.54999.45001-1,1-1h2ZM17,36.5v-4h20c.54999,0,1,.45001,1,1v3h-21ZM35,38.5c0,1.09998-.89001,1.98999-2,1.98999h-.01001c-.48999-.08002-.95001.20001-1.10999.65997-.28998.81-1.03998,1.35004-1.88,1.35004-.66998,0-1.28998-.34003-1.66998-.90002-.37-.56-1.29004-.56-1.66003,0-.38.56-1,.90002-1.66998.90002-1.09998,0-2-.90002-2-2,0-.54999-.45001-1-1-1-.73999,0-1.38-.41003-1.71997-1h14.71997ZM15,41.5v-3h3.14001c.37,1.42999,1.51001,2.56,2.95996,2.89996.41003,1.77002,2,3.10004,3.90002,3.10004.91998,0,1.79999-.32001,2.5-.88.70001.56,1.58002.88,2.5.88,1.44,0,2.76001-.79004,3.46002-2.03003,1.98999-.22998,3.53998-1.91998,3.53998-3.96997h1.20001c.36995,1.00988,1.23976,1.78978,2.29958,1.95989,1.41086.22647,2.84257-.6113,3.31041-1.95989h5.19v3c0,2.76001-2.23999,5-5,5h-24c-2.76001,0-5-2.23999-5-5ZM48.22998,50.5H15.77002c-2.15002,0-4.19-.75-5.63-2h43.71997c-1.44,1.25-3.47998,2-5.63,2Z"/><path d="M32,22.5c1.6543,0,3-1.3457,3-3,0-1.42383-1.76953-3.21191-2.31201-3.72559-.38574-.36621-.99023-.36621-1.37598,0-.54248.51367-2.31201,2.30176-2.31201,3.72559,0,1.6543,1.3457,3,3,3ZM32,17.94922c.55762.64404.9873,1.29102,1,1.55078,0,.55127-.44873,1-1,1-.55078,0-.99902-.44775-1-.99854.01318-.26172.44287-.90869,1-1.55225Z"/><path d="M40,21.62109c.80127,0,1.55469-.31201,2.12109-.87842,1.16992-1.16943,1.16992-3.07324,0-4.24268-1.00586-1.00684-3.51709-1.02002-4.26904-.99951-.53125.01416-.9585.44141-.97266.97266-.02002.74707-.00781,3.2627.99951,4.26953.56641.56641,1.31982.87842,2.12109.87842ZM40.70703,17.91406c.38965.39014.38965,1.02441,0,1.41455-.37744.37646-1.03467.37744-1.41309.00098-.17529-.19434-.32959-.95605-.39062-1.80469.84961.06104,1.61133.21484,1.80371.38916Z"/><path d="M24,21.62109c.80127,0,1.55469-.31201,2.12109-.87842,1.00732-1.00684,1.01953-3.52246.99951-4.26953-.01416-.53125-.44141-.9585-.97266-.97266-.75195-.021-3.26367-.00732-4.26904.99951-1.16992,1.16943-1.16992,3.07324,0,4.24268.56641.56641,1.31982.87842,2.12109.87842ZM23.2915,17.91553c.19385-.17529.95557-.32959,1.80518-.39062-.06104.84863-.21533,1.61035-.39062,1.80469-.37842.37646-1.03564.37549-1.41309-.00098-.38965-.39014-.38965-1.02441-.00146-1.41309Z"/></g></g></g></svg>