<?xml version="1.0" encoding="UTF-8"?><svg xmlns="http://www.w3.org/2000/svg" version="1.1" viewBox="0 0 64 64"><g><g id="Ouutline"><path d="M56.91998,28.62c-.59998-4.87-4.57001-8.87-9.45001-9.52002-1.27997-.16998-2.56-.10999-3.81.16998-2.14996-4.31-6.60999-7.26996-11.65997-7.26996s-9.51001,2.95996-11.65997,7.26996c-1.25-.27997-2.52002-.33997-3.81-.16998-4.88.65002-8.85004,4.65002-9.45001,9.52002-.57001,4.65997,1.79999,9.07001,5.91998,11.16998v9.21002c0,1.64996,1.34998,3,3,3h32c1.65002,0,3-1.35004,3-3v-9.21002c4.12-2.09998,6.48999-6.51001,5.91998-11.16998ZM49,49c0,.54999-.45001,1-1,1H16c-.54999,0-1-.45001-1-1v-1h34v1ZM49,46h-7v-3c0-.54999-.45001-1-1-1s-1,.45001-1,1v3h-7v-3c0-.54999-.45001-1-1-1s-1,.45001-1,1v3h-7v-3c0-.54999-.45001-1-1-1s-1,.45001-1,1v3h-7v-6h34v6ZM50.08002,38.01996c-.03003-.00995-.04999-.01996-.08002-.01996h-7.60999l1.56-4.67999c.16998-.53003-.10999-1.09003-.63-1.27002-.53003-.16998-1.09003.10999-1.27002.63l-1.76996,5.32001h-7.28003v-7c0-.54999-.45001-1-1-1s-1,.45001-1,1v7h-7.28003l-1.76996-5.32001c-.17999-.52002-.73999-.79999-1.27002-.63-.52002.17999-.79999.73999-.63,1.27002l1.56,4.67999h-7.60999c-.03003,0-.04999.01001-.07001.01001-3.39001-1.71002-5.33002-5.32001-4.85999-9.15002.48999-3.97998,3.72998-7.25,7.71997-7.78003.95001-.12994,1.89001-.09998,2.81.07001-.27997.88-.47998,1.81-.56,2.77002-.03998.54999.37,1.03003.92004,1.08002.54999.04999,1.02997-.37,1.07996-.92004.46002-5.64996,5.28003-10.07996,10.96002-10.07996s10.5,4.42999,10.96002,10.07996c.04999.52002.47998.92004,1,.92004h.07996c.55005-.04999.96002-.53003.92004-1.08002-.08002-.96002-.28003-1.88-.56-2.77002.91998-.16998,1.85999-.19,2.81-.07001,3.98999.53003,7.22998,3.80005,7.71997,7.78003.47003,3.83002-1.46997,7.44-4.84998,9.15997Z"/></g></g></svg>