<?xml version="1.0" encoding="UTF-8"?><svg xmlns="http://www.w3.org/2000/svg" version="1.1" viewBox="0 0 64 64"><g><g id="Ouutline"><g><path d="M52.57876,13.18125v-3.17999c0-.52002-.40002-.96002-.91998-1l-26-2c-.29004-.02002-.56.07996-.76001.26996s-.32001.45001-.32001.73004v5.17999c-1.15997.41998-2,1.52002-2,2.82001v2c0,1.29999.84003,2.39996,2,2.82001v3.17999c0,.01996.01001.02997.01001.04999,0,.01001-.01001.02997-.01001.03998l1.59998,16.94c-.19995-.01996-.39996-.02997-.59998-.02997h-.02002c-1.81.01001-3.41998.82001-4.51996,2.08997-.73004-.82001-1.67004-1.42999-2.73004-1.75-.01001,0-.01996,0-.02997-.01001-3.16003-.92999-6.48999.86005-7.45001,4.02002l-1.15002,3.83002c-.45996,1.52997-.29999,3.15997.45001,4.57001.75,1.38,1.98004,2.39996,3.48004,2.87.01996.01001.03998.02002.06995.02997l.01001.01001c.57001.16998,1.16003.26001,1.73999.26001.98004,0,1.94-.23999,2.83002-.71997.91998-.49005,1.66003-1.22003,2.21002-2.08002,1.04999,1.71997,2.94,2.88,5.10999,2.88.78003,0,1.52002-.15002,2.20001-.42004.17999.25.46997.42004.79999.42004h20c.52002,0,.95001-.39001,1-.91003l3-32c0-.01001-.01001-.02997-.01001-.03998,0-.02002.01001-.03003.01001-.04999v-3.17999c1.15997-.42004,2-1.52002,2-2.82001v-2c0-1.29999-.84003-2.40002-2-2.82001ZM15.11874,49.47123c.62,1.16003.49005,2.58002-.32996,3.60999l-1.13,1.41003c-.75-.35999-1.36005-.94-1.76001-1.69-.51001-.94-.60999-2.02002-.29999-3.03998l1.14996-3.83002c.47003-1.56,1.82001-2.62,3.34003-2.81l-.44.54999c-1.32001,1.65997-1.53003,3.94-.53003,5.79999ZM19.57876,47.00126v4l-.33002,1.07001c-.31,1.01996-1,1.85999-1.94,2.37-.44.23999-.90997.38-1.39996.44l.44-.55005c1.32001-1.65997,1.52997-3.92999.52997-5.79999-.62-1.15997-.48999-2.57996.33002-3.60999l1.13-1.40997c.65997.31995,1.20996.82996,1.59998,1.44995-.22998.64001-.35999,1.32001-.35999,2.04004ZM26.57876,9.08122l24,1.85004v2.07001h-24v-3.92004ZM25.59878,53.25126l-.67004,1.67999c-1.88995-.31-3.32996-1.92999-3.34998-3.90002v-4.02997c0-1.63.97998-3.03003,2.38-3.65002l-.26001.65002c-.78998,1.96997-.33002,4.20996,1.16998,5.70996.92999.93005,1.22003,2.32001.73004,3.54004ZM29.57876,51.00126c0,1.63-.97998,3.02997-2.38,3.64996l.26001-.64996c.78998-1.97003.33002-4.21002-1.16998-5.71002-.92999-.92999-1.22003-2.32001-.73004-3.53998l.67004-1.67999c1.89996.31,3.34998,1.94995,3.34998,3.92999v4ZM47.66879,55.00126h-17.63c.67999-.76001,1.17999-1.69,1.39996-2.73004,2.22003.47003,4.65002.73004,7.14001.73004,3.38,0,6.65002-.46002,9.40002-1.29999l-.31,3.29999ZM48.17874,49.53123c-2.69995.95001-6.07996,1.47003-9.59998,1.47003-2.46002,0-4.84998-.27002-7-.75v-3.25c0-2.35004-1.35999-4.39001-3.34003-5.37l-.97998-10.46002c2.90002-1.38,6.96002-2.16998,11.32001-2.16998s8.42999.78998,11.32001,2.16998l-1.72003,18.35999ZM50.09878,29.06126c-3.10004-1.32001-7.20001-2.06-11.52002-2.06s-8.41998.73999-11.52002,2.06l-.38-4.06h23.80005l-.38,4.06ZM50.57876,23.00126h-24v-2h24v2ZM52.57876,18.00126c0,.54999-.45001,1-1,1h-26c-.54999,0-1-.45001-1-1v-2c0-.54999.45001-1,1-1h26c.54999,0,1,.45001,1,1v2Z"/><path d="M38.57534,48.00108c.00116,0,.00226.00067.00342.00067.00171,0,.00323-.00073.00494-.00073,3.30634-.00269,5.99506-2.69281,5.99506-5.99976v-4c0-3.30859-2.69141-6-6-6-.0061,0-.01202.00092-.01813.00092-.0011,0-.00214.00018-.00323.00018-3.29871.01172-5.97864,2.69751-5.97864,5.9989v4c0,3.30743,2.68964,5.99799,5.99658,5.99982ZM42.57876,38.00126v4c0,1.62964-.98248,3.0296-2.38391,3.65234l.26184-.65479c.78711-1.96631.32715-4.20557-1.1709-5.70459-.93164-.93213-1.21777-2.32471-.72754-3.54785l.67145-1.67932c1.89563.31329,3.34906,1.95148,3.34906,3.9342ZM34.57876,38.00126c0-1.62964.98248-3.0296,2.38391-3.65234l-.26184.65479c-.78711,1.96631-.32715,4.20557,1.1709,5.70459.93164.93213,1.21777,2.32471.72754,3.54785l-.67145,1.67932c-1.89563-.31329-3.34906-1.95148-3.34906-3.9342v-4Z"/></g></g></g></svg>