<?xml version="1.0" encoding="UTF-8"?><svg xmlns="http://www.w3.org/2000/svg" version="1.1" viewBox="0 0 64 64"><g><g id="Ouutline"><g><path d="M47.00957,31.20508c-1.6543,0-3,1.3457-3,3s1.3457,3,3,3,3-1.3457,3-3-1.3457-3-3-3ZM47.00957,35.20508c-.55127,0-1-.44824-1-1s.44873-1,1-1,1,.44824,1,1-.44873,1-1,1Z"/><path d="M38.00127,23.63867c-.48047-.26855-1.09082-.10059-1.3623.37891-3.39548,6.01167-3.49463,13.83483-.25252,19.93247.23917.44982.87522.66826,1.35262.41323.4873-.25879.67236-.86426.41309-1.35254-2.9292-5.50879-2.83984-12.57812.22803-18.00879.27148-.48145.10205-1.09082-.37891-1.36328Z"/><path d="M31.49541,24.50488c-.49658-.24707-1.09473-.04395-1.34082.44922-2.78318,5.58686-2.88525,12.31335-.274,17.99398.21697.47201.82587.72161,1.32624.49039.50195-.23047.72168-.82422.49121-1.32617-2.32617-5.05859-2.23145-11.29199.24658-16.26562.24609-.49512.04541-1.09473-.44922-1.3418Z"/><path d="M41.63957,19.73999c-.02002-.02002-.03003-.03998-.06-.06l-10-7c-.34003-.23999-.78998-.23999-1.14001,0-.33997.22998-.5.65997-.39996,1.06.56,2.25.08997,4.59998-1.30005,6.46002l-.52997.69995c-.04004.05005-.04999.10004-.07001.15002-4.45001,1.41998-8.37,3.72998-10.75,6.66998-.25-.38-.53998-.73999-.84998-1.06-3.05005-3.03998-8.38-2.42999-8.61005-2.40997-.45996.06-.82001.41998-.87.88-.02997.21997-.64001,5.56,2.41003,8.59998.15997.16998.33997.33002.51996.47998-.17999.15002-.35999.30005-.51996.47003-3.05005,3.03998-2.44,8.38-2.41003,8.59998.04999.46002.41003.82001.87.88.07001,0,.59003.06,1.36005.06,1.82996,0,5.10999-.32996,7.25-2.46997.37-.38.70996-.81,1-1.29004.45996.55005.96997,1.07001,1.52997,1.57001l.25,2.17004c.25,1.44.84997,2.80999,1.76001,3.95996,1.65137,2.08676,4.2163,3.34003,6.88001,3.34003,1.20996,0,2.41998-.25,3.54999-.76001l5.13-2.27002c.46002.02002.90997.03003,1.37.03003,11.01001,0,19-6.10004,19-14.5,0-7.45001-6.28003-13.07001-15.37-14.26001ZM15.11955,40.32996c-1.73999,1.75-4.70001,1.92004-6.12,1.89001-.02997-1.42999.14001-4.39001,1.88-6.13.38-.38.85999-.70996,1.41003-.98999.33997-.16998.56-.52002.56-.89996,0-.38-.22003-.72003-.56-.89001-.55005-.27002-1.03003-.60999-1.41003-.98999-1.73999-1.74005-1.90997-4.70001-1.88-6.13,1.42999-.02002,4.38.14996,6.12,1.88995.41003.40002.73999.93005,1.02002,1.53003-.72003,1.35999-1.13,2.83002-1.13,4.39001,0,1.64001.45001,3.17999,1.23999,4.59998-.28998.69-.66998,1.28003-1.13,1.72998ZM32.26958,15.59998l5.57001,3.90002c-2.25.01996-4.54999.27997-6.78003.76996.79999-1.44,1.21002-3.03998,1.21002-4.66998ZM30.68956,48.91998c-2.75772,1.22567-6.181.37088-8.03998-2-.70001-.89001-1.17004-1.94-1.35004-3.01001l-.01996-.17999c3.15997,2.10999,7.19995,3.59998,11.38995,4.31l-1.97998.88ZM38.00957,46.5c-.51001,0-1.02002-.02002-1.52002-.04004-.02997,0-.04999-.00995-.07001-.00995-10.34998-.53003-19.40997-6.23004-19.40997-12.45001,0-6.54004,10.01001-12.5,21-12.5,2.08002,0,4.02002.22998,5.81.64996l-.09998.14001c-4.94,6.91003-4.96002,16.72003-.15002,23.62-1.71002.38-3.57001.59003-5.56.59003ZM45.59959,45.34998c-.01001-.02002-.02002-.04999-.03003-.07001-4.71002-6.23999-4.81-15.41998-.22998-21.82001l.25-.34998c.08997-.13.13995-.26001.16998-.40002,5.67999,1.93005,9.25,6.04004,9.25,11.29004,0,5.29999-3.64001,9.44-9.40997,11.34998Z"/></g></g></g></svg>