<?xml version="1.0" encoding="UTF-8"?><svg xmlns="http://www.w3.org/2000/svg" version="1.1" viewBox="0 0 64 64"><g><g id="Ouutline"><path d="M38.6019,31.10739c.02539.01221.05127.02344.07764.03369,3.82959,1.4707,8.12598.30615,10.68945-2.89844l7.48975-9.35986c.31885-.39893.28662-.97363-.0752-1.3335l-2.12988-2.12012c-.39209-.39014-1.02393-.38916-1.41309.00195l-8.47949,8.48926c-.37695.37695-1.03906.37695-1.41602,0l-.70801-.70801,9.19385-9.19336c.39062-.39062.39062-1.02344,0-1.41406s-1.02344-.39062-1.41406,0l-9.19385,9.19336-.70801-.70801c-.39014-.39014-.39014-1.02539-.00049-1.41504l8.49023-8.47998c.39062-.38965.39111-1.02197.00244-1.41309l-2.12012-2.13037c-.35986-.36133-.93457-.39502-1.33398-.0752l-9.35938,7.49023c-3.20557,2.56396-4.37061,6.85986-2.89941,10.68945.00977.02539.02148.05127.03369.07617.12744.39551.0376.79102-.25488,1.03809l-2.79108,2.48401s-1.5816-1.82074-1.58197-1.82141L11.41,7.332c-.2373-.27637-.60498-.40088-.96191-.3291-.35693.07373-.64551.33594-.75293.68359-1.85059,5.97461-.5166,12.36865,3.56348,17.09717l7.86133,9.27197c.17236.20361.41895.32959.68506.35059.02588.00195.05176.00293.07764.00293.23877,0,.47119-.08545.65332-.24268l2.22791-1.92188.92578,1.20343-17.16587,15.2736c-2.00876,1.78733-2.16747,4.99847-.25306,6.913,1.87026,1.87039,5.15844,1.78758,6.88878-.22548l15.02124-16.1228,12.4519,16.18725c.73531.9559,1.89909,1.54347,3.10694,1.54347.93206,0,1.84557-.3354,2.556-.94811,1.59473-1.37537,1.77138-3.92662.40396-5.51185l-14.0025-16.11981,2.87994-3.0882c.2832-.33057.70264-.34424,1.0249-.2417ZM21.99301,31.99314l-7.21436-8.50928c-3.21826-3.72949-4.51611-8.6167-3.62598-13.37646,0,0,15.38013,17.96942,15.38006,17.96948-.7582.65406-3.78463,3.26497-4.53973,3.91627ZM13.67026,54.07517c-.98678,1.14546-2.90805,1.22119-3.98522.14564-1.11241-1.11073-1.01958-2.97653.15758-3.99623l17.0694-15.1875,2.03271,2.64252-15.27448,16.39557ZM47.18735,51.86618c.67801.78062.58007,2.01674-.19791,2.68771-.8229.7097-2.11625.56266-2.76791-.29513l-17.94086-23.32263,1.55823-1.34418s19.30679,22.22627,19.34845,22.27423ZM33.37814,32.91892l-1.7843-2.05414,2.78931-2.48297c.93457-.78857,1.25146-2.12793.78857-3.33301-.01172-.02979-.02539-.05957-.04004-.08936-1.11182-2.99268-.18896-6.33105,2.31152-8.33105l8.65918-6.92969.78271.78711-7.78418,7.7749c-.56592.56592-.87793,1.31934-.87793,2.12158,0,.80273.31201,1.55615.87793,2.12207l2.82959,2.83008c1.13232,1.13281,3.11084,1.1333,4.24512-.00049l7.77441-7.7832.78662.78271-6.9292,8.65967c-1.99951,2.49902-5.33594,3.42285-8.32861,2.31201-.02979-.01514-.06006-.02881-.09131-.04053-1.21289-.46729-2.51904-.15967-3.30078.75098l-2.70862,2.90332Z"/></g></g></svg>