<?xml version="1.0" encoding="UTF-8"?><svg xmlns="http://www.w3.org/2000/svg" version="1.1" viewBox="0 0 64 64"><g><g id="Ouutline"><path d="M49,14.99949h-27.13l-5.03998-7.54999c-.29999-.46002-.92999-.59003-1.38-.28003-.46002.29999-.59003.92999-.28003,1.38l4.29999,6.45001h-4.46997c-.54999,0-1,.45001-1,1v5c0,5.19,3.97998,9.47998,9.04999,9.95996.33002,3.11005,2.26001,5.76001,4.95001,7.10004v12.94h-1c-2.76001,0-5,2.23999-5,5,0,.54999.45001,1,1,1h18c.54999,0,1-.45001,1-1,0-2.76001-2.23999-5-5-5h-1v-12.94c2.69-1.34003,4.62-3.98999,4.95001-7.10004,5.07001-.47998,9.04999-4.76996,9.04999-9.95996v-5c0-.54999-.45001-1-1-1ZM16,16.99949h4.79999l1.33002,2h-6.13v-2ZM37,52.99949c1.29999,0,2.41998.83997,2.83002,2h-15.66003c.41003-1.16003,1.53003-2,2.83002-2h10ZM30,50.99949v-12.23004c.64001.14001,1.31.23004,2,.23004s1.35999-.09003,2-.23004v12.23004h-4ZM40,28.99949c-.54999,0-1,.45001-1,1,0,3.85999-3.14001,7-7,7s-7-3.14001-7-7c0-.54999-.45001-1-1-1-4.40997,0-8-3.59003-8-8h7.46997l2.14001,3.20996c-.38.5-.60999,1.12-.60999,1.79004,0,1.64996,1.34998,3,3,3s3-1.35004,3-3-1.34998-3-3-3c-.25,0-.48999.03998-.72998.09998l-1.40002-2.09998h22.13c0,4.40997-3.59003,8-8,8ZM27,25.99949c0-.54999.45001-1,1-1s1,.45001,1,1-.45001,1-1,1-1-.45001-1-1ZM48,18.99949h-23.46002l-1.33997-2h24.79999v2Z"/></g></g></svg>