<?xml version="1.0" encoding="UTF-8"?><svg xmlns="http://www.w3.org/2000/svg" version="1.1" viewBox="0 0 64 64"><g><g id="Ouutline"><g><path d="M45.43555,17.15015l-2.65723,2.65723c-.37207.37207-.8877.58594-1.41406.58594-2.20605,0-4,1.79395-4,4v2.48535c0,1.10254-.89746,2-2,2h-2.48535c-2.20605,0-4,1.79395-4,4v2.48535c0,1.10254-.89746,2-2,2h-2.48535c-2.20606,0-4,1.79395-4,4,0,.52637-.21387,1.04199-.58594,1.41406l-2.65723,2.65723c-.39062.39062-.39062,1.02344.00003,1.41409.38694.38691,1.0261.3879,1.41404-.00003l2.65723-2.65723c.74512-.74414,1.17188-1.77539,1.17188-2.82812,0-1.10254.89746-2,2-2h2.48535c2.20605,0,4-1.79395,4-4v-2.48535c0-1.10254.89746-2,2-2h2.48535c2.20605,0,4-1.79395,4-4v-2.48535c0-1.10254.89746-2,2-2,1.05273,0,2.08398-.42676,2.82812-1.17188l2.65723-2.65723c.39062-.39062.39062-1.02344,0-1.41406s-1.02344-.39062-1.41406,0Z"/><path d="M54.77832,23.36401l-2.12158-2.12158.55615-.55615c1.32227-1.32227,2.05078-3.08008,2.05078-4.9502s-.72852-3.62793-2.05078-4.94922c-1.32129-1.32227-3.0791-2.05078-4.94922-2.05078s-3.62793.72852-4.9502,2.05078l-.55615.55615-2.12158-2.12158c-2.72754-2.72754-7.16992-2.72949-9.89941,0L9.22168,30.73608c-2.72852,2.72949-2.72852,7.1709,0,9.89941l2.12158,2.12158-.55615.55615c-1.32227,1.32227-2.05078,3.08008-2.05078,4.9502,0,1.86914.72852,3.62695,2.05078,4.94922s3.08008,2.05078,4.94922,2.05078c1.87012,0,3.62793-.72852,4.9502-2.05078l.55615-.55615,2.12158,2.12158c1.36426,1.36426,3.15625,2.04688,4.94922,2.04688,1.79199,0,3.58594-.68262,4.9502-2.04688l21.51465-21.51465c2.72852-2.72949,2.72852-7.1709,0-9.89941ZM10.63574,39.22144c-1.94922-1.94922-1.94922-5.12109,0-7.07129l21.51465-21.51465c1.94922-1.94922,5.12207-1.94922,7.07129,0l2.12158,2.12158-1.56494,1.56494c-1.56055-1.56055-4.09766-1.55957-5.6582.00098-.34375.34473-.61719.74609-.8125,1.18457-1.40918-.48828-3.03223-.16797-4.13574.93555-.85938.85938-1.26074,2.0625-1.13867,3.24414-.63379.18555-1.21777.52637-1.69141,1-.4248.42578-.74219.93457-.93652,1.49023-1.0625-.15137-2.16309.19531-2.95117.9834-.51465.51465-.8457,1.16113-.9668,1.86133-.69922.12109-1.34668.45215-1.86133.9668-.74316.74316-1.0957,1.77344-1.00391,2.78906-.41602.17285-.79688.42578-1.11816.74707-.12207.12207-.23535.25293-.33691.39258-.00977-.00098-.01953-.00098-.03027-.00098-.91406,0-1.79688.3584-2.46094,1.02246-1.25195,1.25195-1.35547,3.22461-.30957,4.5957-.94501,1.23975-.94226,2.96466-.01117,4.21039l-1.59772,1.59772-2.12158-2.12158ZM15.80786,38.29248c-.26282-.5567-.1781-1.23676.28003-1.69409.07129-.07227.16211-.1416.28516-.2207.28906-.18359.46387-.50293.46289-.84473-.00098-.34277-.17676-.66113-.46582-.84375-.12012-.0752-.20898-.14355-.28027-.21484-.58496-.58496-.58496-1.53613,0-2.12012.36426-.36426.88477-.51367,1.38965-.39844.47656.11133.94629-.13477,1.13965-.5752.07227-.16699.17383-.31543.29883-.44141.25488-.25488.60352-.4082.97949-.43066.33008-.01953.62891-.20117.79883-.48438.16992-.28418.18848-.63281.04883-.93359-.2627-.56934-.14453-1.24805.29492-1.6875.33301-.33203.80176-.48145,1.28125-.41602.31738.04785.62402-.06055.84668-.28223.22168-.22266.32715-.53516.2832-.8457-.06738-.4834.08496-.95215.41699-1.28418.47461-.47559,1.2207-.56836,1.81543-.22852.30664.17773.6875.17773.99414,0,.30859-.17578.5-.50293.50293-.8584.00488-.52734.20996-1.02051.57617-1.3877.3877-.3877.92871-.59668,1.48438-.57129.35156.02637.67871-.15137.87305-.43945.19434-.28906.22559-.6582.08105-.97461-.35547-.77832-.20215-1.66504.39062-2.25781.7334-.73535,1.92871-.76855,2.72461-.0791.28906.25195.69824.31445,1.05273.16309.35254-.15234.58691-.49414.60156-.87891.02051-.50684.22265-.97754.57031-1.32617.78027-.77832,2.04883-.78125,2.82715-.00098.00049.00049.00085.0011.00134.00159l-22.55579,22.55579ZM15.73633,53.26343c-1.33496,0-2.59082-.52051-3.53516-1.46484s-1.46484-2.2002-1.46484-3.53516c0-1.33594.52051-2.5918,1.46484-3.53613l28.17712-28.17712.0022-.0022,4.34705-4.34705c.94434-.94434,2.2002-1.46484,3.53613-1.46484,1.33496,0,2.59082.52051,3.53516,1.46484s1.46484,2.2002,1.46484,3.53516c0,1.33594-.52051,2.5918-1.46484,3.53613L19.27246,51.79858c-.94434.94434-2.2002,1.46484-3.53613,1.46484ZM48.26465,28.46362c-.34961.34863-.82031.55078-1.32715.57129-.38476.01465-.72656.24902-.8789.60156-.15234.35352-.08887.7627.16309,1.05273.68945.79395.6543,1.99121-.0791,2.72461-.59375.59375-1.48242.74707-2.25781.39062-.31836-.14258-.68652-.11328-.97461.08105s-.45508.52539-.43945.87305c.02441.55566-.18359,1.09668-.57031,1.4834-.36816.36719-.86133.57227-1.38867.57715-.35547.00293-.68262.19434-.8584.50293-.17676.30762-.17676.68652,0,.99414.33984.59375.24609,1.34082-.22852,1.81543-.33203.33203-.80469.48535-1.28418.41699-.30859-.04297-.62305.0625-.8457.2832-.22168.22266-.32617.53516-.28223.84668.06738.48145-.08398.94922-.41602,1.28125-.43848.43945-1.11719.55762-1.6875.29492-.30078-.1416-.64844-.12109-.93359.04883-.2832.16992-.46484.46875-.48438.79883-.02246.37598-.17578.72461-.43066.97949-.12598.125-.27441.22656-.44141.29883-.44043.19238-.68262.6709-.5752,1.13965.11523.50586-.03418,1.02539-.39746,1.38965-.58399.58398-1.53711.58398-2.12109,0-.07129-.07129-.13965-.16016-.21484-.28027-.18262-.28906-.50098-.46484-.84375-.46582h-.00195c-.3418,0-.65918.1748-.84277.46289-.0791.12305-.14844.21387-.21777.2832-.46027.45801-1.14081.54395-1.69702.28198l22.5564-22.5564c.78027.78027.78027,2.04883.00098,2.82812ZM53.36426,31.84937l-21.51465,21.51465c-1.94922,1.94922-5.12207,1.94922-7.07129,0l-2.12158-2.12158,1.59772-1.59772c1.24469.93011,2.96808.93292,4.21039-.01117.62305.47559,1.37207.71387,2.12109.71387.89648,0,1.79297-.3418,2.47559-1.02344.66992-.67188,1.0293-1.56641,1.02051-2.49121.13965-.10156.27051-.21484.39258-.33691.32129-.32129.57422-.70215.74707-1.11816,1.01367.09277,2.0459-.26074,2.78906-1.00391.51465-.51465.8457-1.16211.9668-1.86133.69922-.12109,1.34668-.45215,1.86133-.9668.78711-.78711,1.12988-1.8877.9834-2.95117.55664-.19434,1.06445-.51172,1.49121-.9375.47266-.47266.81348-1.05664.99902-1.69043,1.17969.11426,2.38575-.2793,3.24415-1.13867,1.10449-1.10449,1.42383-2.72656.93555-4.13574.43848-.19531.84082-.46875,1.18555-.81348,1.55908-1.55908,1.55945-4.09595.00037-5.65759l1.56458-1.56458,2.12158,2.12158c1.94922,1.94922,1.94922,5.12109,0,7.07129Z"/></g></g></g></svg>