<?xml version="1.0" encoding="UTF-8"?><svg xmlns="http://www.w3.org/2000/svg" version="1.1" viewBox="0 0 64 64"><g><g id="Ouutline"><g><path d="M46.13,19.89001c-.56-.57001-1.32001-.89001-2.13-.89001,0-6.62-5.38-12-12-12s-12,5.38-12,12c-1.65002,0-3,1.34998-3,3,0,.81.32001,1.57001.87,2.10999.39001.39001.85999.65002,1.39001.78998l10.87,30.80005c.28998.78998,1.02997,1.29999,1.87,1.29999s1.58002-.51001,1.88-1.32001l10.85999-30.78003c1.29999-.33997,2.26001-1.5,2.26001-2.89996,0-.81-.32001-1.57001-.87-2.10999ZM32,9c5.51001,0,10,4.48999,10,10h-4c-.54999,0-1,.45001-1,1v8c0,.54999-.45001,1-1,1s-1-.45001-1-1v-1c0-1.65002-1.34998-3-3-3s-3,1.34998-3,3v3c0,.54999-.45001,1-1,1s-1-.45001-1-1v-10c0-.54999-.45001-1-1-1h-4c0-5.51001,4.48999-10,10-10ZM19.28449,22.69487c-.49144-.55998-.25792-1.69485.71551-1.69487h5v2h-4.99989c-.31595,0-.55467-.12173-.71562-.30513ZM32.01001,55.01996l-3.03003-8.57996.19-.20001c1.91003-1.90002,4.39001-3.02002,7.06-3.20001l-4.21997,11.97998ZM36.95001,41c-3.25.01996-6.29999,1.21997-8.70001,3.38l-.83002-2.35004c2.17004-1.95001,4.92999-3.02997,7.87-3.02997h2.36005l-.70001,2ZM38.35999,37h-3.07001c-3.15997,0-6.14996,1.06-8.57996,3.01001l-5.30005-15.01001h3.59003v5c0,1.64996,1.34998,3,3,3s3-1.35004,3-3v-3c0-.54999.45001-1,1-1s1,.45001,1,1v1c0,1.64996,1.34998,3,3,3s3-1.35004,3-3v-3h3.59003l-4.23004,12ZM44,23h-5v-2h4.99999c.54449,0,1.00001.45877,1.00001,1,0,.54999-.45001,1-1,1Z"/><circle cx="35" cy="13" r="1"/><circle cx="38" cy="16" r="1"/><circle cx="33" cy="16" r="1"/></g></g></g></svg>