<?xml version="1.0" encoding="UTF-8"?><svg xmlns="http://www.w3.org/2000/svg" version="1.1" viewBox="0 0 64 64"><g><g id="Ouutline"><g><path d="M40.5,44.61523v-12.61523c0-.55273-.44775-1-1-1h-18c-.55225,0-1,.44727-1,1v12.61523c0,2.48926-.8042,4.83008-2.32568,6.76758-.23633.30078-.28027.70996-.11279,1.05469.16748.34375.5166.5625.89941.5625h23.07812c.38281,0,.73193-.21875.89941-.5625.16748-.34473.12354-.75391-.11279-1.05469-1.52148-1.9375-2.32568-4.27832-2.32568-6.76758ZM20.82764,51c1.0874-1.93164,1.67236-4.14062,1.67236-6.38477v-11.61523h16v11.61523c0,2.24414.58496,4.45312,1.67236,6.38477h-19.34473Z"/><path d="M51.5,26h-7v-1.10004c2.28003-.46997,4-2.48999,4-4.89996,0-1.13-.39001-2.23004-1.09003-3.10999.06-.31006.09003-.61005.09003-.89001,0-2.89001-2.46997-5.26001-5.40997-4.98004-.78003-1.79999-2.58002-3.01996-4.59003-3.01996-.83002,0-1.63.20996-2.34998.59998-.94-1.01001-2.26001-1.59998-3.65002-1.59998s-2.71002.58997-3.65002,1.59998c-1.44-.78998-3.25995-.78998-4.69995,0-.94-1.01001-2.26001-1.59998-3.65002-1.59998-2.76001,0-5,2.23999-5,5,0,.14001.01001.26996.02002.40997-1.80005.78003-3.02002,2.58002-3.02002,4.59003,0,2.32001,1.59003,4.32001,3.83002,4.84998.35999.29999.75.52002,1.16998.70001v22.06c0,2.85999-1.71997,5.40002-4.37,6.46002-.38.14996-.63.51996-.63.92999v4c0,.54999.45001,1,1,1h36c.54999,0,1-.45001,1-1v-4c0-.41003-.25-.78003-.63-.92999-1.28998-.51001-2.39001-1.40002-3.16998-2.56-.52002-.77002-.85999-1.62-1.04004-2.51001h6.84003c.54999,0,1-.45001,1-1v-18c0-.54999-.45001-1-1-1ZM16.46997,20.19c-.13995-.12-.31995-.21002-.5-.23999-1.42999-.26001-2.46997-1.5-2.46997-2.95001,0-1.41003,1-2.64001,2.38-2.92999.27002-.06.5-.23004.65002-.46002.13995-.23999.17999-.53003.09998-.79999-.09003-.31-.13-.57001-.13-.81,0-1.65002,1.34998-3,3-3,1.06,0,2.02002.54999,2.56,1.46997.15002.25.40002.42999.69.48004.28998.03998.59003-.03003.81-.23004.40002-.32996,1.04999-.71997,1.94-.71997s1.53998.39001,1.94.71997c.21997.20001.52002.27002.81.23004.28998-.05005.53998-.23004.69-.48004.53998-.91998,1.5-1.46997,2.56-1.46997s2.02002.54999,2.56,1.46997c.15002.25.40002.42999.69.48004.28998.03998.59003-.03003.81-.23004.40002-.32996,1.04999-.71997,1.94-.71997,1.40997,0,2.64001,1,2.92999,2.38.06.26996.22998.5.46002.64996.23999.14001.52997.17999.78998.10004.32001-.09003.58002-.13.82001-.13,1.65002,0,3,1.34998,3,3,0,.26001-.04999.52997-.15002.88-.09998.34998-.00995.72998.26001.98999.57001.57001.89001,1.33002.89001,2.13,0,1.64996-1.34998,3-3,3-1.05997,0-2.01996-.54996-2.55995-1.46995-.30701-.52306-1.04109-.65799-1.50005-.25008-.40002.33002-1.04999.72003-1.94.72003-.47998,0-.96002-.13-1.41998-.38-.42999-.22998-.96002-.12-1.26001.25-.57001.71997-1.41998,1.13-2.32001,1.13-1.08002,0-2.09003-.60999-2.62-1.58002-.34998-.64001-1.41003-.64001-1.76001,0-.52997.97003-1.53998,1.58002-2.62,1.58002-1.5,0-2.73999-1.09003-2.95001-2.59003-.04999-.39001-.33002-.70996-.70996-.82001-.38-.10999-.79004.01001-1.05005.32001-.57996.69-1.41998,1.09003-2.28998,1.09003-.95001,0-1.63-.44-2.03003-.81ZM44.5,32h2v8h-2v-8ZM47.5,52.64996v2.35004H13.5v-2.35004c3.06-1.5,5-4.58997,5-8.03998v-21.65002c.90002,0,1.79999-.21997,2.57001-.69.83002,1.63,2.52997,2.73004,4.42999,2.73004,1.32001,0,2.58002-.54004,3.5-1.45001.91998.90997,2.17999,1.45001,3.5,1.45001,1.25,0,2.42999-.46002,3.34003-1.29999,1.32996.48999,2.79999.35999,4.00995-.30005.71002.76001,1.64001,1.28003,2.65002,1.49005v20.10999c0,.07996.03003.14996.04999.22998.10004,1.57001.60004,3.08002,1.48999,4.40002.88,1.29999,2.07001,2.33997,3.46002,3.01996ZM50.5,44h-6v-2h3c.54999,0,1-.45001,1-1v-10c0-.54999-.45001-1-1-1h-3v-2h6v16Z"/></g></g></g></svg>