<?xml version="1.0" encoding="UTF-8"?><svg xmlns="http://www.w3.org/2000/svg" version="1.1" viewBox="0 0 64 64"><g><g id="Ouutline"><g><path d="M56.13,32.89001c-.56-.57001-1.32001-.89001-2.13-.89001h-19.31l6.76001-12.86999c1.25958-2.39803.21506-5.46286-2.19996-6.63999-2.45758-1.19788-5.47083-.07074-6.58007,2.40995l-6.03998,13.67999c-.91003-.96997-2.20001-1.57996-3.63-1.57996-.46002,0-.91998.06-1.35999.19-.72003-1.88-2.54004-3.19-4.64001-3.19-2.56,0-4.67999,1.92999-4.96997,4.41998-1.56006.65997-2.67004,2.08002-2.95001,3.73999-1.20001.39001-2.08002,1.51001-2.08002,2.84003,0,.81.32001,1.57001.87,2.10999.56.57001,1.32001.89001,2.13.89001v8c0,4.40997,3.59003,8,8,8h28c4.40997,0,8-3.59003,8-8v-8c1.65002,0,3-1.35004,3-3,0-.81-.32001-1.57001-.87-2.10999ZM34.5,15.70996c.64598-1.46359,2.44455-2.10719,3.87986-1.42005,1.4392.689,2.03301,2.51467,1.29012,3.92005l-7.22998,13.79004h-4.44c0-.42004-.07001-.82001-.15997-1.20001,0,0,6.6467-15.05995,6.65997-15.09003ZM37,34v11c0,1.09998-.90002,2-2,2s-2-.90002-2-2c0-1.65002-1.34998-3-3-3s-3,1.34998-3,3v2c0,.54999-.45001,1-1,1s-1-.45001-1-1v-4c0-1.65002-1.34998-3-3-3s-3,1.34998-3,3v3c0,.54999-.45001,1-1,1s-1-.45001-1-1v-12h20ZM13.26001,30.10999c.44-.10999.75-.51001.75-.96997,0-.06006-.01001-.12006-.01001-.14001,0-1.65002,1.34998-3,3-3,1.52002,0,2.79999,1.15997,2.96997,2.69.03003.33997.24005.63.55005.78998.29999.15002.65997.13.94995-.03998.49005-.29004,1-.44,1.53003-.44,1.19,0,2.21002.70001,2.69,1.70001l-.57001,1.29999h-13.95001c.33002-.92004,1.10004-1.64001,2.09003-1.89001ZM9.28998,35.69c-.19-.17999-.28998-.42004-.28998-.69,0-.54999.45001-1,1-1h5v2h-5c-.27002,0-.51001-.10004-.71002-.31ZM52,46c0,3.31-2.69,6-6,6h-28c-3.31,0-6-2.69-6-6v-8h3v8c0,1.64996,1.34998,3,3,3s3-1.35004,3-3v-3c0-.54999.45001-1,1-1s1,.45001,1,1v4c0,1.64996,1.34998,3,3,3s3-1.35004,3-3v-2c0-.54999.45001-1,1-1s1,.45001,1,1c0,2.20996,1.78998,4,4,4s4-1.79004,4-4v-7h13v8ZM54,36h-15v-2h15c.27002,0,.51001.09998.71002.31.19.17999.28998.41998.28998.69,0,.54999-.45001,1-1,1Z"/><path d="M36.63763,17.88855c.49738.24011,1.09521.03156,1.33533-.46582s.03156-1.09521-.46582-1.33533c-.49738-.24005-1.09515-.03156-1.33527.46582s-.03156,1.09521.46576,1.33533Z"/><path d="M44.19824,15.89063c.52683,1.17624,2.35596.36737,1.82617-.81836l-.31287-.69824c.03986.01233.07245.03748.11462.04492,5.40137.95117,9.17383,3.45215,9.17383,6.08105,0,3.52344-6.41113,6.5-14,6.5-.55273,0-1,.44727-1,1s.44727,1,1,1c8.97168,0,16-3.7334,16-8.5,0-3.73242-4.25-6.8916-10.82617-8.0498-.0741-.01318-.14301.00189-.2146.00464l.7478-.7478c.39062-.39062.39062-1.02344,0-1.41406s-1.02344-.39062-1.41406,0l-2,2c-.29297.29297-.375.7373-.20605,1.11621,0,0,1.10637,2.47037,1.11133,2.48145Z"/></g></g></g></svg>