<?xml version="1.0" encoding="UTF-8"?><svg xmlns="http://www.w3.org/2000/svg" version="1.1" viewBox="0 0 64 64"><g><g id="Ouutline"><g><path d="M36.91694,13.00011c.55225,0,1-.44775,1-1s-.44775-1-1-1c-6.90137,0-13.10352,3.05615-17.32275,7.88574-3.53508,4.04484-5.6796,9.33327-5.68213,15.11341-.00024.5388.46933,1.00085,1.00488,1.00085.55225,0,1-.44775,1-1,0-5.44678,2.08447-10.41602,5.49756-14.15137,3.84375-4.20605,9.37109-6.84863,15.50244-6.84863Z"/><path d="M37.91694,22.00011c0-1.6543-1.3457-3-3-3s-3,1.3457-3,3,1.3457,3,3,3,3-1.3457,3-3ZM34.91694,23.00011c-.55127,0-1-.44873-1-1s.44873-1,1-1,1,.44873,1,1-.44873,1-1,1Z"/><path d="M30.91694,32.00011c1.6543,0,3-1.3457,3-3s-1.3457-3-3-3-3,1.3457-3,3,1.3457,3,3,3ZM30.91694,28.00011c.55127,0,1,.44873,1,1s-.44873,1-1,1-1-.44873-1-1,.44873-1,1-1Z"/><path d="M29.62397,35.70714c.39062-.39062.39062-1.02344,0-1.41406-1.49219-1.49316-3.92188-1.49316-5.41406,0-.39062.39062-.39062,1.02344,0,1.41406s1.02344.39062,1.41406,0c.71289-.71289,1.87303-.71289,2.58592-.00001.37016.37015,1.01861.39547,1.41408.00001Z"/><path d="M24.91694,30.00011c.55225,0,1-.44775,1-1v-2c0-.55225-.44775-1-1-1s-1,.44775-1,1v2c0,.55225.44775,1,1,1Z"/><path d="M53.79194,45.2545l-13.80792-29.33533c1.16766-.91614,1.93292-2.32343,1.93292-3.91907,0-2.75684-2.24316-5-5-5-14.8877,0-27,12.1123-27,27,0,2.75684,2.24316,5,5,5,1.09619,0,2.10248-.36511,2.92749-.9657l6.40405,2.24939c.3999.14062.66846.51953.66846.94336v8.77294c0,1.72985,1.54394,3.1358,3.26123,2.98927,1.53564-.13037,2.73877-1.49268,2.73877-3.10156v-.88768c0-.58196.51646-1.04787,1.09229-.9961.50049.04248.90771.53955.90771,1.1084v4.88769c0,1.73315,1.53512,3.1358,3.26123,2.98926,1.53564-.13037,2.73877-1.49268,2.73877-3.10156v-.8877c0-.2666.10205-.51318.30615-.7124.20312-.2085.4751-.31445.78613-.28369.50049.04248.90771.53955.90771,1.1084v.8877c0,.81051.31687,1.56536.87346,2.10784,1.94266,1.89338,5.12654.44443,5.12654-2.22014v-4.22363c0-.32861.15381-.62598.42188-.81592.26758-.18945.59912-.2373.91016-.12744l1.83154.64453c1.16797.40137,2.40088.08301,3.22461-.83301.8208-.91211,1.00732-2.16797.48682-3.27783ZM45.3982,32.11754c-.69928.55872-1.56879.88257-2.48126.88257-2.20557,0-4-1.79443-4-4,0-1.92194,1.35413-3.52069,3.17816-3.89996l3.3031,7.0174ZM11.91694,34.00011c0-13.78516,11.21484-25,25-25,1.6543,0,3,1.3457,3,3s-1.3457,3-3,3c-10.47656,0-19,8.52344-19,19,0,1.6543-1.3457,3-3,3s-3-1.3457-3-3ZM51.8183,47.19493c-.10547.11719-.49365.48389-1.0791.28174l-1.82666-.64258c-.91553-.32227-1.93652-.17969-2.72998.38232-.79248.56104-1.26562,1.47656-1.26562,2.44775v4.22363c0,.56869-.407,1.06564-.90681,1.10836-.57601.04924-1.09319-.41749-1.09319-.99606v-.8877c0-1.60889-1.20312-2.97119-2.73926-3.10156-.8999-.07812-1.76807.24561-2.36914.86328-.57471.56055-.8916,1.31543-.8916,2.12598v.8877c0,.56871-.40703,1.06567-.90686,1.10837-.57759.04934-1.09314-.41555-1.09314-.99606v-4.8877c0-1.60886-1.20308-2.97114-2.73917-3.10155-1.72334-.14631-3.26083,1.2606-3.26083,2.98925v.8877c0,.56864-.40694,1.06556-.90669,1.10835-.56379.04827-1.09331-.43026-1.09331-.99605v-8.77295c0-1.27148-.80615-2.40918-2.00586-2.83008l-5.64337-1.9823c.40094-.71912.64923-1.53461.64923-2.41467,0-9.37402,7.62598-17,17-17,.44434,0,.86743-.0769,1.27783-.18622l3.03046,6.43817c-2.50201.72998-4.30829,3.02716-4.30829,5.74805,0,3.30859,2.69141,6,6,6,1.20703,0,2.37207-.37,3.35242-1.03174l5.71252,12.13623c.25977.5542-.05957.97461-.16357,1.09033Z"/><path d="M44.91694,42.00011c-1.6543,0-3,1.3457-3,3,0,.55127-.44873,1-1,1s-1-.44873-1-1c0-1.6543-1.3457-3-3-3-.55225,0-1,.44775-1,1s.44775,1,1,1c.55127,0,1,.44873,1,1,0,1.6543,1.3457,3,3,3s3-1.3457,3-3c0-.55127.44873-1,1-1,.55225,0,1-.44775,1-1s-.44775-1-1-1Z"/><path d="M33.91694,38.00011c-.55225,0-1,.44775-1,1v2c0,.55127-.44873,1-1,1s-1-.44873-1-1v-2c0-.55225-.44775-1-1-1s-1,.44775-1,1v2c0,1.6543,1.3457,3,3,3s3-1.3457,3-3v-2c0-.55225-.44775-1-1-1Z"/><path d="M40.91694,42.00011c1.6543,0,3-1.3457,3-3s-1.3457-3-3-3-3,1.3457-3,3,1.3457,3,3,3ZM40.91694,38.00011c.55127,0,1,.44873,1,1s-.44873,1-1,1-1-.44873-1-1,.44873-1,1-1Z"/></g></g></g></svg>