<?xml version="1.0" encoding="UTF-8"?><svg xmlns="http://www.w3.org/2000/svg" version="1.1" viewBox="0 0 64 64"><g><g id="Ouutline"><g><path d="M56.13,31.89052c-.56-.57001-1.32001-.89001-2.13-.89001h-.58002c.20001-.47003.35004-.97003.42999-1.48999.39001-2.61005-.97998-5.10004-3.27997-6.23004.15997-.40997.27002-.83997.33997-1.27997.47003-3.26999-1.80996-6.31995-5.06986-6.79998-3.21966-.4741-6.34287,1.85015-6.81008,5.05998-.07001.44-.08002.88995-.04004,1.32996-1.39996.23999-2.65997.98004-3.56,2.05005-1.77997-2.79004-4.89001-4.64001-8.42999-4.64001-2.28003,0-4.38.77997-6.06,2.07001-.32001-.03003-.63-.07001-.94-.07001-5.51001,0-10,4.48999-10,10-1.65002,0-3,1.34998-3,3,0,.81.32001,1.57001.87,2.10999.56.57001,1.32001.89001,2.13.89001v8c0,4.07001,3.06,7.44,7,7.92999v3.07001c0,.54999.45001,1,1,1h28c.54999,0,1-.45001,1-1v-3.07001c3.94-.48999,7-3.85999,7-7.92999v-8c1.65002,0,3-1.35004,3-3,0-.81-.32001-1.57001-.87-2.10999ZM40.14001,23.51052c.31.01996.62-.13.82001-.39001.19995-.25.25995-.58002.16998-.89001-.16002-.55995-.20001-1.1299-.12002-1.66984.3161-2.13369,2.36474-3.68802,4.54-3.38015,2.16998.32001,3.69,2.35999,3.38,4.52997-.08002.55005-.28998,1.08002-.59998,1.57001-.17004.27002-.21002.61005-.09003.90002.12.29999.37.52997.67999.60999,1.98004.52002,3.25,2.41998,2.95001,4.42999-.08997.65002-.34998,1.26001-.73999,1.78003h-6.84998l1.62994-9.77002c.09003-.53998-.27997-1.06-.82996-1.15002-.54004-.08997-1.06.28003-1.15002.83002l-1.67999,10.09003h-5.46002c.13-.65002.21002-1.32001.21002-2,0-1.15002-.21002-2.26001-.57001-3.29004.69-1.37,2.15002-2.22998,3.71002-2.19995ZM21.84003,22.90047l.02997-.02997c1.39001-1.16003,3.17999-1.87,5.13-1.87,4.40997,0,8,3.58997,8,8,0,.67999-.09003,1.34998-.26001,2h-2.08997c.22998-.63.34998-1.31.34998-2,0-3.31-2.69-6-6-6s-6,2.69-6,6c0,.69.12,1.37.34998,2h-2.08997c-.16998-.65002-.26001-1.32001-.26001-2,0-2.45001,1.10999-4.63,2.84003-6.10004ZM23,39.00051c-1.65002,0-3,1.34998-3,3v1c0,.54999-.45001,1-1,1s-1-.45001-1-1v-10h10v13c0,.54999-.45001,1-1,1s-1-.45001-1-1v-4c0-1.65002-1.34998-3-3-3ZM23.53998,31.00051c-.34998-.60004-.53998-1.28003-.53998-2,0-2.21002,1.78998-4,4-4s4,1.78998,4,4c0,.71997-.19,1.39996-.53998,2h-6.92004ZM18.96002,23.08046c-1.22003,1.66003-1.96002,3.70001-1.96002,5.92004,0,.67999.08002,1.34998.21002,2h-5.21002c0-4.06,3.03998-7.41003,6.96002-7.92004ZM9.29512,34.68583c-.17801-.18119-.29512-.42436-.29512-.68533,0-.54999.45001-1,1-1h6v2h-5.99988c-.25881,0-.51617-.12247-.705-.31467ZM45,55.00051h-26v-2h26v2ZM52,45.00051c0,3.31-2.69,6-6,6h-28c-3.31,0-6-2.69-6-6v-8h4v6c0,1.64996,1.34998,3,3,3s3-1.35004,3-3v-1c0-.54999.45001-1,1-1s1,.45001,1,1v4c0,1.64996,1.34998,3,3,3s3-1.35004,3-3v-9h22v8ZM54,35.00051h-24v-2h23.99932c.53447,0,1.00068.46934,1.00068,1,0,.54999-.45001,1-1,1Z"/><path d="M12.40723,15.84523c1.58063.86037,3.56251,1.08663,5.32813.56641,1.79297-.5293,3.27344-1.72461,4.16699-3.36621.89453-1.64258,1.0957-3.53418.56641-5.32812-.15527-.52734-.70508-.83496-1.24219-.67578l-11.50977,3.39453c-.25391.0752-.46777.24805-.59473.48047-.12695.2334-.15625.50684-.08105.76172.52832,1.79296,1.7246,3.27342,3.36621,4.16699ZM20.73828,9.27101c.08496.96973-.11621,1.94336-.5918,2.81738-.63867,1.17285-1.69629,2.02734-2.97754,2.40527-1.28027.37793-2.63379.23438-3.80469-.4043-.875-.47656-1.57227-1.18555-2.02734-2.0459l9.40137-2.77246Z"/><path d="M30,17.00051c2.20605,0,4-1.79395,4-4s-1.79395-4-4-4-4,1.79395-4,4,1.79395,4,4,4ZM30,11.00051c1.10254,0,2,.89746,2,2s-.89746,2-2,2-2-.89746-2-2,.89746-2,2-2Z"/></g></g></g></svg>