<?xml version="1.0" encoding="UTF-8"?><svg xmlns="http://www.w3.org/2000/svg" version="1.1" viewBox="0 0 64 64"><g><g id="Ouutline"><g><path d="M48.55767,17.54562l-1.18457-.81934c-3.01758-2.08203-6.75977-2.66992-10.26953-1.61523-1.99805.60156-4.10059.56543-6.07715-.10254l-7.53906-2.54688c-5.17969-1.75195-10.96777.17188-14.07324,4.6709-3.33984,4.83984-2.77832,11.40234,1.33398,15.60547l13.44141,13.73242c3.59961,3.67676,8.46777,5.70996,13.55957,5.70996.54297,0,1.08984-.02344,1.63672-.07031,5.67383-.48535,10.7832-3.45117,14.01758-8.1377,5.94922-8.62305,3.77539-20.47852-4.8457-26.42676ZM51.75689,42.83566c-2.89355,4.19336-7.46484,6.84766-12.54102,7.28223-5.08398.42676-10.0332-1.40527-13.59668-5.0459l-13.44141-13.73242c-3.44531-3.52051-3.91504-9.01758-1.11719-13.07031,1.95703-2.83691,5.18652-4.4502,8.51367-4.4502,1.09473,0,2.19922.1748,3.27246.53711l7.53906,2.54688c2.37402.80176,4.89453.84473,7.29395.12402,2.92188-.88184,6.04297-.38965,8.55664,1.3457l1.18457.81836c3.7373,2.57812,6.24609,6.45801,7.06543,10.92383.81836,4.46582-.15039,8.9834-2.72949,12.7207Z"/><path d="M51.72075,32.99679h-11.8208c.06592-.32324.10107-.65759.10107-1s-.03516-.67676-.10107-1h11.47119c.30469,0,.59375-.13965.7832-.37793.18945-.23926.25977-.55176.19043-.84863-.84668-3.64453-3.00098-6.81836-6.0625-8.93457l-1.18652-.82422c-1.97852-1.35352-4.41504-1.77539-6.8584-1.06738-.46289.14746-.95801.25098-1.4248.33984-.4707.09082-.81152.50293-.81152.98242v6.83154c-.32324-.06592-.65759-.10107-1-.10107s-.67676.03516-1,.10107v-6.61084c0-.52051-.39941-.9541-.91797-.99707-1.11719-.0918-2.24316-.32422-3.3418-.69043l-7.53809-2.55273c-.86719-.28516-1.75977-.42969-2.65234-.42969-2.74023,0-5.29883,1.34375-6.84082,3.58984-2.2627,3.26172-1.88574,7.69043.89453,10.52734l.73926.75977c.18848.19336.44727.30273.7168.30273h15.0415c-.06592.32324-.10107.65759-.10107,1s.03516.67676.10107,1h-11.12061c-.40234,0-.76562.24121-.92188.6123s-.07422.79883.20703,1.08691l8.78027,8.98145c1.5752,1.60547,3.46289,2.81641,5.61237,3.59866.64437.23734,1.34173-.25689,1.34173-.93948v-9.44092c.32324.06592.65759.10107,1,.10107s.67676-.03516,1-.10107v10.25144c0,.97092,1.02625,1.02933,1.75,1.02933,4.93262,0,9.55371-2.41895,12.36328-6.47266,1.54883-2.24609,2.44922-4.8916,2.60449-7.65039.01562-.27539-.08203-.54395-.27148-.74316-.18848-.2002-.45117-.31348-.72656-.31348ZM38.00103,21.0798c.27441-.06445.54883-.13672.81738-.22168,1.7998-.51953,3.65527-.21582,5.1416.7998l1.18262.82129c2.30469,1.59277,4.01465,3.87598,4.90625,6.51758h-11.07343c-.27905-.36871-.60571-.69537-.97443-.97443v-6.94257ZM15.48247,28.99679l-.44727-.45996c-2.11133-2.15527-2.39844-5.51465-.67969-7.99414,1.17188-1.70605,3.11426-2.72559,5.19531-2.72559.68066,0,1.3623.11133,2.01953.32715l7.53418,2.55176c.9541.31738,1.9248.54688,2.89648.68457v6.64178c-.36871.27905-.69537.60571-.97443.97443h-15.54413ZM32.00103,44.82491c-1.31738-.64746-2.49902-1.50098-3.52539-2.54688l-7.11816-7.28125h9.66913c.27905.36871.60571.69537.97443.97443v8.8537ZM32.00103,31.99679c0-1.6543,1.3457-3,3-3s3,1.3457,3,3-1.3457,3-3,3-3-1.3457-3-3ZM48.4688,40.5671c-2.38672,3.44336-6.28516,5.52734-10.46777,5.60742v-10.20331c.36871-.27905.69537-.60571.97443-.97443h11.64471c-.27539,2.00781-1.01074,3.91602-2.15137,5.57031Z"/></g></g></g></svg>