<?xml version="1.0" encoding="UTF-8"?><svg xmlns="http://www.w3.org/2000/svg" version="1.1" viewBox="0 0 64 64"><g><g id="Ouutline"><g><path d="M19,17c-6.62,0-12,4.03998-12,9v12c0,4.95996,5.38,9,12,9s12-4.04004,12-9v-12c0-4.96002-5.38-9-12-9ZM29,38c0,3.85999-4.48999,7-10,7s-10-3.14001-10-7v-1.04004c2.15002,2.43005,5.83002,4.04004,10,4.04004s7.84998-1.60999,10-4.04004v1.04004ZM29,32c0,3.85999-4.48999,7-10,7s-10-3.14001-10-7v-1.04004c2.15002,2.43005,5.83002,4.04004,10,4.04004s7.84998-1.60999,10-4.04004v1.04004ZM19,33c-5.51001,0-10-3.14001-10-7s4.48999-7,10-7,10,3.14001,10,7-4.48999,7-10,7Z"/><path d="M19,21c-1.01282,0-1.99377.1355-2.9043.37244-.03015.00378-.05829.01447-.08826.02106-2.87689.77374-5.00745,2.59613-5.00745,4.60651,0,2.66357,3.73828,5,8,5s8-2.33643,8-5-3.73828-5-8-5ZM13,26c0-.7793,1.05237-1.79919,2.73102-2.42664.81628,1.56067,1.26898,3.27966,1.26898,5.0365v.18225c-2.40326-.50427-4-1.83136-4-2.79211ZM17.73993,23.07983c.40289-.05164.82391-.07983,1.26007-.07983.6792,0,1.32013.06982,1.91455.18866-.47931,1.85193-.23584,3.78406.68829,5.45514-.77588.21924-1.65155.3562-2.60284.3562v-.39014c0-1.91638-.43695-3.80151-1.26007-5.53003ZM23.45831,27.85956c-.74146-1.22913-.96899-2.67102-.64148-4.05957,1.35669.62842,2.18317,1.50916,2.18317,2.20001,0,.57349-.57281,1.2771-1.54169,1.85956Z"/><path d="M45,17c-6.62,0-12,4.03998-12,9v12c0,4.95996,5.38,9,12,9s12-4.04004,12-9v-12c0-4.96002-5.38-9-12-9ZM55,38c0,3.85999-4.48999,7-10,7s-10-3.14001-10-7v-1.04004c2.15002,2.43005,5.83002,4.04004,10,4.04004s7.84998-1.60999,10-4.04004v1.04004ZM55,32c0,3.85999-4.48999,7-10,7s-10-3.14001-10-7v-1.04004c2.15002,2.43005,5.83002,4.04004,10,4.04004s7.84998-1.60999,10-4.04004v1.04004ZM45,33c-5.51001,0-10-3.14001-10-7s4.48999-7,10-7,10,3.14001,10,7-4.48999,7-10,7Z"/><path d="M45,31c4.26172,0,8-2.33643,8-5,0-2.01013-2.13007-3.8324-5.00641-4.60626-.03082-.00684-.05969-.01782-.0907-.02167-.91016-.23669-1.89056-.37207-2.90289-.37207-4.26172,0-8,2.33643-8,5s3.73828,5,8,5ZM51,26c0,.96075-1.59674,2.28784-4,2.79211v-.18225c0-1.75684.4527-3.47583,1.26898-5.0365,1.67865.62744,2.73102,1.64734,2.73102,2.42664ZM46.26007,23.07983c-.82312,1.72852-1.26007,3.61365-1.26007,5.53003v.39014c-.95135,0-1.82709-.13702-2.60303-.35626.92426-1.67084,1.16779-3.60309.68848-5.45508.59442-.11884,1.23535-.18866,1.91455-.18866.43616,0,.85718.0282,1.26007.07983ZM41.18317,23.79999c.32751,1.38867.09998,2.83063-.6416,4.05945-.96875-.58246-1.54156-1.28601-1.54156-1.85944,0-.69086.82648-1.57159,2.18317-2.20001Z"/></g></g></g></svg>