<?xml version="1.0" encoding="UTF-8"?><svg xmlns="http://www.w3.org/2000/svg" version="1.1" viewBox="0 0 64 64"><g><g id="Ouutline"><g><path d="M11.86426,45.91632c-.54639.08203-.92285.59082-.84082,1.1377.08154.54492.58887.91504,1.13672.84082,13.10352-1.96094,26.58008-1.96094,39.67969,0,.05029.00684.1001.01074.14941.01074.48682,0,.91309-.35645.9873-.85156.08203-.54688-.29443-1.05566-.84082-1.1377-13.29492-1.98828-26.97266-1.98828-40.27148,0Z"/><path d="M57,32.60968c0-3.62-2.02002-6.98004-5.17999-8.73004-.41003-1.70996-1.54999-3.19-3.16998-3.98999.15997-.40997.26996-.82996.33997-1.27997.47998-3.27002-1.79999-6.32001-5.07001-6.79999-1.58997-.23004-3.16998.16998-4.45996,1.12-1.28003.95996-2.12,2.35999-2.35004,3.94995-.06.45001-.07001.89001-.03998,1.32001-.40002.07001-.78003.19-1.15002.34003-1.89996-2.47003-4.78998-3.92999-7.91998-3.92999-4.79999,0-8.91998,3.47998-9.79999,8.07001-.40002-.04004-.79004-.07001-1.20001-.07001-5.51001,0-10,4.48999-10,10,0,2.07001.62,4.02997,1.79999,5.70001-1.15997,2.87994-1.79999,6.01996-1.79999,9.29999v1.64001c0,.87991.38998,1.71991,1.05992,2.28991.64762.55102,1.58712.82828,2.43007.67005l.14001-.02002c14.17999-2.37,28.56-2.37,42.73999,0l.14001.02002c.87.14001,1.75-.09998,2.42999-.66998.66998-.57001,1.06-1.41003,1.06-2.28998v-1.64001c0-3.28003-.64001-6.42004-1.79999-9.29999,1.17999-1.67004,1.79999-3.63,1.79999-5.70001ZM38.21997,20.11969c.32001.02997.62006-.13.82001-.39001.20001-.25.26001-.58002.17004-.89001-.16003-.54999-.20001-1.10999-.12-1.67999.14996-1.04999.70996-1.97998,1.56995-2.62.85004-.64001,1.90002-.90002,2.97003-.75,2.17999.32001,3.70001,2.34998,3.38,4.52997-.08002.56-.29004,1.09003-.60004,1.56-.16998.27002-.20996.61005-.08997.91003.10999.29999.37.52997.67999.60999,1.97998.52002,3.25,2.41998,2.96002,4.41998-.17004,1.15002-.82001,2.14001-1.77002,2.76001-1.64001-1.39001-3.45001-2.57996-5.40997-3.51996l1.20996-7.21002c.09003-.54999-.27997-1.07001-.83002-1.16003-.53998-.08997-1.06.28003-1.14996.83002l-1.12,6.73004c-2.07001-.79004-4.26001-1.31006-6.54999-1.53003.57996-1.57001,2.09998-2.64001,3.87994-2.59998ZM20.03998,23.92969c.34003-4.10004,3.83002-7.32001,7.96002-7.32001,2.41998,0,4.67999,1.08997,6.20001,2.95996-.53003.45001-.97003.98004-1.32001,1.59003-1.09003-1.54999-2.89001-2.54999-4.88-2.54999-3.31,0-6,2.69-6,6,0,.02997.01001.06.01001.08997-.66003.29004-1.31.60004-1.92999.94-.04999-.33997-.08002-.67999-.08002-1.02997,0-.22003.01001-.42999.03998-.67999ZM31.46002,22.61969c-2.57001.06-5.06.5-7.39001,1.28998.33997-1.87,1.96997-3.29999,3.92999-3.29999,1.46002,0,2.77002.79999,3.46002,2.01001ZM17,24.60968c.34003,0,.67999.02997,1.01001.07001,0,.70996.09998,1.38995.25,2.06-3.54999,2.33997-6.46002,5.56-8.44,9.34998-.53003-1.07001-.82001-2.25-.82001-3.47998,0-4.41003,3.59003-8,8-8ZM55,49.24969c0,.29999-.13.56995-.34998.75995-.23004.20001-.52002.27002-.81.23004l-.14001-.03003c-14.40002-2.39996-29-2.39996-43.40002,0l-.14001.03003c-.28998.03998-.57996-.03003-.81-.23004-.21997-.19-.34998-.45996-.34998-.75995v-1.64001c0-12.67999,10.32001-23,23-23s23,10.32001,23,23v1.64001ZM54.17999,36.08966c-1.17999-2.26001-2.70001-4.33002-4.48999-6.13,1.15002-.89001,1.94-2.17999,2.21002-3.64001,1.90997,1.5,3.09998,3.82001,3.09998,6.29004,0,1.22998-.28998,2.40997-.82001,3.47998Z"/></g></g></g></svg>