<svg id="Capa_1" enable-background="new 0 0 512 512" height="512" viewBox="0 0 512 512" width="512" xmlns="http://www.w3.org/2000/svg"><g><path d="m463.359 160.95c-3.998.831-6.687 4.793-5.89 8.819.792 3.998 4.825 6.694 8.82 5.891 3.991-.803 6.704-4.818 5.89-8.82-.815-4.008-4.801-6.678-8.82-5.89z"/><path d="m441.18 198.31c-1.586-3.768-6.017-5.614-9.8-4.05-3.788 1.567-5.6 6.013-4.05 9.79 1.551 3.779 6.017 5.615 9.79 4.06 3.83-1.579 5.544-6 4.06-9.8z"/><path d="m471.42 210.67c-1.522-3.598-5.622-5.476-9.337-4.229-4.058 1.362-6.148 6.023-4.515 9.966 1.562 3.77 6.021 5.62 9.791 4.056 3.802-1.578 5.575-5.999 4.061-9.793z"/><path d="m84.91 76.28c3.994 0 7.371-3.285 7.493-7.273.13-4.262-3.495-7.891-7.763-7.723-3.979.156-7.228 3.499-7.23 7.496-.002 4.079 3.423 7.5 7.5 7.5z"/><path d="m94.96 146.06c-2.881 2.881-2.881 7.73 0 10.61 2.949 2.949 7.905 2.855 10.766-.166 2.812-2.97 2.649-7.821-.336-10.612-2.915-2.725-7.603-2.643-10.43.168z"/><path d="m75.52 105.62c-4.015.752-6.678 4.845-5.89 8.819.795 4.01 4.824 6.673 8.82 5.88 3.993-.792 6.7-4.809 5.89-8.81-.808-3.988-4.805-6.717-8.82-5.889z"/><path d="m102.18 109.87c1.516 3.79 6.057 5.604 9.79 4.05 3.781-1.574 5.614-6.003 4.053-9.788-1.525-3.698-5.817-5.547-9.562-4.147-3.923 1.467-5.872 6.024-4.281 9.885z"/><path d="m493.847 264.446h-1.632c10.005-34.879 16.191-67.766 17.512-93.459 1.783-34.7-5.188-55.514-20.719-61.859-7.275-2.972-15.135-2.071-23.202 1.521 3.06-34.059-18.283-66.944-51.3-77.05-19.103-5.845-39.214-3.177-55.965 5.901-20.292-10.784-43.654-12.481-64.775-4.558-.268.098-.688-.002-1.042-.256-21.528-15.498-52.216-12.167-69.864 7.581-.243.272-.664.494-1.009.329-30.93-14.595-67.889-7.041-90.788 17.147-17.054-34.059-37.095-57.67-57.841-53.816-14.826 2.757-25.257 18.929-31.008 48.067-.802 4.063 1.843 8.008 5.906 8.811 4.065.801 8.009-1.844 8.811-5.906 4.255-21.563 11.192-34.767 19.033-36.224 4.123-.769 19.384.404 42.6 47.611 19.106 38.848 32.184 81.807 40.593 124.196-1.748 2.418-3.349 4.975-4.784 7.662-4.127-2.307-8.542-4.064-13.205-5.221-6.255-1.552-12.708-1.933-19.031-1.197 3.263-4.243 7.448-8.182 12.477-9.863 3.929-1.313 6.049-5.562 4.736-9.49-1.312-3.929-5.564-6.047-9.49-4.736-11.993 4.008-20.178 14.712-24.949 23.021-6.552-6.005-14.554-10.339-23.263-12.499-8.614-2.137-17.423-2.103-25.793-.001-3.761-33.569-4.72-66.691-2.669-94.165.308-4.131-2.791-7.729-6.921-8.038-4.131-.291-7.729 2.79-8.038 6.921-2.206 29.553-1.055 65.324 3.217 101.26-26.707 15.929-30.888 50.41-25.731 78.494-8.858 1.198-15.713 8.789-15.713 17.97v205.73c0 10.011 8.144 18.154 18.153 18.154h365.847c4.143 0 7.5-3.357 7.5-7.5s-3.357-7.5-7.5-7.5h-365.847c-1.738 0-3.153-1.415-3.153-3.154v-57.493h482v57.493c0 1.739-1.415 3.154-3.153 3.154h-79.849c-4.143 0-7.5 3.357-7.5 7.5s3.357 7.5 7.5 7.5h79.849c10.01 0 18.153-8.144 18.153-18.154v-205.73c0-10.011-8.144-18.154-18.153-18.154zm-478.847 151.293v-60.549h482v60.549zm468.334-292.727c15.322 6.261 17.939 57.815-6.729 141.434h-31.877c1.206-26.977-17.279-51.626-44.808-54.951 15.451-26.4 31.579-49.012 46.066-64.486 6.95-7.422 24.945-27.07 37.348-21.997zm-316.908 141.434c-13.127-30.299-1.931-83.261 39.8-80.477-11.621 17.393-14.513 39.702-10.126 59.914.807 3.719 5.221 6.54 8.92 5.738 4.048-.878 6.617-4.872 5.738-8.92-8.687-40.039 27.449-89.73 68.717-57.415 11.256 8.813 19.292 22.13 22.627 37.496 3.342 15.404 1.452 31.069-5.132 43.664zm151.968-35.906c12.634-6.935 29.131-5.353 40.224 3.831 3.919 3.243 8.304 3.235 12.222-.004 6.433-5.323 14.578-8.255 22.937-8.255 22.027 0 37.049 19.358 35.935 40.334h-116.298c4.32-11.04 6.047-23.402 4.98-35.906zm91.721-180.597c28.265 8.65 45.772 38.348 39.858 67.606-.354 1.75-.38 3.526-.124 5.256-28.139 22.776-55.836 68.491-67.792 89.68-4.096.969-8.058 2.445-11.794 4.385-2.333-8.513-7.448-19.655-18.686-27.974-3.329-2.464-8.024-1.763-10.49 1.566-2.464 3.329-1.764 8.025 1.566 10.49 5.23 3.871 8.579 8.735 10.729 13.347-12.057-4.465-25.89-4.159-37.716.891-4.6-16.923-14.05-31.618-26.946-41.716-12.787-10.012-27.57-14.475-42.174-12.875 6.398-13.257 17.326-23.786 30.781-29.181 4.762-1.909 8.243-6.099 9.312-11.206 3.558-17.001 19.793-28.952 36.975-27.165 6.709.679 13.2-3.161 15.766-9.367 11.191-27.042 42.562-42.365 70.735-33.737zm-272.072 26.665c17.978-23.151 50.502-31.142 77.408-18.445 6.353 2.997 13.827 1.431 18.592-3.899 12.607-14.106 34.532-16.479 49.918-5.402 4.451 3.203 10.087 3.996 15.073 2.125 14.639-5.492 30.651-5.23 45.323.491-7.995 7.141-14.536 16.076-18.836 26.469-.051.12-.196.202-.37.18-24.716-2.546-48.082 14.594-53.191 39.015-.04.191-.14.327-.213.356-20.81 8.343-36.825 26.33-43.276 48.422-1.941.974-3.828 2.072-5.66 3.29-4.623-9.116-13.278-22.053-26.843-27.021-3.887-1.423-8.196.576-9.622 4.464-1.424 3.89.574 8.197 4.464 9.622 6.636 2.43 11.99 8.611 15.797 14.691-4.755-.263-9.501.093-14.199 1.116-7.655 1.668-14.602 4.973-20.677 9.528-7.54-33.416-19.303-72.4-33.688-105.002zm-106.59 148.275c7.628-30.872 49.215-39.426 68.229-13.722 3.139 4.246 7.429 5.181 12.003 2.979 11.615-5.587 26.104-4.766 37.014 2.069-4.73 16.358-3.901 34.195 1.653 50.237h-119.387c-2.875-13.673-2.732-28.527.488-41.563zm-13.3 56.563h475.693c1.738 0 3.153 1.415 3.153 3.154v57.493h-481.999v-57.493c0-1.739 1.415-3.154 3.153-3.154z"/><path d="m47.93 312.69c1.592 3.763 6.009 5.623 9.8 4.051 3.864-1.602 5.671-6.208 3.951-10.013-1.684-3.725-6.19-5.425-9.913-3.736-3.64 1.65-5.361 6-3.838 9.698z"/><path d="m61.78 382.6c-1.493-3.8-6.066-5.608-9.79-4.06-3.78 1.572-5.604 6.004-4.061 9.79 1.543 3.784 6.04 5.622 9.8 4.06 3.756-1.561 5.635-6.026 4.051-9.79z"/><path d="m61.09 456.95c-2.297-3.483-7.219-4.364-10.6-1.935-3.231 2.321-4.088 6.942-1.87 10.254 2.165 3.233 6.602 4.296 9.983 2.337 3.683-2.133 4.88-7.109 2.487-10.656z"/><path d="m450.22 312.69c1.587 3.977 6.438 5.709 10.236 3.851 3.726-1.822 5.258-6.541 3.322-10.205-1.828-3.46-6.14-4.959-9.713-3.351-3.659 1.646-5.37 6.003-3.845 9.705z"/><path d="m464.5 384c-.835-3.99-4.793-6.696-8.82-5.891-4.008.802-6.69 4.812-5.89 8.82.798 3.994 4.815 6.703 8.819 5.89 4.029-.818 6.644-4.798 5.891-8.819z"/><path d="m450.91 465.27c2.21 3.443 7.026 4.308 10.39 2.08 3.549-2.35 4.401-7.432 1.79-10.802-2.433-3.14-6.995-3.839-10.254-1.57-3.286 2.287-4.176 6.969-1.926 10.292z"/></g></svg>