<svg id="Capa_1" enable-background="new 0 0 512 512" height="512" viewBox="0 0 512 512" width="512" xmlns="http://www.w3.org/2000/svg"><g><path d="m238.857 7.5c0-4.143-3.357-7.5-7.5-7.5s-7.5 3.357-7.5 7.5v156.726c-12.212-16.024-30.854-26.881-52.044-28.706 9.558-9.145 16.929-20.211 21.561-32.731 1.438-3.885-.547-8.199-4.432-9.637-3.886-1.436-8.198.548-9.637 4.432-6.815 18.421-20.819 33.151-39.66 41.832-6.478-13.564-8.961-28.18-7.24-43.076 3.271-25.052 19.416-46.228 43.494-57.343 4.931 10.296 7.561 21.014 7.825 31.913.1 4.079 3.437 7.317 7.494 7.317 3.842 0 7.594-3.912 7.502-7.683-.354-14.527-4.189-28.72-11.401-42.184-2.54-4.741-8.435-6.873-13.415-4.845-26.105 10.607-45.12 30.926-53.041 55.892-8.847-6.065-19.228-9.922-30.548-11.279-4.878-.581-9.539 2.707-10.633 7.484-5.459 23.835 1.554 47.448 18.759 63.164 6.075 5.607 13.223 9.866 20.943 12.779-12.399 10.032-21.465 24.012-25.288 40.013l-9.507-4.551c-9.164-4.388-19.822 3.517-18.278 13.561 1.865 5.365-.584 7.79-6.391 7.957-5.148 1.534-8.714 5.976-9.15 11.244-22.722 14.052-36.125 36.672-36.125 61.441 0 45.87 45.049 76.206 87.698 74.989 4.257 5.584 9.231 10.628 14.891 15.004 18.608 14.383 42.544 19.575 65.595 15.828 3.089 2.404 6.023 4.949 8.794 7.626-12.817-.191-25.199 3.152-36.058 9.929-16.225 10.126-27.09 26.651-30.595 46.53-.001.002-.001.003-.001.005-.856 4.87 2.195 9.757 6.948 11.126 13.86 3.99 28.925 4.036 42.545-.917 17.717-6.278 31.461-19.628 38.74-37.015 6.502 13.331 10.184 28.048 10.655 43.402v36.773c0 4.143 3.357 7.5 7.5 7.5s7.5-3.357 7.5-7.5zm-130.336 120.169c-11.98-10.968-17.455-27.08-15.111-43.853 9.17 1.898 17.351 5.955 23.977 11.897-1.512 13.88.141 27.646 4.833 40.799-5.081-2.17-7.995-3.78-13.699-8.843zm-35.262 92.543c7.691-2.29 10.29-10.811 8.489-17.925l10.362 4.961c-.196 10.676 14.724 11.517 15.001-.034l10.292-4.927c-2.26 8.551 1.898 16.541 10.696 18.583-8.799 2.042-12.957 10.032-10.696 18.583l-12.27-5.874c-3.705-1.691-7.41-1.691-11.115 0l-12.27 5.874c1.758-7.1-.714-15.609-8.487-17.925-2.424-.438-2.428-.877-.002-1.316zm-43.613 61.008c0-19.394 10.688-37.246 28.819-48.555 2.769 1.194 5.835 1.909 8.733 2.708-1.957 6.111-1.396 13.951 4.164 18.076 3.843 2.854 8.912 3.339 13.227 1.273l14.986-7.174c7.843 3.755 19.587 12.304 28.213 5.9 5.561-4.125 6.121-11.965 4.164-18.076 2.898-.799 5.964-1.514 8.732-2.708 18.119 11.314 28.821 29.211 28.821 48.554 0 11.325-3.606 22.116-10.467 31.576-18.186-13.137-41.439-18.311-65.296-13.963-5.181.945-8.93 5.799-8.536 11.045.831 11.136 3.554 21.623 7.964 31.12-35.567-2.787-63.524-28.525-63.524-59.776zm96.762 78.124c-14.546-11.243-23.512-28.285-25.822-46.398 20.44-2.608 39.986 3.154 54.486 15.852 12.704 11.822 20.517 26.597 22.725 43.843-18.954 2.434-37.06-2.221-51.389-13.297zm43.094 87.839c-9.422 3.188-18.924 3.803-28.73 1.812 3.508-13.506 11.461-24.638 22.736-31.676 11.28-7.04 24.78-9.293 38.458-6.51-4.504 17.245-16.371 30.653-32.464 36.374zm23.687-71.089c-.698-19.532-9.502-39.304-22.836-53.39 9.164-12.226 14.152-26.711 14.152-41.485 0-24.701-13.423-47.368-36.123-61.426-.673-8.257-9.293-12.049-16.43-13.427 4.531-14.147-8.315-26.075-21.465-17.398 8.087-22.557 29.676-38.741 54.98-38.741 32.196 0 58.391 26.194 58.391 58.392v203.668c-7.607-13.752-17.938-26.05-30.669-36.193z"/><path d="m495.811 273.248c-13.26-21.301-33.436-35.317-56.811-39.468-23.485-4.173-48.545 2.643-67.068 17.614-4.18.116-8.308.445-12.373.975 8.005-10.163 13.475-21.871 15.998-34.367 5.756 1.07 11.639 1.623 17.583 1.623 46.83 0 84.93-33.662 84.93-75.039 0-24.701-13.423-47.368-36.123-61.427-.43-5.275-3.998-9.723-9.151-11.258l-7.278-2.169.888-5.786c1.542-10.042-9.112-17.956-18.278-13.562l-9.8 4.69c-8.158-31.633-36.934-55.074-71.08-55.074-23.795 0-44.972 11.391-58.391 28.998v-21.498c0-4.143-3.357-7.5-7.5-7.5s-7.5 3.357-7.5 7.5v497c0 4.143 3.357 7.5 7.5 7.5s7.5-3.357 7.5-7.5v-131.656c0-34.711 20.513-66.875 58.391-66.875 25.304 0 46.893 16.183 54.98 38.74l-4.075-1.951c-9.164-4.388-19.822 3.517-18.278 13.561l.888 5.788-7.278 2.169c-5.148 1.534-8.715 5.976-9.15 11.245-22.722 14.05-36.125 36.671-36.125 61.44 0 9.596 2.021 18.943 6.004 27.784 1.611 3.574 6.379 5.349 9.92 3.756 3.775-1.702 5.458-6.144 3.756-9.919-3.105-6.891-4.68-14.165-4.68-21.621 0-19.394 10.688-37.246 28.819-48.554 2.769 1.195 5.835 1.909 8.734 2.708l-.888 5.786c-1.543 10.044 9.113 17.95 18.278 13.562l14.986-7.174 14.986 7.174c9.115 4.364 19.821-3.52 18.278-13.561l-.888-5.788c2.898-.799 5.965-1.513 8.733-2.708 18.133 11.308 28.819 29.157 28.819 48.554 0 33.106-31.37 60.04-69.93 60.04-16.962 0-33.325-5.291-46.076-14.897-3.308-2.493-8.01-1.831-10.503 1.478-2.492 3.308-1.831 8.011 1.478 10.503 15.337 11.553 34.905 17.916 55.104 17.916 46.83 0 84.93-33.663 84.93-75.04 0-24.773-13.402-47.388-36.125-61.439-.435-5.269-4.001-9.711-9.15-11.245l-7.278-2.169.888-5.786c1.543-10.045-9.112-17.949-18.278-13.562l-9.507 4.551c-7.71-32.269-36.773-56.34-71.371-56.34-8.702 0-17.051 1.531-24.802 4.323 17.976-16.91 41.807-27.657 68.09-28.834 16.058 24.8 41.896 39.28 69.946 39.28 19.214 0 37.789-6.962 52.887-18.743 4.149-3.238 5.222-9.274 2.441-13.748zm-84.844 84.779c-2.26 8.551 1.898 16.541 10.696 18.583-8.799 2.042-12.957 10.032-10.696 18.583l-12.273-5.876c-3.704-1.688-7.408-1.688-11.111.002l-12.27 5.874c2.26-8.551-1.898-16.541-10.696-18.583 8.799-2.042 12.957-10.032 10.696-18.583l10.292 4.927c.254 10.598 15.212 11.665 15.001.034zm-90.992-151.94c3.161-18.173 13.982-33.957 28.96-44.485 7.867 11.179 12.341 23.885 13.149 37.499 1.026 23.073-10.069 44.709-29.864 58.654-11.008-15.626-15.35-33.819-12.245-51.668zm106.429-101.559-.888-5.788c2.898-.799 5.964-1.513 8.732-2.708 18.119 11.314 28.821 29.211 28.821 48.554 0 33.105-31.37 60.039-69.93 60.039-5.426 0-10.786-.538-16.006-1.589.235-19.651-6.811-38.675-18.912-54.074-3.252-4.141-9.294-5.191-13.756-2.395-6.936 4.351-13.087 9.439-18.377 15.128-1.91-5.504-2.879-11.226-2.879-17.11 0-19.343 10.702-37.241 28.821-48.554 2.768 1.194 5.834 1.909 8.732 2.708-3.218 10.538 4.088 25.714 17.391 19.349l14.986-7.173 14.986 7.173c9.166 4.386 19.823-3.514 18.279-13.56zm-15.437-38.874c-2.26 8.55 1.897 16.541 10.695 18.582-8.798 2.042-12.956 10.033-10.695 18.583l-12.27-5.873c-3.532-1.69-7.583-1.691-11.115 0l-12.27 5.873c2.26-8.55-1.898-16.54-10.695-18.583 8.799-2.04 12.955-10.032 10.695-18.582l10.255 4.909c.045.937.072 1.879.072 2.827 0 4.143 3.357 7.5 7.5 7.5s7.5-3.357 7.5-7.5c0-.925-.036-1.842-.07-2.76zm-83.719-50.654c24.655 0 45.775 15.368 54.323 37.02-13.158-8.412-25.152 4.147-20.809 17.713-7.098 1.382-15.75 5.091-16.429 13.427-22.7 14.059-36.123 36.726-36.123 61.427 0 10.642 2.578 21.216 7.488 30.856-5.183 8.579-8.755 18.033-10.501 28.073-3.717 21.365 1.221 43.027 13.918 61.655-21.195 11.116-38.724 28.305-50.257 49.244v-241.024c0-32.197 26.194-58.391 58.39-58.391zm140.492 269.979c-9.117 3.718-13.345 5.08-24.521 5.704-23.091.945-44.677-10.225-58.551-30.07 15.664-10.95 33.876-15.228 51.71-12.063 17.833 3.167 33.453 13.449 44.384 29.116-4.149 2.896-8.514 5.349-13.022 7.313z"/></g></svg>