<svg id="Capa_1" enable-background="new 0 0 511.493 511.493" height="512" viewBox="0 0 511.493 511.493" width="512" xmlns="http://www.w3.org/2000/svg"><g><path d="m469.713 206.521c-7.915-6.487-19.721-14.985-34.157-21.814 10.796-11.922 18.467-24.361 23.207-33.217 5.309-9.918.071-22.56-10.697-25.816-9.607-2.906-23.811-6.269-39.858-7.065 5.372-15.034 7.71-29.383 8.717-39.534 1.111-11.196-8.565-20.869-19.76-19.76-10.183 1.01-24.541 3.35-39.578 8.728-.796-16.064-4.167-30.284-7.078-39.897-3.259-10.768-15.902-16.002-25.819-10.69-8.847 4.738-21.27 12.404-33.179 23.188-6.832-14.429-15.325-26.229-21.791-34.119-7.131-8.701-20.814-8.701-27.944 0-6.487 7.915-14.985 19.721-21.814 34.157-11.922-10.796-24.361-18.467-33.217-23.207-9.918-5.309-22.56-.071-25.816 10.697-2.906 9.606-6.27 23.811-7.065 39.858-15.034-5.372-29.383-7.71-39.534-8.717-11.195-1.114-20.87 8.568-19.76 19.76 1.008 10.161 3.35 24.527 8.732 39.577-16.066.796-30.287 4.168-39.901 7.079-10.767 3.259-16.003 15.902-10.69 25.819 4.738 8.847 12.404 21.27 23.188 33.179-14.429 6.832-26.229 15.325-34.119 21.791-8.701 7.131-8.701 20.814 0 27.944 7.915 6.487 19.721 14.985 34.157 21.814-10.796 11.925-18.467 24.364-23.207 33.22-5.309 9.918-.071 22.56 10.697 25.816 9.607 2.906 23.808 6.275 39.856 7.07-5.371 15.033-7.708 29.379-8.715 39.529-1.092 11.001 8.856 20.844 19.76 19.76 10.161-1.008 24.527-3.35 39.577-8.733.796 16.066 4.167 30.287 7.078 39.902 3.259 10.768 15.869 16.019 25.819 10.69 8.847-4.738 21.27-12.404 33.179-23.188 4.09 8.639 8.773 16.326 13.263 22.804v80.847c0 4.142 3.358 7.5 7.5 7.5s7.5-3.358 7.5-7.5v-64.552c5 2.184 10 2.184 15 0v64.552c0 4.142 3.358 7.5 7.5 7.5s7.5-3.358 7.5-7.5v-21.239c4.669.306 9.82.505 15.345.505 26.435 0 61.247-4.545 90.929-23.601 3.486-2.238 4.498-6.877 2.26-10.363-2.239-3.486-6.879-4.497-10.363-2.26-32.817 21.069-73.293 22.432-98.17 20.684v-44.573c4.5-6.492 9.192-14.191 13.286-22.844 11.922 10.796 24.361 18.467 33.217 23.207 9.95 5.326 22.56.071 25.816-10.697 2.906-9.606 6.27-23.811 7.065-39.858 15.034 5.372 29.383 7.71 39.534 8.717 10.916 1.085 20.85-8.776 19.76-19.76-.439-4.423-1.136-9.643-2.217-15.354 11.468.349 20.984 1.535 27.073 2.497-4.545 16.317-16.708 51.498-42.634 78.96-2.843 3.012-2.707 7.759.305 10.602 3.576 2.827 7.11 2.725 10.602-.305 29.802-31.567 42.762-72.123 46.95-88.092.886-3.376.314-6.996-1.569-9.931-1.883-2.934-4.935-4.961-8.374-5.562-6.729-1.175-19.792-3.031-35.93-3.247-.863-3-1.828-6.053-2.933-9.141 16.064-.796 30.282-4.173 39.895-7.084 10.767-3.259 16.003-15.902 10.69-25.819-4.738-8.847-12.404-21.27-23.188-33.179 14.429-6.832 26.229-15.325 34.119-21.791 8.702-7.131 8.702-20.814.001-27.944zm-24.041-64.731c.207.499.464 1.503-.134 2.622-13.218 24.699-33.489 48.238-60.679 57.616-3.161-22.206-11.929-42.63-24.831-59.781 25.833-12.616 56.865-10.329 83.695-2.215 1.214.366 1.742 1.259 1.949 1.758zm-47.028-67.548c2.181.054 3.298 1.172 3.353 3.353-1.035 10.442-3.607 25.727-9.905 41.162-14.619 1.031-29.079 4.798-42.025 11.745-1.418-1.486-2.871-2.939-4.358-4.357 6.932-12.929 10.697-27.381 11.728-41.978 15.438-6.305 30.732-8.886 41.207-9.925zm-66.873-43.563c2.035-.784 3.495-.18 4.38 1.814 8.124 26.829 10.43 57.828-2.19 83.695-17.155-12.896-37.581-21.658-59.789-24.813 9.368-27.189 32.884-47.46 57.599-60.696zm-78.395-14.645c1.58-1.503 3.161-1.503 4.741 0 6.651 8.116 15.641 20.743 22.102 36.11-9.594 11.051-17.15 23.92-21.394 37.962-2.065-.056-4.129-.052-6.193.012-4.242-14.026-11.794-26.891-21.375-37.929 6.456-15.374 15.446-28.013 22.119-36.155zm-78.091 16.483c.885-1.994 2.345-2.599 4.38-1.815 24.7 13.218 48.243 33.492 57.618 60.685-5.257.748-10.466 1.8-15.59 3.182-3.999 1.079-6.367 5.196-5.288 9.195 1.079 4 5.199 6.365 9.195 5.288 9.797-2.644 19.94-3.984 30.146-3.984 63.646 0 115.425 51.78 115.425 115.425s-51.78 115.425-115.425 115.425-115.425-51.78-115.425-115.425c0-41.909 22.79-80.6 59.475-100.975 3.621-2.011 4.926-6.577 2.915-10.198s-6.578-4.927-10.198-2.915c-5.274 2.929-10.29 6.197-15.035 9.761-12.591-25.824-10.303-56.836-2.193-83.649zm-64.91 42.604c.382-.382 1.216-1.001 2.474-.879 10.442 1.035 25.727 3.607 41.162 9.905 1.03 14.607 4.792 29.054 11.727 41.991-1.494 1.427-2.961 2.877-4.382 4.368-12.918-6.918-27.356-10.676-41.938-11.706-6.311-15.451-8.886-30.754-9.922-41.206-.125-1.261.497-2.091.879-2.473zm-44.577 66.725c.207-.499.734-1.391 1.949-1.759 26.825-8.122 57.836-10.422 83.679 2.182-13.04 17.401-21.66 37.937-24.784 59.801-27.195-9.362-47.471-32.883-60.709-57.602-.599-1.118-.342-2.123-.135-2.622zm-15.638 78.647c0-.541.146-1.567 1.127-2.371 8.116-6.651 20.743-15.641 36.11-22.102 11.054 9.597 23.927 17.154 37.976 21.398-.065 2.064-.07 4.128-.013 6.193-14.021 4.243-26.882 11.794-37.917 21.372-15.375-6.456-28.014-15.447-36.156-22.119-.981-.804-1.127-1.831-1.127-2.371zm15.661 78.702c-.207-.499-.464-1.503.134-2.622 13.217-24.697 33.491-48.239 60.679-57.616 3.161 22.206 11.929 42.63 24.831 59.781-25.833 12.615-56.865 10.33-83.695 2.215-1.214-.366-1.742-1.258-1.949-1.758zm47.027 67.548c-2.181-.054-3.298-1.172-3.353-3.353 1.035-10.441 3.607-25.725 9.904-41.16 14.619-1.031 29.08-4.802 42.026-11.748 1.419 1.486 2.871 2.939 4.358 4.357-6.932 12.93-10.698 27.382-11.729 41.98-15.45 6.313-30.754 8.888-41.206 9.924zm66.873 43.564c-2.035.784-3.495.18-4.38-1.814-8.124-26.831-10.422-57.849 2.19-83.695 17.154 12.896 37.58 21.658 59.788 24.813-9.368 27.188-32.881 47.459-57.598 60.696zm76.025 15.772c-.54 0-1.567-.146-2.371-1.127-6.651-8.116-15.641-20.743-22.102-36.11 9.595-11.051 17.149-23.919 21.394-37.962 2.066.052 4.132.052 6.197 0 4.243 14.021 11.793 26.883 21.372 37.918-6.457 15.375-15.447 28.014-22.12 36.155-.803.98-1.83 1.126-2.37 1.126zm80.462-17.61c-.885 1.994-2.345 2.599-4.38 1.815-24.698-13.217-48.24-33.489-57.616-60.679 22.206-3.161 42.63-11.929 59.781-24.831 12.614 25.833 10.329 56.866 2.215 83.695zm64.91-42.605c-.382.382-1.212 1.002-2.474.879-10.442-1.035-25.727-3.607-41.162-9.905-1.031-14.62-4.799-29.078-11.745-42.025 1.486-1.418 2.939-2.871 4.357-4.358 12.928 6.932 27.382 10.7 41.979 11.731 6.305 15.436 8.885 30.729 9.924 41.203.125 1.264-.497 2.093-.879 2.475zm44.577-66.725c-.207.499-.734 1.391-1.949 1.759-26.829 8.122-57.828 10.43-83.695-2.19 12.896-17.155 21.658-37.581 24.813-59.789 27.189 9.366 47.46 32.884 60.696 57.598.599 1.119.342 2.123.135 2.622zm14.51-76.276c-8.116 6.651-20.743 15.641-36.11 22.102-11.05-9.594-23.92-17.15-37.962-21.394.052-2.066.052-4.131 0-6.197 14.021-4.243 26.882-11.793 37.917-21.372 15.375 6.456 28.014 15.447 36.156 22.119 1.503 1.581 1.503 3.162-.001 4.742z"/><path d="m248.816 145.362c1.518 3.598 5.633 5.48 9.341 4.226 3.965-1.341 6.068-5.826 4.603-9.737-1.435-3.831-5.833-5.805-9.655-4.374-3.941 1.477-5.841 6.011-4.289 9.885z"/><path d="m202.056 157.982c-4.058-.795-8.083 1.94-8.835 6.003-.755 4.08 2.075 8.055 6.148 8.748 3.942.671 7.781-2.029 8.577-5.931.822-4.026-1.899-7.987-5.89-8.82z"/><path d="m184.676 217.623c-1.661-3.936-6.397-5.748-10.245-3.857-3.659 1.798-5.197 6.352-3.421 10.005 1.71 3.519 5.986 5.144 9.606 3.652 3.807-1.569 5.574-6.017 4.06-9.8z"/><path d="m207.516 272.783c-1.488-3.595-5.645-5.496-9.334-4.234-3.952 1.352-6.082 5.821-4.603 9.736 1.447 3.831 5.836 5.822 9.671 4.368 3.88-1.472 5.891-6.024 4.266-9.87z"/><path d="m248.816 301.362c1.589 3.765 6.008 5.621 9.8 4.06 3.786-1.559 5.601-6.028 4.06-9.8-1.548-3.79-6.042-5.601-9.8-4.05-3.802 1.57-5.579 5.999-4.06 9.79z"/><path d="m303.976 278.513c1.558 3.773 6.018 5.624 9.79 4.06 3.777-1.566 5.616-6.011 4.06-9.79-1.556-3.777-6.019-5.623-9.79-4.06-3.757 1.557-5.65 6.02-4.06 9.79z"/><path d="m326.816 223.362c1.588 3.765 6.009 5.621 9.8 4.06 3.786-1.559 5.601-6.028 4.06-9.8-1.545-3.782-6.041-5.608-9.8-4.06-3.804 1.567-5.575 6.018-4.06 9.8z"/><path d="m303.976 168.203c1.56 3.778 6.016 5.624 9.79 4.06 3.782-1.567 5.614-6.013 4.053-9.791-1.523-3.688-5.818-5.557-9.555-4.146-3.892 1.47-5.916 6.017-4.288 9.877z"/><path d="m288.876 206.772c1.56 3.778 6.029 5.627 9.8 4.06 3.782-1.571 5.603-6.007 4.06-9.79-1.541-3.779-6.043-5.622-9.8-4.06-3.797 1.58-5.58 5.996-4.06 9.79z"/><path d="m265.416 183.312c1.588 3.764 6.016 5.62 9.8 4.05 3.776-1.566 5.611-6.017 4.05-9.79-1.561-3.771-6.015-5.63-9.79-4.06-3.821 1.59-5.552 5.992-4.06 9.8z"/><path d="m232.236 183.303c1.668 3.949 6.38 5.732 10.24 3.856 3.734-1.814 5.254-6.551 3.323-10.208-1.854-3.512-6.236-4.969-9.827-3.294-3.559 1.66-5.269 6.012-3.736 9.646z"/><path d="m208.766 206.763c1.589 3.763 5.994 5.622 9.79 4.06 3.705-1.524 5.556-5.829 4.147-9.569-1.441-3.823-5.825-5.815-9.649-4.369-3.886 1.468-5.92 6.018-4.288 9.878z"/><path d="m211.526 243.312c3.494 2.359 8.41 1.235 10.579-2.359 2.036-3.372 1.043-7.939-2.26-10.111-3.515-2.312-8.393-1.267-10.576 2.359-2.031 3.375-1.051 7.933 2.257 10.111z"/><path d="m232.226 263.413c1.513 3.788 6.05 5.615 9.79 4.06 3.938-1.638 5.731-6.372 3.866-10.204-1.74-3.576-6.083-5.162-9.723-3.587-3.689 1.596-5.503 6.009-3.933 9.731z"/><path d="m265.406 263.422c1.588 3.764 6.004 5.621 9.79 4.05 3.778-1.567 5.621-6.007 4.06-9.79-1.558-3.777-6.019-5.611-9.79-4.06-3.757 1.546-5.647 6.043-4.06 9.8z"/><path d="m288.876 239.962c1.588 3.764 6.003 5.621 9.79 4.05 3.774-1.565 5.622-6.01 4.06-9.79-1.561-3.776-6.017-5.612-9.79-4.06-3.784 1.557-5.618 6.028-4.06 9.8z"/><path d="m248.816 223.362c1.626 3.854 6.199 5.681 10.023 3.958 3.712-1.672 5.424-6.196 3.743-9.903-1.651-3.641-5.998-5.383-9.705-3.855-3.805 1.568-5.576 6.018-4.061 9.8z"/></g></svg>