<svg id="Layer_1" enable-background="new 0 0 512 512" height="512" viewBox="0 0 512 512" width="512" xmlns="http://www.w3.org/2000/svg"><g><path d="m443.439 279.602c-6.019-4.717-15.511-5.03-21.828-.746-9.131-6.067-18.847-11.618-28.992-16.571.472-7.977-3.788-15.569-11.301-18.678-19.872-8.226-41.207-14.398-63.41-18.344-7.681-1.367-16.255 2.822-19.774 9.839-13.7-1.642-27.838-2.479-42.134-2.479-14.516 0-28.859.849-42.718 2.512-3.515-7.008-12.07-11.211-19.749-9.848-21.347 3.786-41.892 9.625-61.065 17.353-7.544 3.04-11.888 10.585-11.454 18.577-10.302 4.911-20.167 10.437-29.434 16.495-6.303-4.345-15.825-4.095-21.894.593-42.332 32.711-69.686 77.332-69.686 113.68 0 54.088 128.575 78.299 256 78.299 55.872 0 107.089-4.028 148.115-11.647 9.537-1.771 6.789-16.523-2.738-14.748-40.139 7.455-90.409 11.396-145.377 11.396-67.524 0-129.228-6.685-173.743-18.823-42.742-11.657-67.257-27.868-67.257-44.477 0-24.204 16.725-65.39 63.858-101.809 2.795-2.158 4.272.036 5.603 1.815 9.83 21.702 23.182 38.68 39.699 50.455 5.201 3.708 11.854-.608 11.854-6.107v-76.715c0-1.361.809-2.566 2.062-3.071 18.212-7.341 37.752-12.891 58.077-16.496 2.182-.189 3.534.762 4.055 2.854 1.184 9.103 2.849 18.28 4.95 27.277 2.206 9.441 16.814 6.03 14.607-3.413-1.305-5.586-2.413-11.245-3.35-16.909 12.848-1.487 26.135-2.242 39.585-2.242 13.216 0 26.277.751 38.949 2.213-8.751 51.134-28.999 86.524-38.971 101.501-6.083-9.025-15.939-25.354-24.677-47.565-3.55-9.024-17.51-3.533-13.959 5.491 14.631 37.191 32.12 58.74 32.858 59.639 2.992 3.65 8.57 3.659 11.576.026 1.542-1.863 37.342-45.846 48.897-122.34.613-1.316.828-2.691.646-4.125.63-1.822 1.951-2.633 3.964-2.432 21.139 3.757 41.426 9.623 60.299 17.435 1.237.512 2.037 1.714 2.037 3.063v75.81c0 5.498 6.653 9.815 11.854 6.107 16.354-11.658 29.623-28.434 39.438-49.861 1.357-2.067 3.117-2.459 5.277-1.176 38.157 29.901 62.812 69.38 62.812 100.575 0 11.322-9.502 27.801-54.768 42.012-9.129 2.866-4.378 17.094 4.492 14.312 43.314-13.599 65.276-32.549 65.276-56.324 0-35.631-26.911-79.744-68.561-112.383zm-343.31 10.447c6.655-4.334 13.634-8.388 20.885-12.109v42.161c-8.091-8.201-15.076-18.256-20.885-30.052zm292.49 30.05v-41c7.06 3.713 13.863 7.735 20.35 12.029-5.705 11.332-12.513 21.024-20.35 28.971z"/><path d="m343.527 151.881c0 11.967-10.683 25.872-14.79 30.211-6.667 6.996 4.135 17.406 10.859 10.348.772-.811 18.931-20.101 18.931-40.559 0-11.848-6.069-18.216-10.501-22.867-3.829-4.019-6.359-6.673-6.359-12.518 0-11.963 10.68-25.865 14.797-30.213 6.674-7.024-4.18-17.359-10.865-10.341-.773.811-18.932 20.098-18.932 40.555 0 11.848 6.069 18.216 10.501 22.867 3.829 4.018 6.359 6.673 6.359 12.517z"/><path d="m170.289 151.881c0 11.967-10.683 25.872-14.79 30.211-6.667 6.996 4.135 17.406 10.859 10.348.772-.811 18.931-20.101 18.931-40.559 0-11.848-6.069-18.216-10.501-22.867-3.829-4.019-6.359-6.673-6.359-12.518 0-11.963 10.68-25.865 14.797-30.213 6.674-7.024-4.18-17.359-10.865-10.341-.773.811-18.932 20.098-18.932 40.555 0 11.848 6.069 18.216 10.501 22.867 3.829 4.018 6.359 6.673 6.359 12.517z"/><path d="m256.377 119.997c0 11.967-10.683 25.872-14.79 30.211-6.667 6.996 4.135 17.406 10.859 10.348.772-.811 18.931-20.101 18.931-40.559 0-11.848-6.069-18.216-10.501-22.867-3.829-4.019-6.359-6.673-6.359-12.518 0-11.963 10.68-25.865 14.797-30.213 6.674-7.024-4.181-17.36-10.865-10.341-.773.811-18.932 20.098-18.932 40.555 0 11.848 6.069 18.216 10.501 22.867 3.829 4.017 6.359 6.672 6.359 12.517z"/></g></svg>