<?xml version="1.0" encoding="UTF-8"?><svg xmlns="http://www.w3.org/2000/svg" id="Outline" version="1.1" viewBox="0 0 64 64"><path d="M47,45c-.93,0-1.82.12-2.67.34-.82-2.1-2.31-3.67-4.09-4.17-1.25-3.94-4.01-7.3-7.68-9.27-2.19-1.18-3.56-3.52-3.56-6.09v-6.99c1.16-.42,2-1.52,2-2.82,0-1.19-.7-2.21-1.71-2.7l1.66-4.98c.1-.31.05-.64-.14-.9-.19-.27-.49-.42-.81-.42h-10c-.32,0-.62.15-.81.42-.19.26-.24.59-.14.9l1.66,4.98c-1.01.49-1.71,1.51-1.71,2.7,0,1.3.84,2.4,2,2.82v3.18c0,.55.45,1,1,1s1-.45,1-1v-3h4v6.81c0,2.36.91,4.56,2.46,6.19h-8.93c1.5-1.58,2.41-3.7,2.46-5.98.01-.55-.43-1.01-.98-1.02-.53.03-1.01.43-1.02.98-.05,2.5-1.41,4.77-3.55,5.92-5.21,2.79-8.44,8.2-8.44,14.1,0,3.13.9,6.16,2.62,8.76.92,1.4,2.48,2.24,4.17,2.24h18.42c.88,0,1.72-.23,2.46-.66.72.41,1.51.66,2.33.66,1.17,0,2.26-.46,3.18-1.23,1.39.78,3.06,1.23,4.82,1.23,4.41,0,8-2.69,8-6s-3.59-6-8-6ZM28.61,9l-1.33,4h-4.56l-1.33-4h7.22ZM28,17h-6c-.55,0-1-.45-1-1s.45-1,1-1h6c.55,0,1,.45,1,1s-.45,1-1,1ZM39,55c-1.72,0-3.29-1.73-3.81-4.21-.12-.54-.65-.88-1.19-.77-.54.12-.88.65-.77,1.19.31,1.45.93,2.71,1.74,3.68-.25.07-.5.11-.76.11H15.79c-1.01,0-1.95-.5-2.5-1.34-1.5-2.28-2.29-4.92-2.29-7.66,0-4.94,2.59-9.47,6.8-12h14.38c2.72,1.63,4.82,4.14,5.93,7.1-2.3.46-4.24,2.67-4.88,5.69-.11.54.23,1.07.77,1.19.54.11,1.07-.23,1.19-.77.52-2.48,2.09-4.21,3.81-4.21,2.17,0,4,2.75,4,6s-1.83,6-4,6ZM47,55c-1.26,0-2.46-.27-3.48-.76.92-1.4,1.48-3.23,1.48-5.24,0-.59-.05-1.17-.15-1.73.68-.18,1.4-.27,2.15-.27,3.25,0,6,1.83,6,4s-2.75,4-6,4Z"/></svg>