<svg height="512pt" viewBox="0 -16 512 512" width="512pt" xmlns="http://www.w3.org/2000/svg"><path d="m472 101.007812v-11.007812c0-5.523438-4.476562-10-10-10s-10 4.476562-10 10v11.007812c-22.796875 4.644532-40 24.84375-40 48.992188v30h-46v-50c0-57.28125-44.015625-104.472656-100-109.539062v-10.460938c0-5.523438-4.476562-10-10-10s-10 4.476562-10 10v10.460938c-55.984375 5.066406-100 52.257812-100 109.539062v50h-46v-30c0-24.144531-17.203125-44.347656-40-48.992188v-11.007812c0-5.523438-4.476562-10-10-10s-10 4.476562-10 10v11.007812c-22.796875 4.644532-40 24.847657-40 48.992188v320c0 5.523438 4.476562 10 10 10h492c5.523438 0 10-4.476562 10-10v-320c0-24.144531-17.203125-44.347656-40-48.992188zm-105.996094 218.996094v-20h125.996094v20zm-75.003906 139.996094h-70v-70h70zm10-90h-90c-5.523438 0-10 4.476562-10 10v80h-35.003906v-119.996094h180.007812v119.996094h-35.003906v-80c0-5.523438-4.476562-10-10-10zm-59.949219-170-22.222656 20.003906h-83.832031c-5.523438 0-10 4.476563-10 10 0 5.519532 4.476562 10 10 10h61.609375l-44.445313 40h-132.160156v-40h24.996094c5.523437 0 10-4.480468 10-10 0-5.523437-4.476563-10-10-10h-24.996094v-20.003906zm250.949219 0v20.003906h-198.828125l-22.222656-20.003906zm-236 13.453125 73.945312 66.550781h-147.890624zm103.839844 66.550781-44.445313-40h176.605469v40zm-339.839844 20h125.996094v20h-125.996094zm125.996094 40v119.996094h-53v-119.996094zm20-20v-20h180.007812v20zm296.003906-200.003906c13.035156 0 24.152344 8.359375 28.28125 20h-56.5625c4.128906-11.640625 15.246094-20 28.28125-20zm-30 40h60v20h-60zm-176-120c46.246094 0 84.449219 35.0625 89.441406 80h-178.882812c4.992187-44.9375 43.195312-80 89.441406-80zm-90 100h180v40h-30v-10c0-5.519531-4.476562-10-10-10s-10 4.480469-10 10v10h-30v-10c0-5.519531-4.476562-10-10-10s-10 4.480469-10 10v10h-30v-10c0-5.519531-4.476562-10-10-10s-10 4.480469-10 10v10h-30zm-146 40v-20h60v20zm30-60c13.035156 0 24.152344 8.359375 28.28125 20h-56.5625c4.128906-11.640625 15.246094-20 28.28125-20zm-30 220.003906h52.996094v119.996094h-52.996094zm419.003906 119.996094v-15c0-5.523438-4.480468-10-10-10-5.523437 0-10 4.476562-10 10v15h-53v-119.996094h53v14.996094c0 5.519531 4.476563 10 10 10 5.519532 0 10-4.480469 10-10v-14.996094h52.996094v119.996094zm0 0"/><path d="m90 240.003906c5.523438 0 10-4.480468 10-10 0-5.523437-4.476562-10-10-10h-.007812c-5.523438 0-9.996094 4.476563-9.996094 10 0 5.519532 4.480468 10 10.003906 10zm0 0"/><path d="m429.003906 390c-5.523437 0-10 4.480469-10 10.003906 0 5.523438 4.476563 10 10 10 5.519532 0 10-4.480468 10-10v-.007812c0-5.523438-4.480468-9.996094-10-9.996094zm0 0"/></svg>