<svg id="Capa_1" enable-background="new 0 0 492.469 492.469" height="512" viewBox="0 0 492.469 492.469" width="512" xmlns="http://www.w3.org/2000/svg"><g><g><path d="m160.095 428.225-14.646-3.238 3.239-14.646 14.646 3.238zm6.478-29.292-14.646-3.238 3.239-14.646 14.646 3.238zm6.478-29.292-14.646-3.238 3.239-14.646 14.646 3.238z"/></g><g><path d="m362.177 384.994 20.451 92.475h-73.2l-14.328-176.594h48.474l15.271 69.057 14.646-3.238-17.873-80.818h-15.485v-30h17.146l11.333-79.33 99.389-119.014h-89.771l-113.763-39.492v-18.04h-15v17.842l-128.507 39.689h-7.515l2.62 18.344h-54.098c-6.031 0-12.03 1.469-17.348 4.247l6.946 13.295c3.228-1.687 6.728-2.542 10.402-2.542h56.241l1.949 13.645 2.345 16.418h-35.66c-9.649 0-17.5 7.851-17.5 17.5v85.835c0 16.846-13.25 30.656-29.875 31.556v-142.454c0-4.431 1.285-8.716 3.715-12.391l-12.512-8.273c-4.058 6.136-6.203 13.281-6.203 20.664v157.5h13.272c25.697 0 46.603-20.906 46.603-46.603v-85.835c0-1.379 1.122-2.5 2.5-2.5h37.803l17.134 119.938h17.813v30h-16.152l-45.688 206.594h303.555l-24.484-110.713zm-67.799 92.475h-89.822l14.327-176.594h61.167zm49.892-236.594h-49.17l7.149-88.115-14.951-1.213-7.247 89.328h-61.167l-13.659-168.344h88.483l-2.745 33.828 14.951 1.213 2.843-35.041h59.561l-17.987 125.903zm39.202-168.344h52.46l-63.287 75.784.216-1.513zm-126.641-41.264 75.661 26.265h-160.701zm-102.042 209.608-15.211-106.477-8.838-61.867h59.436l13.658 168.344zm19.803 15h150.542v30h-150.542zm-19.107 45h48.349l-14.327 176.594h-73.074z"/><path d="m289.049 122.027h15.12v15h-15.12z" transform="matrix(.081 -.997 .997 .081 143.523 414.692)"/></g></g></svg>