<svg height="512pt" viewBox="0 0 512 512.0015" width="512pt" xmlns="http://www.w3.org/2000/svg"><path d="m180.058594 485.890625c-13.515625 4.882813-28.046875 6.832031-42.84375 5.851563 5.234375-7.289063 8.058594-16.007813 8.039062-25.171876-.027344-11.539062-4.539062-22.394531-12.710937-30.5625-8.171875-8.171874-19.023438-12.6875-30.5625-12.710937-.03125 0-.0625 0-.09375 0-11.519531 0-22.335938 4.476563-30.46875 12.609375-6.007813 6.007812-9.851563 13.367188-11.558594 21.117188-.839844-.796876-1.667969-1.597657-2.484375-2.414063-22.414062-22.417969-35.632812-51.277344-37.21875-81.265625-1.5625-29.59375 8.433594-56.742188 28.140625-76.453125 16.050781-16.050781 31.289063-26.277344 41.300781-32.054687 3.4375 11.546874 10.886719 17.460937 15.921875 20.25 17.972657 9.960937 42.253907 3.515624 58.339844-7.292969 14.269531-9.585938 22.835937-22.890625 23.511719-36.503907.371094-7.578124-1.546875-18.285156-11.398438-29.539062 4.878906-4.453125 9.769532-8.507812 14.617188-12.101562 4.4375-3.292969 5.363281-9.554688 2.074218-13.988282-3.292968-4.433594-9.554687-5.363281-13.988281-2.070312-8.070312 5.984375-16.207031 13.066406-24.1875 21.046875-1.992187 1.992187-3.054687 4.730469-2.917969 7.546875.132813 2.8125 1.449219 5.441406 3.621094 7.234375 8.4375 6.96875 12.546875 13.996093 12.207032 20.890625-.359376 7.242187-5.714844 14.855468-14.6875 20.886718-12.636719 8.492188-28.757813 11.242188-37.496094 6.398438-1.953125-1.082031-7.898438-4.375-7.457032-17.796875.113282-3.367187-1.480468-6.566406-4.242187-8.507813-2.757813-1.9375-6.308594-2.359374-9.441406-1.113281-1.175781.46875-29.121094 11.78125-59.914063 42.574219-23.773437 23.773438-35.839844 56.320312-33.972656 91.648438 1.847656 34.929687 17.136719 68.4375 43.050781 94.351562 6.210938 6.210938 12.96875 11.886719 20.113281 16.910156 2.035157 4.101563 4.75 7.957032 8.167969 11.371094 8.167969 8.171875 19.023438 12.6875 30.5625 12.710938h.09375c3.828125 0 7.578125-.503907 11.175781-1.464844 10.441407 2.472656 20.917969 3.722656 31.253907 3.722656 14.535156 0 28.789062-2.4375 42.25-7.300781 5.195312-1.878907 7.882812-7.609375 6.007812-12.804688-1.878906-5.191406-7.609375-7.882812-12.804687-6.003906zm-77.882813 3.851563c-.019531 0-.035156 0-.050781 0-6.214844-.011719-12.0625-2.445313-16.464844-6.851563-9.082031-9.082031-9.128906-23.816406-.101562-32.84375 4.355468-4.355469 10.152344-6.753906 16.328125-6.753906h.050781c6.210938.015625 12.058594 2.449219 16.464844 6.855469 4.40625 4.402343 6.839844 10.25 6.851562 16.460937.015625 6.195313-2.382812 12.015625-6.75 16.382813-4.355468 4.355468-10.15625 6.75-16.328125 6.75zm0 0"/><path d="m509.027344 338.207031-35.113282-35.109375c5.625-8.390625 8.648438-18.28125 8.648438-28.65625 0-13.785156-5.339844-26.714844-15.03125-36.410156l-10-9.996094-67.597656-67.597656 16.328125-16.984375 3.992187 3.992187c1.953125 1.949219 4.511719 2.925782 7.070313 2.925782 2.558593 0 5.117187-.976563 7.070312-2.925782 3.90625-3.90625 3.90625-10.238281 0-14.144531l-4.269531-4.265625 13.113281-13.636718 3.46875 3.46875c1.953125 1.953124 4.511719 2.929687 7.070313 2.929687s5.117187-.976563 7.070312-2.929687c3.90625-3.90625 3.90625-10.234376 0-14.140626l-3.746094-3.746093 11.695313-12.167969c1.800781 1.523438 4.082031 2.375 6.457031 2.375 2.652344 0 5.195313-1.054688 7.070313-2.929688l36.699219-36.703124c3.90625-3.902344 3.90625-10.234376 0-14.140626l-34.457032-34.457031c-3.902344-3.902343-10.234375-3.902343-14.140625 0l-36.699219 36.703125c-1.875 1.875-2.929687 4.417969-2.929687 7.070313 0 2.371093.851563 4.65625 2.371094 6.453125l-12.164063 11.699218-3.746094-3.75c-3.90625-3.902343-10.234374-3.902343-14.140624 0-3.90625 3.90625-3.90625 10.238282 0 14.144532l3.46875 3.46875-13.636719 13.109375-4.265625-4.265625c-3.90625-3.90625-10.238282-3.90625-14.140625 0-3.90625 3.902344-3.90625 10.234375 0 14.140625l3.988281 3.988281-16.984375 16.332031-96.988281-96.988281c0-.003906 0-.003906-.003906-.007812 0 0 0 0-.003907-.003907l-9.996093-9.992187c-20.074219-20.078125-52.742188-20.078125-72.820313 0-1.875 1.875-2.929687 4.417968-2.929687 7.070312 0 2.648438 1.054687 5.191406 2.929687 7.070313l135.480469 135.480469-8.558594 8.226562c-7.574219-4.789062-15.367188-8.503906-23.261719-11.050781-5.253906-1.695313-10.890625 1.1875-12.585937 6.445312-1.695313 5.253907 1.191406 10.890625 6.445312 12.585938 4.847656 1.566406 9.6875 3.707031 14.464844 6.382812l-142.859375 137.367188-11.617187-11.625c-3.90625-3.902344-10.238282-3.902344-14.144532 0l-28.28125 28.28125c-3.902344 3.90625-3.902344 10.238281 0 14.144531l69.730469 69.730469c1.953125 1.949219 4.511719 2.925781 7.070313 2.925781 2.5625 0 5.121093-.976562 7.070312-2.925781l28.28125-28.28125c3.90625-3.90625 3.90625-10.238281 0-14.144531l-11.617188-11.617188 137.355469-142.851562c18.703125 33.433593 10.511719 69.597656-24.46875 107.746093-11.253906-9.855469-21.964843-11.757812-29.546875-11.402343-13.613281.671874-26.917968 9.238281-36.5 23.507812-10.808594 16.085938-17.253906 40.363281-7.292968 58.339844 2.792968 5.039062 8.710937 12.496094 20.269531 15.929687-1.335938 2.316407-2.90625 4.910157-4.734375 7.726563-3.003906 4.632812-1.6875 10.824218 2.949218 13.828125 1.679688 1.09375 3.566407 1.613281 5.429688 1.613281 3.273438 0 6.484375-1.605469 8.398438-4.558594 8.734374-13.464844 12.445312-22.707031 12.597656-23.09375 1.246094-3.132812.828125-6.683594-1.113282-9.441406-1.9375-2.757812-5.148437-4.367188-8.507812-4.242188-13.425781.449219-16.714844-5.5-17.796875-7.453124-4.84375-8.738282-2.089844-24.855469 6.398437-37.496094 6.03125-8.976563 13.644532-14.328125 20.890626-14.6875 6.882812-.324219 13.917968 3.769531 20.886718 12.207031 1.792969 2.171875 4.421875 3.488281 7.234375 3.621094 2.808594.128906 5.554688-.925781 7.546875-2.917969 20.4375-20.4375 34.417969-41.246094 41.550782-61.839844 9.953124-28.742187 6.636718-56.402344-9.816407-82.339844l8.222657-8.550781 106.03125 106.03125c.019531.019531.035156.039063.054687.054688.019531.019531.035156.035156.054687.054687l41.441407 41.441406c1.953125 1.953126 4.511719 2.929688 7.070312 2.929688 2.558594 0 5.117188-.976562 7.070313-2.929688 3.902344-3.90625 3.902344-10.238281 0-14.144531zm-41.53125-314.039062 20.316406 20.316406-22.558594 22.5625-20.316406-20.316406zm-30.214844 43.1875 7.347656 7.347656-68.835937 71.589844-10.101563-10.097657zm-75.355469 93.355469-14.898437 15.496093-11.25-11.25 15.496094-14.898437zm-131.511719-131.511719 2.929688 2.929687-15.199219 15.199219-24.050781-24.050781c11.789062-5.863282 26.511719-3.886719 36.320312 5.921875zm1.871094 32.269531 15.199219-15.199219 89.644531 89.644531-15.496094 14.902344zm-68.667968 342.484375-55.589844-55.589844 14.140625-14.140625 55.589843 55.589844zm9.589843-46.972656-18.203125-18.203125 166.351563-159.953125 11.804687 11.804687zm202.863281-182.125 60.25 60.25-15.199218 15.199219-59.953125-59.953126zm83.234376 113.632812-24.042969-24.042969 15.199219-15.199218 2.929687 2.929687c5.917969 5.914063 9.175781 13.824219 9.175781 22.265625-.003906 4.96875-1.128906 9.75-3.261718 14.046875zm0 0"/><path d="m226.082031 180.535156c.441407 0 .886719-.03125 1.335938-.089844h.007812c5.472657-.730468 9.316407-5.761718 8.585938-11.234374-.730469-5.472657-5.765625-9.324219-11.238281-8.589844-5.472657.730468-9.320313 5.761718-8.589844 11.234375.671875 5.023437 4.964844 8.679687 9.898437 8.679687zm0 0"/><path d="m215.4375 463.359375-.003906.003906c-4.085938 3.714844-4.386719 10.035157-.671875 14.121094 1.972656 2.171875 4.683593 3.273437 7.402343 3.273437 2.398438 0 4.808594-.859374 6.726563-2.601562 4.085937-3.714844 4.386719-10.039062.671875-14.125s-10.039062-4.386719-14.125-.671875zm0 0"/></svg>