<svg id="Capa_1" enable-background="new 0 0 487.438 487.438" height="512" viewBox="0 0 487.438 487.438" width="512" xmlns="http://www.w3.org/2000/svg"><g><path d="m137.741 382.438h-16.231v105h180v-105h-15v-16.03c0-10.891 5.41-21 14.472-27.042l29.94-19.96 8.568-55.918 47.312-32.154h84.417v-15h-32.663c-2.122-54.79-27.411-105.912-70.152-141.199l-9.55 11.567c27.571 22.763 47.264 52.664 57.292 85.86h-152.137v15h155.965c1.963 9.41 3.178 19.025 3.587 28.771h-359.685c.411-9.815 1.638-19.424 3.594-28.771h181.602v-15h-177.771c22.277-73.456 91.138-127.122 172.418-127.122 37.371 0 73.206 11.243 103.631 32.514l8.595-12.294c-31.501-22.023-68.348-34.114-106.873-35.14v-15.52h14.938v-15h-44.875v15h14.937v15.678c-100.556 4.883-181.327 85.66-185.192 185.655h-32.661v15h121.522zm152.266-151.105-94.916 41.255-5.678-41.255zm-137.266 1.167h21.691l8.496 61.731 142.025-61.731h33.446l-29.913 20.329-53.433 33.161 7.91 12.745 39.727-24.655-5.595 36.514-24.436 16.291c-13.245 8.83-21.152 23.604-21.152 39.522v16.03h-22.667v15h37.667v75h-150v-75h67.333v-15h-51.102v-149.937z"/><path d="m219.009 382.438h15.333v15h-15.333z"/><path d="m173.634 427.969h14.875v15h-14.875z"/><path d="m120.239 143.214-12.464-8.346c2.901-4.333 6.053-8.58 9.369-12.623l11.599 9.512c-3.011 3.67-5.871 7.525-8.504 11.457zm18.075-22.043-10.629-10.584c3.681-3.697 7.586-7.26 11.607-10.59l9.568 11.553c-3.653 3.026-7.202 6.263-10.546 9.621zm21.963-18.187-8.415-12.417c4.32-2.928 8.833-5.681 13.415-8.182l7.188 13.166c-4.163 2.273-8.263 4.774-12.188 7.433z"/></g></svg>