<svg id="Capa_1" enable-background="new 0 0 498.729 498.729" height="512" viewBox="0 0 498.729 498.729" width="512" xmlns="http://www.w3.org/2000/svg"><g><path d="m17.252 311.283h15v15.051h-15z" transform="matrix(.995 -.105 .105 .995 -33.238 4.343)"/><path d="m354.721 29.006-69.165-29.006-20.639 49.217 13.832 5.801 14.838-35.383 41.499 17.402-34.782 82.94-41.498-17.403 13.802-32.913-13.832-5.801-27.723 66.106c-3.357 8.006-9.632 14.225-17.667 17.512l-47.865 19.581c-11.743 4.804-20.912 13.894-25.818 25.594l-2.575 6.139h-132.553l10.348 98.285 14.918-1.57-8.604-81.715h44.044v180h15v37.438h15v-37.438h15v37.438h15v-37.438h15v37.438h15v-37.438h15v37.438h15v-37.438h15.25v37.438h15v-37.438h14.75v-135h84.431l-20.525 194.938h-247.687l-11.928-113.286-14.918 1.57 12.596 119.629.195 37.087h275.797l.195-37.087 27.675-262.851h-29.809l-7.114-17.495c-2.306-7.322-1.942-15.239 1.028-22.325zm-307.354 454.723-.079-15h246.135l-.103 15zm106.169-285.275c3.357-8.006 9.631-14.225 17.666-17.512l47.865-19.581c11.743-4.804 20.913-13.893 25.819-25.594l8.119-19.361 41.498 17.403-8.12 19.362c-4.391 10.473-4.884 22.19-1.388 32.993l5.072 12.525-136.671.095zm61.745 15.338v165h-135v-165zm101.01 30h-86.01v-30h89.169z"/><path d="m365.655 138.792v190.75c0 32.889 24.845 60.07 56.75 63.798v90.39h-37.5v15h90v-15h-37.5v-90.39c31.905-3.728 56.75-30.908 56.75-63.798v-190.75zm64.25 240c-27.156 0-49.25-22.094-49.25-49.25v-115.75h23.25v-15h-23.25v-45h98.5v45h-60.25v15h60.25v115.75c0 27.156-22.094 49.25-49.25 49.25z"/><path d="m418.905 266.229h15.5v15h-15.5z"/><path d="m403.405 281.229h15.5v15h-15.5z"/></g></svg>