<svg id="Capa_1" enable-background="new 0 0 512 512" height="512" viewBox="0 0 512 512" width="512" xmlns="http://www.w3.org/2000/svg"><g><path d="m136 306c-5.523 0-10 4.478-10 10 0 38.598 31.402 70 70 70h30c5.523 0 10-4.478 10-10 0-38.598-31.402-70-70-70zm78.996 60h-18.996c-24.146 0-44.349-17.206-48.996-40h18.996c24.146 0 44.349 17.206 48.996 40z"/><path d="m346 306c-38.598 0-70 31.402-70 70 0 5.522 4.477 10 10 10h30c38.598 0 70-31.402 70-70 0-5.522-4.477-10-10-10zm-30 60h-18.996c4.646-22.794 24.85-40 48.996-40.01h18.996c-4.647 22.804-24.85 40.01-48.996 40.01z"/><path d="m472 126c-13.585 0-26.199 7.053-33.49 18.161-49.258-6.529-107.427 12.624-143.294 51.123-.635-15.55-1.782-35.205-3.851-54.338-2.014-18.618-6.287-50.098-15.243-66.398 11.877-6.944 19.878-19.826 19.878-34.548 0-22.056-17.944-40-40-40s-40 17.944-40 40c0 14.718 7.996 27.596 19.866 34.542-5.79 10.629-12.128 31.478-16.219 76.751-1.423 15.751-2.264 31.336-2.749 44.126-36.365-39.008-94.126-57.962-143.417-51.271-7.292-11.101-19.902-18.148-33.481-18.148-22.056 0-40 17.944-40 40s17.944 40 40 40c12.101 0 23.193-5.336 30.675-14.333 27.02 12.413 48.32 34.117 53.886 54.333h-48.561c-5.523 0-10 4.478-10 10v246c0 5.522 4.477 10 10 10s10-4.478 10-10v-116.796c23.045 36.499 63.736 60.796 110 60.796h120c20.605 0 40.328-4.704 58.62-13.98 4.926-2.498 6.894-8.517 4.396-13.442s-8.516-6.891-13.441-4.396c-15.464 7.841-32.143 11.818-49.575 11.818h-120c-60.654 0-110-49.346-110-110 0-15.48 0-35.335 0-50h80c31.291 0 61.35 13.868 82.468 38.048 1.899 2.175 4.645 3.422 7.532 3.422s5.633-1.247 7.532-3.422c21.118-24.18 51.177-38.048 82.468-38.048h80v50c0 12.964-2.243 25.658-6.665 37.729-1.9 5.187.764 10.931 5.95 12.83 5.185 1.901 10.93-.764 12.83-5.949 5.232-14.283 7.885-29.292 7.885-44.61v-60c0-5.522-4.477-10-10-10h-48.677c5.288-20.592 26.083-41.723 53.985-54.354 7.486 9.012 18.584 14.354 30.692 14.354 22.056 0 40-17.944 40-40s-17.944-40-40-40zm-432 60c-11.028 0-20-8.972-20-20s8.972-20 20-20c10.974 0 20 8.931 20 20 0 10.924-8.786 20-20 20zm216-166c11.028 0 20 8.972 20 20s-8.972 20-20 20-20-8.972-20-20 8.972-20 20-20zm110.86 226h-20.86c-33.475 0-65.713 13.346-90 36.947-24.287-23.601-56.525-36.947-90-36.947h-20.957c-5.92-31.86-36.611-58.887-65.791-72.393.485-2.504.748-5.054.748-7.607 0-.83-.035-1.655-.085-2.478 46.331-4.729 107.253 15.65 137.831 65.933 5.258 8.648 18.655 4.841 18.543-5.305-.074-6.722.354-41.3 3.703-75.601 5.274-54.009 13.591-65.811 16.007-68.153 2.413 2.344 10.718 14.145 16.049 68.188 3.396 34.425 3.879 69.299 3.942 75.939.095 10.142 13.617 13.738 18.684 4.864 27.466-48.109 90.169-70.497 137.41-65.854-.05.819-.084 1.641-.084 2.467 0 2.538.259 5.072.739 7.562-29.963 13.567-60.359 39.889-65.879 72.438zm105.14-60c-11.217 0-20-9.087-20-20 0-11.064 9.02-20 20-20 11.028 0 20 8.972 20 20s-8.972 20-20 20z"/><circle cx="406" cy="396" r="10"/></g></svg>