<svg height="512pt" viewBox="-3 0 512 512.00205" width="512pt" xmlns="http://www.w3.org/2000/svg"><path d="m490.214844 297.320312c-3.996094-3.8125-10.324219-3.667968-14.140625.332032-3.8125 3.992187-3.667969 10.324218.328125 14.136718 9.886718 9.441407 12.738281 18.773438 7.441406 24.363282-4.582031 4.839844-16.050781 6.9375-27.207031-3.550782-29.179688-27.429687-60.996094-30.386718-74.894531-17.394531-4.539063 4.242188-17.449219 20.398438 6.976562 50.167969 9.0625 11.046875 10.660156 16.148438 10.933594 17.808594-2.667969 1.402344-10.398438 2.144531-14.269532 2.515625-8.785156.84375-17.082031 1.640625-22.183593 6.972656-10.695313 11.175781-15.347657 20.820313-14.644531 30.359375.917968 12.476562 10.695312 20.074219 19.324218 26.777344 13.105469 10.179687 17.632813 15.125 13.121094 26.777344-5.941406 15.335937-23.792969 16.363281-48.609375 14.894531v-93.738281c.296875-.265626.597656-.519532.894531-.792969 16.210938-14.925781 17.019532-29.9375 14.839844-39.90625-2.132812-9.769531-7.941406-18.789063-15.734375-26.878907v-109.488281c7.34375 11.367188 15.476563 21.597657 27.730469 22.261719 16.101562.871094 31.515625 5.738281 47.128906 14.871094 4.769531 2.792968 10.894531 1.1875 13.683594-3.582032 2.789062-4.769531 1.183594-10.894531-3.582032-13.683593-18.429687-10.777344-36.792968-16.53125-56.148437-17.578125-3.996094-.21875-10.714844-10.996094-15.621094-18.863282-7.316406-11.742187-15.609375-25.050781-28.128906-32.316406-7.757813-4.503906-16.1875-6.222656-24.335937-7.882812-15.230469-3.105469-27.257813-5.554688-34.777344-24.382813-1.417969-3.550781-.585938-5.605469 14.296875-14.71875 8.933593-5.46875 19.058593-11.671875 25.664062-21.347656 23.011719-33.699219 5.652344-53.980469-11.132812-73.589844-3.476563-4.0625-7.070313-8.261719-10.601563-12.8125-18.191406-23.441406-54.9375-16.746093-65.765625-14.136719-19.207031 4.632813-28.289062 17.425782-33.167969 24.296876-.6875.96875-1.574218 2.21875-2.15625 2.9375-9.96875 3.855468-11.992187 1.59375-18.199218-5.34375-6.648438-7.4375-15.757813-17.621094-35.597656-17.621094-9.203126 0-15.804688 2.410156-20.1875 7.367187-6.890626 7.800781-5.550782 18.601563-4.132813 30.035157.703125 5.664062 1.429687 11.519531 1.429687 17.757812 0 3.292969-.253906 5.628906-.554687 7.242188-2.226563-2.324219-5.289063-6.636719-8.042969-13.34375-5.5625-13.550782-15.675781-21.363282-28.476562-21.988282-22.347656-1.089844-45.757813 20.015625-54.050782 35.671875-7.164062 13.53125-3.429687 21.929688-.566406 25.730469 6.992188 9.285156 5.175782 14.667969.015625 27.019531-3.332031 7.980469-7.113281 17.03125-7.113281 28.417969 0 16.457031 20.761719 42.1875 37.027344 45.886719 17.234375 3.917969 27.746094-4.097657 37.011718-11.175781 5.28125-4.027344 10.269532-7.835938 16.855469-10.03125 2.542969-.851563 4.820313-2.378907 7.230469-3.996094 1.863281-1.25 6.246094-4.199219 7.6875-4.03125.023438.011718 2.71875 1.429687 5.539062 11.128906.914063 3.136719.601563 4.84375.03125 7.9375-1.441406 7.863281-2.023437 15.523438 5.546876 29.699219 10.089843 18.894531 22.101562 39.273437 37.097656 54.445312.0625.0625.121094.125.183594.183594 4.570312 4.601563 9.414062 8.726563 14.570312 12.171875 1.707031 1.140625 3.636719 1.6875 5.546875 1.6875 3.230469 0 6.398437-1.5625 8.324219-4.449219 3.070312-4.589843 1.835937-10.800781-2.757813-13.871093-2.996093-2-5.890625-4.328126-8.695312-6.914063v-208.023437c3.808593-.441407 8.082031-1.53125 12.917969-3.503907 4.390624-1.785156 7.03125-5.507812 9.828124-9.445312 4.289063-6.039063 9.625-13.554688 21.546876-16.429688 15.496093-3.738281 36.652343-4.160156 45.273437 6.953125 3.824219 4.929688 7.578125 9.3125 11.207031 13.554688 16.605469 19.398437 24.183594 28.253906 9.8125 49.304687-4.1875 6.136719-12.019531 10.929688-19.59375 15.566407-6.886718 4.21875-13.394531 8.203124-18.0625 13.570312-6.546875 7.515625-8.054687 16.378906-4.363281 25.621094 11.523437 28.859375 32.503906 33.132812 49.359375 36.570312 6.875 1.398438 13.367188 2.722656 18.289062 5.578125 1.726563 1.003907 3.382813 2.277344 4.980469 3.738281v120.917969c-16.722656-11.234375-35.597656-19.375-48.375-23.523437-5.253906-1.707032-10.894531 1.171875-12.601562 6.425781-1.703125 5.253906 1.171875 10.894531 6.425781 12.601563 31.410156 10.191406 66.460938 32.457031 70.746094 52.074218.574218 2.628906 2.324218 10.632813-8.847656 20.917969-14.765626 13.59375-30.035157 11.410156-47.714844 8.882813-16.332032-2.335938-34.84375-4.980469-51.628906 7.449218-12.238282 9.058594-14.617188 19.121094-14.460938 25.96875.25 10.652344 6.902344 21.378906 17.796875 28.691406 5.847656 3.921876 12.109375 6.371094 17.636719 8.53125 8.917968 3.488282 14.050781 5.699219 15.890625 10.550782 6.074219 16.027344 26.222656 37.945312 48.476562 37.945312.214844 0 .429688-.003906.648438-.007812 5.496093-.109375 11.941406.339844 18.769531.8125 6.539062.449218 13.679688.945312 20.90625.945312 21.816406 0 44.417969-4.496094 53.59375-28.195312 10.316406-26.632813-7.625-40.570313-19.5-49.796875-5.597656-4.347657-11.382812-8.84375-11.648438-12.449219-.109374-1.503906.523438-5.882812 8.597657-14.480469 1.890625-.671875 6.839843-1.144531 10.191406-1.46875 11.585937-1.113281 26-2.496093 30.992187-14.503906 5.191407-12.484375-4.808593-27.089844-14.101562-38.417969-9.472656-11.546875-11.589844-20.246094-8.785156-22.867187 5.089844-4.753907 25.898437-2.988281 47.535156 17.355469 19.214844 18.058593 43.273438 15.570312 55.433594 2.730468 11.089844-11.714844 12.871094-32.515625-8.15625-52.589844zm-359.15625-106.894531c.730468-3.988281 1.734375-9.453125-.5-17.136719-3.902344-13.417968-9.761719-21.382812-17.914063-24.34375-10.640625-3.863281-20.050781 2.449219-25.671875 6.226563-.902344.605469-2.117187 1.421875-2.660156 1.710937-9.613281 3.257813-16.40625 8.441407-22.410156 13.023438-8.550782 6.527344-12.65625 9.339844-20.4375 7.566406-2.035156-.460937-7.464844-3.910156-13.375-11.195312-5.890625-7.257813-8.085938-13.164063-8.085938-15.183594 0-7.378906 2.703125-13.855469 5.570313-20.710938 5.144531-12.316406 11.535156-27.617187-2.058594-46.167968.132813-5.9375 15.414063-25.203125 31.75-29.34375 8.195313-2.078125 12.953125.519531 16.421875 8.96875 7.878906 19.191406 19.960938 29.683594 31.535156 27.414062 7.101563-1.402344 15.570313-7.554687 15.570313-28.90625 0-7.480468-.839844-14.25-1.582031-20.222656-.601563-4.859375-1.5-12.109375-.707032-14.273438.460938-.199218 1.890625-.667968 5.175782-.667968 10.894531 0 15 4.59375 20.6875 10.953125 2.5 2.792969 5.308593 5.929687 8.828124 8.507812v188.796875c-6.070312-9.125-11.589843-18.925781-16.625-28.351562-4.890624-9.164063-4.3125-12.3125-3.511718-16.664063zm174.9375 299.820313c-.09375.003906-.1875.003906-.28125.003906-12.195313 0-25.945313-14.992188-29.75-25.03125-5.078125-13.394531-16.890625-18.011719-27.3125-22.089844-5.011719-1.960937-9.746094-3.8125-13.773438-6.515625-5.257812-3.527343-8.851562-8.566406-8.945312-12.542969-.070313-3.078124 2.070312-6.25 6.363281-9.429687 9.695313-7.175781 20.335937-6.089844 36.894531-3.722656 12.917969 1.84375 27.996094 3.996093 43.199219-1.25v80.632812c-2.179687-.066406-4.316406-.09375-6.394531-.054687zm0 0"/><path d="m126.886719 366.28125c-5.128907-4.199219-9.191407-7.523438-10.273438-19.074219-.203125-12.964843-8.257812-31.664062-21.167969-39.75-7.996093-5.003906-17.019531-5.515625-25.410156-1.441406-19.757812 9.597656-29.207031 18.070313-32.613281 29.246094-3.359375 11.019531-.054687 22.144531 4.515625 37.539062.796875 2.683594 1.644531 5.535157 2.511719 8.570313 4.378906 15.355468 35.28125 56.4375 58.460937 56.898437 1.4375.027344 2.84375.046875 4.214844.046875 10.742188 0 19.441406-1.183594 25.25-8.457031 5.253906-6.582031 5.945312-15.261719 7.191406-31.015625l.324219-4.03125c1.363281-16.78125-6.941406-23.574219-13.003906-28.53125zm-6.933594 26.914062-.324219 4.066407c-.707031 8.914062-1.441406 18.132812-2.84375 20.058593-.921875.546876-4.027344 1.136719-13.480468.949219-2.507813-.050781-10.394532-3.644531-22.289063-16.890625-10.058594-11.199218-16.289063-21.835937-17.335937-25.5-.886719-3.109375-1.75-6.023437-2.566407-8.769531-3.578125-12.050781-6.164062-20.753906-4.558593-26.015625 1.558593-5.109375 8.410156-10.378906 22.21875-17.085938.980468-.476562 1.859374-.714843 2.730468-.714843 1.074219 0 2.128906.367187 3.328125 1.117187 6.34375 3.972656 11.78125 16.128906 11.78125 23.289063 0 .289062.011719.578125.039063.867187 1.761718 20.257813 11.273437 28.039063 17.566406 33.191406 4.925781 4.027344 6.246094 5.113282 5.734375 11.4375zm0 0"/><path d="m216.84375 300.515625c4.355469 0 8.359375-2.863281 9.613281-7.257813 1.519531-5.3125-1.558593-10.847656-6.867187-12.363281h-.007813c-5.3125-1.515625-10.84375 1.558594-12.359375 6.867188-1.519531 5.3125 1.558594 10.847656 6.871094 12.367187.917969.261719 1.839844.386719 2.75.386719zm0 0"/><path d="m442.148438 283.65625c1.867187 1.558594 4.140624 2.316406 6.398437 2.316406 2.863281 0 5.707031-1.226562 7.6875-3.597656 3.535156-4.242188 2.960937-10.550781-1.28125-14.085938l-.007813-.007812c-4.238281-3.53125-10.542968-2.957031-14.082031 1.285156-3.535156 4.246094-2.957031 10.550782 1.285157 14.089844zm0 0"/></svg>