<svg id="Capa_1" enable-background="new 0 0 496.75 496.75" height="512" viewBox="0 0 496.75 496.75" width="512" xmlns="http://www.w3.org/2000/svg"><g><path d="m480.812 330.875h7.5v-15h-7.5v-89.937h7.5v-15h-165v15h142.5v89.937h-22.5v-44.167c0-16.634-13.533-30.167-30.167-30.167s-30.167 13.533-30.167 30.167v44.167h-14.667v-44.167c0-16.634-13.533-30.167-30.167-30.167s-30.167 13.533-30.167 30.167v44.167h-9.569l-11.57-89.937h6.473v-15h-64.623l-6.681-53.431-14.884 1.861 6.448 51.569h-25.094v-44.167c0-16.634-13.533-30.167-30.167-30.167s-30.167 13.533-30.167 30.167v44.167h-14.271v-44.167c0-16.634-13.533-30.167-30.167-30.167s-30.167 13.533-30.167 30.167v44.167h-22.725v-90.063h171.499l2.93 23.431 14.884-1.861-2.697-21.569h11.01v-15h-12.885l-5.619-44.937h-194.122v44.937h-7.375v15h7.375v90.063h-7.375v15h7.375v89.937h-7.375v15h7.375v89.938h-15.813v15h496.75v-15h-15.938zm-449.999-254.937h165.879l3.744 29.937h-34.623v-14.334h-15v14.333h-30v-14.333h-15v14.333h-29.875v-14.333h-15v14.333h-30.125zm367.166 195.77c0-8.363 6.804-15.167 15.167-15.167s15.167 6.804 15.167 15.167v44.167h-30.333v-44.167zm-254.833-104.937c0-8.363 6.804-15.167 15.167-15.167s15.167 6.804 15.167 15.167v44.167h-30.333v-44.167zm-74.604 0c0-8.363 6.804-15.167 15.167-15.167s15.167 6.804 15.167 15.167v44.167h-30.334zm-37.729 59.167h240.903l11.57 89.937h-19.807v-44.167c0-16.634-13.533-30.167-30.166-30.167s-30.167 13.533-30.167 30.167v44.167h-14.667v-44.167c0-16.634-13.533-30.167-30.167-30.167s-30.167 13.533-30.167 30.167v44.167h-14.271v-44.167c0-16.634-13.533-30.167-30.167-30.167s-30.167 13.533-30.167 30.167v44.167h-22.727zm217.666 45.77v44.167h-30.333v-44.167c0-8.363 6.804-15.167 15.167-15.167s15.166 6.804 15.166 15.167zm-75 0v44.167h-30.333v-44.167c0-8.363 6.804-15.167 15.167-15.167s15.166 6.804 15.166 15.167zm-74.604 0v44.167h-30.333v-44.167c0-8.363 6.804-15.167 15.167-15.167s15.166 6.804 15.166 15.167zm0 149.104h-30.333v-44.167c0-8.363 6.804-15.167 15.167-15.167s15.167 6.804 15.167 15.167v44.167zm74.604 0h-30.333v-44.167c0-8.363 6.804-15.167 15.167-15.167s15.167 6.804 15.167 15.167v44.167zm75 0h-30.333v-44.167c0-8.363 6.804-15.167 15.167-15.167s15.167 6.804 15.167 15.167v44.167zm56.833 0h-12.167v-44.167c0-8.363 6.804-15.167 15.167-15.167v-15c-16.634 0-30.167 13.533-30.167 30.167v44.167h-14.667v-44.167c0-16.634-13.533-30.167-30.166-30.167s-30.167 13.533-30.167 30.167v44.167h-14.667v-44.167c0-16.634-13.533-30.167-30.167-30.167s-30.167 13.533-30.167 30.167v44.167h-14.271v-44.167c0-16.634-13.533-30.167-30.167-30.167s-30.167 13.533-30.167 30.167v44.167h-22.726v-89.938h302.403l11.57 89.938zm17.667-104.937v-44.167c0-8.363 6.804-15.167 15.167-15.167s15.167 6.804 15.167 15.167v44.167h-6.903zm105.333 104.937h-30.333v-44.167c0-8.363 6.804-15.167 15.167-15.167s15.167 6.804 15.167 15.167v44.167zm37.5 0h-22.5v-44.167c0-16.634-13.533-30.167-30.167-30.167s-30.167 13.533-30.167 30.167v44.167h-23.068l-11.57-89.938h117.473v89.938z"/></g></svg>