<svg id="Capa_1" enable-background="new 0 0 512 512" height="512" viewBox="0 0 512 512" width="512" xmlns="http://www.w3.org/2000/svg"><g><circle cx="143" cy="502" r="10"/><path d="m233 394c0-30.327-24.673-55-55-55h-60c-30.327 0-55 24.673-55 55s24.673 55 55 55h60c30.327 0 55-24.673 55-55zm-150 0c0-19.299 15.701-35 35-35h60c19.299 0 35 15.701 35 35s-15.701 35-35 35h-60c-19.299 0-35-15.701-35-35z"/><path d="m433.606 2.493c-3.777-3.324-9.436-3.324-13.213 0-3.201 2.817-78.393 71.595-78.393 298.507 0 72.077 53.875 99.977 74.157 110.479.286.148.567.294.843.437v90.084c0 5.522 4.478 10 10 10s10-4.478 10-10v-90.097c.34-.177.686-.357 1.042-.542 20.228-10.499 73.958-38.387 73.958-110.361 0-226.912-75.192-295.69-78.394-298.507zm3.394 386.758v-69.109l27.071-27.071c3.905-3.905 3.905-10.237 0-14.143-3.906-3.904-10.236-3.904-14.143 0l-12.928 12.929v-31.715l27.071-27.071c3.905-3.905 3.905-10.237 0-14.143-3.906-3.904-10.236-3.904-14.143 0l-12.928 12.929v-35.857c0-5.522-4.478-10-10-10s-10 4.478-10 10v35.857l-12.929-12.929c-3.906-3.904-10.236-3.904-14.143 0-3.905 3.905-3.905 10.237 0 14.143l27.072 27.072v31.715l-12.929-12.929c-3.906-3.904-10.236-3.904-14.143 0-3.905 3.905-3.905 10.237 0 14.143l27.072 27.071v69.125c-21.21-11.834-55-35.998-55-88.268 0-84.253 12.906-210.462 65-276.043 52.011 65.477 65 191.46 65 276.043 0 52.32-33.861 76.457-55 88.251z"/><path d="m40 512h58c5.522 0 10-4.478 10-10s-4.478-10-10-10h-58c-11.028 0-20-8.972-20-20v-156c0-11.028 8.972-20 20-20h216c11.028 0 20 8.972 20 20v156c0 11.028-8.972 20-20 20h-68c-5.522 0-10 4.478-10 10s4.478 10 10 10h68c22.056 0 40-17.944 40-40v-156c0-22.056-17.944-40-40-40h-53v-40h20c5.522 0 10-4.478 10-10v-60c0-5.522-4.478-10-10-10h-150c-5.522 0-10 4.478-10 10v60c0 5.522 4.478 10 10 10h20v40h-53c-22.056 0-40 17.944-40 40v156c0 22.056 17.944 40 40 40zm143-236h-70v-40h70zm-100-60v-40h130v40z"/></g></svg>