<svg height="511pt" viewBox="-26 0 511 511.99955" width="511pt" xmlns="http://www.w3.org/2000/svg"><path d="m438.113281 178.210938c-2.253906-5.039063-8.167969-7.300782-13.210937-5.046876-5.042969 2.253907-7.304688 8.167969-5.046875 13.210938 12.285156 27.484375 19.121093 56.058594 20.402343 85.078125h-64.632812c-18.332031 0-33.25 14.917969-33.25 33.25v28.050781c0 9.789063-7.960938 17.75-17.75 17.75-9.785156 0-17.75-7.960937-17.75-17.75v-28.050781c0-18.332031-14.914062-33.25-33.246094-33.25h-120.746094c-5.519531 0-10 4.480469-10 10 0 5.523437 4.480469 10 10 10h120.746094c7.304688 0 13.25 5.945313 13.25 13.25v28.050781c0 20.816406 16.933594 37.75 37.746094 37.75 20.816406 0 37.75-16.933594 37.75-37.75v-28.050781c0-7.304687 5.945312-13.25 13.25-13.25h64.871094v179.484375c0 11.613281-9.414063 21.0625-20.984375 21.0625h-378.023438c-11.574219 0-20.988281-9.449219-20.988281-21.0625v-179.480469h42.382812c5.523438 0 10-4.476562 10-10 0-5.523437-4.476562-10-10-10h-39.84375c.738282-1.371093 1.609376-2.671875 2.644532-3.859375.113281-.128906.222656-.257812.324218-.390625l40.019532-50.90625c9.417968 6.753907 20.8125 10.492188 32.5625 10.492188 30.78125 0 55.824218-25.042969 55.824218-55.824219 0-16.464844-7.246093-31.863281-19.453124-42.351562l79.078124-100.589844c6.210938-7.917969 17.171876-10.308594 26.066407-5.683594.21875.113281.4375.214844.660156.3125 52.226563 22.472656 97.605469 54.011719 131.242187 91.210938 3.703126 4.097656 10.023438 4.414062 14.125.710937 4.09375-3.703125 4.414063-10.027344.710938-14.125-35.480469-39.242187-83.144531-72.445313-137.859375-96.035156-17.363281-8.820313-38.621094-4.117188-50.675781 11.257812l-85.605469 108.890625c-1.816406 2.3125-2.527344 5.308594-1.9375 8.1875s2.417969 5.355469 4.996094 6.765625c11.503906 6.300781 18.652343 18.347657 18.652343 31.449219 0 19.75-16.074218 35.820312-35.828124 35.820312-10.058594 0-19.714844-4.269531-26.492188-11.710937-1.980469-2.175781-4.824219-3.375-7.757812-3.261719-2.9375.105469-5.683594 1.5-7.5 3.8125l-46.402344 59.03125c-6.410156 7.445313-9.933594 16.949219-9.933594 26.792969v189.484375c0 22.640625 18.386719 41.0625 40.984375 41.0625h378.023437c22.601563 0 40.988282-18.421875 40.988282-41.0625v-189.480469c0-35.285156-7.53125-70.023437-22.382813-103.246093zm0 0"/><path d="m262.945312 119.34375c0-19.160156-15.589843-34.746094-34.75-34.746094-19.160156 0-34.75 15.585938-34.75 34.746094 0 19.164062 15.589844 34.75 34.75 34.75 19.160157 0 34.75-15.585938 34.75-34.75zm-49.5 0c0-8.132812 6.617188-14.75 14.75-14.75 8.132813 0 14.75 6.617188 14.75 14.75s-6.617187 14.75-14.75 14.75c-8.132812 0-14.75-6.613281-14.75-14.75zm0 0"/><path d="m275.355469 193.757812c0 25.3125 20.589843 45.902344 45.898437 45.902344 25.3125 0 45.902344-20.589844 45.902344-45.902344 0-25.308593-20.59375-45.898437-45.902344-45.898437s-45.898437 20.589844-45.898437 45.898437zm45.898437-25.898437c14.285156 0 25.902344 11.617187 25.902344 25.898437s-11.617188 25.902344-25.902344 25.902344c-14.277344 0-25.898437-11.621094-25.898437-25.902344s11.617187-25.898437 25.898437-25.898437zm0 0"/><path d="m67.609375 417.257812c0 25.308594 20.589844 45.898438 45.898437 45.898438 25.3125 0 45.902344-20.589844 45.902344-45.898438 0-25.3125-20.59375-45.902343-45.902344-45.902343-25.308593 0-45.898437 20.589843-45.898437 45.902343zm45.898437-25.902343c14.28125 0 25.902344 11.621093 25.902344 25.902343s-11.621094 25.898438-25.902344 25.898438-25.898437-11.617188-25.898437-25.898438 11.617187-25.902343 25.898437-25.902343zm0 0"/><path d="m338.257812 427.757812c0 19.160157 15.585938 34.75 34.746094 34.75 19.164063 0 34.75-15.589843 34.75-34.75 0-19.164062-15.585937-34.75-34.75-34.75-19.160156 0-34.746094 15.585938-34.746094 34.75zm49.5 0c0 8.132813-6.617187 14.75-14.753906 14.75-8.132812 0-14.746094-6.617187-14.746094-14.75 0-8.132812 6.613282-14.75 14.746094-14.75 8.136719 0 14.753906 6.617188 14.753906 14.75zm0 0"/><path d="m259.257812 351.257812c0-19.160156-15.589843-34.75-34.75-34.75-19.160156 0-34.75 15.589844-34.75 34.75 0 19.160157 15.589844 34.75 34.75 34.75 19.160157 0 34.75-15.589843 34.75-34.75zm-49.5 0c0-8.132812 6.617188-14.75 14.75-14.75 8.132813 0 14.75 6.617188 14.75 14.75 0 8.132813-6.617187 14.75-14.75 14.75-8.132812 0-14.75-6.617187-14.75-14.75zm0 0"/><path d="m56.871094 338.707031c-5.519532 0-9.996094 4.476563-9.996094 10 0 5.519531 4.480469 9.996094 10.003906 9.996094 5.523438 0 10-4.476563 10-9.996094 0-5.523437-4.476562-10-10-10zm0 0"/><path d="m203.121094 429.703125c-5.523438 0-9.996094 4.476563-9.996094 10s4.480469 10 10.003906 10c5.523438 0 10-4.476563 10-10s-4.476562-10-10-10zm0 0"/><path d="m202.371094 201.707031c-5.523438 0-9.996094 4.476563-9.996094 10 0 5.523438 4.480469 10 10.003906 10 5.523438 0 10-4.476562 10-10 0-5.523437-4.480468-10-10-10zm0 0"/><path d="m318.875 109.707031c0-5.523437-4.476562-10-10-10h-.003906c-5.523438 0-10 4.476563-10 10 0 5.523438 4.484375 10 10.003906 10 5.523438 0 10-4.476562 10-10zm0 0"/><path d="m293.378906 419.453125c0-5.523437-4.480468-10-10-10h-.007812c-5.523438 0-9.996094 4.476563-9.996094 10s4.480469 10 10.003906 10c5.523438 0 10-4.476563 10-10zm0 0"/><path d="m148.378906 323.957031h-.007812c-5.523438 0-9.996094 4.476563-9.996094 10 0 5.519531 4.480469 10 10.003906 10 5.523438 0 10-4.480469 10-10 0-5.523437-4.476562-10-10-10zm0 0"/><path d="m385.121094 234.957031c0 5.523438 4.484375 10 10.003906 10 5.523438 0 10-4.476562 10-10 0-5.523437-4.476562-10-10-10h-.003906c-5.523438 0-10 4.476563-10 10zm0 0"/><path d="m406.628906 341.457031c0-5.523437-4.476562-10-10-10h-.007812c-5.523438 0-9.996094 4.476563-9.996094 10 0 5.519531 4.480469 10 10.003906 10 5.523438 0 10-4.480469 10-10zm0 0"/><path d="m117.886719 281.457031c0-5.523437-4.476563-10-10-10h-.007813c-5.519531 0-9.996094 4.476563-9.996094 10 0 5.523438 4.480469 10 10.003907 10 5.523437 0 10-4.476562 10-10zm0 0"/><path d="m407.144531 152.738281c2.128907 0 4.273438-.675781 6.089844-2.074219 4.378906-3.367187 5.199219-9.644531 1.832031-14.023437l-.007812-.003906c-3.367188-4.378907-9.640625-5.195313-14.019532-1.828125-4.378906 3.367187-5.195312 9.648437-1.828124 14.027344 1.972656 2.558593 4.9375 3.902343 7.933593 3.902343zm0 0"/></svg>