<svg id="Capa_1" enable-background="new 0 0 496.111 496.111" height="512" viewBox="0 0 496.111 496.111" width="512" xmlns="http://www.w3.org/2000/svg"><g><g><path d="m36.224 399.893c-1.571-4.396-2.802-8.896-3.655-13.373l14.734-2.811c.709 3.719 1.734 7.464 3.046 11.133zm9.873-29.589-14.998-.204c.077-5.69.786-11.262 2.107-16.559l14.555 3.63c-1.042 4.178-1.602 8.597-1.664 13.133zm6.394-25.236-13.117-7.276c2.775-5.002 6.224-9.58 10.249-13.606l10.607 10.606c-3.038 3.038-5.642 6.496-7.739 10.276z"/></g><g><path d="m125.765 481.111c-.006 0-.013 0-.019 0l-.004 15h.022c5.174 0 10.342-.374 15.36-1.11l-2.178-14.841c-4.3.632-8.734.951-13.181.951z"/><path d="m16.028 377.902c-1.793-25.209 6.276-48.148 22.721-64.592 14.321-14.322 34.136-22.468 55.792-22.937 21.266-.459 38.489-15.144 41.884-35.709 2.355-14.27 8.778-26.991 18.574-36.787 8.258-8.258 18.329-14.012 29.934-17.102l-3.859-14.495c-14.19 3.778-26.531 10.841-36.682 20.991-12.024 12.026-19.897 27.57-22.766 44.951-2.201 13.333-13.473 22.854-27.409 23.156-25.541.553-49.007 10.257-66.075 27.326-19.566 19.565-29.182 46.649-27.077 76.262 2.077 29.211 15.357 57.435 37.394 79.472 19.955 19.954 45.522 32.956 71.994 36.612l2.053-14.859c-23.253-3.211-45.783-14.703-63.439-32.359-19.485-19.485-31.218-44.32-33.039-69.93z"/><path d="m495.331 71.025-71.024-71.025-20.139 20.139-14.165-14.164-10.607 10.606 14.165 14.165-19.602 19.602-14.165-14.165-10.609 10.607 14.166 14.165-18.613 18.613 15.921 15.921-102.899 102.898c-18.539-10.982-39.524-16.253-59.756-14.888l1.016 14.966c16-1.087 32.657 2.775 47.739 10.924l-63.305 63.305c-12.776-2.284-26.047.475-36.802 7.737-9.524 6.43-16.759 16.058-20.092 27.071-2.294 7.58-2.78 15.694-1.408 23.493l-25.952 25.952-9.219-9.219-10.607 10.606 59.188 59.188 10.607-10.606-9.219-9.22 25.928-25.928c12.016 2.11 24.63-.323 35.05-6.651 10.917-6.631 18.938-17.328 22.267-29.66 1.931-7.155 2.295-14.725 1.023-22.028l63.289-63.289c7.702 14.276 11.601 30.048 11.053 45.257-.658 18.297-7.416 34.376-19.541 46.501-9.794 9.795-22.515 16.218-36.787 18.574-20.564 3.395-35.249 20.619-35.708 41.884-.47 21.657-8.615 41.472-22.938 55.793-8.859 8.86-19.548 15.283-31.769 19.09l4.463 14.321c14.562-4.538 27.318-12.21 37.913-22.805 17.068-17.068 26.773-40.534 27.326-66.075.302-13.937 9.823-25.208 23.155-27.409 17.383-2.87 32.927-10.743 44.951-22.767 14.642-14.642 23.138-34.731 23.924-56.568.694-19.265-4.631-39.207-15.041-56.799l102.899-102.899 14.354 14.354 18.613-18.613 14.164 14.165 10.607-10.606-14.165-14.165 19.602-19.602 14.164 14.165 10.607-10.606-14.165-14.165zm-235.822 146.827 19.603-19.603 19.537 19.537-19.603 19.603zm8.93 30.144-19.518 19.518-19.537-19.537 19.518-19.518zm21.28-60.354 19.602-19.602 19.537 19.537-19.602 19.602zm30.209-30.209 19.602-19.602 19.537 19.537-19.602 19.602zm-190.584 229.658-19.537-19.537 20.886-20.887c4.532 8.161 11.379 14.999 19.529 19.545zm76.682-48.563c-.892 1.73-1.929 3.386-3.102 4.941-8.89 11.789-24.774 16.809-38.856 12.429-13.52-4.205-23.274-16.667-24.553-30.709-1.258-13.817 6.103-27.209 18.182-33.92 12.967-7.205 29.411-5.196 40.492 4.602 11.958 10.575 15.137 28.502 7.837 42.657zm12.66-40.779c-4.53-8.155-11.383-15.004-19.537-19.537l19.628-19.628 19.537 19.537zm150.988-150.988-19.537-19.537 21.128-21.128 19.537 19.537zm42.341-21.128-40.75-40.75-5.314-5.314 58.355-58.355 49.812 49.812-58.355 58.355z"/><path d="m110.143 181.404c20.678 0 37.5-13.444 37.5-29.969 0-1.332-.092-75.094-.092-75.094h7.048c8.535 0 16.599 3.284 22.706 9.247l10.479-10.732c-8.926-8.715-20.711-13.514-33.185-13.514h-22.048v66.078c-6.256-3.738-14.014-5.953-22.408-5.953-20.678 0-37.5 13.444-37.5 29.969s16.823 29.968 37.5 29.968zm0-44.937c12.196 0 22.5 6.855 22.5 14.969s-10.304 14.969-22.5 14.969-22.5-6.855-22.5-14.969 10.304-14.969 22.5-14.969z"/><path d="m355.697 330.565v66.078c-6.256-3.738-14.014-5.953-22.408-5.953-20.678 0-37.5 13.444-37.5 29.969s16.822 29.969 37.5 29.969 37.5-13.444 37.5-29.969c0-1.332-.092-75.094-.092-75.094h7.048c8.535 0 16.599 3.284 22.706 9.247l10.479-10.732c-8.926-8.715-20.711-13.514-33.185-13.514h-22.048zm-22.408 105.062c-12.196 0-22.5-6.855-22.5-14.969s10.304-14.969 22.5-14.969 22.5 6.855 22.5 14.969-10.304 14.969-22.5 14.969z"/></g></g></svg>