<svg height="512pt" viewBox="-46 0 512 512" width="512pt" xmlns="http://www.w3.org/2000/svg"><path d="m340 160c44.113281 0 80-35.886719 80-80s-35.886719-80-80-80h-170c-5.523438 0-10 4.476562-10 10s4.476562 10 10 10h170c33.085938 0 60 26.914062 60 60s-26.914062 60-60 60c-13.785156 0-25-11.214844-25-25s11.214844-25 25-25c5.523438 0 10-4.476562 10-10s-4.476562-10-10-10c-21.375 0-39.304688 14.984375-43.867188 35h-172.265624c-4.5625-20.015625-22.492188-35-43.867188-35-5.523438 0-10 4.476562-10 10s4.476562 10 10 10c13.785156 0 25 11.214844 25 25s-11.214844 25-25 25c-33.085938 0-60-26.914062-60-60s26.914062-60 60-60c5.523438 0 10-4.476562 10-10s-4.476562-10-10-10c-44.113281 0-80 35.886719-80 80s35.886719 80 80 80c.839844 0 1.671875-.027344 2.5-.074219v253.792969c-11.640625 4.128906-20 15.246094-20 28.28125v11.714844c-11.640625 4.125-20 15.246094-20 28.285156v20c0 5.523438 4.476562 10 10 10h320c5.523438 0 10-4.476562 10-10v-20c0-13.039062-8.359375-24.160156-20-28.285156v-11.714844c0-14.839844-10.828125-27.1875-25-29.574219v-252.5c.828125.046875 1.660156.074219 2.5.074219zm2.5 282v20c0 5.523438 4.480469 10 10 10 5.515625 0 10 4.484375 10 10v10h-300v-10c0-5.515625 4.484375-10 10-10h190c5.523438 0 10-4.476562 10-10s-4.476562-10-10-10h-180v-10c0-5.515625 4.484375-10 10-10h240c5.515625 0 10 4.484375 10 10zm-25-30h-215v-258.054688c10.65625-6.179687 18.554688-16.601562 21.367188-28.945312h172.265624c2.8125 12.34375 10.710938 22.765625 21.367188 28.945312zm0 0"/><path d="m115 60h190c5.523438 0 10-4.476562 10-10 0-5.519531-4.476562-10-10-10h-190c-5.523438 0-10 4.480469-10 10 0 5.523438 4.476562 10 10 10zm0 0"/><path d="m135 155.003906c-5.519531 0-10 4.476563-10 10v206.992188c0 5.523437 4.480469 10 10 10 5.523438 0 10-4.476563 10-10v-206.992188c0-5.523437-4.476562-10-10-10zm0 0"/><path d="m185 155.003906c-5.523438 0-10 4.476563-10 10v206.992188c0 5.523437 4.476562 10 10 10s10-4.476563 10-10v-206.992188c0-5.523437-4.476562-10-10-10zm0 0"/><path d="m235 155.003906c-5.523438 0-10 4.476563-10 10v206.992188c0 5.523437 4.476562 10 10 10s10-4.476563 10-10v-206.992188c0-5.523437-4.476562-10-10-10zm0 0"/><path d="m285 155.003906c-5.523438 0-10 4.476563-10 10v206.992188c0 5.523437 4.476562 10 10 10s10-4.476563 10-10v-206.992188c0-5.523437-4.476562-10-10-10zm0 0"/><path d="m125.003906 20c5.523438 0 10-4.476562 10-10s-4.476562-10-10-10h-.007812c-5.523438 0-9.996094 4.476562-9.996094 10s4.480469 10 10.003906 10zm0 0"/><path d="m307.503906 452h-.007812c-5.519532 0-9.996094 4.476562-9.996094 10s4.480469 10 10.003906 10c5.523438 0 10-4.476562 10-10s-4.476562-10-10-10zm0 0"/></svg>