<svg height="512pt" viewBox="-26 0 512 512" width="512pt" xmlns="http://www.w3.org/2000/svg"><path d="m159.875 184.191406v-174.191406c0-5.523438-4.476562-10-10-10h-80.25c-5.523438 0-10 4.476562-10 10v60.003906c0 5.519532 4.476562 10 10 10h70.25v110.480469c0 3.953125 2.332031 7.539063 5.949219 9.140625 29.511719 13.074219 49.566406 40.71875 53.109375 72.125h-89.183594c-5.523438 0-10 4.476562-10 10v180.25c0 5.523438 4.476562 10 10 10h89.75v10c0 5.511719-4.484375 10-10 10h-159.5c-5.515625 0-10-4.488281-10-10v-200.25c0-35.441406 21.070312-67.675781 53.675781-82.125 3.617188-1.601562 5.949219-5.1875 5.949219-9.140625v-30.480469c0-5.523437-4.476562-10-10-10s-10 4.476563-10 10v24.1875c-36.429688 18.804688-59.625 56.410156-59.625 97.558594v200.25c0 16.542969 13.457031 30 30 30h159.5c16.542969 0 30-13.457031 30-30v-200.25c0-41.148438-23.195312-78.753906-59.625-97.558594zm-20-124.1875h-60.25v-40.003906h60.25zm-20.125 391.996094v-160.25h79.75v160.25zm0 0"/><path d="m361.125 430.945312v-46.46875c55.363281-5.699218 98.875-58.242187 98.875-122.011718 0-.0625-.003906-.125-.003906-.1875 0-.046875 0-.09375-.003906-.140625-.0625-28.363281-8.601563-60.960938-23.453126-89.503907-1.722656-3.308593-5.140624-5.382812-8.871093-5.382812h-153.085938c-3.730469 0-7.148437 2.074219-8.871093 5.382812-14.910157 28.652344-23.460938 61.394532-23.460938 89.832032 0 .074218.003906.148437.003906.222656v.066406c.132813 63.640625 43.59375 116.03125 98.871094 121.722656v46.46875l-66.664062 63.832032c-2.949219 2.824218-3.886719 7.160156-2.363282 10.949218 1.519532 3.789063 5.195313 6.273438 9.277344 6.273438h139.5c4.085938 0 7.757812-2.484375 9.28125-6.273438 1.523438-3.789062.585938-8.125-2.363281-10.949218zm-98.722656-162.546874c25.464844-12.261719 50.421875-6.574219 77.859375 1.546874 5.292969 1.566407 10.859375-1.453124 12.429687-6.75 1.566406-5.296874-1.457031-10.859374-6.75-12.425781-27.410156-8.113281-54.453125-14.371093-82.675781-4.386719 2.292969-19.300781 8.4375-40.242187 17.496094-59.132812h140.726562c10.671875 22.261719 17.3125 47.371094 18.351563 69.285156-3.339844 1.617188-6.722656 2.957032-10.238282 4.050782-5.273437 1.644531-8.214843 7.25-6.574218 12.523437 1.335937 4.28125 5.285156 7.027344 9.546875 7.027344.984375 0 1.988281-.148438 2.976562-.453125 1.121094-.351563 2.238281-.730469 3.351563-1.125-6.714844 48.917968-43.519532 86.441406-87.777344 86.441406-47.28125 0-86.050781-42.816406-88.722656-96.601562zm43.875 223.601562 44.847656-42.941406 44.847656 42.941406zm0 0"/><path d="m69.625 125.003906c5.523438 0 10-4.476562 10-10v-.007812c0-5.519532-4.476562-9.992188-10-9.992188s-10 4.476563-10 10c0 5.523438 4.476562 10 10 10zm0 0"/><path d="m386.519531 282.027344c.226563.015625.449219.023437.675781.023437 5.21875 0 9.613282-4.050781 9.964844-9.335937.371094-5.507813-3.800781-10.273438-9.3125-10.640625h-.003906c-5.511719-.363281-10.273438 3.800781-10.640625 9.3125-.367187 5.507812 3.804687 10.273437 9.316406 10.640625zm0 0"/></svg>