<svg id="Capa_1" enable-background="new 0 0 495.938 495.938" height="512" viewBox="0 0 495.938 495.938" width="512" xmlns="http://www.w3.org/2000/svg"><g><g><path d="m352.778 143.562h15.5v15h-15.5z"/></g><g><path d="m495.535 230.938c-2.976-74.812-50.232-136.653-112.463-152.059v-55.526h-22.794v-23.353h-15v23.353h-22.794v55.526c-62.231 15.406-109.487 77.247-112.463 152.059h-.157v7.5 52.5h-209.461v60.062 144.938h493.44zm-15.005 0h-48.284v-.202h-.179c-1.339-40.029-9.164-77.331-22.259-105.735-4.937-10.709-10.481-19.805-16.489-27.186 48.768 18.938 84.53 71.061 87.211 133.123zm.162 133.509c-6.333-5.607-14.284-8.959-22.914-8.959-9.866 0-18.845 4.377-25.532 11.502v-85.99h48.446zm-1.385 26.033h-43.059c2.664-11.526 11.307-19.993 21.529-19.993s18.866 8.467 21.53 19.993zm-62.062-21.393c-14.443-20.02-37.951-33.087-64.467-33.087-9.369 0-18.546 1.617-27.274 4.806l5.148 14.09c7.073-2.585 14.518-3.896 22.126-3.896 33.012 0 60.307 24.94 64.034 56.968h-128.07c2.194-18.913 12.625-35.932 28.833-46.518l-8.203-12.559c-8.336 5.445-15.427 12.274-21.062 20.076v-87.967h128.936v88.087zm-128.935-103.087v-20.062h128.936v20.062zm49.174-190.825v-36.822h30.588v36.822zm-25.387 22.694c-10.06 12.41-18.755 29.635-25.487 51.048l14.311 4.498c12.262-39.008 32.133-63.24 51.856-63.24 15.544 0 31.365 14.982 43.408 41.105 12.224 26.516 19.558 61.584 20.873 99.455h-128.56c.778-21.982 3.64-43.531 8.36-62.753l-14.566-3.578c-5.078 20.674-8.026 42.956-8.8 66.331h-.183v.202h-48.284c2.678-62.002 38.375-114.084 87.072-133.068zm-38.884 148.069h.097v20.062h-48.446v-20.062zm-48.349 35.062h48.446v85.99c-6.687-7.126-15.666-11.502-25.532-11.502-8.63 0-16.581 3.352-22.914 8.959v-13.447-60.062zm44.443 109.48h-43.059c2.664-11.526 11.307-19.993 21.529-19.993s18.866 8.467 21.53 19.993zm-253.904-84.542h194.461v30.062h-194.461zm194.461 45.062v74h-194.461v-74zm-22.461 129.938v-22.5h-15v22.5h-29v-22.5h-15v22.5h-30v-22.5h-15v22.5h-30v-22.5h-15v22.5h-23v-40.938h194.461v40.938zm37.461 0v-75.458h48.446v9.987 7.5 57.97h-48.446zm165.414 0v-37.438h-15v37.438h-45v-37.438h-15v37.438h-26.968v-57.97h128.936v57.97zm41.967 0v-57.97-7.5-9.987h48.446v75.457zm48.447-214.938h-48.446v-20.062h.097 48.35v20.062z"/><path d="m345.278 301.438h15v15.062h-15z"/><path d="m240.278 301.438h15v15.062h-15z"/><path d="m150.278 375.469h15v15.062h-15z"/><path d="m104.278 375.469h15v15.062h-15z"/><path d="m60.278 375.469h15v15.062h-15z"/><path d="m450.278 301.438h15v15.062h-15z"/><path d="m337.278 158.562h15.5v15h-15.5z"/></g></g></svg>