<svg id="Capa_1" enable-background="new 0 0 512 512" height="512" viewBox="0 0 512 512" width="512" xmlns="http://www.w3.org/2000/svg"><g><path d="m306 100c0 22.056 17.944 40 40 40s40-17.944 40-40-17.944-40-40-40-40 17.944-40 40zm60 0c0 11.028-8.972 20-20 20s-20-8.972-20-20 8.972-20 20-20 20 8.972 20 20z"/><path d="m0 98.53c0 23.97 19.231 43.47 42.87 43.47h136.96c27.664 0 50.17-22.775 50.17-50.77 0-27.669-22.506-50.18-50.17-50.18-5.223 0-10.34.802-15.221 2.365-6.289-24.919-28.894-43.415-55.739-43.415-31.375 0-56.96 25.267-57.472 56.522-2.792-.57-5.647-.862-8.528-.862-23.639 0-42.87 19.232-42.87 42.87zm57.75-17.339c3.451 2.958 8.46 3.218 12.198.633 3.737-2.585 5.262-7.365 3.711-11.636-1.506-4.148-2.27-8.424-2.27-12.708.001-20.667 16.815-37.48 37.481-37.48 20.602 0 37.961 16.863 37.413 38.47-.206 8.261 9.172 13.201 15.867 8.346 5.203-3.772 11.316-5.766 17.68-5.766 16.636 0 30.17 13.539 30.17 30.18 0 16.679-13.816 30.77-30.17 30.77h-136.96c-12.397 0-22.87-10.748-22.87-23.47 0-12.61 10.259-22.87 22.87-22.87 5.436 0 10.72 1.965 14.88 5.531z"/><path d="m512 376c0-16.982-3.866-48.483-8.994-73.275-8.332-40.291-17.315-56.725-31.006-56.725s-22.674 16.434-31.006 56.725c-5.128 24.792-8.994 56.293-8.994 73.275 0 18.604 12.767 34.282 30 38.734v77.266h-76v-166h20c4.247 0 8.031-2.683 9.437-6.69 1.405-4.007.126-8.466-3.189-11.119l-150-120c-3.652-2.922-8.842-2.922-12.494 0l-150 120c-3.316 2.653-4.595 7.111-3.189 11.119 1.406 4.007 5.189 6.69 9.437 6.69h20v166h-76.002v-77.266c17.233-4.452 30-20.13 30-38.734 0-16.982-3.866-48.483-8.994-73.275-8.332-40.291-17.315-56.725-31.006-56.725s-22.674 16.434-31.006 56.725c-5.128 24.792-8.994 56.293-8.994 73.275 0 18.604 12.767 34.282 30 38.734v77.266h-20c-5.523 0-10 4.477-10 10s4.477 10 10 10h492c5.523 0 10-4.477 10-10s-4.477-10-10-10h-20v-77.266c17.233-4.452 30-20.13 30-38.734zm-492 0c0-12.204 2.541-37.857 7.397-63.277 4.719-24.704 9.474-37.901 12.603-43.799 3.129 5.897 7.884 19.095 12.603 43.799 4.856 25.42 7.397 51.073 7.397 63.277 0 11.028-8.972 20-20 20s-20-8.972-20-20zm256 116h-40v-86c0-11.028 8.972-20 20-20s20 8.972 20 20zm25-166h65v166h-70v-86c0-22.056-17.944-40-40-40s-40 17.944-40 40v86h-70v-166h65c5.523 0 10-4.477 10-10s-4.477-10-10-10h-76.492l121.492-97.194 121.492 97.194h-76.492c-5.523 0-10 4.477-10 10s4.478 10 10 10zm171 70c-11.028 0-20-8.972-20-20 0-12.204 2.541-37.857 7.397-63.277 4.719-24.704 9.474-37.901 12.603-43.799 3.129 5.897 7.884 19.095 12.603 43.799 4.856 25.42 7.397 51.073 7.397 63.277 0 11.028-8.972 20-20 20z"/><circle cx="256" cy="316" r="10"/></g></svg>