<svg height="511pt" viewBox="0 0 511 511.99828" width="511pt" xmlns="http://www.w3.org/2000/svg"><path d="m498.4375 229.746094c-11.226562-17.804688-34.355469-39.257813-80.8125-40.332032-8.871094-.210937-17.941406.628907-26.777344 2.40625-.703125-4.832031-4.851562-8.542968-9.878906-8.542968h-18.714844c2.542969-22.539063-2.167968-41.0625-14.066406-55.1875-16.421875-19.496094-41.71875-23.910156-54.070312-23.441406-5.371094.203124-9.621094 4.617187-9.621094 9.996093 0 23-11.761719 23.132813-23.132813 23.257813-.769531.007812-179.089843.03125-183.261719.03125-21.90625 0-44.488281 16.753906-48.796874 45.34375h-18.804688c-5.523438 0-10 4.476562-10 10 0 114.851562 25.796875 169.609375 50.746094 222.566406 13.0625 27.730469 25.398437 53.921875 34.59375 88.710938 1.160156 4.386718 5.128906 7.445312 9.667968 7.445312h200.453126c4.539062 0 8.507812-3.058594 9.667968-7.445312 5.949219-22.519532 13.21875-41.429688 21.148438-59.488282 60.421875-.5 132.503906-13.8125 171.316406-100.0625 19.039062-42.304687 19.164062-85.390625.34375-115.257812zm-110.476562 26.917968c8.085937-4.234374 18.175781-6.488281 28.398437-6.253906 15.234375.355469 25.625 4.773438 30.894531 13.128906 7.492188 11.886719 5.671875 32.960938-4.863281 56.375-15.902344 35.339844-43.613281 55.160157-86.488281 61.558594 14.089844-32.90625 26.546875-70.636718 32.058594-124.808594zm-99.621094 235.335938h-185.214844c-9.441406-33-21.804688-59.242188-33.789062-84.679688-24.34375-51.675781-47.378907-100.570312-48.769532-204.046874h18.003906c5.519532 0 10-4.476563 10-9.996094 0-24.378906 17.269532-35.34375 29.53125-35.34375 4.171876 0 182.820313-.023438 183.484376-.03125 9.644531-.105469 37.199218-.414063 42.144531-32.582032 9.027343 1.527344 20.890625 5.839844 29.160156 15.65625 8.558594 10.160157 11.644531 24.363282 9.210937 42.300782h-213.535156c-5.519531 0-10 4.476562-10 10 0 5.519531 4.480469 9.996094 10 9.996094h221.742188c.132812.003906.265625.003906.398437 0h20.195313c-.007813.390624-1.046875 32.230468-2.257813 45.785156-.078125.496094-.132812.992187-.136719 1.492187-5.734374 62.191407-20.820312 101.332031-37.808593 138.40625-.035157.070313-.066407.144531-.097657.21875-2.785156 6.070313-5.621093 12.089844-8.472656 18.144531-3.667968 7.78125-7.367187 15.644532-11.011718 23.746094-.015626.035156-.03125.070313-.046876.105469-8.246093 18.351563-16.1875 37.96875-22.730468 60.828125zm191.515625-155.203125c-32.199219 71.554687-89.269531 86.332031-143.882813 88.089844 1.40625-3.003907 2.824219-6.011719 4.25-9.042969 2.046875-4.339844 4.097656-8.695312 6.140625-13.09375 24.554688-2.199219 44.914063-7.785156 62.070313-17.03125 23.019531-12.402344 40.578125-31.78125 52.195312-57.597656 13.492188-29.984375 14.785156-57.410156 3.542969-75.246094-6.230469-9.890625-19.507813-21.8125-47.347656-22.457031-9.421875-.222657-18.621094 1.125-27.054688 3.867187.429688-7.050781.746094-14.367187.949219-21.953125 8.640625-2.109375 17.65625-3.121093 26.445312-2.921875 29.75.6875 52.003907 11.40625 64.351563 31.003906 15.238281 24.175782 14.617187 60.207032-1.660156 96.382813zm0 0"/><path d="m186.132812 51.523438c-1.707031 5.25 1.164063 10.894531 6.414063 12.601562 1.03125.335938 2.074219.496094 3.097656.496094 4.214844 0 8.132813-2.683594 9.507813-6.910156 4.648437-14.292969 2.132812-22.441407.113281-28.988282-1.578125-5.113281-2.53125-8.199218-.113281-15.625 1.707031-5.25-1.164063-10.894531-6.417969-12.601562-5.25-1.710938-10.890625 1.160156-12.601563 6.414062-4.378906 13.453125-1.9375 21.359375.023438 27.710938 1.605469 5.199218 2.667969 8.636718-.023438 16.902344zm0 0"/><path d="m249.585938 77.648438c-1.710938 5.25 1.164062 10.894531 6.414062 12.601562 1.027344.335938 2.070312.496094 3.097656.496094 4.214844 0 8.132813-2.6875 9.507813-6.910156 4.648437-14.292969 2.136719-22.441407.113281-28.992188-1.578125-5.109375-2.53125-8.195312-.113281-15.621094 1.707031-5.25-1.164063-10.894531-6.414063-12.605468-5.253906-1.710938-10.898437 1.164062-12.605468 6.414062-4.378907 13.457031-1.9375 21.363281.023437 27.710938 1.605469 5.203124 2.664063 8.640624-.023437 16.90625zm0 0"/><path d="m122.679688 77.648438c-1.707032 5.25 1.164062 10.894531 6.414062 12.601562 1.027344.335938 2.070312.496094 3.097656.496094 4.214844 0 8.132813-2.6875 9.507813-6.910156 4.652343-14.292969 2.136719-22.441407.113281-28.992188-1.578125-5.109375-2.53125-8.195312-.113281-15.621094 1.707031-5.25-1.164063-10.894531-6.414063-12.605468-5.25-1.707032-10.894531 1.164062-12.605468 6.414062-4.378907 13.457031-1.9375 21.359375.023437 27.710938 1.605469 5.203124 2.667969 8.640624-.023437 16.90625zm0 0"/><path d="m265.960938 452h-54.996094c-5.523438 0-10 4.476562-10 10 0 5.519531 4.476562 10 10 10h54.996094c5.523437 0 10-4.480469 10-10 0-5.523438-4.476563-10-10-10zm0 0"/><path d="m165.96875 452h-.007812c-5.523438 0-9.996094 4.476562-9.996094 10 0 5.519531 4.480468 10 10.003906 10s10-4.480469 10-10c0-5.523438-4.476562-10-10-10zm0 0"/><path d="m83.570312 183.277344h-.007812c-5.519531 0-9.992188 4.476562-9.992188 10 0 5.519531 4.476563 9.996094 10 9.996094 5.523438 0 10-4.476563 10-9.996094 0-5.523438-4.476562-10-10-10zm0 0"/></svg>