<svg height="512pt" viewBox="0 -26 512 512" width="512pt" xmlns="http://www.w3.org/2000/svg"><path d="m502 400h-16v-229.996094h8.5c5.523438 0 10-4.476562 10-10v-30c0-3.777344-2.128906-7.234375-5.503906-8.933594l-238.5-120.003906c-2.828125-1.421875-6.164063-1.421875-8.988282 0l-124.351562 62.570313c-4.933594 2.480469-6.921875 8.492187-4.4375 13.425781 2.480469 4.933594 8.496094 6.917969 13.425781 4.441406l119.855469-60.308594 228.5 114.972657v13.835937h-457v-13.835937l28.246094-14.214844c4.9375-2.480469 6.921875-8.492187 4.441406-13.425781-2.484375-4.933594-8.496094-6.921875-13.429688-4.4375l-33.753906 16.980468c-3.375 1.699219-5.503906 5.15625-5.503906 8.933594v30c0 5.523438 4.476562 10 10 10h8.5v229.996094h-16c-5.523438 0-10 4.480469-10 10v40c0 5.523438 4.476562 10 10 10h492c5.523438 0 10-4.476562 10-10v-40c0-5.519531-4.476562-10-10-10zm-146-39.996094v-139.996094h59.996094v139.996094zm-50 0v-139.996094h30v139.996094zm-80 0v-139.996094h60v139.996094zm-50 0v-139.996094h30v139.996094zm-80 0v-139.996094h60v139.996094zm-50 0v-139.996094h30v139.996094zm390-139.996094h30v139.996094h-30zm30-50.003906v30.003906h-420v-30.003906zm26 269.996094h-472v-20h366c5.523438 0 10-4.476562 10-10 0-5.519531-4.476562-10-10-10h-340v-19.996094h420v29.996094c0 5.523438 4.476562 10 10 10h16zm0 0"/><path d="m296 130.003906c5.523438 0 10-4.480468 10-10v-40c0-5.523437-4.476562-10-10-10h-80c-5.523438 0-10 4.476563-10 10v40c0 5.519532 4.476562 10 10 10zm-70-40h60v20h-60zm0 0"/><path d="m91.457031 102.796875c1.789063 0 3.597657-.476563 5.230469-1.484375l.007812-.003906c4.703126-2.894532 6.167969-9.050782 3.273438-13.753906-2.898438-4.703126-9.058594-6.167969-13.761719-3.273438s-6.171875 9.054688-3.277343 13.757812c1.890624 3.066407 5.171874 4.757813 8.527343 4.757813zm0 0"/><path d="m431.003906 400h-.007812c-5.523438 0-9.996094 4.480469-9.996094 10 0 5.523438 4.480469 10 10.003906 10 5.523438 0 10-4.476562 10-10 0-5.519531-4.476562-10-10-10zm0 0"/></svg>