<svg id="Capa_1" enable-background="new 0 0 475.597 475.597" height="512" viewBox="0 0 475.597 475.597" width="512" xmlns="http://www.w3.org/2000/svg"><g><path d="m466.92 168.36c-7.146-8.59-17.654-13.517-28.828-13.517h-100.977v-45.125h-22.35c.152-27.496-2.224-59.938-37.65-59.938h-46.753c-10.898-10.465-26.288-15.796-41.326-14.25-16.934-37.024-69.742-40.138-91.344-5.878-17.642-12.654-41.945-13.072-59.949-.907l8.396 12.43c13.785-9.313 32.784-8.22 45.369 2.67-2.201 8.225-2.333 17.014-.395 25.304-18.54 8.125-31.53 26.643-31.53 48.147h15c0-28.334 31.841-46.847 56.471-32.438l7.574-12.947c-9.923-5.805-21.645-8.163-33.04-6.74-4.516-20.826 9.847-41.392 30.921-44.459 22.459-3.269 36.51 12.523 42.656 32.079 17.465-4.043 32.255-2.257 44.73 11.989 17.107 0 34.563-1.087 51.629 0 26.376 1.679 24.091 25.075 24.091 44.938h-149.939c0 36.225-29.393 55.225-62.059 36.869-13.789 21.433-41.192 32.886-61.881 12.198-20.711-20.711-9.203-48.129 12.246-61.908-8.455-14.902-12.235-31.161-1.459-46.313l-12.225-8.693c-10.295 14.477-12.505 33.737-5.796 50.191-23.294 19.491-24.793 55.899-3.368 77.324 13.922 13.922 34.161 18.154 51.98 13.03v287.427h270v-90.125h57.359.012.024c23.827 0 45.462-14.988 53.833-37.297l.233-.619 26.389-142.638c2.036-10.987-.897-22.215-8.044-30.804zm-144.804 241.421h-60v15h60v30.062h-240v-30.062h135.125v-15h-135.125v-234.387c3.783-2.582 7.272-5.707 10.342-9.374 31.148 12.573 66.983-8.085 71.698-41.302h157.96zm138.1-213.345-26.143 141.309c-6.069 15.456-20.802 26.013-37.296 26.905v-.002c-.762.042-59.662.071-59.662.071v-194.876h100.977c6.704 0 13.009 2.956 17.297 8.11 4.287 5.154 6.047 11.89 4.827 18.483z"/><path d="m423.632 186.843h-67.517v160.875h38.359c9.562 0 18.24-5.283 22.649-13.788l.514-.99 11.694-63.211-14.748-2.729-11.26 60.862c-1.918 2.978-5.293 4.855-8.848 4.855h-23.359v-130.874h52.517c1.021 0 1.643.564 1.922.901.28.336.722 1.051.536 2.054l-8.57 46.326 14.75 2.729 8.57-46.325c.949-5.128-.42-10.368-3.755-14.377s-8.239-6.308-13.454-6.308z"/><path d="m269.796 177.551h15v180h-15z" transform="matrix(1 -.002 .002 1 -.537 .557)"/><path d="m97.102 260.249h210.271v15h-210.271z" transform="matrix(.001 -1 1 .001 -65.801 469.603)"/><path d="m119.619 177.551h15v180h-15z" transform="matrix(1 -.002 .002 1 -.537 .256)"/><path d="m232.116 409.781h15v15h-15z"/></g></svg>