<svg id="Capa_1" enable-background="new 0 0 496.453 496.453" height="512" viewBox="0 0 496.453 496.453" width="512" xmlns="http://www.w3.org/2000/svg"><g><path d="m427.798 214.911-1.879-7.269-150.615 39.126 3.771 14.518 97.182-25.245c1.473 7.011 2.491 14.155 3.031 21.324 3.254 43.177-10.546 85.088-38.857 118.014s-67.681 52.851-110.857 56.104c-4.15.312-8.283.468-12.403.468-38.741-.002-75.85-13.736-105.61-39.325-32.925-28.312-52.85-67.682-56.104-110.858-6.728-89.28 60.435-167.389 149.715-174.117 22.913-1.726 45.31 1.302 66.686 8.974l-67.101 163.969 59.319-15.41-3.771-14.518-30.315 7.875 76.663-187.338-6.934-2.844c-31.419-12.887-64.616-18.119-98.68-15.552-64.028 4.823-122.33 37.473-159.958 89.577l12.16 8.781c35.034-48.512 89.314-78.91 148.924-83.402 29.204-2.198 57.715 1.754 84.876 11.755l-9.499 23.212c-23.551-8.555-48.235-11.946-73.498-10.037-97.528 7.35-170.895 92.674-163.545 190.201 3.554 47.172 25.317 90.182 61.281 121.104 32.509 27.953 73.038 42.954 115.366 42.953 4.499 0 9.022-.17 13.554-.512 97.529-7.35 170.895-92.674 163.545-190.201-.606-8.062-1.768-16.095-3.456-23.973l24.23-6.294c2.041 9.317 3.436 18.836 4.156 28.388 8.384 111.274-75.322 208.625-186.597 217.011-53.907 4.067-106.162-13.111-147.15-48.354-40.987-35.243-65.797-84.339-69.859-138.242-2.444-32.438 3.003-65.271 15.753-94.947l-13.781-5.922c-13.701 31.888-19.555 67.158-16.929 101.995 4.363 57.899 31.012 110.634 75.037 148.489 39.785 34.21 89.453 52.567 141.382 52.566 5.534 0 11.099-.208 16.675-.629 57.898-4.363 110.633-31.012 148.488-75.038 37.855-44.025 56.302-100.158 51.938-158.058-.976-12.946-3.107-25.839-6.334-38.319z"/><path d="m45.086 163.364-12.762-7.883c-2.727 4.414-5.33 8.989-7.738 13.597l13.295 6.947c2.242-4.291 4.666-8.551 7.205-12.661z"/><path d="m496.453 166.151-1.875-7.252c-11.706-45.277-37.996-85.321-73.812-114.347-1.628-1.319-3.276-2.616-4.943-3.889-3.334-2.547-6.744-5-10.228-7.356-12.193-8.245-25.28-15.295-39.1-20.962l-6.944-2.848-88.018 215.083 171.672-44.597zm-143.953-99.817c11.031 5.145 21.485 11.506 31.143 19.006l9.201-11.846c-10.733-8.337-22.361-15.408-34.648-21.078l9.5-23.215c49.804 22.641 88.561 64.831 106.945 115.904 1.226 3.405 2.361 6.849 3.402 10.33l-24.238 6.297c-9.069-29.709-25.835-56.512-48.792-77.885l-10.221 10.979c20.863 19.423 36.119 43.742 44.46 70.687l-142.485 37.015z"/><path d="m176.225 193.396c.753 0 1.514-.028 2.276-.086 16.514-1.245 28.935-15.691 27.689-32.203-1.242-16.512-15.695-28.946-32.202-27.689-8 .603-15.285 4.284-20.515 10.366-5.23 6.083-7.778 13.838-7.175 21.837 1.186 15.749 14.381 27.777 29.927 27.775zm-1.11-45.022c.386-.028.77-.043 1.152-.043 3.591 0 7.026 1.27 9.777 3.635 3.044 2.618 4.887 6.264 5.188 10.268.623 8.265-5.595 15.496-13.859 16.119-8.235.604-15.495-5.595-16.118-13.859s5.596-15.496 13.86-16.12z"/><path d="m399.003 140.315c-1.243-16.512-15.69-28.935-32.202-27.689-16.514 1.245-28.935 15.691-27.689 32.203 1.186 15.749 14.38 27.777 29.926 27.775.753 0 1.514-.028 2.276-.086 7.999-.603 15.284-4.285 20.515-10.367 5.229-6.082 7.777-13.838 7.174-21.836zm-28.817 17.246c-8.245.61-15.495-5.595-16.118-13.859s5.595-15.496 13.859-16.119c.386-.028.77-.043 1.152-.043 3.591 0 7.026 1.27 9.777 3.635 3.044 2.618 4.887 6.264 5.188 10.268.625 8.264-5.593 15.495-13.858 16.118z"/><path d="m195.627 409.699c.753 0 1.514-.028 2.276-.086 16.512-1.245 28.934-15.691 27.689-32.203-1.245-16.513-15.689-28.922-32.203-27.689-16.512 1.243-28.934 15.689-27.689 32.202 1.188 15.749 14.382 27.776 29.927 27.776zm-11.378-39.833c2.618-3.044 6.264-4.887 10.268-5.188.383-.028.763-.043 1.141-.043 7.779 0 14.384 6.021 14.979 13.902.622 8.265-5.595 15.496-13.859 16.119-8.236.608-15.496-5.596-16.119-13.86-.303-4.004.973-7.885 3.59-10.93z"/><path d="m151.348 306.947 1.029-5.48c.24-1.279 5.699-31.541-10.712-49.306-16.409-17.766-47.008-14.719-48.304-14.583l-5.545.593-1.029 5.48c-.24 1.279-5.699 31.542 10.713 49.307 12.028 13.022 31.682 14.862 41.827 14.862 3.695 0 6.13-.244 6.476-.28zm-13.059-14.137c-2.354-.032-5.245-.188-8.354-.613-6.643-.911-15.751-3.284-21.417-9.417-5.666-6.134-7.311-15.401-7.692-22.096-.179-3.135-.104-6.027.05-8.377 2.354.032 5.245.188 8.354.613 6.643.911 15.751 3.284 21.416 9.418h.001c5.666 6.134 7.311 15.401 7.692 22.096.179 3.134.104 6.026-.05 8.376z"/><path d="m301.294 363.109c1.243-.387 30.536-9.74 38.545-32.561 8.01-22.82-9.014-48.428-9.742-49.507l-3.121-4.621-5.324 1.657c-1.243.387-30.536 9.739-38.545 32.56-8.01 22.82 9.014 48.429 9.742 49.508l3.121 4.621zm-4.033-47.504c3.812-10.86 16.089-17.779 23.342-21.026 1.075 2.096 2.291 4.722 3.371 7.669 2.308 6.296 4.477 15.454 1.711 23.334-3.808 10.851-16.069 17.768-23.324 21.019-3.623-7.095-8.883-20.219-5.1-30.996z"/><path d="m168.711 227.843h14.999v29h-14.999z" transform="matrix(.997 -.075 .075 .997 -17.71 13.924)"/><path d="m110.825 341.269h29v15h-29z" transform="matrix(.643 -.766 .766 .643 -222.398 220.569)"/><path d="m232.747 321.411h15.001v29h-15.001z" transform="matrix(.479 -.878 .878 .479 -169.673 386.114)"/></g></svg>