<svg id="Capa_1" enable-background="new 0 0 512 512" height="512" viewBox="0 0 512 512" width="512" xmlns="http://www.w3.org/2000/svg"><g><path d="m511.994 169.206c-.312-36.771-14.831-71.369-40.881-97.419s-60.647-40.569-97.418-40.881c-37.741-.339-73.195 14.19-99.863 40.858l-17.832 17.833-17.82-17.82c-26.667-26.673-62.134-41.19-99.866-40.87-4.142.035-7.472 3.421-7.437 7.562.035 4.121 3.386 7.438 7.499 7.437h.064c33.701-.3 65.332 12.67 89.133 36.476l23.124 23.124c1.406 1.407 3.314 2.197 5.303 2.197s3.897-.79 5.303-2.197l23.135-23.135c23.801-23.801 55.482-36.735 89.129-36.465 67.485.573 122.854 55.943 123.428 123.428.286 33.675-12.665 65.328-36.465 89.129l-204.531 204.53-204.529-204.53c-23.801-23.801-36.751-55.455-36.465-89.13.464-54.547 37.369-103.278 89.747-118.505 3.978-1.156 6.264-5.318 5.108-9.295-1.157-3.977-5.314-6.268-9.295-5.108-28.222 8.205-53.689 25.631-71.71 49.07-18.614 24.208-28.59 53.155-28.85 83.709-.321 37.73 14.189 73.196 40.858 99.865l209.833 209.833c2.929 2.929 7.678 2.929 10.606 0l209.834-209.833c26.669-26.668 41.179-62.133 40.858-99.863z"/><path d="m372.452 73.512.881.003c25.526.217 49.552 10.304 67.651 28.402 8.599 8.6 15.411 18.523 20.246 29.496 1.67 3.79 6.098 5.507 9.888 3.839 3.79-1.67 5.509-6.097 3.839-9.888-5.587-12.679-13.448-24.136-23.366-34.054-20.898-20.897-48.645-32.544-78.161-32.795l-.945-.004c-29.794 0-57.941 11.589-79.128 32.776l-37.357 37.357-37.346-37.346c-21.057-21.062-49.14-32.786-79.17-32.786l-.937.004c-29.485.249-57.234 11.894-78.134 32.792-20.899 20.898-32.547 48.646-32.797 78.131-.258 30.266 11.381 58.715 32.771 80.106 10.466 10.466 179.848 179.847 190.309 190.309 2.928 2.929 7.677 2.929 10.606 0 10.461-10.461 179.845-179.843 190.31-190.309 21.391-21.39 33.029-49.839 32.772-80.104-.022-2.661-.14-5.354-.35-8.006-.328-4.129-3.94-7.218-8.069-6.884-4.129.327-7.211 3.94-6.884 8.069 2.223 28.078-7.501 55.743-28.075 76.318l-80.867 80.867v-245.52c4.077-.514 8.201-.773 12.313-.773zm-116.453 350.432-89.138-89.138v-57.199c0-4.142-3.358-7.5-7.5-7.5s-7.5 3.358-7.5 7.5v42.199l-80.868-80.867c-18.523-18.524-28.602-43.161-28.379-69.372.217-25.527 10.305-49.553 28.405-67.652s42.127-28.185 67.623-28.399l.873-.004c4.134 0 8.266.259 12.346.773v168.32c0 4.142 3.358 7.5 7.5 7.5s7.5-3.358 7.5-7.5v-165.204c15.475 4.526 29.575 12.891 41.186 24.504l42.65 42.65c1.406 1.407 3.314 2.197 5.303 2.197s3.897-.79 5.303-2.197l42.659-42.66c11.608-11.607 25.705-19.969 41.177-24.494v257.405z"/></g></svg>