<svg id="Capa_1" enable-background="new 0 0 512 512" height="512" viewBox="0 0 512 512" width="512" xmlns="http://www.w3.org/2000/svg"><g><path d="m283.154 159.813c-19.1-9.55-40.482-14.597-61.835-14.597h-24.139c-.294-.001-.107-.001-.426 0h-24.14c-21.353 0-42.735 5.047-61.835 14.597-3.705 1.852-5.207 6.356-3.354 10.062 1.851 3.705 6.36 5.208 10.062 3.354 12.758-6.378 26.658-10.503 40.833-12.171-4.461 4.359-8.212 9.496-11.003 15.254-4.835 9.983-11.466 18.731-19.707 26.002-3.105 2.74-3.402 7.479-.662 10.586 2.731 3.096 7.47 3.411 10.586.662 9.741-8.594 17.575-18.927 23.282-30.709 6.635-13.688 20.724-22.555 35.939-22.637h.425c15.214.082 29.302 8.945 35.934 22.627 5.708 11.786 13.543 22.121 23.286 30.719 3.104 2.739 7.846 2.444 10.586-.662 2.74-3.105 2.444-7.845-.662-10.586-8.242-7.272-14.874-16.023-19.711-26.012-2.789-5.754-6.538-10.887-10.996-15.244 14.174 1.668 28.073 5.794 40.829 12.172z"/><path d="m107.426 107.944c-1.853 3.705-.351 8.21 3.354 10.062 19.1 9.55 40.482 14.598 61.836 14.598h48.704c21.354 0 42.736-5.048 61.836-14.598 3.704-1.853 5.206-6.357 3.354-10.062-1.852-3.704-6.354-5.204-10.062-3.354-12.756 6.378-26.655 10.503-40.83 12.172 4.459-4.358 8.208-9.492 10.998-15.247 4.836-9.986 11.468-18.737 19.71-26.01 3.106-2.741 3.402-7.48.662-10.586-2.739-3.106-7.479-3.401-10.586-.662-9.743 8.598-17.578 18.933-23.285 30.717-6.664 13.747-20.853 22.63-36.147 22.63-15.296 0-29.486-8.886-36.15-22.636-5.708-11.783-13.542-22.116-23.283-30.711-3.105-2.74-7.846-2.442-10.586.662-2.74 3.106-2.444 7.846.662 10.586 8.241 7.271 14.872 16.02 19.708 26.004 2.791 5.758 6.541 10.894 11.002 15.253-14.175-1.668-28.075-5.794-40.832-12.172-3.709-1.854-8.214-.35-10.065 3.354z"/><path d="m185.666 194.889c2.079-4.29 6.516-7.062 11.301-7.062 4.786 0 9.223 2.772 11.301 7.061 13.985 28.873 38.181 51.062 68.13 62.48l52.322 19.961c2.069.789 4.407.631 6.378-.486 1.946-1.106 3.298-3.024 3.683-5.23l5.939-33.981 31.357-19.855c2.676-1.695 3.999-4.889 3.306-7.979l-8.125-36.204 21.325-30.365c1.816-2.587 1.816-6.033.001-8.62l-21.326-30.377 8.125-36.204c.693-3.092-.631-6.286-3.308-7.98l-31.355-19.848-5.94-33.991c-.385-2.206-1.735-4.124-3.683-5.229-1.948-1.106-4.288-1.285-6.378-.487l-52.321 19.96c-29.95 11.418-54.146 33.608-68.13 62.479-2.079 4.29-6.516 7.062-11.302 7.062s-9.222-2.771-11.3-7.06c-13.984-28.873-38.181-51.063-68.13-62.481l-4.84-1.846c-3.872-1.474-8.205.464-9.681 4.335s.465 8.205 4.335 9.681l4.841 1.846c26.364 10.051 47.663 29.586 59.976 55.007 4.569 9.427 14.304 15.519 24.799 15.519s20.23-6.092 24.801-15.521c12.312-25.419 33.61-44.954 59.976-55.005l43.826-16.72 4.946 28.304c.363 2.082 1.589 3.914 3.375 5.046l29.699 18.797-7.694 34.286c-.462 2.062-.034 4.223 1.18 5.952l20.206 28.781-20.205 28.771c-1.215 1.729-1.643 3.891-1.181 5.953l7.694 34.288-29.698 18.805c-1.786 1.131-3.013 2.963-3.376 5.046l-4.945 28.295-43.828-16.721c-26.363-10.051-47.663-29.585-59.976-55.006-4.57-9.428-14.305-15.52-24.8-15.52-10.494 0-20.229 6.092-24.8 15.521-12.312 25.419-33.611 44.953-59.976 55.004l-43.826 16.72-4.946-28.304c-.363-2.083-1.59-3.916-3.377-5.047l-29.697-18.795 7.694-34.287c.462-2.062.034-4.223-1.18-5.951l-20.196-28.773 20.197-28.783c1.213-1.729 1.641-3.889 1.179-5.95l-7.694-34.288 29.697-18.804c1.787-1.131 3.014-2.964 3.377-5.047l4.945-28.294 5.779 2.205c3.871 1.476 8.203-.465 9.681-4.335 1.476-3.87-.465-8.204-4.335-9.681l-14.273-5.445c-2.089-.796-4.431-.618-6.378.486-1.946 1.106-3.298 3.024-3.683 5.23l-5.939 33.979-31.358 19.859c-2.676 1.694-3.999 4.888-3.306 7.979l8.125 36.205-21.316 30.378c-1.814 2.586-1.813 6.031.001 8.616l21.315 30.366-8.125 36.205c-.693 3.092.63 6.285 3.307 7.979l31.356 19.847 5.939 33.99c.385 2.206 1.735 4.124 3.683 5.229s4.286 1.283 6.378.487l52.321-19.961c29.951-11.417 54.147-33.606 68.131-62.477z"/><path d="m404.563 404.055c1.853-3.705.351-8.21-3.354-10.062-19.1-9.55-40.482-14.598-61.836-14.598h-48.703c-21.354 0-42.736 5.048-61.836 14.598-3.704 1.853-5.206 6.357-3.354 10.062 1.852 3.704 6.357 5.206 10.062 3.354 12.757-6.379 26.657-10.504 40.832-12.172-4.461 4.36-8.212 9.497-11.003 15.255-4.835 9.982-11.465 18.73-19.707 26.002-3.106 2.74-3.402 7.479-.662 10.586 2.731 3.096 7.47 3.411 10.586.662 9.742-8.596 17.576-18.929 23.282-30.709 6.665-13.752 20.855-22.638 36.151-22.638 15.295 0 29.483 8.883 36.146 22.628 5.708 11.786 13.543 22.121 23.286 30.719 3.105 2.739 7.845 2.444 10.586-.662 2.74-3.105 2.444-7.845-.662-10.586-8.242-7.272-14.874-16.023-19.711-26.012-2.789-5.754-6.538-10.888-10.996-15.245 14.174 1.668 28.073 5.794 40.829 12.172 3.71 1.855 8.215.346 10.064-3.354z"/><path d="m510.639 368.785-21.326-30.377 8.125-36.204c.693-3.092-.631-6.286-3.308-7.98l-31.355-19.844-5.939-33.992c-.385-2.206-1.736-4.124-3.683-5.229-1.948-1.106-4.288-1.284-6.378-.487l-52.321 19.961c-8.521 3.248-16.693 7.432-24.289 12.435-3.46 2.278-4.417 6.93-2.139 10.389s6.93 4.417 10.389 2.139c6.686-4.403 13.88-8.086 21.385-10.946l43.825-16.72 4.946 28.304c.363 2.082 1.59 3.915 3.376 5.046l29.698 18.797-7.694 34.286c-.462 2.062-.034 4.223 1.18 5.952l20.206 28.781-20.205 28.771c-1.215 1.729-1.643 3.891-1.181 5.953l7.694 34.288-29.698 18.805c-1.786 1.131-3.013 2.963-3.376 5.046l-4.945 28.294-43.828-16.72c-26.363-10.051-47.663-29.585-59.976-55.006-4.569-9.428-14.304-15.52-24.8-15.52-10.495 0-20.229 6.092-24.8 15.521-12.312 25.419-33.611 44.953-59.976 55.004l-43.826 16.72-4.946-28.304c-.363-2.083-1.59-3.916-3.377-5.047l-29.697-18.795 7.694-34.287c.462-2.062.034-4.223-1.18-5.951l-20.196-28.773 20.197-28.783c1.213-1.729 1.641-3.889 1.179-5.95l-7.694-34.288 29.697-18.804c1.787-1.131 3.014-2.964 3.377-5.047l4.945-28.295 43.828 16.721c26.363 10.051 47.663 29.585 59.976 55.006 4.57 9.428 14.305 15.52 24.799 15.52 10.495 0 20.229-6.092 24.801-15.521 3.817-7.882 8.575-15.306 14.141-22.067 2.632-3.198 2.174-7.925-1.024-10.558-3.197-2.632-7.924-2.173-10.558 1.024-6.32 7.679-11.723 16.111-16.058 25.06-2.079 4.29-6.516 7.062-11.302 7.062-4.785 0-9.222-2.772-11.3-7.061-13.985-28.873-38.181-51.062-68.13-62.48l-52.322-19.961c-2.089-.796-4.429-.617-6.378.486-1.946 1.106-3.298 3.024-3.683 5.23l-5.939 33.98-31.357 19.857c-2.676 1.694-3.999 4.888-3.306 7.979l8.125 36.205-21.316 30.378c-1.814 2.585-1.813 6.031.001 8.616l21.315 30.366-8.125 36.205c-.693 3.092.63 6.285 3.307 7.979l31.356 19.846 5.939 33.991c.627 3.594 3.748 6.209 7.388 6.209.903 0 1.81-.163 2.673-.492l52.321-19.961c29.95-11.418 54.146-33.607 68.13-62.479 2.079-4.29 6.515-7.062 11.301-7.062s9.223 2.772 11.301 7.061c13.985 28.873 38.181 51.062 68.13 62.48l52.322 19.961c2.09.797 4.43.619 6.378-.486 1.946-1.106 3.298-3.024 3.683-5.23l5.939-33.981 31.357-19.856c2.676-1.694 3.999-4.888 3.306-7.979l-8.124-36.204 21.324-30.365c1.816-2.588 1.816-6.035.001-8.622z"/><path d="m364.669 335.695c4.836-9.986 11.468-18.737 19.71-26.01 3.106-2.741 3.402-7.48.662-10.586s-7.479-3.402-10.586-.662c-9.743 8.598-17.578 18.933-23.285 30.717-6.664 13.747-20.853 22.63-36.147 22.63-15.296 0-29.485-8.886-36.15-22.636-5.707-11.782-13.541-22.115-23.283-30.711-3.105-2.74-7.846-2.443-10.586.662-2.74 3.106-2.444 7.846.662 10.586 8.242 7.271 14.872 16.02 19.708 26.004 2.791 5.758 6.542 10.894 11.002 15.253-14.176-1.668-28.075-5.794-40.833-12.172-3.706-1.855-8.211-.351-10.062 3.354-1.853 3.705-.351 8.21 3.354 10.062 19.1 9.55 40.482 14.598 61.836 14.598h48.704c21.354 0 42.736-5.048 61.836-14.598 3.704-1.853 5.206-6.357 3.354-10.062-1.852-3.704-6.354-5.204-10.062-3.354-12.757 6.378-26.656 10.504-40.83 12.172 4.457-4.357 8.206-9.492 10.996-15.247z"/></g></svg>