<svg id="Capa_1" enable-background="new 0 0 511.994 511.994" height="512" viewBox="0 0 511.994 511.994" width="512" xmlns="http://www.w3.org/2000/svg"><g><path d="m112.216 296.843c0 11.733 9.546 21.279 21.279 21.279s21.278-9.546 21.278-21.279-9.545-21.278-21.278-21.278-21.279 9.544-21.279 21.278zm27.557 0c0 3.463-2.816 6.279-6.278 6.279-3.463 0-6.279-2.816-6.279-6.279 0-3.462 2.816-6.278 6.279-6.278 3.462-.001 6.278 2.816 6.278 6.278z"/><path d="m134.881 483.58c23.517-4.422 40.586-25.009 40.586-48.952v-30.681c0-4.143-3.357-7.5-7.5-7.5s-7.5 3.357-7.5 7.5v30.681c0 16.733-11.926 31.121-28.357 34.21-4.071.766-6.75 4.686-5.985 8.757.767 4.084 4.699 6.747 8.756 5.985z"/><path d="m284.155 123.045c-13.763-5.701-28.218-8.592-42.964-8.592-11.211 0-22.297 1.646-32.951 4.895-3.963 1.207-6.195 5.398-4.987 9.36 1.208 3.963 5.403 6.199 9.36 4.987 9.235-2.814 18.851-4.242 28.578-4.242 12.767 0 25.29 2.507 37.224 7.449 21.2 8.781 38.048 24.074 48.722 44.227 1.941 3.662 6.479 5.056 10.139 3.117s5.056-6.478 3.117-10.139c-12.328-23.273-31.774-40.93-56.238-51.062z"/><path d="m328.495 15.998c-77.567-32.132-166.523-14.999-226.624 43.639-2.965 2.893-3.023 7.641-.131 10.605 2.891 2.964 7.641 3.023 10.605.131 55.803-54.444 138.394-70.349 210.409-40.518 48.008 19.886 85.398 57.276 105.284 105.285 18.926 45.69 19.839 95.795 2.74 141.911l-52.57-21.775c2.713-13.075 3.482-26.259 2.46-39.188l20.101-2.646c4.107-.54 6.998-4.308 6.457-8.414-.541-4.107-4.306-7.007-8.414-6.457l-20.126 2.649c-1.336-7.098-3.216-14.073-5.613-20.858l18.775-7.777c3.827-1.585 5.645-5.972 4.059-9.799-1.585-3.827-5.971-5.645-9.799-4.059l-18.775 7.777c-3.104-6.493-6.706-12.754-10.78-18.718l16.104-12.357c3.286-2.521 3.906-7.229 1.385-10.516s-7.23-3.908-10.516-1.385l-16.084 12.342c-4.654-5.453-9.75-10.575-15.264-15.302l12.326-16.063c2.521-3.286 1.901-7.994-1.385-10.516-3.286-2.523-7.995-1.902-10.516 1.385l-12.323 16.06c-5.876-4.026-12.126-7.643-18.727-10.797l7.752-18.714c1.586-3.827-.231-8.214-4.059-9.799-3.824-1.588-8.214.231-9.799 4.059l-7.751 18.712c-6.859-2.428-13.834-4.307-20.873-5.635l2.638-20.041c.541-4.106-2.35-7.874-6.457-8.414-4.096-.538-7.874 2.35-8.414 6.457l-2.635 20.016c-7.202-.565-14.431-.565-21.632 0l-2.635-20.016c-.541-4.107-4.31-7.001-8.414-6.457-4.107.54-6.998 4.308-6.457 8.414l2.638 20.04c-7.039 1.328-14.015 3.207-20.874 5.636l-7.75-18.712c-1.585-3.827-5.973-5.644-9.799-4.059-3.827 1.585-5.645 5.972-4.059 9.799l7.75 18.712c-6.567 3.133-12.828 6.736-18.745 10.775l-12.304-16.035c-2.521-3.287-7.23-3.908-10.516-1.385-3.286 2.521-3.906 7.229-1.385 10.516l12.29 16.017c-9.982 8.528-18.707 18.442-25.941 29.507l-52.545-21.765c5.158-11.225 11.355-21.927 18.475-31.897 2.407-3.371 1.626-8.055-1.745-10.462s-8.055-1.624-10.462 1.745c-9.221 12.913-17.002 26.959-23.127 41.749-1.586 3.827.231 8.214 4.059 9.799l57.76 23.924c-1.693 3.322-3.264 6.727-4.707 10.21-.762 1.838-.762 3.902 0 5.74.761 1.838 2.221 3.298 4.059 4.059l48.952 20.276c3.828 1.589 8.214-.232 9.799-4.059 6.513-15.721 18.417-28.66 33.522-36.437 5.654-2.908 10.99-1.005 14.097 1.75 3.979 3.528 5.247 8.621 3.392 13.622l-10.642 28.678c-5.808-.874-11.691-1.357-17.613-1.439-37.979-.529-73.254 14.896-98.68 42.483h-6.555c-4.143 0-7.5 3.357-7.5 7.5 0 2.498 1.221 4.71 3.099 6.073-15.498 22.029-23.741 48.144-23.741 75.436v27.559c0 4.143 3.357 7.5 7.5 7.5h68.257v.849c0 16.497-10.516 31.086-26.166 36.303-9.073 3.024-15.17 11.483-15.17 21.048v8.512c0 4.143 3.357 7.5 7.5 7.5s7.5-3.357 7.5-7.5v-8.512c0-3.098 1.975-5.838 4.914-6.817 21.785-7.262 36.422-27.569 36.422-50.533v-.849h33.251v62.554c0 34.389-27.978 62.365-62.366 62.365h-12.221v-23.275c0-4.143-3.357-7.5-7.5-7.5s-7.5 3.357-7.5 7.5v30.775c0 4.143 3.357 7.5 7.5 7.5h19.721c42.66 0 77.366-34.706 77.366-77.365v-104.5c0-14.858 12.088-26.946 26.946-26.946s26.946 12.088 26.946 26.946v94.512c0 24.197 19.687 43.884 43.884 43.884h90.867c5.998 0 11.029-4.104 12.235-9.979s-1.802-11.629-7.315-13.992l-69.557-29.811v-77.809c-.005-6.918-.56-13.869-1.649-20.662-.655-4.089-4.503-6.878-8.593-6.218-4.09.655-6.874 4.503-6.218 8.593.964 6.014 1.455 12.17 1.46 18.293v75.248h-12.557v-82.06c0-38.324-31.18-69.504-69.504-69.504-38.121 0-69.173 30.847-69.501 68.892h-81.218c1.547-24.562 10.678-47.624 26.274-66.509h55.525c4.143 0 7.5-3.357 7.5-7.5s-3.357-7.5-7.5-7.5h-40.712c21.452-18.174 48.443-27.858 76.845-27.485 43.888.61 83.561 25.618 103.163 65.838 1.815 3.723 6.304 5.271 10.028 3.456s5.271-6.305 3.456-10.028c-9.322-19.126-23.123-35.713-40.181-48.382l12.812-27.93c2.225-4.849 6.722-7.551 12.03-7.234 4.144.249 9.264 2.674 11.204 8.73 5.184 16.18 4.452 33.748-2.06 49.468-1.586 3.827.231 8.214 4.059 9.799l48.952 20.277c.919.381 1.895.571 2.87.571 3.02 0 5.764-1.817 6.929-4.63 1.447-3.493 2.741-7.012 3.886-10.55l57.764 23.927c3.818 1.585 8.211-.227 9.799-4.059 44.217-106.746-6.655-229.562-113.401-273.777zm-27.694 437.526c-15.068 0-27.478-11.597-28.772-26.335 29.397 0 16.417 0 45.964-.001l61.449 26.336zm-132.834-109.007c4.143 0 7.5-3.357 7.5-7.5v-6.888c0-30.054 24.45-54.504 54.504-54.504s54.504 24.45 54.504 54.504v82.061h-12.558v-82.061c0-23.129-18.817-41.946-41.946-41.946s-41.947 18.817-41.947 41.946v26.946h-109.007v-12.559h88.95zm161.053-206.418c32.698 32.543 46.608 82.305 30.234 129.603l-35.188-14.575c5.408-17.104 5.417-35.563-.083-52.731-3.502-10.932-13.154-18.44-24.59-19.127-11.383-.7-21.805 5.578-26.564 15.953l-11.856 25.847c-9.819-5.677-20.279-10.03-31.126-12.981l9.865-26.583c3.971-10.702 1.026-22.503-7.503-30.064-8.573-7.6-20.707-9.116-30.913-3.862-16.028 8.25-29.074 21.309-37.345 37.228l-35.191-14.576c21.639-44.631 66.531-70.527 112.87-70.36 9.859.033 51.977.981 87.39 36.228z"/></g></svg>