<svg id="Capa_1" enable-background="new 0 0 512 512" height="512" viewBox="0 0 512 512" width="512" xmlns="http://www.w3.org/2000/svg"><g><path d="m74.131 291.734c5.484-8.246 12.467-15.223 20.754-20.735 2.09-1.391 3.346-3.734 3.346-6.244s-1.256-4.854-3.346-6.244c-8.287-5.512-15.27-12.488-20.754-20.735-1.391-2.09-3.734-3.346-6.245-3.346-2.51 0-4.854 1.256-6.244 3.346-5.498 8.263-12.473 15.24-20.736 20.735-2.09 1.391-3.346 3.734-3.346 6.244s1.256 4.854 3.346 6.244c8.262 5.495 15.238 12.472 20.736 20.735 1.391 2.09 3.734 3.346 6.244 3.346s4.854-1.256 6.245-3.346zm-6.243-16.613c-3.167-3.739-6.628-7.2-10.366-10.366 3.738-3.166 7.199-6.627 10.366-10.366 3.166 3.736 6.631 7.197 10.377 10.366-3.747 3.169-7.211 6.63-10.377 10.366z"/><path d="m412.762 105.73c8.261 5.495 15.238 12.472 20.736 20.735 1.391 2.09 3.734 3.346 6.244 3.346 2.511 0 4.854-1.256 6.245-3.346 5.484-8.246 12.467-15.223 20.754-20.735 2.09-1.391 3.346-3.734 3.346-6.244s-1.256-4.854-3.346-6.244c-8.287-5.512-15.27-12.488-20.754-20.735-1.391-2.09-3.734-3.346-6.245-3.346-2.51 0-4.854 1.256-6.244 3.346-5.498 8.263-12.474 15.24-20.736 20.735-2.091 1.39-3.347 3.734-3.347 6.244.001 2.51 1.257 4.854 3.347 6.244zm26.981-16.611c3.167 3.736 6.632 7.197 10.378 10.366-3.746 3.169-7.211 6.63-10.378 10.366-3.166-3.739-6.627-7.2-10.365-10.366 3.738-3.166 7.199-6.626 10.365-10.366z"/><path d="m290.461 180.444c-.754-4.074-4.678-6.762-8.738-6.011-4.073.753-6.764 4.665-6.012 8.738.222 1.198.334 2.433.334 3.668 0 11.053-8.992 20.045-20.045 20.045s-20.045-8.992-20.045-20.045c0-11.657 9.999-21.001 21.824-19.968 4.118.365 7.762-2.693 8.123-6.82.359-4.126-2.693-7.763-6.82-8.123-20.593-1.797-38.126 14.486-38.126 34.911 0 19.324 15.721 35.045 35.045 35.045s35.045-15.721 35.045-35.045c-.001-2.148-.198-4.3-.585-6.395z"/><path d="m256 139.25c11.73 0 21.273-9.543 21.273-21.272v-27.546c0-11.73-9.543-21.272-21.273-21.272-11.729 0-21.272 9.543-21.272 21.272v27.545c0 11.73 9.543 21.273 21.272 21.273zm-6.272-48.818c0-3.459 2.813-6.273 6.272-6.273s6.273 2.814 6.273 6.273v27.545c0 3.459-2.814 6.273-6.273 6.273s-6.272-2.814-6.272-6.273z"/><path d="m256 56.615c11.73 0 21.273-9.543 21.273-21.272v-13.773c0-11.73-9.543-21.272-21.273-21.272-11.729 0-21.272 9.543-21.272 21.272v13.773c0 11.729 9.543 21.272 21.272 21.272zm-6.272-35.045c0-3.459 2.813-6.273 6.272-6.273s6.273 2.814 6.273 6.273v13.773c0 3.459-2.814 6.273-6.273 6.273s-6.272-2.814-6.272-6.273z"/><path d="m163.049 123.972 29.216 29.216c8.294 8.294 21.79 8.294 30.085 0 8.293-8.294 8.293-21.789 0-30.083l-3.566-3.566c-2.93-2.929-7.677-2.929-10.607 0-2.929 2.929-2.929 7.677 0 10.606l3.566 3.566c2.446 2.446 2.446 6.425 0 8.871-2.445 2.446-6.426 2.446-8.871 0l-29.216-29.216c-2.446-2.446-2.446-6.425 0-8.871 2.445-2.446 6.426-2.446 8.871 0 2.93 2.929 7.677 2.929 10.607 0 2.929-2.929 2.929-7.677 0-10.606-8.295-8.294-21.79-8.295-30.085 0-8.293 8.295-8.293 21.789 0 30.083z"/><path d="m154.178 85.019c4.018-4.018 6.231-9.36 6.231-15.042s-2.213-11.024-6.23-15.042c-8.294-8.293-21.789-8.294-30.083 0-.001 0 0 0-.001 0-4.017 4.017-6.23 9.36-6.23 15.042s2.213 11.024 6.23 15.042c8.293 8.291 21.787 8.295 30.083 0zm-19.477-19.477c0-.001 0-.001 0 0 1.224-1.223 2.83-1.834 4.435-1.834 3.441 0 6.273 2.775 6.273 6.269 0 1.675-.652 3.25-1.838 4.435-2.447 2.446-6.426 2.445-8.871 0-1.185-1.185-1.837-2.76-1.837-4.435s.653-3.251 1.838-4.435z"/><path d="m304.693 159.419c5.682 0 11.024-2.213 15.042-6.231l29.215-29.215c4.018-4.018 6.231-9.36 6.231-15.042s-2.213-11.024-6.23-15.042c-4.018-4.018-9.36-6.231-15.043-6.231s-11.024 2.213-15.042 6.231l-29.215 29.215c-4.018 4.018-6.231 9.36-6.231 15.042s2.213 11.024 6.23 15.041c4.019 4.019 9.36 6.232 15.043 6.232zm-4.435-25.708 29.216-29.216c1.185-1.185 2.76-1.837 4.434-1.837 1.676 0 3.251.652 4.436 1.838 1.185 1.185 1.837 2.76 1.837 4.435s-.652 3.25-1.838 4.435l-29.216 29.216c-1.185 1.185-2.76 1.837-4.435 1.837s-3.25-.652-4.434-1.837c0 0 0 0-.001-.001-1.185-1.185-1.837-2.76-1.837-4.435s.653-3.25 1.838-4.435z"/><path d="m372.863 91.249c5.682 0 11.024-2.213 15.041-6.23 4.018-4.018 6.231-9.36 6.231-15.042s-2.213-11.024-6.23-15.041c0 0 0 0-.001-.001-4.017-4.017-9.359-6.23-15.041-6.23s-11.024 2.213-15.042 6.23c-4.018 4.018-6.231 9.36-6.231 15.042s2.213 11.024 6.23 15.042c4.019 4.017 9.361 6.23 15.043 6.23zm-4.435-25.708c1.185-1.185 2.76-1.837 4.435-1.837s3.25.652 4.434 1.837c0 0 0 0 .001.001 1.185 1.185 1.837 2.76 1.837 4.435s-.652 3.25-1.838 4.436c-1.185 1.185-2.76 1.837-4.434 1.837-1.676 0-3.251-.652-4.436-1.838-1.185-1.185-1.837-2.76-1.837-4.435s.652-3.251 1.838-4.436z"/><path d="m348.951 249.707-29.217-29.216c-4.017-4.017-9.36-6.23-15.042-6.23s-11.024 2.213-15.042 6.231c-4.017 4.017-6.23 9.359-6.23 15.041s2.213 11.024 6.23 15.042l29.216 29.216c4.017 4.017 9.359 6.23 15.042 6.23s11.024-2.212 15.043-6.23c8.294-8.295 8.294-21.79 0-30.084zm-10.606 19.477c-1.186 1.185-2.761 1.837-4.436 1.837-1.676 0-3.25-.652-4.434-1.837l-29.217-29.216c-1.185-1.185-1.837-2.76-1.837-4.435s.652-3.25 1.837-4.435c0 0 .001-.001.001-.001 1.185-1.185 2.759-1.837 4.434-1.837s3.251.652 4.435 1.837l29.216 29.216c2.446 2.445 2.446 6.425.001 8.871z"/><path d="m387.905 288.661c-4.017-4.017-9.359-6.23-15.042-6.23s-11.024 2.212-15.043 6.23c-8.294 8.294-8.294 21.789.001 30.084 4.017 4.017 9.359 6.23 15.042 6.23s11.024-2.213 15.042-6.23c8.294-8.295 8.294-21.79 0-30.084zm-10.607 19.477c-1.185 1.185-2.759 1.837-4.434 1.837-1.676 0-3.251-.652-4.435-1.837-2.446-2.446-2.446-6.426-.001-8.871 1.186-1.185 2.761-1.837 4.436-1.837 1.676 0 3.25.652 4.434 1.837 2.446 2.446 2.446 6.426 0 8.871z"/><path d="m202.871 231.097c2.447-2.446 6.427-2.446 8.872 0 2.446 2.446 2.446 6.425 0 8.871-2.929 2.929-2.929 7.677.001 10.607 2.928 2.929 7.677 2.928 10.606 0 8.293-8.294 8.293-21.789-.001-30.084-8.293-8.293-21.789-8.293-30.084 0l-29.216 29.216c-8.293 8.294-8.293 21.789.001 30.084 8.293 8.293 21.789 8.293 30.084 0l3.453-3.453c2.929-2.929 2.929-7.677 0-10.606-2.93-2.929-7.677-2.929-10.607 0l-3.452 3.453c-2.447 2.446-6.427 2.445-8.872.001-2.445-2.446-2.445-6.426 0-8.872z"/><path d="m154.179 318.744c8.294-8.294 8.294-21.789-.001-30.084-8.294-8.293-21.789-8.293-30.083 0-8.294 8.294-8.294 21.789 0 30.083h.001c8.292 8.294 21.788 8.295 30.083.001zm-19.478-19.476c2.445-2.445 6.424-2.447 8.871 0 2.446 2.446 2.446 6.426.001 8.871-2.446 2.446-6.425 2.447-8.871 0-2.446-2.446-2.446-6.426-.001-8.871z"/><path d="m338.635 165.568h-13.773c-11.729 0-21.272 9.543-21.272 21.272 0 11.73 9.543 21.272 21.272 21.272h13.773c11.729 0 21.272-9.543 21.272-21.272 0-11.73-9.543-21.272-21.272-21.272zm0 27.544h-13.773c-3.459 0-6.272-2.814-6.272-6.273 0-3.458 2.813-6.272 6.272-6.272h13.773c3.459 0 6.272 2.814 6.272 6.272 0 3.459-2.813 6.273-6.272 6.273z"/><path d="m442.542 186.839c0-11.729-9.543-21.272-21.273-21.272h-27.545c-11.729 0-21.272 9.543-21.272 21.272 0 11.73 9.543 21.272 21.272 21.272h27.545c11.73.001 21.273-9.542 21.273-21.272zm-55.09 0c0-3.458 2.813-6.272 6.272-6.272h27.545c3.459 0 6.273 2.814 6.273 6.272 0 3.459-2.814 6.273-6.273 6.273h-27.545c-3.459 0-6.272-2.814-6.272-6.273z"/><path d="m173.365 208.112h13.773c11.729 0 21.272-9.543 21.272-21.272s-9.543-21.272-21.272-21.272h-13.773c-11.729 0-21.272 9.543-21.272 21.272s9.543 21.272 21.272 21.272zm0-27.545h13.773c3.459 0 6.272 2.814 6.272 6.272 0 3.459-2.813 6.273-6.272 6.273h-13.773c-3.459 0-6.272-2.814-6.272-6.273 0-3.458 2.813-6.272 6.272-6.272z"/><path d="m90.731 208.112h27.545c11.729 0 21.272-9.543 21.272-21.272s-9.543-21.272-21.272-21.272h-27.545c-11.73 0-21.273 9.543-21.273 21.272s9.543 21.272 21.273 21.272zm0-27.545h27.545c3.459 0 6.272 2.814 6.272 6.272 0 3.459-2.813 6.273-6.272 6.273h-27.545c-3.459 0-6.273-2.814-6.273-6.273 0-3.458 2.814-6.272 6.273-6.272z"/><path d="m256 234.43c-11.729 0-21.272 9.543-21.272 21.272v27.545c0 11.729 9.543 21.272 21.272 21.272 11.73 0 21.273-9.543 21.273-21.272v-27.545c0-11.73-9.543-21.272-21.273-21.272zm6.273 48.817c0 3.458-2.814 6.272-6.273 6.272s-6.272-2.814-6.272-6.272v-27.545c0-3.459 2.813-6.273 6.272-6.273s6.273 2.814 6.273 6.273z"/><path d="m256 317.064c-11.729 0-21.272 9.543-21.272 21.272v13.772c0 11.73 9.543 21.272 21.272 21.272 11.73 0 21.273-9.543 21.273-21.272v-13.772c0-11.729-9.543-21.272-21.273-21.272zm6.273 35.045c0 3.459-2.814 6.273-6.273 6.273s-6.272-2.814-6.272-6.273v-13.772c0-3.459 2.813-6.273 6.272-6.273s6.273 2.814 6.273 6.273z"/><path d="m421.269 399.699c-11.729 0-21.272 9.543-21.272 21.272 0 11.73 9.543 21.272 21.272 21.272 11.73 0 21.273-9.543 21.273-21.272s-9.543-21.272-21.273-21.272zm0 27.545c-3.459 0-6.272-2.814-6.272-6.273s2.813-6.273 6.272-6.273 6.273 2.814 6.273 6.273-2.814 6.273-6.273 6.273z"/><path d="m421.269 358.382c-4.142 0-7.5 3.358-7.5 7.5v13.773c0 4.142 3.357 7.5 7.5 7.5s7.5-3.358 7.5-7.5v-13.773c0-4.142-3.358-7.5-7.5-7.5z"/><circle cx="421.57" cy="337.741" r="7.5"/><path d="m469.903 371.871c2.93 2.928 7.678 2.928 10.606-.001l9.737-9.739c2.929-2.929 2.929-7.678-.001-10.607-2.931-2.929-7.679-2.928-10.606.001l-9.737 9.739c-2.928 2.93-2.928 7.679.001 10.607z"/><circle cx="455.096" cy="386.255" r="7.5"/><path d="m462.587 413.471c-4.142 0-7.5 3.358-7.5 7.5s3.357 7.5 7.5 7.5h13.772c4.142 0 7.5-3.358 7.5-7.5s-3.357-7.5-7.5-7.5z"/><circle cx="504.5" cy="421.272" r="7.5"/><circle cx="7.5" cy="421.272" r="7.5"/><path d="m480.976 469.604c-2.928-2.929-7.676-2.928-10.606 0-2.929 2.929-2.929 7.678.001 10.607l9.739 9.738c2.928 2.929 7.676 2.928 10.606 0 2.929-2.929 2.929-7.678-.001-10.607z"/><circle cx="455.986" cy="454.798" r="7.5"/><path d="m421.269 454.789c-4.142 0-7.5 3.358-7.5 7.5v13.773c0 4.142 3.357 7.5 7.5 7.5s7.5-3.358 7.5-7.5v-13.773c0-4.142-3.358-7.5-7.5-7.5z"/><circle cx="420.969" cy="504.202" r="7.5"/><path d="m362.03 470.073-9.738 9.739c-2.929 2.929-2.929 7.677.001 10.606 2.929 2.928 7.676 2.929 10.606-.001l9.738-9.739c2.929-2.929 2.929-7.677-.001-10.606s-7.677-2.929-10.606.001z"/><circle cx="387.443" cy="455.688" r="7.5"/><path d="m379.952 413.471h-13.772c-4.142 0-7.5 3.358-7.5 7.5s3.357 7.5 7.5 7.5h13.772c4.142 0 7.5-3.358 7.5-7.5s-3.358-7.5-7.5-7.5z"/><circle cx="338.039" cy="420.671" r="7.5"/><path d="m361.563 372.339c2.929 2.928 7.676 2.929 10.606-.001 2.929-2.929 2.929-7.677-.001-10.606l-9.74-9.738c-2.931-2.93-7.677-2.928-10.606.001s-2.929 7.677.001 10.606z"/><circle cx="386.553" cy="387.145" r="7.5"/><path d="m90.72 399.699c-11.73 0-21.273 9.543-21.273 21.272 0 11.73 9.543 21.272 21.273 21.272 11.729 0 21.272-9.543 21.272-21.272s-9.543-21.272-21.272-21.272zm0 27.545c-3.459 0-6.273-2.814-6.273-6.273s2.814-6.273 6.273-6.273 6.272 2.814 6.272 6.273-2.813 6.273-6.272 6.273z"/><path d="m90.72 387.154c4.142 0 7.5-3.358 7.5-7.5v-13.773c0-4.142-3.357-7.5-7.5-7.5s-7.5 3.358-7.5 7.5v13.773c0 4.142 3.358 7.5 7.5 7.5z"/><circle cx="90.419" cy="337.741" r="7.5"/><path d="m31.481 371.87c2.928 2.928 7.677 2.931 10.606.001 2.93-2.929 2.93-7.677.001-10.606l-9.738-9.739c-2.929-2.929-7.677-2.931-10.606-.001-2.93 2.929-2.93 7.677-.001 10.606z"/><circle cx="56.893" cy="386.255" r="7.5"/><path d="m28.13 420.971c0 4.142 3.357 7.5 7.5 7.5h13.773c4.142 0 7.5-3.358 7.5-7.5s-3.357-7.5-7.5-7.5h-13.773c-4.142 0-7.5 3.358-7.5 7.5z"/><path d="m31.013 469.604-9.739 9.738c-2.93 2.929-2.93 7.677-.001 10.607 2.929 2.928 7.677 2.93 10.606 0l9.739-9.738c2.93-2.929 2.93-7.677.001-10.607-2.93-2.928-7.678-2.928-10.606 0z"/><circle cx="56.004" cy="454.798" r="7.5"/><path d="m90.72 483.561c4.142 0 7.5-3.358 7.5-7.5v-13.773c0-4.142-3.357-7.5-7.5-7.5s-7.5 3.358-7.5 7.5v13.773c0 4.142 3.358 7.5 7.5 7.5z"/><circle cx="91.021" cy="504.202" r="7.5"/><path d="m149.959 470.073c-2.929-2.929-7.677-2.93-10.606-.001-2.93 2.929-2.93 7.677-.001 10.606l9.738 9.739c2.928 2.928 7.677 2.931 10.606.001 2.93-2.929 2.93-7.677.001-10.606z"/><circle cx="124.546" cy="455.688" r="7.5"/><path d="m124.537 420.971c0 4.142 3.357 7.5 7.5 7.5h13.773c4.142 0 7.5-3.358 7.5-7.5s-3.357-7.5-7.5-7.5h-13.773c-4.142 0-7.5 3.358-7.5 7.5z"/><circle cx="173.951" cy="420.671" r="7.5"/><path d="m149.561 351.994-9.74 9.738c-2.93 2.929-2.93 7.677-.001 10.606 2.928 2.928 7.676 2.931 10.606.001l9.74-9.738c2.93-2.929 2.93-7.677.001-10.606-2.93-2.929-7.678-2.93-10.606-.001z"/><circle cx="125.436" cy="387.145" r="7.5"/><path d="m63.186 84.16c4.142 0 7.5-3.358 7.5-7.5v-13.773c0-4.142-3.357-7.5-7.5-7.5s-7.5 3.358-7.5 7.5v13.773c0 4.142 3.357 7.5 7.5 7.5z"/><path d="m76.957 97.931h13.773c4.142 0 7.5-3.358 7.5-7.5s-3.357-7.5-7.5-7.5h-13.773c-4.142 0-7.5 3.358-7.5 7.5s3.357 7.5 7.5 7.5z"/><path d="m63.186 96.703c-4.142 0-7.5 3.358-7.5 7.5v13.773c0 4.142 3.357 7.5 7.5 7.5s7.5-3.358 7.5-7.5v-13.773c-.001-4.142-3.358-7.5-7.5-7.5z"/><path d="m35.642 97.931h13.773c4.142 0 7.5-3.358 7.5-7.5s-3.357-7.5-7.5-7.5h-13.773c-4.142 0-7.5 3.358-7.5 7.5s3.357 7.5 7.5 7.5z"/><path d="m435.043 249.43c4.142 0 7.5-3.358 7.5-7.5v-13.773c0-4.142-3.357-7.5-7.5-7.5-4.142 0-7.5 3.358-7.5 7.5v13.773c0 4.142 3.358 7.5 7.5 7.5z"/><path d="m462.587 263.202c4.142 0 7.5-3.358 7.5-7.5s-3.357-7.5-7.5-7.5h-13.773c-4.142 0-7.5 3.358-7.5 7.5s3.357 7.5 7.5 7.5z"/><path d="m435.043 261.974c-4.142 0-7.5 3.358-7.5 7.5v13.772c0 4.142 3.357 7.5 7.5 7.5 4.142 0 7.5-3.358 7.5-7.5v-13.772c0-4.142-3.358-7.5-7.5-7.5z"/><path d="m421.271 248.202h-13.772c-4.142 0-7.5 3.358-7.5 7.5s3.357 7.5 7.5 7.5h13.772c4.142 0 7.5-3.358 7.5-7.5s-3.358-7.5-7.5-7.5z"/><path d="m242.227 428.473c4.142 0 7.5-3.358 7.5-7.5v-13.772c0-4.142-3.357-7.5-7.5-7.5s-7.5 3.358-7.5 7.5v13.772c0 4.142 3.357 7.5 7.5 7.5z"/><path d="m269.771 427.245h-13.773c-4.142 0-7.5 3.358-7.5 7.5s3.357 7.5 7.5 7.5h13.773c4.142 0 7.5-3.358 7.5-7.5s-3.358-7.5-7.5-7.5z"/><path d="m242.227 441.016c-4.142 0-7.5 3.358-7.5 7.5v13.773c0 4.142 3.357 7.5 7.5 7.5s7.5-3.358 7.5-7.5v-13.773c0-4.142-3.358-7.5-7.5-7.5z"/><path d="m228.455 427.245h-13.772c-4.142 0-7.5 3.358-7.5 7.5s3.357 7.5 7.5 7.5h13.772c4.142 0 7.5-3.358 7.5-7.5s-3.358-7.5-7.5-7.5z"/></g></svg>