<svg id="Capa_1" enable-background="new 0 0 511.935 511.935" height="512" viewBox="0 0 511.935 511.935" width="512" xmlns="http://www.w3.org/2000/svg"><g><path d="m510.204 131.845-11.527-62.408c-2.787-15.087-14.795-27.096-29.881-29.882l-62.408-11.527c-33.646-6.216-68.173 4.52-92.366 28.711-12.889 12.889-19.987 30.025-19.987 48.252s7.098 35.363 19.987 48.252c10.305 12.366 26.122 23.552 43.263 17.845-10.326 12.158-26.218 34.085-35.089 62.267l-23.181.867c-4.139.155-7.369 3.637-7.214 7.775.155 4.139 3.634 7.332 7.775 7.215 19.73-.687 44.695-3.365 63.76 4.585l17.231 6.42c8.397 3.127 15.074 9.338 18.802 17.487 3.728 8.15 4.058 17.261.927 25.658l-22.58 60.657c-6.198 16.496-25.75 26.429-43.146 19.729-23.041-6.567-44.636-19.894-60.727-37.422-4.885-10.769-15.496-39.681-20.92-48.126 12.192-11.669 19.807-28.081 19.807-46.249 0-21.086-10.246-39.82-26.016-51.499 3.044-5.479 5.223-23.466 6.269-29.667 2.91-18.469 8.108-36.558 15.45-53.766 7.286-17.072 19.329-38.881 12.265-58.268-4.634-15.204-15.902-26.946-30.914-32.216-3.909-1.373-8.189.685-9.561 4.592-1.372 3.908.684 8.188 4.592 9.561 10.458 3.672 18.308 11.85 21.534 22.436 2.351 7.716 1.901 16.064-1.265 23.503l-10.449 24.508c-7.826 18.343-13.367 37.627-16.47 57.316-1.166 6.071-2.329 18.601-4.577 24.489-3.427-1.452-7.012-2.596-10.71-3.437.925-4.053 1.839-9.441 1.31-15.577l-1.5-18.062c-1.559-18.66-.807-37.465 2.236-55.897 3.011-18.312 9.563-42.345-1.912-59.502-13.994-25.441-52.281-32.391-74.62-12.32-45.39 42.444-56.918 39.944-89.083 52.829-13.674 5.174-24.29 16.055-29.124 29.853-4.837 13.804-3.333 28.939 4.129 41.529 9.106 18.179 34.429 24.281 51.301 30.222 17.66 6.183 34.52 14.543 50.119 24.852 7.095 4.577 10.723 7.289 17.96 11.708-2.989 4.989-5.313 10.417-6.862 16.161l-57.045-2.144c-14.042-.526-27.835 1.687-41.002 6.587-39.401 10.325-56.135 37.295-45.789 68.853l22.582 60.663c7.277 19.518 25.855 31.602 45.56 31.602 20.213-1.575 43.182-11.92 60.469-23.805-2.552 9.196-3.841 18.674-3.841 28.314v18.39c0 26.771 21.779 48.551 48.55 48.551h64.72c20.531 0 38.114-12.817 45.2-30.865l16.339 48.883c1.05 3.14 3.975 5.124 7.112 5.124.788 0 1.59-.125 2.378-.389 3.929-1.313 6.049-5.562 4.736-9.491l-27.232-81.47c-.108-9.214-1.384-18.268-3.823-27.051 10.968 8.898 29.317 15.694 43.139 20.588 7.631 31.433 18.623 62.849 32.717 93.447 1.265 2.746 3.979 4.364 6.817 4.364 1.05 0 2.117-.222 3.133-.689 3.762-1.733 5.407-6.188 3.674-9.95-12.683-27.534-22.776-55.734-30.08-83.981 19.407.528 39.481-11.995 46.627-31.575l22.579-60.655c4.53-12.149 4.054-25.337-1.342-37.134-5.394-11.793-15.057-20.779-27.207-25.305l-17.234-6.421c-9.88-3.675-20.106-5.839-30.522-6.468 7.62-21.491 19.659-38.881 28.42-49.677-2.411 11.221.931 23.023 9.254 31.348l9.27 9.269c13.214 13.214 30.695 20.011 48.297 20.01 13.421-.001 26.915-3.954 38.63-12.029 3.411-2.351 4.27-7.021 1.919-10.431-2.351-3.411-7.02-4.272-10.432-1.919-21.119 14.556-49.637 11.934-67.808-6.238l-9.269-9.268c-7.311-7.762-6.036-15.949-2.786-26.15l51.234 19.084c.863.321 1.748.474 2.617.474 3.042 0 5.905-1.865 7.029-4.884 1.446-3.882-.529-8.2-4.41-9.646l-54.198-20.188 26.625-26.625 48.161 11.877c.603.148 1.207.22 1.802.22 3.37 0 6.433-2.288 7.276-5.706.992-4.021-1.464-8.086-5.486-9.078l-39.359-9.706 28.471-28.471c2.929-2.93 2.929-7.678 0-10.607-2.929-2.928-7.678-2.928-10.606 0l-28.472 28.469-9.706-39.359c-.991-4.021-5.053-6.476-9.078-5.486-4.021.992-6.478 5.057-5.486 9.078l11.877 48.161-27.567 27.567-24.891-49.093c-1.874-3.694-6.388-5.17-10.081-3.298-3.694 1.873-5.171 6.387-3.298 10.081l22.288 43.958c-15.686 7.497-25.821-3.796-33.655-12.373-20.757-20.757-20.757-54.532 0-75.289 20.701-20.7 50.248-29.881 79.035-24.568l62.408 11.527c9.015 1.665 16.19 8.841 17.855 17.856l11.527 62.408c3.913 21.187.008 43.056-10.998 61.578-2.116 3.561-.944 8.163 2.617 10.278 3.561 2.119 8.163.943 10.279-2.616 12.862-21.646 17.426-47.204 12.852-71.965zm-252.473 120.107c0 27.048-22.005 49.054-49.054 49.054s-49.054-22.006-49.054-49.054 22.005-49.054 49.054-49.054 49.054 22.006 49.054 49.054zm-98.606-47.064-15.125-9.976c-16.625-10.987-34.601-19.9-53.426-26.491-13.638-5.479-35.497-8.85-43.357-23.716-5.195-8.765-6.243-19.306-2.875-28.918 3.366-9.605 10.756-17.181 20.276-20.783 61.843-20.537 65.519-32.358 93.535-55.47 14.926-13.318 41.399-9.999 51.952 8.574 9.148 12.912 1.721 35.927.019 49.419-3.244 19.648-4.046 39.696-2.384 59.583.385 8.985 3.189 21.299-.004 30.812-17.486.254-33.295 7.541-44.718 19.165-1.338-.64-2.64-1.372-3.893-2.199zm-59.106 172.451-17.231 6.41c-17.336 6.453-36.693-2.399-43.155-19.728l-22.581-60.66c-9.315-31.754 15.065-42.747 36.968-49.563 11.303-4.207 23.148-6.105 35.202-5.654l55.445 2.084c-.746 17.719 7.384 36.348 19.763 47.973-3.263 3.757-18.499 42.945-20.932 48.143-12.292 11.942-26.518 25.215-43.479 30.995zm141.016 79.97h-64.72c-18.5 0-33.55-15.051-33.55-33.551-1.872-23.841 3.075-48.792 13.882-69.966 4.335-9.718 15.508-38.854 19.799-46.522 9.475 5.542 20.484 8.735 32.231 8.735s22.756-3.193 32.231-8.735c1.211.637 25.707 61.219 26.703 63.14 7.177 15.295 7.378 36.447 6.974 53.348 0 18.5-15.051 33.551-33.55 33.551z"/><path d="m229.983 236.653-1.133-.565c-1.321-8.222-10.864-14.533-20.175-9.716-6.588-4.029-18.689-.436-20.176 9.716-7.586 2.897-11.864 14.272-4.983 21.831-2.464 7.737 3.763 18.175 13.962 17.508 4.513 6.75 16.556 8.391 22.393 0 8.091.68 16.883-7.713 13.962-17.508 5.191-5.582 4.84-16.863-3.85-21.266zm-8.455 12.658c-1.715 2.227-3.356 6.627-2.494 11.126-2.888.026-7.321 1.477-10.359 4.988-1.819-2.243-5.722-4.802-10.358-4.988.619-2.82.188-7.463-2.558-11.209 2.591-1.274 5.956-4.509 7.168-8.988 2.475 1.142 6.857 1.834 11.498 0 .667 2.808 3.068 6.809 7.168 8.988z"/></g></svg>