<svg id="Capa_1" enable-background="new 0 0 512 512" height="512" viewBox="0 0 512 512" width="512" xmlns="http://www.w3.org/2000/svg"><g><g><g><path d="m338.542 349.05c-20.203 1.588-38.653 11.583-51.076 28.291v-70.265l33.598-21.783-8.16-12.586-25.438 16.492v-34.699h6.42c21.103 0 40.669-9.546 53.683-26.191l-11.817-9.239c-10.151 12.984-25.411 20.431-41.866 20.431-59.188 0-61.061.324-67.57-.894v-87.077c0-29.301 23.701-53.11 53.11-53.11h67.57v82.33h15v-97.33h-19.45v-41.4h-38.706c-9.001-15.052-18.098-24.54-28.506-35.38-3.207-3.341-3.401-3.548-6.343-6.64h-8.052c-13.883 14.589-24.776 24.994-35.222 42.651-5.508-.824-5.288-.631-38.332-.631v41.4h-19.45v102.97c0 28.056 17.58 53.389 43.38 63.469v.248c12.965 3.847 14.963 4.393 31.15 4.393v69.305c-3.05-4.661-6.777-9.307-11.375-13.905-25.545-25.545-51.175-24.536-83.288-27.059 2.063 26.559 1.819 45.858 13.495 65.916l12.964-7.547c-7.983-13.713-9.229-27.542-10.219-42.116 19.616 1.348 38.202 3.172 56.442 21.412 18.221 18.221 20.062 36.789 21.395 56.384-13.27-1.043-35.908-.813-56.437-21.342-.887-.887-1.756-1.797-2.583-2.705l-11.089 10.102c.983 1.079 2.015 2.159 3.065 3.21 24.454 24.454 51.225 24.538 67.629 25.828v49.519l-25.438-16.492-8.16 12.586 33.598 21.783v52.621h45v-73.709c13.062-.9 27.696-2.23 42.145-11.429l-8.057-12.653c-10.622 6.763-21.463 8.12-32.839 8.955-2.014-31.186 21.277-56.824 51.001-59.16l8.234-.647c-1.039 14.594-2.826 28.46-15.727 41.979l10.852 10.356c19.752-20.697 18.954-40.778 21.119-68.657zm-10.995-265.63c-51.053 0-57.463-1.174-72.098 4.334 4.054-17.685 20.272-30.734 38.878-30.734h33.22zm-62.581-65.922c8.069 8.405 14.897 15.567 21.461 25.122-11.484 1.684-22.188 6.976-30.49 15.073-4.484-4.385-9.686-7.975-15.359-10.605 7.509-11.92 15.45-20.282 24.388-29.59zm-62.579 39.522c14.191 0 30.229-2.337 44.264 12.621-5.182 8.97-6.687 17.452-7.11 23.567-12.326-7.434-24.148-9.788-37.154-9.788zm-19.45 129.37v-87.97c21.37 0 32.033-1.586 46.84 6.494-11.865 12.624-18.46 29.058-18.46 46.616v81.852c-17.105-9.06-28.38-27.15-28.38-46.992zm74.53 310.61v-242.5h15v242.5z"/><path d="m342.728 207.29 13.787 5.909c2.213-5.164 3.778-10.598 4.652-16.151l-14.817-2.331c-.682 4.323-1.9 8.553-3.622 12.573z"/></g><g><g><g><g><g><g><path d="m315.932 113.952h15v14.764h-15z"/></g></g></g></g></g><g><g><g><g><g><path d="m286.133 113.583h15v15h-15z"/></g></g></g></g></g></g></g></g></svg>