<svg id="Capa_1" enable-background="new 0 0 511.994 511.994" height="512" viewBox="0 0 511.994 511.994" width="512" xmlns="http://www.w3.org/2000/svg"><g><path d="m510.826 126.094c-2.875-9.365-10.637-16.33-20.26-18.179l-30.573-5.87 26.041-22.125c10.45-8.51 12.437-26.969 1.536-37.558l-5.948-5.958c-9.347-9.706-27.882-10.196-37.566 1.532l-23.671 27.869c-2.682 3.157-2.296 7.89.861 10.572s7.89 2.296 10.572-.861l23.667-27.865c3.211-3.74 10.525-5.521 15.53-.641l5.944 5.954c3.466 3.505 4.654 10.926-.632 15.521l-45.586 38.732c-1.108-3.139-2.889-6.092-5.396-8.599-6.41-6.399-15.683-8.201-23.734-5.456l-7.293-38.003c-1.847-9.622-8.812-17.385-18.177-20.261-9.366-2.877-19.488-.358-26.416 6.569-7.442 7.442-9.752 18.575-5.886 28.364l22.013 55.736-16.18 16.18-6.753-35.189c-1.847-9.622-8.812-17.385-18.178-20.261s-19.488-.359-26.416 6.569c-7.442 7.442-9.752 18.575-5.886 28.364l22.016 55.744-16.181 16.179-6.755-35.197c-1.847-9.622-8.812-17.385-18.178-20.261-9.366-2.877-19.488-.359-26.416 6.569-7.442 7.442-9.753 18.576-5.887 28.364l22.015 55.74-16.179 16.177-6.751-35.193c-1.849-9.622-8.817-17.385-18.185-20.26-9.369-2.876-19.487-.357-26.412 6.568-6.591 6.663-9.964 17.748-5.919 28.285l21.489 56.375-10.721 10.72c-26.29 26.29-55.969 48.894-88.253 67.26l21.625-28.601c9.541-12.619 15.747-27.568 17.948-43.233l13.677-97.34c.806-5.733-2.634-11.102-8.18-12.766-5.545-1.663-11.374.924-13.856 6.155l-102.211 215.253-37.265 20.688c-3.621 2.011-4.927 6.577-2.916 10.198 2.01 3.621 6.577 4.927 10.198 2.916l104.472-58.004c34.977-19.415 67.062-43.61 95.365-71.914l192.418-192.417c3.128-3.125 8.219-3.124 11.344-.004 3.129 3.129 3.129 8.221 0 11.35 0 0-202.756 202.5-207.966 207.225-.034.028-.067.058-.1.087-.001.001-.002.001-.003.002-.05.043-.1.085-.149.13-25.278 22.941-53.245 42.982-83.125 59.568l-119.538 66.374c-3.621 2.011-4.926 6.577-2.915 10.198 1.371 2.468 3.927 3.86 6.563 3.86 1.232 0 2.481-.304 3.635-.945l32.213-17.887 161.28 20.034 83.544 13.495c4.515.805 10.702-1.754 12.851-7.677 1.885-5.438-.312-11.188-5.343-13.983l-57.746-32.086c-15.733-8.742-33.545-13.932-51.51-15.008l-5.894-.354c-4.149-.256-7.688 2.903-7.936 7.037-.248 4.135 2.902 7.688 7.037 7.936l5.894.354c15.738.943 31.341 5.489 45.123 13.146l40.975 22.768c-.255-.036-64.594-10.444-65.01-10.496l-141.018-17.517 24.529-13.619 53.435 3.203c4.141.241 7.688-2.904 7.936-7.038.248-4.135-2.903-7.688-7.038-7.935l-29.91-1.792 16.126-8.954c29.536-16.394 57.256-36.063 82.475-58.49l57.135 21.777c8.364 3.494 20.585 1.99 28.366-5.887 6.926-6.926 9.443-17.047 6.568-26.413-2.875-9.368-10.639-16.335-20.262-18.185l-35.195-6.752 16.179-16.179 55.743 22.016c8.444 3.528 20.699 1.857 28.364-5.887 6.928-6.928 9.445-17.049 6.569-26.415s-10.639-16.331-20.261-18.178l-35.198-6.755 16.181-16.181 55.743 22.016c8.444 3.528 20.699 1.857 28.364-5.887 6.928-6.928 9.445-17.049 6.569-26.415s-10.639-16.331-20.261-18.178l-35.198-6.755 16.181-16.181 55.743 22.016c8.444 3.528 20.699 1.857 28.364-5.887 6.928-6.928 9.445-17.05 6.569-26.416-2.875-9.366-10.639-16.331-20.261-18.177l-35.189-6.753 16.178-16.178 55.732 22.012c8.349 3.546 20.923 1.794 28.373-5.891 6.93-6.927 9.448-17.046 6.574-26.41zm-253.296 28.78c2.195-2.195 5.03-3.357 7.984-3.357 4.226-.276 10.313 3.701 11.271 9.269l8.67 45.178-10.844 10.844-19.624-49.686c-1.668-4.227-.67-9.035 2.543-12.248zm-110.072 53.93-10.62 75.58c-1.847 13.143-7.054 25.687-15.059 36.273l-42.126 55.716-15.977 8.871zm210.33-144.481c-1.669-4.227-.672-9.035 2.542-12.248 2.195-2.195 5.031-3.357 7.985-3.357 4.226-.276 10.313 3.702 11.271 9.27l8.67 45.177-10.844 10.844zm-48.858 39.151c2.195-2.195 5.03-3.357 7.984-3.357 4.226-.276 10.313 3.701 11.271 9.269l8.67 45.177-10.844 10.844-19.623-49.685c-1.669-4.227-.672-9.034 2.542-12.248zm-105.339 115.051c-1.195-3.287-1.252-8.18 2.541-12.254 3.036-3.035 7.298-4.096 11.405-2.835 4.108 1.261 7.045 4.532 7.855 8.749l8.667 45.179-11.34 11.339zm138.693 66.169c1.261 4.105.2 8.37-2.836 11.406-3.213 3.214-8.021 4.212-12.248 2.542l-49.686-19.624 10.844-10.844 45.178 8.67c4.217.81 7.488 3.744 8.748 7.85zm51.4-51.4c1.261 4.105.2 8.37-2.836 11.406-3.214 3.214-8.02 4.211-12.248 2.542l-49.686-19.624 10.844-10.844 45.178 8.67c4.217.811 7.487 3.745 8.748 7.85zm-111.549 94.944c4.218.811 7.49 3.747 8.75 7.855 1.26 4.106.2 8.37-2.835 11.405-2.588 2.424-6.908 4.401-12.335 2.509l-50.225-19.144c2.496-2.387 11.463-11.292 11.463-11.292zm154.199-154.192c4.218.809 7.488 3.743 8.749 7.849 1.261 4.105.2 8.37-2.836 11.407-3.213 3.214-8.02 4.211-12.248 2.542l-49.684-19.623 10.844-10.844zm57.314-32.148c-3.124 2.457-6.548 4.475-12.252 2.548l-48.679-19.226 12.611-10.715 42.409 8.141c4.218.811 7.489 3.745 8.749 7.849s.199 8.367-2.838 11.403z"/></g></svg>