<svg id="Layer_1" enable-background="new 0 0 511.897 511.897" height="512" viewBox="0 0 511.897 511.897" width="512" xmlns="http://www.w3.org/2000/svg"><g><path d="m299.34 228.514c37.305.225 68.637-30.66 68.893-67.956.255-37.301-30.742-68.638-67.957-68.893-90.768 3.848-91.465 131.82-.936 136.849zm-52.956-68.79c.198-29.027 24.765-53.284 53.79-53.059 29.026.197 53.259 24.756 53.059 53.789-.199 29.028-24.764 53.285-53.791 53.06-29.026-.197-53.258-24.757-53.058-53.79z"/><path d="m303.611 364.138c9.652 0 9.668-15 0-15-9.652 0-9.668 15 0 15z"/><path d="m276.563 376.771c-9.652 0-9.668 15 0 15 9.651 0 9.667-15 0-15z"/><path d="m157.869 220.638c-9.652 0-9.668 15 0 15 9.651 0 9.667-15 0-15z"/><path d="m280.36 164.38c9.652 0 9.668-15 0-15-9.652 0-9.667 15 0 15z"/><path d="m311.252 135.814c9.652 0 9.668-15 0-15-9.652 0-9.668 15 0 15z"/><path d="m325.279 188.669c9.652 0 9.668-15 0-15-9.651 0-9.667 15 0 15z"/><path d="m473.596 85.723c-58.452-54.726-134.805-85.167-214.995-85.716-50.14-.33-98.142 10.613-142.629 32.565-8.695 4.291-2.058 17.745 6.638 13.451 42.373-20.909 88.083-31.343 135.889-31.017 74.504.51 145.526 28.094 200.649 77.809l-13.613 25.911c-12.302-6.131-18.24-12.848-27.298-23.091-17.696-20.018-34.614-28.799-61.249-25.749-19.771 2.257-37.359-2.874-53.399-14.268-22.7-16.12-44.204-15.59-69.226-5.607-14.836 5.921-27.013 7.332-42.87 6.093-15.899-1.244-33.919-2.651-48.501 8.688-27.92 20.474-31.201 61.719-75.611 57.424l-14.678-28.488c11.667-10.607 24.202-20.352 37.327-29.014 8.093-5.342-.171-17.864-8.263-12.52-15.408 10.171-30.039 21.76-43.487 34.448-2.431 2.293-3.051 5.919-1.52 8.89l211.716 412.392c2.712 5.285 10.614 5.308 13.342.008l213.291-413.246c1.57-2.988.95-6.656-1.513-8.963zm-368.058 110.79c9.176-6.668 20.237-10.268 31.71-10.152 14.27.098 27.648 5.747 37.669 15.906 10.022 10.16 15.487 23.614 15.389 37.884-.156 22.875-15.218 43.206-36.545 50.337zm98.152 170.423c-.658 4.181-2.883 6.796-6.675 7.847l-7.817-15.233c.003-.003.006-.005.009-.008 1.789-1.526 4.061-2.259 6.407-2.077 5.307.927 7.999 4.084 8.076 9.471zm51.468 121.154-51.225-99.827c23.056-9.793 17.581-43.265-7.13-45.75-5.168-.414-10.215.838-14.524 3.552l-21.609-42.112c11.278-4.197 21.391-11.366 29.104-20.753 36.451-43.683 4.531-111.877-52.423-111.839-13.887-.096-27.357 4.004-38.723 11.684l-23.338-45.48c20.18-.583 35.836-10.74 43.982-20.746 10.997-13.505 18.936-29.303 32.929-40.186 9.996-7.773 23.659-6.705 38.124-5.575 18.115 1.416 32.572-.324 49.597-7.114 20.311-8.103 36.514-9.21 54.981 3.903 19.09 13.56 40.266 19.634 63.792 16.941 21.811-2.496 33.853 4.436 48.306 20.782 9.197 10.402 16.722 18.909 31.44 26.366l-52.521 102.056c-15.135-12.788-39.152-1.636-38.986 18.341 0 11.018 7.526 20.311 17.707 23.01l-25.208 48.985c-13.621-8.031-30.14-11.017-45.723-8.471-9.572 1.564-7.152 16.35 2.418 14.805 12.531-2.046 25.575.407 36.426 7.034l-48.784 94.798c-19.482-8.37-32.534-27.915-32.386-49.489.093-13.572 5.288-26.479 14.628-36.346 6.667-7.042-4.226-17.354-10.893-10.312-32.543 33.338-20.533 91.204 21.774 109.509zm116.841-227.046c-4.786.682-10.065-3.843-10.065-8.711.02-9.181 12.465-12.126 16.627-4.039z"/><path d="m181.508 104.513c-13.124 0-23.8 10.677-23.8 23.801 1.197 31.53 46.408 31.522 47.6 0-.001-13.124-10.677-23.801-23.8-23.801zm0 32.601c-4.853 0-8.8-3.947-8.8-8.8.413-11.648 17.188-11.645 17.6 0-.001 4.852-3.948 8.8-8.8 8.8z"/><path d="m270.25 266.289c0-13.123-10.677-23.8-23.8-23.8-31.531 1.197-31.522 46.408 0 47.6 13.124-.001 23.8-10.677 23.8-23.8zm-32.6 0c0-4.853 3.948-8.8 8.8-8.8 11.647.413 11.644 17.188 0 17.6-4.852-.001-8.8-3.948-8.8-8.8z"/></g></svg>