<svg id="Layer_1" enable-background="new 0 0 511.944 511.944" height="512" viewBox="0 0 511.944 511.944" width="512" xmlns="http://www.w3.org/2000/svg"><g><path d="m341.789 144.993c-2.641-1.176-5.116-2.393-7.42-3.647 17.254-14.315 7.081-42.972-15.61-42.979.219-1.566 3.729-6.796 6.537-9.623 34.899-34.965-4.523-90.267-47.314-68.617-13.34-28.114-54.541-26.387-65.567 2.748-13.422-1.139-26.652 5.702-33.948 18.27-8.625 14.854-6.022 31.87 6.628 43.361 3.416 3.121 9.624 11.646 10.277 13.861-22.189-.018-32.659 27.651-16.373 42.313-2.666 1.466-5.561 2.887-8.674 4.255-108.22 47.73-165.422 120.573-165.422 210.656 0 58.298 25.389 100.669 75.46 125.938 56.223 32.849 207.629 37.555 284.993 21.467 9.518-1.845 6.667-16.565-2.857-14.725-73.995 15.433-222.066 11.15-275.377-20.134-88.044-39.528-82.407-163.174-24.988-228.733 26.325-31.755 64.763-58.921 114.235-80.741 8.014-3.523 14.896-7.436 20.466-11.635h12.196c9.697 0 9.697-15 0-15h-13.66c-12.342-.433-12.353-18.224 0-18.661h110.763c.07.001.14.001.211 0h12.414c12.338.434 12.358 18.22 0 18.661h-69.777c-9.697 0-9.697 15 0 15h66.635c5.448 4.239 12.185 8.157 20.042 11.654 71.341 32.139 156.382 92.388 156.382 196.908 0 60.893-29.456 100.863-90.052 122.194-9.022 3.175-3.811 17.246 4.98 14.148 31.645-11.14 56.076-27.454 72.616-48.49 18.218-23.171 27.455-52.729 27.455-87.853 0-89.071-57.133-161.89-165.251-210.596zm-146.264-71.268-.161-.15c-.053-.051-.106-.102-.161-.15-8.761-7.938-7.688-17.989-3.764-24.748 4.333-7.461 13.469-13.431 24.118-9.951 5.163 1.008 8.417-1.031 9.762-6.116 3.78-23.716 37.715-23.412 40.97.414.624 5.408 7.586 8.924 12.347 4.819 14.927-12.865 29.427-7.554 37.309.906 8.828 9.474 12.19 25.853-1.29 39.426-3.729 3.753-9.924 10.906-13.75 20.193h-87.91c-4.396-11.28-12.589-20.093-17.47-24.643z"/><path d="m214.419 169.948c-2.776 1.189-68.37 29.911-100.221 96.886-4.056 8.531 9.403 15.158 13.547 6.441 29.354-61.729 91.96-89.271 92.589-89.543 8.905-3.825 2.993-17.606-5.915-13.784z"/><path d="m423.968 326.369c4.481 0 8.468-5.12 7.223-9.537-19.053-67.587-79.223-100.805-81.774-102.186-8.529-4.616-15.667 8.578-7.139 13.191.569.309 57.126 31.516 74.476 93.064.932 3.308 3.939 5.468 7.214 5.468z"/></g></svg>