<svg id="Layer_1" enable-background="new 0 0 512.006 512.006" height="512" viewBox="0 0 512.006 512.006" width="512" xmlns="http://www.w3.org/2000/svg"><path d="m504.503 448.126h-30.332c-1.585-21.176-9.95-40.491-22.925-55.777-1.126-32.184-14.568-63.229-37.258-86.125 3.839-45.533-52.56-70.995-83.583-37.617-34.396-1.965-68.127 10.013-93.704 33.266-6.388-1.677-12.91-2.962-19.532-3.831v-183.52h11.817c.059 0 .118 0 .177-.002.838-.02 20.689-.645 33.937-14.524 5.189-5.438 12.497-8.556 20.049-8.556h206.418c29.653-1.097 29.775-43.721 0-44.868h-206.418c-7.553 0-14.86-3.118-20.05-8.556-13.247-13.879-33.098-14.504-33.937-14.524-.059-.001-.118-.002-.177-.002h-11.815c.739-12.474-9.159-23.361-21.713-23.482-5.483-.059-10.694 1.858-14.787 5.452-4.095-3.594-9.316-5.506-14.786-5.452-5.422.071-10.387 2.134-14.196 5.481-7.675-7.216-21.335-7.222-29.017-.015-14.576-12.863-37.675-1.512-36.501 18.016h-13.852c-4.142 0-7.5 3.358-7.5 7.5s3.358 7.5 7.5 7.5h13.852v10.263h-13.852c-4.142 0-7.5 3.358-7.5 7.5s3.358 7.5 7.5 7.5h13.852v9.575h-13.852c-4.142 0-7.5 3.358-7.5 7.5s3.358 7.5 7.5 7.5h13.852v11.193h-13.852c-4.142 0-7.5 3.358-7.5 7.5s3.358 7.5 7.5 7.5h13.852c-1.674 19.917 21.506 31.949 36.5 18.837 5.445 4.993 14.312 6.888 21.5 4.327v144.735c-47.1-38.335-107.131 22.639-67.836 69.1-2.514 2.893-4.925 5.878-7.222 8.95-19.171 25.634-29.947 55.8-31.386 87.655h-30.223c-9.912.305-9.913 14.695 0 15h17.793l40.132 33.315c12.09 10.037 27.402 15.564 43.115 15.564h235.809c4.142 0 7.5-3.358 7.5-7.5s-3.358-7.5-7.5-7.5h-235.809c-12.221 0-24.131-4.299-33.534-12.105l-26.229-21.774h414.447l-26.229 21.774c-9.403 7.806-21.313 12.105-33.534 12.105h-19.125c-4.142 0-7.5 3.358-7.5 7.5s3.358 7.5 7.5 7.5h19.125c15.713 0 31.025-5.527 43.115-15.564l40.132-33.315h17.793c9.912-.304 9.91-14.694-.001-14.999zm-127.752-29.23c-17.656 0-32.431 12.569-35.848 29.23h-15.778c9.643-59.334 93.631-59.291 103.251 0h-15.778c-3.416-16.661-18.191-29.23-35.847-29.23zm20.299 29.23h-40.599c6.887-18.86 33.72-18.848 40.599 0zm-20.299-59.782c-34.536 0-63.065 26.209-66.742 59.782h-15.629c12.431-99.683 152.429-99.745 164.742 0h-15.628c-3.678-33.573-32.207-59.782-66.743-59.782zm-232.581-15.413c-25.379 16.101-42.865 43.574-45.231 75.195h-15.59c2.132-38.801 26.296-75.513 60.822-93.134v17.939zm11.041 10.844c35.179-18.87 78.863-12.236 104.797 18.979-5.898.641-11.481 2.343-16.554 4.912-39.186-39.456-108.407-14.352-113.836 40.46h-15.628c2.437-27.525 18.421-51.218 41.221-64.351zm61.959-39.623c33.328 6.181 62.013 26.915 78.484 56.913-1.843 2.737-3.551 5.572-5.114 8.495-3.382-2.069-6.995-3.708-10.765-4.887-14.038-22.969-36.829-38.964-62.605-44.622zm-20.811 59.192c12.91 0 25.213 4.766 34.722 13.275-3.703 3.69-6.814 7.973-9.177 12.692-20.249-20.246-55.957-9.135-61.392 18.814h-15.778c3.587-25.278 25.371-44.781 51.625-44.781zm0 30.552c9.322 0 17.283 5.938 20.3 14.23h-40.599c3.016-8.292 10.977-14.23 20.299-14.23zm35.651 13.327c2.448-24.766 31.995-38.372 52.427-23.735-2.716 7.813-4.466 16.073-5.107 24.638h-47.123c-.062-.302-.128-.603-.197-.903zm118.391-128.612c20.456 7.164 37.162 22.14 46.7 41.313-6.238-1.327-12.694-2.056-19.305-2.126-8.015-11.293-19.425-19.919-32.535-24.51-15.227-5.333-31.582-5.019-46.516.813-4.507-3.802-9.218-7.346-14.107-10.618 20.188-10.582 44.028-12.485 65.763-4.872zm-10.098 28.834c7.195 2.52 13.731 6.606 19.142 11.882-10.478 1.881-20.382 5.438-29.423 10.383-5.523-8.593-11.814-16.563-18.755-23.835 9.565-2.247 19.581-1.742 29.036 1.57zm94.213 29.299c-5.798-4.265-12.081-7.905-18.751-10.822-3.612-10.848-9.059-20.86-15.982-29.657 3.868-3.826 7.045-8.256 9.421-13.083 12.983 15.298 21.74 33.883 25.312 53.562zm-68.796-108.439c29.538-.002 44.468 35.843 23.904 56.904-15.649-14.613-35.974-23.785-57.295-25.791 1.216-17.36 15.727-31.113 33.391-31.113zm-44.864 15.116c-2.012 4.9-3.244 10.2-3.54 15.744-16.684 1.003-33.053 6.274-47.409 15.569-5.309-2.777-10.779-5.257-16.385-7.422 19.328-15.027 42.937-23.406 67.334-23.891zm-3.405 94.475c-4.197 3.216-8.127 6.763-11.75 10.604-19.511-31.869-51.638-53.553-88.531-59.573v-15.741c41.093 5.975 77.748 29.605 100.281 64.71zm-88.591-339.406c.951.044 14.792.874 23.389 9.882 8.006 8.388 19.269 13.199 30.901 13.199h206.418c9.827.314 9.82 14.558 0 14.868h-206.418c-11.632 0-22.895 4.811-30.9 13.199-8.622 9.033-22.459 9.838-23.391 9.882h-11.689v-61.03zm-62.782-23.483c4.315.356 6.678 2.689 7.091 6.999v135.961c0 4.142 3.358 7.5 7.5 7.5s7.5-3.358 7.5-7.5v-135.961c.413-4.309 2.777-6.642 7.092-6.999 3.809.049 6.908 3.189 6.908 6.999v335.96c-4.669-.279-9.335-.223-14 .166v-160.46c0-4.142-3.358-7.5-7.5-7.5s-7.5 3.358-7.5 7.5v162.9c-4.815 1.177-9.492 2.712-14 4.574v-343.14c.001-3.81 3.1-6.95 6.909-6.999zm-57.908 108.82c-3.86 0-7-3.14-7-7v-94.821c.295-9.253 13.708-9.247 14 0v94.821c0 3.86-3.141 7-7 7zm29 0c-3.86 0-7-3.14-7-7v-94.821c.295-9.253 13.708-9.247 14 0v94.821c0 3.86-3.141 7-7 7zm-24.892 161.684c13.573 0 25.591 8.056 30.806 20.341-20.906 7.466-40.211 19.432-56.344 34.785-18.403-21.273-2.685-55.355 25.538-55.126zm-31.154 83.944c16.07-21.488 38.195-38.272 63.046-47.996v16.884c-43.026 18.746-73.656 62.822-75.85 109.784h-15.577c1.427-28.59 11.165-55.653 28.381-78.672z"/></svg>