<svg id="Layer_1" enable-background="new 0 0 514.403 514.403" height="512" viewBox="0 0 514.403 514.403" width="512" xmlns="http://www.w3.org/2000/svg"><g><path d="m160.736 46.905c-.764 1.64-18.701 40.584-18.701 76.498 0 4.143 3.358 7.5 7.5 7.5s7.5-3.357 7.5-7.5c0-32.545 17.128-69.798 17.301-70.171 1.746-3.755.119-8.214-3.636-9.962-3.753-1.745-8.215-.12-9.964 3.635z"/><path d="m362.178 496.368c-27.592-17.196-62.764-27.41-97.477-28.453v-186.137c80.243-3.897 145.312-72.338 145.312-152.629 0-38.472-14.077-85.369-37.656-125.451-1.347-2.292-3.806-3.698-6.464-3.698h-32.47c-9.907.303-9.917 14.694 0 15h28.139c28.286 53.057 43.7 107.345 25.525 160.236h-259.771c-18.176-52.88-2.759-107.19 25.525-160.236h140.689c4.142 0 7.5-3.357 7.5-7.5s-3.358-7.5-7.5-7.5h-145.02c-2.658 0-5.117 1.406-6.464 3.697-23.579 40.082-37.656 86.979-37.656 125.451 0 80.295 65.063 148.732 145.312 152.629v186.193c-35.157 1.279-70.31 11.468-97.477 28.398-7.707 4.806-3.493 18.035 5.17 18.035h46.799c9.697 0 9.697-15 0-15h-25.791c23.626-10.649 51.372-16.57 78.859-16.57 26.711-.215 54.849 5.826 78.711 16.57h-91.878c-9.697 0-9.697 15 0 15h112.912c8.664 0 12.879-13.229 5.171-18.035zm-228.495-306.132h247.037c-49.621 101.671-197.456 101.615-247.037 0z"/></g></svg>