<svg id="Layer_1" enable-background="new 0 0 512.107 512.107" height="512" viewBox="0 0 512.107 512.107" width="512" xmlns="http://www.w3.org/2000/svg"><g><path d="m423.995 303.127c-11.44-12.812-32.056-13.417-47.32-1.899-18.101-8.322-39.912-10.678-62.047-6.613-24.484 4.498-47.97 16.256-67.917 34.001-4.863 4.326-9.396 8.901-13.576 13.691v-115.717c0-21.211-10.115-41.547-27.057-54.399l-16.531-12.541v-73.93c28.542-4.22 28.521-44.537 0-48.746v-18.783c0-10.031-8.16-18.191-18.192-18.191h-28.942c-10.031 0-18.191 8.16-18.191 18.191v18.783c-28.542 4.22-28.521 44.536 0 48.746v73.93l-16.53 12.541c-16.942 12.853-27.058 33.188-27.058 54.399v50.962c.3 9.902 14.693 9.922 15 0v-19.908h42.863v166.824h-42.863v-106.997c0-4.143-3.357-7.5-7.5-7.5s-7.5 3.357-7.5 7.5v155.03c0 21.78 17.785 39.499 39.646 39.499h73.208c5.755 0 11.424-1.245 16.605-3.624 11.48 5.602 26.458 3.937 38.243-4.958 43.647 20.069 95.737 3.061 129.964-27.389 19.757-17.574 34.084-39.306 41.433-62.845 1.234-3.954-.971-8.16-4.924-9.395-3.954-1.235-8.16.97-9.395 4.924-6.537 20.941-19.36 40.343-37.084 56.108-35.575 31.648-83.913 41.134-117.548 23.066-3.571-1.92-7.08-.233-9.739 2.127-9.279 8.253-22.217 8.931-28.838 1.513-7.581-8.49-2.634-21.762 4.814-28.387 2.658-2.37 4.736-5.671 3.232-9.443-31.282-80.12 78.123-177.101 153.976-136.941 3.57 1.917 7.081.234 9.74-2.127 9.277-8.254 22.215-8.932 28.838-1.513 7.577 8.485 2.639 21.757-4.807 28.381-2.662 2.369-4.745 5.675-3.24 9.449 2.681 6.722 4.357 14.053 4.983 21.788.334 4.129 3.956 7.199 8.08 6.871 4.129-.334 7.205-3.952 6.871-8.08-.599-7.401-2.017-14.522-4.223-21.237 11.886-12.446 15.73-33.492 3.526-47.161zm-281.582-288.127h28.942c1.76 0 3.191 1.432 3.191 3.191v18.589h-35.325v-18.589c.001-1.759 1.432-3.191 3.192-3.191zm-24.734 46.347c0-5.275 4.326-9.566 9.645-9.566h59.122c5.318 0 9.645 4.291 9.645 9.566s-4.326 9.566-9.645 9.566h-24.203c-9.91.301-9.914 14.697 0 15h12.305v69.961h-35.325v-77.461c0-4.143-3.357-7.5-7.5-7.5h-4.398c-5.32 0-9.646-4.291-9.646-9.566zm87.4 330.724c-6.584 21.479-6.742 43.379-.538 62.284-10.411 10.904-14.927 28.689-7.034 42.318-1.322.216-2.666.327-4.019.327h-73.208c-13.59 0-24.646-10.99-24.646-24.499v-33.033h50.363c4.143 0 7.5-3.357 7.5-7.5v-181.824c0-4.143-3.357-7.5-7.5-7.5h-50.363v-16.054c0-16.547 7.896-32.415 21.123-42.448l17.488-13.268h45.278l17.488 13.268c13.227 10.033 21.123 25.901 21.123 42.448v136.294c-5.56 9.276-9.953 19.066-13.055 29.187z"/><path d="m274.843 473.622c9.652 0 9.668-15 0-15-9.652 0-9.668 15 0 15z"/><path d="m327.037 345.118c9.652 0 9.668-15 0-15-9.652 0-9.668 15 0 15z"/><path d="m370.184 417.358c9.652 0 9.668-15 0-15-9.652 0-9.667 15 0 15z"/></g></svg>