<svg id="Capa_1" enable-background="new 0 0 512 512" height="512" viewBox="0 0 512 512" width="512" xmlns="http://www.w3.org/2000/svg"><g><path d="m422.312 248.498c4.143 0 7.5-3.357 7.5-7.5v-203.498c0-20.678-16.822-37.5-37.5-37.5h-227c-20.678 0-37.5 16.822-37.5 37.5v129.518c-27.328 16.585-45.625 46.627-45.625 80.863 0 39.698 17.978 62.988 38.793 89.955 2.232 2.891 4.518 5.855 6.832 8.906v127.758c0 20.678 16.822 37.5 37.5 37.5h31.285c4.143 0 7.5-3.357 7.5-7.5s-3.357-7.5-7.5-7.5h-31.285c-12.406 0-22.5-10.094-22.5-22.5v-22.5h272v22.5c0 12.406-10.094 22.5-22.5 22.5h-165.711c-4.143 0-7.5 3.357-7.5 7.5s3.357 7.5 7.5 7.5h165.712c20.678 0 37.5-16.822 37.5-37.5v-203.498c0-4.143-3.357-7.5-7.5-7.5s-7.5 3.357-7.5 7.5v70.547l-36.666-36.666c-1.416-1.415-2.196-3.298-2.196-5.302v-110.75c0-4.136 3.364-7.5 7.5-7.5h31.362v59.667c-.001 4.143 3.357 7.5 7.499 7.5zm-46.362-171.498h38.862v29.331h-31.362c-4.136 0-7.5-3.364-7.5-7.5zm-210.638-62h227c12.406 0 22.5 10.094 22.5 22.5v24.5h-272v-24.5c0-12.406 10.094-22.5 22.5-22.5zm135.638 62v18.932c0 2.914-1.559 5.426-4.169 6.72-2.612 1.293-5.556 1.013-7.873-.751l-32.727-24.901zm-203.762 170.881c0-43.847 35.672-79.519 79.519-79.519 20.881 0 40.606 8.031 55.544 22.614 2.965 2.896 7.714 2.835 10.605-.127 2.894-2.964 2.837-7.712-.127-10.605-17.756-17.335-41.203-26.882-66.022-26.882-11.94 0-23.367 2.231-33.894 6.289v-74.937l155.205 119.157c1.836 1.41 2.933 3.635 2.933 5.95v63.399c0 4.136-3.364 7.5-7.5 7.5h-26.977c3.015-9.766 4.751-20.511 4.751-32.84 0-14.056-3.015-27.586-8.959-40.215-1.765-3.749-6.233-5.354-9.98-3.592-3.748 1.765-5.355 6.232-3.592 9.98 4.997 10.615 7.531 21.996 7.531 33.826 0 34.583-15.74 54.974-35.668 80.79-12.974 16.807-27.678 35.855-40.046 61.82-.838 1.758-2.225 2.766-3.805 2.766-1.581 0-2.968-1.008-3.805-2.766-12.369-25.965-27.073-45.014-40.047-61.82-19.926-25.815-35.666-46.206-35.666-80.788zm45.624 119.882c5.764 8.761 11.399 18.372 16.547 29.18 3.325 6.979 9.973 11.313 17.348 11.313 7.374 0 14.021-4.336 17.345-11.314 7.617-15.988 16.297-29.354 24.885-41.221l100.874-.001c2.003 0 3.887.78 5.304 2.197l79.09 79.083h-261.393zm240.638-201.432c-12.406 0-22.5 10.094-22.5 22.5v110.75c0 6.012 2.341 11.662 6.59 15.91l47.272 47.272v63.631l-79.091-79.084c-4.25-4.249-9.9-6.59-15.91-6.59l-89.606.001c.747-.969 1.489-1.931 2.225-2.885 10.874-14.087 20.966-27.174 28.133-42.116h32.887c12.406 0 22.5-10.094 22.5-22.5v-63.399c0-6.945-3.289-13.617-8.798-17.848l-149.754-114.973h74.011l48.417 36.838c4.015 3.055 8.784 4.616 13.597 4.616 3.401 0 6.825-.779 10.02-2.363 7.715-3.824 12.508-11.549 12.508-20.159v-18.932h45v21.831c0 12.406 10.094 22.5 22.5 22.5h31.362v45z"/><path d="m263.812 46.353h30c4.143 0 7.5-3.357 7.5-7.5s-3.357-7.5-7.5-7.5h-30c-4.143 0-7.5 3.357-7.5 7.5s3.358 7.5 7.5 7.5z"/><path d="m293.812 481.638c4.143 0 7.5-3.357 7.5-7.5s-3.357-7.5-7.5-7.5h-30c-4.143 0-7.5 3.357-7.5 7.5s3.357 7.5 7.5 7.5z"/><path d="m176.706 299.836c26.598 0 48.236-21.639 48.236-48.236 0-26.599-21.639-48.237-48.236-48.237-26.599 0-48.237 21.639-48.237 48.237 0 26.597 21.638 48.236 48.237 48.236zm0-81.474c18.326 0 33.236 14.91 33.236 33.237 0 18.326-14.91 33.236-33.236 33.236-18.327 0-33.237-14.91-33.237-33.236 0-18.327 14.91-33.237 33.237-33.237z"/><circle cx="324.312" cy="38.853" r="7.5"/></g></svg>