<svg id="Capa_1" enable-background="new 0 0 511.999 511.999" height="512" viewBox="0 0 511.999 511.999" width="512" xmlns="http://www.w3.org/2000/svg"><g><path d="m308.323 153.817c-.779-3.829-4.049-6.657-7.95-6.877-3.913-.22-7.47 2.223-8.674 5.939-.028.085-.055.171-.079.257l-7.507 26.334-7.791-26.407c-.026-.09-.055-.179-.084-.267-1.246-3.705-4.854-6.105-8.736-5.849-3.899.262-7.139 3.124-7.895 7.049l-8.63 47.812c-.735 4.076 1.973 7.977 6.049 8.713 4.073.731 7.978-1.972 8.713-6.049l3.838-21.264 6.396 21.682c.026.09.055.18.084.269 1.182 3.513 4.457 5.865 8.16 5.865h.046c3.721-.02 6.994-2.411 8.144-5.95.027-.087.054-.173.079-.26l6.174-21.656 4.088 21.391c.777 4.069 4.714 6.745 8.774 5.958 4.068-.777 6.736-4.705 5.958-8.774z"/><path d="m216 178.009 18.976-17.442c3.05-2.803 3.25-7.548.446-10.597-2.802-3.05-7.547-3.249-10.597-.446l-13.836 12.718v-7.815c0-4.143-3.358-7.5-7.5-7.5s-7.5 3.357-7.5 7.5v49.098c0 4.143 3.358 7.5 7.5 7.5s7.5-3.357 7.5-7.5v-9.506l15.447 14.903c1.455 1.404 3.332 2.103 5.206 2.103 1.965 0 3.927-.768 5.398-2.293 2.876-2.98 2.791-7.729-.19-10.604z"/><path d="m148.895 146.926h-27.01c-4.142 0-7.5 3.357-7.5 7.5s3.358 7.5 7.5 7.5h15.521l-16.959 38.579c-1.667 3.792.056 8.218 3.848 9.885.982.432 2.006.636 3.014.636 2.884 0 5.635-1.674 6.87-4.483l21.583-49.098c1.02-2.319.799-4.997-.585-7.118s-3.749-3.401-6.282-3.401z"/><path d="m388.323 307.741c-.78-3.829-4.051-6.656-7.952-6.876-3.91-.195-7.468 2.224-8.673 5.942-.027.084-.054.17-.078.255l-7.507 26.333-7.791-26.407c-.026-.09-.055-.18-.085-.269-1.245-3.704-4.838-6.095-8.736-5.846-3.898.262-7.138 3.124-7.894 7.048l-8.63 47.812c-.735 4.076 1.973 7.977 6.049 8.713 4.073.732 7.978-1.972 8.713-6.049l3.838-21.265 6.396 21.682c.026.09.055.18.084.269 1.182 3.514 4.457 5.866 8.16 5.866.016 0 .031-.001.047-.001 3.722-.02 6.994-2.412 8.143-5.952.028-.086.055-.172.079-.258l6.174-21.656 4.087 21.392c.779 4.069 4.715 6.744 8.775 5.958 4.068-.777 6.736-4.705 5.958-8.774z"/><path d="m296 331.935 18.976-17.442c3.05-2.803 3.25-7.548.446-10.597-2.802-3.05-7.547-3.249-10.597-.446l-13.836 12.718v-7.816c0-4.143-3.358-7.5-7.5-7.5s-7.5 3.357-7.5 7.5v49.099c0 4.143 3.358 7.5 7.5 7.5s7.5-3.357 7.5-7.5v-9.506l15.447 14.903c1.455 1.404 3.332 2.103 5.206 2.103 1.965 0 3.927-.768 5.398-2.293 2.876-2.98 2.791-7.729-.19-10.604z"/><path d="m474.767 318.459-36.058-43.083c-4.287-5.121-10.576-8.059-17.254-8.059h-142.955v-22.761h74.014c12.406 0 22.5-10.094 22.5-22.5v-86.164c0-12.406-10.094-22.5-22.5-22.5h-74.014v-19.031c0-2.674 1.302-5.178 3.398-6.533 14.225-9.201 22.571-25.433 21.784-42.361-1.151-24.767-21.476-44.729-46.272-45.447-13.021-.368-25.338 4.407-34.669 13.474-9.335 9.068-14.476 21.229-14.476 34.241 0 16.229 8.139 31.201 21.772 40.051 2.168 1.407 3.463 3.767 3.463 6.311v19.297h-142.956c-6.678 0-12.967 2.938-17.254 8.059l-36.058 43.083c-7.003 8.367-7.003 20.514 0 28.881l36.058 43.082c4.287 5.122 10.576 8.06 17.254 8.06h142.956v22.761h-74.014c-12.407 0-22.5 10.094-22.5 22.5v86.164c0 12.406 10.093 22.5 22.5 22.5h74.014v76.018c0 12.406-10.093 22.5-22.5 22.5-4.142 0-7.5 3.357-7.5 7.5s3.358 7.5 7.5 7.5c20.678 0 37.5-16.822 37.5-37.5v-76.018h15v76.018c0 20.678 16.822 37.5 37.5 37.5 4.143 0 7.5-3.357 7.5-7.5s-3.357-7.5-7.5-7.5c-12.406 0-22.5-10.094-22.5-22.5v-76.018h142.956c6.679 0 12.967-2.937 17.254-8.059l36.058-43.082c7.003-8.369 7.003-20.517-.001-28.884zm-236.563-243.256c-9.354-6.072-14.939-16.341-14.939-27.469 0-8.924 3.526-17.263 9.928-23.482 6.399-6.217 14.837-9.503 23.784-9.238 16.999.492 30.933 14.174 31.722 31.149.549 11.793-5.038 22.66-14.946 29.068-6.419 4.152-10.252 11.303-10.252 19.129v19.032h-15v-19.296c-.001-7.646-3.85-14.708-10.297-18.893zm-153.411 151.667-36.058-43.082c-2.334-2.789-2.334-6.838 0-9.627l36.058-43.082c1.429-1.707 3.525-2.687 5.751-2.687h261.97c4.136 0 7.5 3.364 7.5 7.5v86.164c0 4.136-3.364 7.5-7.5 7.5h-261.97c-2.226.001-4.323-.979-5.751-2.686zm163.707 17.687h15v22.761h-15zm214.765 93.157-36.058 43.081c-1.429 1.707-3.525 2.687-5.752 2.687h-261.97c-4.135 0-7.5-3.364-7.5-7.5v-86.164c0-4.136 3.365-7.5 7.5-7.5h261.97c2.226 0 4.322.979 5.752 2.687l36.058 43.082c2.334 2.788 2.334 6.838 0 9.627z"/><path d="m228.619 349.838c-.032 0-.064 0-.096.001-3.384.042-6.926.074-10.208.093 2.386-3.245 5.368-7.382 9.049-12.642 3.228-4.612 5.34-9.006 6.281-13.06.057-.245.102-.493.133-.743l.238-1.863c.041-.315.061-.633.061-.951 0-10.93-8.892-19.822-19.822-19.822-9.45 0-17.63 6.724-19.45 15.988-.798 4.064 1.849 8.006 5.914 8.805 4.066.8 8.007-1.85 8.805-5.914.441-2.247 2.432-3.879 4.731-3.879 2.535 0 4.62 1.966 4.808 4.454l-.109.854c-.406 1.531-1.415 4.009-3.879 7.531-7.605 10.866-12.14 16.804-14.576 19.994-3.137 4.107-5.031 6.587-3.79 10.618.733 2.381 2.604 4.278 4.997 5.075 1.001.333 1.755.586 11.296.586 3.721 0 8.781-.039 15.71-.126 4.142-.052 7.457-3.451 7.405-7.593-.052-4.11-3.399-7.406-7.498-7.406z"/></g></svg>