<svg id="Capa_1" enable-background="new 0 0 512 512" height="512" viewBox="0 0 512 512" width="512" xmlns="http://www.w3.org/2000/svg"><g><path d="m128.738 136.901c0-23.567-19.174-42.741-42.742-42.741-23.567 0-42.741 19.174-42.741 42.741 0 23.568 19.174 42.742 42.741 42.742 23.568 0 42.742-19.174 42.742-42.742zm-70.483 0c0-15.297 12.445-27.741 27.741-27.741 15.297 0 27.742 12.444 27.742 27.741s-12.445 27.742-27.742 27.742c-15.296 0-27.741-12.445-27.741-27.742z"/><path d="m426.003 50.905c-47.419 0-85.997 38.578-85.997 85.996 0 36.062 16.288 57.162 35.148 81.596 11.266 14.595 24.036 31.138 34.538 53.185 3.122 6.554 9.372 10.625 16.311 10.625 6.938 0 13.188-4.071 16.311-10.625 10.502-22.047 23.271-38.59 34.538-53.186 18.86-24.433 35.148-45.534 35.148-81.595 0-47.418-38.578-85.996-85.997-85.996zm38.976 158.426c-11.725 15.189-25.015 32.406-36.206 55.899-.861 1.807-2.104 2.076-2.77 2.076-.665 0-1.908-.27-2.769-2.076-11.191-23.493-24.481-40.71-36.206-55.899-17.891-23.178-32.022-41.484-32.022-72.43 0-39.147 31.849-70.996 70.997-70.996 39.147 0 70.997 31.849 70.997 70.996 0 30.945-14.131 49.252-32.021 72.43z"/><path d="m85.997 282.306c6.939 0 13.188-4.071 16.311-10.625 10.502-22.047 23.272-38.59 34.538-53.185 18.86-24.434 35.148-45.534 35.148-81.596 0-47.418-38.578-85.996-85.997-85.996-47.419.001-85.997 38.579-85.997 85.997 0 36.062 16.288 57.162 35.147 81.595 11.267 14.596 24.036 31.139 34.538 53.186 3.123 6.553 9.373 10.624 16.312 10.624zm-70.997-145.405c0-39.147 31.849-70.996 70.997-70.996s70.997 31.849 70.997 70.996c0 30.945-14.131 49.252-32.022 72.43-11.725 15.189-25.015 32.406-36.206 55.899-.86 1.807-2.104 2.076-2.769 2.076s-1.909-.27-2.77-2.076c-11.191-23.493-24.481-40.71-36.206-55.899-17.89-23.178-32.021-41.485-32.021-72.43z"/><path d="m426.003 94.16c-23.568 0-42.742 19.174-42.742 42.741 0 23.568 19.174 42.742 42.742 42.742 23.567 0 42.741-19.174 42.741-42.742.001-23.568-19.173-42.741-42.741-42.741zm0 70.483c-15.297 0-27.742-12.445-27.742-27.742s12.445-27.741 27.742-27.741c15.296 0 27.741 12.444 27.741 27.741s-12.444 27.742-27.741 27.742z"/><path d="m428.542 298.442c-11.651-.779-22.777 3.773-30.528 12.47-1.385 1.554-3.401 2.445-5.531 2.445h-272.966c-2.13 0-4.146-.892-5.531-2.445-7.752-8.696-18.888-13.251-30.529-12.47-18.687 1.239-33.683 16.268-34.882 34.959-.672 10.488 2.902 20.47 10.065 28.107 7.064 7.53 17.035 11.85 27.356 11.85 10.559 0 20.685-4.491 27.783-12.324 1.542-1.701 3.635-2.677 5.745-2.677h44.97c4.142 0 7.5-3.357 7.5-7.5s-3.358-7.5-7.5-7.5h-44.97c-6.336 0-12.482 2.772-16.86 7.605-4.259 4.7-10.334 7.396-16.667 7.396-6.284 0-12.114-2.525-16.415-7.111-4.297-4.582-6.441-10.579-6.037-16.886.719-11.202 9.706-20.209 20.904-20.952 7.003-.46 13.688 2.265 18.34 7.483 4.229 4.744 10.326 7.465 16.729 7.465h272.966c6.403 0 12.5-2.721 16.729-7.465 4.652-5.22 11.332-7.949 18.339-7.483 11.199.743 20.186 9.75 20.905 20.951.404 6.308-1.74 12.305-6.037 16.887-4.301 4.586-10.131 7.111-16.415 7.111-6.333 0-12.408-2.695-16.666-7.395-4.379-4.834-10.525-7.606-16.861-7.606h-197.981c-4.142 0-7.5 3.357-7.5 7.5s3.358 7.5 7.5 7.5h197.979c2.109 0 4.203.976 5.745 2.678 7.097 7.832 17.223 12.323 27.782 12.323 10.321 0 20.292-4.319 27.356-11.85 7.163-7.638 10.738-17.619 10.065-28.108-1.198-18.691-16.194-33.719-34.882-34.958z"/><path d="m348.323 403.874c-.78-3.828-4.048-6.656-7.949-6.877-3.884-.203-7.468 2.221-8.675 5.937-.028.086-.055.173-.08.261l-7.506 26.332-7.791-26.406c-.026-.09-.054-.179-.084-.267-1.245-3.704-4.847-6.099-8.735-5.848-3.899.261-7.139 3.123-7.896 7.048l-8.629 47.812c-.735 4.076 1.973 7.978 6.049 8.713 4.075.734 7.978-1.972 8.713-6.049l3.837-21.265 6.397 21.682c.026.089.054.178.083.265 1.18 3.516 4.456 5.869 8.16 5.869h.043c3.723-.019 6.996-2.41 8.146-5.95.028-.087.055-.173.08-.261l6.173-21.656 4.088 21.393c.777 4.068 4.706 6.744 8.774 5.958 4.069-.777 6.736-4.706 5.959-8.774z"/><path d="m256 428.067 18.976-17.442c3.049-2.803 3.249-7.548.446-10.597-2.802-3.05-7.546-3.249-10.597-.446l-13.835 12.717v-7.816c0-4.143-3.358-7.5-7.5-7.5s-7.5 3.357-7.5 7.5v49.098c0 4.143 3.358 7.5 7.5 7.5s7.5-3.357 7.5-7.5v-9.505l15.447 14.902c1.456 1.404 3.332 2.103 5.207 2.103 1.965 0 3.927-.768 5.398-2.293 2.876-2.98 2.791-7.729-.19-10.604z"/><path d="m188.62 445.97c-.032 0-.064 0-.096.001-3.384.042-6.926.074-10.209.093 2.386-3.245 5.368-7.382 9.049-12.642 3.228-4.612 5.341-9.007 6.281-13.061.057-.245.101-.493.133-.742l.238-1.862c.041-.316.061-.634.061-.952 0-10.93-8.892-19.822-19.822-19.822-9.45 0-17.63 6.724-19.45 15.988-.798 4.064 1.849 8.006 5.914 8.805 4.064.798 8.007-1.85 8.805-5.914.441-2.247 2.432-3.879 4.731-3.879 2.535 0 4.62 1.966 4.808 4.453l-.109.854c-.406 1.531-1.414 4.01-3.879 7.532-7.603 10.862-12.138 16.801-14.574 19.99-3.138 4.108-5.032 6.589-3.792 10.619.732 2.38 2.6 4.278 4.998 5.078 1.001.333 1.755.586 11.296.586 3.721 0 8.781-.039 15.71-.126 4.142-.052 7.457-3.451 7.405-7.593-.053-4.11-3.4-7.406-7.498-7.406z"/></g></svg>