<svg id="Capa_1" enable-background="new 0 0 512.002 512.002" height="512" viewBox="0 0 512.002 512.002" width="512" xmlns="http://www.w3.org/2000/svg"><g><path d="m48.059 402.731c4.143 0 7.5-3.357 7.5-7.5v-19.236c0-4.143-3.357-7.5-7.5-7.5s-7.5 3.357-7.5 7.5v19.236c0 4.143 3.357 7.5 7.5 7.5z"/><path d="m88.059 402.731c4.143 0 7.5-3.357 7.5-7.5v-19.236c0-4.143-3.357-7.5-7.5-7.5s-7.5 3.357-7.5 7.5v19.236c0 4.143 3.357 7.5 7.5 7.5z"/><path d="m128.059 402.731c4.143 0 7.5-3.357 7.5-7.5v-19.236c0-4.143-3.357-7.5-7.5-7.5s-7.5 3.357-7.5 7.5v19.236c0 4.143 3.357 7.5 7.5 7.5z"/><path d="m504.5 274.251c4.142 0 7.5-3.358 7.5-7.5l.002-100.144c0-3.756-2.779-6.934-6.502-7.434-21.226-2.85-42.853-4.839-64.653-5.99v-14.148h18.645c6.795 0 13.153-3.02 17.445-8.285 4.289-5.263 5.964-12.096 4.595-18.747-3.302-16.027-8.729-39.199-15.832-58.569-9.776-26.659-20.057-39.076-32.353-39.076s-22.576 12.417-32.352 39.076c-7.103 19.37-12.53 42.542-15.832 58.569-1.37 6.65.305 13.483 4.594 18.746 4.291 5.266 10.65 8.286 17.446 8.286h18.644v13.484c-9.598-.332-19.218-.51-28.847-.51-22.964 0-45.841.969-68.459 2.862v-13.121h18.644c6.796 0 13.155-3.021 17.446-8.286 4.289-5.263 5.964-12.096 4.594-18.746-3.302-16.028-8.729-39.2-15.832-58.569-9.775-26.659-20.056-39.076-32.352-39.076s-22.576 12.417-32.353 39.076c-7.104 19.372-12.53 42.543-15.831 58.569-1.37 6.651.304 13.483 4.594 18.746 4.291 5.266 10.649 8.286 17.445 8.286h18.645v14.519c-55.634 5.7-109.429 17.064-158.714 33.675-24.052-2.544-48.54-3.846-73.3-3.846-25.098 0-50.275 1.35-74.835 4.012-3.807.413-6.692 3.628-6.692 7.457v58.036c0 4.143 3.357 7.5 7.5 7.5s7.5-3.357 7.5-7.5v-6.041c21.797-2.289 44.144-3.463 66.527-3.463 56.074 0 110.35 7.165 161.317 21.297 11.776 3.265 23.401 6.913 34.552 10.843.824.291 1.666.429 2.493.429 3.092 0 5.987-1.927 7.073-5.009 1.377-3.906-.674-8.189-4.58-9.566-11.472-4.044-23.426-7.796-35.53-11.151-52.273-14.493-107.896-21.842-165.325-21.842-22.368 0-44.708 1.142-66.527 3.378v-30.145c21.896-2.146 44.243-3.233 66.527-3.233 184.607 0 351.21 75.466 415.473 187.969v8.41c-10.568-1.301-21.216-2.419-31.938-3.304-19.686-30.564-48.432-58.388-85.561-82.726-20.643-13.532-43.449-25.638-67.786-35.981-3.807-1.618-8.216.156-9.836 3.969s.156 8.216 3.969 9.836c23.518 9.995 45.531 21.678 65.431 34.722 31.456 20.62 56.497 43.74 74.704 68.857-13.297-.785-26.663-1.253-40.057-1.396-17.676-18.889-37.441-33.421-51.095-42.37-34.221-22.433-74.596-40.189-120.001-52.778-19.113-5.299-41.371-10.233-60.232-13.372-2.802-3.016-6.79-4.83-11.007-4.83h-51.646c-4.143 0-7.5 3.357-7.5 7.5s3.357 7.5 7.5 7.5l51.646.001 20.979 43.364h-169.57v-43.365h66.941c4.143 0 7.5-3.357 7.5-7.5s-3.357-7.5-7.5-7.5h-74.441c-4.143 0-7.5 3.357-7.5 7.5v189.54c0 12.406 10.094 22.5 22.5 22.5h467c12.406 0 22.5-10.094 22.5-22.5v-178.392c0-4.143-3.357-7.5-7.5-7.5s-7.5 3.357-7.5 7.5v64.354c-33.647-47.978-85.566-89.114-151.725-119.92-47.246-22-99.641-37.655-154.931-46.524 64.286-18.137 135.024-27.653 206.655-27.653 33.692 0 67.299 2.08 100.002 6.186l-.001 93.554c0 4.142 3.357 7.5 7.5 7.5zm-97.297-150.214c-2.268 0-4.389-1.007-5.819-2.763-1.428-1.753-1.985-4.027-1.529-6.242 3.199-15.53 8.438-37.927 15.224-56.433 10.601-28.908 17.96-29.24 18.269-29.24s7.669.332 18.27 29.24c6.786 18.506 12.024 40.902 15.224 56.432.456 2.215-.102 4.491-1.53 6.244-1.431 1.755-3.552 2.762-5.818 2.762h-18.645v-30.504c0-4.143-3.357-7.5-7.5-7.5s-7.5 3.357-7.5 7.5v30.504zm-112.307 2.713c-2.267 0-4.388-1.007-5.818-2.763-1.428-1.752-1.985-4.027-1.529-6.243 3.199-15.528 8.437-37.925 15.223-56.432 10.601-28.908 17.961-29.24 18.27-29.24s7.669.332 18.269 29.24c6.786 18.505 12.024 40.901 15.224 56.433.456 2.215-.102 4.489-1.529 6.242-1.431 1.756-3.552 2.763-5.819 2.763h-18.644v-30.503c0-4.143-3.357-7.5-7.5-7.5s-7.5 3.357-7.5 7.5v30.504h-18.647zm-111.421 173.01c15.558 2.961 32.428 6.864 47.348 11 43.908 12.173 82.864 29.288 115.786 50.868 10.357 6.789 24.404 16.955 38.133 29.845-15.102.218-30.085.859-44.943 1.881-3.185-2.297-6.415-4.525-9.636-6.636-35.81-23.473-80.925-41.681-130.818-52.847-.239-1.343-.658-2.667-1.271-3.936zm10.601 48.32c46.107 10.114 87.946 26.366 121.726 47.284-40.201 3.976-79.349 10.913-117.026 20.805-4.885 1.283-9.712 2.626-14.511 3.997v-68.697h.305c3.538-.001 6.868-1.222 9.506-3.389zm-179.076 127.063v-123.675h154.265v73.171c-48 14.919-91.406 34.366-129.382 58.004h-17.383c-4.136 0-7.5-3.364-7.5-7.5zm474.5 7.5h-419.937c89.501-49.313 204.542-76.263 327.437-76.263 33.698 0 67.297 2.107 100 6.215v62.548c0 4.136-3.364 7.5-7.5 7.5z"/></g></svg>