<svg id="Capa_1" enable-background="new 0 0 512 512" height="512" viewBox="0 0 512 512" width="512" xmlns="http://www.w3.org/2000/svg"><g><path d="m94.606 334.02c-4.143 0-7.5 3.357-7.5 7.5v116.32c0 4.143 3.357 7.5 7.5 7.5s7.5-3.357 7.5-7.5v-116.32c0-4.143-3.357-7.5-7.5-7.5z"/><path d="m136.706 334.02c-4.143 0-7.5 3.357-7.5 7.5v116.32c0 4.143 3.357 7.5 7.5 7.5s7.5-3.357 7.5-7.5v-116.32c0-4.143-3.357-7.5-7.5-7.5z"/><path d="m178.806 334.02c-4.143 0-7.5 3.357-7.5 7.5v116.32c0 4.143 3.357 7.5 7.5 7.5s7.5-3.357 7.5-7.5v-116.32c0-4.143-3.358-7.5-7.5-7.5z"/><path d="m296.857 143.032c-4.143 0-7.5 3.357-7.5 7.5v30.826c0 4.143 3.357 7.5 7.5 7.5s7.5-3.357 7.5-7.5v-30.826c0-4.142-3.357-7.5-7.5-7.5z"/><path d="m337.517 143.032c-4.143 0-7.5 3.357-7.5 7.5v30.826c0 4.143 3.357 7.5 7.5 7.5s7.5-3.357 7.5-7.5v-30.826c0-4.142-3.358-7.5-7.5-7.5z"/><path d="m378.175 143.032c-4.143 0-7.5 3.357-7.5 7.5v30.826c0 4.143 3.357 7.5 7.5 7.5s7.5-3.357 7.5-7.5v-30.826c0-4.142-3.358-7.5-7.5-7.5z"/><path d="m418.834 143.032c-4.143 0-7.5 3.357-7.5 7.5v30.826c0 4.143 3.357 7.5 7.5 7.5s7.5-3.357 7.5-7.5v-30.826c0-4.142-3.357-7.5-7.5-7.5z"/><path d="m296.857 223.858c-4.143 0-7.5 3.357-7.5 7.5v30.825c0 4.143 3.357 7.5 7.5 7.5s7.5-3.357 7.5-7.5v-30.825c0-4.142-3.357-7.5-7.5-7.5z"/><path d="m337.517 223.858c-4.143 0-7.5 3.357-7.5 7.5v30.825c0 4.143 3.357 7.5 7.5 7.5s7.5-3.357 7.5-7.5v-30.825c0-4.142-3.358-7.5-7.5-7.5z"/><path d="m378.175 223.858c-4.143 0-7.5 3.357-7.5 7.5v30.825c0 4.143 3.357 7.5 7.5 7.5s7.5-3.357 7.5-7.5v-30.825c0-4.142-3.358-7.5-7.5-7.5z"/><path d="m418.834 223.858c-4.143 0-7.5 3.357-7.5 7.5v30.825c0 4.143 3.357 7.5 7.5 7.5s7.5-3.357 7.5-7.5v-30.825c0-4.142-3.357-7.5-7.5-7.5z"/><path d="m296.857 299.438c-4.143 0-7.5 3.357-7.5 7.5v30.825c0 4.143 3.357 7.5 7.5 7.5s7.5-3.357 7.5-7.5v-30.825c0-4.142-3.357-7.5-7.5-7.5z"/><path d="m337.517 299.438c-4.143 0-7.5 3.357-7.5 7.5v30.825c0 4.143 3.357 7.5 7.5 7.5s7.5-3.357 7.5-7.5v-30.825c0-4.142-3.358-7.5-7.5-7.5z"/><path d="m378.175 299.438c-4.143 0-7.5 3.357-7.5 7.5v30.825c0 4.143 3.357 7.5 7.5 7.5s7.5-3.357 7.5-7.5v-30.825c0-4.142-3.358-7.5-7.5-7.5z"/><path d="m418.834 299.438c-4.143 0-7.5 3.357-7.5 7.5v30.825c0 4.143 3.357 7.5 7.5 7.5s7.5-3.357 7.5-7.5v-30.825c0-4.142-3.357-7.5-7.5-7.5z"/><path d="m296.857 375.019c-4.143 0-7.5 3.357-7.5 7.5v30.826c0 4.143 3.357 7.5 7.5 7.5s7.5-3.357 7.5-7.5v-30.826c0-4.143-3.357-7.5-7.5-7.5z"/><path d="m337.517 375.019c-4.143 0-7.5 3.357-7.5 7.5v30.826c0 4.143 3.357 7.5 7.5 7.5s7.5-3.357 7.5-7.5v-30.826c0-4.143-3.358-7.5-7.5-7.5z"/><path d="m378.175 375.019c-4.143 0-7.5 3.357-7.5 7.5v30.826c0 4.143 3.357 7.5 7.5 7.5s7.5-3.357 7.5-7.5v-30.826c0-4.143-3.358-7.5-7.5-7.5z"/><path d="m418.834 375.019c-4.143 0-7.5 3.357-7.5 7.5v30.826c0 4.143 3.357 7.5 7.5 7.5s7.5-3.357 7.5-7.5v-30.826c0-4.143-3.357-7.5-7.5-7.5z"/><path d="m504.5 369.797c4.143 0 7.5-3.357 7.5-7.5v-211.765c0-4.143-3.357-7.5-7.5-7.5h-37.507v-14.145c0-12.406-10.094-22.5-22.5-22.5h-15.971v-23.852c0-12.406-10.094-22.5-22.5-22.5h-40.677v-52.535c0-4.143-3.357-7.5-7.5-7.5s-7.5 3.357-7.5 7.5v52.535h-40.677c-12.406 0-22.5 10.094-22.5 22.5v23.853h-15.971c-12.406 0-22.5 10.094-22.5 22.5v44.971h-62.529c-12.406 0-22.5 10.094-22.5 22.5v48.58l-25.268-5.341v-157.063c0-12.406-10.094-22.5-22.5-22.5h-48.393c-12.406 0-22.5 10.094-22.5 22.5v98.612h-37.507c-4.143 0-7.5 3.357-7.5 7.5v300.853c0 12.406 10.094 22.5 22.5 22.5h467c12.406 0 22.5-10.094 22.5-22.5v-97.203c0-4.143-3.357-7.5-7.5-7.5s-7.5 3.357-7.5 7.5v97.203c0 4.136-3.364 7.5-7.5 7.5h-22.507v-338.968h30.007v204.265c0 4.142 3.357 7.5 7.5 7.5zm-202.331-287.262c0-4.136 3.364-7.5 7.5-7.5h96.354c4.136 0 7.5 3.364 7.5 7.5v23.853h-111.354zm-116 106.323h62.529v308.142h-20.294v-63.652c0-4.143-3.357-7.5-7.5-7.5s-7.5 3.357-7.5 7.5v63.652h-153.397v-187.142c0-4.136 3.364-7.5 7.5-7.5h138.397c4.136 0 7.5 3.364 7.5 7.5v93.486c0 4.143 3.357 7.5 7.5 7.5s7.5-3.357 7.5-7.5v-93.486c0-12.406-10.094-22.5-22.5-22.5h-15.338v-18.493c0-8.403-4.754-15.965-11.897-19.815v-52.692c0-4.135 3.364-7.5 7.5-7.5zm-16.552 72.669c3.447.729 5.949 3.815 5.949 7.338v18.493h-89.331v-34.204c0-2.271 1.012-4.395 2.776-5.825 1.766-1.432 4.056-1.98 6.275-1.513zm-154.617 227.973v-293.353h37.507c4.143 0 7.5-3.357 7.5-7.5v-106.112c0-4.136 3.364-7.5 7.5-7.5h48.395c4.136 0 7.5 3.364 7.5 7.5v153.892l-25.013-5.287c-6.669-1.407-13.529.245-18.824 4.537-5.293 4.292-8.329 10.662-8.329 17.477v34.204h-3.729c-12.406 0-22.5 10.094-22.5 22.5v187.142h-22.507c-4.136 0-7.5-3.364-7.5-7.5zm355.675 7.5h-25.658v-26.617h25.658zm15 0v-26.617c0-8.271-6.729-15-15-15h-25.658c-8.271 0-15 6.729-15 15v26.617h-66.318v-368.112c0-4.136 3.364-7.5 7.5-7.5h173.295c4.136 0 7.5 3.364 7.5 7.5v368.112z"/></g></svg>