<svg id="Capa_1" enable-background="new 0 0 512 512" height="512" viewBox="0 0 512 512" width="512" xmlns="http://www.w3.org/2000/svg"><g><path d="m504.5 346.971c4.142 0 7.5-3.358 7.5-7.5v-93.699c0-1.994-.794-3.906-2.207-5.313-1.406-1.4-3.31-2.187-5.293-2.187-.009 0-.019 0-.028 0-44.599.167-84.069 8.202-120.667 24.564-31.907 14.265-57.562 33.045-80.196 49.615-1.408 1.031-2.802 2.05-4.197 3.069-7.062-2.914-14.219-5.947-21.734-9.138-16.077-6.826-33.059-14.033-51.06-20.774v-41.8h19.395c6.586 0 12.818-2.87 17.099-7.874 4.281-5.005 6.15-11.608 5.129-18.116-3.203-20.415-8.505-50.092-15.578-75.536-10.048-36.146-20.394-52.266-33.544-52.266s-23.496 16.119-33.544 52.266c-2.56 9.208-4.884 18.97-6.964 28.647-5.142-7.852-10.663-11.516-16.999-11.516-12.573 0-20.159 15.545-24.771 27.238-2.423 6.143-4.821 13.447-7.176 21.854-6.873-19.19-14.292-27.728-23.458-27.728-12.573 0-19.742 16.59-24.583 31.044-3.925 11.717-7.714 26.937-11.283 45.281-20.504.792-41.98 3.49-64.514 8.649-3.41.78-5.827 3.813-5.827 7.31v216.439c0 12.407 10.093 22.5 22.5 22.5h467c12.407 0 22.5-10.093 22.5-22.5v-120.026c0-4.142-3.358-7.5-7.5-7.5s-7.5 3.358-7.5 7.5v46.419c-58.182-1.482-94.173-20.067-129.011-38.076-25.085-12.967-50.784-26.236-84.236-32.919 9.518-6.292 18.95-13.193 28.717-20.343 44.201-32.358 94.137-68.918 184.53-71.175v86.091c0 4.142 3.358 7.5 7.5 7.5zm-285.382-241.954c.238.046 8.325 2.201 19.307 42.062 6.783 24.618 11.899 53.321 14.997 73.065.345 2.203-.262 4.348-1.71 6.041-1.447 1.692-3.471 2.624-5.699 2.624h-53.789c-2.228 0-4.252-.932-5.699-2.624-1.448-1.693-2.055-3.838-1.71-6.041 3.098-19.744 8.214-48.447 14.997-73.065 10.98-39.861 19.067-42.016 19.306-42.062zm-112.895 90.974c1.756 1.325 8.378 8.425 16.726 43.485.805 3.382 3.826 5.763 7.295 5.763h.083c3.503-.038 6.513-2.497 7.25-5.922 12.767-59.347 23.086-64.534 24.031-64.887.598.244 5.39 2.741 12.135 21.189-1.459 8.059-2.713 15.614-3.746 22.199-1.021 6.508.848 13.111 5.129 18.116 4.28 5.004 10.512 7.874 17.099 7.874h19.395v36.392c-37.379-12.928-79.032-23.018-125.942-23.345 9.971-49.853 18.59-59.305 20.545-60.864zm131.248 144.479c-33.59 0-62.837 4.592-92.044 14.451-3.924 1.325-6.032 5.58-4.707 9.504 1.324 3.925 5.582 6.033 9.504 4.708 27.615-9.321 55.338-13.663 87.247-13.663 54.621 0 88.142 17.328 123.63 35.672 36.454 18.844 74.106 38.305 135.899 39.769v58.589c0 4.136-3.364 7.5-7.5 7.5h-467c-4.136 0-7.5-3.364-7.5-7.5v-77.693c38.571-1.38 65.453-13.308 93.815-25.891 4.205-1.866 8.554-3.795 12.917-5.676 3.804-1.64 5.558-6.053 3.918-9.856s-6.051-5.558-9.856-3.918c-4.436 1.913-8.821 3.858-13.062 5.74-26.818 11.897-52.247 23.176-87.732 24.584v-117.702c106.761-22.608 186.399 11.206 256.816 41.102 4.534 1.925 8.94 3.795 13.281 5.619-8.189 5.748-16.287 11.078-24.494 15.724-7.334-.683-15.018-1.063-23.132-1.063z"/><path d="m396.257 124.062c21.207 0 38.46-17.253 38.46-38.46s-17.253-38.46-38.46-38.46-38.46 17.253-38.46 38.46 17.253 38.46 38.46 38.46zm0-61.921c12.936 0 23.46 10.524 23.46 23.46s-10.524 23.46-23.46 23.46-23.46-10.524-23.46-23.46 10.524-23.46 23.46-23.46z"/><path d="m396.257 31.81c4.142 0 7.5-3.358 7.5-7.5v-16.81c0-4.142-3.358-7.5-7.5-7.5s-7.5 3.358-7.5 7.5v16.81c0 4.142 3.358 7.5 7.5 7.5z"/><path d="m388.757 146.893v16.81c0 4.142 3.358 7.5 7.5 7.5s7.5-3.358 7.5-7.5v-16.81c0-4.142-3.358-7.5-7.5-7.5s-7.5 3.357-7.5 7.5z"/><path d="m439.597 49.762c1.919 0 3.839-.732 5.303-2.197l11.886-11.886c2.929-2.929 2.929-7.678 0-10.606-2.929-2.929-7.678-2.929-10.606 0l-11.886 11.886c-2.929 2.929-2.929 7.678 0 10.606 1.464 1.464 3.384 2.197 5.303 2.197z"/><path d="m347.615 123.638-11.886 11.886c-2.929 2.929-2.929 7.678 0 10.606 1.464 1.464 3.384 2.197 5.303 2.197s3.839-.732 5.303-2.197l11.886-11.886c2.929-2.929 2.929-7.678 0-10.606-2.929-2.929-7.678-2.929-10.606 0z"/><path d="m450.049 85.601c0 4.142 3.358 7.5 7.5 7.5h16.81c4.142 0 7.5-3.358 7.5-7.5s-3.358-7.5-7.5-7.5h-16.81c-4.142 0-7.5 3.358-7.5 7.5z"/><path d="m318.156 93.101h16.81c4.142 0 7.5-3.358 7.5-7.5s-3.358-7.5-7.5-7.5h-16.81c-4.142 0-7.5 3.358-7.5 7.5s3.358 7.5 7.5 7.5z"/><path d="m444.9 123.638c-2.929-2.929-7.678-2.929-10.606 0-2.929 2.929-2.929 7.678 0 10.606l11.886 11.886c1.464 1.464 3.384 2.197 5.303 2.197s3.839-.732 5.303-2.197c2.929-2.929 2.929-7.678 0-10.606z"/><path d="m347.615 47.565c1.464 1.464 3.384 2.197 5.303 2.197s3.839-.732 5.303-2.197c2.929-2.929 2.929-7.678 0-10.606l-11.886-11.886c-2.929-2.929-7.678-2.929-10.606 0-2.929 2.929-2.929 7.678 0 10.606z"/><path d="m63.239 119.102c.048-.042 4.904-4.245 11.52-5.927 8.018-2.039 15.039.495 21.465 7.747 1.437 1.622 3.487 2.526 5.612 2.525.445 0 .893-.04 1.34-.121 2.578-.468 4.726-2.248 5.664-4.694 3.469-9.047 9.152-13.887 17.375-14.794 6.736-.744 12.725 1.448 12.866 1.5 3.851 1.477 8.176-.437 9.673-4.285 1.501-3.86-.412-8.207-4.272-9.708-.643-.25-15.926-6.055-30.45.376-5.825 2.58-10.637 6.658-14.381 12.176-5.445-3.851-11.382-5.979-17.743-6.347-15.868-.927-28.126 9.885-28.641 10.346-3.075 2.751-3.334 7.456-.6 10.545 2.734 3.091 7.466 3.379 10.572.661z"/></g></svg>