<?xml version="1.0" encoding="iso-8859-1"?>
<!-- Generator: Adobe Illustrator 19.0.0, SVG Export Plug-In . SVG Version: 6.00 Build 0)  -->
<svg version="1.1" id="Capa_1" xmlns="http://www.w3.org/2000/svg" xmlns:xlink="http://www.w3.org/1999/xlink" x="0px" y="0px"
	 viewBox="0 0 512 512" style="enable-background:new 0 0 512 512;" xml:space="preserve">
<g>
	<g>
		<path d="M502,19.994H296c-16.339,0-30.87,7.879-40,20.035c-9.13-12.156-23.661-20.035-40-20.035H10c-5.522,0-10,4.477-10,10
			v452.012c0,5.523,4.478,10,10,10h492c5.522,0,10-4.477,10-10V29.994C512,24.471,507.522,19.994,502,19.994z M20,472.006v-20h196
			c13.036,0,24.152,8.361,28.28,20H20z M246,442.033c-8.362-6.292-18.752-10.027-30-10.027H20v-7.014V39.994h196
			c16.542,0,30,13.458,30,30V442.033z M492,472.006H267.72c4.128-11.639,15.244-20,28.28-20h196V472.006z M492,431.673v0.333H296
			c-11.248,0-21.638,3.735-30,10.027V69.994c0-16.542,13.458-30,30-30h196V431.673z"/>
	</g>
</g>
<g>
	<g>
		<path d="M133.006,63c-49.626,0-90,40.374-90,90s40.374,90,90,90c49.626,0,90-40.374,90-90C223.006,103.374,182.632,63,133.006,63z
			 M202.28,143h-28.374c-0.923-19.579-4.557-38.603-10.796-53.185C183.805,99.715,198.901,119.489,202.28,143z M63.731,163h28.374
			c0.923,19.579,4.557,38.603,10.796,53.185C82.207,206.285,67.11,186.511,63.731,163z M92.106,143H63.731
			c3.379-23.511,18.476-43.285,39.171-53.185C96.663,104.397,93.029,123.421,92.106,143z M133.006,223
			c-5.847,0-18.953-20.392-20.888-60h41.776C151.959,202.608,138.853,223,133.006,223z M112.118,143
			c1.935-39.608,15.041-60,20.888-60c5.847,0,18.953,20.392,20.888,60H112.118z M163.11,216.185
			c6.239-14.582,9.873-33.606,10.796-53.185h28.374C198.901,186.511,183.805,206.285,163.11,216.185z"/>
	</g>
</g>
<g>
	<g>
		<path d="M202,376.006H100.667c-5.522,0-10,4.477-10,10s4.478,10,10,10H202c5.522,0,10-4.477,10-10S207.522,376.006,202,376.006z"
			/>
	</g>
</g>
<g>
	<g>
		<path d="M160.5,320.006H64.012c-5.522,0-10,4.477-10,10s4.477,10,10,10H160.5c5.522,0,10-4.477,10-10
			S166.022,320.006,160.5,320.006z"/>
	</g>
</g>
<g>
	<g>
		<path d="M202,264.006H64.012c-5.522,0-10,4.477-10,10s4.477,10,10,10H202c5.522,0,10-4.477,10-10S207.522,264.006,202,264.006z"/>
	</g>
</g>
<g>
	<g>
		<path d="M460.396,199H425c-5.522,0-10,4.477-10,10s4.478,10,10,10h35.396c5.522,0,10-4.477,10-10S465.918,199,460.396,199z"/>
	</g>
</g>
<g>
	<g>
		<path d="M460.396,143H425c-5.522,0-10,4.477-10,10s4.478,10,10,10h35.396c5.522,0,10-4.477,10-10S465.918,143,460.396,143z"/>
	</g>
</g>
<g>
	<g>
		<path d="M460.396,87H425c-5.522,0-10,4.477-10,10s4.478,10,10,10h35.396c5.522,0,10-4.477,10-10S465.918,87,460.396,87z"/>
	</g>
</g>
<g>
	<g>
		<path d="M380.403,87h-83.007c-5.522,0-10,4.477-10,10v112c0,5.523,4.478,10,10,10h83.007c5.522,0,10-4.477,10-10V97
			C390.403,91.477,385.925,87,380.403,87z M370.403,199h-63.007v-92h63.007V199z"/>
	</g>
</g>
<g>
	<g>
		<path d="M332.793,264.006h-35.397c-5.522,0-10,4.477-10,10s4.478,10,10,10h35.397c5.522,0,10-4.477,10-10
			S338.315,264.006,332.793,264.006z"/>
	</g>
</g>
<g>
	<g>
		<path d="M332.793,320.006h-35.397c-5.522,0-10,4.477-10,10s4.478,10,10,10h35.397c5.522,0,10-4.477,10-10
			S338.315,320.006,332.793,320.006z"/>
	</g>
</g>
<g>
	<g>
		<path d="M332.793,376.006h-35.397c-5.522,0-10,4.477-10,10s4.478,10,10,10h35.397c5.522,0,10-4.477,10-10
			S338.315,376.006,332.793,376.006z"/>
	</g>
</g>
<g>
	<g>
		<path d="M460.396,264.006H377.39c-5.522,0-10,4.477-10,10v112c0,5.523,4.478,10,10,10h83.006c5.522,0,10-4.477,10-10v-112
			C470.396,268.483,465.919,264.006,460.396,264.006z M450.396,376.006H387.39v-92h63.006V376.006z"/>
	</g>
</g>
<g>
	<g>
		<path d="M202.234,320.006h-0.469c-5.522,0-10,4.477-10,10s4.478,10,10,10h0.469c5.522,0,10-4.477,10-10
			S207.757,320.006,202.234,320.006z"/>
	</g>
</g>
<g>
	<g>
		<path d="M71.08,378.94c-1.86-1.87-4.431-2.93-7.07-2.93c-2.63,0-5.21,1.06-7.07,2.93c-1.859,1.85-2.93,4.43-2.93,7.07
			c0,2.63,1.07,5.21,2.93,7.07c1.86,1.86,4.44,2.93,7.07,2.93s5.21-1.07,7.07-2.93c1.859-1.87,2.93-4.44,2.93-7.07
			C74.01,383.37,72.94,380.8,71.08,378.94z"/>
	</g>
</g>
<g>
</g>
<g>
</g>
<g>
</g>
<g>
</g>
<g>
</g>
<g>
</g>
<g>
</g>
<g>
</g>
<g>
</g>
<g>
</g>
<g>
</g>
<g>
</g>
<g>
</g>
<g>
</g>
<g>
</g>
</svg>
