<svg id="Capa_1" enable-background="new 0 0 511.891 511.891" height="512" viewBox="0 0 511.891 511.891" width="512" xmlns="http://www.w3.org/2000/svg"><g><path d="m504.445 458.428h-12.74v-139.954h4.47c17.868-.019 21.465-25.389 4.322-30.383l-140.032-40.669v-23.742c5.741-4.415 8.245-12.277 5.932-19.177l-15.383-47.969c-2.338-7.262-9.037-12.141-16.669-12.141h-20.01v-47.366c3.039-.944 5.712-2.883 7.525-5.611 2.606-3.921 3.073-8.854 1.253-13.189l-13.043-31.155c-2.194-5.229-7.276-8.608-12.945-8.608h-30.83c-9.931.344-9.923 14.659 0 15h30.19l12.232 29.221h-105.544l12.232-29.221h15.89c9.931-.344 9.923-14.659 0-15h-16.53c-5.669 0-10.751 3.379-12.948 8.614l-13.037 31.142c-1.823 4.342-1.356 9.275 1.25 13.196 1.813 2.727 4.486 4.666 7.525 5.611v47.367h-20.01c-7.632 0-14.331 4.879-16.672 12.149l-15.379 47.958c-2.314 6.901.19 14.765 5.931 19.179v23.742l-140.03 40.668c-17.154 5-13.538 30.367 4.32 30.384h4.47v139.954h-12.74c-9.931.344-9.923 14.659 0 15h497c9.931-.344 9.924-14.66 0-15zm-215.659-.004h-25.34v-89.996h9.718c8.614 0 15.622 7.008 15.622 15.622zm-40.341 0h-25.34v-74.374c0-8.614 7.008-15.622 15.622-15.622h9.718zm228.26 0h-116.24v-52.471c-.344-9.931-14.659-9.923-15 0v52.471h-41.68v-74.374c0-16.885-13.737-30.622-30.622-30.622h-34.437c-16.885 0-30.622 13.737-30.622 30.622v74.374h-41.68v-231.08h179.04v143.6c.344 9.931 14.659 9.923 15 0v-52.47h116.24v139.95zm19.61-155.928c.223.064.316.127.323.127.098.179.026.682-.096.806-.001 0-.104.045-.367.045h-135.71v-40.432zm-283.76-204.812h86.78v80.189c0 .271-.229.5-.5.5h-85.78c-.271 0-.5-.229-.5-.5zm-52.778 111.399 15.377-47.951c.335-1.04 1.296-1.738 2.392-1.738h20.01v18.479c0 8.547 6.953 15.5 15.5 15.5h85.78c8.547 0 15.5-6.953 15.5-15.5v-18.479h20.01c1.095 0 2.057.698 2.389 1.729l15.38 47.962c.461 1.74-.578 3.167-2.379 3.259h-187.58c-1.8-.092-2.842-1.517-2.379-3.261zm-144.409 94.358c-.145-.145-.215-.647-.131-.801 0-.001.086-.071.34-.146l135.848-39.454v40.432h-135.71c-.234.002-.348-.034-.347-.031zm136.057 15.033v139.95h-116.239v-139.95z"/><path d="m395.941 430.072h45.285c7.444 0 13.5-6.056 13.5-13.5v-31.199c-1.823-47.894-70.479-47.858-72.285 0v31.199c0 7.445 6.057 13.5 13.5 13.5zm43.785-44.699v29.699h-13.643v-49.442c7.962 3.035 13.643 10.729 13.643 19.743zm-42.285 0c0-9.014 5.681-16.708 13.642-19.743v49.442h-13.642z"/><path d="m70.665 430.072h45.285c7.444 0 13.5-6.056 13.5-13.5v-31.199c-1.823-47.895-70.479-47.858-72.285 0v31.199c0 7.445 6.056 13.5 13.5 13.5zm43.784-44.699v29.699h-13.642v-49.442c7.961 3.035 13.642 10.729 13.642 19.743zm-42.284 0c0-9.015 5.681-16.708 13.643-19.743v49.442h-13.643z"/><path d="m239.056 163.369h33.778c6.341 0 11.5-5.159 11.5-11.5v-10.793c-1.432-37.619-55.36-37.591-56.778 0v10.793c0 6.341 5.159 11.5 11.5 11.5zm3.5-22.293c.675-17.742 26.11-17.729 26.778 0v7.293h-26.778z"/><path d="m255.945 249.966c-19.929 0-36.142 16.214-36.142 36.143v31.199c0 7.444 6.056 13.5 13.5 13.5h45.284c7.444 0 13.5-6.056 13.5-13.5v-31.199c0-19.929-16.213-36.143-36.142-36.143zm-21.142 36.142c0-9.014 5.681-16.708 13.642-19.743v49.442h-13.642zm42.284 29.7h-13.642v-49.442c7.961 3.035 13.642 10.729 13.642 19.743z"/></g></svg>