<?xml version="1.0" encoding="UTF-8"?><svg xmlns="http://www.w3.org/2000/svg" version="1.1" viewBox="0 0 64 64"><g><g id="Outline"><g><path d="M56.70703,19.29297l-12-12c-.39062-.39062-1.02344-.39062-1.41406,0l-11.29297,11.29297-11.29297-11.29297c-.39062-.39062-1.02344-.39062-1.41406,0l-12,12c-.1875.1875-.29297.44141-.29297.70703v18c0,.55273.44727,1,1,1s1-.44727,1-1v-11.58594l11-11,11,11v28.58594H9v-13c0-.55273-.44727-1-1-1s-1,.44727-1,1v14c0,.55273.44727,1,1,1h48c.55273,0,1-.44727,1-1v-17c0-.55273-.44727-1-1-1s-1,.44727-1,1v16h-22v-28.58594l11-11,11,11v8.58594c0,.55273.44727,1,1,1s1-.44727,1-1v-15c0-.26562-.10547-.51953-.29297-.70703ZM19.29297,13.29297l-10.29297,10.29297v-3.17188l11-11,11,11v3.17188l-10.29297-10.29297c-.39062-.39062-1.02344-.39062-1.41406,0ZM44.70703,13.29297c-.39062-.39062-1.02344-.39062-1.41406,0l-10.29297,10.29297v-3.17188l11-11,11,11v3.17188l-10.29297-10.29297Z"/><path d="M18,31v-5c0-.54999-.45001-1-1-1h-4c-.54999,0-1,.45001-1,1v5c-.54999,0-1,.45001-1,1s.45001,1,1,1h6c.54999,0,1-.45001,1-1s-.45001-1-1-1ZM16,31h-2v-4h2v4Z"/><path d="M28,31v-5c0-.54999-.45001-1-1-1h-4c-.54999,0-1,.45001-1,1v5c-.54999,0-1,.45001-1,1s.45001,1,1,1h6c.54999,0,1-.45001,1-1s-.45001-1-1-1ZM26,31h-2v-4h2v4Z"/><path d="M18,41v-5c0-.54999-.45001-1-1-1h-4c-.54999,0-1,.45001-1,1v5c-.54999,0-1,.45001-1,1s.45001,1,1,1h6c.54999,0,1-.45001,1-1s-.45001-1-1-1ZM16,41h-2v-4h2v4Z"/><path d="M28,41v-5c0-.54999-.45001-1-1-1h-4c-.54999,0-1,.45001-1,1v5c-.54999,0-1,.45001-1,1s.45001,1,1,1h6c.54999,0,1-.45001,1-1s-.45001-1-1-1ZM26,41h-2v-4h2v4Z"/><path d="M18,51v-5c0-.54999-.45001-1-1-1h-4c-.54999,0-1,.45001-1,1v5c-.54999,0-1,.45001-1,1s.45001,1,1,1h6c.54999,0,1-.45001,1-1s-.45001-1-1-1ZM16,51h-2v-4h2v4Z"/><path d="M28,51v-5c0-.54999-.45001-1-1-1h-4c-.54999,0-1,.45001-1,1v5c-.54999,0-1,.45001-1,1s.45001,1,1,1h6c.54999,0,1-.45001,1-1s-.45001-1-1-1ZM26,51h-2v-4h2v4Z"/><path d="M52,31v-5c0-.54999-.45001-1-1-1h-4c-.54999,0-1,.45001-1,1v5c-.54999,0-1,.45001-1,1s.45001,1,1,1h6c.54999,0,1-.45001,1-1s-.45001-1-1-1ZM50,31h-2v-4h2v4Z"/><path d="M42,31v-5c0-.54999-.45001-1-1-1h-4c-.54999,0-1,.45001-1,1v5c-.54999,0-1,.45001-1,1s.45001,1,1,1h6c.54999,0,1-.45001,1-1s-.45001-1-1-1ZM40,31h-2v-4h2v4Z"/><path d="M52,41v-5c0-.54999-.45001-1-1-1h-4c-.54999,0-1,.45001-1,1v5c-.54999,0-1,.45001-1,1s.45001,1,1,1h6c.54999,0,1-.45001,1-1s-.45001-1-1-1ZM50,41h-2v-4h2v4Z"/><path d="M42,41v-5c0-.54999-.45001-1-1-1h-4c-.54999,0-1,.45001-1,1v5c-.54999,0-1,.45001-1,1s.45001,1,1,1h6c.54999,0,1-.45001,1-1s-.45001-1-1-1ZM40,41h-2v-4h2v4Z"/><path d="M52,51v-5c0-.54999-.45001-1-1-1h-4c-.54999,0-1,.45001-1,1v5c-.54999,0-1,.45001-1,1s.45001,1,1,1h6c.54999,0,1-.45001,1-1s-.45001-1-1-1ZM50,51h-2v-4h2v4Z"/><path d="M42,51v-5c0-.54999-.45001-1-1-1h-4c-.54999,0-1,.45001-1,1v5c-.54999,0-1,.45001-1,1s.45001,1,1,1h6c.54999,0,1-.45001,1-1s-.45001-1-1-1ZM40,51h-2v-4h2v4Z"/></g></g></g></svg>