<svg id="Capa_1" enable-background="new 0 0 512 512" height="512" viewBox="0 0 512 512" width="512" xmlns="http://www.w3.org/2000/svg"><g><path d="m504.5 309.75c-11.696 0-22.729 3.799-31.899 10.981-2.152 1.684-5.046 1.684-7.197.004-9.175-7.187-20.208-10.986-31.904-10.986-3.606 0-7.175.378-10.663 1.109-8.175-7.984-17.332-15.407-27.388-22.157-28.127-18.88-62.058-31.653-98.455-37.135l-8.466-91.656c-.381-4.125-4.033-7.156-8.158-6.778-4.125.381-7.159 4.033-6.778 8.158l11.621 125.812c.77 8.313-1.905 16.291-7.532 22.463-5.628 6.174-13.328 9.575-21.68 9.575-16.178 0-29.34-13.135-29.34-29.28 0-.936.042-1.858.128-2.76l16.974-183.757 12.236-8.262 12.24 8.264 2.184 23.673c.359 3.891 3.628 6.812 7.459 6.812.23 0 .464-.01.698-.032 4.125-.381 7.16-4.033 6.779-8.157l-1.056-11.449 95.128 64.23c2.892 1.953 6.261 2.944 9.646 2.944 2.628 0 5.266-.598 7.696-1.807 5.584-2.778 9.116-8.139 9.448-14.339 1.422-26.551-8.189-52.458-25.816-71.69h29.586c6.202 0 11.957-3.36 15.018-8.77 3.071-5.427 2.996-11.842-.197-17.159-17.634-29.392-49.86-47.651-84.102-47.651-11.194 0-22.133 1.881-32.473 5.51-12.521-16.046-31.628-25.46-52.237-25.46s-39.716 9.414-52.237 25.46c-10.339-3.63-21.279-5.51-32.473-5.51-7.433 0-14.834.834-21.999 2.48-4.037.927-6.558 4.952-5.63 8.989.927 4.037 4.951 6.559 8.989 5.63 6.065-1.393 12.336-2.1 18.641-2.1 26.265 0 50.685 12.625 66.148 32.923-10.154-3.723-20.916-5.756-31.936-5.973-20.164-.398-39.689 5.355-56.483 16.63h-47.01c-1.139 0-1.719-.725-1.963-1.157-.272-.481-.493-1.227.004-2.054 5.895-9.825 13.957-18.521 23.313-25.148 3.38-2.394 4.18-7.075 1.785-10.455s-7.076-4.18-10.455-1.785c-11.039 7.819-20.551 18.079-27.504 29.669-3.195 5.32-3.27 11.736-.199 17.162 3.061 5.409 8.816 8.77 15.018 8.77h29.578c-17.623 19.229-27.232 45.135-25.81 71.69.336 6.203 3.872 11.564 9.458 14.342 2.428 1.208 5.063 1.804 7.689 1.804 3.384 0 6.753-.991 9.645-2.942l34.067-23.004c2.065-1.395 3.303-3.724 3.303-6.216v-23.329l18.172 10.092c2.469 1.371 5.498 1.239 7.838-.341l31.746-21.435-12.689 137.375c-36.397 5.483-70.328 18.256-98.455 37.135-10.056 6.75-19.213 14.173-27.388 22.157-3.489-.731-7.058-1.109-10.663-1.109-11.696 0-22.729 3.799-31.899 10.981-2.153 1.684-5.047 1.684-7.197.004-9.175-7.186-20.208-10.985-31.904-10.985-4.142 0-7.5 3.358-7.5 7.5v166.24c0 15.72 12.79 28.51 28.51 28.51h454.98c15.72 0 28.51-12.79 28.51-28.51v-166.24c0-4.142-3.358-7.5-7.5-7.5zm-113.258-145.332c-.052.967-.655 1.465-1.152 1.712-.443.22-1.327.495-2.267-.139l-117.968-79.652c26.688-13.898 59.574-12.364 84.935 4.76 24.401 16.476 38.028 43.884 36.452 73.319zm20.709-89.096c.495.825.275 1.571.003 2.052-.245.432-.825 1.157-1.963 1.157h-47.019c-16.791-11.275-36.316-17.031-56.473-16.632-11.02.217-21.782 2.25-31.935 5.974 15.463-20.297 39.883-32.922 66.147-32.922 29.442-.001 56.073 15.09 71.24 40.371zm-184.294-37.551c-3.104-2.186-6.311-4.178-9.607-5.973 9.64-10.631 23.297-16.798 37.95-16.798s28.31 6.167 37.95 16.798c-3.296 1.795-6.503 3.787-9.607 5.973-11.677 8.223-21.281 18.735-28.343 30.876-7.062-12.141-16.666-22.653-28.343-30.876zm-36.286 82.847-25.29-14.044c-2.322-1.29-5.155-1.255-7.445.093s-3.696 3.806-3.696 6.464v32.087l-30.763 20.772c-.938.634-1.821.359-2.263.14-.5-.249-1.105-.749-1.158-1.718-1.576-29.437 12.05-56.845 36.448-73.315 13.97-9.429 30.217-14.129 46.459-14.129 13.246 0 26.49 3.129 38.479 9.37zm290.474 211.926c4.511-3.533 9.656-5.912 15.155-7.04v29.728c-8.891 1.275-17.217 4.814-24.399 10.439-2.154 1.684-5.049 1.684-7.204-.002-2.434-1.901-5.027-3.578-7.724-5-5.442-12.644-12.85-24.673-22.016-35.85 7.506.426 14.555 3.071 20.504 7.73 7.56 5.91 18.12 5.91 25.684-.005zm-356.934-31.388c25.355-17.019 55.85-28.734 88.671-34.172l-1.729 18.718c-.128 1.353-.193 2.751-.193 4.157 0 24.416 19.891 44.28 44.34 44.28 12.44 0 24.383-5.274 32.765-14.469 8.381-9.194 12.53-21.569 11.383-33.951l-1.73-18.736c32.821 5.437 63.316 17.153 88.671 34.172 22.23 14.921 39.629 33.3 51.033 53.751-1.529-.134-3.068-.218-4.622-.218-11.696 0-22.729 3.799-31.899 10.981-2.153 1.685-5.047 1.684-7.197.004-9.175-7.187-20.208-10.986-31.904-10.986s-22.729 3.799-31.899 10.981c-2.154 1.685-5.048 1.684-7.197.004-9.175-7.187-20.208-10.986-31.904-10.986s-22.729 3.799-31.899 10.981c-2.153 1.685-5.047 1.684-7.197.004-9.175-7.187-20.208-10.986-31.904-10.986s-22.729 3.799-31.899 10.981c-2.154 1.685-5.048 1.684-7.197.004-9.175-7.187-20.208-10.986-31.904-10.986s-22.729 3.799-31.899 10.981c-2.154 1.685-5.048 1.684-7.197.004-9.175-7.187-20.208-10.986-31.904-10.986-1.555 0-3.094.083-4.622.218 11.404-20.444 28.803-38.823 51.033-53.745zm-94.75 31.393c7.56 5.911 18.12 5.91 25.684-.004 5.944-4.655 12.992-7.3 20.499-7.726-9.166 11.178-16.574 23.207-22.016 35.851-2.705 1.427-5.294 3.102-7.726 5.002-2.153 1.685-5.047 1.684-7.197.004-7.186-5.629-15.513-9.168-24.404-10.443v-29.728c5.499 1.128 10.645 3.508 15.16 7.044zm453.329 164.451h-454.98c-7.449 0-13.51-6.061-13.51-13.51v-46.861c5.495 1.13 10.643 3.51 15.161 7.049 7.56 5.91 18.12 5.91 25.684-.004 6.519-5.105 14.353-7.804 22.655-7.804s16.137 2.699 22.661 7.809c3.78 2.955 8.308 4.433 12.838 4.432 4.53 0 9.062-1.479 12.844-4.435 2.583-2.022 5.412-3.684 8.407-4.94 3.82-1.602 5.618-5.997 4.017-9.816s-5.995-5.62-9.816-4.017c-4.228 1.772-8.216 4.114-11.849 6.958-2.155 1.685-5.048 1.683-7.197.004-9.184-7.193-20.216-10.996-31.904-10.996s-22.721 3.802-31.899 10.991c-2.154 1.685-5.047 1.683-7.197.004-7.191-5.633-15.519-9.175-24.404-10.452v-50.966c5.5 1.128 10.647 3.506 15.161 7.042 3.78 2.956 8.31 4.433 12.84 4.433 4.529 0 9.058-1.477 12.836-4.431 2.302-1.798 4.797-3.312 7.446-4.512 4.765-2.183 9.885-3.289 15.217-3.289 8.311 0 16.145 2.695 22.661 7.799 7.561 5.91 18.121 5.91 25.684-.004 6.51-5.099 14.344-7.794 22.655-7.794s16.145 2.695 22.661 7.799c7.56 5.91 18.12 5.91 25.684-.004 6.51-5.099 14.344-7.794 22.655-7.794s16.145 2.695 22.661 7.799c7.561 5.91 18.121 5.91 25.684-.004 6.51-5.099 14.344-7.794 22.655-7.794s16.145 2.695 22.661 7.799c7.56 5.91 18.12 5.91 25.684-.004 6.51-5.099 14.344-7.794 22.655-7.794s16.145 2.695 22.661 7.799c7.561 5.91 18.121 5.91 25.684-.004 6.51-5.099 14.344-7.794 22.655-7.794 5.332 0 10.452 1.106 15.245 3.302 2.62 1.187 5.116 2.701 7.416 4.497 7.56 5.91 18.12 5.91 25.684-.004 4.51-3.532 9.656-5.909 15.155-7.037v50.966c-8.885 1.277-17.212 4.818-24.399 10.448-2.152 1.684-5.046 1.684-7.197.004-9.184-7.193-20.216-10.996-31.904-10.996s-22.721 3.802-31.899 10.991c-2.153 1.684-5.047 1.684-7.197.004-9.184-7.193-20.216-10.996-31.904-10.996s-22.721 3.802-31.899 10.991c-2.153 1.684-5.047 1.684-7.197.004-9.184-7.193-20.216-10.996-31.904-10.996s-22.721 3.802-31.899 10.991c-2.152 1.684-5.046 1.684-7.197.004-9.184-7.193-20.216-10.996-31.904-10.996s-22.721 3.802-31.899 10.991c-2.154 1.684-5.048 1.684-7.199.002-3.637-2.846-7.625-5.188-11.853-6.96-3.816-1.602-8.214.196-9.816 4.017-1.602 3.82.197 8.215 4.017 9.816 2.995 1.256 5.824 2.918 8.411 4.942 7.56 5.91 18.12 5.91 25.684-.004 6.519-5.105 14.353-7.804 22.655-7.804s16.137 2.699 22.661 7.809c7.561 5.91 18.121 5.91 25.684-.004 6.519-5.105 14.353-7.804 22.655-7.804s16.137 2.699 22.661 7.809c7.56 5.91 18.12 5.91 25.684-.004 6.519-5.105 14.353-7.804 22.655-7.804s16.137 2.699 22.661 7.809c7.561 5.91 18.121 5.91 25.684-.004 6.519-5.105 14.353-7.804 22.655-7.804s16.137 2.699 22.661 7.809c3.779 2.955 8.308 4.432 12.837 4.432 4.531 0 9.064-1.479 12.847-4.437 4.514-3.536 9.66-5.915 15.155-7.045v46.861c-.001 7.445-6.062 13.506-13.511 13.506z"/><path d="m363.584 308.547c.836 3.426 3.903 5.723 7.28 5.723.589 0 1.188-.07 1.785-.216 4.024-.982 6.489-5.041 5.506-9.065l-.119-.486c-.982-4.024-5.039-6.49-9.065-5.506-4.024.982-6.489 5.041-5.506 9.065z"/><path d="m379.659 325.544c.836 3.426 3.903 5.723 7.28 5.723.589 0 1.188-.07 1.785-.216 4.024-.982 6.489-5.041 5.506-9.065l-.119-.486c-.982-4.023-5.04-6.49-9.065-5.506-4.024.982-6.489 5.041-5.506 9.065z"/><path d="m358.537 330.444c.836 3.426 3.903 5.723 7.28 5.723.589 0 1.188-.07 1.785-.216 4.024-.982 6.489-5.041 5.506-9.065l-.119-.486c-.982-4.023-5.04-6.49-9.065-5.506-4.024.982-6.489 5.041-5.506 9.065z"/></g></svg>