<svg id="Capa_1" enable-background="new 0 0 511.995 511.995" height="512" viewBox="0 0 511.995 511.995" width="512" xmlns="http://www.w3.org/2000/svg"><g><path d="m413.467 308.849v-14.909c0-4.142-3.357-7.5-7.5-7.5s-7.5 3.358-7.5 7.5v14.909c0 4.142 3.357 7.5 7.5 7.5s7.5-3.357 7.5-7.5z"/><path d="m106.708 365.61h155.58c39.331 0 71.33-31.999 71.33-71.33v-15.19c0-2.567-1.312-4.956-3.48-6.332-2.167-1.376-4.889-1.548-7.21-.456-3.145 1.478-6.525 2.228-10.05 2.228-13.096 0-23.75-10.649-23.75-23.74 0-13.096 10.654-23.75 23.75-23.75 8.336 0 15.914 4.255 20.271 11.382 1.306 2.136 3.592 3.48 6.094 3.582 2.512.115 4.89-1.052 6.365-3.076 1.896-2.6 4.029-5.091 6.346-7.407.816-.816 1.646-1.599 2.467-2.326 3.101-2.746 3.389-7.486.643-10.587-2.746-3.102-7.486-3.39-10.588-.643-1.048.928-2.103 1.922-3.13 2.951-.589.589-1.169 1.187-1.738 1.794-7.103-6.801-16.57-10.671-26.729-10.671-21.367 0-38.75 17.383-38.75 38.75 0 21.361 17.383 38.74 38.75 38.74 1.94 0 3.855-.14 5.74-.419v5.169c0 31.061-25.27 56.33-56.33 56.33h-155.58c-8.305 0-16.45-2.866-22.939-8.072l-9.07-7.27c-2.25-1.805-5.334-2.156-7.937-.909-.028.014-.052.032-.08.046-.044.018-.089.028-.132.05l-32.323 16.796c-1.276.667-2.423.35-2.992.1-.569-.249-1.581-.876-1.956-2.261-6.443-23.93 4.167-49.134 25.802-61.292 3.009-1.691 4.476-5.217 3.554-8.543-.924-3.327-4.007-5.574-7.446-5.493l-32.605.951c-1.489.045-2.341-.742-2.743-1.214-.406-.476-1.048-1.49-.774-2.93 4.706-24.775 26.45-43.298 51.712-44.043 2.131-.066 4.322.012 6.697.239 3.429.324 6.645-1.726 7.788-4.977 1.144-3.252-.076-6.865-2.957-8.757l-44.309-29.108c-1.191-.783-1.482-1.924-1.55-2.534-.067-.607-.033-1.778.948-2.792 3.484-3.599 7.382-6.746 11.586-9.353 3.52-2.184 4.603-6.807 2.419-10.327s-6.809-4.603-10.326-2.419c-5.251 3.257-10.114 7.182-14.458 11.668-3.834 3.963-5.686 9.385-5.078 14.874.608 5.494 3.604 10.385 8.221 13.42l25.991 17.075c-10.509 2.603-20.351 7.646-28.607 14.771-11.816 10.197-19.918 24.213-22.815 39.465-1.053 5.542.442 11.179 4.101 15.466 3.652 4.28 8.956 6.626 14.596 6.47l10.577-.309c-14.952 17.021-20.956 40.762-14.806 63.603 1.47 5.428 5.268 9.834 10.421 12.091 2.381 1.042 4.903 1.561 7.419 1.561 2.927 0 5.844-.702 8.518-2.098l21.352-11.095v5.17c0 33.569 27.315 60.88 60.891 60.88h15.85v15.43c0 15.621 12.709 28.33 28.33 28.33 8.234 0 15.656-3.531 20.839-9.155 5.181 5.624 12.6 9.155 20.831 9.155 15.621 0 28.33-12.709 28.33-28.33v-15.43h7.22c4.143 0 7.5-3.358 7.5-7.5s-3.357-7.5-7.5-7.5h-56.38c-4.143 0-7.5 3.358-7.5 7.5v22.93c0 7.35-5.984 13.33-13.34 13.33-7.351 0-13.33-5.98-13.33-13.33v-22.93c0-4.142-3.357-7.5-7.5-7.5h-23.35c-25.304 0-45.891-20.582-45.891-45.88v-2.074c8.563 5.862 18.792 9.055 29.2 9.055zm115.87 69.33c0 7.35-5.979 13.33-13.33 13.33s-13.33-5.98-13.33-13.33v-15.43h26.66z"/><path d="m506.992 300.644c-3.84-4.356-9.371-6.854-15.174-6.854-7.237 0-14.045-2.821-19.167-7.943s-7.943-11.929-7.943-19.167c0-15.938-5.406-31.032-15.337-43.191 13.406-17.254 15.628-40.708 5.162-60.424-2.784-5.249-7.747-8.764-13.614-9.644-5.852-.879-11.607 1.02-15.795 5.206l-1.354 1.354c.386-4.595.313-9.237-.233-13.853-1.836-15.497-8.916-30.058-19.942-41.007-4.006-3.966-9.521-5.875-15.107-5.241-5.587.634-10.518 3.725-13.524 8.476l-7.251 11.442c-4-18.326-15.34-34.81-31.859-44.759-4.863-2.934-10.701-3.499-16.017-1.547-5.277 1.938-9.333 6.106-11.129 11.447l-2.188 6.528c-9.783-20.956-28.771-36.842-52.202-42.251-5.438-1.264-11.09-.054-15.511 3.324-4.384 3.349-7.017 8.434-7.224 13.955l-.356 9.661c-15.818-15.251-37.772-23.312-60.245-21.254-5.487.498-10.424 3.393-13.545 7.945-3.126 4.561-4.048 10.223-2.528 15.54l6.235 21.759c-20.034-12.679-45.431-15.751-68.468-6.949-5.092 1.951-9.022 6.046-10.783 11.236-1.777 5.241-1.138 10.946 1.755 15.654l17.429 28.364c-9.305-2.98-19.137-4.139-29.127-3.379-4.13.314-7.224 3.917-6.91 8.046.313 4.13 3.905 7.221 8.047 6.911 13.718-1.041 27.057 2.409 38.577 9.982 1.977 1.297 3.905 2.736 5.734 4.276 2.814 2.371 6.936 2.349 9.725-.053 2.79-2.402 3.424-6.473 1.497-9.609l-32.191-52.39c-.752-1.224-.529-2.394-.329-2.983.189-.559.693-1.568 1.937-2.044 25.781-9.851 55.244-1.205 71.647 21.027 2.154 2.919 6.089 3.879 9.348 2.276 3.256-1.603 4.897-5.306 3.897-8.795l-13.599-47.456c-.392-1.37.133-2.424.479-2.931.344-.501 1.129-1.361 2.533-1.489 23.932-2.191 47.136 9.884 59.121 30.765 1.667 2.903 5.056 4.35 8.303 3.548 3.249-.802 5.573-3.66 5.697-7.005l1.11-30.096c.053-1.405.862-2.227 1.34-2.592.499-.381 1.553-.971 3.019-.631 25.759 5.946 44.837 27.623 47.474 53.94.353 3.518 3.113 6.312 6.627 6.706 3.52.397 6.825-1.719 7.947-5.071l9.947-29.692c.46-1.365 1.499-1.926 2.078-2.138.601-.221 1.803-.473 3.104.312 18.857 11.358 29.098 33.583 25.481 55.304-.586 3.52 1.389 6.964 4.722 8.238 3.332 1.272 7.102.022 9.012-2.992l20.312-32.053c.777-1.227 1.928-1.528 2.545-1.598.623-.072 1.821-.035 2.854.988 17.895 17.77 21.072 46.16 7.581 67.47l-.27.41c-2.067 3.225-1.373 7.488 1.61 9.89 2.984 2.401 7.298 2.168 10.007-.539l23.769-23.77c1.077-1.076 2.321-1.076 2.964-.979.654.098 1.86.467 2.59 1.841 7.37 13.884 6.137 30.303-2.713 42.775-12.023-9.514-26.787-14.692-42.363-14.692-5.895 0-11.776.667-17.483 1.981-4.036.93-6.555 4.956-5.625 8.992.931 4.037 4.959 6.553 8.992 5.625 4.604-1.061 9.354-1.599 14.116-1.599 14.298 0 27.729 5.568 37.831 15.688 10.104 10.086 15.669 23.514 15.669 37.812 0 11.244 4.381 21.818 12.337 29.773 1.829 1.828 3.801 3.458 5.882 4.899l-4.537 15.632c-3.6 12.402 2.675 25.501 14.599 30.472l7.323 3.047c-17.62 32.368-51.998 54.005-90.755 54.005h-51.079c-4.143 0-7.5 3.358-7.5 7.5v22.93c0 7.35-5.979 13.33-13.33 13.33-7.356 0-13.341-5.98-13.341-13.33v-22.93c0-4.142-3.357-7.5-7.5-7.5h-22.029c-4.143 0-7.5 3.358-7.5 7.5s3.357 7.5 7.5 7.5h14.529v15.43c0 15.621 12.714 28.33 28.341 28.33 8.23 0 15.649-3.531 20.83-9.153 5.18 5.623 12.599 9.153 20.829 9.153 15.621 0 28.33-12.709 28.33-28.33v-15.43h1.92c59.381 0 109.801-44.351 117.281-103.169.715-5.665-1.051-11.385-4.848-15.693zm-129.355 134.296c0 7.35-5.979 13.33-13.33 13.33-7.35 0-13.329-5.98-13.329-13.33v-15.43h26.659zm106.119-101.33c-4.868-2.03-7.431-7.379-5.96-12.444l3.943-13.588c3.26.797 6.637 1.212 10.078 1.212 1.499 0 2.928.646 3.922 1.774.559.633 1.459 1.982 1.218 3.89-.99 7.781-2.853 15.267-5.462 22.377z"/></g></svg>