<svg id="Capa_1" enable-background="new 0 0 512 512" height="512" viewBox="0 0 512 512" width="512" xmlns="http://www.w3.org/2000/svg"><g><path d="m441.238 118.95-30.501-26.572 30.474-26.549c3.959-3.451 5.347-8.886 3.534-13.845-1.778-4.867-6.252-8.066-11.304-8.147l-90.613-.004v-32.016c0-6.516-5.301-11.817-11.817-11.817h-31.234c-4.143 0-7.5 3.357-7.5 7.5s3.357 7.5 7.5 7.5h28.052v67.09h-101.302v-67.09h37.249c4.143 0 7.5-3.357 7.5-7.5s-3.357-7.5-7.5-7.5h-39.143c-7.227 0-13.106 5.879-13.106 13.105v97.046c-11.788 2.325-21.72 10.072-26.857 21.391l-67.144 147.939h-18.725c-7.373 0-13.372 5.999-13.372 13.372v27.077h-2.569c-9.05 0-16.413 7.363-16.413 16.413v25.77c0 9.05 7.363 16.412 16.413 16.412h2.367v116.003c0 9.634 7.837 17.471 17.47 17.471h84.175 64.311 84.175c9.634 0 17.471-7.837 17.471-17.471v-116.002h2.367c9.05 0 16.413-7.362 16.413-16.412v-25.77c0-9.05-7.363-16.413-16.413-16.413h-2.568v-27.077c0-7.373-5.999-13.372-13.373-13.372h-18.725l-67.145-147.939c-5.138-11.319-15.07-19.066-26.857-21.391v-13.062h56.877v22.124c0 11.971 9.738 21.709 21.709 21.709h128.012c.469 0 .94-.024 1.394-.07 4.922-.501 8.92-3.771 10.434-8.533 1.53-4.821.072-10.068-3.716-13.37zm-340.809 175.532h27.716v25.449h-27.716zm93.943 202.518v-43.958c0-13.595 11.061-24.655 24.655-24.655s24.655 11.061 24.655 24.655v43.958zm162.236-160.655v25.77c0 .778-.634 1.412-1.413 1.412h-161.781c-4.143 0-7.5 3.357-7.5 7.5s3.357 7.5 7.5 7.5h144.414v29.968h-17.345c-4.143 0-7.5 3.357-7.5 7.5s3.357 7.5 7.5 7.5h17.345v23.446h-39.153c-4.143 0-7.5 3.357-7.5 7.5s3.357 7.5 7.5 7.5h39.153v32.589c0 1.362-1.108 2.471-2.471 2.471h-76.675v-43.958c0-21.866-17.789-39.655-39.655-39.655s-39.655 17.789-39.655 39.655v43.957h-76.675c-1.361 0-2.47-1.108-2.47-2.471v-32.589h39.153c4.143 0 7.5-3.357 7.5-7.5s-3.357-7.5-7.5-7.5h-39.153v-23.446h17.344c4.143 0 7.5-3.357 7.5-7.5s-3.357-7.5-7.5-7.5h-17.344v-29.968h57.187c4.143 0 7.5-3.357 7.5-7.5s-3.357-7.5-7.5-7.5h-74.554c-.779 0-1.413-.634-1.413-1.412v-25.77c0-.779.634-1.413 1.413-1.413h272.335c.78.001 1.413.634 1.413 1.414zm-158.636-16.413h-27.716v-25.449h27.716zm69.828 0h-27.717v-25.449h27.717zm69.827 0h-27.716v-25.449h27.716zm-97.9-182.19 42.279 93.152h-52.157c-4.143 0-7.5 3.357-7.5 7.5s3.357 7.5 7.5 7.5h58.965l15.516 34.186c-5.449 1.69-9.417 6.777-9.417 12.774v27.077h-12.113v-27.077c0-7.373-5.999-13.372-13.373-13.372h-30.971c-7.374 0-13.373 5.999-13.373 13.372v27.077h-12.111v-27.077c0-7.373-5.999-13.372-13.372-13.372h-30.971c-7.374 0-13.373 5.999-13.373 13.372v27.077h-12.111v-27.077c0-5.997-3.969-11.084-9.418-12.774l31.308-68.981h21.837c4.143 0 7.5-3.357 7.5-7.5s-3.357-7.5-7.5-7.5h-15.03l26.486-58.356c3.79-8.351 11.528-13.336 20.699-13.336s16.91 4.985 20.7 13.335zm75.494-40.652-16.816 16.816v-16.816zm-7.618 28.833 32.029-32.029c.953-.954 1.591-2.101 1.923-3.314.808-1.598 1.273-3.397 1.273-5.307v-26.44h83.578l-26.418 23.016c-3.044 2.652-4.791 6.49-4.791 10.528s1.745 7.877 4.791 10.531l26.418 23.015z"/></g></svg>