<svg id="Capa_1" enable-background="new 0 0 511.993 511.993" height="512" viewBox="0 0 511.993 511.993" width="512" xmlns="http://www.w3.org/2000/svg"><g><path d="m255.996 233.873c47.728 0 86.558-38.83 86.558-86.557s-38.83-86.557-86.558-86.557-86.557 38.83-86.557 86.557 38.829 86.557 86.557 86.557zm0-158.114c39.457 0 71.558 32.101 71.558 71.557s-32.101 71.557-71.558 71.557c-39.456 0-71.557-32.101-71.557-71.557s32.101-71.557 71.557-71.557z"/><path d="m501.298 414.893c4.143 0 7.5-3.358 7.5-7.5v-208.754c0-9.844-4.823-19.078-12.902-24.702l-51.843-36.09v-40.041c0-2.755-.695-5.492-2.011-7.914l-21.685-39.928c-2.542-4.681-7.431-7.59-12.758-7.59s-10.216 2.909-12.758 7.59l-17.175 31.626-110.475-78.042c-6.696-4.731-15.693-4.731-22.39 0l-110.474 78.042-17.176-31.627c-2.543-4.681-7.432-7.589-12.759-7.589-5.326 0-10.215 2.908-12.758 7.589l-21.686 39.932c-1.313 2.422-2.008 5.157-2.008 7.91v40.041l-51.844 36.09c-8.078 5.625-12.901 14.859-12.901 24.702v299.137c0 7.839 6.378 14.217 14.217 14.217h477.168c7.84 0 14.218-6.378 14.218-14.217v-55.382c0-4.142-3.357-7.5-7.5-7.5s-7.5 3.358-7.5 7.5v54.6h-49.745v-340.87l43.272 30.124c4.053 2.821 6.473 7.454 6.473 12.392v208.754c0 4.142 3.357 7.5 7.5 7.5zm-93.699-356.99 21.261 39.148c.126.231.192.493.192.755v24.832h-42.905v-25.234zm-111.181 345.083c-4.143 0-7.5 3.358-7.5 7.5v86.506h-25.422v-129.268c0-4.142-3.357-7.5-7.5-7.5s-7.5 3.358-7.5 7.5v129.269h-25.421v-54.6c0-4.142-3.357-7.5-7.5-7.5s-7.5 3.358-7.5 7.5v54.6h-20.078v-132.924c0-18.816 7.685-35.869 20.078-48.193v94.61c0 4.142 3.357 7.5 7.5 7.5s7.5-3.358 7.5-7.5v-105.65c0-.078-.009-.154-.012-.232 7.691-4.276 16.29-7.103 25.433-8.111v40.193c0 4.142 3.357 7.5 7.5 7.5s7.5-3.358 7.5-7.5v-40.193c9.143 1.008 17.742 3.835 25.434 8.112-.002.078-.012.154-.012.232v73.744c0 4.142 3.357 7.5 7.5 7.5s7.5-3.358 7.5-7.5v-62.703c12.392 12.323 20.077 29.376 20.077 48.192v132.924h-20.077v-86.506c0-4.144-3.358-7.502-7.5-7.502zm7.156-106.865h67.573v200.871h-32.152v-132.923c0-28.074-14.025-52.92-35.421-67.948zm-162.729-200.771 112.611-79.551c1.517-1.073 3.559-1.075 5.079 0l112.611 79.55v.148 153.011h-96.651c-4.143 0-7.5 3.358-7.5 7.5s3.357 7.5 7.5 7.5h96.651v17.612h-113.11c-.68-.017-1.356-.052-2.04-.052s-1.36.035-2.04.052h-113.111v-17.612h97.65c4.143 0 7.5-3.358 7.5-7.5s-3.357-7.5-7.5-7.5h-97.65v-153.01zm-57.905 2.456c0-.263.066-.525.191-.755l21.261-39.149 21.453 39.502v25.234h-42.905zm-64.745 100.833c0-4.938 2.42-9.57 6.472-12.392l43.273-30.124v340.87h-49.745zm64.745-61.001h42.905v359.355h-42.905zm57.905 158.483h67.572c-21.396 15.028-35.421 39.873-35.421 67.947v132.924h-32.151zm245.302-158.483h42.905v359.355h-42.905z"/><path d="m255.996 203.23c30.832 0 55.915-25.083 55.915-55.914 0-30.832-25.083-55.915-55.915-55.915-30.831 0-55.914 25.083-55.914 55.915 0 30.831 25.083 55.914 55.914 55.914zm-40.213-48.414h32.713v32.713c-16.556-3.081-29.632-16.157-32.713-32.713zm47.713 32.713v-32.713h32.714c-3.081 16.556-16.158 29.632-32.714 32.713zm32.714-47.713h-32.714v-32.714c16.556 3.082 29.633 16.158 32.714 32.714zm-47.714-32.713v32.714h-32.713c3.081-16.557 16.157-29.633 32.713-32.714z"/></g></svg>