<?xml version="1.0" encoding="iso-8859-1"?>
<!-- Generator: Adobe Illustrator 19.0.0, SVG Export Plug-In . SVG Version: 6.00 Build 0)  -->
<svg version="1.1" id="Capa_1" xmlns="http://www.w3.org/2000/svg" xmlns:xlink="http://www.w3.org/1999/xlink" x="0px" y="0px"
	 viewBox="0 0 512 512" style="enable-background:new 0 0 512 512;" xml:space="preserve">
<g>
	<g>
		<g>
			<path d="M178.365,102.322l27.53,33.849l27.533-33.849l-27.533-33.849L178.365,102.322z M205.895,112.399l-8.196-10.077
				l8.196-10.077l8.197,10.077L205.895,112.399z"/>
			<path d="M104.661,36.752v121.217h-7.187v39.375h216.844v-39.375h-7.188V36.751c6.836-2.924,11.64-9.714,11.64-17.608
				C318.771,8.587,310.183,0,299.627,0c-10.556,0-19.143,8.587-19.143,19.143c0,5.928,2.709,11.234,6.953,14.748l-34.676,42.631
				L218.086,33.89c4.244-3.514,6.953-8.82,6.953-14.748C225.039,8.587,216.451,0,205.896,0s-19.143,8.587-19.143,19.143
				c0,5.926,2.708,11.231,6.949,14.745l-34.676,42.634L124.351,33.89c4.243-3.514,6.952-8.82,6.952-14.747
				C131.304,8.587,122.716,0,112.161,0S93.018,8.587,93.018,19.143C93.018,27.037,97.823,33.828,104.661,36.752z M299.318,182.344
				H112.474v-9.375h186.844V182.344z M299.627,15c2.285,0,4.143,1.858,4.143,4.143c0,2.285-1.858,4.143-4.143,4.143
				c-2.285,0-4.143-1.858-4.143-4.143C295.484,16.858,297.343,15,299.627,15z M205.896,15c2.285,0,4.143,1.858,4.143,4.143
				c0,2.285-1.858,4.143-4.143,4.143c-2.284,0-4.143-1.858-4.143-4.143C201.753,16.858,203.611,15,205.896,15z M119.661,51.893
				l39.365,48.4l46.867-57.622l46.869,57.622l39.369-48.401v106.077h-172.47V51.893z M112.161,15c2.285,0,4.143,1.858,4.143,4.143
				c0,2.285-1.858,4.143-4.143,4.143c-2.284,0-4.143-1.858-4.143-4.143C108.018,16.858,109.875,15,112.161,15z"/>
			<path d="M276.898,219.91l-14.999-0.133c-0.04,4.426-0.6,8.83-1.665,13.087l14.552,3.64
				C276.139,231.102,276.85,225.518,276.898,219.91z"/>
			<path d="M271.221,247.102l-13.793-5.896c-1.729,4.045-3.943,7.894-6.583,11.439l12.032,8.957
				C266.223,257.11,269.03,252.231,271.221,247.102z"/>
			<path d="M215.51,274.459l2.568,14.778c14.164-2.461,27.116-9.112,37.457-19.232l-10.492-10.72
				C236.883,267.273,226.671,272.52,215.51,274.459z"/>
			<path d="M258.798,305.286c28.841-17.806,48.104-49.699,48.104-86.011c0-3.313-0.173-6.643-0.528-10.18l-14.925,1.498
				c0.305,3.035,0.453,5.875,0.453,8.682c0,47.427-38.584,86.011-86.011,86.011s-86.011-38.584-86.011-86.011
				c0-2.807,0.148-5.647,0.453-8.682l-14.925-1.498c-0.355,3.537-0.528,6.867-0.528,10.18c0,36.312,19.263,68.206,48.104,86.011
				H62.828l-39.175,39.175V512h364.476l0.008-167.539l-39.175-39.175H258.798z M289.595,320.286l-26.152,32.482H148.34
				l-26.152-32.482H289.595z M214.008,374.967c0,3.97-3.23,7.2-7.2,7.2c-3.97,0-7.2-3.23-7.2-7.2c0-3.97,3.23-7.199,7.2-7.199
				C210.778,367.768,214.008,370.997,214.008,374.967z M89.75,473.185H77.708v15H89.75V497H38.651v-37.637h30.904v-15H38.651
				v-71.488c14.29,18.483,31.58,34.557,51.099,47.435V473.185z M307.036,497h-20.078v-32.061h-15V497h-133v-40.131h-15V497h-19.207
				v-67.659c22.556,12.316,47.235,20.379,72.704,23.829v27.514h15v-26.021c4.465,0.284,8.946,0.43,13.436,0.43
				c11.127,0,22.198-0.884,33.109-2.611v33.851h15v-36.776c18.482-4.31,36.34-11.102,53.036-20.219V497z M373.129,497h-51.092
				v-45.954h8.422v-15h-8.422v-15.74c19.519-12.88,36.809-28.954,51.098-47.438L373.129,497z M205.894,440.094
				c-67.835,0-129.393-33.919-165.666-90.992l28.813-28.816h33.889l38.23,47.482h44.655c-0.777,2.259-1.205,4.68-1.205,7.199
				c0,12.241,9.959,22.2,22.2,22.2c12.241,0,22.2-9.959,22.2-22.2c0-2.52-0.428-4.94-1.205-7.199h42.82l38.23-47.482h33.895
				l28.812,28.812C335.29,406.177,273.733,440.094,205.894,440.094z"/>
			<path d="M186.184,424.023c5.165,0.563,10.416,0.907,15.607,1.024l0.338-14.996c-4.764-0.107-9.582-0.423-14.32-0.94
				L186.184,424.023z"/>
			<path d="M235.466,407.452l2.657,14.763c5.112-0.921,10.247-2.075,15.261-3.432l-3.919-14.479
				C244.865,405.549,240.155,406.608,235.466,407.452z"/>
			<path d="M160.552,419.351c5.027,1.294,10.175,2.386,15.301,3.245l2.478-14.794c-4.703-0.788-9.426-1.789-14.038-2.977
				L160.552,419.351z"/>
			<path d="M211.697,409.991l0.521,14.991c5.194-0.18,10.44-0.589,15.594-1.215l-1.809-14.891
				C221.273,409.45,216.461,409.826,211.697,409.991z"/>
			<path d="M326.95,357.776l10.92,10.284c3.563-3.782,7.003-7.763,10.224-11.831l-11.759-9.313
				C333.377,350.65,330.22,354.304,326.95,357.776z"/>
			<path d="M309.361,373.972l9.348,11.731c4.057-3.233,8.027-6.684,11.8-10.259l-10.316-10.889
				C316.729,367.836,313.086,371.005,309.361,373.972z"/>
			<path d="M289.648,387.49l7.571,12.949c4.478-2.619,8.903-5.47,13.15-8.473l-8.66-12.247
				C297.814,382.474,293.755,385.088,289.648,387.49z"/>
			<path d="M75.952,347.551l-11.713,9.37c3.244,4.055,6.703,8.019,10.281,11.782l10.87-10.337
				C82.104,354.912,78.929,351.274,75.952,347.551z"/>
			<path d="M92.179,365.112l-10.264,10.939c3.788,3.553,7.775,6.985,11.851,10.201l9.291-11.776
				C99.315,371.524,95.656,368.373,92.179,365.112z"/>
			<path d="M102.135,392.475c4.261,2.982,8.699,5.811,13.192,8.408l7.508-12.985c-4.119-2.382-8.19-4.977-12.098-7.712
				L102.135,392.475z"/>
			<rect x="179.14" y="327.17" width="15" height="15"/>
			<rect x="154.14" y="327.17" width="15" height="15"/>
			<rect x="204.14" y="327.17" width="55.33" height="15"/>
			<rect x="348.96" y="407.7" width="15" height="15"/>
			<rect x="348.96" y="432.7" width="15" height="15"/>
			<rect x="348.96" y="457.7" width="15" height="33.968"/>
			<rect x="262.62" y="137.38" width="22.333" height="15"/>
			<rect x="237.62" y="137.38" width="15" height="15"/>
			<rect x="212.62" y="137.38" width="15" height="15"/>
			<rect x="128.289" y="116.33" width="15" height="33.667"/>
			<path d="M488.348,238.631l-37.168,3.141l3.141-37.168h-45.146l3.141,37.168l-37.169-3.141v45.146l37.169-3.141l-1.873,22.169
				h-9.406v35.361h61.422v-35.361h-9.406l-1.873-22.169l37.168,3.141V238.631z M447.458,323.167h-31.422v-5.361h31.422V323.167z
				 M473.348,267.456l-38.612-3.263l3.263,38.612h-12.503l3.263-38.612l-38.612,3.263v-12.503l38.612,3.263l-3.263-38.612h12.503
				l-3.263,38.612l38.612-3.263V267.456z"/>
			<polygon points="437.66,497 425.835,497 425.835,350.667 410.835,350.667 410.835,512 452.66,512 452.66,350.667 437.66,350.667 
							"/>
		</g>
	</g>
</g>
<g>
</g>
<g>
</g>
<g>
</g>
<g>
</g>
<g>
</g>
<g>
</g>
<g>
</g>
<g>
</g>
<g>
</g>
<g>
</g>
<g>
</g>
<g>
</g>
<g>
</g>
<g>
</g>
<g>
</g>
</svg>
