<svg id="Capa_1" enable-background="new 0 0 512 512" height="512" viewBox="0 0 512 512" width="512" xmlns="http://www.w3.org/2000/svg"><g><path d="m459.642 24.25c-14.663 0-26.592 11.929-26.592 26.592v20.545h-354.101v-20.546c0-14.663-11.929-26.592-26.592-26.592-28.87.001-52.357 23.488-52.357 52.358v358.786c0 28.87 23.487 52.358 52.357 52.358h407.285c28.87 0 52.358-23.488 52.358-52.358v-358.786c0-28.87-23.488-52.357-52.358-52.357zm-81.916 62.136c-1.121 1.951-2.358 3.905-3.65 5.945-3.984 6.292-8.104 12.798-9.819 20.806-.754 3.518-.953 6.931-1.146 10.233-.271 4.632-.505 8.633-2.167 11.6-2.018 3.6-6.672 6.318-10.778 8.717l-89.877 52.495c-6.242 3.646-13.317 7.778-18.876 13.981-8.332 9.295-11.723 21.594-14.449 31.477l-17.003 61.655c-2.778 10.072-5.926 21.488-12.919 29.13-7.146 7.81-17.207 8.897-22.428 5.428-8.002-5.317-8.082-18.564-7.391-31.345.993-18.35-3.27-40.947-6.834-58.846-2.245-11.274-5.318-26.715-16.79-36.609-4.322-3.728-9.207-6.138-13.931-8.468-5.726-2.825-10.671-5.264-13.173-9.313-1.97-3.189-2.537-7.755-3.085-12.171-1.42-11.436-2.888-23.26-1.365-34.426.918-6.728 3.906-19.134 13.604-26.629 1.822-1.408 3.925-2.673 6.151-4.012 2.769-1.665 5.632-3.387 8.383-5.625 7.186-5.844 12.016-14.49 13.627-24.022h223.916zm-362.726 349.007v-3.39c.038-.239.065-.482.08-.729 1.202-19.646 17.576-35.036 37.277-35.036 14.663 0 26.592-11.929 26.592-26.592v-201.86c0-4.142-3.358-7.5-7.5-7.5s-7.5 3.358-7.5 7.5v201.86c0 6.392-5.2 11.592-11.592 11.592-14.56 0-27.824 5.999-37.357 15.708v-320.339c0-20.599 16.758-37.357 37.357-37.357 6.392 0 11.592 5.2 11.592 11.592v81.945c0 4.142 3.358 7.5 7.5 7.5s7.5-3.358 7.5-7.5v-46.4h59.501c-1.344 4.956-4.051 9.39-7.733 12.385-1.928 1.568-4.221 2.947-6.649 4.407-2.498 1.502-5.08 3.055-7.594 4.998-10.321 7.977-17.173 20.929-19.293 36.47-1.787 13.102-.196 25.913 1.342 38.301.676 5.449 1.519 12.231 5.209 18.206 4.764 7.713 12.486 11.522 19.298 14.882 4.06 2.003 7.895 3.895 10.77 6.375 6.995 6.033 9.517 16.331 11.875 28.18 3.409 17.122 7.509 37.736 6.55 55.565-.822 15.263-.807 34.297 14.085 44.191 4.591 3.05 9.744 4.381 14.938 4.381 10.07 0 20.293-5.004 26.857-12.176 9.429-10.303 13.247-24.146 16.314-35.269l17.003-61.655c2.428-8.804 5.18-18.783 11.159-25.454 3.987-4.449 9.724-7.8 15.271-11.04l89.877-52.496c5.185-3.029 12.285-7.176 16.298-14.336 3.351-5.979 3.726-12.396 4.056-18.058.167-2.864.326-5.57.839-7.966 1.154-5.388 4.395-10.505 7.826-15.923 1.782-2.814 3.625-5.724 5.266-8.815.881-1.659 1.684-3.394 2.395-5.155h38.641v93.707c-14 4.589-27.123 9.381-36.989 21.915-3.758 4.773-6.298 9.986-8.755 15.027-2.354 4.827-4.576 9.387-7.622 13.005-6.631 7.875-17.482 11.798-29.939 15.764-25.046 7.974-50.476 17.689-62.155 40.755-5.388 10.643-6.696 22.186-7.961 33.349-1.246 10.996-2.422 21.382-7.371 29.853-4.414 7.555-11.687 13.341-19.387 19.466-2.302 1.831-4.682 3.724-6.991 5.675-21.583 18.24-38.027 43.854-46.306 72.125-2.657 9.072-4.48 17.689-5.461 25.723h-141.756c-20.599.001-37.357-16.757-37.357-37.356zm444.642 37.357h-250.4c.927-6.707 2.5-13.902 4.728-21.508 7.461-25.479 22.232-48.521 41.593-64.884 2.138-1.807 4.328-3.549 6.646-5.393 8.442-6.715 17.171-13.658 23.002-23.639 6.545-11.204 7.958-23.673 9.324-35.731 1.167-10.299 2.269-20.026 6.438-28.261 9.059-17.889 31.31-26.229 53.324-33.238 11.352-3.614 26.899-8.564 36.862-20.396 4.243-5.038 6.982-10.659 9.632-16.094 2.208-4.531 4.294-8.81 7.058-12.321 6.266-7.96 14.737-11.778 25.203-15.376v82.99c0 4.142 3.358 7.5 7.5 7.5s7.5-3.358 7.5-7.5v-228.058c0-6.392 5.2-11.592 11.592-11.592 20.597.001 37.356 16.759 37.356 37.358v294.489 25.85c-9.534-9.709-22.798-15.709-37.358-15.709-6.392 0-11.592-5.2-11.592-11.592v-54.745c0-4.142-3.358-7.5-7.5-7.5s-7.5 3.358-7.5 7.5v54.746c0 14.663 11.929 26.592 26.592 26.592 19.701 0 36.075 15.39 37.278 35.036.015.243.042.483.08.719v3.401c0 20.598-16.759 37.356-37.358 37.356z"/><path d="m388.288 372.631c-3.234-5.603-9.028-8.948-15.498-8.948-6.469 0-12.263 3.345-15.498 8.948l-9.142 15.835-1.223-2.118c-3.234-5.603-9.028-8.948-15.498-8.948-6.469 0-12.263 3.345-15.498 8.948l-14.887 25.786c-2.071 3.587-.842 8.174 2.745 10.245 3.586 2.071 8.173.842 10.245-2.745l14.887-25.785c.728-1.26 1.883-1.448 2.508-1.448.624 0 1.78.188 2.507 1.448l14.887 25.786c1.389 2.406 3.91 3.751 6.502 3.751 1.272 0 2.562-.324 3.743-1.006 3.587-2.071 4.816-6.658 2.745-10.245l-5.004-8.668 13.473-23.335c.728-1.26 1.883-1.448 2.508-1.448.624 0 1.78.188 2.507 1.448l14.888 25.786c1.389 2.406 3.91 3.751 6.502 3.751 1.272 0 2.562-.324 3.743-1.006 3.587-2.071 4.816-6.658 2.745-10.245z"/><path d="m151.907 189.445c3.586 2.071 8.174.842 10.245-2.745l13.732-23.785c.499-.863 1.259-1.045 1.81-1.045.55 0 1.311.181 1.809 1.045l13.732 23.785c1.389 2.406 3.91 3.751 6.502 3.751 1.272 0 2.562-.324 3.743-1.006 3.587-2.071 4.816-6.658 2.745-10.245l-13.732-23.785c-3.089-5.35-8.622-8.545-14.799-8.545-6.178 0-11.711 3.194-14.8 8.545l-13.732 23.785c-2.072 3.587-.843 8.174 2.745 10.245z"/><path d="m142.783 402.638c-3.089-5.35-8.622-8.545-14.8-8.545s-11.711 3.194-14.8 8.545l-13.732 23.785c-2.071 3.587-.842 8.174 2.745 10.245 3.586 2.071 8.173.842 10.245-2.745l13.732-23.785c.499-.863 1.259-1.045 1.81-1.045s1.311.181 1.81 1.045l13.732 23.785c1.389 2.406 3.91 3.751 6.502 3.751 1.272 0 2.562-.324 3.743-1.006 3.587-2.071 4.816-6.658 2.745-10.245z"/><path d="m226.118 148.212c3.586 2.071 8.173.842 10.245-2.745l13.732-23.785c.499-.863 1.259-1.045 1.81-1.045s1.311.181 1.81 1.045l13.732 23.785c1.389 2.406 3.91 3.751 6.502 3.751 1.272 0 2.562-.324 3.743-1.006 3.587-2.071 4.816-6.658 2.745-10.245l-13.732-23.785c-3.089-5.35-8.622-8.545-14.8-8.545s-11.711 3.194-14.8 8.545l-13.732 23.785c-2.071 3.587-.842 8.174 2.745 10.245z"/></g></svg>