<?xml version="1.0" encoding="iso-8859-1"?>
<!-- Generator: Adobe Illustrator 19.0.0, SVG Export Plug-In . SVG Version: 6.00 Build 0)  -->
<svg version="1.1" id="Capa_1" xmlns="http://www.w3.org/2000/svg" xmlns:xlink="http://www.w3.org/1999/xlink" x="0px" y="0px"
	 viewBox="0 0 512 512" style="enable-background:new 0 0 512 512;" xml:space="preserve">
<g>
	<g>
		<g>
			<rect x="89.01" y="77.69" width="15" height="15"/>
			<rect x="64.01" y="77.69" width="15" height="15"/>
			<path d="M234.063,0h-52.098v47.524h-22.271V0h-52.097v47.524H85.325V0H33.228v120.762h200.835V0z M219.063,72.174h-50.26v15
				h50.26v18.588c0,0-170.835,0-170.835,0V15h22.098v47.524h52.271V15h22.097v47.524h52.271V15h22.098V72.174z"/>
			<rect x="142.97" y="149.17" width="15" height="15"/>
			<rect x="167.97" y="149.17" width="15" height="15"/>
			<rect x="117.97" y="149.17" width="15" height="15"/>
			<rect x="95.94" y="378.12" width="15" height="15"/>
			<rect x="70.943" y="378.12" width="15" height="15"/>
			<rect x="120.94" y="378.12" width="15" height="15"/>
			<path d="M182.909,305.487h-13.018v-47.435c0-19.986-16.261-36.246-36.247-36.246c-19.985,0-36.245,16.26-36.245,36.246v47.435
				H84.374v40.633h98.535V305.487z M112.399,258.052c0-11.715,9.531-21.246,21.246-21.246s21.246,9.531,21.246,21.246v47.435
				h-42.492V258.052z M167.909,331.12H99.374v-10.633h68.535V331.12z"/>
			
				<rect x="157.765" y="393.634" transform="matrix(-0.0581 -0.9983 0.9983 -0.0581 -200.2789 613.3059)" width="62.841" height="15"/>
			<rect x="186.009" y="467.455" transform="matrix(0.0581 0.9983 -0.9983 0.0581 656.4186 254.1769)" width="15" height="15"/>
			<rect x="184.538" y="442.472" transform="matrix(-0.0581 -0.9983 0.9983 -0.0581 -246.0175 667.8277)" width="15" height="15"/>
			<rect x="412.08" y="75.18" width="15" height="15"/>
			<rect x="387.08" y="75.18" width="15" height="15"/>
			<rect x="437.08" y="75.18" width="15" height="15"/>
			<polygon points="457.167,132.826 442.192,133.697 445.348,187.953 391.387,187.953 391.387,202.953 446.22,202.953 463.323,497 
				293.387,497 299.266,395.918 366.707,395.918 366.707,380.918 300.138,380.918 305.514,288.493 327.9,288.493 327.9,273.493 
				306.386,273.493 314.517,133.697 299.542,132.826 277.488,512 479.222,512 			"/>
			<path d="M478.772,0h-52.098v47.524h-22.271V0h-52.097v47.524h-22.271V0h-52.098v120.762h200.835V0z M463.773,105.762
				L463.773,105.762H292.938V83.666h18.637v-15h-18.637V15h22.098v47.524h52.271V15h22.097v47.524h52.271V15h22.098V105.762z"/>
			<rect x="322.93" y="135.83" width="15" height="15"/>
			<rect x="372.93" y="135.83" width="15" height="15"/>
			<rect x="347.93" y="135.83" width="15" height="15"/>
			<rect x="313.17" y="460.11" width="15" height="15"/>
			<rect x="338.17" y="460.11" width="15" height="15"/>
			<rect x="363.17" y="460.11" width="15" height="15"/>
			<path d="M378.354,221.806c-19.985,0-36.245,16.26-36.245,36.246v47.435h-13.025v40.633h98.535v-40.633h-13.018v-47.435
				C414.602,238.066,398.341,221.806,378.354,221.806z M357.109,258.052c0-11.715,9.531-21.246,21.246-21.246
				c11.715,0,21.246,9.531,21.246,21.246v47.435h-42.492V258.052z M412.619,331.12h-68.535v-10.633h68.535V331.12z"/>
			<rect x="402.467" y="393.64" transform="matrix(-0.0581 -0.9983 0.9983 -0.0581 58.6348 857.6012)" width="62.841" height="15"/>
			<rect x="429.239" y="442.478" transform="matrix(-0.0581 -0.9983 0.9983 -0.0581 12.8945 912.1221)" width="15" height="15"/>
			<rect x="430.727" y="467.448" transform="matrix(0.0581 0.9983 -0.9983 0.0581 886.9107 9.8661)" width="15" height="15"/>
			<polygon points="197.483,133.697 205.614,273.493 184.1,273.493 184.1,288.493 206.486,288.493 218.613,497 48.677,497 
				51.281,452.221 82.521,452.221 82.521,437.221 52.154,437.221 65.78,202.953 120.613,202.953 120.613,187.953 66.652,187.953 
				69.808,133.697 54.833,132.826 32.778,512 234.512,512 212.458,132.826 			"/>
		</g>
	</g>
</g>
<g>
</g>
<g>
</g>
<g>
</g>
<g>
</g>
<g>
</g>
<g>
</g>
<g>
</g>
<g>
</g>
<g>
</g>
<g>
</g>
<g>
</g>
<g>
</g>
<g>
</g>
<g>
</g>
<g>
</g>
</svg>
