<svg id="Capa_1" enable-background="new 0 0 512 512" height="512" viewBox="0 0 512 512" width="512" xmlns="http://www.w3.org/2000/svg"><g><path d="m495.373 78.196c-35.367-15.814-127.473-49.368-218.691-19.493-26.754 8.763-54.256 14.017-81.815 15.651l-3.401-57.123c-.269-4.49-4.003-8.007-8.501-8.007h-19.755c-4.157 0-7.687 2.973-8.393 7.072l-2.479 14.398h-8.778l-3.347-14.827c-.882-3.911-4.298-6.643-8.308-6.643h-25.928c-4.005 0-7.421 2.729-8.308 6.641l-3.347 14.829h-8.778l-2.479-14.4c-.706-4.097-4.236-7.07-8.393-7.07h-19.753c-4.501 0-8.235 3.52-8.501 8.01l-3.333 55.982c-7.027-.719-14.086-1.659-21.051-2.829-5.501-.926-11.092.608-15.345 4.207-4.251 3.596-6.689 8.853-6.689 14.424v395.09c0 10.294 8.375 18.668 18.668 18.668h474.663c10.294 0 18.669-8.375 18.669-18.668v-380.235c0-11.082-6.526-21.161-16.627-25.677zm-71.823 256.213c-24.412 6.76-56.59 12.573-93.796 11.859l6.279-139.997h8.477l2.542 14.766c.707 4.106 4.244 7.086 8.41 7.086h19.771c4.017 0 7.44-2.737 8.325-6.655l3.43-15.196h16.051l3.43 15.196c.884 3.919 4.308 6.656 8.325 6.656h19.771c4.166 0 7.703-2.98 8.41-7.086l2.542-14.765h8.476l5.205 116.054c-10.269 4.144-22.233 8.367-35.648 12.082zm50.376-18.466-3.799-84.702h26.873v3.467 69.156c-4.132 2.479-12.015 6.945-23.074 12.079zm-226.538-233.746v38.064c0 4.142 3.358 7.5 7.5 7.5s7.5-3.358 7.5-7.5v-41.696c6.355-1.687 12.68-3.549 18.963-5.607 2.395-.784 4.792-1.515 7.188-2.208v63.739c0 4.142 3.358 7.5 7.5 7.5s7.5-3.358 7.5-7.5v-67.506c29.584-6.345 58.793-6.358 85.374-3.163v66.67c0 4.142 3.358 7.5 7.5 7.5s7.5-3.358 7.5-7.5v-64.5c9.147 1.547 17.898 3.427 26.152 5.499v44.772c0 4.142 3.358 7.5 7.5 7.5s7.5-3.358 7.5-7.5v-40.661c8.789 2.613 16.819 5.357 23.927 8.011v62.683c0 4.142 3.358 7.5 7.5 7.5s7.5-3.358 7.5-7.5v-56.699c1.873.798 3.63 1.566 5.258 2.294 4.708 2.105 7.75 6.809 7.75 11.983v112.368h-27.546l-.755-16.833c-.002-.035-.003-.07-.006-.105-.266-4.503-4.007-8.031-8.519-8.031h-20.107c-4.167 0-7.704 2.98-8.41 7.086l-2.542 14.765h-9.153l-3.43-15.196c-.884-3.919-4.308-6.656-8.325-6.656h-26.389c-4.017 0-7.44 2.737-8.325 6.655l-3.43 15.196h-9.153l-2.542-14.765c-.707-4.106-4.244-7.087-8.411-7.087h-20.107c-4.508 0-8.25 3.525-8.52 8.024-.002.038-.004.075-.006.112l-.318 7.097c-16.263-5.467-31.656-13.126-45.861-22.85-3.418-2.34-8.085-1.465-10.425 1.953s-1.466 8.085 1.953 10.425c16.533 11.318 34.554 20.047 53.637 26.014l-5.542 123.571c-23.945-1.575-49.694-5.969-76.594-14.51l-5.277-117.663c-.002-.036-.004-.071-.006-.106-.272-4.609-4.103-8.22-8.72-8.22h-24.021c-4.265 0-7.885 3.05-8.609 7.253l-3.245 18.852h-13.333l-4.354-19.29c-.904-4.013-4.408-6.815-8.521-6.815h-31.526c-4.113 0-7.618 2.802-8.521 6.812l-4.355 19.293h-13.333l-3.245-18.852c-.724-4.203-4.344-7.253-8.609-7.253h-24.022c-4.614 0-8.444 3.608-8.72 8.214-.002.037-.004.074-.006.112l-5.468 121.924c-17.047 5.472-30.563 11.098-39.283 15.06v-196.682l29.95-11.229c27.339-10.25 57.128-13.952 86.142-10.709 27.81 3.108 55.022 12.64 78.694 27.563l24.726 15.587c3.505 2.208 8.135 1.159 10.344-2.345 2.208-3.504 1.159-8.135-2.345-10.344l-24.726-15.587c-6.205-3.912-12.638-7.473-19.248-10.683l-2.779-46.67c17.288-1.025 34.55-3.409 51.63-7.13zm-119.302 34.249c-6.08-.534-12.184-.794-18.289-.771v-24.756c0-.878.714-1.593 1.593-1.593h15.103c.878 0 1.593.714 1.593 1.593zm-58.874-92.222 2.479 14.4c.706 4.097 4.236 7.07 8.393 7.07h19.424c4.009 0 7.426-2.731 8.307-6.641l3.347-14.829h15.561l3.347 14.827c.882 3.911 4.298 6.643 8.308 6.643h19.425c4.157 0 7.687-2.973 8.393-7.072l2.479-14.398h8.183l6.255 105.059c-12.928-5.002-26.369-8.684-40.025-10.943v-27.421c0-9.149-7.443-16.593-16.593-16.593h-15.103c-9.149 0-16.593 7.443-16.593 16.593v25.383c-13.418 1.048-26.731 3.424-39.675 7.106l5.906-99.184zm-52.836 61.822c.516-.437 1.612-1.128 3.171-.867 7.492 1.26 15.088 2.262 22.645 3.021l-2.396 40.23c-.037.014-.075.026-.113.04l-24.683 9.255v-48.707c0-1.573.862-2.537 1.376-2.972zm-1.376 398.061v-117.095c6.349-3.093 20.034-9.353 38.564-15.613l-.884 19.702c-.186 4.138 3.019 7.643 7.157 7.829 4.134.171 7.643-3.019 7.829-7.157l6.801-151.655h12.753l3.245 18.852c.724 4.203 4.344 7.253 8.609 7.253h23.619c4.11 0 7.614-2.8 8.521-6.812l4.355-19.293h21.51l4.355 19.296c.907 4.009 4.411 6.809 8.521 6.809h23.619c4.265 0 7.885-3.05 8.608-7.253l3.245-18.852h12.753l9.091 202.696c-2.525 2.019-5.398 3.598-8.498 4.595l-22.343 7.181-3.155-44.686c-1.733-24.534-22.356-43.752-46.951-43.752-24.596 0-45.219 19.218-46.951 43.752l-6.91 97.873h-30l3.507-78.19c.186-4.138-3.019-7.643-7.157-7.829-4.135-.181-7.643 3.019-7.829 7.157l-3.537 78.862h-28.779c-2.022-.001-3.668-1.647-3.668-3.67zm143.106-6.787v10.456h-50.606l6.836-96.816c1.18-16.715 15.231-29.809 31.988-29.809s30.808 13.094 31.988 29.809l3.443 48.759c-14.345 6.865-23.649 21.339-23.649 37.601zm15 10.456v-10.456c0-11.651 7.453-21.875 18.545-25.44l31.712-10.192c8.868-2.85 16.621-8.674 21.828-16.398l4.653-6.902c4.975-7.379 13.258-11.784 22.157-11.784h31.92c9.797 0 18.792 5.346 23.473 13.952l12.796 23.523c5.394 9.915 14.73 17.313 25.614 20.298l18.699 5.128c9.079 2.49 16.009 9.549 18.574 18.27h-229.971zm323.894-3.669c0 2.023-1.646 3.668-3.669 3.668h-74.865c-2.852-15.521-14.386-28.455-29.995-32.736l-18.699-5.128c-6.971-1.912-12.951-6.65-16.405-13l-12.796-23.523c-7.31-13.437-21.354-21.784-36.65-21.784h-31.92c-11.694 0-22.692 4.886-30.518 13.297l-2.595-57.861c51.168 15.355 98.167 16.483 136.847 11.948-.008.142-.022.283-.022.427v65.64c0 4.142 3.358 7.5 7.5 7.5s7.5-3.358 7.5-7.5v-65.64c0-.856-.151-1.676-.415-2.443 8.626-1.385 16.764-3.022 24.342-4.804v42.854c0 4.142 3.358 7.5 7.5 7.5s7.5-3.358 7.5-7.5v-45.597c0-.383-.038-.755-.093-1.123 9.504-2.692 18.277-5.603 26.245-8.552v69.499c0 4.142 3.358 7.5 7.5 7.5s7.5-3.358 7.5-7.5v-75.459c11.017-4.686 19.852-9.148 26.208-12.624z"/><path d="m137.076 333.517h15.103c9.149 0 16.593-7.443 16.593-16.593v-35.314c0-9.149-7.444-16.593-16.593-16.593h-15.103c-9.149 0-16.593 7.443-16.593 16.593v35.314c0 9.149 7.444 16.593 16.593 16.593zm-1.593-51.908c0-.878.714-1.593 1.593-1.593h15.103c.878 0 1.593.714 1.593 1.593v35.314c0 .878-.715 1.593-1.593 1.593h-15.103c-.878 0-1.593-.714-1.593-1.593z"/><path d="m402.564 249.271h-15.103c-9.149 0-16.593 7.443-16.593 16.593v35.314c0 9.149 7.443 16.593 16.593 16.593h15.103c9.149 0 16.593-7.443 16.593-16.593v-35.314c0-9.15-7.444-16.593-16.593-16.593zm1.593 51.907c0 .878-.714 1.593-1.593 1.593h-15.103c-.878 0-1.593-.714-1.593-1.593v-35.314c0-.878.714-1.593 1.593-1.593h15.103c.878 0 1.593.714 1.593 1.593z"/></g></svg>