<svg id="Capa_1" enable-background="new 0 0 512 512" height="512" viewBox="0 0 512 512" width="512" xmlns="http://www.w3.org/2000/svg"><g><path d="m338.629 428.995c-3.764 3.239-7.703 6.366-11.704 9.293-4.345 3.177-8.305 5.905-12.135 8.543-13.092 9.02-23.434 16.144-29.98 29.023-6.963 13.695-13.617 21.116-28.81 21.116-15.194 0-21.848-7.422-28.81-21.116-6.547-12.88-16.888-20.004-29.98-29.022-3.829-2.639-7.789-5.367-12.135-8.545-41.152-30.089-69.214-75.628-83.408-135.351-7.939-33.407-9.794-64.134-9.743-85.958h45.798c4.15 0 7.515-3.364 7.515-7.515s-3.365-7.515-7.515-7.515h-54.1c-6.27 0-11.562-4.936-12.048-11.239-1.081-14.014.642-35.07 14.991-55.794 22.305-32.218 69.669-49.288 144.8-52.184 1.993-.076 3.873-.942 5.228-2.407 1.354-1.464 2.07-3.406 1.992-5.399l-1.876-47.342c-.131-3.313 1.062-6.455 3.36-8.845 2.297-2.39 5.389-3.707 8.705-3.707h14.452c3.316 0 6.407 1.316 8.705 3.706 2.298 2.391 3.491 5.532 3.36 8.846l-1.876 47.342c-.079 1.993.638 3.935 1.991 5.399 1.354 1.465 3.235 2.331 5.228 2.407 28.56 1.101 53.406 4.279 73.849 9.446 4.027 1.021 8.111-1.421 9.127-5.444 1.017-4.024-1.421-8.111-5.444-9.127-19.919-5.034-42.698-8.172-69.438-9.554l1.58-39.875c.294-7.437-2.384-14.489-7.542-19.856-5.157-5.366-12.097-8.321-19.54-8.321h-14.452c-7.443 0-14.383 2.955-19.541 8.322-5.158 5.366-7.836 12.418-7.542 19.855l1.58 39.875c-36.346 1.882-65.74 7.036-89.666 15.709-26.865 9.738-46.294 23.672-59.397 42.598-16.86 24.353-18.887 49.065-17.618 65.507.908 11.764 9.348 21.394 20.306 24.246-.101 22.749 1.78 55.082 10.149 90.299 15.044 63.298 45.041 111.749 89.159 144.008 4.516 3.302 8.747 6.217 12.48 8.789 12.219 8.418 20.291 13.979 25.109 23.457 7.745 15.236 18.22 29.335 42.207 29.335s34.462-14.099 42.207-29.336c4.819-9.478 12.891-15.039 25.11-23.457 3.733-2.571 7.964-5.486 12.48-8.789 4.32-3.159 8.571-6.534 12.634-10.03 3.146-2.707 3.502-7.452.796-10.598-2.708-3.145-7.452-3.499-10.598-.795z"/><path d="m437.793 126.36c-11.349-16.394-28.136-29.462-49.894-38.84-3.813-1.642-8.233.117-9.876 3.927-1.643 3.811.116 8.233 3.927 9.876 19.403 8.362 33.627 19.35 43.486 33.592 14.349 20.727 16.072 41.782 14.99 55.796-.486 6.301-5.778 11.238-12.048 11.238h-260.598c-4.15 0-7.515 3.364-7.515 7.515s3.364 7.515 7.515 7.515h252.296c.051 21.822-1.803 52.548-9.744 85.958-10.037 42.234-27.27 77.75-51.222 105.562-2.708 3.145-2.355 7.889.79 10.598 1.42 1.223 3.164 1.821 4.901 1.821 2.112 0 4.211-.886 5.697-2.611 25.537-29.652 43.859-67.298 54.457-111.894 8.37-35.22 10.25-67.552 10.149-90.299 10.959-2.852 19.399-12.481 20.306-24.246 1.269-16.443-.756-41.154-17.617-65.508z"/></g></svg>