<svg id="Capa_1" enable-background="new 0 0 512 512" height="512" viewBox="0 0 512 512" width="512" xmlns="http://www.w3.org/2000/svg"><g><path d="m502.127 57.444c-6.872-11.445-17.281-17.494-30.103-17.494-41.647 0-88.04 37.798-137.889 112.344-22.362 33.441-40.469 67.163-51.16 88.309-1.607-2.81-3.731-5.46-6.187-7.658 9.882-27.539 15.674-70.505 15.932-72.444.547-4.113-2.344-7.892-6.458-8.439-4.112-.548-7.892 2.343-8.44 6.457-.059.447-5.556 41.2-14.463 67.304-4.731-1.164-9.979-1.164-14.71 0-8.907-26.104-14.403-66.857-14.462-67.304-.547-4.113-4.327-7.005-8.44-6.457-4.114.547-7.005 4.326-6.458 8.439.258 1.939 6.05 44.905 15.932 72.444-2.453 2.196-4.575 4.842-6.182 7.648-6.15-12.174-14.741-28.487-25.159-46.452-29.354-50.616-58.455-89.578-86.494-115.804-3.032-2.835-7.786-2.677-10.622.355-2.835 3.031-2.676 7.786.355 10.621 60.731 56.805 112.043 164.72 118.187 177.924l.275 8.974c-22.176 5.262-58.999 14.005-103.605 24.613-19.14 4.553-37.126-11.793-48.844-26.305-20.332-25.181-38.834-65.724-49.493-108.454-10.577-42.4-11.487-79.023-2.436-97.965 4.278-8.951 10.245-13.121 18.781-13.121 13.788 0 28.822 5.441 44.683 16.172 3.438 2.326 8.109 1.424 10.435-2.013 2.325-3.437 1.424-8.109-2.013-10.435-18.39-12.443-36.257-18.753-53.102-18.753-14.384 0-25.567 7.494-32.342 21.67-10.666 22.323-10.151 61.717 1.415 108.082 11.162 44.746 30.743 87.459 52.382 114.258 17.406 21.557 35.826 32.685 53.842 32.684 3.408 0 6.804-.399 10.173-1.2 8.487-2.018 16.684-3.967 24.56-5.84-26.308 15.796-43.234 32.907-50.441 51.048-6.085 15.314-5.212 42.544 15.487 73.042 16.058 23.658 37.641 38.356 56.328 38.356 7.331 0 14.575-2.384 21.528-7.086 3.438-2.325 4.34-6.996 2.016-10.435-2.325-3.437-6.996-4.339-10.435-2.015-4.484 3.033-8.772 4.507-13.109 4.507-13.566 0-30.795-12.469-43.893-31.767-14.338-21.125-19.816-44.304-13.956-59.052 7.654-19.265 30.826-38.586 67.01-55.875 18.115-8.655 35.38-14.8 45.521-18.12l2.455 80.187c-1.736 6.028-11.089 37.059-25.924 60.019-2.252 3.486-1.252 8.137 2.233 10.39 1.261.815 2.674 1.204 4.071 1.204 2.465 0 4.88-1.212 6.318-3.437 5.656-8.753 10.521-18.428 14.544-27.594l.878 28.68c.423 13.791 11.561 24.593 25.358 24.593s24.936-10.803 25.357-24.593l.878-28.686c1.354 3.087 2.784 6.197 4.287 9.265 16.192 33.055 34.392 49.816 54.093 49.816 18.686 0 40.27-14.697 56.328-38.356 20.699-30.498 21.573-57.728 15.488-73.042-7.208-18.141-24.133-35.252-50.441-51.048 7.876 1.872 16.074 3.821 24.56 5.84 3.402.809 6.821 1.211 10.251 1.211 20.02 0 40.39-13.704 59.483-40.202 2.427-3.367 1.663-8.063-1.703-10.489-3.368-2.424-8.062-1.664-10.49 1.704-23.393 32.466-42.31 35.951-54.063 33.156-44.606-10.608-81.43-19.351-103.606-24.613l.275-8.973c4.02-8.652 27.359-57.885 59.927-106.589 46.228-69.129 89.589-105.669 125.396-105.669 7.568 0 13.04 3.242 17.219 10.202 8.581 14.292 10.095 42.39 4.151 77.087-5.889 34.383-18.294 71.053-34.032 100.607-1.95 3.663-.563 8.214 3.101 10.165 3.663 1.951 8.214.562 10.165-3.1 16.461-30.914 29.43-69.233 35.58-105.134 8.953-52.288.033-77.18-6.083-87.364zm-235.785 383.752c-.172 5.621-4.713 10.024-10.336 10.024-5.624 0-10.164-4.403-10.336-10.024l-5.655-184.732c-.509-21.555 32.495-21.54 31.982 0zm65.117-130.869c36.185 17.289 59.357 36.61 67.012 55.875 5.859 14.748.381 37.927-13.958 59.052-13.097 19.298-30.326 31.767-43.892 31.767-27.503 0-50.686-61.506-57.138-84.608l2.455-80.206c10.141 3.32 27.406 9.464 45.521 18.12z"/></g></svg>