<svg id="Capa_1" enable-background="new 0 0 512 512" height="512" viewBox="0 0 512 512" width="512" xmlns="http://www.w3.org/2000/svg"><g><g><path d="m410.384 124.765c-23.027 0-41.761-18.734-41.761-41.761 0-23.026 18.734-41.76 41.761-41.76s41.761 18.734 41.761 41.76c0 23.027-18.734 41.761-41.761 41.761zm0-68.492c-14.74 0-26.732 11.991-26.732 26.731s11.992 26.732 26.732 26.732 26.732-11.992 26.732-26.732-11.993-26.731-26.732-26.731z"/><path d="m410.384 29.144c-4.151 0-7.515-3.364-7.515-7.515v-14.114c0-4.151 3.364-7.515 7.515-7.515s7.515 3.364 7.515 7.515v14.115c-.001 4.15-3.365 7.514-7.515 7.514z"/><path d="m410.384 166.008c-4.151 0-7.515-3.364-7.515-7.515v-14.113c0-4.151 3.364-7.515 7.515-7.515s7.515 3.364 7.515 7.515v14.114c-.001 4.15-3.365 7.514-7.515 7.514z"/><path d="m485.873 90.519h-14.113c-4.151 0-7.515-3.364-7.515-7.515s3.364-7.515 7.515-7.515h14.113c4.151 0 7.515 3.364 7.515 7.515s-3.365 7.515-7.515 7.515z"/><path d="m349.008 90.519h-14.114c-4.151 0-7.515-3.364-7.515-7.515s3.364-7.515 7.515-7.515h14.114c4.151 0 7.515 3.364 7.515 7.515-.001 4.151-3.364 7.515-7.515 7.515z"/><path d="m453.783 47.12c-1.923 0-3.846-.734-5.313-2.201-2.935-2.934-2.935-7.693-.001-10.627l9.979-9.98c2.936-2.935 7.694-2.934 10.627-.001 2.936 2.934 2.936 7.693.001 10.627l-9.979 9.98c-1.468 1.469-3.391 2.202-5.314 2.202z"/><path d="m357.005 143.898c-1.923 0-3.846-.734-5.313-2.201-2.935-2.934-2.935-7.693-.001-10.627l9.979-9.98c2.935-2.935 7.694-2.934 10.627-.001 2.935 2.935 2.935 7.693.001 10.627l-9.979 9.98c-1.468 1.468-3.391 2.202-5.314 2.202z"/><path d="m463.762 143.898c-1.924 0-3.846-.734-5.314-2.202l-9.979-9.98c-2.934-2.934-2.934-7.693.001-10.627 2.934-2.934 7.693-2.933 10.627.001l9.979 9.98c2.935 2.934 2.935 7.693-.001 10.627-1.466 1.467-3.39 2.201-5.313 2.201z"/><path d="m366.984 47.12c-1.924 0-3.846-.734-5.314-2.201l-9.979-9.98c-2.934-2.934-2.934-7.693.001-10.627 2.934-2.934 7.693-2.933 10.627.001l9.979 9.98c2.935 2.935 2.935 7.693-.001 10.627-1.466 1.467-3.39 2.2-5.313 2.2z"/></g><path d="m455.579 361.598h-151.498c-4.151 0-7.515-3.364-7.515-7.515s3.364-7.515 7.515-7.515h151.498c4.151 0 7.515 3.364 7.515 7.515s-3.364 7.515-7.515 7.515z"/><path d="m455.579 445.674h-58.754c-4.151 0-7.515-3.364-7.515-7.515s3.364-7.515 7.515-7.515h58.754c4.151 0 7.515 3.364 7.515 7.515s-3.364 7.515-7.515 7.515z"/><path d="m348.583 445.674h-53.081c-4.151 0-7.515-3.364-7.515-7.515s3.364-7.515 7.515-7.515h53.081c4.151 0 7.515 3.364 7.515 7.515s-3.364 7.515-7.515 7.515z"/><path d="m379.831 403.636h-127.981c-4.151 0-7.515-3.364-7.515-7.515s3.364-7.515 7.515-7.515h127.98c4.151 0 7.515 3.364 7.515 7.515s-3.364 7.515-7.514 7.515z"/><path d="m456.731 403.636h-40.07c-4.151 0-7.515-3.364-7.515-7.515s3.364-7.515 7.515-7.515h40.07c4.151 0 7.515 3.364 7.515 7.515s-3.364 7.515-7.515 7.515z"/><path d="m261.145 361.598h-40.391c-4.151 0-7.515-3.364-7.515-7.515s3.364-7.515 7.515-7.515h40.391c4.151 0 7.515 3.364 7.515 7.515-.001 4.151-3.364 7.515-7.515 7.515z"/><path d="m511.991 299.31c-.038-2.29-1.202-4.493-3.035-5.856-.312-.231-31.645-23.365-68.659-45.773-3.548-2.15-8.171-1.014-10.32 2.537-2.149 3.55-1.014 8.17 2.537 10.32 18.757 11.355 36.015 22.89 48.392 31.441h-294.241c16.899-11.672 42.933-28.924 69.531-43.749l34.431 10.637c5.775 2.009 11.681-4.373 9.188-9.989-.303-.753-3.317-8.022-10.018-17.66 18.78-8.36 33.552-12.594 43.987-12.594 10.649 0 31.958 4.698 73.004 27.075 1.142.623 2.375.918 3.59.918 2.661 0 5.241-1.417 6.605-3.919 1.986-3.644.643-8.208-3.001-10.195-35.184-19.183-62.166-28.909-80.198-28.909-13.385 0-30.963 5.076-53.6 15.48-11.515-12.841-28.721-26.73-53.252-34.813l80.996-27.808c2.743-.941 4.699-3.377 5.026-6.258.328-2.881-1.031-5.694-3.492-7.227-1.798-1.12-44.66-27.226-99.244-8.484-2.887.991-5.666 2.066-8.347 3.208l56.846-72.88c1.783-2.286 2.092-5.394.794-7.987-1.276-2.546-3.879-4.149-6.718-4.149-.051 0-.103.001-.155.002-.886.018-21.974.585-46.446 13.004-3.702 1.879-5.179 6.401-3.301 10.102 1.879 3.702 6.404 5.18 10.102 3.301 8.021-4.07 15.656-6.689 22.062-8.372l-71.891 92.168c-1.111-5.771-2.701-11.811-4.911-18.001 3.826-13 10.028-25.06 18.464-35.874 4.014-5.147 8.472-9.924 13.25-14.2 3.093-2.767 3.357-7.518.589-10.611-2.767-3.094-7.519-3.358-10.611-.589-5.443 4.871-10.517 10.306-15.079 16.157-6.26 8.026-11.437 16.659-15.495 25.799-2.383-4.179-5.092-8.37-8.179-12.539-34.338-46.382-84.446-49.181-86.562-49.277-2.941-.136-5.611 1.414-6.974 3.973s-1.133 5.674.592 8.005l51.19 69.147c-53.693-15.2-94.279 11.271-96.01 12.426-2.412 1.61-3.683 4.463-3.266 7.333s2.448 5.243 5.218 6.099l89.868 27.762c2.054 9.753 8.404 17.938 16.969 22.485-11.024 17.313-24.331 41.302-36.069 71.004h-68.55c-.013 0-.026.002-.04.002-.02 0-.058-.001-.072-.001-4.139.015-7.486 3.375-7.486 7.514v204.99c0 4.151 3.364 7.515 7.515 7.515h140.535c4.151 0 7.515-3.364 7.515-7.515s-3.364-7.515-7.515-7.515h-133.021v-189.692c10.418.591 30.498 2.484 52.51 8.535-10.725 32.686-18.879 70.884-20.544 113.672-.241 6.193 1.992 12.064 6.288 16.529 4.29 4.46 10.059 6.916 16.245 6.916h20.11c12.277 0 22.173-9.593 22.531-21.84.961-32.955 5.175-62.816 11.037-89.21 5.102 3.862 9.747 8.007 13.864 12.397 17.525 18.693 26.421 34.147 35.025 49.093 8.879 15.424 17.265 29.991 33.729 45.296 20.411 18.973 63.529 36.546 97.398 48.304h-125.113c-4.151 0-7.515 3.364-7.515 7.515s3.364 7.515 7.515 7.515h326.377c4.151 0 7.515-3.364 7.515-7.515v-204.991c-.001-.062-.009-.123-.01-.184zm-235.349-60.494-68.329-21.108c.877-2.974 1.356-6.117 1.356-9.371 0-4.876-1.066-9.505-2.963-13.679 4.559.789 9.075 1.863 13.5 3.23 28.959 8.946 46.793 27.495 56.436 40.928zm-61.543-90.116c28.668-9.842 54.006-5.369 69.713-.201l-91.324 31.354c-5.866-3.572-13.371-5.325-20.539-4.513 9.641-9.831 23.382-20.197 42.15-26.64zm-38.619 41.479c10.013 0 18.16 8.146 18.16 18.158 0 10.013-8.147 18.159-18.16 18.159s-18.158-8.146-18.158-18.159c0-10.012 8.146-18.158 18.158-18.158zm-15.935 47.237c4.736 2.606 10.159 4.109 15.935 4.109 9.511 0 18.094-4.028 24.151-10.459l35.915 11.095c-35.558 20.852-67.714 43.86-75.92 49.819h-23.336c7.774-22.491 16.144-40.842 23.255-54.564zm-88.746-155.138c15.873 4.65 39.28 15.332 57.311 39.69 11.051 14.927 16.668 30.178 19.287 43.746-5.559-4.442-12.567-7.135-20.193-7.245zm23.911 100.625-67.558-20.87c15.482-5.671 40.636-10.942 69.771-1.94 3.783 1.169 7.49 2.57 11.115 4.14-6.423 4.391-11.225 10.978-13.328 18.67zm13.853 8.742c0-10.013 8.146-18.159 18.159-18.159s18.158 8.146 18.158 18.159-8.146 18.158-18.158 18.158c-10.014 0-18.159-8.145-18.159-18.158zm-12.418 239.008c-.118 4.065-3.417 7.249-7.508 7.249h-20.11c-4.158.091-7.768-3.683-7.515-7.832 3.753-96.436 41.651-168.749 65.607-205.239.034 0 .067.002.101.002 6.462 0 12.493-1.863 17.599-5.07.945 2.57 2.214 4.983 3.733 7.211-19.217 36.124-49.094 107.189-51.907 203.679zm399.826 66.318h-143.685c-10.553-2.961-106.047-30.325-137.231-59.312-14.803-13.76-22.28-26.748-30.936-41.786-8.611-14.958-18.369-31.91-37.086-51.875-6.089-6.495-13.155-12.493-21.033-17.895 1.715-6.614 3.52-12.987 5.391-19.094h364.58z"/></g></svg>