<svg id="Capa_1" enable-background="new 0 0 512 512" height="512" viewBox="0 0 512 512" width="512" xmlns="http://www.w3.org/2000/svg"><g><path d="m486.45 460.9h-37.61v-76.23c1.763.105 3.752.178 5.923.178 12.512 0 30.76-2.377 42.811-14.427 19.469-19.47 13.685-55.106 13.43-56.613-.534-3.15-3.002-5.617-6.152-6.152-.266-.045-1.614-.263-3.731-.483 15.171-19.974 10.121-51.124 9.883-52.531-.534-3.15-3.002-5.617-6.153-6.152-.266-.045-1.613-.263-3.73-.483 15.171-19.974 10.121-51.123 9.883-52.531-.534-3.15-3.002-5.617-6.152-6.152-.266-.045-1.614-.263-3.731-.483 14.152-18.633 10.71-46.989 9.989-51.857v-27.322c0-4.15-3.364-7.515-7.515-7.515s-7.515 3.365-7.515 7.515v19.629c-5.868-.296-14.015-.182-22.436 1.569 1.591-4.497 2.567-9.285 2.567-14.289 0-22.488-19.531-40.684-27.371-47.083v-24.224c0-4.15-3.364-7.515-7.515-7.515s-7.515 3.364-7.515 7.515v24.223c-7.84 6.399-27.371 24.595-27.371 47.083 0 5.004.976 9.791 2.566 14.288-8.421-1.751-16.567-1.864-22.435-1.568v-19.629c0-4.15-3.364-7.515-7.515-7.515s-7.515 3.365-7.515 7.515v27.322c-.721 4.868-4.163 33.224 9.989 51.857-2.118.22-3.465.438-3.731.483-3.15.535-5.617 3.002-6.152 6.152-.238 1.407-5.288 32.557 9.883 52.53-2.117.22-3.465.438-3.73.483-3.151.535-5.618 3.002-6.153 6.152-.238 1.407-5.288 32.558 9.883 52.531-2.118.22-3.465.438-3.732.483-3.15.535-5.617 3.002-6.152 6.152-.255 1.507-6.039 37.143 13.43 56.613 2.935 2.934 7.693 2.934 10.628 0 2.934-2.934 2.934-7.693 0-10.627-7.043-7.043-9.227-18.169-9.818-26.263-.327-4.48-.215-8.573-.007-11.642 3.072-.209 7.164-.32 11.643.007 8.094.592 19.22 2.775 26.263 9.818 7.042 7.043 9.226 18.169 9.817 26.262.327 4.481.215 8.573.007 11.642-3.743.254-9.004.363-14.639-.288-4.125-.482-7.851 2.478-8.329 6.601s2.478 7.851 6.601 8.328c3.744.433 7.325.589 10.538.589 2.21 0 4.236-.075 6.029-.182v76.236h-170.293v-113.979c1.763.105 3.753.177 5.924.177 12.512 0 30.759-2.376 42.81-14.427 19.469-19.469 13.685-55.106 13.43-56.613-.534-3.15-3.002-5.617-6.152-6.152-.266-.045-1.614-.263-3.731-.483 15.171-19.974 10.122-51.124 9.883-52.531-.534-3.15-3.002-5.617-6.153-6.152-.266-.045-1.613-.263-3.73-.483 15.171-19.973 10.121-51.123 9.883-52.531-.534-3.15-3.002-5.617-6.153-6.152-.266-.045-1.613-.263-3.73-.483 14.152-18.633 10.709-46.989 9.989-51.856v-27.324c0-4.15-3.364-7.515-7.515-7.515s-7.515 3.365-7.515 7.515v19.63c-5.869-.296-14.015-.183-22.435 1.568 1.591-4.497 2.566-9.284 2.566-14.288 0-22.488-19.531-40.684-27.371-47.082v-24.224c0-4.15-3.364-7.515-7.515-7.515s-7.515 3.365-7.515 7.515v24.224c-7.84 6.399-27.371 24.595-27.371 47.082 0 5.004.976 9.792 2.566 14.288-8.421-1.751-16.567-1.864-22.435-1.568v-19.63c0-4.15-3.364-7.515-7.515-7.515s-7.515 3.365-7.515 7.515v27.323c-.721 4.868-4.163 33.224 9.989 51.856-2.118.22-3.465.438-3.73.483-3.151.535-5.618 3.002-6.153 6.152-.238 1.407-5.288 32.557 9.883 52.531-2.117.22-3.464.438-3.73.483-3.151.535-5.618 3.002-6.153 6.152-.238 1.407-5.288 32.557 9.883 52.531-2.118.22-3.465.438-3.731.483-3.15.535-5.617 3.002-6.152 6.152-.255 1.507-6.039 37.144 13.43 56.613h.001c12.052 12.049 30.299 14.427 42.809 14.427 2.171 0 4.16-.073 5.924-.178v113.981h-170.295v-76.23c1.763.105 3.752.178 5.923.178 12.512 0 30.76-2.377 42.811-14.427 19.469-19.47 13.685-55.106 13.429-56.613-.534-3.15-3.002-5.617-6.152-6.152-.266-.045-1.614-.263-3.731-.483 15.171-19.974 10.122-51.124 9.883-52.531-.534-3.15-3.002-5.617-6.153-6.152-.266-.045-1.613-.263-3.73-.483 15.171-19.973 10.121-51.123 9.883-52.531-.534-3.15-3.002-5.617-6.152-6.152-.266-.045-1.614-.263-3.731-.483 14.152-18.633 10.71-46.989 9.989-51.857v-27.322c0-4.15-3.364-7.515-7.515-7.515s-7.515 3.365-7.515 7.515v19.629c-5.868-.296-14.015-.182-22.435 1.569 1.591-4.497 2.567-9.285 2.567-14.289 0-22.488-19.531-40.684-27.371-47.083v-24.224c0-4.15-3.364-7.515-7.515-7.515s-7.515 3.364-7.515 7.515v24.223c-7.84 6.399-27.37 24.595-27.37 47.083 0 5.004.976 9.791 2.566 14.288-8.421-1.751-16.567-1.864-22.435-1.568v-19.629c0-4.15-3.364-7.515-7.515-7.515s-7.515 3.365-7.515 7.515v27.322c-.721 4.868-4.163 33.224 9.989 51.857-2.118.22-3.465.438-3.731.483-3.15.535-5.617 3.002-6.152 6.152-.238 1.407-5.288 32.557 9.883 52.53-2.117.22-3.464.438-3.73.483-3.151.535-5.618 3.002-6.153 6.152-.238 1.407-5.288 32.558 9.883 52.531-2.118.22-3.465.438-3.732.483-3.15.535-5.617 3.002-6.152 6.152-.255 1.507-6.039 37.143 13.43 56.613 2.935 2.934 7.693 2.934 10.628 0 2.934-2.934 2.934-7.693 0-10.627-7.043-7.043-9.227-18.169-9.818-26.263-.327-4.48-.215-8.573-.007-11.642 3.072-.209 7.164-.32 11.643.007 8.094.592 19.22 2.775 26.263 9.818 7.042 7.043 9.226 18.169 9.817 26.262.327 4.481.215 8.573.007 11.642-3.736.253-8.99.363-14.614-.285-4.124-.477-7.851 2.481-8.326 6.604-.476 4.123 2.481 7.851 6.604 8.326 3.733.431 7.304.585 10.509.585 2.21 0 4.236-.075 6.028-.182v76.236h-37.61c-14.088 0-25.55 11.462-25.55 25.55s11.462 25.55 25.55 25.55h127.942c4.151 0 7.515-3.364 7.515-7.515s-3.364-7.515-7.515-7.515h-127.942c-5.801 0-10.521-4.72-10.521-10.521s4.719-10.521 10.521-10.521h460.9c5.801 0 10.521 4.72 10.521 10.521s-4.719 10.521-10.521 10.521h-302.899c-4.151 0-7.515 3.365-7.515 7.515s3.364 7.515 7.515 7.515h302.899c14.088 0 25.55-11.462 25.55-25.55s-11.462-25.55-25.55-25.55zm.495-160.273c-7.042 7.043-18.168 9.226-26.262 9.818-4.501.328-8.612.215-11.686.004-.656-12.665.526-28.192 9.867-37.902 7.043-7.043 18.169-9.226 26.263-9.817 4.504-.329 8.612-.215 11.686-.004.725 10.508-.258 28.294-9.867 37.902-.001-.001-.001-.001-.001-.001zm-26.262-49.349c-4.504.329-8.613.215-11.686.004-.656-12.665.526-28.193 9.868-37.902 7.042-7.042 18.168-9.226 26.262-9.817 4.5-.329 8.612-.215 11.686-.004.725 10.508-.258 28.294-9.867 37.902-7.043 7.043-18.169 9.226-26.263 9.817zm-74.803-47.722c3.072-.208 7.164-.32 11.643.007 8.094.591 19.22 2.775 26.263 9.817 9.791 10.369 10.43 25.843 9.824 37.905-3.07.208-7.165.32-11.643-.007-8.094-.591-19.22-2.775-26.263-9.817-7.042-7.043-9.226-18.169-9.817-26.262-.327-4.481-.216-8.574-.007-11.643zm0 59.166c3.069-.208 7.164-.32 11.643.007 8.094.591 19.22 2.774 26.262 9.817 7.043 7.043 9.227 18.169 9.818 26.263.327 4.48.215 8.573.007 11.642-3.07.209-7.163.321-11.643-.007-8.094-.591-19.22-2.775-26.262-9.818 0 0 0 0-.001 0-7.042-7.043-9.226-18.169-9.817-26.262-.327-4.48-.216-8.573-.007-11.642zm101.065 97.072c-7.042 7.042-18.169 9.226-26.262 9.817-4.504.329-8.613.215-11.686.004-.656-12.665.526-28.192 9.868-37.902 7.042-7.042 18.168-9.226 26.262-9.818 4.5-.33 8.612-.215 11.686-.004.725 10.508-.258 28.293-9.868 37.903zm9.825-215.404c.208 3.07.32 7.163-.007 11.643-.591 8.093-2.775 19.22-9.818 26.263-7.042 7.042-18.169 9.226-26.262 9.817-4.504.329-8.613.215-11.686.004-.656-12.665.526-28.193 9.868-37.902 7.042-7.043 18.169-9.226 26.262-9.818 4.482-.327 8.573-.215 11.643-.007zm-63.673-53.333c2.951-3.416 5.938-6.241 8.26-8.266 7.943 6.918 19.824 20.19 19.824 33.779-.407 14.266-10.923 25.68-19.888 33.778-9.443-8.45-19.608-20.464-19.824-33.778 0-9.96 6.324-19.371 11.628-25.513zm-35.575 53.34c8.093.591 19.22 2.775 26.263 9.818 9.791 10.369 10.43 25.843 9.824 37.905-3.07.208-7.165.32-11.643-.007-8.094-.591-19.22-2.774-26.263-9.817h.001c-7.042-7.043-9.227-18.17-9.818-26.263-.327-4.48-.215-8.574-.007-11.643 3.071-.208 7.163-.32 11.643.007zm-196.96 92.219c-.327-4.481-.215-8.574-.007-11.643 3.07-.208 7.162-.32 11.643.007 8.093.592 19.22 2.775 26.263 9.818 9.791 10.369 10.43 25.843 9.824 37.905-3.07.208-7.165.32-11.643-.007-8.094-.591-19.22-2.775-26.263-9.817h.001c-7.042-7.044-9.227-18.171-9.818-26.263zm101.058 26.262c-7.042 7.042-18.169 9.226-26.262 9.817-4.504.329-8.612.214-11.686.004-.656-12.665.526-28.193 9.868-37.902 7.042-7.043 18.169-9.226 26.262-9.818 4.482-.327 8.572-.216 11.643-.007.208 3.07.32 7.163-.007 11.643-.591 8.094-2.775 19.22-9.818 26.263zm0-59.166c-7.042 7.043-18.168 9.226-26.262 9.818-4.501.329-8.612.215-11.686.004-.656-12.665.526-28.192 9.867-37.902 7.043-7.042 18.169-9.226 26.263-9.817 4.504-.329 8.612-.214 11.686-.004.725 10.507-.258 28.292-9.868 37.901zm-101.065-37.905c3.07-.208 7.165-.32 11.643.007 8.094.591 19.22 2.775 26.262 9.817 9.792 10.37 10.431 25.842 9.825 37.905-3.07.209-7.163.321-11.643-.007-8.094-.591-19.22-2.775-26.262-9.818 0 0 0 0-.001 0-7.042-7.042-9.226-18.169-9.817-26.262-.327-4.48-.216-8.573-.007-11.642zm101.066 156.237c-.001 0-.001 0 0 0-7.043 7.043-18.169 9.226-26.263 9.818-4.501.328-8.612.215-11.686.004-.656-12.665.526-28.193 9.868-37.902 7.042-7.043 18.168-9.226 26.262-9.818 4.5-.329 8.612-.215 11.686-.004.725 10.508-.258 28.293-9.867 37.902zm9.867-215.4c.725 10.508-.258 28.293-9.868 37.902-7.042 7.042-18.169 9.226-26.262 9.817-4.504.329-8.612.214-11.686.004-.656-12.665.526-28.193 9.868-37.902 7.042-7.043 18.168-9.226 26.262-9.818 4.5-.328 8.612-.214 11.686-.003zm-63.716-53.336c2.951-3.416 5.938-6.241 8.26-8.266 7.943 6.918 19.824 20.19 19.824 33.778-.407 14.266-10.924 25.68-19.889 33.778-9.442-8.45-19.608-20.464-19.824-33.778.001-9.959 6.325-19.37 11.629-25.512zm-35.574 53.34c8.094.591 19.22 2.775 26.263 9.818 9.791 10.369 10.43 25.843 9.824 37.905-3.07.208-7.165.32-11.643-.007-8.094-.591-19.22-2.774-26.263-9.817h.001c-7.042-7.043-9.227-18.17-9.818-26.263-.327-4.48-.215-8.573-.007-11.642 3.071-.21 7.165-.321 11.643.006zm36.087 225.22c-3.07.209-7.163.321-11.643-.007-8.094-.591-19.22-2.775-26.262-9.818 0 0 0 0-.001 0-7.042-7.043-9.226-18.169-9.817-26.262-.327-4.481-.215-8.574-.007-11.643 3.071-.209 7.165-.32 11.643.007 8.094.591 19.22 2.775 26.263 9.818 7.042 7.043 9.226 18.169 9.817 26.262.327 4.482.215 8.574.007 11.643zm-131.989-31.241c-7.042 7.043-18.168 9.226-26.262 9.818-4.501.328-8.612.215-11.686.004-.656-12.665.526-28.192 9.867-37.902 7.043-7.043 18.169-9.226 26.263-9.817 4.504-.329 8.611-.215 11.686-.004.724 10.507-.259 28.293-9.868 37.901zm-26.263-49.349c-4.504.329-8.613.215-11.686.004-.656-12.665.526-28.193 9.868-37.902 7.042-7.042 18.168-9.226 26.262-9.817 4.5-.329 8.611-.215 11.686-.004.725 10.508-.258 28.294-9.867 37.902-7.043 7.043-18.169 9.226-26.263 9.817zm-74.803-47.722c3.072-.208 7.164-.32 11.643.007 8.094.591 19.22 2.775 26.263 9.817 7.042 7.043 9.226 18.169 9.817 26.262.327 4.481.215 8.574.007 11.643-3.069.208-7.164.32-11.643-.007-8.094-.591-19.22-2.775-26.263-9.817-7.042-7.043-9.226-18.169-9.817-26.262-.327-4.481-.216-8.574-.007-11.643zm0 59.166c3.069-.208 7.165-.32 11.643.007 8.094.591 19.22 2.774 26.262 9.817 7.043 7.043 9.227 18.169 9.818 26.263.327 4.48.215 8.573.007 11.642-3.071.209-7.162.321-11.643-.007-8.094-.591-19.22-2.775-26.262-9.818 0 0 0 0-.001 0-7.042-7.043-9.226-18.169-9.817-26.262-.327-4.48-.216-8.573-.007-11.642zm101.066 97.072c-10.375 9.799-25.884 10.434-37.948 9.821-.656-12.665.526-28.192 9.868-37.902 7.042-7.042 18.168-9.226 26.262-9.818 4.5-.33 8.611-.215 11.686-.004.724 10.508-.259 28.293-9.868 37.903zm9.824-215.404c.208 3.07.32 7.163-.007 11.643-.591 8.093-2.775 19.22-9.818 26.263-7.042 7.042-18.169 9.226-26.262 9.817-4.504.329-8.613.215-11.686.004-.656-12.665.526-28.193 9.868-37.902 7.042-7.043 18.169-9.226 26.262-9.818 4.482-.327 8.573-.215 11.643-.007zm-63.673-53.333c2.951-3.416 5.938-6.241 8.26-8.266 7.943 6.918 19.824 20.19 19.824 33.779-.407 14.266-10.924 25.68-19.888 33.778-9.442-8.45-19.608-20.464-19.824-33.778 0-9.96 6.324-19.371 11.628-25.513zm-35.574 53.34c8.093.591 19.22 2.775 26.263 9.818 7.042 7.042 9.226 18.169 9.817 26.262.327 4.481.215 8.574.007 11.643-3.069.208-7.164.32-11.643-.007-8.094-.591-19.22-2.774-26.263-9.817h.001c-7.042-7.043-9.227-18.17-9.818-26.263-.327-4.48-.215-8.574-.007-11.643 3.07-.208 7.162-.32 11.643.007z"/></g></svg>