<svg id="Capa_1" enable-background="new 0 0 512 512" height="512" viewBox="0 0 512 512" width="512" xmlns="http://www.w3.org/2000/svg"><g><path d="m404.996 350.625c-64.896 31.229-145.16 40.793-145.963 40.886-3.355.388-6.041 2.967-6.563 6.304-7.326 46.867-46.294 76.418-69.927 90.307 8.644-22.724 19.04-61.757 9.003-101.296-10.506-41.388-42.844-70.893-62.748-85.696 10.497-1.11 20.715-1.013 30.54.297 4.111.548 7.894-2.341 8.443-6.455.549-4.113-2.341-7.893-6.456-8.442-17.221-2.297-35.423-1.278-54.101 3.028-3.021.696-5.301 3.178-5.746 6.245-.445 3.068 1.042 6.095 3.74 7.621.58.328 58.133 33.418 71.759 87.099 13.744 54.141-16.237 109.79-16.538 110.34-1.529 2.78-1.148 6.22.953 8.598 1.457 1.648 3.521 2.539 5.633 2.539.935 0 1.878-.175 2.783-.535.873-.348 21.641-8.732 44.036-26.46 28.252-22.364 46.294-49.674 52.459-79.283 19.7-2.735 87.255-13.665 145.211-41.554 3.74-1.8 5.313-6.291 3.513-10.03-1.8-3.741-6.291-5.312-10.031-3.513z"/><path d="m510.085 208.36c-6.688-34.826-31.222-68.579-73.002-100.569-12.43-21.35-16.05-43.77-10.715-66.663 4.117-17.667 12.289-29.071 12.359-29.167 1.676-2.283 1.926-5.315.646-7.842-1.28-2.527-3.872-4.119-6.705-4.119-32.741 0-64.361 2.27-93.983 6.745-4.104.62-6.928 4.45-6.308 8.553s4.447 6.926 8.554 6.308c24.948-3.77 51.379-5.934 78.736-6.454-2.709 5.642-5.662 13.071-7.777 21.884-3.273 13.643-4.919 32.648 1.553 54.07-37.434-24.384-83.3-42.63-132.886-52.795-2.446-.501-4.893-.969-7.341-1.428 12.118-3.778 24.981-7.128 38.521-9.999 4.06-.861 6.654-4.85 5.793-8.91-.861-4.059-4.853-6.653-8.911-5.792-24.555 5.207-47.075 11.932-66.988 19.991-33.047-3.694-65.138-3.37-93.049 1.139-73.153 11.817-118.521 48.108-139.053 68.689-11.458 11.485-12.729 29.77-3.02 42.669.03.043.063.086.094.129.033.043.063.088.096.132 20.21 26.302 65.574 72.6 142.321 87.152 26.71 5.064 51.278 6.884 73.305 7.478l58.294 42.261c3.97 3.037 10.231.942 11.588-3.854.058-.186 5.595-17.68 17.972-36.539 13.039 1.913 23.407 5.775 30.919 13.443 7.792 7.954 11.114 16.542 9.919 25.579l-70.637 23.968c-3.65 1.239-5.772 5.039-4.91 8.796l6.261 27.29c-7.322 2.976-15.075 5.737-23.209 8.227-7.677-11.606-29.141-39.474-66.243-54.155-3.858-1.528-8.226.363-9.753 4.222s.363 8.226 4.223 9.753c41.415 16.388 61.616 52.277 61.809 52.626 1.684 3.1 5.349 4.578 8.657 3.616 58.243-16.646 99.474-46.074 107.604-76.801 4.141-15.651-.348-30.741-12.983-43.637-19.861-20.273-51.441-20-91.429-19.658-25.411.22-56.155.466-90.785-4.45 13.897-18.801 23.374-40.625 27.961-64.401l59.815 21.57c2.509.905 5.122 1.349 7.722 1.349 4.624 0 9.206-1.406 13.082-4.129 6.005-4.218 9.591-11.102 9.591-18.414v-21.876c0-12.431-10.169-22.544-22.668-22.544h-65.087c-2.722-27.718-13.755-49.965-25.475-66.335 31.787-2.27 67.497.295 102.979 7.569 48.731 9.99 93.651 28 129.904 52.083 51.346 34.11 80.913 69.799 87.881 106.077 5.369 27.953-2.535 57.493-23.491 87.801-9.336 13.502-23.215 26.135-41.25 37.549-3.507 2.22-4.551 6.862-2.331 10.369s6.862 4.552 10.37 2.331c19.75-12.5 35.083-26.53 45.574-41.702 23.334-33.752 32.044-67.122 25.886-99.185zm-214.359 125.933-4.089-17.825 51.1-17.339c-9.295 12.625-25.694 24.844-47.011 35.164zm-95.331-200.428c.154-2.381.232-4.721.264-7.036h64.464c4.211 0 7.638 3.371 7.638 7.515v21.876c0 2.459-1.166 4.687-3.199 6.116-2.085 1.465-4.66 1.808-7.066.94l-62.672-22.6c.232-2.256.423-4.526.571-6.811zm60.139 105.859c12.029-.102 22.993-.194 32.853.23-5.504 9.273-9.426 17.771-11.948 23.896l-33.161-24.04c4.206-.018 8.298-.052 12.256-.086zm-75.138-106.83c-2.117 32.678-13.127 61.101-32.695 84.579-.295-.055-.584-.101-.88-.157-51.917-9.844-88.474-35.187-111.899-57.776 12.878 3.887 29.686 7.658 50.392 9.662.247.023.491.035.733.035 3.824 0 7.095-2.907 7.472-6.791.4-4.131-2.625-7.804-6.757-8.204-43.056-4.168-68.23-16.527-73.933-19.602-4.46-6.871-3.558-16.109 2.343-22.024 19.247-19.295 61.835-53.326 130.808-64.468 1.989-.321 4.011-.609 6.044-.886 14.903 18.279 30.861 47.208 28.372 85.632z"/><path d="m91.037 98.38c-4.151 0-7.515 3.364-7.515 7.515v6.902c0 4.15 3.365 7.515 7.515 7.515 4.151 0 7.515-3.365 7.515-7.515v-6.902c0-4.151-3.364-7.515-7.515-7.515z"/></g></svg>