<svg id="Capa_1" enable-background="new 0 0 512 512" height="512" viewBox="0 0 512 512" width="512" xmlns="http://www.w3.org/2000/svg"><g><path d="m454.8 274.457c-.944 0-1.904-.179-2.833-.557-3.843-1.566-5.69-5.951-4.124-9.794 12.817-31.465 20.609-67.849 23.159-108.142 3.219-50.867 18.301-116.21 24.027-139.626-14.784-.931-47.045-2.309-87.03-.12-50.515 2.764-124.064 11.95-187.58 40.009-3.796 1.679-8.233-.041-9.91-3.837-1.677-3.795.041-8.233 3.837-9.91 65.674-29.013 141.259-38.464 193.102-41.284 56.05-3.045 96.073.667 97.75.827 2.19.208 4.179 1.366 5.442 3.168s1.672 4.066 1.12 6.196c-.219.845-21.943 85.224-25.759 145.526-2.653 41.918-10.808 79.89-24.24 112.862-1.187 2.916-3.996 4.682-6.961 4.682z"/><path d="m445.321 287.893c-3.634-2.008-8.205-.687-10.211 2.946-29.119 52.745-75.499 88.962-137.851 107.644-34.458 10.324-56.089 8.162-83.473 5.427-24.559-2.454-52.009-5.189-94.786-.125 19.01-23.868 41.252-50.888 66.558-80.195 84.884-24.284 159.55.271 160.3.523.798.27 1.609.398 2.408.398 3.131 0 6.054-1.974 7.116-5.104 1.333-3.93-.773-8.196-4.704-9.529-2.977-1.01-67.903-22.467-147.959-5.972 20.378-23.149 42.538-47.532 66.391-72.757 60.067-18.132 114.009-1.526 114.723-1.3 3.953 1.257 8.178-.92 9.441-4.872 1.263-3.953-.917-8.182-4.87-9.445-2.102-.672-45.772-14.265-100.156-4.416 18.159-18.82 37.222-38.039 57.167-57.512 41.342-13.465 82.979-2.051 83.4-1.931 3.991 1.126 8.14-1.191 9.272-5.181 1.133-3.992-1.185-8.146-5.178-9.28-1.537-.437-31.123-8.614-66.704-3.694 20.939-20.005 42.781-40.216 65.496-60.474 3.664-3.268 4.116-8.624 1.052-12.457-3.061-3.831-8.377-4.569-12.368-1.718-15.356 10.968-38.917 28.414-68.252 52.051 5.852-26.734 2.979-55.742 2.805-57.421-.429-4.127-4.13-7.129-8.25-6.698-4.128.429-7.127 4.122-6.699 8.25.014.129 1.338 13.181.463 29.295-1.097 20.201-5.122 35.958-11.639 45.69-18.419 15.35-38.538 32.719-59.911 52.062 11.483-43.879 3.429-92.901 2.99-95.488-.695-4.09-4.574-6.845-8.664-6.148-4.091.693-6.845 4.571-6.154 8.662.032.189 3.183 19.131 2.87 43.205-.28 21.497-3.452 51.582-16.858 73.539-22.595 21.173-44.675 42.827-66.213 64.915 6.183-20.018 9.758-42.953 10.649-68.657 1.189-34.291-2.98-60.362-3.158-61.455-.667-4.095-4.529-6.876-8.622-6.207-4.095.665-6.876 4.525-6.212 8.621.042.255 4.131 25.946 2.961 58.819-1.909 53.652-16.101 85.385-27.809 102.661-18.795 20.177-37.147 40.682-55.011 61.502.445-11.642-.063-26.873-3.079-45.133-5.352-32.398-9.644-71.086-.9-112.381 11.072-52.289 41.041-95.159 89.073-127.418 6.118-4.108 12.622-8.089 19.331-11.831 3.625-2.021 4.925-6.598 2.903-10.223-2.021-3.624-6.598-4.925-10.223-2.902-7.07 3.942-13.931 8.142-20.391 12.481-51.39 34.514-83.486 80.534-95.396 136.78-9.261 43.735-4.806 84.165.774 117.945 5.7 34.503 1.751 57.408.506 63.247-23.31 27.919-45.768 56.361-67.301 85.266-4.037 5.419-5.696 12.087-4.671 18.773 1.027 6.701 4.615 12.58 10.105 16.553 4.333 3.136 9.422 4.776 14.66 4.776 1.402 0 2.815-.117 4.226-.355 6.684-1.126 12.506-4.805 16.392-10.361 3.939-5.628 8.183-11.594 12.615-17.73 2.43-3.364 1.672-8.062-1.692-10.491-3.365-2.431-8.063-1.672-10.492 1.693-4.476 6.197-8.764 12.223-12.745 17.912-1.56 2.229-3.894 3.705-6.574 4.156-2.681.456-5.373-.178-7.58-1.776-2.206-1.597-3.649-3.961-4.062-6.655-.411-2.681.253-5.351 1.868-7.519 72.337-97.107 155.13-188.993 246.078-273.104 21.099-19.513 41.131-37.197 59.693-53.012-123.642 122.246-212.26 233.367-258.808 295.684-2.484 3.325-1.801 8.034 1.524 10.517 3.326 2.484 8.034 1.802 10.517-1.523 8.472-11.342 18.355-24.32 29.587-38.684 50.112-7.531 80.141-4.54 106.682-1.889 27.89 2.787 51.975 5.193 89.281-5.984 66.252-19.851 115.608-58.467 146.695-114.777 2.006-3.633.687-8.204-2.946-10.209z"/></g></svg>