<svg id="Capa_1" enable-background="new 0 0 512 512" height="512" viewBox="0 0 512 512" width="512" xmlns="http://www.w3.org/2000/svg"><g><path d="m305.841 429.664c0 4.151 3.364 7.515 7.515 7.515h145.666c4.151 0 7.515-3.364 7.515-7.515s-3.364-7.515-7.515-7.515h-145.666c-4.15.001-7.515 3.365-7.515 7.515z"/><path d="m459.022 457.865h-84.668c-4.151 0-7.515 3.364-7.515 7.515s3.364 7.515 7.515 7.515h84.668c4.151 0 7.515-3.364 7.515-7.515s-3.364-7.515-7.515-7.515z"/><path d="m511.282 129.915-34.949-74.103c-1.17-2.482-3.601-4.129-6.341-4.295-2.735-.16-5.352 1.174-6.814 3.496l-73.58 116.807-51.613-55.646c-1.414-1.523-3.394-2.394-5.473-2.404-.013 0-.025 0-.037 0-2.065 0-4.039.85-5.459 2.35l-31.864 33.686c-.316.335-.601.697-.85 1.082l-39.447 60.963-39.197 32.962c-.814.685-1.473 1.534-1.934 2.493l-65.322 135.738h-6.013c-5.352-1.494-10.748-2.916-16.194-4.256v-37.454h13.914c4.909 0 9.496-2.189 12.584-6.006 3.088-3.816 4.271-8.758 3.247-13.558l-28.626-134.252c-1.633-7.663-7.995-12.813-15.832-12.813-7.836 0-14.198 5.15-15.831 12.812l-7.074 33.178-11.868-55.656c-1.77-8.3-8.661-13.877-17.149-13.877-8.486 0-15.378 5.576-17.148 13.877l-8.661 40.617c-.866 4.06 1.723 8.051 5.782 8.917 4.057.864 8.052-1.723 8.917-5.782l8.661-40.617c.281-1.315 1.105-1.981 2.449-1.981 1.345 0 2.169.666 2.45 1.982l33.073 155.103c.216 1.018-.222 1.753-.503 2.1-.281.346-.907.929-1.947.929h-66.147c-1.04 0-1.666-.582-1.947-.929s-.719-1.082-.503-2.099l18.125-85c.866-4.06-1.723-8.052-5.782-8.917-4.057-.86-8.052 1.723-8.917 5.782l-18.124 85c-1.109 5.201.174 10.554 3.519 14.688 3.344 4.133 8.312 6.503 13.629 6.503h25.559v24.445c-26.681-2.809-43.511-2.499-44.7-2.469-4.083.092-7.345 3.429-7.345 7.513v133.661c0 4.151 3.364 7.515 7.515 7.515h168.965c4.151 0 7.515-3.364 7.515-7.515s-3.364-7.515-7.515-7.515h-161.451v-118.573c16.098.377 57.052 2.603 107.086 14.86 37.775 9.254 73.27 22.333 105.5 38.876 34.525 17.721 65.373 39.487 91.922 64.838h-112.998c-4.151 0-7.515 3.364-7.515 7.515s3.364 7.515 7.515 7.515h297.946c4.151 0 7.515-3.364 7.515-7.515v-371.366c0-1.108-.246-2.203-.718-3.205zm-400.118 245.393c-16.072-3.484-30.932-5.965-44.09-7.728v-26.245h44.09zm-1.185-49.003c.29-2.022.241-4.103-.198-6.162l-13.522-63.414 14.09-66.077c.078-.365.196-.917 1.132-.917.937 0 1.055.552 1.133.918l28.626 134.254c.076.358-.002.684-.232.969-.231.285-.533.43-.9.43h-30.129zm196.565-166.672 25.877-27.356 45.008 48.525-23.353 8.174c-6.585-2.122-9.72-6.178-13.288-10.818-3.786-4.922-8.075-10.501-16.215-12.312-11.963-2.663-18.804 5.517-24.3 12.089-3.002 3.588-6.106 7.297-10.098 9.864-.447.287-1.255.7-2.568 1.105zm-79.978 95.644 38.823-32.647c.57-.48 1.068-1.043 1.473-1.669l10.158-15.699c9.441-.121 16.435-1.705 21.282-4.823 5.921-3.806 10.121-8.828 13.497-12.863 5.444-6.509 6.956-7.63 9.507-7.063 2.692.6 4.445 2.746 7.566 6.804 3.378 4.392 7.712 10.013 15.367 13.838l-21.327 48.751-34.36 20.615c-1.484.891-2.616 2.266-3.203 3.894l-39.179 108.629h-81.092zm270.405 127.767h-76.171c-4.151 0-7.515 3.364-7.515 7.515s3.364 7.515 7.515 7.515h76.17v98.897h-156.158c-30.007-31.101-65.839-57.456-106.587-78.339-14.775-7.572-30.207-14.433-46.203-20.559h202.72c4.151 0 7.515-3.364 7.515-7.515s-3.364-7.515-7.515-7.515h-128.595l36.432-101.011 34.121-20.473c1.339-.803 2.393-2.003 3.019-3.432l24.179-55.267 33.327-11.664c1.604-.562 2.971-1.65 3.876-3.088l25.324-40.202c3.882 13.321 8.376 28.235 23.853 28.235 9.32 0 14.753-7.628 19.117-13.757 2.338-3.284 5.203-7.307 7.314-7.911 1.478 1.525 3.642 6.524 5.11 9.919 3.813 8.816 8.791 20.302 19.153 24.111v194.541zm0-213.868c-1.498-2.412-3.237-5.846-5.358-10.751-3.865-8.933-8.245-19.059-18.388-19.059-9.89 0-15.536 7.929-20.072 14.299-1.983 2.785-5.303 7.446-6.875 7.446-2.958 0-4.863-1.756-9.537-17.799-1.095-3.761-2.308-7.912-3.798-12.103l35.646-56.588 28.384 60.181v34.374z"/><path d="m124.89 140.475h64.55c18.025 0 32.691-14.665 32.691-32.691s-14.665-32.692-32.691-32.692c-1.874 0-3.725.156-5.544.469-5.589-11.622-17.531-19.45-30.855-19.45-15.657 0-29.053 10.661-33.011 25.26-14.1 2.327-24.889 14.604-24.889 29.353 0 16.405 13.345 29.751 29.749 29.751zm0-44.471c.338 0 .671.018 1.003.04 1.997.147 3.961-.521 5.467-1.836 1.505-1.315 2.425-3.175 2.556-5.169.657-10.036 9.058-17.898 19.125-17.898 9.021 0 16.912 6.395 18.762 15.207.467 2.225 1.916 4.118 3.942 5.152 2.024 1.032 4.41 1.092 6.484.162 2.281-1.021 4.706-1.54 7.21-1.54 9.739 0 17.661 7.924 17.661 17.662 0 9.739-7.923 17.661-17.661 17.661h-64.55c-8.116 0-14.72-6.604-14.72-14.721.001-8.116 6.605-14.72 14.721-14.72z"/><path d="m288.241 84.364h64.55c18.025 0 32.691-14.665 32.691-32.691s-14.665-32.692-32.691-32.692c-1.874 0-3.725.157-5.544.469-5.589-11.622-17.532-19.45-30.856-19.45-15.657 0-29.054 10.66-33.012 25.26-14.1 2.327-24.889 14.604-24.889 29.353 0 16.405 13.347 29.751 29.751 29.751zm0-44.472c.342 0 .681.018 1.018.04 1.993.131 3.955-.528 5.457-1.841 1.503-1.315 2.42-3.173 2.551-5.164.657-10.036 9.058-17.897 19.125-17.897 9.022 0 16.912 6.395 18.762 15.207.467 2.225 1.916 4.118 3.942 5.152 2.025 1.032 4.41 1.093 6.484.162 2.281-1.021 4.707-1.54 7.21-1.54 9.739 0 17.661 7.924 17.661 17.662 0 9.739-7.923 17.661-17.661 17.661h-64.55c-8.117 0-14.721-6.604-14.721-14.721s6.604-14.721 14.722-14.721z"/></g></svg>