<svg id="Capa_1" enable-background="new 0 0 512.001 512.001" height="512" viewBox="0 0 512.001 512.001" width="512" xmlns="http://www.w3.org/2000/svg"><g><path d="m481.972 497.84-117.839-61.02c-11.636-6.028-24.125-9.908-37.119-11.532l-46.939-5.87c-11.014-1.379-21.591-4.62-31.443-9.634l-46.128-23.444h61.03c24.433 0 44.31-19.882 44.31-44.32v-96.91-115.28c0-3.542 1.383-6.876 3.893-9.387 2.504-2.504 5.838-3.883 9.387-3.883 7.317 0 13.27 5.953 13.27 13.27v46.49c0 5.82 1.317 11.686 3.808 16.961l23.12 48.99c.046.098.095.195.145.291 6.48 12.317 7.649 29.568 8.681 44.79.122 1.792.242 3.552.367 5.275v25.885c0 4.142 3.358 7.5 7.5 7.5s7.5-3.358 7.5-7.5v-12.822l89.112 54.198c1.218.741 2.562 1.093 3.89 1.093 2.532 0 5.003-1.282 6.415-3.604 2.153-3.539 1.028-8.153-2.51-10.305l-97.199-59.116c-.037-.537-.073-1.077-.11-1.62-1.129-16.648-2.408-35.512-10.294-50.61l-23.053-48.849c-1.552-3.287-2.373-6.938-2.373-10.558v-46.49c0-15.588-12.682-28.27-28.27-28.27-4.709 0-9.241 1.143-13.28 3.295v-60.544c0-24.433-19.877-44.31-44.31-44.31h-153.48c-24.438 0-44.32 19.877-44.32 44.31v25.36c0 4.142 3.358 7.5 7.5 7.5s7.5-3.358 7.5-7.5v-25.36c0-16.162 13.153-29.31 29.32-29.31h153.48c16.162 0 29.31 13.148 29.31 29.31v297.71c0 16.167-13.148 29.32-29.31 29.32h-153.48c-16.167 0-29.32-13.153-29.32-29.32v-27.946c1.788.321 3.625.498 5.504.498 1.998 0 3.951-.197 5.845-.559v27.517c0 5.913 2.873 11.515 7.679 14.98 3.152 2.277 6.88 3.48 10.781 3.48h152.5c10.179 0 18.46-8.281 18.46-18.46v-296.73c0-10.173-8.281-18.45-18.46-18.45h-35.75c-3.307 0-6.224 2.166-7.18 5.331l-3.29 10.892c-.094.31-.386.527-.71.527h-58.64c-.324 0-.616-.217-.712-.535l-3.3-10.89c-.958-3.163-3.874-5.325-7.178-5.325h-35.74c-10.179 0-18.46 8.276-18.46 18.45v113.463c-1.894-.362-3.847-.559-5.845-.559-1.879 0-3.716.177-5.504.498v-51.512c0-2.7-1.431-5.059-3.571-6.38-.021-.013-.037-.031-.058-.044l-9.84-5.93c-.042-.025-.083-.05-.126-.074-4.179-2.409-8.918-3.682-13.705-3.682-9.775 0-18.888 5.259-23.786 13.732-7.552 13.089-3.073 29.879 9.981 37.465l26.105 15.73v7.956c-6.465 5.696-10.556 14.028-10.556 23.301 0 9.486 4.281 17.985 11.006 23.687-6.724 5.702-11.006 14.201-11.006 23.687s4.281 17.985 11.006 23.687c-6.724 5.702-11.006 14.201-11.006 23.687 0 9.273 4.09 17.605 10.556 23.301v35.207c0 24.438 19.882 44.32 44.32 44.32h59.344l72.435 36.814c11.399 5.802 23.639 9.552 36.381 11.147l46.94 5.87c11.23 1.404 22.023 4.758 32.082 9.968l117.84 61.02c1.103.571 2.281.841 3.442.841 2.713 0 5.333-1.477 6.667-4.053 1.904-3.676.466-8.202-3.212-10.107zm-374.889-453.04c0-1.902 1.552-3.45 3.46-3.45h30.176l1.684 5.557c2.021 6.695 8.077 11.193 15.07 11.193h58.64c6.994 0 13.05-4.498 15.07-11.191l1.679-5.559h30.181c1.908 0 3.46 1.547 3.46 3.45v61.29l-38.052 22.582c-3.562 2.114-4.736 6.715-2.622 10.277 2.113 3.562 6.715 4.737 10.277 2.622l30.397-18.039v32.827l-150.754 89.466c1.004-3.05 1.549-6.306 1.549-9.687 0-7.526-2.704-14.422-7.177-19.8l95.757-56.827c3.562-2.114 4.736-6.715 2.622-10.277-2.113-3.562-6.715-4.735-10.277-2.622l-81.571 48.408c.416-2.022.646-4.112.646-6.256 0-9.112-3.944-17.319-10.215-23.006zm0 261.718c6.27-5.687 10.215-13.894 10.215-23.006 0-6.625-2.091-12.769-5.64-17.817l154.845-91.893v167.728c0 1.908-1.552 3.46-3.46 3.46h-152.5c-.919 0-1.594-.348-2.003-.644-.912-.658-1.457-1.711-1.457-2.817zm-20.845-133.814c8.855 0 16.06 7.205 16.06 16.06s-7.205 16.06-16.06 16.06-16.06-7.205-16.06-16.06 7.204-16.06 16.06-16.06zm16.06 63.434c0 8.855-7.205 16.06-16.06 16.06s-16.06-7.205-16.06-16.06 7.205-16.06 16.06-16.06 16.06 7.204 16.06 16.06zm-54.984-107.242c-.04-.024-.08-.048-.12-.071-5.944-3.433-7.988-11.067-4.559-17.011 2.224-3.845 6.361-6.234 10.797-6.234 2.14 0 4.268.569 6.158 1.645l6.142 3.702v29.068zm22.864 154.616c0-8.855 7.205-16.06 16.06-16.06s16.06 7.205 16.06 16.06-7.205 16.06-16.06 16.06-16.06-7.204-16.06-16.06z"/><g><path d="m235.259 332.703h-11.689c-4.142 0-7.5-3.358-7.5-7.5s3.358-7.5 7.5-7.5h11.689c4.142 0 7.5 3.358 7.5 7.5s-3.358 7.5-7.5 7.5z"/><path d="m152.536 332.703h-11.689c-4.142 0-7.5-3.358-7.5-7.5s3.358-7.5 7.5-7.5h11.689c4.142 0 7.5 3.358 7.5 7.5s-3.357 7.5-7.5 7.5z"/></g></g></svg>