<?xml version="1.0" encoding="iso-8859-1"?>
<!-- Generator: Adobe Illustrator 19.0.0, SVG Export Plug-In . SVG Version: 6.00 Build 0)  -->
<svg xmlns="http://www.w3.org/2000/svg" xmlns:xlink="http://www.w3.org/1999/xlink" version="1.1" id="Layer_1" x="0px" y="0px" viewBox="0 0 512 512" style="enable-background:new 0 0 512 512;" xml:space="preserve">
<g>
	<g>
		<path d="M460.8,285.642h-20.777c9.311-28.42,5.747-47.052-12.934-78.186l-25.074-41.791c7.882-7.192,12.975-19.446,12.975-33.623    c0-22.666-13.021-40.421-29.642-40.421c-7.983,0-15.129,4.102-20.407,10.869c-0.377-0.054-0.759-0.091-1.151-0.091h-27.255    c-19.147,0-34.724,15.577-34.724,34.724v7.295c0,5.401,2.496,10.227,6.393,13.395c-2.461,3.747-3.898,8.223-3.898,13.032    c0,13.13,10.681,23.811,23.81,23.811c4.457,0,8.631-1.234,12.201-3.374l5.475,32.846c2.111,12.658-1.437,25.534-9.732,35.326    c-8.295,9.793-20.414,15.409-33.248,15.409h-34.779c-14.063,0-25.505-11.442-25.505-25.505v-23.814    c18.428-3.755,32.337-20.087,32.337-39.607c0-22.289-18.132-40.421-40.421-40.421h-88.926v-23.271    c0-10.943-8.902-19.845-19.845-19.845H19.845C8.902,102.4,0,111.302,0,122.245v95.047c0,10.943,8.902,19.845,19.845,19.845H50.12    C20.046,255.97,0,289.398,0,327.425v9.418c0,4.466,3.62,8.084,8.084,8.084h36.51c-0.978,4.405-1.479,8.916-1.479,13.474    c0,34.176,27.803,61.979,61.979,61.979s61.979-27.803,61.979-61.979c0-4.581-0.507-9.081-1.481-13.474h14.955    c4.465,0,8.084-3.619,8.084-8.084v-2.695h167.074v2.695c0,4.466,3.62,8.084,8.084,8.084h4.176    c-0.978,4.403-1.481,8.912-1.481,13.474c0,34.176,27.803,61.979,61.979,61.979s61.979-27.803,61.979-61.979    c0-4.569-0.501-9.074-1.478-13.474h14.951c4.465,0,8.084-3.619,8.084-8.084C512,308.611,489.031,285.642,460.8,285.642z     M385.347,107.789c6.372,0,13.474,9.96,13.474,24.253s-7.101,24.253-13.474,24.253s-13.474-9.96-13.474-24.253    S378.975,107.789,385.347,107.789z M328.115,178.489c-4.214,0-7.641-3.429-7.641-7.642s3.428-7.642,7.641-7.642    c4.213,0,7.642,3.429,7.642,7.642S332.329,178.489,328.115,178.489z M319.075,145.515v0.001c-0.605,0-1.096-0.492-1.096-1.097    v-7.295c0-10.231,8.325-18.556,18.556-18.556h19.17v26.947H319.075z M145.516,161.684h88.926c13.373,0,24.253,10.88,24.253,24.253    s-10.879,24.253-24.253,24.253h-88.926V161.684z M128.565,120.005c0.483,0.623,0.783,1.394,0.783,2.241v54.953l-28.988-28.989    L128.565,120.005z M107.135,118.568l-34.377,34.378l-34.377-34.378H107.135z M16.168,122.245c0-0.847,0.3-1.618,0.783-2.241    l28.205,28.206l-28.988,28.988V122.245z M19.845,220.968L19.845,220.968c-2.028,0-3.677-1.649-3.677-3.677v-17.227l40.421-40.421    l10.452,10.452c1.578,1.578,3.648,2.367,5.716,2.367c2.068,0,4.138-0.789,5.716-2.367l10.452-10.452l40.421,40.421v17.227    c0,2.028-1.649,3.677-3.677,3.677H19.845z M105.095,404.211c-25.26,0-45.81-20.55-45.81-45.81c0-4.598,0.68-9.13,2.016-13.474    h17.406c-2.075,4.045-3.253,8.623-3.253,13.474c0,16.344,13.297,29.642,29.642,29.642c16.345,0,29.642-13.298,29.642-29.642    c0-4.851-1.178-9.428-3.253-13.474h17.403c1.336,4.337,2.019,8.849,2.019,13.474C150.905,383.66,130.355,404.211,105.095,404.211z     M91.621,358.4c0-7.43,6.044-13.474,13.474-13.474s13.474,6.044,13.474,13.474s-6.044,13.474-13.474,13.474    S91.621,365.83,91.621,358.4z M355.826,317.979H188.632v-9.36c0-4.465-3.62-8.084-8.084-8.084c-4.465,0-8.084,3.62-8.084,8.084    v20.139h-17.87c-0.101-0.001-0.202-0.002-0.303,0H16.168v-1.333c0-49.865,40.423-90.288,90.288-90.288h15.472    c20.733,0,38.588,12.551,46.371,30.453c1.303,2.997,4.197,4.987,7.464,4.987c5.842,0,9.72-5.994,7.397-11.354    c-6.771-15.611-19.345-28.145-34.984-34.865h78.182v23c0,23.014,18.658,41.672,41.674,41.672h34.779    c17.596,0,34.21-7.7,45.584-21.127c11.373-13.425,16.236-31.079,13.344-48.436l-9.964-59.784h12.014    c0.391,0,0.774-0.038,1.151-0.091c5.277,6.767,12.424,10.869,20.407,10.869c0.62,0,1.233-0.032,1.842-0.081l26.034,43.392    c16.315,27.192,20.162,41.279,9.68,69.868h-32.075C372.401,285.642,357.253,299.911,355.826,317.979z M428.463,404.211    c-25.26,0-45.81-20.55-45.81-45.81c0-4.603,0.683-9.127,2.019-13.474h17.403c-2.074,4.045-3.253,8.623-3.253,13.474    c0,16.344,13.297,29.642,29.642,29.642c16.345,0,29.642-13.298,29.642-29.642c0-4.851-1.178-9.428-3.253-13.474h17.398    c1.337,4.345,2.023,8.864,2.023,13.474C474.274,383.66,453.724,404.211,428.463,404.211z M414.989,358.4    c0-7.43,6.044-13.474,13.474-13.474s13.474,6.044,13.474,13.474s-6.044,13.474-13.474,13.474S414.989,365.83,414.989,358.4z     M371.874,328.758v-7.992c0-10.452,8.504-18.956,18.955-18.956h37.586c0.015,0,0.03,0.002,0.045,0.002    c0.01,0,0.018-0.002,0.028-0.002H460.8c16.535,0,30.431,11.515,34.09,26.947H371.874z"/>
	</g>
</g>
<g>
</g>
<g>
</g>
<g>
</g>
<g>
</g>
<g>
</g>
<g>
</g>
<g>
</g>
<g>
</g>
<g>
</g>
<g>
</g>
<g>
</g>
<g>
</g>
<g>
</g>
<g>
</g>
<g>
</g>
</svg>
