<?xml version="1.0" encoding="iso-8859-1"?>
<!-- Generator: Adobe Illustrator 19.0.0, SVG Export Plug-In . SVG Version: 6.00 Build 0)  -->
<svg xmlns="http://www.w3.org/2000/svg" xmlns:xlink="http://www.w3.org/1999/xlink" version="1.1" id="Layer_1" x="0px" y="0px" viewBox="0 0 512 512" style="enable-background:new 0 0 512 512;" xml:space="preserve">
<g>
	<g>
		<path d="M511.977,93.751c-0.027-0.395-0.085-0.788-0.171-1.18c-0.005-0.022-0.008-0.044-0.013-0.066    c-0.085-0.368-0.202-0.732-0.341-1.093c-0.024-0.06-0.045-0.121-0.07-0.181c-0.024-0.057-0.041-0.114-0.067-0.171    c-0.127-0.288-0.274-0.562-0.429-0.828c-0.032-0.055-0.066-0.109-0.1-0.163c-0.205-0.332-0.428-0.648-0.674-0.941    c-0.022-0.025-0.045-0.05-0.067-0.074c-0.848-0.988-1.914-1.749-3.099-2.23c-0.013-0.005-0.026-0.012-0.039-0.017    c-0.38-0.152-0.773-0.272-1.174-0.364c-0.022-0.005-0.043-0.011-0.065-0.016c-0.393-0.087-0.793-0.144-1.199-0.172    c-0.026-0.001-0.052-0.003-0.079-0.004c-0.398-0.023-0.799-0.019-1.202,0.018c-0.032,0.002-0.064,0.008-0.095,0.011    c-0.396,0.041-0.792,0.105-1.187,0.207l-0.011,0.002c-0.003,0.001-0.008,0.002-0.011,0.002L81.53,194.273    c-3.501,0.897-5.98,4.009-6.074,7.621c-0.094,3.612,2.222,6.848,5.67,7.926l124.197,38.812l21.193,105.964    c0.529,2.645,2.342,4.852,4.833,5.883c0.995,0.413,2.046,0.615,3.094,0.615c1.574,0,3.138-0.459,4.485-1.358l62.813-41.875    l66.869,72.949c1.545,1.685,3.713,2.621,5.959,2.621c0.432,0,0.869-0.034,1.303-0.106c2.69-0.44,4.978-2.205,6.085-4.695    L511.304,97.598c0.012-0.027,0.017-0.056,0.029-0.084c0.152-0.352,0.279-0.716,0.38-1.085c0.016-0.061,0.031-0.123,0.046-0.184    c0.091-0.368,0.157-0.739,0.196-1.118c0.005-0.052,0.008-0.104,0.012-0.156c0.032-0.388,0.041-0.779,0.016-1.171    C511.982,93.783,511.978,93.767,511.977,93.751z M240.002,339.589l-17.092-85.46l28.6,8.938l39.173,42.734L240.002,339.589z     M372.192,370.79l-103.79-113.226l62.118-40.512c4.259-2.777,4.882-8.769,1.287-12.363l-0.116-0.116    c-2.676-2.676-6.861-3.112-10.031-1.044l-66.883,43.619l-141.681-44.274l345.346-88.55l-97.196,63.389    c-4.301,2.805-4.931,8.857-1.3,12.488c2.703,2.703,6.931,3.143,10.133,1.055l35.388-23.079l79.954-52.143L372.192,370.79z"/>
	</g>
</g>
<g>
	<g>
		<path d="M126.653,323.368H8.084c-4.465,0-8.084,3.619-8.084,8.084s3.62,8.084,8.084,8.084h118.568    c4.465,0,8.084-3.619,8.084-8.084S131.117,323.368,126.653,323.368z"/>
	</g>
</g>
<g>
	<g>
		<path d="M503.916,409.6h-53.895c-4.465,0-8.084,3.619-8.084,8.084s3.62,8.084,8.084,8.084h53.895c4.465,0,8.084-3.619,8.084-8.084    S508.38,409.6,503.916,409.6z"/>
	</g>
</g>
<g>
	<g>
		<path d="M191.326,388.042h-64.674c-4.465,0-8.084,3.618-8.084,8.084c0,4.466,3.62,8.084,8.084,8.084h64.674    c4.465,0,8.084-3.618,8.084-8.084C199.411,391.661,195.791,388.042,191.326,388.042z"/>
	</g>
</g>
<g>
	<g>
		<path d="M277.558,86.232h-43.116c-4.465,0-8.084,3.619-8.084,8.084s3.62,8.084,8.084,8.084h43.116    c4.465,0,8.084-3.619,8.084-8.084S282.023,86.232,277.558,86.232z"/>
	</g>
</g>
<g>
</g>
<g>
</g>
<g>
</g>
<g>
</g>
<g>
</g>
<g>
</g>
<g>
</g>
<g>
</g>
<g>
</g>
<g>
</g>
<g>
</g>
<g>
</g>
<g>
</g>
<g>
</g>
<g>
</g>
</svg>
