<?xml version="1.0" encoding="iso-8859-1"?>
<!-- Generator: Adobe Illustrator 19.0.0, SVG Export Plug-In . SVG Version: 6.00 Build 0)  -->
<svg version="1.1" id="Layer_1" xmlns="http://www.w3.org/2000/svg" xmlns:xlink="http://www.w3.org/1999/xlink" x="0px" y="0px"
	 viewBox="0 0 512.001 512.001" style="enable-background:new 0 0 512.001 512.001;" xml:space="preserve">
<g>
	<g>
		<path d="M459.069,236.287v-29.998c0-54.258-21.123-105.254-59.482-143.594c-18.83-18.814-40.646-33.467-64.919-43.649V9.983
			C334.668,4.47,330.2,0,324.685,0H187.3c-5.515,0-9.983,4.47-9.983,9.983v9.068c-35.289,14.825-65.49,39.159-87.639,70.724
			c-24.029,34.243-36.731,74.533-36.731,116.514v29.995c-25.995,6.452-45.325,29.982-45.325,57.952v61.771
			c0,32.915,26.781,59.693,59.697,59.693h8.69c4.747,8.169,13.603,13.555,23.426,13.555c14.932,0,27.08-12.148,27.08-27.08v-154.11
			c0-7.236-2.817-14.037-7.948-19.167c-5.13-5.102-11.924-7.912-19.132-7.912c-9.808,0-18.662,5.379-23.416,13.539h-3.106v-28.234
			c0-37.854,11.449-74.179,33.108-105.045c19.054-27.152,44.716-48.353,74.65-61.856c4.853,9.141,14.473,15.385,25.528,15.385H305.8
			c11.059,0,20.68-6.255,25.527-15.409c20.124,9.068,38.304,21.628,54.146,37.455c34.582,34.568,53.628,80.547,53.628,129.47v28.234
			h-3.103c-4.753-8.158-13.607-13.539-23.416-13.539c-7.219,0-14.018,2.81-19.164,7.931c-5.115,5.114-7.932,11.915-7.932,19.149
			v154.11c0,9.745,5.195,18.279,12.945,23.05c-14.889,22.972-39.741,38.131-67.083,40.748c-1.679-5.532-4.701-10.593-8.897-14.774
			c-6.72-6.741-15.669-10.455-25.199-10.455h-18.207c-19.646,0-35.629,15.983-35.629,35.629c0,9.531,3.712,18.48,10.429,25.174
			c6.719,6.741,15.669,10.455,25.199,10.455h18.207c16.31,0,30.086-11.02,34.296-26.002c37.085-2.97,70.63-24.832,88.257-57.745
			c6.827-1.909,12.662-6.455,16.206-12.554h8.672c32.916,0,59.695-26.779,59.695-59.695v-61.771
			C504.379,266.27,485.057,242.744,459.069,236.287z M92.32,248.063h0.001c0-0.504,0.052-1.005,0.153-1.487
			c0.692-3.26,3.618-5.627,6.96-5.627c1.894,0,3.689,0.747,5.032,2.083c1.342,1.343,2.081,3.128,2.081,5.03v154.11
			c0,3.923-3.191,7.113-7.113,7.113c-3.346,0-6.272-2.365-6.959-5.637c-0.102-0.484-0.154-0.981-0.154-1.476V248.063z
			 M72.354,395.733h-5.036c-21.906,0-39.73-17.822-39.73-39.729v-61.771c0-21.916,17.824-39.745,39.73-39.745h5.036V395.733z
			 M314.702,25.905c0,4.908-3.993,8.9-8.901,8.9H206.2c-4.916,0-8.916-3.993-8.916-8.9v-5.938h117.418V25.905z M278.411,492.003
			c-3.944-0.157-7.629-1.748-10.447-4.575c-2.954-2.944-4.58-6.87-4.58-11.055c0-8.422,6.686-15.293,15.027-15.63V492.003z
			 M298.378,491.977v-31.212c3.758,0.266,7.255,1.842,9.955,4.551c2.954,2.944,4.58,6.87,4.58,11.055
			C312.914,484.628,306.489,491.396,298.378,491.977z M419.698,402.175h-0.001c0,0.495-0.052,0.992-0.157,1.49
			c-0.684,3.259-3.61,5.624-6.956,5.624c-3.931,0-7.129-3.191-7.129-7.113V248.063c0-1.901,0.74-3.687,2.066-5.013
			c1.36-1.355,3.16-2.1,5.065-2.1c3.342,0,6.268,2.367,6.96,5.627c0.101,0.483,0.153,0.984,0.153,1.487V402.175z M484.411,356.005
			c0,21.906-17.822,39.729-39.729,39.729h-5.02V254.49h5.02c21.906,0,39.729,17.829,39.729,39.745V356.005z"/>
	</g>
</g>
<g>
</g>
<g>
</g>
<g>
</g>
<g>
</g>
<g>
</g>
<g>
</g>
<g>
</g>
<g>
</g>
<g>
</g>
<g>
</g>
<g>
</g>
<g>
</g>
<g>
</g>
<g>
</g>
<g>
</g>
</svg>
