<?xml version="1.0" encoding="iso-8859-1"?>
<!-- Generator: Adobe Illustrator 19.0.0, SVG Export Plug-In . SVG Version: 6.00 Build 0)  -->
<svg version="1.1" id="Layer_1" xmlns="http://www.w3.org/2000/svg" xmlns:xlink="http://www.w3.org/1999/xlink" x="0px" y="0px"
	 viewBox="0 0 512 512" style="enable-background:new 0 0 512 512;" xml:space="preserve">
<g>
	<g>
		<path d="M424.136,125.368H345.52V37.548C345.52,16.844,328.676,0,307.971,0H82.4C61.696,0,44.852,16.844,44.852,37.548v440.321
			c0,18.819,15.31,34.131,34.13,34.131h232.408c18.819,0,34.131-15.311,34.131-34.131V319.753l39.96-24.329h38.656
			c23.717,0,43.012-19.295,43.012-43.012v-84.019C467.148,144.669,447.853,125.368,424.136,125.368z M63.186,37.548
			c0-10.595,8.62-19.214,19.214-19.214h225.571c10.595,0,19.215,8.62,19.215,19.214v35.018H63.186V37.548z M327.186,477.869
			c0,8.71-7.087,15.797-15.797,15.797H78.982c-8.71,0-15.795-7.087-15.795-15.797v-44.132h264V477.869z M327.186,415.403h-264
			V90.901h264v34.468h-146.38c-23.717,0-43.012,19.301-43.012,43.024v84.019c0,23.717,19.295,43.012,43.012,43.012h117.456
			l-8.558,40.212c-0.761,3.58,0.68,7.269,3.664,9.386c1.584,1.123,3.441,1.689,5.303,1.689c1.648,0,3.298-0.444,4.766-1.337
			l23.749-14.458V415.403z M448.815,252.413c0,13.608-11.071,24.678-24.678,24.678h-41.226c-1.682,0-3.331,0.462-4.767,1.337
			l-66.08,40.231l6.49-30.493c0.576-2.705-0.102-5.526-1.842-7.676c-1.741-2.15-4.359-3.399-7.125-3.399H180.809
			c-13.608,0-24.678-11.07-24.678-24.678v-84.019c0-13.614,11.07-24.69,24.678-24.69h243.329v0c13.608,0,24.678,11.076,24.678,24.69
			V252.413z"/>
	</g>
</g>
<g>
	<g>
		<path d="M411.392,166.435H371.06c-5.064,0-9.167,4.104-9.167,9.167s4.103,9.167,9.167,9.167h40.333
			c5.064,0,9.167-4.104,9.167-9.167S416.456,166.435,411.392,166.435z"/>
	</g>
</g>
<g>
	<g>
		<path d="M327.06,166.435H193.548c-5.063,0-9.167,4.104-9.167,9.167s4.104,9.167,9.167,9.167H327.06
			c5.064,0,9.167-4.104,9.167-9.167S332.124,166.435,327.06,166.435z"/>
	</g>
</g>
<g>
	<g>
		<path d="M411.392,236.761H193.548c-5.063,0-9.167,4.104-9.167,9.167s4.104,9.167,9.167,9.167h217.844
			c5.064,0,9.167-4.104,9.167-9.167S416.456,236.761,411.392,236.761z"/>
	</g>
</g>
<g>
	<g>
		<path d="M411.392,201.598H303.226c-5.064,0-9.167,4.104-9.167,9.167s4.103,9.167,9.167,9.167h108.167
			c5.064,0,9.167-4.104,9.167-9.167S416.455,201.598,411.392,201.598z"/>
	</g>
</g>
<g>
	<g>
		<path d="M262.893,201.598h-69.345c-5.063,0-9.167,4.104-9.167,9.167s4.104,9.167,9.167,9.167h69.345
			c5.064,0,9.167-4.104,9.167-9.167S267.957,201.598,262.893,201.598z"/>
	</g>
</g>
<g>
	<g>
		<path d="M235.521,38.346h-80.667c-5.063,0-9.167,4.104-9.167,9.167s4.104,9.167,9.167,9.167h80.667
			c5.063,0,9.167-4.104,9.167-9.167S240.584,38.346,235.521,38.346z"/>
	</g>
</g>
<g>
	<g>
		<path d="M208.15,465.553l2.161-2.161c3.58-3.58,3.58-9.383,0-12.964c-3.58-3.58-9.385-3.58-12.964,0l-2.161,2.161l-2.161-2.161
			c-3.58-3.58-9.385-3.58-12.964,0c-3.58,3.58-3.58,9.383,0,12.964l2.161,2.161l-2.161,2.161c-3.581,3.58-3.581,9.383,0,12.964
			c1.789,1.791,4.136,2.685,6.482,2.685c2.346,0,4.692-0.895,6.482-2.685l2.161-2.161l2.161,2.161
			c1.789,1.791,4.136,2.685,6.482,2.685c2.346,0,4.692-0.895,6.482-2.685c3.58-3.58,3.58-9.383,0-12.964L208.15,465.553z"/>
	</g>
</g>
<g>
</g>
<g>
</g>
<g>
</g>
<g>
</g>
<g>
</g>
<g>
</g>
<g>
</g>
<g>
</g>
<g>
</g>
<g>
</g>
<g>
</g>
<g>
</g>
<g>
</g>
<g>
</g>
<g>
</g>
</svg>
