<svg id="Capa_1" enable-background="new 0 0 511.995 511.995" height="512" viewBox="0 0 511.995 511.995" width="512" xmlns="http://www.w3.org/2000/svg"><g><path d="m490.152 496.995h-12.549v-166.303c0-4.142-3.357-7.5-7.5-7.5s-7.5 3.358-7.5 7.5v166.303h-83.271v-367.607h76.338c3.823 0 6.934 3.111 6.934 6.934v159.37c0 4.142 3.357 7.5 7.5 7.5s7.5-3.358 7.5-7.5v-159.37c0-12.095-9.839-21.934-21.934-21.934h-76.338v-56.52h1.124c7.345 0 13.319-5.975 13.319-13.319v-31.23c0-7.344-5.975-13.319-13.319-13.319h-106.958c-4.143 0-7.5 3.358-7.5 7.5s3.357 7.5 7.5 7.5h105.277v27.869h-6.943-231.668-6.572v-27.869h104.906c4.143 0 7.5-3.358 7.5-7.5s-3.357-7.5-7.5-7.5h-106.588c-7.344 0-13.318 5.975-13.318 13.319v31.231c0 7.344 5.975 13.319 13.318 13.319h.754v56.52h-76.337c-12.095 0-21.935 9.839-21.935 21.934v360.673h-12.549c-4.143 0-7.5 3.358-7.5 7.5s3.357 7.5 7.5 7.5h349.988 118.32c4.143 0 7.5-3.358 7.5-7.5s-3.357-7.501-7.499-7.501zm-440.76-360.673c0-3.823 3.11-6.934 6.935-6.934h76.337v367.607h-83.272zm98.272-78.453h216.668v439.126h-53.536v-85.628c0-7.344-5.975-13.319-13.318-13.319h-82.959c-7.344 0-13.318 5.975-13.318 13.319v85.628h-53.536c-.001-4.677-.001-428.617-.001-439.126zm68.536 377.122v-21.943h79.596v21.943zm0 15h32.298v47.004h-32.298zm47.298 47.004v-47.004h32.298v47.004z"/><path d="m101.68 176.393h-21.305c-7.344 0-13.318 5.975-13.318 13.319v25.305c0 7.344 5.975 13.319 13.318 13.319h21.305c7.344 0 13.318-5.975 13.318-13.319v-25.305c.001-7.345-5.974-13.319-13.318-13.319zm-1.681 36.942h-17.942v-21.943h17.941v21.943z"/><path d="m101.68 250.278h-21.305c-7.344 0-13.318 5.975-13.318 13.319v25.305c0 7.344 5.975 13.319 13.318 13.319h21.305c7.344 0 13.318-5.975 13.318-13.319v-25.305c.001-7.345-5.974-13.319-13.318-13.319zm-1.681 36.943h-17.942v-21.943h17.941v21.943z"/><path d="m101.68 324.163h-21.305c-7.344 0-13.318 5.975-13.318 13.319v25.305c0 7.344 5.975 13.319 13.318 13.319h21.305c7.344 0 13.318-5.975 13.318-13.319v-25.305c.001-7.344-5.974-13.319-13.318-13.319zm-1.681 36.942h-17.942v-21.942h17.941v21.942z"/><path d="m101.68 398.048h-21.305c-7.344 0-13.318 5.975-13.318 13.319v25.305c0 7.344 5.975 13.319 13.318 13.319h21.305c7.344 0 13.318-5.975 13.318-13.319v-25.305c.001-7.345-5.974-13.319-13.318-13.319zm-1.681 36.943h-17.942v-21.943h17.941v21.943z"/><path d="m444.938 189.711c0-7.344-5.975-13.319-13.318-13.319h-21.304c-7.345 0-13.319 5.975-13.319 13.319v25.305c0 7.344 5.975 13.319 13.319 13.319h21.304c7.344 0 13.318-5.975 13.318-13.319zm-15 23.624h-17.941v-21.943h17.941z"/><path d="m444.938 263.597c0-7.344-5.975-13.319-13.318-13.319h-21.304c-7.345 0-13.319 5.975-13.319 13.319v25.305c0 7.344 5.975 13.319 13.319 13.319h21.304c7.344 0 13.318-5.975 13.318-13.319zm-15 23.624h-17.941v-21.943h17.941z"/><path d="m444.938 337.482c0-7.344-5.975-13.319-13.318-13.319h-21.304c-7.345 0-13.319 5.975-13.319 13.319v25.305c0 7.344 5.975 13.319 13.319 13.319h21.304c7.344 0 13.318-5.975 13.318-13.319zm-15 23.623h-17.941v-21.942h17.941z"/><path d="m431.62 398.048h-21.304c-7.345 0-13.319 5.975-13.319 13.319v25.305c0 7.344 5.975 13.319 13.319 13.319h21.304c7.344 0 13.318-5.975 13.318-13.319v-25.305c0-7.345-5.975-13.319-13.318-13.319zm-1.682 36.943h-17.941v-21.943h17.941z"/><path d="m183.691 228.335h144.613c7.345 0 13.319-5.975 13.319-13.319v-25.305c0-7.344-5.975-13.319-13.319-13.319h-144.613c-7.344 0-13.318 5.975-13.318 13.319v25.305c0 7.345 5.974 13.319 13.318 13.319zm64.807-15h-23.843v-21.943h23.843zm15-21.942h23.843v21.943h-23.843zm63.126 21.942h-24.284v-21.943h24.283v21.943zm-141.251-21.942h24.282v21.943h-24.282z"/><path d="m183.691 302.221h144.613c7.345 0 13.319-5.975 13.319-13.319v-25.305c0-7.344-5.975-13.319-13.319-13.319h-144.613c-7.344 0-13.318 5.975-13.318 13.319v25.305c0 7.344 5.974 13.319 13.318 13.319zm64.807-15h-23.843v-21.943h23.843zm15-21.943h23.843v21.943h-23.843zm63.126 21.943h-24.284v-21.943h24.283v21.943zm-141.251-21.943h24.282v21.943h-24.282z"/><path d="m183.691 154.45h144.613c7.345 0 13.319-5.975 13.319-13.319v-25.305c0-7.344-5.975-13.319-13.319-13.319h-144.613c-7.344 0-13.318 5.975-13.318 13.319v25.305c0 7.345 5.974 13.319 13.318 13.319zm64.807-15h-23.843v-21.943h23.843zm15-21.943h23.843v21.943h-23.843zm63.126 21.943h-24.284v-21.943h24.283v21.943zm-141.251-21.943h24.282v21.943h-24.282z"/><path d="m328.304 376.105c7.345 0 13.319-5.975 13.319-13.319v-25.305c0-7.344-5.975-13.319-13.319-13.319h-144.613c-7.344 0-13.318 5.975-13.318 13.319v25.305c0 7.344 5.975 13.319 13.318 13.319zm-79.806-15h-23.843v-21.942h23.843zm15-21.942h23.843v21.942h-23.843zm63.126 21.942h-24.284v-21.942h24.283v21.942zm-141.251-21.942h24.282v21.942h-24.282z"/></g></svg>