<svg id="Capa_1" enable-background="new 0 0 512 512" height="512" viewBox="0 0 512 512" width="512" xmlns="http://www.w3.org/2000/svg"><g><path d="m437 497h15v15h-15z"/><path d="m512 324.5v-45h-23.5v-33.75h15v-15h-44.999v-61.727l53.498 29.38v-50.833l-98.498-54.303v-78.267h15v-15h-105v15h15v36.919l-82.501-45.483-121.302 66.875 7.242 13.136 114.06-62.883 240.999 132.865v16.623l-240.999-132.351-240.999 132.351v-16.623l113.802-62.74-7.242-13.136-121.56 67.017v50.832l53.498-29.38v61.727h-44.999v15h15v33.75h-23.5v45h45.999v93.75h-44.999v15h15v33.751h-16v45h422v-15h-407v-15h482v15h-29.999v15h44.999v-45h-16v-33.75h15v-15h-44.999v-93.75zm-113.499-309.5v15h-45v-15zm-45 30h45v39.998l-45-24.809zm119.999 200.75v33.75h-14.999v-33.75zm-405.001 33.75v-33.75h15v33.75zm30-33.75h15v33.75h-15zm30 0h14.999v33.75h-14.999zm29.999 0h15.006v33.75h-15.006zm30.006 0h15v33.75h-15zm30 0h14.999v33.75h-14.999zm29.999 0h15v33.75h-15zm30 0h15v33.75h-15zm30 0h14.999v33.75h-14.999zm29.999 0h15v33.75h-15zm30 0h14.999v33.75h-14.999zm29.999 0h15v33.75h-15zm30 0h15v33.75h-15zm-360.002-84.965 187.501-102.971 187.501 102.971v69.965h-375.002zm-29.999 84.965h14.999v33.75h-14.999zm-23.5 48.75h482v15h-482zm16 138.75h14.999v33.75h-14.999zm104.998 0v33.75h-14.999v-33.75zm-29.999 33.75h-15v-33.75h15zm-30 0h-15v-33.75h15zm225.001 0h-90v-112.5h90zm90.001-33.75v33.75h-14.999v-33.75zm60 0v33.75h-15v-33.75zm-30 33.75h-15v-33.75h15zm59.999-33.75v33.75h-14.999v-33.75zm-29.999-15h-104.999v15h15v33.75h-45.002v-127.5h-120v127.5h-45.002v-33.75h15v-15h-104.999v-93.75h390.002z"/><path d="m308.502 152v63.75h89.999v-63.75zm15 15h22.5v33.75h-22.5zm59.999 33.75h-22.499v-33.75h22.499z"/><path d="m113.499 215.75h89.999v-63.75h-89.999zm74.999-15h-22.5v-33.75h22.5zm-59.999-33.75h22.499v33.75h-22.499z"/><path d="m165.998 403.25v-63.75h-89.999v63.75zm-74.999-48.75h59.999v33.75h-59.999z"/><path d="m436.001 339.5h-89.999v63.75h89.999zm-15 48.75h-59.999v-33.75h59.999z"/><path d="m233.5 86.756h15v15h-15z"/><path d="m263.5 86.756h15v15h-15z"/></g></svg>