<svg id="Capa_1" enable-background="new 0 0 512 512" height="512" viewBox="0 0 512 512" width="512" xmlns="http://www.w3.org/2000/svg"><g><g><path d="m180.834 466.244c-3.275 2.536-3.875 7.246-1.34 10.521 1.479 1.909 3.695 2.909 5.936 2.909 1.604 0 3.22-.512 4.586-1.569 48.088-37.229 71.464-73.202 71.464-109.978 0-4.143-3.357-7.5-7.5-7.5s-7.5 3.357-7.5 7.5c-.001 31.826-21.473 63.92-65.646 98.117z"/><path d="m362.307 448.96c-3.73-1.795-8.214-.223-10.008 3.512-2.498 5.198-5.6 10.335-9.218 15.267-2.45 3.34-1.729 8.033 1.61 10.483 1.337.981 2.891 1.454 4.431 1.454 2.307 0 4.583-1.062 6.053-3.064 4.165-5.676 7.746-11.612 10.644-17.644 1.793-3.734.221-8.214-3.512-10.008z"/><path d="m356.036 407.214c1.12 3.025 3.986 4.897 7.034 4.897.865 0 1.745-.15 2.604-.469 3.885-1.438 5.867-5.754 4.429-9.638-5.195-14.028-13.694-27.421-25.981-40.941-2.786-3.065-7.529-3.292-10.595-.507-3.065 2.786-3.292 7.529-.507 10.595 10.971 12.074 18.501 23.87 23.016 36.063z"/><path d="m309.534 346.885c2.196 0 4.373-.96 5.854-2.807 2.593-3.23 2.075-7.95-1.156-10.543-9.881-7.929-20.018-15.319-29.82-22.466l-4.465 6.026-4.372 6.094c9.665 7.047 19.659 14.333 29.271 22.045 1.383 1.112 3.042 1.651 4.688 1.651z"/><path d="m215.659 202.688c.974-4.026-1.501-8.08-5.526-9.054-4.028-.978-8.079 1.5-9.054 5.526-3.552 14.686-2.99 29.894 1.669 45.202.984 3.235 3.957 5.318 7.172 5.318.724 0 1.459-.105 2.187-.327 3.963-1.206 6.197-5.396 4.991-9.358-3.869-12.711-4.353-25.263-1.439-37.307z"/><path d="m504.5 79.5c4.143 0 7.5-3.357 7.5-7.5v-54.4c0-9.704-7.896-17.6-17.6-17.6h-14.51c-6.115 0-11.884 3.251-15.056 8.486l-17.208 28.426-.042.067c-.482.789-1.342 1.266-2.294 1.233l-24.312-.709c-4.641-.153-9.066 1.521-12.496 4.687l-49.612 46.004c-.485.448-1.117.695-1.778.695h-22.76c-6.098 0-11.677 3.089-14.931 8.275l-35.227 56.375h-57.036l-35.131-41.279c-3.351-3.936-8.236-6.193-13.405-6.193h-21.977c-.902 0-1.754-.479-2.223-1.251l-26.136-42.997c-2.467-4.059-6.54-6.985-11.177-8.03l-32.277-7.262c-.654-.147-1.22-.535-1.593-1.095l-25.064-37.594c-3.271-4.908-8.746-7.838-14.644-7.838h-25.909c-9.706 0-17.602 7.896-17.602 17.602v255.898c0 4.143 3.357 7.5 7.5 7.5s7.5-3.357 7.5-7.5v-104.96h168.69c-24.739 12.508-52.368 33.381-52.368 64.227 0 28.01 22.438 51.539 44.136 74.293 19.9 20.868 38.697 40.58 38.697 61.068 0 24.23-25.017 54.146-72.345 86.515-32.838 22.458-66.112 38.86-73.377 42.357h-53.433v-188.5c0-4.143-3.357-7.5-7.5-7.5s-7.5 3.357-7.5 7.5v196c0 4.143 3.357 7.5 7.5 7.5h497c4.143 0 7.5-3.357 7.5-7.5v-55.76c0-4.143-3.357-7.5-7.5-7.5s-7.5 3.357-7.5 7.5v48.26h-116.693c4.263-5.688 9.168-13.084 13.582-21.863 14.229-28.299 16.484-57.47 6.525-84.359-17.83-48.142-59.895-78.808-97.008-105.863-26.79-19.53-49.927-36.397-55.385-54.331-5.013-16.472.317-31.802 15.843-45.565 10.412-9.229 22.23-14.824 25.993-16.478h113.097l-13.175 35.133c-1.562 4.163-.98 8.83 1.552 12.485 2.533 3.654 6.7 5.836 11.146 5.836h7.997v19.822c0 4.143 3.357 7.5 7.5 7.5s7.5-3.357 7.5-7.5v-19.822h7.998c4.446 0 8.613-2.182 11.146-5.836 2.532-3.655 3.113-8.322 1.552-12.486l-13.174-35.132h64.004v245.2c0 4.143 3.357 7.5 7.5 7.5s7.5-3.357 7.5-7.5v-306.741c0-4.143-3.357-7.5-7.5-7.5s-7.5 3.357-7.5 7.5v46.54h-195.14l30.252-48.414c.479-.763 1.328-1.236 2.218-1.236l50.568.005c2.165 0 4.2.843 5.73 2.374l9.042 9.041c4.362 4.364 10.165 6.768 16.338 6.768h18.79c4.143 0 7.5-3.357 7.5-7.5s-3.357-7.5-7.5-7.5h-18.79c-2.165 0-4.2-.843-5.73-2.374l-9.042-9.042c-4.364-4.363-10.166-6.767-16.338-6.767h-4.725l38.495-35.695c.513-.475 1.158-.747 1.863-.703l16.898.493-8.964 14.134c-2.218 3.498-1.181 8.132 2.317 10.351 1.246.79 2.636 1.167 4.01 1.167 2.482 0 4.912-1.232 6.341-3.484l36.531-58.9c.478-.788 1.309-1.258 2.226-1.258h14.51c1.434 0 2.6 1.166 2.6 2.6v54.4c0 4.143 3.357 7.5 7.5 7.5zm-99.944 127.494 13.421-35.791 13.422 35.791zm-386.954-191.994h25.909c.871 0 1.681.433 2.164 1.158l17.075 25.612-10.232-2.206c-4.047-.868-8.039 1.702-8.913 5.751-.872 4.05 1.702 8.04 5.751 8.913l64.438 14.194c.687.155 1.289.588 1.653 1.188l22.161 36.457h-13.556c-8.114 0-15.742 3.159-21.478 8.896l-11.988 11.988c-2.929 2.93-2.929 7.678 0 10.607 1.465 1.464 3.385 2.196 5.304 2.196s3.839-.732 5.304-2.196l11.988-11.989c2.902-2.903 6.763-4.502 10.87-4.502h54.549c.765 0 1.486.334 1.981.916l26.856 31.557h-192.438v-135.938c0-1.435 1.167-2.602 2.602-2.602zm216.071 219.95c6.919 22.732 31.934 40.969 60.898 62.084 35.398 25.807 75.52 55.056 91.777 98.952 8.548 23.078 6.646 47.302-5.653 71.997-7.146 14.349-15.935 24.767-19.819 29.017h-259.75c13.841-7.575 31.346-17.81 48.997-29.871 52.441-35.834 79.031-69.144 79.031-99.001 0-26.494-21.779-49.333-42.842-71.42-19.661-20.618-39.991-41.938-39.991-63.941 0-40.679 69.823-61.792 78.39-64.227h35.658c-2.048 1.536-4.109 3.191-6.138 4.974-20.263 17.803-27.373 39.048-20.558 61.436z"/><path d="m305.822 187.672c-2.325-1.163-5.085-1.039-7.298.328-2.211 1.366-3.557 3.78-3.557 6.38v58.59c0 4.143 3.357 7.5 7.5 7.5s7.5-3.357 7.5-7.5v-9.507l40.302-20.151c2.54-1.271 4.146-3.867 4.146-6.708s-1.605-5.438-4.146-6.708zm4.146 39.019v-20.176l20.177 10.088z"/><path d="m152.277 301.82-44.447-22.224c-2.325-1.163-5.086-1.039-7.298.328-2.211 1.366-3.557 3.78-3.557 6.38v58.59c0 4.143 3.357 7.5 7.5 7.5s7.5-3.357 7.5-7.5v-9.507l40.302-20.151c2.54-1.271 4.146-3.867 4.146-6.708s-1.606-5.437-4.146-6.708zm-40.301 16.796v-20.176l20.177 10.088z"/><path d="m473.509 346.268-44.447-22.224c-2.325-1.163-5.086-1.038-7.298.328-2.211 1.366-3.557 3.78-3.557 6.38v44.447 14.143c0 4.143 3.357 7.5 7.5 7.5s7.5-3.357 7.5-7.5v-9.507l40.302-20.151c2.54-1.271 4.146-3.867 4.146-6.708s-1.606-5.438-4.146-6.708zm-40.302 16.795v-20.176l20.177 10.088z"/><path d="m67.759 288.712c4.143 0 7.5-3.357 7.5-7.5v-19.821h7.998c4.447 0 8.614-2.183 11.146-5.838 2.532-3.654 3.112-8.322 1.551-12.484l-15.498-41.327c-2.004-5.346-6.988-8.801-12.697-8.801s-10.693 3.455-12.697 8.8l-15.498 41.327c-1.562 4.163-.981 8.831 1.551 12.485 2.532 3.655 6.699 5.838 11.146 5.838h7.998v19.821c0 4.142 3.357 7.5 7.5 7.5zm0-78.11 13.421 35.789h-26.842z"/><path d="m41.114 419.241c2.533 3.655 6.7 5.838 11.146 5.838h7.998v19.821c0 4.143 3.357 7.5 7.5 7.5s7.5-3.357 7.5-7.5v-19.821h7.998c4.446 0 8.613-2.183 11.146-5.838 2.532-3.655 3.112-8.322 1.551-12.485l-15.498-41.327c-2.004-5.346-6.988-8.8-12.697-8.8s-10.693 3.454-12.697 8.799l-15.498 41.327c-1.561 4.164-.981 8.831 1.551 12.486zm26.645-44.952 13.422 35.79h-26.843z"/><path d="m451.298 279.142c-2.972 0-5.896.498-8.665 1.464-3.384-2.45-7.492-3.821-11.763-3.821-11.066 0-20.07 9.004-20.07 20.071 0 4.143 3.357 7.5 7.5 7.5s7.5-3.357 7.5-7.5c0-2.796 2.274-5.071 5.07-5.071 1.662 0 3.172.787 4.142 2.16 2.315 3.276 6.799 4.148 10.175 1.986 1.825-1.171 3.938-1.789 6.111-1.789 6.262 0 11.356 5.095 11.356 11.356 0 4.143 3.357 7.5 7.5 7.5s7.5-3.357 7.5-7.5c0-14.533-11.823-26.356-26.356-26.356z"/><path d="m138.26 372.75c-11.066 0-20.07 9.004-20.07 20.071 0 4.143 3.357 7.5 7.5 7.5s7.5-3.357 7.5-7.5c0-2.796 2.274-5.071 5.07-5.071 1.662 0 3.173.787 4.143 2.16 2.314 3.276 6.795 4.15 10.173 1.986 1.825-1.171 3.938-1.789 6.112-1.789 4.143 0 7.5-3.357 7.5-7.5s-3.357-7.5-7.5-7.5c-2.972 0-5.896.498-8.665 1.464-3.384-2.45-7.493-3.821-11.763-3.821z"/></g></g></svg>