<svg id="Capa_1" enable-background="new 0 0 512 512" height="512" viewBox="0 0 512 512" width="512" xmlns="http://www.w3.org/2000/svg"><g><path d="m427.374 495.482h15v15h-15z"/><path d="m45 405.483v74.999h64.25v-74.999zm49.25 15v15h-34.25v-15zm-34.25 44.999v-14.999h34.25v14.999z"/><path d="m338.312 114.106h-164.999v63.751h164.998v-63.751zm-75 15h22.5v33.751h-22.5zm-15 33.751h-22.499v-33.751h22.499zm-59.999-33.751h22.5v33.751h-22.5zm134.999 33.751h-22.499v-33.751h22.499z"/><path d="m464.873 221.757h-74.998v44.999h74.998zm-59.998 15h14.999v14.999h-14.999zm44.998 14.999h-14.999v-14.999h14.999z"/><path d="m464.873 281.756h-74.998v44.999h74.998zm-59.998 15h14.999v14.999h-14.999zm44.998 14.999h-14.999v-14.999h14.999z"/><path d="m467 405.483h-64.251v74.999h64.251zm-15 15v15h-34.251v-15zm-34.251 44.999v-14.999h34.251v14.999z"/><path d="m338.312 256.607v-63.751h-164.999v63.751zm-90-15h-22.499v-33.751h22.499zm15-33.751h22.5v33.751h-22.5zm60 33.751h-22.499v-33.751h22.499zm-134.999-33.751h22.5v33.751h-22.5z"/><path d="m47.126 266.756h74.999v-44.999h-74.999zm59.999-15h-15v-14.999h14.999v14.999zm-44.999-14.999h15v14.999h-15z"/><path d="m47.126 326.755h74.999v-44.999h-74.999zm59.999-15h-15v-14.999h14.999v14.999zm-44.999-14.999h15v14.999h-15z"/><path d="m512 206.757v-44.999h-139.25v-45.012l15 8.238v-50.832l-131.75-72.634-59.177 32.624 7.242 13.137 51.935-28.632 116.75 64.364v16.623l-116.75-64.116-116.75 64.116v-16.623l51.677-28.489-7.242-13.137-59.435 32.767v50.832l15-8.237v45.012h-139.25v44.999h15v134.998h-15v48.728h15v104.999h-15v15h412.374v-15h-24.624v-105h94.249v104.999h-24.625v15h54.626v-15h-15.001v-104.999h15.001v-48.728h-15.001v-134.998zm-15-29.999v14.999h-124.25v-14.999zm-241-124.127 101.75 55.877v219.778l-101.75-56.095-101.75 56.096v-219.778zm-241 124.127h124.25v14.999h-124.25zm15 29.999h109.25v129.799l-9.43 5.199h-99.82zm0 183.726h94.25v104.999h-94.25zm233.5 35.502h49.25v69.497h-49.25zm49.25-15h-49.25v-37.609l49.25 27.046zm-64.25 0h-49.25v-10.563l49.25-27.046zm-49.25 15h49.25v69.497h-49.25zm128.5 69.497v-103.935l-71.75-39.403-71.75 39.403v103.935h-45v-108.061l116.75-64.117 116.75 64.116v108.061h-45zm169.25-119.999h-114.826l-126.174-69.292-126.173 69.292h-114.827v-18.728h118.681l122.319-67.435 122.319 67.436h118.681zm-15.001-33.728h-99.818l-9.431-5.199v-129.799h109.249z"/><path d="m263.312 84.106h15v15h-15z"/><path d="m233.312 84.106h15v15h-15z"/></g></svg>