<svg id="Capa_1" enable-background="new 0 0 512 512" height="512" viewBox="0 0 512 512" width="512" xmlns="http://www.w3.org/2000/svg"><g><g><path d="m295.825 394.392v-40.988h40.988c9.705 0 17.602-7.896 17.602-17.602v-44.447c0-9.706-7.896-17.602-17.602-17.602h-40.988v-40.988c0-9.706-7.896-17.602-17.602-17.602h-44.447c-9.705 0-17.602 7.896-17.602 17.602v40.988h-40.988c-9.705 0-17.602 7.896-17.602 17.602v44.447c0 9.706 7.896 17.602 17.602 17.602h40.988v40.988c0 9.706 7.896 17.602 17.602 17.602h44.447c9.706 0 17.602-7.897 17.602-17.602zm-64.65 0v-48.488c0-4.142-3.357-7.5-7.5-7.5h-48.488c-1.435 0-2.602-1.167-2.602-2.602v-44.447c0-1.435 1.167-2.602 2.602-2.602h48.488c4.143 0 7.5-3.358 7.5-7.5v-48.488c0-1.435 1.167-2.602 2.602-2.602h44.447c1.435 0 2.602 1.167 2.602 2.602v48.488c0 4.142 3.357 7.5 7.5 7.5h48.488c1.435 0 2.602 1.167 2.602 2.602v44.447c0 1.435-1.167 2.602-2.602 2.602h-48.488c-4.143 0-7.5 3.358-7.5 7.5v48.488c0 1.435-1.167 2.602-2.602 2.602h-44.447c-1.435 0-2.602-1.168-2.602-2.602z"/><path d="m464.09 120.209h-53.106v-14.724c0-9.706-7.896-17.602-17.602-17.602h-5.632v-34.926c0-26.416-21.49-47.907-47.906-47.907h-167.688c-26.416 0-47.906 21.491-47.906 47.907v34.927h-5.632c-9.705 0-17.602 7.896-17.602 17.602v14.724h-53.106c-26.418-.001-47.91 21.492-47.91 47.91v64.32c0 4.142 3.357 7.5 7.5 7.5s7.5-3.358 7.5-7.5v-22.479h14.724c9.705 0 17.602-7.896 17.602-17.602v-22.224c0-1.435 1.167-2.602 2.602-2.602h22.222c9.705 0 17.602-7.896 17.602-17.602v-14.723h332.496v14.723c0 9.706 7.896 17.602 17.602 17.602h22.224c1.435 0 2.602 1.167 2.602 2.602v22.224c0 9.706 7.896 17.602 17.602 17.602h14.722v112.039c0 4.142 3.357 7.5 7.5 7.5s7.5-3.358 7.5-7.5v-153.88c0-26.418-21.492-47.911-47.91-47.911zm-68.107-14.724v14.724h-71.874v-14.724c0-1.435 1.167-2.602 2.602-2.602h66.671c1.434.001 2.601 1.168 2.601 2.602zm-256.733-52.528c0-18.145 14.762-32.907 32.906-32.907h167.688c18.145 0 32.906 14.762 32.906 32.907v34.927h-25.41v-34.925c0-4.142-3.357-7.5-7.5-7.5h-95.3c-4.143 0-7.5 3.358-7.5 7.5s3.357 7.5 7.5 7.5h87.8v27.424h-5.629c-9.705 0-17.602 7.896-17.602 17.602v14.724h-106.218v-14.724c0-9.706-7.896-17.602-17.602-17.602h-5.629v-27.424h29.88c4.143 0 7.5-3.358 7.5-7.5s-3.357-7.5-7.5-7.5h-37.38c-4.143 0-7.5 3.358-7.5 7.5v34.924h-25.41zm-23.233 52.528c0-1.435 1.167-2.602 2.602-2.602h66.671c1.435 0 2.602 1.167 2.602 2.602v14.724h-71.874v-14.724zm-41.265 44.448c0 1.435-1.167 2.602-2.602 2.602h-22.223c-9.705 0-17.602 7.896-17.602 17.602v22.224c0 1.435-1.167 2.602-2.602 2.602h-14.723v-26.843c0-18.146 14.764-32.91 32.91-32.91h26.842zm407.524 45.028c-1.435 0-2.602-1.167-2.602-2.602v-22.224c0-9.706-7.896-17.602-17.602-17.602h-22.222c-1.435 0-2.602-1.167-2.602-2.602v-14.723h26.842c18.146 0 32.91 14.764 32.91 32.91v26.841h-14.724z"/><path d="m504.5 349.5c-4.143 0-7.5 3.358-7.5 7.5v60.197h-14.724c-9.705 0-17.602 7.896-17.602 17.602v22.224c0 1.435-1.167 2.602-2.602 2.602h-22.222c-9.705 0-17.602 7.896-17.602 17.602v14.725h-332.496v-14.725c0-9.706-7.896-17.602-17.602-17.602h-22.223c-1.435 0-2.602-1.167-2.602-2.602v-22.224c0-9.706-7.896-17.602-17.602-17.602h-14.723v-149.758c0-4.142-3.357-7.5-7.5-7.5s-7.5 3.358-7.5 7.5v191.6c0 26.418 21.492 47.91 47.91 47.91h416.18c26.418 0 47.91-21.492 47.91-47.91v-102.039c0-4.143-3.357-7.5-7.5-7.5zm-489.5 109.54v-26.843h14.724c1.435 0 2.602 1.167 2.602 2.602v22.224c0 9.706 7.896 17.602 17.602 17.602h22.222c1.435 0 2.602 1.167 2.602 2.602v14.725h-26.842c-18.146-.002-32.91-14.766-32.91-32.912zm449.09 32.91h-26.842v-14.725c0-1.435 1.167-2.602 2.602-2.602h22.224c9.705 0 17.602-7.896 17.602-17.602v-22.224c0-1.435 1.167-2.602 2.602-2.602h14.722v26.843c0 18.148-14.764 32.912-32.91 32.912z"/><path d="m404.923 313.579c0-82.116-66.807-148.922-148.923-148.922s-148.923 66.806-148.923 148.922 66.807 148.922 148.923 148.922 148.923-66.806 148.923-148.922zm-282.846 0c0-73.845 60.077-133.922 133.923-133.922s133.923 60.077 133.923 133.922-60.077 133.922-133.923 133.922-133.923-60.077-133.923-133.922z"/></g></g></svg>