<svg id="Capa_1" enable-background="new 0 0 510.682 510.682" height="512" viewBox="0 0 510.682 510.682" width="512" xmlns="http://www.w3.org/2000/svg"><g><g><path d="m497.497 234.71c-14.742-6.818-36.396-11.785-64.36-14.761-8.135-.866-16.302-1.493-24.482-1.897 8.381-5.694 15.042-11.21 19.887-16.492 5.012-5.462 6.351-13.107 3.494-19.952-2.855-6.845-9.231-11.271-16.64-11.552-6.856-.258-15.023.515-24.409 2.288 5.193-5.766 10.23-11.668 15.101-17.698 17.669-21.878 29.469-40.702 35.071-55.947 3.092-8.41 1.074-17.572-5.265-23.911-6.34-6.34-15.504-8.359-23.912-5.266-8.091 2.974-17.298 7.753-27.365 14.204-3.488 2.235-4.504 6.874-2.27 10.361 2.236 3.489 6.874 4.502 10.361 2.269 9.152-5.864 17.378-10.155 24.448-12.754 4.303-1.579 7.31.973 8.131 1.793.82.82 3.373 3.83 1.792 8.129-5.036 13.704-16.025 31.097-32.662 51.697-18.594 23.024-39.695 44.125-62.719 62.719-3.416 2.759-6.737 5.35-9.972 7.792-6.576-10.979-15.801-20.192-26.78-26.768 2.447-3.24 5.03-6.56 7.793-9.982 18.594-23.023 39.696-44.125 62.719-62.719 3.223-2.603 3.726-7.325 1.123-10.547s-7.325-3.725-10.547-1.123c-6.365 5.14-12.583 10.471-18.653 15.97 1.9-9.953 2.711-18.564 2.402-25.726-.319-7.406-4.779-13.758-11.638-16.579-6.86-2.821-14.497-1.442-19.935 3.598-5.026 4.659-10.256 10.982-15.644 18.876-.405-7.748-1.017-15.483-1.837-23.19-2.976-27.962-7.942-49.616-14.761-64.361-3.758-8.129-11.663-13.181-20.628-13.181-8.964 0-16.869 5.052-20.631 13.185-6.818 14.745-11.784 36.399-14.761 64.361-.866 8.135-1.493 16.302-1.897 24.482-5.693-8.382-11.209-15.045-16.491-19.89-5.463-5.01-13.107-6.349-19.952-3.494-6.845 2.856-11.271 9.232-11.551 16.64-.26 6.848.509 15.015 2.282 24.408-5.765-5.191-11.666-10.228-17.695-15.097-21.879-17.669-40.702-29.469-55.947-35.072-8.41-3.092-17.573-1.073-23.911 5.266-6.339 6.339-8.356 15.501-5.266 23.911 5.604 15.245 17.403 34.069 35.072 55.947 5.141 6.365 10.472 12.584 15.971 18.654-9.954-1.902-18.565-2.712-25.726-2.404-7.406.319-13.76 4.779-16.579 11.638-2.82 6.859-1.441 14.498 3.599 19.934 4.658 5.026 10.984 10.257 18.882 15.644-7.75.405-15.487 1.017-23.196 1.837-27.964 2.977-49.618 7.943-64.36 14.761-8.131 3.761-13.183 11.666-13.183 20.63s5.052 16.87 13.185 20.631c7.676 3.55 17.346 6.633 28.74 9.164 4.049.897 8.05-1.653 8.947-5.696.898-4.044-1.651-8.05-5.695-8.948-10.348-2.298-18.993-5.035-25.695-8.134-4.158-1.923-4.481-5.857-4.481-7.017s.323-5.093 4.481-7.017c13.251-6.128 33.32-10.657 59.651-13.459 29.429-3.131 59.271-3.131 88.698 0 4.362.464 8.525.983 12.535 1.543-1.531 6.061-2.353 12.402-2.353 18.933 0 6.532.831 12.87 2.366 18.931-4.015.561-8.181 1.08-12.548 1.545-29.427 3.132-59.27 3.132-88.698 0-4.117-.437-7.813 2.546-8.252 6.665-.438 4.119 2.546 7.813 6.664 8.251 8.135.866 16.301 1.493 24.481 1.896-8.383 5.694-15.043 11.21-19.888 16.491-5.012 5.462-6.351 13.107-3.495 19.952 2.856 6.844 9.232 11.271 16.64 11.551.87.033 1.759.049 2.67.049 6.269 0 13.539-.785 21.74-2.333-5.191 5.765-10.228 11.666-15.097 17.695-17.668 21.877-29.468 40.701-35.071 55.948-3.092 8.41-1.074 17.572 5.265 23.911 4.374 4.375 10.092 6.691 15.98 6.691 2.645 0 5.324-.467 7.93-1.425 15.245-5.603 34.069-17.403 55.948-35.072 6.365-5.14 12.582-10.471 18.651-15.969-1.899 9.951-2.711 18.563-2.402 25.724.675 15.663 19.777 23.665 31.413 13.126.053-.049.106-.097.159-.146 5.026-4.659 10.257-10.982 15.644-18.878.405 7.749 1.017 15.484 1.837 23.192 2.977 27.961 7.942 49.616 14.761 64.36 3.762 8.132 11.667 13.185 20.631 13.185 8.965 0 16.87-5.052 20.632-13.185 6.818-14.745 11.785-36.399 14.761-64.361.866-8.135 1.493-16.301 1.897-24.481 5.694 8.381 11.21 15.042 16.493 19.888 3.562 3.268 8.051 4.974 12.642 4.973 2.45 0 4.929-.486 7.311-1.48 6.844-2.856 11.27-9.232 11.55-16.639.26-6.848-.508-15.013-2.282-24.406 5.764 5.191 11.665 10.227 17.693 15.096 21.879 17.669 40.703 29.47 55.948 35.072 2.606.958 5.285 1.425 7.93 1.425 5.888 0 11.606-2.316 15.98-6.691 6.339-6.339 8.356-15.501 5.266-23.911-5.604-15.247-17.404-34.071-35.072-55.948-5.141-6.366-10.473-12.584-15.972-18.655 8.569 1.638 16.146 2.468 22.654 2.468 8.49 0 16.238-3.402 19.651-11.703 2.82-6.859 1.441-14.497-3.599-19.934-4.658-5.026-10.983-10.256-18.879-15.643 7.75-.405 15.486-1.016 23.195-1.837 27.964-2.977 49.618-7.943 64.36-14.761 8.133-3.761 13.185-11.667 13.185-20.631s-5.056-16.865-13.189-20.627zm-156.374-15.099c10.556-8.525 20.72-17.561 30.443-27.052 20.701-6.098 33.628-7.551 41.212-7.551 1.951 0 3.879-.084 5.078 1.734.958 1.454.811 3.395-.367 4.678-6.625 7.224-15.06 12.995-23.328 18.176-4.48 2.807-9.063 5.45-13.703 7.978-13.099.203-26.187.991-39.195 2.375-.22.023-.435.049-.654.072.172-.138.342-.271.514-.41zm-23.456 35.73c0 34.367-27.959 62.327-62.326 62.327s-62.327-27.959-62.327-62.327 27.96-62.327 62.327-62.327 62.326 27.96 62.326 62.327zm-26.935-85.923c1.436-13.494 2.234-27.071 2.398-40.659 11.325-20.785 19.987-30.994 25.28-35.9 1.607-1.492 3.356-1.004 4.033-.726s2.261 1.162 2.355 3.352c.351 8.112-.918 16.216-2.528 24.187-1.394 6.905-3.179 13.74-5.161 20.488-9.12 9.406-17.818 19.219-26.038 29.398-.141.175-.272.344-.412.518.024-.22.05-.435.073-.658zm-55.868-90.285c2.802-26.329 7.33-46.398 13.46-59.652 1.922-4.158 5.856-4.481 7.016-4.481s5.095.323 7.017 4.48c6.13 13.254 10.658 33.324 13.46 59.653 3.132 29.428 3.132 59.27 0 88.697-.464 4.362-.983 8.525-1.543 12.537-6.061-1.531-12.402-2.353-18.933-2.353-6.532 0-12.875.822-18.938 2.354-.559-4.01-1.074-8.18-1.538-12.538-3.133-29.427-3.133-59.269-.001-88.697zm-49.818 16.719c.083-2.19 1.663-3.083 2.339-3.364.675-.282 2.422-.777 4.035.704.063.058.127.117.19.175 2.37 2.197 4.542 4.606 6.598 7.096 7.456 9.026 13.712 19.374 19.364 29.753.203 13.101.991 26.191 2.376 39.203.024.222.049.436.073.657-.14-.174-.271-.343-.411-.517-8.524-10.555-17.559-20.717-27.048-30.44-6.689-22.703-7.789-36.056-7.516-43.267zm-15.627 124.097c-13.493-1.436-27.071-2.233-40.658-2.398-20.787-11.326-30.997-19.988-35.903-25.281-1.312-1.415-1.443-3.679-.021-5.025 2.052-1.942 5.944-1.448 8.508-1.321 5.321.265 10.615 1.025 15.848 2.004 7.747 1.449 15.451 3.432 22.966 5.643 9.407 9.121 19.22 17.819 29.4 26.04.172.139.342.273.513.411-.219-.024-.433-.049-.653-.073zm9.563-12.008c-23.023-18.594-44.125-39.695-62.719-62.719-16.637-20.6-27.626-37.994-32.663-51.697-1.58-4.299.973-7.31 1.793-8.129.634-.633 2.571-2.299 5.4-2.299.836 0 1.75.146 2.73.506 13.702 5.037 31.096 16.026 51.697 32.663 23.023 18.594 44.125 39.695 62.719 62.719 2.76 3.418 5.35 6.739 7.797 9.978-10.979 6.577-20.193 15.798-26.768 26.778-3.241-2.449-6.562-5.036-9.986-7.8zm-83.131 117.694c-3.344-.127-4.92-3.908-2.659-6.375 4.59-5.007 10.079-9.227 15.657-13.116 6.848-4.775 14.044-9.041 21.368-13.035 13.101-.203 26.19-.99 39.202-2.375.22-.023.435-.048.654-.072-.172.138-.341.271-.513.41-10.555 8.524-20.718 17.558-30.44 27.047-22.702 6.689-36.057 7.79-43.269 7.516zm49.372 68.782c-20.602 16.638-37.995 27.627-51.698 32.663-4.302 1.58-7.31-.972-8.13-1.793-.82-.82-3.373-3.83-1.792-8.129 5.037-13.706 16.025-31.099 32.662-51.698 18.595-23.025 39.697-44.126 62.719-62.719 3.419-2.761 6.736-5.343 9.973-7.787 6.577 10.978 15.802 20.19 26.781 26.765-2.446 3.238-5.036 6.56-7.798 9.979-18.593 23.024-39.695 44.125-62.717 62.719zm74.725-53.154c-1.436 13.494-2.234 27.072-2.398 40.659-11.323 20.782-19.986 30.992-25.28 35.9-1.484 1.376-3.924 1.38-5.302-.166-1.198-1.346-1.143-3.407-1.135-5.094.056-13.149 3.223-26.128 6.771-38.691.223-.79.967-3.349.967-3.349 9.12-9.407 17.818-19.219 26.039-29.398.14-.174.271-.343.411-.516-.023.22-.049.434-.073.655zm55.868 90.286c-2.802 26.328-7.33 46.398-13.46 59.652-1.922 4.158-5.856 4.481-7.017 4.481-1.159 0-5.094-.323-7.016-4.48-6.13-13.254-10.658-33.324-13.46-59.652-3.132-29.428-3.132-59.27 0-88.698.464-4.363.983-8.526 1.543-12.537 6.062 1.531 12.402 2.353 18.933 2.353s12.874-.822 18.936-2.354c.559 4.011 1.076 8.178 1.54 12.537 3.133 29.427 3.133 59.27.001 88.698zm49.82-16.719c-.12 3.171-4.097 4.75-6.374 2.66-2.635-2.418-5.035-5.11-7.294-7.888-5.005-6.155-9.503-13.021-13.526-19.765-1.842-3.088-3.612-6.218-5.333-9.374-.203-13.1-.991-26.188-2.375-39.198-.024-.222-.049-.437-.073-.658.14.174.271.343.412.518 8.524 10.555 17.56 20.717 27.049 30.44 6.687 22.701 7.787 36.053 7.514 43.265zm68.781-49.37c16.637 20.599 27.625 37.992 32.663 51.698 1.58 4.3-.973 7.31-1.793 8.129-.819.82-3.831 3.373-8.13 1.793-13.703-5.036-31.097-16.025-51.698-32.663-23.022-18.594-44.124-39.696-62.718-62.719-2.762-3.42-5.349-6.74-7.796-9.98 10.977-6.576 20.19-15.797 26.765-26.776 3.242 2.447 6.563 5.032 9.988 7.798 23.023 18.595 44.125 39.697 62.719 62.72zm23.404-47.05c2.118 2.286.5 6.254-2.627 6.388-8.44.363-16.896-1.011-25.126-2.718-6.586-1.366-13.099-3.071-19.549-4.971-9.406-9.12-19.219-17.817-29.398-26.037-.175-.141-.344-.272-.518-.412.222.024.437.05.66.074 13.493 1.436 27.07 2.233 40.657 2.398 20.785 11.324 30.994 19.985 35.901 25.278zm73.379-56.052c-13.251 6.128-33.32 10.657-59.651 13.459-29.428 3.132-59.27 3.132-88.697 0-4.361-.464-8.527-.982-12.538-1.541 1.532-6.062 2.353-12.404 2.353-18.935 0-6.534-.831-12.874-2.367-18.936 4.015-.559 8.189-1.075 12.552-1.539 29.428-3.132 59.27-3.132 88.697 0 26.331 2.803 46.4 7.331 59.651 13.459 4.158 1.923 4.481 5.857 4.481 7.017s-.323 5.093-4.481 7.016z"/><path d="m253.87 217.025c-1.983.408-3.628 1.502-4.771 3.192-.808 1.194-1.26 2.717-1.26 4.161 0 1.065.233 2.127.673 3.097 1.183 2.61 3.931 4.405 6.83 4.405 4.064 0 7.503-3.444 7.503-7.503 0-1.97-.801-3.911-2.201-5.302-1.064-1.057-2.361-1.743-3.842-2.051-.961-.199-1.962-.199-2.932.001z"/><path d="m256.801 278.951c-.96-.2-1.96-.2-2.931 0-1.983.408-3.628 1.502-4.771 3.192-.808 1.194-1.26 2.717-1.26 4.161 0 1.065.233 2.127.673 3.097 1.183 2.61 3.931 4.405 6.83 4.405 4.064 0 7.503-3.444 7.503-7.503 0-1.97-.801-3.911-2.201-5.302-1.066-1.057-2.362-1.742-3.843-2.05z"/><path d="m286.304 262.844c.974 0 1.946-.196 2.847-.567 2.313-.951 4-3.042 4.506-5.476.459-2.206-.146-4.532-1.589-6.257-1.512-1.808-3.335-2.705-5.764-2.705-1.065 0-2.127.233-3.097.673-2.61 1.183-4.405 3.931-4.405 6.83-.001 4.063 3.443 7.502 7.502 7.502z"/><path d="m228.539 249.098c-1.194-.808-2.717-1.26-4.161-1.26-1.065 0-2.127.233-3.097.673-2.61 1.183-4.405 3.931-4.405 6.83 0 4.064 3.444 7.503 7.502 7.503 1.971 0 3.911-.801 5.302-2.201 1.058-1.065 1.743-2.361 2.051-3.842.2-.96.2-1.96 0-2.931-.408-1.984-1.502-3.629-3.192-4.772z"/><path d="m256.79 248.051c-5.76-1.042-10.73 4.981-8.279 10.388 1.183 2.61 3.931 4.405 6.83 4.405 4.064 0 7.503-3.444 7.503-7.503 0-1.97-.801-3.911-2.201-5.302-1.084-1.077-2.436-1.732-3.853-1.988z"/></g></g></svg>