<svg id="Capa_1" enable-background="new 0 0 512 512" height="512" viewBox="0 0 512 512" width="512" xmlns="http://www.w3.org/2000/svg"><g><g><path d="m350.733 405.951c16.841-17.929 26.581-41.009 27.718-65.444h23.587c46.342 0 84.044-37.702 84.044-84.044s-37.702-84.043-84.044-84.043h-23.474v-22.01c0-12.495-10.166-22.661-22.661-22.661h-40.573c-4.137 0-7.491 3.353-7.491 7.491s3.354 7.491 7.491 7.491h40.573c4.234 0 7.679 3.445 7.679 7.68v185.266c0 22.386-8.441 43.702-23.768 60.019l-26.998 28.741h-173.543l-26.998-28.741c-15.328-16.318-23.769-37.633-23.769-60.019v-185.268c0-4.235 3.445-7.68 7.679-7.68h183.995c4.137 0 7.491-3.353 7.491-7.491s-3.354-7.491-7.491-7.491h-183.994c-12.495 0-22.661 10.166-22.661 22.661v185.266c0 26.212 9.884 51.17 27.831 70.276l27.07 28.818v25.958h-90.365c-6.696 0-12.143 5.447-12.143 12.144v11.134c0 15.437 12.559 27.996 27.996 27.996h99.978c4.137 0 7.491-3.353 7.491-7.491s-3.354-7.491-7.491-7.491h-99.978c-7.176 0-13.014-5.839-13.014-13.014v-8.296h370.29v8.296c0 7.176-5.838 13.014-13.014 13.014h-209.41c-4.137 0-7.491 3.353-7.491 7.491s3.354 7.491 7.491 7.491h209.409c15.437 0 27.996-12.559 27.996-27.996v-11.134c0-6.697-5.448-12.144-12.144-12.144h-90.365v-25.958zm27.831-183.594h23.474c18.806 0 34.106 15.299 34.106 34.105s-15.3 34.106-34.106 34.106h-23.474zm0 83.192h23.474c27.067 0 49.088-22.021 49.088-49.088 0-27.066-22.021-49.087-49.088-49.087h-23.474v-19.974h23.474c38.081 0 69.063 30.981 69.063 69.062 0 38.082-30.982 69.063-69.063 69.063h-23.474zm-69.884 155.178h-165.272v-21.311h165.272z"/><path d="m225.545 111.593c4.137 0 7.491-3.353 7.491-7.491 0-17.349 14.114-31.462 31.463-31.462h97.434c20.027 0 36.32-16.293 36.32-36.32s-16.294-36.32-36.321-36.32h-86.37c-4.137 0-7.491 3.353-7.491 7.491s3.354 7.491 7.491 7.491h86.37c11.766 0 21.338 9.572 21.338 21.339s-9.572 21.339-21.338 21.339h-97.434c-25.609 0-46.444 20.835-46.444 46.443 0 4.137 3.354 7.49 7.491 7.49z"/></g></g></svg>