<svg id="Capa_1" enable-background="new 0 0 512.005 512.005" height="512" viewBox="0 0 512.005 512.005" width="512" xmlns="http://www.w3.org/2000/svg"><g><g><path d="m317.61 221.441c-1.097-3.989-5.222-6.336-9.208-5.236-3.989 1.097-6.334 5.219-5.236 9.208l20.073 72.991-15.736 6.567c-3.288 1.372-5.154 4.871-4.463 8.366l10.911 55.155c.706 3.567 3.836 6.038 7.34 6.038.482 0 .97-.047 1.461-.144 4.058-.803 6.698-4.743 5.895-8.802l-9.723-49.147 16.171-6.749c3.479-1.452 5.337-5.264 4.337-8.899z"/><path d="m504.514 496.547h-2.896l-32.294-147.244c-1.835-8.364-8.438-14.887-16.824-16.618l-15.78-3.258c-2.295-.474-4.207-2.14-4.99-4.348l-112.075-316.168c-1.757-4.954-6.287-8.262-11.54-8.428-5.26-.169-9.982 2.849-12.026 7.63l-34.62 79.317-4.238-5.217c-2.863-3.525-7.425-5.255-11.903-4.512-4.48.742-8.24 3.848-9.814 8.108l-96.044 260.023-3.565-4.729c-3.542-4.699-8.938-7.388-14.817-7.388-.032 0-.064 0-.096 0-5.916.03-11.324 2.776-14.839 7.536l-39.728 53.816c-.341.463-.796.841-1.313 1.093l-19.587 9.529c-4.571 2.223-8.066 6.28-9.588 11.13l-25.026 79.729h-3.421c-4.137 0-7.49 3.354-7.49 7.49 0 4.137 3.354 7.49 7.49 7.49h488.102 8.922c4.137 0 7.49-3.354 7.49-7.49.001-4.137-3.352-7.491-7.49-7.491zm-182.367 0-19.211-35.127c-2.308-4.222-6.105-7.345-10.694-8.793l-93.763-29.609c-.713-.225-1.329-.66-1.779-1.259l-12.065-16.003c-2.49-3.303-7.187-3.962-10.49-1.472s-3.962 7.187-1.472 10.49l12.065 16.003c2.337 3.101 5.53 5.357 9.231 6.526l93.763 29.609c.884.279 1.616.881 2.061 1.695l15.28 27.94h-73.306-205.154l23.618-75.243c.294-.935.967-1.717 1.848-2.146l19.588-9.529c2.684-1.306 5.039-3.265 6.812-5.666l39.728-53.816c.927-1.256 2.191-1.449 2.861-1.453h.018c.674 0 1.925.188 2.857 1.424l27.939 37.068c2.49 3.303 7.187 3.963 10.49 1.473 3.304-2.49 3.963-7.187 1.473-10.49l-13.657-18.119 68.479-185.394 15.739 8.014c3.222 1.641 6.651 2.425 10.027 2.425 7.318 0 14.389-3.685 18.557-10.321 1.629-2.593 4.712-3.82 7.679-3.052l24.563 6.361c7.594 1.966 15.727-.295 21.218-5.906 2.893-2.957 2.841-7.699-.116-10.592-2.959-2.893-7.701-2.841-10.593.117-1.747 1.785-4.332 2.507-6.754 1.879l-24.563-6.361c-9.311-2.413-19.004 1.442-24.12 9.587-1.939 3.087-5.849 4.169-9.099 2.514l-17.301-8.809 24.259-65.704 9.435 11.619c1.648 2.029 4.231 3.052 6.825 2.7 2.589-.353 4.808-2.03 5.855-4.426l37.217-85.264 35.327 99.66-15.066 17.298c-2.717 3.12-2.391 7.851.729 10.568 3.12 2.716 7.851 2.39 10.567-.729l9.517-10.927 69.044 194.777c2.523 7.117 8.684 12.487 16.08 14.014l15.78 3.258c2.602.537 4.651 2.561 5.22 5.156l31.59 144.034h-164.136z"/><path d="m144.706 416.264c-3.511 2.188-4.584 6.807-2.396 10.318l18.392 29.516c1.42 2.279 3.864 3.53 6.364 3.53 1.352 0 2.722-.366 3.954-1.134 3.511-2.188 4.584-6.807 2.396-10.318l-18.392-29.516c-2.186-3.511-6.808-4.585-10.318-2.396z"/></g></g></svg>