<svg id="Capa_1" enable-background="new 0 0 512 512" viewBox="0 0 512 512" xmlns="http://www.w3.org/2000/svg"><g><path d="m94.006 270.812h151.53c4.142 0 7.5-3.357 7.5-7.5s-3.358-7.5-7.5-7.5h-151.53c-4.142 0-7.5 3.357-7.5 7.5s3.358 7.5 7.5 7.5z"/><path d="m464.877 353.21c0-17.952-14.605-32.557-32.557-32.557h-25.178v-5.184c0-7.545-2.848-14.726-8.019-20.221l-52.771-56.061c-7.274-7.726-17.125-11.981-27.735-11.981-9.885 0-19.107 3.697-26.205 10.449 0-15.373 0-73.496 0-96.836 0-14.872-12.094-26.971-26.96-26.971h-22.49c.001-10.664.004-80.799.004-88.997.001-13.703-11.148-24.851-24.852-24.851h-96.686c-13.704 0-24.852 11.148-24.853 24.853 0 8.872-.003 77.627-.003 88.997h-22.48c-14.871 0-26.97 12.099-26.97 26.971v54.59c0 4.143 3.358 7.5 7.5 7.5s7.5-3.357 7.5-7.5v-8.103h48.855l16.254 25.512c3.025 4.75 8.194 7.586 13.826 7.586h57.427c5.632 0 10.801-2.836 13.826-7.585l16.254-25.513h48.848v66.19l-39.302 41.752c-5.171 5.494-8.019 12.675-8.019 20.22v5.184h-25.182c-9.18 0-17.478 3.825-23.402 9.957h-87.505c-4.142 0-7.5 3.357-7.5 7.5s3.358 7.5 7.5 7.5h79.256c-.586 2.44-.905 4.982-.905 7.6v52.2h-78.351c-4.142 0-7.5 3.357-7.5 7.5s3.358 7.5 7.5 7.5h78.352v33.78c-15.424 0-88.197 0-98.262 0-6.6 0-11.97-5.365-11.97-11.96v-211.821c0-4.143-3.358-7.5-7.5-7.5s-7.5 3.357-7.5 7.5v211.82c0 14.073 10.844 25.655 24.617 26.851-1.605 3.764-2.477 7.863-2.477 12.098 0 16.994 13.826 30.82 30.82 30.82s30.82-13.826 30.82-30.82c0-4.194-.856-8.255-2.431-11.989h43.882v10.253c0 17.952 14.605 32.557 32.557 32.557h96.205c4.142 0 7.5-3.357 7.5-7.5s-3.358-7.5-7.5-7.5h-38.771v-108.73h112.541v108.73h-38.771c-4.142 0-7.5 3.357-7.5 7.5s3.358 7.5 7.5 7.5h96.205c17.952 0 32.557-14.604 32.557-32.557.001-16.219.001-111.356.001-126.233zm-348.975 127.97c0 8.724-7.097 15.82-15.82 15.82s-15.82-7.097-15.82-15.82c0-4.658 2.026-9.008 5.501-11.989h20.637c3.476 2.98 5.502 7.33 5.502 11.989zm333.975-127.97v20.06h-25.483v-37.616h7.927c9.68-.001 17.556 7.875 17.556 17.556zm-148.074-103.738c4.411-4.685 10.382-7.265 16.815-7.265s12.404 2.58 16.814 7.264l52.77 56.059c2.542 2.701 3.941 6.231 3.941 9.94v5.184h-99.73v-61.206zm-87.53-135.622v-39.609h13.691v39.608h-13.691zm-74.001 0c0-.149-.003-61.78-.003-63.573 19.591 4.918 39.413 4.918 59.004 0 0 14.952-.001 48.144-.001 63.573zm-28.697-88.997c0-5.433 4.42-9.853 9.853-9.853h96.686c5.433 0 9.852 4.42 9.852 9.853v34.389h-13.693v-12.045c0-3.979-1.816-7.642-4.982-10.05-3.167-2.411-7.183-3.182-11.021-2.119-18.912 5.238-38.089 5.238-57 0-3.836-1.062-7.853-.29-11.021 2.119-3.166 2.408-4.981 6.071-4.981 10.051v12.043h-13.694v-34.388zm-.002 49.388h13.698v39.608h-13.698zm88.087 130.52c-.257.403-.696.645-1.175.645h-57.427c-.479 0-.917-.241-1.175-.646l-11.119-17.452h82.016zm-137.537-32.453v-31.488c0-6.601 5.37-11.971 11.97-11.971h191.36c6.595 0 11.96 5.37 11.96 11.971v31.487h-215.29zm182.969 143.162c0-3.709 1.4-7.239 3.941-9.939l28.379-30.148v45.271h-32.32zm-40.181 20.183h7.927v37.616h-25.483v-20.06c-.001-9.68 7.875-17.556 17.556-17.556zm-17.557 143.79v-91.173h25.483v108.73h-7.927c-9.68 0-17.556-7.876-17.556-17.557zm40.483 17.557v-161.347h19.508v45.058c0 .02-.003.039-.003.058s.003.039.003.058v116.173zm34.508-123.73v-37.616h112.541v37.616zm127.541-37.617h19.508v161.347h-19.508zm42.435 161.347h-7.927v-108.73h25.483v91.174c0 9.68-7.876 17.556-17.556 17.556z"/><path d="m342.228 416.401c0-4.143-3.358-7.5-7.5-7.5h-32.224c-4.142 0-7.5 3.357-7.5 7.5s3.358 7.5 7.5 7.5h32.224c4.142 0 7.5-3.357 7.5-7.5z"/></g><g/><g/><g/><g/><g/><g/><g/><g/><g/><g/><g/><g/><g/><g/><g/></svg>