<svg id="Capa_1" enable-background="new 0 0 512 512" viewBox="0 0 512 512" xmlns="http://www.w3.org/2000/svg"><g><path d="m49.92 215.808h-6.377c-4.142 0-7.5 3.358-7.5 7.5s3.358 7.5 7.5 7.5h6.377c4.142 0 7.5-3.358 7.5-7.5s-3.358-7.5-7.5-7.5z"/><path d="m94.097 230.808h6.378c4.142 0 7.5-3.358 7.5-7.5s-3.358-7.5-7.5-7.5h-6.378c-4.142 0-7.5 3.358-7.5 7.5s3.358 7.5 7.5 7.5z"/><path d="m49.92 261.557h-6.377c-4.142 0-7.5 3.358-7.5 7.5s3.358 7.5 7.5 7.5h6.377c4.142 0 7.5-3.358 7.5-7.5s-3.358-7.5-7.5-7.5z"/><path d="m100.475 276.557c4.142 0 7.5-3.358 7.5-7.5s-3.358-7.5-7.5-7.5h-6.378c-4.142 0-7.5 3.358-7.5 7.5s3.358 7.5 7.5 7.5z"/><path d="m49.92 307.306h-6.377c-4.142 0-7.5 3.358-7.5 7.5s3.358 7.5 7.5 7.5h6.377c4.142 0 7.5-3.358 7.5-7.5s-3.358-7.5-7.5-7.5z"/><path d="m49.92 353.055h-6.377c-4.142 0-7.5 3.358-7.5 7.5s3.358 7.5 7.5 7.5h6.377c4.142 0 7.5-3.358 7.5-7.5s-3.358-7.5-7.5-7.5z"/><path d="m49.92 398.804h-6.377c-4.142 0-7.5 3.358-7.5 7.5s3.358 7.5 7.5 7.5h6.377c4.142 0 7.5-3.358 7.5-7.5s-3.358-7.5-7.5-7.5z"/><path d="m502.94 236.45c4.142 0 7.5-3.358 7.5-7.5v-24.06c0-10.312-8.384-18.7-18.69-18.7h-143.53c-10.312 0-18.7 8.389-18.7 18.7v80.98h-139.546l-15.746-90.209c-.712-4.08-4.598-6.812-8.678-6.099-4.081.712-6.811 4.597-6.099 8.678l15.296 87.63h-32.287v-100.09c0-9.296-7.563-16.86-16.86-16.86h-8.85v-18.16c0-7.096-4.785-13.363-11.645-15.245l-8.402-2.294 4.421-25.321h42.552l9.605 54.991c.712 4.077 4.593 6.811 8.679 6.098 4.081-.713 6.811-4.598 6.098-8.679l-9.155-52.41h1.138c6.379 0 11.569-5.19 11.569-11.569v-25.014c0-6.379-5.19-11.569-11.569-11.569h-2.932v-.148c0-15.974-11.844-29.228-27.21-31.456v-20.644c0-4.142-3.358-7.5-7.5-7.5s-7.5 3.358-7.5 7.5v20.645c-15.365 2.227-27.209 15.481-27.209 31.455v.148h-2.933c-6.379 0-11.57 5.19-11.57 11.569v25.013c0 6.379 5.19 11.569 11.57 11.569h1.14l-3.728 21.353-38.104-10.404c-4.029-1.105-8.244-.287-11.565 2.245-3.324 2.534-5.23 6.386-5.23 10.567v37.26h-8.85c-9.296 0-16.86 7.563-16.86 16.86v258.05c0 9.296 7.563 16.86 16.86 16.86h72.09v4.41c0 10.852 8.833 19.68 19.69 19.68h31.456c1.905 15.321 14.998 27.22 30.827 27.22s28.921-11.899 30.826-27.22h105.382c1.905 15.321 14.998 27.22 30.827 27.22s28.922-11.899 30.827-27.22h31.455c10.857 0 19.69-8.828 19.69-19.68v-4.41h70.26c10.306 0 18.69-8.389 18.69-18.7v-178.04c0-4.142-3.358-7.5-7.5-7.5s-7.5 3.358-7.5 7.5v178.04c0 2.04-1.655 3.7-3.69 3.7h-70.26v-125.72c0-18.803-15.297-34.1-34.1-34.1h-42.87v-80.98c0-2.041 1.66-3.7 3.7-3.7h143.53c2.035 0 3.69 1.66 3.69 3.7v24.06c0 4.142 3.358 7.5 7.5 7.5zm-414.753-161.702h68.424v18.151h-68.424zm14.503-15.148c0-9.258 7.532-16.79 16.79-16.79h5.84c9.258 0 16.79 7.532 16.79 16.79v.148h-39.42zm-60.42 74.307 58.876 16.076c.355.098.604.417.604.777v18.16h-59.48zm-23.85 311.783c-1.025 0-1.86-.834-1.86-1.86v-258.05c0-1.025.834-1.86 1.86-1.86h107.18c1.025 0 1.86.834 1.86 1.86v100.09h-17.26c-10.857 0-19.69 8.833-19.69 19.69v140.13zm214.086-95.879v41.173h-55.997v-41.173zm70.825 0c.095 0 .172.077.172.172v40.828c0 .095-.077.173-.172.173h-55.824v-41.173zm-141.822 41.173h-56v-41.173h56zm10.973 106.016c-8.863 0-16.074-7.211-16.074-16.074s7.211-16.074 16.074-16.074 16.074 7.211 16.074 16.074-7.21 16.074-16.074 16.074zm167.036 0c-8.863 0-16.074-7.211-16.074-16.074s7.211-16.074 16.074-16.074 16.074 7.211 16.074 16.074-7.211 16.074-16.074 16.074zm66.972-70.127h-29.627c-3.458 0-6.271-2.813-6.271-6.271v-64.52c0-3.458 2.813-6.271 6.271-6.271h29.627zm0-106.903v14.841h-29.627c-11.729 0-21.271 9.542-21.271 21.271v64.52c0 11.729 9.542 21.271 21.271 21.271h29.627v23.227c0 2.581-2.104 4.68-4.69 4.68h-33.283c-4.491-11.643-15.792-19.928-28.999-19.928s-24.508 8.285-28.999 19.928h-109.038c-4.49-11.643-15.792-19.928-28.998-19.928s-24.508 8.285-28.999 19.928h-33.284c-2.586 0-4.69-2.099-4.69-4.68v-59.116h197.821c8.366 0 15.172-6.807 15.172-15.173v-40.828c0-8.366-6.806-15.172-15.172-15.172h-197.821v-29.251c0-2.586 2.104-4.69 4.69-4.69h277.19c10.532 0 19.1 8.568 19.1 19.1z"/><path d="m479.354 236.625c0-6.92-5.63-12.55-12.55-12.55h-19.649c-6.92 0-12.55 5.63-12.55 12.55v19.649c0 6.92 5.63 12.55 12.55 12.55h19.649c6.92 0 12.55-5.63 12.55-12.55zm-15 17.199h-14.75v-14.75h14.75z"/><path d="m479.354 313.617c0-6.92-5.63-12.55-12.55-12.55h-19.649c-6.92 0-12.55 5.63-12.55 12.55v19.648c0 6.92 5.63 12.55 12.55 12.55h19.649c6.92 0 12.55-5.63 12.55-12.55zm-15 17.199h-14.75v-14.749h14.75z"/><path d="m466.804 378.059h-19.649c-6.92 0-12.55 5.63-12.55 12.55v19.649c0 6.92 5.63 12.55 12.55 12.55h19.649c6.92 0 12.55-5.63 12.55-12.55v-19.649c0-6.92-5.63-12.55-12.55-12.55zm-2.45 29.75h-14.75v-14.75h14.75z"/><path d="m373.163 224.074c-6.92 0-12.551 5.63-12.551 12.55v19.649c0 6.92 5.63 12.55 12.551 12.55h19.648c6.92 0 12.55-5.63 12.55-12.55v-19.649c0-6.92-5.63-12.55-12.55-12.55zm17.199 29.75h-14.75v-14.75h14.75z"/><path d="m255.898 104.998c6.734 0 13.064-2.623 17.826-7.384 4.762-4.762 7.384-11.092 7.384-17.826s-2.623-13.065-7.384-17.826c-4.762-4.762-11.092-7.384-17.826-7.384s-13.065 2.623-17.826 7.384c-9.83 9.829-9.83 25.823 0 35.652 4.761 4.761 11.092 7.384 17.826 7.384zm0-35.42c5.641 0 10.21 4.566 10.21 10.21 0 2.727-1.062 5.291-2.991 7.219s-4.492 2.991-7.219 2.991c-5.642 0-10.21-4.566-10.21-10.21 0-5.642 4.566-10.21 10.21-10.21z"/><path d="m245.988 151.37c2.647 2.648 6.168 4.107 9.913 4.107 3.744 0 7.265-1.458 9.913-4.106l30.833-30.833c10.884-10.884 16.877-25.355 16.876-40.749-.001-15.392-5.995-29.861-16.876-40.742-11.015-11.015-25.678-17.004-41.236-16.881-15.568.128-30.11 6.367-40.944 17.566-21.723 22.453-21.155 58.96 1.266 81.381zm-20.742-101.208c8.016-8.286 18.773-12.901 30.288-12.996.122-.001.242-.002.364-.002 11.387 0 22.08 4.428 30.142 12.49 8.048 8.048 12.481 18.751 12.482 30.136.001 11.387-4.432 22.091-12.482 30.142l-30.139 30.139-29.563-29.563c-16.668-16.669-17.158-43.74-1.092-60.346z"/><path d="m263.5 178.062c0-4.142-3.358-7.5-7.5-7.5s-7.5 3.358-7.5 7.5v3.914c0 4.142 3.358 7.5 7.5 7.5s7.5-3.358 7.5-7.5z"/><path d="m263.5 215.152c0-4.142-3.358-7.5-7.5-7.5s-7.5 3.358-7.5 7.5v3.915c0 4.142 3.358 7.5 7.5 7.5s7.5-3.358 7.5-7.5z"/><path d="m256 244.742c-4.142 0-7.5 3.358-7.5 7.5v3.915c0 4.142 3.358 7.5 7.5 7.5s7.5-3.358 7.5-7.5v-3.915c0-4.142-3.358-7.5-7.5-7.5z"/></g><g/><g/><g/><g/><g/><g/><g/><g/><g/><g/><g/><g/><g/><g/><g/></svg>