<svg id="Capa_1" enable-background="new 0 0 512 512" viewBox="0 0 512 512" xmlns="http://www.w3.org/2000/svg"><g><path d="m492.51 497h-28.634c-3.562-20.25-21.268-35.689-42.523-35.689h-10.123v-29.453c5.001-1.53 8.291-4.41 10.9-6.703 2.967-2.607 4.601-4.044 8.499-4.044s5.532 1.436 8.499 4.044c3.734 3.281 8.85 7.775 18.401 7.775h.138c4.657-.011 8.963-2.555 11.235-6.639 2.298-4.127 2.186-9.185-.291-13.2l-15.602-25.275c2.838-.935 5.291-2.89 6.79-5.583 2.146-3.853 2.044-8.574-.269-12.332l-16.201-26.249c3.092-.694 5.805-2.659 7.38-5.5 1.983-3.577 1.884-7.959-.262-11.436l-36.741-59.54c-2.15-3.484-5.878-5.565-9.973-5.565s-7.823 2.081-9.974 5.565l-36.742 59.539c-2.147 3.479-2.247 7.862-.261 11.441 1.575 2.84 4.288 4.804 7.38 5.497l-16.205 26.254c-2.31 3.752-2.412 8.477-.267 12.33 1.497 2.69 3.948 4.644 6.791 5.578l-15.601 25.275c-2.478 4.015-2.589 9.073-.292 13.202 2.272 4.083 6.574 6.626 11.244 6.637h.11c9.56 0 14.676-4.496 18.412-7.779 2.965-2.604 4.598-4.04 8.488-4.04 3.896 0 5.531 1.436 8.499 4.042 2.612 2.294 5.904 5.177 10.911 6.707v29.452h-6.302c-1.712 0-3.322-.67-4.42-1.838-5.029-5.351-11.269-9.636-18.042-12.392-3.837-1.558-8.212.284-9.773 4.121s.284 8.212 4.121 9.773c4.789 1.948 9.203 4.981 12.764 8.77 3.921 4.173 9.516 6.565 15.351 6.565h31.424c12.947 0 23.884 8.774 27.176 20.689h-194.935c6.541-10.207 18-16.758 30.54-16.758 2.398 0 4.792.235 7.115.699 10.929 2.18 22.251-1.695 29.549-10.112 3.362-3.878 7.591-7.058 12.228-9.196 3.761-1.735 5.403-6.19 3.669-9.952-1.734-3.761-6.189-5.402-9.952-3.669-6.556 3.024-12.53 7.516-17.278 12.99-3.205 3.697-7.915 5.687-12.721 5.518v-147.928l5.54 2.465c3.767 1.676 8.209-.001 9.901-3.804 1.684-3.784-.019-8.217-3.804-9.901l-46.72-20.79 55.548-97.759h15.41c6.309 0 12.007 3.492 14.871 9.113l8.507 16.694c4.122 8.088 11.998 13.11 21.07 13.434.311.012.618.017.926.017 8.703 0 16.522-4.405 21.051-11.914l5.085-8.434c2.371-3.932 6.695-6.374 11.287-6.374h19.892l50.684 89.208c2.046 3.602 6.625 4.862 10.226 2.816 3.602-2.047 4.862-6.625 2.815-10.227l-89.979-158.372c-7.531-13.247-21.126-21.155-36.363-21.155-15.234.003-28.824 7.912-36.348 21.157l-88.451 155.668-72.344-32.193c-8.347-3.721-17.922-3.72-26.265-.002l-132.836 59.113c-3.785 1.685-5.487 6.117-3.804 9.901 1.684 3.785 6.119 5.485 9.901 3.804l5.544-2.467v28.753c0 4.143 3.357 7.5 7.5 7.5s7.5-3.357 7.5-7.5v-35.428l112.298-49.972c4.467-1.99 9.591-1.99 14.061.002l112.298 49.972v99.149h-25.647v-27.697c0-7.824-6.365-14.189-14.189-14.189h-20.497c-7.824 0-14.19 6.365-14.19 14.189v27.697h-20.368v-27.697c0-7.824-6.365-14.189-14.189-14.189h-20.497c-7.824 0-14.189 6.365-14.189 14.189v27.697h-20.369v-27.697c0-7.824-6.365-14.189-14.189-14.189h-20.5c-7.824 0-14.189 6.365-14.189 14.189v27.697h-25.647v-28.725c0-4.143-3.357-7.5-7.5-7.5s-7.5 3.357-7.5 7.5v122.16c0 4.143 3.357 7.5 7.5 7.5h456.928c4.143 0 7.5-3.357 7.5-7.5.001-4.143-3.357-7.5-7.499-7.5zm-88.776-217.421 26.414 42.804c-.954-.423-2.008-.783-3.166-1.056l-.028-.007c-1.393-.326-2.938-.524-4.673-.524-7.465 0-11.533 3.575-14.227 5.941-2.034 1.788-2.58 2.21-4.325 2.21s-2.291-.422-4.326-2.21c-2.692-2.366-6.762-5.941-14.227-5.941-3.184 0-5.749.65-7.853 1.58zm-17.214 56.372c.874.241 1.574.816 2.983 2.055 2.692 2.366 6.762 5.941 14.227 5.941 7.466 0 11.534-3.576 14.227-5.942 1.414-1.243 2.113-1.817 2.992-2.057l20.507 33.224c-3.096-2.608-7.609-5.722-14.996-5.722-8.515 0-13.213 4.131-16.322 6.864-2.516 2.211-3.557 3.126-6.407 3.126-2.858 0-3.9-.916-6.419-3.13-3.108-2.731-7.805-6.86-16.311-6.86-7.369 0-11.879 3.098-14.974 5.703zm8.699 77.933c-3.734-3.281-8.849-7.773-18.398-7.773-9.545 0-14.657 4.492-18.39 7.772-1.697 1.491-2.958 2.6-4.456 3.275l23.278-37.715c1.067-.677 2.108-.992 3.747-.992 2.852 0 3.893.915 6.408 3.127 3.109 2.732 7.809 6.863 16.322 6.863 8.506 0 13.203-4.129 16.31-6.86 2.518-2.214 3.561-3.13 6.419-3.13 1.646 0 2.69.317 3.761 1.001l23.281 37.717c-1.505-.675-2.769-1.786-4.471-3.282-3.734-3.281-8.85-7.775-18.401-7.775-9.553 0-14.667 4.494-18.401 7.776-2.967 2.606-4.601 4.043-8.498 4.043-3.905-.001-5.541-1.439-8.511-4.047zm-45.837-281.709c4.824-8.493 13.539-13.564 23.307-13.566 9.771 0 18.491 5.072 23.321 13.567l30.773 54.162h-11.369c-9.817 0-19.064 5.223-24.133 13.629l-5.085 8.433c-1.833 3.04-5.038 4.797-8.596 4.653-3.548-.126-6.629-2.091-8.24-5.254l-8.507-16.694c-5.438-10.673-16.258-17.303-28.236-17.303h-6.887zm-127.166 252.003h18.877v26.887h-18.877zm-69.244 0h18.876v26.887h-18.876zm-69.244 0h18.876v26.887h-18.876zm18.875 112.822h-18.875v-26.888h18.876v26.888zm69.245 0h-18.876v-26.888h18.876zm69.242-8.269c-1.682 2.595-3.136 5.36-4.334 8.269h-14.536v-26.89h18.87zm.811-33.62h-20.49c-7.824 0-14.19 6.365-14.19 14.189v27.7h-20.372v-27.698c0-7.824-6.365-14.189-14.189-14.189h-20.497c-7.824 0-14.189 6.365-14.189 14.189v27.698h-20.369v-27.698c0-7.824-6.365-14.189-14.189-14.189h-20.499c-7.824 0-14.189 6.365-14.189 14.189v27.698h-25.647v-70.935h238.659v39.238c-9.319.439-18.135 3.431-25.65 8.361v-4.364c0-7.824-6.365-14.189-14.189-14.189z"/><path d="m19.492 142.374c.852 0 1.718-.146 2.564-.454l82.576-30.055v32.27h-13.601c-6.171 0-11.952 3.303-15.085 8.62l-15.144 25.695c-3.208 5.445-3.249 12.265.001 17.779l15.144 25.696c3.133 5.316 8.914 8.619 15.085 8.619h42.203c6.171 0 11.952-3.303 15.086-8.62l15.142-25.694c3.237-5.49 3.226-12.31 0-17.78l-15.143-25.694c-3.132-5.317-8.912-8.621-15.085-8.621h-13.602v-37.73l120.746-43.948v32.27h-13.602c-6.172 0-11.952 3.303-15.084 8.619l-15.144 25.695c-3.208 5.443-3.25 12.266 0 17.78l15.143 25.695c3.133 5.316 8.913 8.619 15.085 8.619h42.203c6.171 0 11.951-3.302 15.085-8.619l15.145-25.696c3.213-5.455 3.243-12.273-.001-17.779l-15.144-25.696c-3.134-5.316-8.914-8.618-15.085-8.618h-13.602v-37.73l116.627-42.449c3.892-1.417 5.899-5.721 4.482-9.613s-5.72-5.897-9.613-4.482l-349.948 127.371c-3.892 1.417-5.899 5.721-4.482 9.613 1.108 3.046 3.984 4.937 7.048 4.937zm251.651 22.527c-.449.762-1.278 1.235-2.163 1.235h-42.203c-.885 0-1.713-.473-2.162-1.234l-11.475-19.47h69.477zm-2.163-55.173c.885 0 1.714.474 2.163 1.234l11.475 19.471h-69.478l11.476-19.471c.448-.762 1.277-1.234 2.162-1.234zm-133.583 104.58c-.449.763-1.278 1.236-2.163 1.236h-42.203c-.885 0-1.714-.474-2.163-1.235l-11.474-19.47h69.476zm-2.163-55.173c.885 0 1.712.473 2.162 1.235l11.474 19.47h-69.476l11.475-19.47c.449-.763 1.278-1.235 2.163-1.235z"/><path d="m152.162 341.125h20.497c7.824 0 14.189-6.365 14.189-14.189v-20.174c0-7.824-6.365-14.189-14.189-14.189h-20.497c-7.824 0-14.189 6.365-14.189 14.189v20.174c-.001 7.823 6.365 14.189 14.189 14.189zm.81-33.553h18.876v18.553h-18.876z"/></g><g/><g/><g/><g/><g/><g/><g/><g/><g/><g/><g/><g/><g/><g/><g/></svg>