<svg id="Capa_1" enable-background="new 0 0 512 512" viewBox="0 0 512 512" xmlns="http://www.w3.org/2000/svg"><g><path d="m493.555 138.936-30.509-36.723c-7.192-8.656-17.772-13.621-29.026-13.621h-37.512c-7.596 0-13.775 6.18-13.775 13.775v9.323c-43.833 0-303.723 0-339.112 0-9.649 0-17.5 7.851-17.5 17.5v27.155h-8.621c-9.649 0-17.5 7.851-17.5 17.5v139.83c0 4.143 3.358 7.5 7.5 7.5s7.5-3.357 7.5-7.5v-23.134h114.151c9.649 0 17.5-7.851 17.5-17.5v-40.056c0-9.649-7.851-17.5-17.5-17.5h-114.151v-41.641c0-1.379 1.122-2.5 2.5-2.5h364.007c8.947 0 16.226-7.278 16.226-16.226v-51.528h23.664v44.392c0 15.163 12.337 27.5 27.5 27.5h46.443c1.09 4.736 1.66 9.604 1.66 14.516v25.487h-69.885c-9.649 0-17.5 7.851-17.5 17.5v69.758c0 7.36 4.655 13.979 11.583 16.469l75.802 27.237v28.181c0 1.379-1.121 2.5-2.5 2.5h-58.059c.052-.921.084-1.847.084-2.781 0-27.051-22.008-49.059-49.059-49.059s-49.059 22.008-49.059 49.059c0 .934.032 1.86.084 2.781h-66.294v-144.144c0-9.649-7.851-17.5-17.5-17.5h-68.108c-9.649 0-17.5 7.851-17.5 17.5v144.144h-33.365c.052-.921.084-1.847.084-2.781 0-27.051-22.008-49.059-49.059-49.059s-49.059 22.008-49.059 49.059c0 .934.032 1.86.084 2.781h-20.274c-1.378 0-2.5-1.121-2.5-2.5v-25.95c0-4.143-3.358-7.5-7.5-7.5s-7.5 3.357-7.5 7.5v25.95c0 9.649 7.851 17.5 17.5 17.5h23.54c7.138 18.285 24.929 31.278 45.71 31.278 20.78 0 38.572-12.994 45.709-31.278h209.297c7.138 18.285 24.929 31.278 45.709 31.278s38.572-12.994 45.709-31.278h61.326c9.649 0 17.5-7.851 17.5-17.5v-75.72c0-4.143-3.357-7.5-7.5-7.5s-7.5 3.357-7.5 7.5v31.599l-70.729-25.414c-.99-.355-1.655-1.301-1.655-2.352v-69.758c0-1.379 1.121-2.5 2.5-2.5h69.884v33.424c0 4.143 3.357 7.5 7.5 7.5s7.5-3.357 7.5-7.5v-73.911c0-19.243-7.019-37.309-18.445-51.062zm-361.904 94.05v40.056c0 1.379-1.122 2.5-2.5 2.5h-48.325v-45.056h48.326c1.378 0 2.499 1.121 2.499 2.5zm-65.825-2.5v45.056h-50.826v-45.056zm77.18-103.796h35.945v29.655h-35.945zm-15 29.656h-35.945v-29.656h35.945zm65.945-29.656h35.945v29.655h-35.945zm50.945 0h35.945v29.655h-35.945zm50.946 0h35.945v29.655h-35.945zm-254.722 2.5c0-1.379 1.122-2.5 2.5-2.5h33.441v29.655h-35.941zm340.387 27.156h-34.72v-29.656h35.945v28.43c0 .676-.549 1.226-1.225 1.226zm-294.757 252.062c-18.78 0-34.059-15.279-34.059-34.06s15.278-34.058 34.059-34.058c18.78 0 34.059 15.278 34.059 34.059s-15.28 34.059-34.059 34.059zm97.339-175.422c0-1.379 1.122-2.5 2.5-2.5h68.108c1.378 0 2.5 1.121 2.5 2.5v144.144h-73.108zm203.377 175.422c-18.78 0-34.059-15.279-34.059-34.06s15.278-34.059 34.059-34.059 34.059 15.278 34.059 34.059-15.279 34.06-34.059 34.06zm61.43-247.925c-6.893 0-12.5-5.607-12.5-12.5v-44.265c5.877.612 11.289 3.479 15.112 8.08l30.509 36.723c3.075 3.702 5.706 7.719 7.87 11.962z"/><path d="m357.96 290.542c9.649 0 17.5-7.851 17.5-17.5v-40.056c0-9.649-7.851-17.5-17.5-17.5h-45.825c-9.649 0-17.5 7.851-17.5 17.5v40.056c0 9.649 7.851 17.5 17.5 17.5zm-48.325-17.5v-40.056c0-1.379 1.121-2.5 2.5-2.5h45.825c1.379 0 2.5 1.121 2.5 2.5v40.056c0 1.379-1.121 2.5-2.5 2.5h-45.825c-1.379 0-2.5-1.121-2.5-2.5z"/><path d="m231.646 243.538h-22.004c-6.893 0-12.5 5.607-12.5 12.5v22.004c0 6.893 5.607 12.5 12.5 12.5h22.004c6.893 0 12.5-5.607 12.5-12.5v-22.004c0-6.892-5.608-12.5-12.5-12.5zm-2.5 32.004h-17.004v-17.004h17.004z"/><path d="m86.75 351.85c-12.407 0-22.5 10.093-22.5 22.499 0 12.407 10.093 22.501 22.5 22.501s22.5-10.094 22.5-22.501-10.094-22.499-22.5-22.499zm0 30c-4.136 0-7.5-3.365-7.5-7.501 0-4.135 3.364-7.499 7.5-7.499s7.5 3.364 7.5 7.499-3.365 7.501-7.5 7.501z"/><path d="m387.466 351.85c-12.406 0-22.5 10.093-22.5 22.499 0 12.407 10.094 22.501 22.5 22.501s22.5-10.094 22.5-22.501-10.094-22.499-22.5-22.499zm0 30c-4.136 0-7.5-3.365-7.5-7.501 0-4.135 3.364-7.499 7.5-7.499s7.5 3.364 7.5 7.499-3.364 7.501-7.5 7.501z"/></g><g/><g/><g/><g/><g/><g/><g/><g/><g/><g/><g/><g/><g/><g/><g/></svg>