<svg id="Capa_1" enable-background="new 0 0 512 512" viewBox="0 0 512 512" xmlns="http://www.w3.org/2000/svg"><g><path d="m504.48 439.028c-4.577-2.292-9.95-1.82-14.042 1.242-3.841 2.893-8.422 4.421-13.248 4.421-6.163 0-11.873-2.471-16.081-6.961-2.566-2.736-6.179-4.307-9.911-4.311h-.015c-3.731 0-7.348 1.566-9.927 4.304-4.228 4.494-9.947 6.969-16.106 6.969s-11.88-2.475-16.112-6.974c-2.574-2.732-6.19-4.299-9.922-4.299h-.015c-3.732.004-7.345 1.575-9.904 4.303-4.28 4.55-10.254 7.197-16.955 6.94-11.677-11.088-27.439-17.913-44.775-17.913h-38.866l34.545-59.835 60.963 35.197c7.173 4.142 16.299.25 18.307-7.823 1.56-6.273 2.464-12.736 2.688-19.208.145-4.14-3.095-7.612-7.234-7.756-4.107-.134-7.611 3.095-7.756 7.235-.15 4.305-.658 8.604-1.514 12.823l-26.915-15.54c7.205-17.557 11.461-33.855 12.527-47.531 4.327 5.715 7.886 12.047 10.563 18.916 1.504 3.859 5.852 5.77 9.711 4.265 3.86-1.504 5.77-5.852 4.266-9.711-6.792-17.43-19.98-33.252-33.999-42.937l3.064-5.307c2.071-3.587.842-8.174-2.745-10.245-3.59-2.072-8.176-.842-10.245 2.746l-3.062 5.303c-32.213-15.263-76.022-10.795-104.952 17.106-2.858 2.756-4.222 6.59-3.741 10.521.479 3.907 2.709 7.276 6.119 9.245l60.965 35.198-38.875 67.335h-59.348l-29.539-307.545h9.406c4.143 0 7.5-3.358 7.5-7.5s-3.357-7.5-7.5-7.5h-20.913v-41.68h5.283c4.558 0 8.487-2.776 10.01-7.072 1.523-4.295.22-8.926-3.32-11.796l-34.589-28.049c-10.512-8.522-25.769-8.523-36.28 0l-34.589 28.049c-3.54 2.871-4.844 7.501-3.32 11.797 1.522 4.295 5.451 7.071 10.009 7.071h5.284v41.682h-20.913c-4.143 0-7.5 3.358-7.5 7.5s3.357 7.5 7.5 7.5h9.403l-29.539 307.546h-34.665c-7.533 0-13.661 6.128-13.661 13.661v48.712c0 7.533 6.128 13.665 13.661 13.665h484.679c7.532 0 13.66-6.124 13.66-13.656v-37.95c0-5.173-2.882-9.83-7.52-12.153zm-204.744-102.951c14.954-18.945 30.766-32.427 42.833-36.431 2.839 1.212 5.627 2.601 8.346 4.171 2.717 1.568 5.307 3.285 7.78 5.125 2.574 12.45-1.195 32.894-10.129 55.328zm21.664-42.11c-11.277 7.763-23.222 19.567-34.784 34.535l-26.916-15.54c17.087-15.103 39.756-21.686 61.7-18.995zm-142.888-58.301h-96.764l2.578-26.841h91.607zm1.44 15 1.965 20.459h-103.575l1.965-20.459zm-5.459-56.84h-88.726l1.965-20.459h84.796zm-101.61 134.141h21.172c4.143 0 7.5-3.358 7.5-7.5s-3.357-7.5-7.5-7.5h-19.732l2.578-26.841h106.457l2.578 26.841h-56.882c-4.143 0-7.5 3.358-7.5 7.5s3.357 7.5 7.5 7.5h58.322l1.965 20.458h-118.423zm48.555-300.711c5.034-4.084 12.346-4.085 17.386 0l24.991 20.266h-67.368zm-17.063 35.265h51.513v41.682h-51.513zm62.95 56.683 3.762 39.163h-81.914l3.762-39.163zm-97.848 244.221h121.306l6.082 63.324h-40.655v-26.138c0-12.98-10.56-23.54-23.54-23.54h-5.08c-12.975 0-23.53 10.56-23.53 23.54v26.138h-40.665zm49.583 63.324v-26.138c0-4.709 3.827-8.54 8.53-8.54h5.08c4.709 0 8.54 3.831 8.54 8.54v26.138zm-104.06 61.037v-46.037h312.468c26.256 0 47.858 20.305 49.931 46.037zm482 .004h-104.578c-.665-10.75-3.939-20.805-9.213-29.527 5.947-1.695 11.447-4.852 15.911-9.238 6.912 6.795 16.318 10.667 26.03 10.667 9.714 0 19.12-3.872 26.028-10.665 6.894 6.795 16.292 10.665 26.012 10.665 7.106 0 13.9-1.976 19.81-5.732z"/><path d="m371.523 94.068h13.807c1.065 5.736 3.321 11.056 6.512 15.69l-9.773 9.773c-2.929 2.929-2.929 7.678 0 10.606 1.465 1.464 3.385 2.197 5.304 2.197s3.839-.732 5.304-2.197l9.772-9.772c4.635 3.19 9.955 5.447 15.691 6.512v13.808c0 4.142 3.357 7.5 7.5 7.5s7.5-3.358 7.5-7.5v-13.808c5.735-1.065 11.055-3.321 15.69-6.511l9.772 9.772c1.465 1.464 3.385 2.197 5.304 2.197s3.839-.732 5.304-2.197c2.929-2.929 2.929-7.678 0-10.606l-9.773-9.773c3.19-4.635 5.447-9.955 6.511-15.69h13.808c4.143 0 7.5-3.358 7.5-7.5s-3.357-7.5-7.5-7.5h-13.808c-1.065-5.736-3.321-11.056-6.511-15.69l9.773-9.773c2.929-2.929 2.929-7.678 0-10.606-2.93-2.929-7.678-2.929-10.607 0l-9.772 9.772c-4.635-3.19-9.954-5.446-15.69-6.511v-13.809c0-4.142-3.357-7.5-7.5-7.5s-7.5 3.358-7.5 7.5v13.808c-5.736 1.065-11.056 3.321-15.69 6.511l-9.772-9.772c-2.93-2.929-7.678-2.929-10.607 0s-2.929 7.678 0 10.606l9.773 9.773c-3.19 4.635-5.447 9.955-6.512 15.69h-13.807c-4.143 0-7.5 3.358-7.5 7.5s3.355 7.5 7.497 7.5zm54.117-33.508c14.341 0 26.008 11.667 26.008 26.008s-11.667 26.008-26.008 26.008-26.009-11.667-26.009-26.008 11.668-26.008 26.009-26.008z"/><path d="m448.969 214.993c-7.764 0-15.111 3.266-20.347 8.729-5.236-5.464-12.583-8.729-20.347-8.729h-5.961c-4.143 0-7.5 3.358-7.5 7.5s3.357 7.5 7.5 7.5h5.961c5.019 0 9.664 2.923 11.83 7.434l.158.333c1.559 3.242 4.763 5.257 8.36 5.256 3.599-.001 6.802-2.017 8.357-5.256l.153-.319c2.171-4.524 6.816-7.447 11.835-7.447h5.962c4.143 0 7.5-3.358 7.5-7.5s-3.357-7.5-7.5-7.5h-5.961z"/><path d="m256 120.211h5.961c5.019 0 9.664 2.923 11.83 7.434l.158.333c1.559 3.242 4.763 5.257 8.36 5.256 3.599-.001 6.802-2.017 8.357-5.256l.153-.319c2.171-4.524 6.816-7.447 11.835-7.447h5.961c4.143 0 7.5-3.358 7.5-7.5s-3.357-7.5-7.5-7.5h-5.961c-7.765 0-15.111 3.265-20.347 8.729-5.236-5.464-12.584-8.729-20.347-8.729h-5.96c-4.143 0-7.5 3.358-7.5 7.5s3.357 7.499 7.5 7.499z"/></g><g/><g/><g/><g/><g/><g/><g/><g/><g/><g/><g/><g/><g/><g/><g/></svg>