<svg id="Capa_1" enable-background="new 0 0 512 512" viewBox="0 0 512 512" xmlns="http://www.w3.org/2000/svg"><g><path d="m219.621 188.554c4.143 0 7.5-3.358 7.5-7.5v-6.158c0-4.143-3.358-7.5-7.5-7.5s-7.5 3.358-7.5 7.5v6.158c0 4.142 3.357 7.5 7.5 7.5z"/><path d="m292.379 188.554c4.143 0 7.5-3.358 7.5-7.5v-6.158c0-4.143-3.358-7.5-7.5-7.5s-7.5 3.358-7.5 7.5v6.158c-.001 4.142 3.357 7.5 7.5 7.5z"/><path d="m256 237.36c9.077 0 17.862-3.784 24.103-10.383 2.846-3.01 2.714-7.756-.296-10.603-3.011-2.847-7.756-2.715-10.603.296-3.47 3.669-8.16 5.69-13.204 5.69s-9.734-2.021-13.204-5.69c-2.848-3.011-7.595-3.143-10.603-.296-3.01 2.847-3.142 7.593-.296 10.603 6.241 6.599 15.026 10.383 24.103 10.383z"/><path d="m422.699 385.173c0-17.538-6.351-33.824-17.121-46.403v-67.122c0-24.167-9.397-46.869-26.101-63.824h16.561c14.701 0 26.661-11.961 26.661-26.661v-25.951c0-14.701-11.961-26.661-26.661-26.661h-19.958c-.724-4.152-1.89-8.21-3.527-12.13-.101-.24.006-.617.254-.912 6.3-7.462 9.77-16.956 9.77-26.73 0-16.927-10.128-32.005-25.823-38.422-.622-.252-1.078-.745-1.223-1.326-4.462-17.873-18.32-31.785-36.165-36.306-13.087-3.319-27.069-1.143-38.526 5.955-7.643-8.301-17.447-14.141-28.418-16.917-21.87-5.536-45.193 2.213-59.419 19.747-.037.045-.16.084-.324.06-3.823-.504-7.704-.448-11.531.172-4.089.661-6.868 4.512-6.205 8.602.661 4.088 4.499 6.878 8.602 6.205 2.381-.385 4.795-.421 7.166-.108 5.378.718 10.582-1.337 13.941-5.48 10.557-13.012 27.86-18.765 44.089-14.656 8.389 2.122 15.855 6.66 21.591 13.119 4.544 5.117 12.025 6.127 17.801 2.395 8.247-5.349 18.028-6.966 27.548-4.553 12.482 3.162 22.175 12.894 25.295 25.39 1.296 5.215 5.086 9.552 10.12 11.594 10.011 4.093 16.48 13.721 16.48 24.529 0 6.238-2.213 12.294-6.236 17.058-3.908 4.638-4.913 10.916-2.626 16.373 2.119 5.076 3.206 10.475 3.232 16.04.025 6.713-1.605 13.244-4.741 19.182-3.077-1.025-6.363-1.589-9.78-1.589h-7.34v-12.829c0-4.436-2.245-8.48-6.007-10.819-3.784-2.352-8.436-2.579-12.446-.601-3.034 1.497-6.305 2.257-9.718 2.257-5.996 0-11.604-2.371-15.79-6.678-4.618-4.752-11.614-5.96-17.411-2.996-5.681 2.902-11.825 4.373-18.262 4.373-12.22 0-23.635-5.454-31.316-14.965-3.57-4.421-8.937-6.956-14.726-6.956h-13.376c-16.055 0-29.117 13.062-29.117 29.117v20.097h-7.34c-3.417 0-6.703.564-9.78 1.589-3.136-5.938-4.766-12.467-4.741-19.178.025-5.892 1.24-11.583 3.623-16.937 2.18-4.945 1.22-10.762-2.443-14.82-4.392-4.869-6.81-11.162-6.81-17.718 0-8.86 4.413-17.097 11.809-22.035 3.57-2.386 6.082-6.175 6.894-10.383.21-1.083.468-2.082.764-2.971 1.31-3.93-.814-8.178-4.743-9.488-3.933-1.308-8.178.813-9.488 4.743-.5 1.501-.923 3.133-1.26 4.864-.062.316-.24.588-.5.762-11.569 7.725-18.477 20.626-18.477 34.509 0 10.037 3.617 19.679 10.202 27.235-1.729 4.045-2.956 8.239-3.706 12.538h-19.957c-14.701 0-26.661 11.961-26.661 26.661v25.951c0 14.701 11.961 26.661 26.661 26.661h16.561c-16.703 16.955-26.101 39.657-26.101 63.824v67.122c-10.77 12.579-17.121 28.865-17.121 46.403v108.755c0 9.964 8.107 18.071 18.071 18.071h297.255c9.964 0 18.071-8.107 18.071-18.071 0-15.455 0-93.168 0-108.757zm-15.001 46.995h-46.803c0-12.604 0-87.824 0-102.664l4.026.997c10.779 2.673 20.159 8.326 27.372 15.946.191.23.399.445.616.651 9.273 10.113 14.789 23.551 14.789 38.076zm-85.212 38.945c-4.143 0-7.5 3.358-7.5 7.5v18.386h-117.969v-71.446c8.608-.351 15.613-7.022 16.452-15.498h85.062c.839 8.476 7.844 15.147 16.452 15.498v18.064c0 4.143 3.358 7.5 7.5 7.5 4.143 0 7.5-3.358 7.5-7.5v-18.028h15.91v71.411h-15.908v-18.386c.001-4.143-3.356-7.501-7.499-7.501zm-201.063-185.434h23.201c16.834 0 32.717-8.07 42.495-21.594 1.436-1.99 2.993-3.902 4.649-5.732 1.96 2.301 4.047 4.548 6.275 6.723 3.264 3.185 6.708 6.085 10.244 8.699v26.11l-13.469 3.335c-.66-.906-1.443-1.734-2.368-2.434-2.899-2.196-6.567-2.89-10.063-1.906l-22.29 6.263c-4.28 1.208-7.514 4.634-8.597 8.81l-8.03 1.989c-8.026 1.99-15.441 5.284-22.047 9.621zm23.837-69.34c5.303 4.236 12.016 6.777 19.315 6.777h9.05c1.763 7.843 4.885 15.52 9.232 22.82-2.869 2.932-5.517 6.065-7.9 9.368-6.96 9.628-18.3 15.376-30.334 15.376h-23.188c.261-20.784 8.833-40.208 23.825-54.341zm174.889 41.922c1.69 1.86 3.275 3.805 4.736 5.831 9.773 13.517 25.657 21.587 42.49 21.587h23.201v39.883c-6.607-4.337-14.022-7.632-22.049-9.622l-8.029-1.988c-1.084-4.176-4.319-7.603-8.605-8.812l-22.277-6.262c-3.5-.982-7.176-.284-10.074 1.912-.923.699-1.704 1.525-2.362 2.43l-13.47-3.335v-26.211c5.867-4.354 11.466-9.549 16.439-15.413zm46.591-41.922c14.992 14.133 23.564 33.557 23.823 54.34h-23.188c-12.034 0-23.373-5.747-30.329-15.368-2.407-3.338-5.085-6.501-7.992-9.461 4.195-7.022 7.426-14.664 9.277-22.734h9.093c7.3-.001 14.013-2.542 19.316-6.777zm-44.198 194.249c-.02 0-.039-.003-.058-.003s-.038.003-.058.003h-6.736c-1.237 0-2.244-1.007-2.244-2.245v-11.573c0-1.237 1.007-2.244 2.244-2.244h30.205v16.062zm-24.011-15.534h-85.063c-.841-8.474-7.845-15.142-16.452-15.493v-61.431l.838-.208c13.294 18.659 35.083 30.048 58.145 30.048s44.851-11.389 58.145-30.048l.838.208v61.431c-8.606.35-15.609 7.019-16.451 15.493zm-102.221 15.534h-6.736c-.02 0-.039-.003-.058-.003s-.038.003-.058.003h-23.352v-16.062h30.205c1.237 0 2.244 1.007 2.244 2.244v11.573c0 1.238-1.007 2.245-2.245 2.245zm-14.294-31.063h-15.91v-60.489l15.91-4.47zm163.878 0h-15.91v-64.961l15.91 4.472zm-47.64-65.624c-10.587 12.085-25.767 19.069-42.254 19.069-16.486 0-31.665-6.982-42.252-19.067 5.681-2.035 9.541-7.412 9.541-13.543v-17.592c7.854 3.656 15.666 5.691 22.671 5.691h20.081c6.948 0 14.775-2.042 22.671-5.746v17.647c0 6.125 3.853 11.498 9.542 13.541zm-132.148 111.687h15.91v71.411h-15.91zm241.592-270.375v25.951c0 6.43-5.231 11.661-11.661 11.661h-17.629c.005-.233.018-.465.018-.7v-5.29c0-8.256-3.252-15.762-8.535-21.321 3.793-6.816 6.096-14.251 6.808-21.96h19.338c6.43-.002 11.661 5.229 11.661 11.659zm-60.273 15.63c8.823 0 16.001 7.173 16.001 15.99v5.29c0 8.818-7.178 15.991-16.001 15.991h-7.344c0-.077.004-.153.004-.23v-37.041zm-160.509-35.097c0-7.784 6.332-14.116 14.116-14.116h13.376c1.216 0 2.358.516 3.056 1.381 10.544 13.053 26.211 20.54 42.987 20.54 8.641 0 17.253-2.046 24.914-5.925 7.036 7.238 16.465 11.226 26.548 11.226 4.564 0 8.979-.811 13.171-2.413v61.445c0 35.1-36.999 65.574-59.043 65.574h-20.081c-20.485 0-54.361-26.195-58.581-58.592-.003-.029-.008-.057-.011-.086-.287-2.234-.451-4.53-.451-6.895v-72.139zm-15 35.097s.006 37.195.007 37.271h-7.347c-8.823 0-16.001-7.173-16.001-15.991v-5.29c0-8.817 7.178-15.99 16.001-15.99zm-67.614 10.32v-25.951c0-6.43 5.231-11.661 11.661-11.661h19.337c.712 7.707 3.015 15.143 6.809 21.96-5.283 5.56-8.535 13.066-8.535 21.321 0 0 .012 5.757.018 5.991h-17.629c-6.43.001-11.661-5.23-11.661-11.66zm14.788 165.935c.218-.207.428-.423.619-.655 7.213-7.617 16.591-13.269 27.368-15.941l4.028-.997v102.663h-46.803v-46.995c0-14.524 5.516-27.962 14.788-38.075zm-14.788 146.831v-46.76h46.803v49.831h-43.733c-1.693-.001-3.07-1.378-3.07-3.071zm300.326 3.07h-43.733v-49.831h46.803v46.76c0 1.694-1.377 3.071-3.07 3.071z"/></g><g/><g/><g/><g/><g/><g/><g/><g/><g/><g/><g/><g/><g/><g/><g/></svg>