<svg id="Capa_1" enable-background="new 0 0 512 512" viewBox="0 0 512 512" xmlns="http://www.w3.org/2000/svg"><g><path d="m299.237 183.8c4.142 0 7.5-3.358 7.5-7.5v-4.322c0-4.142-3.358-7.5-7.5-7.5s-7.5 3.358-7.5 7.5v4.322c0 4.142 3.358 7.5 7.5 7.5z"/><path d="m369.76 183.8c4.142 0 7.5-3.358 7.5-7.5v-4.322c0-4.142-3.358-7.5-7.5-7.5s-7.5 3.358-7.5 7.5v4.322c0 4.142 3.358 7.5 7.5 7.5z"/><path d="m334.499 231.106c8.861 0 17.438-3.694 23.53-10.136 2.846-3.009 2.714-7.756-.296-10.603s-7.757-2.713-10.603.296c-3.319 3.51-7.805 5.443-12.631 5.443s-9.312-1.933-12.631-5.443c-2.845-3.008-7.592-3.143-10.603-.296-3.009 2.846-3.142 7.593-.296 10.603 6.092 6.442 14.668 10.136 23.53 10.136z"/><path d="m496.308 418.57c0-4.142-3.358-7.5-7.5-7.5s-7.5 3.358-7.5 7.5v13.904h-41.594v-21.255c0-4.142-3.358-7.5-7.5-7.5s-7.5 3.358-7.5 7.5v85.781h-180.428v-85.781c0-4.142-3.358-7.5-7.5-7.5s-7.5 3.358-7.5 7.5v21.255h-25.439v-102.255c6.958-6.879 15.588-11.736 25.135-14.099l18.482-4.58 79.534 71.88v8.147h-11.573c-6.927 0-12.562 5.635-12.562 12.562v59.89c0 6.927 5.635 12.562 12.562 12.562h38.146c6.927 0 12.562-5.635 12.562-12.562v-59.89c0-6.927-5.635-12.562-12.562-12.562h-11.574v-8.147l79.535-71.88 18.481 4.58c24.313 6.023 41.293 27.724 41.293 52.771v14.68c0 4.142 3.358 7.5 7.5 7.5s7.5-3.358 7.5-7.5v-14.68c0-31.958-21.666-59.645-52.686-67.33l-15.976-3.959c10.749-25.29 18.473-54.919 22.479-86.397 2.081-4.103 3.263-8.737 3.263-13.644v-5.13c0-2.41-.291-4.752-.826-7 1.288-20.568 1.112-42.04-.825-61.982 10.684-4.886 18.735-14.735 20.965-26.906.643-3.512-.302-7.102-2.592-9.85-2.298-2.757-5.673-4.338-9.26-4.338h-20.908l-14.32-41.625c-8.379-24.362-31.319-40.73-57.082-40.73h-68.08c-25.763 0-48.703 16.368-57.082 40.73l-14.32 41.624h-20.907c-3.587 0-6.962 1.581-9.26 4.338-2.291 2.748-3.235 6.338-2.592 9.851 2.229 12.17 10.28 22.018 20.963 26.904-1.092 11.246-1.651 23.224-1.651 35.713 0 8.771.283 17.599.826 26.27-.535 2.249-.826 4.59-.826 7v5.13c0 4.907 1.181 9.541 3.263 13.644 4.005 31.478 11.729 61.107 22.479 86.397l-15.974 3.958c-7.728 1.913-14.985 5.112-21.528 9.431v-108.85c0-8.621-7.014-15.635-15.635-15.635h-105.956c-8.621 0-15.634 7.014-15.634 15.635v32.21h-39.016c-9.84 0-15.415 11.28-9.474 19.084l15.614 20.571-15.608 20.562c-5.953 7.821-.366 19.093 9.468 19.093h23.98c4.142 0 7.5-3.358 7.5-7.5s-3.358-7.5-7.5-7.5h-17.723l13.26-17.47c3.206-4.231 3.206-10.14-.003-14.374l-13.257-17.466h32.76v8.968c0 2.452.981 4.207 2.729 5.787l41.246 34.555h-24.012c-4.142 0-7.5 3.358-7.5 7.5s3.358 7.5 7.5 7.5h36.51c8.5 0 15.64-6.943 15.64-15.63v-32.212h19.806v238.682c0 4.142 3.358 7.5 7.5 7.5h312.514c9.788 0 17.75-7.962 17.75-17.75 0-21.723 0-52.697 0-75.68zm-178.445 43.011v-15.425c5.129-2.641 10.803-4.045 16.635-4.045s11.506 1.404 16.635 4.045v15.425zm33.271-31.711c-5.318-1.819-10.927-2.759-16.635-2.759s-11.317.94-16.635 2.759v-23.303h16.576c.02 0 .038.003.058.003s.038-.003.058-.003h16.578zm50.074-303.078v75.508c0 33.955-35.743 63.34-56.97 63.34h-19.48c-22.012 0-56.99-29.799-56.99-63.34v-42.906c.001-.559.284-.916.521-1.117.239-.204.642-.429 1.191-.337 7.052 1.161 14.302 1.75 21.548 1.75 32.279 0 63.185-11.662 87.368-32.897h22.812zm-66.71 243.188-69.477-62.792 8.846-2.192c14.779 19.583 37.079 31.126 60.632 31.126 23.554 0 45.853-11.543 60.631-31.126l8.846 2.192zm-31.47-83.3v-11.426c7.53 3.461 15.011 5.386 21.73 5.386h19.48c6.664 0 14.159-1.93 21.73-5.441v11.481c0 6.525 4.43 12.183 10.776 13.76l2.217.549c-11.742 12.757-27.736 20.133-44.462 20.133s-32.72-7.376-44.462-20.133l2.22-.55c6.341-1.576 10.771-7.233 10.771-13.759zm77.94-.647v-19.85c12.6-9.386 23.932-22.758 30.173-38.353h11.977c3.344 0 6.56-.553 9.571-1.56-4.328 24.668-11.055 47.7-19.79 67.676zm57.42-93.603v5.13c0 8.42-6.85 15.27-15.27 15.27h-7.773c.561-3.445.864-6.959.864-10.53v-25.14h6.91c8.419 0 15.269 6.85 15.269 15.27zm-184.766 20.4h-7.744c-8.42 0-15.27-6.85-15.27-15.27v-5.13c0-8.42 6.85-15.27 15.27-15.27h6.89v25.14c0 3.521.297 7.037.854 10.53zm-7.744 15h11.864c4.254 10.79 11.158 21.034 20.419 30.074 3.144 3.069 6.461 5.865 9.866 8.39v19.739l-31.93 7.913c-8.735-19.976-15.463-43.007-19.79-67.676 3.011 1.007 6.226 1.56 9.571 1.56zm192.51-68.67c0 2.368-.024 4.74-.066 7.112-4.472-2.609-9.664-4.112-15.204-4.112h-6.91v-35.368s20.568-.01 20.773-.014c.929 10.22 1.407 21.07 1.407 32.382zm-137.93-144.16h68.08c19.361 0 36.601 12.301 42.898 30.61l2.698 7.842h-159.272l2.698-7.843c6.297-18.308 23.537-30.609 42.898-30.609zm-50.757 53.452h169.594l4.783 13.901h-179.16zm207.296 28.902c-3.092 8.547-11.266 14.439-20.629 14.439h-27.611c-.016 0-.032-.002-.048-.002s-.032.002-.048.002h-176.03c-9.363 0-17.538-5.893-20.629-14.439zm-224.368 29.438h120.743c-18.557 11.64-40.081 17.897-62.345 17.897-6.433 0-12.863-.521-19.121-1.552-4.776-.782-9.631.569-13.322 3.7-3.688 3.129-5.808 7.695-5.817 12.542v2.78h-6.89c-5.54 0-10.733 1.503-15.204 4.112-.041-2.372-.066-4.744-.066-7.112 0-11.312.478-22.163 1.407-32.381.206.004.409.014.615.014zm-3.343 320.682v49.526h-25.439v-49.526zm-147.028-245.969h105.955c.35 0 .635.285.635.635v48.678h-107.223c0-4.087-.001-44.064-.001-48.678 0-.35.284-.635.634-.635zm41.48 88.594-28.982-24.281h28.982zm49.805-24.281h15.304v231.182h-15.304zm305.015 231.182h-38.844v-49.526h41.594v46.776c0 1.517-1.234 2.75-2.75 2.75z"/></g><g/><g/><g/><g/><g/><g/><g/><g/><g/><g/><g/><g/><g/><g/><g/></svg>