<svg id="Capa_1" enable-background="new 0 0 512 512" viewBox="0 0 512 512" xmlns="http://www.w3.org/2000/svg"><g><path d="m509.189 273.272c-.1-.326-.227-.64-.368-.945-5.597-14.237-18.129-25.231-33.817-28.352l-80.363-16.001c-6.606-1.312-12.475-5.004-16.524-10.397l-34.041-45.332c-12.052-16.039-31.221-25.614-51.276-25.614h-6.88v-37.601c0-6.893-5.607-12.5-12.5-12.5h-21.75c-6.893 0-12.5 5.607-12.5 12.5v37.601h-70.17c-16.377 0-31.855 8.691-40.401 22.698l-1.9 3.13c-2.149 3.541-1.021 8.153 2.52 10.303 3.542 2.151 8.154 1.022 10.303-2.52l1.891-3.115c5.833-9.559 16.403-15.496 27.588-15.496h50.946v63.672h-94.274c-4.146 0-8.241-.93-11.979-2.685l7.63-12.514c2.157-3.536 1.038-8.151-2.499-10.308-3.538-2.159-8.152-1.038-10.308 2.499l-11.692 19.175c-2.191 3.597-6.17 5.831-10.385 5.831h-46.9c-16.112 0-29.22 13.107-29.22 29.22v67.708c-5.82.807-10.32 5.802-10.32 11.841v4.83c0 17.237 14.019 31.261 31.25 31.261h18.928c5.73 24.777 27.962 43.309 54.456 43.309s48.726-18.531 54.456-43.309h102.07c4.142 0 7.5-3.357 7.5-7.5s-3.358-7.5-7.5-7.5h-100.682c-1.264-29.715-25.824-53.501-55.844-53.501-17.374 0-32.921 7.968-43.183 20.44h-36.131v-18.585h21.989c6.628 0 12.02-5.393 12.02-12.021v-13.429c0-13.001-10.577-23.578-23.578-23.578h-10.43c.018-7.826 6.389-14.188 14.219-14.188h46.9c6.914 0 13.539-2.701 18.512-7.316 6.345 3.47 13.481 5.318 20.721 5.318h258.174c2.523 1.039 5.154 1.845 7.87 2.384l80.361 16c6.551 1.303 12.282 4.647 16.594 9.282h-41.224c-3.782 0-7.321 1.684-9.708 4.62-2.381 2.929-3.306 6.724-2.538 10.412 3.531 16.952 18.678 29.257 36.016 29.257h25.782v11.843h-52.906c-10.262-12.472-25.808-20.44-43.183-20.44-30.02 0-54.58 23.786-55.844 53.501h-48.907c-4.142 0-7.5 3.357-7.5 7.5s3.358 7.5 7.5 7.5h50.295c5.73 24.777 27.962 43.309 54.456 43.309s48.726-18.531 54.456-43.309h39.043c9.699 0 17.59-7.892 17.59-17.591v-65.52c0-5.505-.99-10.826-2.811-15.777zm-404.555 45.388c22.555 0 40.905 18.35 40.905 40.904 0 22.556-18.35 40.905-40.905 40.905-21.09 0-38.499-16.044-40.673-36.567-.001-.012-.003-.023-.004-.035-.149-1.415-.228-2.85-.228-4.303 0-22.554 18.35-40.904 40.905-40.904zm-55.844 38.501h-17.54c-8.96 0-16.25-7.295-16.25-16.261v-1.8h37.626c-2.225 5.635-3.565 11.71-3.836 18.061zm-4.461-77.095v10.449h-19.009v-19.027h10.431c4.729 0 8.578 3.848 8.578 8.578zm209.841-168.536h16.75v35.101h-16.75zm-19.224 50.101h57.854c15.365 0 30.05 7.337 39.283 19.624l33.078 44.048h-130.215zm236.271 135.627c-9.206 0-17.368-5.851-20.465-14.289h45.636c.398 1.975.613 4.008.613 6.082v8.207zm-70.306 103.212c-21.077 0-38.476-16.024-40.668-36.529-.006-.064-.016-.126-.024-.189-.141-1.377-.213-2.774-.213-4.188 0-22.555 18.35-40.904 40.905-40.904s40.905 18.35 40.905 40.904c0 22.556-18.35 40.906-40.905 40.906zm93.499-43.309h-37.655c-.27-6.351-1.61-12.426-3.835-18.061h44.08v15.47c0 1.429-1.162 2.591-2.59 2.591z"/><path d="m400.911 335.064c-13.509 0-24.5 10.99-24.5 24.5s10.991 24.5 24.5 24.5 24.5-10.99 24.5-24.5-10.991-24.5-24.5-24.5zm0 34c-5.238 0-9.5-4.262-9.5-9.5s4.262-9.5 9.5-9.5 9.5 4.262 9.5 9.5-4.262 9.5-9.5 9.5z"/><path d="m104.634 384.064c13.509 0 24.5-10.99 24.5-24.5s-10.991-24.5-24.5-24.5-24.5 10.99-24.5 24.5 10.991 24.5 24.5 24.5zm0-34c5.238 0 9.5 4.262 9.5 9.5s-4.262 9.5-9.5 9.5-9.5-4.262-9.5-9.5 4.262-9.5 9.5-9.5z"/><path d="m268.911 268.895h-44.491c-4.142 0-7.5 3.357-7.5 7.5s3.358 7.5 7.5 7.5h14.746v43.488c0 4.143 3.358 7.5 7.5 7.5s7.5-3.357 7.5-7.5v-43.488h14.745c4.142 0 7.5-3.357 7.5-7.5s-3.358-7.5-7.5-7.5z"/></g><g/><g/><g/><g/><g/><g/><g/><g/><g/><g/><g/><g/><g/><g/><g/></svg>