<svg id="Capa_1" enable-background="new 0 0 512 512" viewBox="0 0 512 512" xmlns="http://www.w3.org/2000/svg"><g><path d="m219.623 188.571c4.143 0 7.5-3.357 7.5-7.5v-6.157c0-4.143-3.357-7.5-7.5-7.5s-7.5 3.357-7.5 7.5v6.157c0 4.143 3.357 7.5 7.5 7.5z"/><path d="m292.377 188.571c4.143 0 7.5-3.357 7.5-7.5v-6.157c0-4.143-3.357-7.5-7.5-7.5s-7.5 3.357-7.5 7.5v6.157c0 4.143 3.357 7.5 7.5 7.5z"/><path d="m256 237.374c9.076 0 17.861-3.784 24.102-10.383 2.846-3.01 2.714-7.756-.296-10.603-3.011-2.847-7.755-2.715-10.603.296-3.47 3.669-8.159 5.689-13.203 5.689s-9.733-2.021-13.203-5.689c-2.849-3.011-7.596-3.143-10.603-.296-3.01 2.847-3.142 7.593-.296 10.603 6.241 6.599 15.026 10.383 24.102 10.383z"/><path d="m216.148 386.609c-2.582-3.236-7.301-3.769-10.54-1.183-3.237 2.584-3.767 7.303-1.183 10.54l38.618 48.384c1.48 1.855 3.663 2.821 5.866 2.821 1.64 0 3.292-.535 4.674-1.639 3.237-2.584 3.767-7.303 1.183-10.54z"/><path d="m422.69 385.18c0-32.853-22.273-61.321-54.167-69.229l-64.813-16.055v-26.206c15.895-11.8 29.849-29.764 34.618-50.56h9.092c17.094 0 31-13.902 31-30.99v-5.29c0-8.354-3.329-15.94-8.723-21.518 11.394-22.997 17.359-50.369 16.052-74.438-.225-4.136-3.77-7.278-7.896-7.083-4.137.225-7.308 3.76-7.083 7.896 1.129 20.802-4.139 45.332-13.88 65.639-2.987-.96-6.168-1.484-9.47-1.484h-7.34v-11.239c-.002-2.997-1.317-5.826-3.61-7.761-2.299-1.94-5.321-2.767-8.284-2.26-2.444.416-4.927.792-7.431 1.126 9.979-14.563 8.699-25.051 6.769-30.38-2.657-7.333-9.066-12.48-17.144-13.77-9.423-1.496-19.352 2.435-26.382 10.341-17.184-11.466-27.459-3.659-30.269-.906-7.521 7.369-8.323 20.543-2.854 34.021-4.816-2.887-10.012-6.892-15.196-11.772-2.999-2.829-7.383-3.602-11.17-1.969-3.791 1.636-6.241 5.36-6.241 9.489v7.771l-32.15-13.762c-3.157-1.35-6.751-1.025-9.618.865-2.863 1.888-4.573 5.059-4.575 8.485v21.72h-7.345c-4.914 0-9.562 1.154-13.694 3.197-9.19-20.379-10.759-42.476-4.476-64.397 6.478-22.599 20.801-43.264 40.332-58.188 18.131-13.856 39.443-21.473 60.054-21.473.112 0 .227 0 .339.001 23.138.094 45.182 9.71 63.754 27.813 4.418 4.301 10.639 6.222 16.63 5.138 15.928-2.867 27.718 1.651 35.042 13.428 2.188 3.519 6.812 4.596 10.329 2.409 3.518-2.188 4.597-6.812 2.409-10.329-10.583-17.021-28.491-24.219-50.443-20.27-1.236.219-2.55-.196-3.5-1.12-21.41-20.87-47.054-31.959-74.16-32.069-.134-.001-.265-.001-.399-.001-23.884 0-48.431 8.712-69.162 24.553-22.075 16.869-38.285 40.299-45.644 65.975-7.701 26.868-5.228 53.966 7.113 78.695-3.479 5.008-5.524 11.082-5.524 17.628v5.29c0 17.088 13.906 30.99 31 30.99h9.055c3.396 15.11 11.775 29.623 24.414 41.957 3.263 3.185 6.707 6.085 10.241 8.699v26.109l-64.814 16.056c-31.893 7.907-54.166 36.376-54.166 69.229v108.75c0 9.964 8.106 18.07 18.07 18.07h100c4.143 0 7.5-3.357 7.5-7.5s-3.357-7.5-7.5-7.5h-41.272v-75.612c0-4.143-3.357-7.5-7.5-7.5s-7.5 3.357-7.5 7.5v10.784h-46.798v-46.993c0-25.943 17.59-48.425 42.774-54.669l4.254-1.054 22.287 27.922-5.76 30.207c-1.56 8.175.524 16.594 5.717 23.1l48.272 60.479c5.191 6.505 12.939 10.402 21.257 10.694l30.732 1.079 11.225 14.062h-42.688c-4.143 0-7.5 3.357-7.5 7.5s3.357 7.5 7.5 7.5h162.24c9.964 0 18.07-8.106 18.07-18.07 0-15.454 0-93.163 0-108.75zm-271.583 61.992v49.828h-43.727c-1.693 0-3.07-1.377-3.07-3.07v-46.758zm256.583-61.992v46.992h-46.797v-10.784c0-4.143-3.357-7.5-7.5-7.5s-7.5 3.357-7.5 7.5v75.529l-143.715-180.054 10.056-2.491c11.046 11.546 22.301 21.39 30.153 27.875 3.944 3.258 8.777 4.887 13.612 4.887 4.834 0 9.669-1.629 13.612-4.886 7.852-6.486 19.107-16.329 30.153-27.875l65.149 16.138c25.188 6.244 42.777 28.725 42.777 54.669zm-60.27-214.32c8.822 0 16 7.173 16 15.989v5.29c0 8.817-7.178 15.99-16 15.99h-7.344c0-.077.004-.153.004-.23v-37.039zm-182.84 37.27c-8.822 0-16-7.173-16-15.99v-5.29c0-8.816 7.178-15.989 16-15.989h7.345s.006 37.193.007 37.27h-7.352zm22.345-.231v-66.447l31.938 13.669c6.805 2.916 14.406-2.077 14.406-9.502v-4.608c7.532 5.979 16.715 11.671 26.007 13.542 4.147.837 8.327-.914 10.648-4.454 2.335-3.56 2.272-8.116-.162-11.612-4.191-6.012-6.803-12.401-7.354-17.991-.464-4.697.636-7.61 1.819-8.77 1.995-1.957 7.142-.505 12.802 3.616 5.508 4.011 13.136 2.924 17.361-2.477 4.435-5.669 9.945-7.066 13.627-6.475 1.558.248 4.331 1.106 5.403 4.066.698 1.927 2.07 9.255-9.594 22.623-2.976 3.412-3.544 8.253-1.449 12.331 2.169 4.225 6.598 6.665 11.263 6.217 3.836-.359 7.664-.814 11.439-1.357v57.629c0 35.17-37.053 65.573-59.037 65.573h-20.086c-22.83.001-59.031-30.826-59.031-65.573zm59.032 80.574h20.086c6.947 0 14.772-2.042 22.667-5.746v17.643c0 1.175.148 2.321.417 3.423-10.608 11.112-21.485 20.626-29.067 26.889-2.354 1.943-5.768 1.944-8.119-.001-7.582-6.261-18.459-15.776-29.067-26.888.269-1.102.417-2.248.417-3.423v-17.589c7.852 3.656 15.662 5.692 22.666 5.692zm-59.802 32.359 10.416 13.05-13.75 10.974-15.46-19.369zm47.422 140.975-48.272-60.479c-2.457-3.079-3.443-7.063-2.705-10.932l5.887-30.869 17.442-13.922 86.558 108.443-17.442 13.922-31.406-1.103c-3.938-.138-7.605-1.982-10.062-5.06zm54.517 14.94 13.75-10.974 24.925 31.227h-22.51zm116.526 20.253h-43.727v-49.828h46.797v46.758c0 1.693-1.377 3.07-3.07 3.07z"/></g><g/><g/><g/><g/><g/><g/><g/><g/><g/><g/><g/><g/><g/><g/><g/></svg>