<svg id="Capa_1" enable-background="new 0 0 511.997 511.997" height="512" viewBox="0 0 511.997 511.997" width="512" xmlns="http://www.w3.org/2000/svg"><g><path d="m497.496 369.744h-1.031v-39.093c0-4.142-3.357-7.5-7.5-7.5h-35.77l-220.759-298.167v-17.483c0-7.335-9.496-10.294-13.666-4.269-15.185 21.933-87.871 126.925-100.612 145.33-2.358 3.406-1.509 8.078 1.896 10.436 3.406 2.358 8.078 1.508 10.436-1.897l12.358-17.85h74.589v62.656h-117.967l12.412-17.93c2.358-3.406 1.509-8.078-1.896-10.436-3.406-2.358-8.078-1.508-10.436 1.897l-20.56 29.698c-3.433 4.959.115 11.769 6.166 11.769h132.28v44.121h-61.464c-3.519-18.381-19.951-31.062-41.655-31.062h-60.223c-4.143 0-7.5 3.358-7.5 7.5v31.062c0 4.142 3.357 7.5 7.5 7.5h5.588l-26.777 93.718h-18.405c-7.995 0-14.5 6.504-14.5 14.5v17.093c0 7.996 6.505 14.5 14.5 14.5h3.126l13.206 39.606c-4.245-.955-9.274-1.584-15.566-1.584-4.143 0-7.5 3.358-7.5 7.5s3.357 7.5 7.5 7.5c24.367 0 25.017 12 53.495 12 28.364 0 29.213-12 53.494-12 24.364 0 25.016 12 53.495 12 28.364 0 29.212-12 53.493-12 24.356 0 25.021 12 53.493 12 28.366 0 29.214-12 53.496-12 24.352 0 25.023 12 53.494 12 28.367 0 29.218-12 53.502-12 24.359 0 25.027 12 53.502 12 4.143 0 7.5-3.358 7.5-7.5s-3.357-7.5-7.5-7.5c-16.21 0-20.639-4.724-31.418-8.536l27.666-41.486h4.518c7.995 0 14.5-6.504 14.5-14.5v-17.093c0-7.995-6.505-14.5-14.5-14.5zm-16.031 0h-31.594v-31.593h31.594zm-78.186 0v-31.593h31.593v31.593zm-19.172 0-22.567-31.593h26.738v31.593zm-49.419-181.05c-37.646-5.582-71.335-3.058-102.252 7.64v-17.309c24.638-9.254 54.152-12.551 87.84-9.846zm-102.252 23.596c34.264-13.084 71.082-15.023 115.172-6.101l15.873 21.494c-43.303-11.054-88.33-10.169-131.045 2.513zm76.234-58.827c-28.403-1.073-53.948 2.155-76.234 9.648v-112.877zm-91.234-60.275h-42.699l42.699-61.677zm-64.204 31.062 11.12-16.062h53.084v16.062zm79.204 121.645c77.492-24.625 137.137-.022 145.351 1.141l56.704 76.115h-83.664l-42.132-58.984c-1.407-1.971-3.681-3.141-6.103-3.141h-70.156zm-170.842-.931h52.723c14.817 0 23.219 7.271 26.159 16.062h-78.882zm237.139 31.062 11.473 16.062h-100.801c-4.143 0-7.5 3.358-7.5 7.5v22.484c0 4.142 3.357 7.5 7.5 7.5s7.5-3.358 7.5-7.5v-14.984h104.015l44.754 62.656h-148.769v-15.797c0-4.142-3.357-7.5-7.5-7.5s-7.5 3.358-7.5 7.5v15.797h-16.062v-70.156c0-4.142-3.357-7.5-7.5-7.5h-107.65l4.589-16.062zm-232.325 31.062h104.435v62.656h-122.337zm430.588 93.749c-33.642 0-67.135 0-100.405 0-4.143 0-7.5 3.358-7.5 7.5s3.357 7.5 7.5 7.5h78.357l-25.509 38.251c-33-2.445-33.931 11.771-59.713 11.771-24.352 0-25.023-12-53.494-12-28.366 0-29.214 12-53.496 12-24.365 0-25.012-12-53.493-12-28.365 0-29.211 12-53.493 12-24.367 0-25.017-12-53.495-12-28.364 0-29.213 12-53.494 12-9.403 0-14.814-1.582-19.87-3.68l-15.453-46.342h330.466c4.143 0 7.5-3.358 7.5-7.5s-3.357-7.5-7.5-7.5c-18.381 0-329.02 0-348.904 0v-16.093h481.996z"/><path d="m443.229 484.997c-28.367 0-29.218 12-53.502 12-24.352 0-25.023-12-53.494-12-28.366 0-29.214 12-53.496 12-24.365 0-25.012-12-53.493-12-28.365 0-29.211 12-53.493 12-24.367 0-25.017-12-53.495-12-28.364 0-29.213 12-53.494 12-4.143 0-7.5 3.358-7.5 7.5s3.357 7.5 7.5 7.5c28.364 0 29.213-12 53.494-12 24.354 0 25.023 12 53.495 12 28.364 0 29.212-12 53.493-12 24.356 0 25.021 12 53.493 12 28.366 0 29.214-12 53.496-12 24.352 0 25.023 12 53.494 12 28.367 0 29.218-12 53.502-12 4.143 0 7.5-3.358 7.5-7.5s-3.358-7.5-7.5-7.5z"/></g></svg>