<svg id="Capa_1" enable-background="new 0 0 512.014 512.014" height="512" viewBox="0 0 512.014 512.014" width="512" xmlns="http://www.w3.org/2000/svg"><g><path d="m512.01 306.032c0-4.142-3.358-7.5-7.5-7.5h-93.187c-4.142 0-7.5 3.358-7.5 7.5v23.341c-3.54.476-10.25-1.789-13.216 4.15l-8.068 16.161-6.126-15.304c-1.105-2.762-3.739-4.609-6.712-4.708l-4.437-.148-5.079-16.216c.101 0 1.337.004 1.236.003 5.102 0 8.721-4.998 7.124-9.846l-10.136-30.781c-.995-3.021-3.786-5.085-6.965-5.153l-5.616-.118-5.005-16.15c3.378-.397 8.562 1.415 11.767-3.257 1.398-2.039 1.703-4.636.813-6.942l-12.013-31.14c-1.116-2.893-3.897-4.801-6.998-4.801h-15.669v-15.768h5.542c4.142 0 7.5-3.358 7.5-7.5s-3.358-7.5-7.5-7.5h-151.86c-4.142 0-7.5 3.358-7.5 7.5s3.358 7.5 7.5 7.5h5.542v15.768h-54.146v-85.54c0-4.142-3.358-7.5-7.5-7.5h-46.663c-4.142 0-7.5 3.358-7.5 7.5v85.54h-24.992c-7.481 0-13.684 5.613-14.428 13.058l-14.226 142.304h-.978c-4.142 0-7.5 3.358-7.5 7.5.131 32.838-.295 31.346.385 33.385l10.716 32.147c-1.16-.046-2.348-.078-3.6-.078-4.142 0-7.5 3.358-7.5 7.5s3.358 7.5 7.5 7.5c25.213 0 25.843 12.387 55.221 12.387 29.018 0 30.313-12.387 55.219-12.387 25.25 0 25.867 12.387 55.222 12.387 29.017 0 30.313-12.387 55.218-12.387 25.252 0 25.863 12.387 55.219 12.387 29.019 0 30.315-12.387 55.222-12.387 25.25 0 25.865 12.387 55.22 12.387 29.022 0 30.319-12.387 55.228-12.387 25.275 0 25.857 12.387 55.228 12.387 4.142 0 7.5-3.358 7.5-7.5s-3.358-7.5-7.5-7.5c-16.55 0-21.254-4.75-32.04-8.658 40.757-101.894 39.54-98.206 39.54-100.294v-30.842zm-15 23.342h-16.062v-15.841h16.062zm-47.125 0v-15.841h16.062v15.841zm-31.062-15.842h16.062v15.841h-16.062zm-210.345 15.842v-16.062h31.593v16.062zm-46.594 0v-16.062h31.594v16.062zm-46.593 0v-16.062h31.593v16.062zm-46.593 0v-16.062h31.593v16.062zm186.373-16.062h89.285l5.031 16.062h-94.315v-16.062zm-46.593-46.014v-16.062h31.593v16.062zm-46.594 0v-16.062h31.594v16.062zm-46.593 0v-16.062h31.593v16.062zm-46.593 0v-16.062h31.593v16.062zm186.373-16.062h69.954l5.03 16.062h-74.984zm-62.124-61.879h110.774v15.768h-110.774zm-115.809-62.272h31.663v16.136h-31.663zm0 31.136h31.663v46.903h-31.663zm-39.54 61.904h291.647l6.227 16.14c-280.01-.029-272.414-.029-274.274-.029-4.142 0-7.5 3.358-7.5 7.5v31.062c0 4.142 3.358 7.5 7.5 7.5.101.001 48.317.025 48.418 0-.103 0 59.212.03 236.205.119l5.225 15.866c-10 .002-167.713.029-289.847.029-4.142 0-7.5 3.358-7.5 7.5v31.062c0 4.142 3.358 7.5 7.5 7.5h298.397c.11 0 .217-.015.326-.019l4.386.146 6.399 15.984s-6.473-.102-347.139 0zm225.914 171.373v-16.014h31.593v16.014zm-46.593 0v-16.014h31.593v16.014zm-46.594 0v-16.014h31.593v16.014zm-46.594 0v-16.014h31.594v16.014zm186.374-16.013h31.593v16.014h-31.593zm147.54 58.358c-2.536-.256-5.3-.404-8.362-.404-29.022 0-30.319 12.387-55.228 12.387-25.273 0-25.85-12.387-55.22-12.387-29.019 0-30.315 12.387-55.222 12.387-25.273 0-25.849-12.387-55.219-12.387-29.018 0-30.312 12.387-55.218 12.387-25.25 0-25.867-12.387-55.222-12.387-29.018 0-30.313 12.387-55.219 12.387-18.072 0-22.189-5.719-34.914-9.624l-12.807-38.421v-22.296h93.718v23.514c0 4.142 3.358 7.5 7.5 7.5h232.967c4.142 0 7.5-3.358 7.5-7.5v-23.514h25.088c2.723 0 5.396-1.55 6.695-4.124.005-.009.011-.017.015-.026l13.459-26.961h91.476z"/><path d="m73.708 96.17c4.142 0 7.5-3.358 7.5-7.5v-23.882c0-16.951 13.791-30.742 30.742-30.742h109.069c4.142 0 7.5-3.358 7.5-7.5s-3.358-7.5-7.5-7.5h-109.07c-25.222 0-45.742 20.52-45.742 45.742v23.882c.001 4.142 3.358 7.5 7.501 7.5z"/><path d="m115.665 50.108c-10.143 0-18.395 8.252-18.395 18.395v20.167c0 4.142 3.358 7.5 7.5 7.5s7.5-3.358 7.5-7.5v-20.167c0-1.872 1.523-3.395 3.395-3.395h81.247c4.142 0 7.5-3.358 7.5-7.5s-3.358-7.5-7.5-7.5z"/><path d="m425.543 375.731h31.062c4.142 0 7.5-3.358 7.5-7.5s-3.358-7.5-7.5-7.5h-31.062c-4.142 0-7.5 3.358-7.5 7.5s3.358 7.5 7.5 7.5z"/><path d="m449.282 465.581c-29.022 0-30.319 12.387-55.228 12.387-25.273 0-25.85-12.387-55.22-12.387-29.019 0-30.315 12.387-55.222 12.387-25.273 0-25.849-12.387-55.219-12.387-29.018 0-30.312 12.387-55.218 12.387-25.25 0-25.867-12.387-55.222-12.387-29.018 0-30.313 12.387-55.219 12.387-4.142 0-7.5 3.358-7.5 7.5s3.358 7.5 7.5 7.5c29.018 0 30.313-12.387 55.219-12.387 25.25 0 25.867 12.387 55.222 12.387 29.017 0 30.313-12.387 55.218-12.387 25.252 0 25.863 12.387 55.219 12.387 29.019 0 30.315-12.387 55.222-12.387 25.25 0 25.865 12.387 55.22 12.387 29.022 0 30.319-12.387 55.228-12.387 4.142 0 7.5-3.358 7.5-7.5s-3.358-7.5-7.5-7.5z"/></g></svg>