<svg id="Capa_1" enable-background="new 0 0 511.989 511.989" height="512" viewBox="0 0 511.989 511.989" width="512" xmlns="http://www.w3.org/2000/svg"><g><path d="m55.012 227.632c-13.362 0-24.233 10.871-24.233 24.233s10.871 24.233 24.233 24.233 24.233-10.871 24.233-24.233-10.87-24.233-24.233-24.233zm0 33.212c-4.951 0-8.979-4.028-8.979-8.979s4.028-8.979 8.979-8.979 8.979 4.028 8.979 8.979-4.028 8.979-8.979 8.979z"/><path d="m490.199 382.625c-8.283 0-15.737 4.599-19.45 12.003l-9.774 19.482h-19.255v-32.025h10.657c26.806 0 48.613-21.808 48.613-48.613 0-7.709-.581-15.374-1.708-22.936-.013-.138-.038-.272-.058-.408-4.325-28.507-16.493-55.786-36.14-78.659-2.745-3.196-7.56-3.561-10.756-.817-3.196 2.745-3.561 7.56-.817 10.756 15.796 18.396 26.135 39.753 31.016 62.243h-139.487v-111.107c1.096-.003 6.199.019 27.203-.078 20.273 3.742 40.423 13.078 58.316 27.024 3.322 2.589 8.116 1.996 10.705-1.327 2.59-3.322 1.995-8.115-1.327-10.705-18.932-14.755-40.25-24.862-61.884-29.387l-14.117-28.162c-1.293-2.58-3.932-4.209-6.819-4.209h-39.757v-16.844c0-8.131-6.615-14.746-14.746-14.746h-1.049v-32.13h16.335v8.168c0 4.212 3.415 7.627 7.627 7.627h160.267c12.915 0 23.422-10.508 23.422-23.423s-10.507-23.422-23.422-23.422h-160.267c-4.212 0-7.627 3.415-7.627 7.627v8.168h-17.617c-3.172-9.181-11.895-15.795-22.141-15.795-10.245 0-18.968 6.614-22.14 15.795h-17.617v-8.168c0-4.212-3.415-7.627-7.627-7.627h-157.951c-12.915 0-23.423 10.508-23.423 23.423s10.507 23.423 23.423 23.423h57.996c4.212 0 7.627-3.415 7.627-7.627s-3.415-7.627-7.627-7.627h-57.996c-4.503 0-8.168-3.664-8.168-8.168s3.664-8.168 8.168-8.168h150.323v16.334h-59.085c-4.212 0-7.627 3.415-7.627 7.627s3.415 7.627 7.627 7.627h66.712c4.212 0 7.627-3.415 7.627-7.627v-8.167h16.335v32.13h-1.049c-8.131 0-14.746 6.615-14.746 14.746v16.844h-39.757c-2.886 0-5.525 1.629-6.818 4.209l-13.726 27.38h-74.806l-14.767-57.451c-.867-3.371-3.906-5.729-7.387-5.729h-40.446c-4.212 0-7.627 3.415-7.627 7.627v80.365c-18.651 8.815-31.59 27.804-31.59 49.764 0 30.334 24.678 55.012 55.012 55.012 22.861 0 42.503-14.02 50.797-33.91l113.396 28.946 15.741 39.352c8.54 21.35 27.275 36.185 49.364 39.899v32.945h-23.91c-12.944 0-23.475 10.531-23.475 23.475s10.531 23.475 23.475 23.475h42.148c4.212 0 7.627-3.415 7.627-7.627s-3.415-7.627-7.627-7.627h-42.148c-4.532 0-8.22-3.688-8.22-8.22 0-4.533 3.688-8.22 8.22-8.22h205.282c2.886 0 5.524-1.628 6.818-4.207l11.884-23.689c1.11-2.213 3.339-3.588 5.815-3.588 4.838 0 7.981 5.091 5.819 9.416l-19.255 38.51h-140.973c-4.212 0-7.627 3.415-7.627 7.627s3.415 7.627 7.627 7.627h141.288c5.621 0 10.675-3.123 13.19-8.152l19.395-38.791c7.242-14.485-3.305-31.493-19.464-31.493zm-159.044-316.441h152.639c4.503 0 8.167 3.664 8.167 8.168s-3.664 8.168-8.167 8.168h-152.639zm95.31 347.926h-16.335v-32.025h16.335zm-31.591-32.026v32.025h-63.72v-32.025zm-67.089-78.435h-25.043c-12.618 0-22.882-10.265-22.882-22.882v-88.223h47.925zm-51.643-237.465c4.503 0 8.168 3.664 8.168 8.168v8.168h-16.335v-8.168c0-4.503 3.663-8.168 8.167-8.168zm-8.167 31.591h16.335v16.335h-16.335zm-15.795 31.589h47.925v16.336h-47.925zm-50.304 31.591h148.533l8.173 16.303c-17.456.061-7.084.017-164.895.031zm-146.864 130.668c-21.922 0-39.757-17.835-39.757-39.757s17.835-39.757 39.757-39.757 39.757 17.835 39.757 39.757-17.834 39.757-39.757 39.757zm-8.167-94.16v-68.098h26.904l14.767 57.451c.867 3.371 3.906 5.729 7.387 5.729h121.317v93.118l-107.572-27.459c4.163-36.101-27.132-66.074-62.803-60.741zm202.264 138.137-16.635-41.587v-101.469h32.131v88.223c0 21.029 17.108 38.137 38.137 38.137h182.227c.504 4.824.765 9.685.765 14.567 0 18.394-14.964 33.359-33.359 33.359-44.261 0-97.059 0-157.14 0-20.431-.001-38.537-12.259-46.126-31.23zm50.455 46.484h16.336v32.025h-16.335v-32.025z"/><path d="m165.577 223.944h30.465c4.212 0 7.627-3.415 7.627-7.627s-3.415-7.627-7.627-7.627h-30.465c-4.212 0-7.627 3.415-7.627 7.627s3.415 7.627 7.627 7.627z"/><path d="m165.577 255.724h31.59c4.212 0 7.627-3.415 7.627-7.627s-3.415-7.627-7.627-7.627h-31.59c-4.212 0-7.627 3.415-7.627 7.627s3.415 7.627 7.627 7.627z"/></g></svg>