<svg id="Capa_1" enable-background="new 0 0 512 512" height="512" viewBox="0 0 512 512" width="512" xmlns="http://www.w3.org/2000/svg"><g><path d="m49.445 250.177c.357-9.69 4.152-18.985 10.685-26.172 1.594-1.753 2.266-4.156 1.812-6.481-.454-2.326-1.98-4.3-4.116-5.325-11.728-5.629-19.306-17.667-19.306-30.669 0-18.488 14.473-33.411 32.949-33.973 2.462-.075 4.73-1.354 6.068-3.423 1.338-2.068 1.575-4.662.635-6.938-1.314-3.182-1.981-6.555-1.981-10.026 0-14.866 12.423-26.891 27.407-26.246 2.412.103 4.755-.98 6.242-2.901 1.488-1.921 1.953-4.444 1.247-6.77-.741-2.444-1.117-5.005-1.117-7.613 0-14.491 11.789-26.28 26.28-26.28 2.836 0 5.656.462 8.382 1.374 1.901.634 3.976.484 5.764-.421 1.788-.904 3.14-2.487 3.754-4.395 3.505-10.891 13.556-18.208 25.011-18.208 6.144 0 12.125 2.169 16.843 6.107 2.076 1.733 4.923 2.216 7.453 1.26 2.529-.954 4.351-3.196 4.765-5.868 1.996-12.868 12.913-22.209 25.958-22.209 6.209 0 12.236 2.21 16.972 6.222 2.801 2.373 6.905 2.37 9.702-.004 4.724-4.01 10.746-6.218 16.956-6.218 12.84 0 24.005 9.548 25.97 22.21.415 2.674 2.237 4.917 4.77 5.87 2.532.952 5.381.468 7.455-1.269 3.709-3.104 8.19-5.113 12.96-5.81 4.099-.599 6.936-4.406 6.337-8.505s-4.404-6.938-8.505-6.338c-3.901.57-7.681 1.696-11.229 3.331-6.449-14.658-20.984-24.489-37.758-24.489-7.745 0-15.307 2.188-21.812 6.242-6.513-4.055-14.076-6.242-21.818-6.242-16.773 0-31.308 9.836-37.752 24.5-5.381-2.477-11.275-3.79-17.268-3.79-15.616 0-29.573 8.661-36.588 22.138-2.091-.325-4.202-.488-6.322-.488-22.762 0-41.28 18.518-41.28 41.28 0 .975.034 1.947.102 2.914-19.245 3.496-33.882 20.379-33.882 40.616 0 2.211.173 4.398.517 6.551-22.028 4.886-38.188 24.358-38.188 47.809 0 15.668 7.636 30.365 20.018 39.5-5.531 8.49-8.705 18.38-9.082 28.593-.152 4.139 3.079 7.619 7.219 7.772.094.003.188.005.281.005 4.014 0 7.341-3.178 7.49-7.223z"/><path d="m144.099 141.82c0 15.473 10.418 28.062 23.223 28.062s23.223-12.588 23.223-28.062-10.418-28.061-23.223-28.061-23.223 12.588-23.223 28.061zm31.445 0c0 7.697-4.333 13.062-8.223 13.062s-8.223-5.364-8.223-13.062 4.333-13.061 8.223-13.061 8.223 5.364 8.223 13.061z"/><path d="m236.813 233.65c0 15.473 10.418 28.062 23.223 28.062s23.223-12.588 23.223-28.062-10.418-28.061-23.223-28.061-23.223 12.588-23.223 28.061zm23.223-13.061c3.89 0 8.223 5.364 8.223 13.061s-4.333 13.062-8.223 13.062-8.223-5.364-8.223-13.062 4.333-13.061 8.223-13.061z"/><path d="m300.549 96.165c0 15.473 10.418 28.061 23.223 28.061s23.223-12.588 23.223-28.061-10.418-28.061-23.223-28.061-23.223 12.588-23.223 28.061zm31.445 0c0 7.697-4.333 13.061-8.223 13.061s-8.223-5.364-8.223-13.061 4.333-13.061 8.223-13.061 8.223 5.364 8.223 13.061z"/><path d="m488.48 181.53c0-23.452-16.157-42.924-38.188-47.809.344-2.153.517-4.34.517-6.551 0-20.237-14.638-37.12-33.882-40.616.068-.969.103-1.94.103-2.914 0-22.762-18.519-41.28-41.28-41.28-2.124 0-4.242.165-6.341.491-1.166-2.227-2.54-4.347-4.111-6.342-2.404-3.052-6.768-4.001-10.049-1.921-3.843 2.437-4.628 7.583-1.865 11.036 1.937 2.423 3.412 5.136 4.384 8.069.333 1.006.791 1.98 1.484 2.782 2.079 2.408 5.281 3.2 8.101 2.261 2.737-.913 5.562-1.375 8.397-1.375 14.491 0 26.28 11.789 26.28 26.28 0 2.578-.378 5.135-1.123 7.599-.308 1.018-.452 2.09-.293 3.142.62 4.109 4.089 6.701 7.778 6.543.376-.016.753-.034 1.138-.034 14.49 0 26.279 11.789 26.279 26.28 0 3.45-.659 6.802-1.957 9.967-.709 1.728-.792 3.687-.158 5.444 1.07 2.967 3.807 4.884 6.837 4.976 18.477.563 32.949 15.486 32.949 33.973 0 12.932-7.504 24.913-19.135 30.581-1.223.596-2.335 1.43-3.099 2.556-2.055 3.03-1.654 6.842.613 9.337 6.913 7.607 10.721 17.461 10.721 27.746 0 21.79-16.994 39.674-38.422 41.124-2.752-11.787-11.726-20.454-22.348-20.454-12.805 0-23.223 12.588-23.223 28.062 0 8.541 3.178 16.197 8.175 21.348-6.39 7.919-16.048 12.651-26.451 12.651-8.761 0-17.056-3.343-23.328-9.279l8.558-22.807c1.456-3.878-.509-8.202-4.387-9.657-3.877-1.455-8.201.508-9.656 4.387l-24.975 66.558-42.066-44.026 50.204-83.119c1.01-1.672 1.327-3.672.886-5.575l-11.093-47.738c5.292-.138 10.5-1.418 15.26-3.755l12.548 38.97c.748 2.325 2.582 4.139 4.914 4.864.729.227 1.479.337 2.224.337 1.638 0 3.253-.536 4.582-1.562l42.794-33.01c2.722 4.335 6.32 8.075 10.555 10.954l-43.389 39.631c-.875.799-1.548 1.794-1.965 2.903l-8.1 21.588c-1.358 3.619.073 7.819 3.525 9.56 1.107.558 2.268.819 3.406.819 3.036 0 5.894-1.857 7.023-4.867l7.557-20.143 47.618-43.493c1.644.224 3.299.345 4.955.345 5.103 0 10.2-1.06 14.915-3.147 3.553-1.573 5.536-5.586 4.32-9.277-1.42-4.311-6.205-6.334-10.227-4.513-4.508 2.041-9.612 2.488-14.41 1.251-.797-.202-1.554-.438-2.278-.715-6.5-2.454-11.491-7.923-13.351-14.624-1.239-4.478-1.025-9.146.618-13.5 1.463-3.875-.492-8.203-4.367-9.666-3.876-1.46-8.202.492-9.666 4.368-2.156 5.709-2.847 11.74-2.07 17.696l-38.175 29.448-11.041-34.287c1.601-2.004 3.019-4.158 4.187-6.487 3.307-6.599 4.552-13.942 3.603-21.238-.535-4.108-4.305-7.007-8.406-6.469-4.107.535-7.003 4.298-6.469 8.405.562 4.317-.177 8.668-2.137 12.579-1.134 2.261-2.618 4.275-4.42 5.993-5.763 5.513-14.048 7.452-21.601 5.066-1.164-.372-2.256-.815-3.273-1.331-5.216-2.615-9.099-7.102-10.933-12.635-1.304-3.932-5.545-6.06-9.479-4.759-3.932 1.304-6.062 5.547-4.759 9.479 3.096 9.339 9.647 16.913 18.419 21.31.424.215.882.401 1.323.602l11.962 51.478-45.321 75.036-35.234-55.71 6.692-41.123c4.977-1.757 9.518-4.567 13.349-8.291 3.019-2.935 3.414-7.907.48-10.927-2.925-3.011-7.738-3.032-10.691-.071-3.075 3.083-6.951 5.153-11.219 5.987-1.378.271-2.791.409-4.191.409-6.299-.007-12.281-2.722-16.428-7.464-3.452-3.923-5.369-8.958-5.41-14.194-.027-3.422-2.172-6.545-5.484-7.409-5.012-1.307-9.517 2.439-9.517 7.237 0 7.417 2.239 14.606 6.355 20.66l-10.117 28.7-36.527-12.02c-.561-6.042-2.579-11.829-5.953-16.914-2.146-3.233-6.432-4.505-9.862-2.69-4.013 2.124-5.203 7.181-2.733 10.841 2.438 3.61 3.726 7.83 3.726 12.203 0 .543-.016.97-.05 1.345-.005.059-.01.117-.014.176-.548 8.207-5.604 15.324-13.172 18.564-2.733 1.158-5.625 1.746-8.595 1.746-5.819 0-11.289-2.26-15.41-6.366-2.218-2.21-5.561-2.96-8.385-1.606-5.047 2.42-5.797 8.638-2.248 12.186 6.956 6.956 16.205 10.786 26.043 10.786 3.724 0 7.375-.551 10.909-1.644l46.677 25.235 17.247 48.987c-6.297 6.027-14.653 9.422-23.483 9.422-10.4 0-20.057-4.733-26.447-12.653 4.996-5.151 8.173-12.806 8.173-21.346 0-15.473-10.418-28.062-23.223-28.062-10.623 0-19.596 8.667-22.347 20.454-11.124-.754-21.458-5.948-28.715-14.536-2.608-3.086-7.252-3.784-10.459-1.326-3.408 2.612-3.925 7.506-1.2 10.767 10.113 12.104 24.685 19.334 40.329 20.122 2.7 11.883 11.712 20.641 22.391 20.641.437 0 .87-.018 1.301-.046 9.104 13.068 24.031 20.984 40.195 20.984 10.489 0 20.505-3.332 28.786-9.359l13.416 38.105-8.926 78.698c-.812 7.151-5.798 13.097-12.7 15.145l-2.97.881c-13.841 4.104-23.514 17.04-23.548 31.474-.01 4.167 3.333 7.577 7.5 7.577h204.384c4.188 0 7.52-3.43 7.505-7.618-.025-7.105-2.28-13.868-6.533-19.574-4.284-5.729-10.168-9.83-17.015-11.859l-2.968-.879c-5.681-1.686-10.063-6.017-11.886-11.489-.427-1.283-.358-2.674.051-3.963 2.968-9.368 4.471-19.094 4.471-28.968 0-14.287-3.267-28.649-9.448-41.535l-4.307-8.976 13.92-37.099c8.299 6.077 18.361 9.439 28.896 9.439 16.167 0 31.096-7.917 40.199-20.984.43.029.863.046 1.299.046 10.677 0 19.689-8.755 22.391-20.634 29.686-1.49 53.38-26.108 53.38-56.158 0-11-3.194-21.64-9.123-30.723 12.392-9.141 20.028-23.836 20.028-39.501zm-386.516 118.951c0-7.697 4.333-13.062 8.222-13.062 3.89 0 8.223 5.364 8.223 13.062s-4.333 13.061-8.223 13.061c-3.889 0-8.222-5.364-8.222-13.061zm69.14-32.122c-.618-1.757-1.869-3.221-3.508-4.107l-41.391-22.377c4.094-4.03 7.188-8.967 9.021-14.452l40.57 13.351c.778.256 1.568.378 2.346.378 3.097 0 5.988-1.932 7.072-5.008l10.38-29.445c4.64 2.699 9.85 4.362 15.273 4.844l-6.439 39.573c-.295 1.81.084 3.664 1.063 5.213l43.24 68.37c.269.425.586.806.927 1.162l-.01.01 53.453 55.945 4.73 9.859c4.736 9.872 7.7 20.545 8.296 31.478.574 10.536-.869 20.922-4.266 30.806-.748 2.175-.943 4.515-.53 6.778.372 2.042.937 4.019 1.662 5.918-11.953-4.027-22.793-10.757-31.83-19.845l-73.122-73.54zm174.559 224.294c1.166 1.331 2.113 2.794 2.83 4.347h-186.086c2.126-4.568 6.133-8.183 11.145-9.669l2.972-.881c12.686-3.765 21.847-14.69 23.339-27.834l7.36-64.895 63.305 63.667c14.359 14.441 32.564 23.861 52.647 27.239l9.581 1.612c1.352.228 2.689.537 4.004.926l.211.063c3.335.988 6.401 2.808 8.692 5.425zm56.147-179.111c-3.89 0-8.223-5.364-8.223-13.061s4.333-13.062 8.223-13.062 8.223 5.364 8.223 13.062-4.334 13.061-8.223 13.061z"/></g></svg>