<svg id="Capa_1" enable-background="new 0 0 511.679 511.679" height="512" viewBox="0 0 511.679 511.679" width="512" xmlns="http://www.w3.org/2000/svg"><g><g><path d="m222.786 504.737-41.562-.065v-.001l.231-146.854 41.562.065z" fill="none"/><path d="m181.455 357.817-.035 70.031c11.924.019 21.572 9.707 21.541 21.631l-.141 55.227 19.965.031.231-146.855z" fill="none"/><path d="m305.564 379.769h35.398v125.075h-35.398z" fill="none" transform="matrix(1 .002 -.002 1 .698 -.509)"/><path d="m305.662 379.741-.038 60.028c9.627.015 17.416 7.836 17.393 17.463l-.116 47.611 17.962.028.197-125.075z" fill="none"/><path d="m325.34 423.352c-.81.01-1.62.02-2.43.02-.78 0-1.55-.02-2.33-.04-14.99-.44-28.65-4.91-40.04-12.17-25.11-16.03-39.17-45.67-32.02-75.91l33.68-142.46 5.94-25.1 17.11-72.35c4.27-18.08 31.79-18.08 36.06 0l23.04 97.45 33.67 142.45c10.45 44.19-24.39 87.01-72.68 88.11z" fill="none"/><path d="m298.421 392.612c-5.32 6.88-11.32 13.09-17.88 18.55-25.11-16.03-39.17-45.67-32.02-75.91l33.68-142.46 5.94-25.1 30.96 130.98c7.729 32.7.189 66.94-20.68 93.94z" fill="none"/><path d="m201.712 409.043c-.916-.004-1.83-.019-2.741-.046-56.399-1.661-96.812-51.815-84.609-103.423l39.552-167.267 27.055-114.415c5.02-21.23 37.329-21.229 42.348.002l27.047 114.417 39.538 167.26c12.263 51.877-28.636 102.161-85.34 103.446-.948.021-1.898.03-2.85.026z" fill="none"/></g><path fill="currentColor" d="m399.8 496.679h-51.529l.109-69.819c39.648-10.971 67.237-53.492 56.896-93.751.001 0-14.274-60.341-14.274-60.341-.954-4.031-4.998-6.52-9.025-5.572-4.031.954-6.525 4.994-5.572 9.025l14.274 60.343c3.803 16.068.987 32.74-7.929 46.944-24.1 39.273-84.733 42.915-113.822 7.38 24.411-21.667 35.846-56.051 28.116-87.456 0 0-16.789-70.967-16.789-70.967l32.155-135.851c2.408-10.457 19.105-10.428 21.5.001 0 0 34.591 146.194 34.591 146.194.816 3.45 3.895 5.775 7.292 5.775 4.755.043 8.472-4.586 7.306-9.229 0 0-34.591-146.193-34.591-146.193-2.734-11.565-12.92-19.337-25.348-19.337s-22.613 7.771-25.347 19.335l-25.263 106.736-42.158-178.196c-3.071-12.979-14.522-21.7-28.494-21.7-13.971-.001-25.424 8.719-28.496 21.697l-27.083 114.438c-.953 4.031 1.541 8.072 5.571 9.026 4.031.951 8.072-1.541 9.026-5.571l27.084-114.438c1.773-7.494 8.595-10.153 13.897-10.152 5.303 0 12.124 2.659 13.896 10.153l66.653 281.732c7 27.989-4.867 58.936-27.947 76.548-.311.192-.59.43-.857.665-35.201 27.565-92.167 20.891-118.638-15.028-13.792-17.974-18.779-40.638-13.68-62.18l31.872-134.676c1.959-9.653-11.906-13.109-14.598-3.455 0 0-31.872 134.676-31.872 134.676-12.007 46.912 20.526 96.743 66.868 108.849l-.13 84.395h-55.957c-4.143 0-7.5 3.357-7.5 7.5s3.357 7.5 7.5 7.5h282.293c9.83-.317 10.034-14.6 0-15zm-77.01-66.196c3.493.02 7.099-.17 10.585-.573l-.104 66.768h-20.437l.104-66.768c3.259.369 6.562.567 9.852.573zm-24.847-3.593-.109 69.789h-67.756l.13-84.421c9.578-2.725 18.615-6.838 26.831-12.204 10.521 12.766 24.702 22.063 40.904 26.836zm-109.353-11.563c8.762 1.109 17.856 1.106 26.613-.005l-.125 81.357h-26.613z"/></g></svg>