<svg id="Capa_1" enable-background="new 0 0 512 512" height="512" viewBox="0 0 512 512" width="512" xmlns="http://www.w3.org/2000/svg"><g><path d="m443.119 123.902c.041-1.001.061-1.993.061-2.972 0-34.643-23.386-64.928-56.87-73.648-4.006-1.045-8.104 1.359-9.148 5.368s1.359 8.104 5.368 9.148c26.878 7 45.65 31.316 45.65 59.132 0 2.164-.126 4.425-.376 6.718-.353 3.245 1.433 6.346 4.417 7.669 29.207 12.942 48.079 41.935 48.079 73.863 0 31.757-18.724 60.685-47.702 73.698-2.688 1.207-4.42 3.876-4.428 6.822-.089 33.608-27.503 60.95-61.11 60.95-15.363 0-29.874-5.654-41.151-15.96l-2.083-17.205c15.952-9.719 26.627-27.28 26.627-47.289 0-4.142-3.358-7.5-7.5-7.5s-7.5 3.358-7.5 7.5c0 22.238-18.089 40.33-40.323 40.33-13.106 0-25.44-6.408-32.992-17.142-1.404-1.996-3.692-3.184-6.132-3.184h-.001c-2.44 0-4.727 1.187-6.132 3.181-7.561 10.735-19.897 17.145-33.002 17.145-22.234 0-40.323-18.092-40.323-40.33 0-4.142-3.358-7.5-7.5-7.5s-7.5 3.358-7.5 7.5c0 20.009 10.675 37.57 26.627 47.289l-2.083 17.205c-11.277 10.306-25.788 15.96-41.151 15.96-33.607 0-61.021-27.342-61.11-60.95-.008-2.948-1.741-5.617-4.431-6.823-5.901-2.647-11.486-6.016-16.599-10.015-3.264-2.552-7.977-1.975-10.528 1.288s-1.975 7.976 1.288 10.528c4.82 3.769 9.995 7.068 15.432 9.841 2.578 39.64 35.696 71.131 75.948 71.131 13.817 0 27.083-3.67 38.679-10.54l-7.422 61.302c-.165 1.337-.383 2.662-.649 3.94-.844 4.055 1.76 8.027 5.815 8.871.515.107 1.029.159 1.536.159 3.479 0 6.598-2.434 7.335-5.973.35-1.679.636-3.416.853-5.176l11.454-94.599c4.573 1.228 9.375 1.893 14.33 1.893 14.775 0 28.836-5.935 39.132-16.221 10.291 10.285 24.351 16.221 39.128 16.221 4.956 0 9.757-.665 14.33-1.893l11.454 94.598c2.207 18.233 12.471 34.177 28.158 43.74 12.968 7.917 21.334 20.725 23.146 35.029l-32.181-.001c-6.322 0-11.465-5.143-11.465-11.465 0-14.593-11.872-26.465-26.465-26.465-4.142 0-7.5 3.358-7.5 7.5s3.358 7.5 7.5 7.5c6.322 0 11.465 5.143 11.465 11.465 0 4.105.94 7.995 2.615 11.466h-52.134v-30.431c0-4.142-3.358-7.5-7.5-7.5s-7.5 3.358-7.5 7.5v30.43h-53.235c1.675-3.471 2.615-7.361 2.615-11.466 0-6.322 5.143-11.465 11.465-11.465 4.142 0 7.5-3.358 7.5-7.5s-3.358-7.5-7.5-7.5c-14.593 0-26.465 11.872-26.465 26.465 0 6.322-5.144 11.465-11.465 11.465l-32.189.001c1.812-14.303 10.178-27.111 23.139-35.024 2.356-1.434 4.64-3.058 6.787-4.826 3.198-2.633 3.656-7.36 1.023-10.557-2.633-3.198-7.359-3.656-10.557-1.023-1.601 1.318-3.301 2.527-5.061 3.599-19.225 11.736-30.702 31.819-30.702 53.721v1.61c0 4.142 3.358 7.5 7.5 7.5h248.18c4.142 0 7.5-3.358 7.5-7.5v-1.61c0-21.902-11.478-41.985-30.706-53.724-11.745-7.16-19.427-19.093-21.079-32.738l-7.424-61.319c11.596 6.87 24.862 10.54 38.679 10.54 40.252 0 73.37-31.492 75.949-71.132 31.916-16.274 52.291-49.268 52.291-85.338s-20.311-68.98-52.181-85.277z"/><path d="m31.7 209.18c0-31.928 18.872-60.921 48.079-73.863 2.984-1.323 4.771-4.424 4.417-7.669-.25-2.294-.376-4.554-.376-6.718 0-33.696 27.418-61.11 61.12-61.11 9.541 0 18.7 2.154 27.225 6.403 1.824.909 3.941 1.037 5.863.352 1.921-.685 3.48-2.122 4.319-3.982 13.037-28.912 41.947-47.593 73.653-47.593s60.616 18.681 73.653 47.593c.837 1.857 2.395 3.294 4.313 3.98 1.918.685 4.033.561 5.858-.345 3.807-1.89 7.768-3.377 11.774-4.42 4.009-1.043 6.413-5.139 5.369-9.147-1.043-4.008-5.14-6.412-9.147-5.369-2.626.683-5.234 1.518-7.802 2.497-16.695-30.474-48.911-49.789-84.018-49.789-35.103 0-67.315 19.312-84.013 49.78-8.62-3.294-17.686-4.959-27.047-4.959-41.973 0-76.12 34.143-76.12 76.11 0 .978.021 1.97.061 2.972-31.87 16.296-52.181 49.206-52.181 85.277 0 16.368 4.2 32.519 12.146 46.705 1.375 2.455 3.924 3.836 6.55 3.836 1.241 0 2.499-.308 3.658-.958 3.614-2.024 4.903-6.595 2.878-10.209-6.693-11.951-10.232-25.567-10.232-39.374z"/><path d="m280.633 433.41c14.605 0 26.487-11.882 26.487-26.487v-37.696c0-14.605-11.882-26.487-26.487-26.487s-26.487 11.882-26.487 26.487v37.696c0 14.605 11.882 26.487 26.487 26.487zm-11.487-64.183c0-6.334 5.153-11.487 11.487-11.487s11.487 5.153 11.487 11.487v37.696c0 6.334-5.153 11.487-11.487 11.487s-11.487-5.153-11.487-11.487z"/><path d="m396.085 277.665c16.918 0 30.682-13.764 30.682-30.682v-4.246c2.991-.986 5.152-3.798 5.152-7.12v-6.684c0-17.195-12.177-31.594-28.359-35.041-.285-3.882-3.517-6.945-7.472-6.945s-7.187 3.063-7.472 6.945c-16.182 3.447-28.359 17.846-28.359 35.041v6.684c0 3.322 2.161 6.134 5.153 7.12v4.246c.002 16.918 13.762 30.682 30.675 30.682zm0-15c-8.643 0-15.674-7.035-15.674-15.682v-3.866h31.356v3.866c.001 8.647-7.035 15.682-15.682 15.682zm.004-54.562c11.212 0 20.384 8.905 20.815 20.014h-41.63c.431-11.108 9.603-20.014 20.815-20.014z"/><path d="m337.077 107.531c-3.955 0-7.187 3.063-7.472 6.945-16.182 3.447-28.359 17.847-28.359 35.041v6.684c0 3.322 2.161 6.134 5.153 7.12v4.246c0 16.918 13.76 30.682 30.674 30.682 16.918 0 30.682-13.764 30.682-30.682v-4.246c2.991-.986 5.152-3.798 5.152-7.12v-6.684c0-17.195-12.177-31.594-28.359-35.041-.284-3.882-3.517-6.945-7.471-6.945zm-.004 75.718c-8.643 0-15.674-7.035-15.674-15.682v-3.866h31.356v3.866c0 8.647-7.035 15.682-15.682 15.682zm20.819-34.548h-41.63c.431-11.109 9.603-20.014 20.815-20.014s20.384 8.905 20.815 20.014z"/><path d="m127.357 273.124c16.918 0 30.682-13.764 30.682-30.682v-4.246c2.991-.986 5.153-3.798 5.153-7.12v-6.684c0-17.195-12.177-31.594-28.359-35.041-.285-3.882-3.517-6.945-7.472-6.945s-7.187 3.063-7.472 6.945c-16.182 3.447-28.359 17.846-28.359 35.041v6.684c0 3.322 2.161 6.134 5.153 7.12v4.246c0 16.918 13.76 30.682 30.674 30.682zm0-15c-8.643 0-15.674-7.035-15.674-15.682v-3.866h31.356v3.866c0 8.647-7.035 15.682-15.682 15.682zm.004-54.562c11.213 0 20.385 8.905 20.815 20.014h-41.63c.431-11.109 9.602-20.014 20.815-20.014z"/></g></svg>