<svg id="Capa_1" enable-background="new 0 0 512 512" height="512" viewBox="0 0 512 512" width="512" xmlns="http://www.w3.org/2000/svg"><g><g><g><path d="m301.009 504.5h100.248c-5.262-27.248-14.755-61.83-32.592-99.326-10.938-22.993-22.879-42.596-34.238-58.871-2.197-3.147-1.561-7.442 1.461-9.808 7.906-6.188 16.372-13.795 24.721-23.085 14.263-15.87 24.142-32.156 31.023-46.56 2.417-5.059-3.898-9.741-8.018-5.939-13.275 12.255-30.193 25.213-51.199 36.365-11.6 6.158-22.742 10.86-32.998 14.479-3.205 1.131-6.759-.103-8.545-2.994-9.182-14.86-18.93-34.204-25.922-57.871-11.114-37.62-11.041-71.875-7.916-97.853.69-5.739-7.24-7.979-9.649-2.727-5.364 11.694-10.489 25.076-14.657 40.076-4.959 17.848-7.521 34.239-8.764 48.32-.409 4.628-5.045 7.698-9.44 6.19-16.664-5.717-32.684-19.353-47.247-37.368-15.07-18.643-33.614-31.089-46.236-45.756-3.731-4.336-10.665-.126-8.559 5.195 8.986 22.706 23.636 50.706 47.746 77.872 19.577 22.057 39.927 37.407 56.554 47.845 4.156 2.609 7.891 5.845 11.064 9.587 19.187 22.629 32.792 43.488 42.138 59.541 10.726 18.423 19.726 33.919 25.961 51.804 1.047 3.004-.032 6.337-2.62 8.188-10.394 7.435-22.462 17.477-34.417 30.763-16.916 18.798-27.59 37.402-34.236 51.428h40.278c1.703-6.383 6.174-19.566 18.125-31.26 3.529-3.453 7.121-6.201 10.505-8.385 4.919-3.175 11.344.649 11.029 6.496-.373 6.941-1.366 16.986-3.6 33.654z" fill="none"/></g><g><path d="m339.61 470.847c-.374 6.94-1.367 16.985-3.601 33.653h65.248c-5.262-27.248-14.755-61.83-32.591-99.326-10.938-22.993-22.879-42.596-34.238-58.871-2.197-3.147-1.561-7.442 1.461-9.808 7.906-6.188 16.372-13.795 24.721-23.085 6.537-7.273 12.144-14.633 16.972-21.86-3.28 1.95-6.661 3.865-10.167 5.726-11.6 6.158-22.742 10.86-32.998 14.479-3.205 1.131-6.759-.103-8.545-2.994-1.251-2.025-2.512-4.14-3.776-6.331-7.893 3.718-15.506 6.794-22.679 9.325-3.205 1.131-6.759-.103-8.545-2.994-9.182-14.86-18.93-34.204-25.921-57.871-2.068-7-3.747-13.882-5.093-20.617-.346 2.885-.653 5.715-.893 8.434-.409 4.628-5.045 7.698-9.44 6.19-8.435-2.894-16.704-7.823-24.703-14.315-.33 2.776-.625 5.504-.856 8.125-.409 4.628-5.045 7.698-9.44 6.19-16.093-5.521-31.582-18.441-45.741-35.545 7.229 11.65 15.938 23.648 26.446 35.488 19.577 22.057 39.927 37.407 56.555 47.845 4.156 2.609 7.891 5.845 11.064 9.587 19.187 22.629 32.792 43.489 42.138 59.541 10.726 18.423 19.726 33.919 25.96 51.804 2.632 6.851 5.271 15.387 6.997 25.383 2.146 12.439 2.227 23.355 1.665 31.847z" fill="none"/></g><g><path d="m455.051 243.277c-3.112-.711-6.219-.956-9.257-.799-5.937-15.386-19.158-27.635-36.424-31.582-26.516-6.062-52.911 9.668-60.529 35.422-12.754-2.464-25.255 5.623-28.168 18.402-2.975 13.051 5.178 26.046 18.211 29.026 6.238 1.426 12.46.294 17.582-2.7 7.034 9.731 17.477 17.052 30.09 19.936 14.635 3.346 29.237.053 40.665-7.898 3.693 2.802 8.02 4.89 12.832 5.99 18.143 4.148 36.209-7.219 40.35-25.389 4.141-18.169-7.209-36.26-25.352-40.408z" fill="none"/></g><g><path d="m322.79 133.453c-5.133-2.295-7.961-7.919-6.789-13.425.727-3.414 1.111-6.955 1.111-10.586 0-28.024-22.685-50.742-50.669-50.742-.479 0-.957.007-1.433.02-4.906.139-9.402-2.802-11.346-7.314-11.131-25.826-36.775-43.906-66.648-43.906-29.612 0-55.08 17.76-66.368 43.222-1.942 4.382-6.362 7.071-11.149 7.063-.028 0-.057 0-.085 0-27.984 0-50.669 22.718-50.669 50.742 0 3.943.449 7.781 1.299 11.465 1.28 5.548-1.352 11.285-6.515 13.671-14.209 6.568-23.884 21.291-23.034 38.179 1.025 20.352 17.58 36.797 37.91 37.674 8.798.379 18.3-2.115 25.044-6.618 3.253-2.172 7.46-2.251 10.707-.069 6.314 4.245 12.602 6.725 20.779 6.725 9.827 0 21.434-2.267 28.368-8.189 3.595-3.071 8.809-3.071 12.403 0 6.933 5.923 13.309 8.189 23.136 8.189 8.179 0 15.775-2.481 22.09-6.727 3.207-2.156 7.39-2.156 10.597 0 6.315 4.246 13.912 6.727 22.09 6.727 9.625 0 18.446-2.122 25.318-7.828 3.602-2.991 8.75-2.998 12.351-.007 7.255 6.027 16.683 8.209 26.937 7.803 20.373-.808 37.834-18.794 38.099-39.211.213-16.419-9.513-30.588-23.534-36.858z" fill="none"/></g><g><path d="m322.79 133.453c-5.133-2.295-7.961-7.919-6.789-13.425.727-3.414 1.111-6.955 1.111-10.587 0-15.263-6.739-28.941-17.388-38.243-41.152 65.928-114.338 109.802-197.781 109.802-24.943 0-48.964-3.935-71.494-11.192 0 .675.011 1.352.045 2.035 1.025 20.352 17.58 36.797 37.91 37.674 8.799.379 18.3-2.115 25.044-6.618 3.253-2.172 7.46-2.251 10.707-.069 6.314 4.245 12.602 6.725 20.779 6.725 9.827 0 21.435-2.267 28.368-8.189 3.595-3.071 8.809-3.071 12.403 0 6.933 5.923 13.309 8.189 23.136 8.189 8.179 0 15.775-2.481 22.09-6.727 3.207-2.156 7.39-2.156 10.597 0 6.315 4.246 13.912 6.727 22.09 6.727 9.625 0 18.446-2.122 25.317-7.828 3.602-2.991 8.75-2.998 12.352-.007 7.255 6.027 16.684 8.209 26.938 7.803 20.374-.808 37.834-18.794 38.099-39.211.213-16.42-9.513-30.589-23.534-36.859z" fill="none"/></g></g><path fill="currentColor" d="m481.443 497h-74.049c-11.531-55.517-34.268-108.335-66.663-154.769 11.019-8.654 21.112-18.42 30.079-29.134 17.384 9.246 39.26 8.796 56.324-1.095 23.534 13.798 54.845.033 60.581-26.651 5.736-24.23-12.182-48.571-36.986-50.296-21.869-45.307-88.127-42.933-107.021 3.314-28.641.381-41.852 36.213-20.684 55.285-8.382 4.149-17.05 7.823-25.898 10.955-17.24-27.951-28.329-59.051-32.493-91.542 3.336-1.461 6.376-3.314 9.093-5.571.833-.688 1.945-.693 2.769-.009 7.661 6.364 17.521 9.582 29.346 9.582 50.751-.683 66.749-68.655 20.009-90.464-1.895-.848-2.952-2.956-2.512-5.017.846-3.975 1.274-8.062 1.274-12.148.055-32.69-27.184-59.194-59.815-58.219-1.747.047-3.505-1.068-4.245-2.786-12.683-29.422-41.547-48.435-73.536-48.435-4.143 0-7.5 3.357-7.5 7.5s3.357 7.5 7.5 7.5c25.994 0 49.452 15.455 59.761 39.374 3.31 7.758 11.366 12.457 19.667 11.825 23.804 0 43.169 19.399 43.169 43.242 0 3.039-.318 6.076-.945 9.023-1.905 8.936 2.747 18.118 11.062 21.835 31.118 14.615 21.674 58.998-11.801 61.729-9.205.356-16.553-1.68-21.847-6.078-6.353-5.275-15.575-5.272-21.936.007-4.94 4.103-11.654 6.098-20.525 6.098-6.411 0-12.603-1.885-17.905-5.45-5.76-3.875-13.206-3.873-18.968 0-5.302 3.565-11.493 5.45-17.904 5.45-8.063 0-12.672-1.612-18.265-6.391-6.416-5.48-15.729-5.483-22.146-.001-3.347 2.858-9.005 4.926-15.625 5.85-.228.022-.454.054-.68.097-8.563 1.103-16.027.51-23.787-5.005-5.741-3.861-13.223-3.841-19.057.057-20.932 13.449-49.818.591-51.298-25.197-.668-13.27 6.668-25.436 18.691-30.994 8.267-3.821 12.757-13.144 10.676-22.165-.735-3.186-1.107-6.476-1.107-9.779 0-23.844 19.366-43.242 43.241-43.242 7.833.015 14.91-4.509 18.019-11.522 6.356-14.339 17.665-25.915 31.844-32.598 3.747-1.766 5.353-6.234 3.587-9.981s-6.233-5.354-9.981-3.587c-17.438 8.219-31.346 22.455-39.162 40.087-.701 1.581-2.376 2.602-4.366 2.602-36.885-.474-65.393 35.592-56.689 71.394.502 2.175-.466 4.304-2.355 5.177-44.657 21.094-31.465 87.303 17.698 90.153 10.433.447 21.475-2.493 29.532-7.874.766-.512 1.671-.544 2.357-.081 9.717 6.575 18.717 8.676 29.706 7.839 21.301 33.145 49.662 61.179 83.119 82.139 3.498 2.195 6.642 4.919 9.335 8.087 9.251 10.914 17.991 22.382 25.979 34.083 1.452 2.127 3.806 3.272 6.201 3.272 5.851.117 9.639-6.901 6.187-11.73-8.279-12.13-17.338-24.015-26.931-35.334-3.695-4.345-8.001-8.074-12.799-11.085-29.861-18.717-55.397-43.343-75.108-72.443 4.164-1.4 8.296-3.408 11.851-6.272 19.247 24.793 43.257 44.13 64.6 46.945 2.085.353 4.256-.201 5.921-1.533 1.666-1.33 2.688-3.306 2.809-5.434.603-10.535 1.856-21.065 3.714-31.412 4.986 1.009 10.42 1.072 15.445.568 4.874 36.035 17.749 70.376 37.668 100.959 1.854 2.864 5.442 4.086 8.611 3.037 15.239-4.978 29.984-11.393 43.926-19.165 4.749.618 9.542.169 14.051-1.335 1.331 1.486 2.739 2.891 4.206 4.226-9.553 11.268-20.49 21.385-32.472 30.109-3.343 2.433-4.087 7.111-1.663 10.461 32.779 45.273 55.941 97.243 67.736 151.964h-82.513c2.978-23.772 2.948-31.748 2.593-38.806-.122-2.433-1.418-4.654-3.475-5.958-2.058-1.306-4.621-1.527-6.87-.602-20.149 7.722-36.679 26.927-42.381 44.865h-22.505c15.6-28.571 37.988-53.236 64.951-71.504 2.731-1.853 3.93-5.273 2.953-8.426-6.517-21.031-16.636-38.41-28.353-58.534-2.085-3.58-6.679-4.794-10.255-2.708-3.58 2.084-4.792 6.676-2.708 10.255 10.661 18.311 19.284 33.122 25.28 50.251-29.236 20.927-53.055 48.948-69.044 81.166h-30.306c-9.841.304-10.004 14.634 0 15 52.804-.005 292.012 0 292.012 0 9.831-.317 10.034-14.6.001-15zm-264.908-259.356c-9.95-3.534-20.293-10.529-30.626-20.664 10.335.606 20.636-2.133 29.208-7.928 1.876-1.16 3.514 1.164 5.161 1.82-1.675 8.821-2.932 17.778-3.743 26.772zm136.146 46.927c-12.43 7.402-28.018-4.085-24.695-18.184 2.015-8.841 10.549-14.415 19.432-12.705 3.789.736 7.521-1.533 8.615-5.236 6.532-22.086 29.222-35.367 51.665-30.238 14.209 3.248 25.835 13.331 31.099 26.971 1.166 3.024 4.119 4.958 7.385 4.79 2.432-.124 4.849.083 7.196.62h.001c14.085 3.22 22.928 17.319 19.711 31.43-2.848 13.803-17.69 23.167-31.365 19.744-3.643-.833-6.999-2.399-9.971-4.654-2.59-1.964-6.15-2.037-8.816-.181-10.092 7.021-22.744 9.479-34.71 6.743-10.338-2.363-19.459-8.407-25.684-17.019-2.273-3.152-6.574-4.016-9.863-2.081zm-64.363 193.53c2.701-2.643 5.633-5.01 8.774-7.087-.328 5.724-1.094 13.703-2.662 25.986h-19.101c2.621-6 6.681-12.729 12.989-18.899z"/></g></svg>