<svg id="Capa_1" enable-background="new 0 0 512 512" height="512" viewBox="0 0 512 512" width="512" xmlns="http://www.w3.org/2000/svg"><g><path d="m50.091 252.149c2.153-.375 4.035-1.671 5.154-3.549 1.119-1.877 1.363-4.149.668-6.222-1.425-4.252-1.546-8.79-.347-13.137 1.434-5.238 4.712-9.785 9.231-12.802 1.84-1.229 3.043-3.207 3.289-5.406s-.493-4.394-2.017-5.997c-4.8-5.051-6.991-11.899-6.011-18.788 1.064-7.485 5.78-13.908 12.615-17.181 1.994-.955 3.465-2.742 4.02-4.882.555-2.141.137-4.417-1.143-6.221-4.419-6.231-5.399-14.194-2.623-21.299 2.819-7.209 9.04-12.424 16.64-13.949 2.164-.434 4.026-1.799 5.092-3.732 1.065-1.933 1.226-4.236.438-6.298-2.778-7.271-1.667-15.338 2.964-21.566 4.677-6.265 12.133-9.637 19.925-9.03 2.203.174 4.366-.634 5.917-2.203 1.552-1.57 2.334-3.743 2.138-5.942-.697-7.793 2.591-15.268 8.798-19.998 6.184-4.716 14.241-5.919 21.553-3.218 2.073.765 4.377.578 6.298-.512 1.921-1.089 3.265-2.971 3.672-5.142 1.43-7.628 6.58-13.91 13.781-16.805 7.15-2.88 15.179-1.939 21.475 2.516 1.806 1.278 4.082 1.693 6.226 1.134 2.141-.559 3.926-2.034 4.877-4.031 3.311-6.951 9.838-11.694 17.468-12.69 7.6-1.002 15.115 1.892 20.108 7.736 1.425 1.668 3.509 2.628 5.703 2.628s4.277-.96 5.703-2.628c4.993-5.845 12.512-8.735 20.117-7.735 7.621.995 14.148 5.738 17.459 12.689.952 1.998 2.736 3.473 4.877 4.031 2.139.558 4.418.144 6.225-1.134 2.506-1.773 5.405-3.039 8.383-3.662 4.054-.848 6.654-4.821 5.807-8.876s-4.822-6.656-8.876-5.807c-2.427.507-4.775 1.246-7.03 2.208-6.005-7.82-14.885-13.015-24.896-14.322-10.017-1.319-19.946 1.421-27.769 7.442-7.822-6.021-17.753-8.76-27.76-7.443-10.017 1.307-18.897 6.502-24.903 14.321-9.083-3.897-19.396-4.079-28.794-.292-9.477 3.81-16.822 11.151-20.653 20.339-9.893-1.441-19.995 1.108-28.145 7.324-8.192 6.242-13.331 15.355-14.528 25.323-9.951 1.31-19.013 6.549-25.185 14.816-6.114 8.223-8.545 18.349-6.994 28.214-9.123 3.935-16.372 11.343-20.082 20.831-3.644 9.322-3.403 19.526.462 28.505-7.667 5.92-12.818 14.626-14.212 24.428-1.25 8.792.604 17.542 5.141 24.931-4.369 4.509-7.568 10.073-9.245 16.2-1.29 4.675-1.659 9.494-1.114 14.236-4.832 1.93-9.216 4.854-12.927 8.654-9.448 9.693-12.831 23.525-9.343 36.212-10.676 6.698-17.555 18.555-17.716 31.426-.174 13.541 6.904 25.893 18.179 32.674-1.395 5.446-1.572 11.194-.464 16.732.713 3.565 3.844 6.031 7.347 6.031.487 0 .982-.048 1.479-.147 4.061-.812 6.696-4.763 5.884-8.825-.965-4.827-.307-9.917 1.853-14.334.94-1.922 1.015-4.154.205-6.134s-2.427-3.52-4.445-4.233c-9.119-3.22-15.162-11.889-15.037-21.574.116-9.281 6.042-17.684 14.747-20.911 2.006-.744 3.599-2.308 4.378-4.3s.67-4.222-.298-6.129c-4.383-8.626-2.786-19.082 3.969-26.012 3.339-3.421 7.59-5.663 12.292-6.483z"/><path d="m511.997 315.797c-.161-12.873-7.04-24.731-17.716-31.429 3.488-12.687.104-26.519-9.348-36.217-3.707-3.796-8.09-6.719-12.921-8.648.545-4.741.177-9.557-1.11-14.222-1.68-6.137-4.879-11.703-9.249-16.214 4.537-7.389 6.391-16.139 5.141-24.931-1.394-9.803-6.544-18.509-14.212-24.428 3.865-8.979 4.105-19.184.461-28.507-3.71-9.486-10.959-16.894-20.082-20.829 1.551-9.865-.882-19.993-7.003-28.225-6.164-8.258-15.225-13.495-25.176-14.805-1.198-9.968-6.336-19.081-14.526-25.322-8.152-6.217-18.258-8.767-28.15-7.325-.974-2.32-2.186-4.543-3.631-6.65-2.34-3.417-7.009-4.291-10.426-1.948-3.417 2.341-4.289 7.009-1.948 10.426 1.772 2.586 2.96 5.46 3.533 8.541.404 2.174 1.747 4.059 3.669 5.151 1.923 1.093 4.23 1.28 6.304.515 7.312-2.701 15.368-1.499 21.556 3.22 6.204 4.728 9.492 12.203 8.795 19.996-.197 2.199.585 4.372 2.138 5.942 1.552 1.569 3.709 2.372 5.917 2.203 7.801-.612 15.248 2.766 19.916 9.018 4.64 6.24 5.751 14.306 2.973 21.577-.788 2.062-.627 4.366.438 6.298 1.066 1.933 2.929 3.298 5.092 3.732 7.6 1.525 13.821 6.739 16.64 13.947 2.777 7.107 1.797 15.07-2.622 21.301-1.28 1.804-1.698 4.08-1.143 6.221s2.026 3.927 4.02 4.882c6.834 3.273 11.55 9.696 12.615 17.182.98 6.888-1.211 13.736-6.012 18.787-1.524 1.604-2.262 3.799-2.017 5.997.245 2.199 1.449 4.177 3.289 5.406 4.519 3.018 7.797 7.564 9.235 12.817 1.195 4.332 1.074 8.87-.351 13.122-.694 2.072-.45 4.344.668 6.222 1.119 1.878 3.001 3.174 5.154 3.549 4.702.82 8.953 3.062 12.288 6.477 6.76 6.935 8.357 17.391 3.974 26.018-.969 1.907-1.077 4.137-.298 6.129s2.372 3.557 4.378 4.3c8.705 3.227 14.632 11.631 14.747 20.914.125 9.683-5.918 18.351-15.037 21.571-2.018.712-3.635 2.253-4.445 4.234-.81 1.98-.735 4.213.205 6.135 4.244 8.673 2.499 19.093-4.34 25.925-6.861 6.846-17.3 8.557-25.972 4.259-1.915-.949-4.144-1.037-6.128-.238-1.983.797-3.532 2.403-4.257 4.414-3.222 8.933-11.767 14.934-21.265 14.934-6.699 0-13.01-2.953-17.317-8.102-1.424-1.703-3.53-2.687-5.749-2.688-.001 0-.002 0-.003 0-2.219 0-4.324.982-5.748 2.683-4.317 5.152-10.638 8.107-17.341 8.107-6.713 0-13.027-2.951-17.323-8.097-1.424-1.706-3.532-2.692-5.754-2.693-.001 0-.002 0-.003 0-2.221 0-4.328.984-5.753 2.688-4.307 5.149-10.625 8.102-17.337 8.102-6.706 0-13.017-2.951-17.313-8.097-1.423-1.705-3.528-2.691-5.748-2.693-.003 0-.006 0-.009 0-1.587 0-3.11.51-4.373 1.418l-.931-15.102c1.859-1.001 3.632-2.151 5.296-3.446 6.532 5.096 14.616 7.919 23.078 7.919 4.142 0 7.5-3.358 7.5-7.5s-3.358-7.5-7.5-7.5c-6.706 0-13.016-2.951-17.312-8.097-1.424-1.706-3.531-2.692-5.752-2.693-.002 0-.003 0-.005 0-2.22 0-4.326.984-5.751 2.686-2.611 3.12-6.02 5.486-9.832 6.833-2.413.843-4.938 1.27-7.506 1.27-6.033 0-11.702-2.351-15.962-6.618-1.407-1.41-3.316-2.202-5.308-2.202s-3.901.792-5.308 2.202c-4.26 4.268-9.929 6.618-15.962 6.618-2.568 0-5.093-.427-7.48-1.261-3.838-1.356-7.247-3.723-9.858-6.843-1.425-1.703-3.531-2.686-5.751-2.686-.001 0-.003 0-.005 0-2.222.001-4.329.988-5.752 2.693-4.296 5.145-10.606 8.097-17.312 8.097-4.142 0-7.5 3.358-7.5 7.5s3.358 7.5 7.5 7.5c8.462 0 16.546-2.822 23.078-7.919 1.662 1.293 3.437 2.438 5.296 3.439l-.932 15.108c-1.263-.908-2.787-1.418-4.373-1.418-.003 0-.006 0-.009 0-2.22.002-4.325.989-5.748 2.693-4.296 5.145-10.606 8.097-17.313 8.097-6.711 0-13.03-2.953-17.337-8.102-1.425-1.704-3.532-2.688-5.753-2.688-.001 0-.002 0-.003 0-2.222.001-4.33.987-5.754 2.693-4.296 5.145-10.61 8.097-17.323 8.097-6.704 0-13.024-2.955-17.341-8.107-1.425-1.701-3.53-2.683-5.748-2.683-.001 0-.002 0-.003 0-2.22.001-4.325.985-5.749 2.688-4.307 5.149-10.618 8.102-17.317 8.102-9.497 0-18.043-6.002-21.265-14.934-.726-2.011-2.274-3.617-4.258-4.414-1.983-.797-4.213-.71-6.128.24-4.407 2.185-9.516 2.866-14.385 1.917-4.066-.792-8.003 1.863-8.795 5.928-.791 4.066 1.863 8.004 5.928 8.795 5.578 1.086 11.352.88 16.808-.547 6.738 11.009 18.861 18.015 32.095 18.015 8.455 0 16.536-2.822 23.073-7.92 6.543 5.097 14.63 7.92 23.086 7.92 8.465 0 16.55-2.821 23.083-7.915 6.539 5.094 14.625 7.915 23.086 7.915 8.463 0 16.548-2.824 23.081-7.921 1.029.802 2.107 1.536 3.21 2.225l-3.068 49.742c-.463 7.486-5.601 13.944-12.793 16.075l-2.045.609c-6.84 2.031-12.719 6.131-17.002 11.858-4.28 5.726-6.543 12.535-6.543 19.691 0 4.142 3.358 7.5 7.5 7.5h90.949c4.142 0 7.5-3.358 7.5-7.5s-3.358-7.5-7.5-7.5h-81.812c.52-1.123 1.16-2.197 1.916-3.209 2.334-3.122 5.536-5.356 9.263-6.462l2.041-.607c13.202-3.91 22.644-15.777 23.495-29.529l4.94-80.095c1.004.08 2.012.123 3.025.123 7.709 0 15.06-2.305 21.27-6.59 6.209 4.285 13.561 6.59 21.27 6.59 1.012 0 2.021-.043 3.025-.123l4.94 80.097c.851 13.751 10.293 25.617 23.486 29.525l2.056.612c5.012 1.488 9.02 5.103 11.146 9.67h-15.062c-4.142 0-7.5 3.358-7.5 7.5s3.358 7.5 7.5 7.5h24.23c4.142 0 7.5-3.358 7.5-7.5 0-14.461-9.682-27.435-23.54-31.548l-2.06-.613c-7.183-2.127-12.321-8.586-12.784-16.07l-3.068-49.744c1.103-.689 2.181-1.423 3.21-2.225 6.533 5.098 14.618 7.921 23.081 7.921 8.461 0 16.548-2.821 23.086-7.915 6.533 5.095 14.618 7.915 23.083 7.915 8.456 0 16.543-2.823 23.086-7.92 6.537 5.098 14.618 7.92 23.073 7.92 13.229 0 25.349-7.001 32.088-18.003 12.734 3.362 26.535-.175 36.132-9.751 9.554-9.544 13.13-23.296 9.85-36.004 11.27-6.783 18.343-19.131 18.169-32.666z"/><path d="m408.606 459.568c-6.063 0-11.705 1.83-16.41 4.961-4.836-3.227-10.512-4.961-16.449-4.961-16.376 0-29.699 13.323-29.699 29.699 0 6.057 2.36 11.761 6.657 16.074 4.293 4.292 10.001 6.656 16.073 6.656h13.94c3.273 0 6.501-.724 9.451-2.072 2.884 1.327 6.087 2.072 9.464 2.072h13.946c12.532 0 22.728-10.196 22.728-22.728-.001-16.378-13.324-29.701-29.701-29.701zm-45.285 35.175c-1.466-1.471-2.273-3.416-2.273-5.477 0-8.105 6.594-14.7 14.7-14.7 2.216 0 4.353.505 6.299 1.43-2.006 3.997-3.142 8.503-3.142 13.271 0 2.712.479 5.315 1.355 7.728h-11.482c-2.066.001-4.008-.802-5.457-2.252zm52.257 2.253h-13.946c-4.261 0-7.728-3.467-7.728-7.728 0-8.106 6.595-14.701 14.701-14.701s14.701 6.595 14.701 14.701c0 4.262-3.466 7.728-7.728 7.728z"/></g></svg>