<svg id="Capa_1" enable-background="new 0 0 512 512" height="512" viewBox="0 0 512 512" width="512" xmlns="http://www.w3.org/2000/svg"><g><g><path d="m472.17 188.02c21.962 0 39.83-17.863 39.83-39.82v-67.97c0-21.957-17.868-39.82-39.83-39.82h-16.84c-4.143 0-7.5 3.358-7.5 7.5s3.357 7.5 7.5 7.5h16.84c13.691 0 24.83 11.134 24.83 24.82v67.97c0 13.686-11.139 24.82-24.83 24.82h-26.84v-36.22c0-21.867-12.792-41.622-32.326-50.743v-5.825c0-9.381-3.268-18.009-8.715-24.822h16.042c4.143 0 7.5-3.358 7.5-7.5s-3.357-7.5-7.5-7.5h-47.017c-.045 0-.09-.003-.135-.003h-.581v-22.805c0-9.706-7.897-17.602-17.602-17.602h-44.447c-9.705 0-17.602 7.896-17.602 17.602v22.805h-73.895v-22.805c.001-9.706-7.896-17.602-17.601-17.602h-44.447c-9.705 0-17.602 7.896-17.602 17.602v22.805h-.581c-.045 0-.09.003-.135.003h-98.856c-21.962 0-39.83 17.863-39.83 39.82v67.97c0 21.957 17.868 39.82 39.83 39.82h26.84v26.24c0 4.142 3.357 7.5 7.5 7.5s7.5-3.358 7.5-7.5v-77.46c0-13.503 6.661-25.909 17.326-33.47v96.101c0 21.959 17.865 39.825 39.825 39.825h.581v19.774c0 8.592 6.989 15.582 15.581 15.582h16.163c8.592 0 15.581-6.99 15.581-15.582v-19.774h138.545v19.774c0 8.592 6.989 15.582 15.581 15.582h16.163c8.592 0 15.581-6.99 15.581-15.582v-19.774h.581c21.96 0 39.825-17.866 39.825-39.825v-96.101c10.666 7.561 17.326 19.968 17.326 33.47v319.21c0 22.602-18.388 40.99-40.99 40.99h-266.679c-22.603 0-40.99-18.388-40.99-40.99v-206.75c0-4.142-3.357-7.5-7.5-7.5s-7.5 3.358-7.5 7.5v11.362h-38.967c-15.275 0-27.703 12.428-27.703 27.703v133.341c0 15.276 12.428 27.704 27.703 27.704h38.967v6.64c0 30.873 25.117 55.99 55.99 55.99h266.68c30.873 0 55.99-25.117 55.99-55.99v-6.64h38.967c15.275 0 27.703-12.428 27.703-27.704v-133.341c0-15.275-12.428-27.703-27.703-27.703h-38.967v-72.602zm-164.223-170.418c0-1.435 1.167-2.602 2.602-2.602h44.447c1.435 0 2.602 1.167 2.602 2.602v22.805h-49.65v-22.805zm-153.545 0c0-1.435 1.167-2.602 2.602-2.602h44.447c1.435 0 2.602 1.167 2.602 2.602v22.805h-49.65v-22.805zm-87.732 119.198v36.22h-26.84c-13.691 0-24.83-11.134-24.83-24.82v-67.97c0-13.686 11.139-24.82 24.83-24.82h67.881c-5.447 6.813-8.715 15.441-8.715 24.822v5.825c-19.534 9.12-32.326 28.876-32.326 50.743zm105.058 122.23c0 .321-.261.582-.581.582h-16.163c-.32 0-.581-.261-.581-.582v-54.548c0-.321.261-.582.581-.582h16.163c.32 0 .581.261.581.582zm185.87 0c0 .321-.261.582-.581.582h-16.163c-.32 0-.581-.261-.581-.582v-54.548c0-.321.261-.582.581-.582h16.163c.32 0 .581.261.581.582zm40.406-59.599c0 13.688-11.137 24.825-24.825 24.825h-.581v-19.774c0-8.592-6.989-15.582-15.581-15.582h-16.163c-8.592 0-15.581 6.99-15.581 15.582v19.774h-138.545v-19.774c0-8.592-6.989-15.582-15.581-15.582h-16.163c-8.592 0-15.581 6.99-15.581 15.582v19.774h-.581c-13.688 0-24.825-11.137-24.825-24.825v-119.199c0-13.643 11.064-24.749 24.69-24.822h234.627c13.626.073 24.69 11.178 24.69 24.822zm-370.301 76.191h38.967v27.427h-51.67v-14.724c0-7.004 5.698-12.703 12.703-12.703zm0 158.748c-7.005 0-12.703-5.699-12.703-12.704v-103.617h51.67v116.321zm456.594 0h-38.967v-116.321h51.67v103.618c0 7.004-5.698 12.703-12.703 12.703zm0-158.748c7.005 0 12.703 5.699 12.703 12.703v14.724h-51.67v-27.427z"/><path d="m381.26 303.05h-250.52c-17.502 0-31.74 14.239-31.74 31.74v113.14c0 17.501 14.238 31.74 31.74 31.74h250.52c17.502 0 31.74-14.238 31.74-31.74v-5.47c0-4.142-3.357-7.5-7.5-7.5s-7.5 3.358-7.5 7.5v5.47c0 9.23-7.51 16.74-16.74 16.74h-250.52c-9.23 0-16.74-7.509-16.74-16.74v-43.756c4.864 3.031 10.599 4.79 16.74 4.79h8.662v19.774c0 8.592 6.989 15.582 15.581 15.582h16.163c8.592 0 15.581-6.99 15.581-15.582v-19.774h138.545v19.774c0 8.592 6.989 15.582 15.581 15.582h16.163c8.592 0 15.581-6.99 15.581-15.582v-19.774h8.662c6.141 0 11.877-1.758 16.74-4.79v3.286c0 4.142 3.357 7.5 7.5 7.5s7.5-3.358 7.5-7.5v-72.67c.001-17.501-14.237-31.74-31.739-31.74zm-209.532 125.688c0 .321-.261.582-.581.582h-16.163c-.32 0-.581-.261-.581-.582v-54.549c0-.32.261-.581.581-.581h16.163c.32 0 .581.261.581.581zm185.87 0c0 .321-.261.582-.581.582h-16.163c-.32 0-.581-.261-.581-.582v-54.549c0-.32.261-.581.581-.581h16.163c.32 0 .581.261.581.581zm23.662-34.775h-8.662v-19.774c0-8.591-6.989-15.581-15.581-15.581h-16.163c-8.592 0-15.581 6.99-15.581 15.581v19.774h-138.545v-19.774c0-8.591-6.989-15.581-15.581-15.581h-16.163c-8.592 0-15.581 6.99-15.581 15.581v19.774h-8.662c-9.206 0-16.698-7.47-16.74-16.667v-42.506c0-9.23 7.51-16.74 16.74-16.74h250.52c9.23 0 16.74 7.51 16.74 16.74v42.507c-.043 9.197-7.535 16.666-16.741 16.666z"/></g></g></svg>