<svg id="Capa_1" enable-background="new 0 0 512 512" height="512" viewBox="0 0 512 512" width="512" xmlns="http://www.w3.org/2000/svg"><g><g><path d="m442.756 207.365c-14.414-28.25-35.46-53.288-60.865-72.405-3.31-2.491-8.012-1.826-10.502 1.483-2.491 3.31-1.827 8.012 1.483 10.502 23.594 17.755 43.14 41.005 56.523 67.237 14.026 27.491 21.138 57.194 21.138 88.285 0 107.266-87.267 194.533-194.533 194.533s-194.533-87.267-194.533-194.533 87.267-194.532 194.533-194.532c31.004 0 60.619 7.067 88.02 21.004 3.692 1.877 8.208.408 10.085-3.285 1.878-3.692.407-8.208-3.285-10.085-19.282-9.808-39.582-16.436-60.642-19.871 12.072-9.906 19.789-24.933 19.789-41.731 0-29.758-24.209-53.967-53.967-53.967s-53.967 24.209-53.967 53.967c0 16.817 7.735 31.859 19.83 41.764-99.356 16.35-175.396 102.823-175.396 206.736 0 115.537 93.996 209.533 209.533 209.533s209.533-93.996 209.533-209.533c0-33.483-7.663-65.48-22.777-95.102zm-178.093-115.413c-2.788.636-5.685.983-8.663.983s-5.875-.347-8.663-.983v-15.761c0-.32.261-.581.581-.581h16.163c.32 0 .581.261.581.581v15.761zm-47.63-37.985c0-21.487 17.48-38.967 38.967-38.967s38.967 17.48 38.967 38.967c0 12.593-6.009 23.803-15.305 30.931v-8.707c0-8.591-6.99-15.581-15.581-15.581h-16.163c-8.591 0-15.581 6.99-15.581 15.581v8.707c-9.295-7.128-15.304-18.338-15.304-30.931z"/><path d="m105.274 380.88c-3.585 2.075-4.809 6.664-2.734 10.248 15.302 26.437 37.303 48.609 63.626 64.119 27.121 15.98 58.185 24.427 89.834 24.427 97.712 0 177.208-79.495 177.208-177.208s-79.496-177.206-177.208-177.206-177.208 79.495-177.208 177.207c0 18.811 2.929 37.315 8.705 54.999 1.287 3.937 5.521 6.088 9.458 4.801 3.938-1.286 6.087-5.521 4.801-9.458-5.284-16.177-7.963-33.115-7.963-50.341 0-89.441 72.766-162.207 162.208-162.207s162.208 72.766 162.208 162.207-72.768 162.207-162.209 162.207c-28.973 0-57.404-7.729-82.219-22.351-24.103-14.202-44.248-34.503-58.258-58.709-2.076-3.586-6.665-4.809-10.249-2.735z"/><path d="m152.125 406.342c2.623 2.624 6.091 3.972 9.583 3.972 2.679 0 5.373-.793 7.71-2.414l71.363-49.47c19.894 5.354 41.596-.306 56.242-14.942 14.633-14.644 20.293-36.345 14.938-56.239l49.469-71.362c3.734-5.385 3.08-12.658-1.557-17.294-4.635-4.635-11.907-5.291-17.294-1.558l-29.871 20.708c-3.404 2.36-4.25 7.033-1.891 10.437 2.36 3.404 7.033 4.25 10.437 1.891l23.279-16.138-46.969 67.756c-1.359 1.961-1.705 4.453-.929 6.71 4.493 13.076 2.308 27.548-5.415 38.685l-11.071-11.07c2.257-4.008 3.551-8.628 3.551-13.546 0-15.275-12.428-27.703-27.703-27.703-4.918 0-9.538 1.294-13.546 3.551l-11.07-11.07c11.139-7.723 25.609-9.908 38.685-5.415 2.256.775 4.747.431 6.708-.928l15.425-10.688c3.405-2.359 4.252-7.032 1.894-10.437-2.359-3.404-7.032-4.252-10.437-1.894l-12.441 8.62c-19.895-5.355-41.597.305-56.243 14.942-14.633 14.644-20.293 36.345-14.938 56.239l-49.469 71.362c-3.731 5.386-3.076 12.66 1.56 17.295zm103.875-116.578c7.004 0 12.703 5.699 12.703 12.703 0 7.005-5.699 12.704-12.703 12.704s-12.703-5.699-12.703-12.704c0-7.004 5.699-12.703 12.703-12.703zm-41.566 33.483c1.359-1.961 1.705-4.453.929-6.71-4.493-13.076-2.308-27.548 5.415-38.685l11.07 11.07c-2.257 4.008-3.551 8.627-3.551 13.546 0 15.276 12.428 27.704 27.703 27.704 4.918 0 9.538-1.294 13.546-3.551l11.07 11.07c-11.138 7.723-25.609 9.907-38.685 5.415-2.255-.775-4.748-.431-6.71.929l-67.757 46.97z"/><path d="m263.5 175.187v-10.102c0-4.142-3.358-7.5-7.5-7.5s-7.5 3.358-7.5 7.5v10.102c0 4.142 3.358 7.5 7.5 7.5s7.5-3.358 7.5-7.5z"/><path d="m128.72 309.967c4.142 0 7.5-3.358 7.5-7.5s-3.358-7.5-7.5-7.5h-10.102c-4.142 0-7.5 3.358-7.5 7.5s3.358 7.5 7.5 7.5z"/><path d="m248.5 429.748v10.102c0 4.142 3.358 7.5 7.5 7.5s7.5-3.358 7.5-7.5v-10.102c0-4.142-3.358-7.5-7.5-7.5s-7.5 3.358-7.5 7.5z"/><path d="m393.382 309.967c4.142 0 7.5-3.358 7.5-7.5s-3.358-7.5-7.5-7.5h-10.102c-4.142 0-7.5 3.358-7.5 7.5s3.358 7.5 7.5 7.5z"/><path d="m165.999 219.967c1.919 0 3.839-.732 5.303-2.197 2.929-2.929 2.929-7.678 0-10.606l-7.143-7.143c-2.929-2.929-7.678-2.929-10.606 0-2.929 2.929-2.929 7.678 0 10.606l7.143 7.143c1.464 1.464 3.384 2.197 5.303 2.197z"/><path d="m340.698 387.165c-2.929 2.929-2.929 7.678 0 10.606l7.143 7.143c1.464 1.464 3.384 2.197 5.303 2.197s3.839-.732 5.303-2.197c2.929-2.929 2.929-7.678 0-10.606l-7.143-7.143c-2.929-2.929-7.678-2.929-10.606 0z"/></g></g></svg>