<svg id="Capa_1" enable-background="new 0 0 512 512" height="512" viewBox="0 0 512 512" width="512" xmlns="http://www.w3.org/2000/svg"><g><path d="m496.006 80.891 11.43-11.43c2.943-2.943 4.564-6.856 4.564-11.018s-1.621-8.075-4.564-11.018l-42.861-42.861c-2.943-2.943-6.856-4.564-11.018-4.564s-8.075 1.621-11.018 4.564l-11.43 11.43c-2.943 2.943-4.564 6.856-4.564 11.018s1.621 8.075 4.564 11.018l.412.412-29.695 29.695c-2.929 2.929-2.929 7.678 0 10.606 1.464 1.464 3.384 2.197 5.303 2.197s3.839-.732 5.303-2.197l29.695-29.695 20.824 20.824-84.135 84.135-20.824-20.824 29.69-29.691c2.929-2.929 2.929-7.678 0-10.606-2.929-2.929-7.678-2.929-10.606 0l-29.69 29.691-.413-.413c-2.943-2.943-6.856-4.564-11.018-4.564s-8.075 1.621-11.018 4.564l-11.43 11.43c-2.943 2.943-4.564 6.856-4.564 11.018s1.621 8.075 4.564 11.018l4.698 4.698-208.008 208.009c-2.929 2.929-2.929 7.678 0 10.606 1.464 1.464 3.384 2.197 5.303 2.197s3.839-.732 5.303-2.197l12.931-12.931 12.254 12.254-75.849 75.849-12.254-12.254 38.169-38.168c2.929-2.929 2.929-7.678 0-10.606-2.929-2.93-7.678-2.929-10.606 0l-38.169 38.168-1.747-1.747c-2.929-2.929-7.678-2.929-10.606 0-2.929 2.929-2.929 7.678 0 10.606l1.748 1.748-31.518 31.516c-3.325 3.325-5.156 7.746-5.156 12.447v12.613c0 7.479 6.083 13.562 13.562 13.562h12.613c4.702 0 9.122-1.831 12.447-5.156l31.516-31.516 1.748 1.748c1.464 1.464 3.384 2.197 5.303 2.197s3.839-.732 5.303-2.197c2.929-2.929 2.929-7.678 0-10.606l-1.747-1.747 214.578-214.579c2.929-2.929 2.929-7.678 0-10.606-2.929-2.929-7.678-2.929-10.606 0l-18.706 18.706-12.253-12.253 75.054-75.054 12.253 12.253-31.598 31.598c-2.929 2.929-2.929 7.678 0 10.606 1.464 1.464 3.384 2.197 5.303 2.197s3.839-.732 5.303-2.197l31.598-31.598 4.698 4.698c2.943 2.943 6.856 4.564 11.018 4.564s8.075-1.621 11.018-4.564l11.43-11.43c2.943-2.943 4.564-6.856 4.564-11.018s-1.621-8.075-4.564-11.018l-.412-.412 72.707-72.707-21.566 124.516c-.759 4.385-1.144 8.864-1.144 13.312 0 18.618 15.146 33.764 33.764 33.764s33.764-15.146 33.764-33.764v-.168c0-4.326-.364-8.683-1.082-12.949l-22.089-131.224c.402.031.804.059 1.211.059 4.162 0 8.075-1.621 11.018-4.564zm-467.991 415.347c-.484.484-1.155.762-1.84.762h-11.175v-11.175c0-.695.271-1.349.762-1.84l31.516-31.516 12.253 12.253zm192.279-216.785 12.253 12.253-53.096 53.096-12.254-12.254zm-75.954 75.953 12.251-12.251 12.254 12.254-12.251 12.251zm111.064-86.557-12.25 12.251-12.254-12.254 12.251-12.251zm123.825-92.393-11.43 11.43c-.228.227-.596.227-.823 0l-42.861-42.861c-.227-.227-.227-.596 0-.823l11.43-11.43c.114-.113.263-.17.412-.17s.298.057.412.17l42.861 42.861c.226.227.226.596-.001.823zm112.719 53.112v.168c0 10.347-8.417 18.764-18.764 18.764s-18.764-8.417-18.764-18.764c0-3.593.311-7.211.924-10.753l18.109-104.554 17.621 104.68c.58 3.445.874 6.964.874 10.459zm-50.233-202.145c-.227-.227-.227-.596 0-.823l11.43-11.43c.114-.113.263-.17.412-.17s.298.057.412.17l42.861 42.861c.227.227.227.596 0 .823l-11.43 11.43c-.228.227-.596.227-.823 0z"/></g></svg>