<svg id="Capa_1" enable-background="new 0 0 512 512" height="512" viewBox="0 0 512 512" width="512" xmlns="http://www.w3.org/2000/svg"><g><g><path d="m199.628 319.446c-1.432-3.886-5.738-5.876-9.631-4.445-3.887 1.432-5.877 5.743-4.445 9.63 2.893 7.85 4.358 16.125 4.358 24.597 0 39.31-31.98 71.29-71.29 71.29s-71.29-31.98-71.29-71.29 31.98-71.29 71.29-71.29c18.724 0 36.409 7.207 49.798 20.293 2.962 2.896 7.711 2.84 10.605-.121 2.896-2.962 2.842-7.711-.121-10.606-16.207-15.842-37.616-24.567-60.282-24.567-47.58 0-86.29 38.709-86.29 86.29s38.71 86.29 86.29 86.29 86.29-38.709 86.29-86.29c0-10.246-1.777-20.266-5.282-29.781z"/><path d="m489.938 280.402-46.632-90.421c-1.899-3.682-6.421-5.127-10.104-3.229-3.682 1.899-5.127 6.422-3.229 10.104l26.945 52.247c-18.379-11.704-40.179-18.494-63.536-18.494-5.036 0-10 .318-14.873.93-35.912-6.802-69.038-10.962-98.849-12.436v-53.884c0-16.837 6.558-32.672 18.464-44.587 11.905-11.906 27.74-18.463 44.586-18.463 23.703 0 45.175 13.084 56.034 34.147l15.18 29.44c1.897 3.683 6.421 5.127 10.104 3.229 3.682-1.898 5.127-6.421 3.229-10.103l-15.18-29.44c-4.287-8.315-9.914-15.619-16.536-21.72l-16.363-31.723c-10.128-19.642-30.15-31.843-52.254-31.843-15.697 0-30.462 6.114-41.581 17.221-11.102 11.112-17.215 25.877-17.215 41.575v39.163c-2.279 7.388-3.468 15.155-3.468 23.104v53.363c-2.918-.056-5.814-.094-8.66-.094s-5.742.038-8.66.094v-53.363c0-7.95-1.189-15.716-3.468-23.104v-39.163c0-15.698-6.113-30.463-17.22-41.581-11.114-11.102-25.879-17.215-41.576-17.215-22.104 0-42.126 12.201-52.254 31.842l-16.363 31.724c-6.622 6.101-12.249 13.406-16.536 21.72l-11.85 22.98c-1.898 3.682-.453 8.205 3.229 10.104 3.682 1.898 8.206.453 10.104-3.229l11.85-22.98c10.859-21.062 32.331-34.147 56.034-34.147 16.846 0 32.681 6.557 44.584 18.461 11.908 11.917 18.466 27.751 18.466 44.589v53.884c-29.811 1.474-62.937 5.635-98.849 12.436-4.873-.612-9.836-.93-14.873-.93-23.355 0-45.153 6.788-63.531 18.49l30.279-58.703c1.898-3.681.453-8.205-3.228-10.104-3.683-1.898-8.204-.454-10.104 3.228l-49.972 96.882c-13.883 19.421-22.062 43.184-22.062 68.824 0 65.406 53.212 118.618 118.618 118.618 48.348 0 90.027-29.08 108.481-70.665 8.652 5.226 18.621 8.035 28.901 8.035s20.249-2.809 28.901-8.035c18.454 41.585 60.133 70.665 108.481 70.665 65.406 0 118.618-53.212 118.618-118.618 0-25.64-8.179-49.404-22.062-68.825zm-206.81-177.45c0-11.694 4.556-22.694 12.821-30.969 8.281-8.272 19.281-12.828 30.975-12.828 16.465 0 31.379 9.088 38.922 23.718l4.881 9.464c-8.778-3.361-18.242-5.168-28.017-5.168-20.853 0-40.454 8.117-55.195 22.859-1.541 1.542-2.992 3.149-4.387 4.793zm-113.838-15.784c-9.775 0-19.239 1.807-28.017 5.168l4.881-9.464c7.543-14.629 22.457-23.717 38.922-23.717 11.693 0 22.693 4.556 30.97 12.822 8.271 8.28 12.826 19.281 12.826 30.975v11.869c-1.395-1.645-2.847-3.252-4.389-4.795-14.739-14.74-34.34-22.858-55.193-22.858zm86.71 146.319c26.5 0 56.295 2.521 88.878 7.5-39.13 17.604-67.053 55.822-69.87 100.74h-38.017c-2.817-44.918-30.74-83.136-69.87-100.74 32.584-4.979 62.379-7.5 88.879-7.5zm-137.382 219.358c-57.135 0-103.618-46.483-103.618-103.618s46.483-103.618 103.618-103.618 103.617 46.483 103.617 103.618-46.482 103.618-103.617 103.618zm137.382-62.631c-8.516 0-16.732-2.636-23.591-7.483 2.456-8.327 4.019-17.032 4.582-26.005h38.017c.563 8.973 2.126 17.678 4.582 26.005-6.858 4.847-15.074 7.483-23.59 7.483zm137.382 62.631c-57.135 0-103.617-46.483-103.617-103.618s46.482-103.618 103.617-103.618 103.618 46.483 103.618 103.618-46.483 103.618-103.618 103.618z"/><path d="m393.382 262.934c-47.582 0-86.292 38.71-86.292 86.292s38.71 86.293 86.292 86.293 86.293-38.711 86.293-86.293-38.711-86.292-86.293-86.292zm0 157.586c-39.311 0-71.292-31.982-71.292-71.293s31.981-71.292 71.292-71.292c39.312 0 71.293 31.981 71.293 71.292s-31.982 71.293-71.293 71.293z"/></g></g></svg>