<svg id="Capa_1" enable-background="new 0 0 512 512" height="512" viewBox="0 0 512 512" width="512" xmlns="http://www.w3.org/2000/svg"><g><g><path d="m428.736 254.561h-67.248v-25.41h4.62c8.591 0 15.58-6.989 15.58-15.58v-24.24c0-8.591-6.989-15.58-15.58-15.58h-236.89c-4.142 0-7.5 3.357-7.5 7.5s3.358 7.5 7.5 7.5h236.89c.32 0 .58.26.58.58v24.24c0 .325-.255.58-.58.58h-307.089c-.325 0-.58-.255-.58-.58v-24.24c0-.32.26-.58.58-.58h35.2c4.142 0 7.5-3.357 7.5-7.5s-3.358-7.5-7.5-7.5h-35.2c-8.591 0-15.58 6.989-15.58 15.58v24.24c0 8.591 6.989 15.58 15.58 15.58h4.62v197.199c0 4.143 3.358 7.5 7.5 7.5s7.5-3.357 7.5-7.5v-15.366h103.618c9.706 0 17.602-7.896 17.602-17.602v-60.609c0-9.705-7.896-17.602-17.602-17.602h-103.618v-86.021h267.85v105.32c0 4.143 3.358 7.5 7.5 7.5s7.5-3.357 7.5-7.5v-24.502h51.667v83.996h-51.667v-24.494c0-4.143-3.358-7.5-7.5-7.5s-7.5 3.357-7.5 7.5v114.83c0 7.003-5.702 12.7-12.71 12.7h-242.441c-7.002 0-12.7-5.697-12.7-12.7v-22.95c0-4.143-3.358-7.5-7.5-7.5s-7.5 3.357-7.5 7.5v22.95c0 15.274 12.426 27.7 27.7 27.7h242.44c15.28 0 27.71-12.426 27.71-27.7v-34.93h67.248c21.959 0 39.825-17.865 39.825-39.825v-115.159c.001-21.96-17.865-39.825-39.825-39.825zm-246.479 75.61c1.435 0 2.602 1.167 2.602 2.602v60.609c0 1.435-1.167 2.602-2.602 2.602h-103.618v-65.812h103.618zm271.305 79.374c0 13.688-11.137 24.825-24.825 24.825h-67.248v-25.406h59.167c4.142 0 7.5-3.357 7.5-7.5v-98.996c0-4.143-3.358-7.5-7.5-7.5h-59.167v-25.407h67.248c13.688 0 24.825 11.137 24.825 24.825z"/><path d="m242.732 140.842c0 4.143 3.358 7.5 7.5 7.5s7.5-3.357 7.5-7.5c0-4.589 1.166-6.532 2.931-9.475 2.258-3.764 5.069-8.448 5.069-17.192s-2.811-13.428-5.069-17.191c-1.765-2.942-2.931-4.886-2.931-9.475s1.166-6.532 2.931-9.475c2.258-3.764 5.069-8.448 5.069-17.192s-2.811-13.429-5.068-17.193c-1.766-2.942-2.932-4.887-2.932-9.478 0-4.59 1.166-6.534 2.931-9.477 2.258-3.765 5.069-8.449 5.069-17.194 0-4.143-3.358-7.5-7.5-7.5s-7.5 3.357-7.5 7.5c0 4.591-1.166 6.535-2.932 9.478-2.258 3.765-5.068 8.449-5.068 17.193 0 8.745 2.811 13.43 5.069 17.194 1.765 2.942 2.931 4.887 2.931 9.477s-1.166 6.533-2.931 9.476c-2.258 3.764-5.069 8.447-5.069 17.191s2.811 13.428 5.069 17.191c1.765 2.942 2.931 4.886 2.931 9.475 0 4.59-1.166 6.533-2.931 9.476-2.258 3.763-5.069 8.447-5.069 17.191z"/><path d="m159.391 140.842c0 4.143 3.358 7.5 7.5 7.5s7.5-3.357 7.5-7.5c0-4.589 1.166-6.532 2.931-9.475 2.258-3.764 5.069-8.448 5.069-17.192s-2.811-13.428-5.069-17.191c-1.765-2.942-2.931-4.886-2.931-9.475s1.166-6.532 2.931-9.475c2.258-3.764 5.069-8.448 5.069-17.192s-2.811-13.429-5.068-17.193c-1.766-2.942-2.932-4.887-2.932-9.478 0-4.59 1.166-6.534 2.931-9.477 2.258-3.765 5.069-8.449 5.069-17.194 0-4.143-3.358-7.5-7.5-7.5s-7.5 3.357-7.5 7.5c0 4.591-1.166 6.535-2.932 9.478-2.258 3.765-5.068 8.449-5.068 17.193 0 8.745 2.811 13.43 5.069 17.194 1.765 2.942 2.931 4.887 2.931 9.477s-1.166 6.533-2.931 9.476c-2.258 3.764-5.069 8.447-5.069 17.191s2.811 13.428 5.069 17.191c1.765 2.942 2.931 4.886 2.931 9.475 0 4.59-1.166 6.533-2.931 9.476-2.259 3.763-5.069 8.447-5.069 17.191z"/><path d="m284.404 140.842c0 4.143 3.358 7.5 7.5 7.5s7.5-3.357 7.5-7.5c0-6.392 1.426-9.291 3.23-12.962 2.125-4.322 4.77-9.701 4.77-19.58 0-9.881-2.645-15.26-4.77-19.582-1.805-3.672-3.23-6.571-3.23-12.964s1.426-9.293 3.23-12.965c2.125-4.322 4.77-9.701 4.77-19.582 0-4.143-3.358-7.5-7.5-7.5s-7.5 3.357-7.5 7.5c0 6.393-1.426 9.293-3.23 12.965-2.125 4.322-4.77 9.701-4.77 19.582 0 9.88 2.645 15.259 4.769 19.581 1.805 3.672 3.231 6.572 3.231 12.965 0 6.391-1.426 9.29-3.23 12.961-2.126 4.322-4.77 9.701-4.77 19.581z"/><path d="m117.719 140.842c0 4.143 3.358 7.5 7.5 7.5s7.5-3.357 7.5-7.5c0-6.392 1.426-9.291 3.23-12.962 2.125-4.322 4.77-9.701 4.77-19.58 0-9.881-2.645-15.26-4.77-19.582-1.805-3.672-3.23-6.571-3.23-12.964s1.426-9.293 3.23-12.965c2.125-4.322 4.77-9.701 4.77-19.582 0-4.143-3.358-7.5-7.5-7.5s-7.5 3.357-7.5 7.5c0 6.393-1.426 9.293-3.23 12.965-2.125 4.322-4.77 9.701-4.77 19.582 0 9.88 2.645 15.259 4.769 19.581 1.805 3.672 3.231 6.572 3.231 12.965 0 6.391-1.426 9.29-3.23 12.961-2.125 4.322-4.77 9.701-4.77 19.581z"/><path d="m201.062 140.842c0 4.143 3.358 7.5 7.5 7.5s7.5-3.357 7.5-7.5c0-6.392 1.426-9.291 3.23-12.962 2.125-4.322 4.77-9.701 4.77-19.58 0-9.881-2.645-15.26-4.77-19.582-1.805-3.672-3.23-6.571-3.23-12.964s1.426-9.293 3.23-12.965c2.125-4.322 4.77-9.701 4.77-19.582 0-4.143-3.358-7.5-7.5-7.5s-7.5 3.357-7.5 7.5c0 6.393-1.426 9.293-3.23 12.965-2.125 4.322-4.77 9.701-4.77 19.582 0 9.88 2.645 15.259 4.769 19.581 1.805 3.672 3.231 6.572 3.231 12.965 0 6.391-1.426 9.29-3.23 12.961-2.126 4.322-4.77 9.701-4.77 19.581z"/></g></g></svg>