<svg id="Capa_1" enable-background="new 0 0 512 512" height="512" viewBox="0 0 512 512" width="512" xmlns="http://www.w3.org/2000/svg"><g><g><path d="m504.5 0h-145.72c-11.393 0-22.439 4.074-31.105 11.471l-10.924 9.325c-3.15 2.689-3.524 7.423-.835 10.574 2.688 3.15 7.423 3.525 10.573.834l10.924-9.325c5.953-5.081 13.541-7.879 21.367-7.879h67.192l-21.429 19.315c-4.187 3.773-9.776 5.423-15.343 4.523l-14.727-2.379c-10.575-1.711-21.417 1.785-29.003 9.35l-24.943 24.87c-2.933 2.924-2.939 7.673-.016 10.606 1.466 1.47 3.389 2.205 5.312 2.205 1.916 0 3.832-.729 5.296-2.189l24.943-24.87c4.189-4.178 10.182-6.104 16.019-5.164l14.726 2.379c10.078 1.63 20.201-1.356 27.779-8.189l33.79-30.457h48.624v117.61h-74.08c-15.519 0-31.024 1.92-46.084 5.705l-20.231 5.074c-2.977-14.709-9.149-30.635-21.921-30.635-16.269 0-21.832 25.837-23.718 42.088l-5.383 1.349h-99.164l-51.382-12.89 34.572-38.136c4.232-4.672 9.693-8.015 15.789-9.666l45.368-12.264c.007-.002.013-.004.02-.005l12.912-3.49c6.814-1.843 13.245-5.235 18.592-9.806l17.58-15.01c3.15-2.69 3.523-7.424.834-10.574-2.688-3.148-7.422-3.524-10.574-.834l-17.584 15.014c-3.67 3.137-8.083 5.465-12.763 6.73l-8.103 2.191-32.151-41.225c-12.985-16.667-32.56-26.226-53.706-26.226h-158.323c-4.143 0-7.5 3.358-7.5 7.5v240.24c0 4.142 3.357 7.5 7.5 7.5s7.5-3.358 7.5-7.5v-100.13h22.206c-1.681 10.432-1.85 19.152-1.85 19.37 0 10.99 7.225 20.321 17.173 23.503v15.893c0 4.142 3.357 7.5 7.5 7.5s7.5-3.358 7.5-7.5v-15.893c9.948-3.182 17.173-12.513 17.173-23.503 0-.218-.169-8.936-1.85-19.366h6.229c14.289 0 28.563 1.766 42.43 5.25l48.141 12.077c-3.339 1.556-6.82 3.349-10.312 5.409-23.571 13.906-36.03 33.044-36.03 55.345 0 28.242 20.704 61.154 43.77 95.216 10.335 15.261 11.965 37.862 4.473 62.006-6.964 22.44-32.872 78.31-122.967 114.083h-43.586v-214.26c0-4.142-3.357-7.5-7.5-7.5s-7.5 3.358-7.5 7.5v221.76c0 4.142 3.357 7.5 7.5 7.5h497c4.143 0 7.5-3.358 7.5-7.5v-102.01c0-4.142-3.357-7.5-7.5-7.5s-7.5 3.358-7.5 7.5v94.51h-106.332c8.375-17.266 22.732-51.735 22.732-85.156 0-37.023-22.453-69.025-49.355-95.166v-12.785c9.948-3.182 17.173-12.514 17.173-23.504 0-.55-1.061-54.978-24.673-54.978s-24.673 54.428-24.673 54.978c0 3.736.839 7.278 2.332 10.455-10.85-8.524-21.395-16.109-30.56-22.701-4.043-2.908-7.862-5.654-11.288-8.18-22.062-16.265-32.357-34.504-28.992-51.357 3.443-17.244 20.662-31.664 44.937-37.632.01-.002.019-.006.029-.009h.003l1.84-.461c1.098 9.764 7.914 17.82 17.013 20.73v15.893c0 4.142 3.357 7.5 7.5 7.5s7.5-3.358 7.5-7.5v-15.893c9.948-3.182 17.173-12.514 17.173-23.504 0-.143-.073-3.916-.591-9.42l21.722-5.448c13.869-3.486 28.145-5.254 42.432-5.254h74.078v219.88c0 4.142 3.357 7.5 7.5 7.5s7.5-3.358 7.5-7.5v-359.988c0-4.142-3.357-7.5-7.5-7.5zm-444.472 176.652c-5.334 0-9.673-4.339-9.673-9.672 0-4.252.896-14.281 2.888-23.264 2.771-12.498 5.89-15.846 6.785-16.579.896.733 4.014 4.082 6.785 16.579 1.992 8.983 2.888 19.012 2.888 23.264 0 5.333-4.339 9.672-9.673 9.672zm29.053-44.038h-9.699c-3.559-11.106-9.486-20.612-19.354-20.612-9.866 0-15.793 9.504-19.352 20.608h-25.676v-117.61h74.5l3.533 10.411c2.782 8.197 8.865 15.022 16.69 18.724l12.407 5.869c4.576 2.165 7.943 6.213 9.239 11.108l7.878 29.768c.89 3.361 3.925 5.583 7.245 5.583.635 0 1.281-.082 1.924-.251 4.004-1.06 6.392-5.165 5.331-9.169l-7.877-29.768c-2.429-9.179-8.744-16.771-17.327-20.831l-12.405-5.868c-4.174-1.975-7.418-5.614-8.901-9.986l-1.897-5.59h60.483c16.488 0 31.751 7.452 41.876 20.447l28.271 36.25-34.489 9.323c-8.875 2.403-16.824 7.27-22.987 14.072l-39.951 44.07-3.379-.848c-15.059-3.782-30.562-5.7-46.083-5.7zm260.678 124.511c2.771-12.499 5.891-15.846 6.785-16.579.895.733 4.014 4.081 6.785 16.58 1.992 8.982 2.888 19.011 2.888 23.264 0 5.333-4.339 9.673-9.673 9.673s-9.673-4.339-9.673-9.673c0-4.254.896-14.283 2.888-23.265zm-101.107-51.456c-6.165 30.875 19.157 54.834 34.802 66.368 3.496 2.578 7.351 5.35 11.431 8.284 38.716 27.843 103.515 74.444 103.515 131.522 0 35.157-18.338 73.258-24.552 85.156h-279.369c51.639-27.233 87.873-66.05 101.398-109.637 8.851-28.521 6.525-55.808-6.379-74.863-16.402-24.221-41.189-60.825-41.189-86.805 0-16.84 9.538-31.054 28.349-42.246 13.102-7.795 26.493-11.448 29.724-12.258h65.739c-12.429 9.135-20.799 21.108-23.469 34.479zm86.032-28.264c-5.334 0-9.673-4.339-9.673-9.673 0-4.252.896-14.282 2.888-23.264 2.771-12.499 5.89-15.846 6.785-16.579.895.732 4.014 4.081 6.785 16.579 1.992 8.983 2.888 19.012 2.888 23.264-.001 5.333-4.339 9.673-9.673 9.673z"/><path d="m441.87 282.106c4.143 0 7.5-3.358 7.5-7.5v-15.893c9.948-3.182 17.173-12.514 17.173-23.504 0-.55-1.061-54.978-24.673-54.978s-24.673 54.428-24.673 54.978c0 10.99 7.225 20.322 17.173 23.504v15.893c0 4.143 3.358 7.5 7.5 7.5zm-6.785-70.161c2.771-12.499 5.891-15.846 6.785-16.579.895.733 4.014 4.081 6.785 16.58 1.992 8.982 2.888 19.011 2.888 23.264 0 5.333-4.339 9.673-9.673 9.673s-9.673-4.339-9.673-9.673c0-4.253.896-14.282 2.888-23.265z"/><path d="m453.815 426.676c4.143 0 7.5-3.358 7.5-7.5v-15.893c9.948-3.182 17.173-12.514 17.173-23.504 0-.55-1.061-54.978-24.673-54.978s-24.673 54.428-24.673 54.978c0 10.99 7.225 20.322 17.173 23.504v15.893c0 4.142 3.358 7.5 7.5 7.5zm-6.785-70.16c2.771-12.498 5.89-15.846 6.785-16.579.896.733 4.014 4.082 6.785 16.579 1.992 8.983 2.888 19.012 2.888 23.264 0 5.333-4.339 9.673-9.673 9.673s-9.673-4.339-9.673-9.673c.001-4.252.896-14.281 2.888-23.264z"/><path d="m39.484 402.683c0 10.99 7.225 20.322 17.173 23.504v15.893c0 4.142 3.357 7.5 7.5 7.5s7.5-3.358 7.5-7.5v-15.893c9.948-3.182 17.173-12.514 17.173-23.504 0-.55-1.061-54.978-24.673-54.978s-24.673 54.428-24.673 54.978zm31.458-23.264c1.992 8.983 2.888 19.012 2.888 23.264 0 5.333-4.339 9.673-9.673 9.673s-9.673-4.339-9.673-9.673c0-4.252.896-14.281 2.888-23.264 2.771-12.498 5.89-15.846 6.785-16.579.896.733 4.014 4.082 6.785 16.579z"/><path d="m94.875 329.809c4.143 0 7.5-3.358 7.5-7.5v-15.893c9.948-3.182 17.173-12.514 17.173-23.504 0-.55-1.061-54.978-24.673-54.978s-24.673 54.428-24.673 54.978c0 10.99 7.225 20.322 17.173 23.504v15.893c0 4.142 3.357 7.5 7.5 7.5zm-6.785-70.162c2.771-12.499 5.891-15.846 6.785-16.579.895.733 4.014 4.081 6.785 16.58 1.992 8.982 2.888 19.011 2.888 23.264 0 5.333-4.339 9.673-9.673 9.673s-9.673-4.339-9.673-9.673c0-4.253.896-14.282 2.888-23.265z"/><path d="m430.922 101.363c3.194 0 6.155-2.058 7.157-5.268l7.141-22.878c1.872-5.997 6.623-10.508 12.709-12.067l14.92-3.821c4.013-1.028 6.433-5.114 5.405-9.126-1.027-4.011-5.111-6.432-9.126-5.405l-14.92 3.821c-11.161 2.858-19.874 11.131-23.307 22.129l-7.141 22.878c-1.234 3.954.971 8.16 4.925 9.394.745.233 1.497.343 2.237.343z"/><path d="m180.635 225.695c0-4.142-3.357-7.5-7.5-7.5s-7.5 3.358-7.5 7.5c0 9.95 5.415 24.116 16.556 43.308 1.392 2.397 3.907 3.736 6.493 3.736 1.278 0 2.573-.327 3.759-1.015 3.582-2.079 4.8-6.669 2.721-10.251-12.009-20.686-14.529-30.874-14.529-35.778z"/><path d="m203.845 302.785c9.742 14.387 14.801 32.511 14.628 52.415-.035 4.142 3.293 7.529 7.436 7.564h.065c4.112 0 7.463-3.315 7.499-7.435.198-22.96-5.752-44.038-17.208-60.955-2.323-3.431-6.986-4.328-10.415-2.005-3.43 2.323-4.328 6.986-2.005 10.416z"/><path d="m216.454 404.315c-3.805-1.646-8.217.103-9.862 3.903-9.067 20.945-22.866 40.67-41.015 58.625-2.944 2.914-2.97 7.662-.056 10.606 1.467 1.483 3.398 2.225 5.331 2.225 1.906 0 3.813-.722 5.275-2.168 19.516-19.31 34.397-40.617 44.229-63.329 1.647-3.801-.1-8.217-3.902-9.862z"/><path d="m351.393 469.165c-1.663 3.794.065 8.217 3.859 9.88.979.429 2.001.632 3.006.632 2.888 0 5.641-1.678 6.873-4.492 5.954-13.588 15.943-39.885 15.943-63.341 0-4.142-3.357-7.5-7.5-7.5s-7.5 3.358-7.5 7.5c0 20.722-9.198 44.808-14.681 57.321z"/><path d="m276.012 306.565c23.045 16.572 57.87 41.616 76.72 68.99 1.454 2.113 3.799 3.247 6.184 3.247 1.466 0 2.948-.429 4.247-1.323 3.411-2.349 4.272-7.019 1.923-10.431-20.327-29.521-56.428-55.482-80.315-72.661-3.362-2.418-8.051-1.653-10.468 1.71-2.42 3.363-1.654 8.05 1.709 10.468z"/><path d="m289.066 354.675c-3.48-2.238-8.11-1.229-10.353 2.247-2.242 3.478-1.24 8.117 2.233 10.365.314.204 31.521 20.71 36.021 50.567 2.358 15.652-3.095 31.527-16.21 47.185-2.659 3.176-2.241 7.906.935 10.565 1.404 1.176 3.112 1.75 4.812 1.75 2.143 0 4.271-.913 5.754-2.684 16.021-19.129 22.592-39.03 19.527-59.151-5.573-36.59-41.204-59.871-42.719-60.844z"/></g></g></svg>