<svg id="Capa_1" enable-background="new 0 0 512 512" height="512" viewBox="0 0 512 512" width="512" xmlns="http://www.w3.org/2000/svg"><g><path d="m510.53 381.071-6.835-14.66c-2.306-4.929-6.89-8.082-11.921-8.81l-3.974-14.946c-8.568-32.262-35.484-55.969-68.572-60.397l-29.499-3.95c-16.378-2.195-32.364-8.072-46.286-16.993-.01-.007-.02-.015-.03-.021l-.592-.373-.001.002-40.338-26.239 2.545-3.28c2.54-3.272 1.945-7.983-1.327-10.522-3.27-2.538-7.983-1.947-10.522 1.327l-3.312 4.268-5.723-3.723c-3.839-2.496-7.499-5.201-10.97-8.097l3.818-3.796c2.937-2.921 2.951-7.669.03-10.606-2.92-2.937-7.669-2.951-10.606-.03l-4.098 4.075c-5.405-5.882-10.162-12.311-14.203-19.188l5.432-3.187c3.573-2.096 4.769-6.691 2.673-10.264-2.096-3.574-6.693-4.77-10.264-2.674l-4.582 2.688c-2.373-5.638-4.309-11.498-5.768-17.541l-.21-.87 4.935-.812c4.087-.673 6.855-4.531 6.182-8.618-.673-4.088-4.528-6.857-8.619-6.183l-6.03.993-9.388-38.86c-2.097-8.677-7.791-16.109-15.622-20.392-7.829-4.283-17.159-5.069-25.594-2.155l-103.507 35.717c-3.915 1.352-5.994 5.621-4.643 9.536 1.352 3.916 5.62 5.994 9.536 4.643l16.383-5.654v38.212c0 7.193-3.637 13.77-9.73 17.594l-32.425 20.355c-3.314 2.079-7.134 3.179-11.045 3.179h-30.828v-38.415c0-7.137 4.534-13.494 11.286-15.82l23.27-8.03c3.915-1.352 5.994-5.621 4.643-9.536-1.352-3.916-5.619-5.993-9.536-4.643l-23.266 8.029c-12.799 4.409-21.397 16.466-21.397 30v126.538c0 4.143 3.358 7.5 7.5 7.5s7.5-3.357 7.5-7.5v-25.847h95.546l43.298 103.285h-138.844v-42.439c0-4.143-3.358-7.5-7.5-7.5s-7.5 3.357-7.5 7.5v94.949c0 9.71 7.895 17.609 17.6 17.609h167.687c9.704 0 17.6-7.899 17.6-17.609v-1.776l66.24 17.754c4.07 1.083 8.238 1.632 12.388 1.632h140.879c4.023 0 8.075-.901 11.709-2.602l68.892-32.122c3.772-1.761 6.634-4.885 8.057-8.795 1.425-3.914 1.237-8.146-.522-11.91zm-324.374-289.657c4.515-1.56 9.308-1.156 13.5 1.137 4.191 2.293 7.118 6.112 8.241 10.755l9.127 37.781-6.858 1.129c-4.087.673-6.855 4.531-6.182 8.618.605 3.675 3.785 6.283 7.391 6.283.405 0 .815-.032 1.228-.101l7.953-1.309.471 1.949c1.809 7.491 4.268 14.733 7.313 21.668l-6.064 3.558c-3.572 2.096-4.769 6.691-2.673 10.264 1.396 2.381 3.902 3.706 6.475 3.706 1.29 0 2.596-.333 3.789-1.032l5.31-3.115c4.678 7.965 10.205 15.398 16.497 22.182l-4.44 4.414c-2.937 2.921-2.951 7.669-.03 10.606 1.466 1.475 3.392 2.212 5.318 2.212 1.912 0 3.825-.727 5.288-2.182l4.693-4.667c4.239 3.615 8.729 6.981 13.464 10.06l4.673 3.04-4.303 5.545c-2.54 3.272-1.945 7.983 1.327 10.522 1.367 1.062 2.985 1.575 4.593 1.575 2.237 0 4.452-.997 5.93-2.902l5.07-6.534 35.572 23.138-9.321 13.65c-3.784 5.541-9.505 9.246-16.108 10.433-6.603 1.188-13.256-.294-18.732-4.169l-61.907-43.805c-21.708-15.361-36.8-38.126-42.495-64.102l-17.996-82.064zm-70.622 156.681h-100.534v-32.276h30.829c6.735 0 13.311-1.893 19.018-5.474l32.427-20.354c10.492-6.586 16.755-17.913 16.755-30.299v-43.388l33.963-11.72 17.62 80.351c6.498 29.635 23.716 55.607 48.483 73.133l6.828 4.831-33.457 40.539h-43.744l-21.271-50.742c-1.169-2.788-3.895-4.601-6.917-4.601zm381.423 139.755c-.083.229-.252.309-.304.332l-68.898 32.124c-1.667.78-3.52 1.192-5.361 1.192h-140.879c-2.849 0-5.719-.38-8.518-1.124l-75.668-20.28c-2.254-.605-4.657-.126-6.507 1.294-1.85 1.419-2.935 3.618-2.935 5.95v11.551c0 1.438-1.166 2.609-2.6 2.609h-167.687c-1.434 0-2.6-1.171-2.6-2.609v-37.51h175.067c2.882 0 5.75.376 8.518 1.114l74.778 20.037c4.03 1.087 8.207 1.639 12.413 1.639h59.299c4.143 0 7.5-3.357 7.5-7.5s-3.357-7.5-7.5-7.5h-59.299c-2.887 0-5.749-.377-8.518-1.124l-74.797-20.042c-4.036-1.078-8.206-1.624-12.394-1.624h-19.959l-20.098-47.943h40.99c2.238 0 4.36-1 5.785-2.727l36.415-44.125 42.801 30.286c6.808 4.818 14.748 7.328 22.907 7.328 2.37 0 4.76-.212 7.144-.641 10.593-1.904 19.77-7.849 25.839-16.737l9.663-14.15c14.225 8.01 30.034 13.338 46.184 15.503l29.5 3.95c27.053 3.621 49.06 23.004 56.065 49.382l3.997 15.031-52.646 24.554c-4.318 2.013-9.125 3.077-13.901 3.077h-30.679c-4.143 0-7.5 3.357-7.5 7.5 0 4.142 3.357 7.5 7.5 7.5h30.679c6.951 0 13.95-1.55 20.24-4.482l58.328-27.205c.301-.134.647-.015.783.276l6.834 14.659c.025.054.1.213.019.435z"/></g></svg>