<svg id="Capa_1" enable-background="new 0 0 512 512" height="512" viewBox="0 0 512 512" width="512" xmlns="http://www.w3.org/2000/svg"><g><path d="m448.024 465.203c-2.047-5.98-6.3-10.805-11.977-13.585-5.675-2.78-12.094-3.184-18.075-1.137l-.553.189-39.282-114.739c-1.342-3.919-5.606-6.006-9.525-4.667-3.918 1.342-6.008 5.606-4.666 9.525l39.282 114.739-33.696 11.536-45.574-126.914 12.429-79.865 16.229 47.393c1.066 3.114 3.978 5.072 7.095 5.072.806 0 1.626-.131 2.431-.406 3.919-1.342 6.008-5.606 4.666-9.525l-18.536-54.132v-67.281c.885.102 1.775.172 2.671.172h8.32c4.143 0 7.5-3.358 7.5-7.5s-3.357-7.5-7.5-7.5h-8.32c-.909 0-1.81-.154-2.671-.436v-23.159l4.067 4.067c1.407 1.407 3.314 2.197 5.304 2.197h67.43c2.305 0 4.477.903 6.125 2.552 1.635 1.629 2.535 3.798 2.535 6.108 0 4.781-3.885 8.67-8.66 8.67h-30.81c-4.143 0-7.5 3.358-7.5 7.5s3.357 7.5 7.5 7.5h10.994v15.301h-6.643c-4.143 0-7.5 3.358-7.5 7.5s3.357 7.5 7.5 7.5h6.643v142.004c0 4.142 3.357 7.5 7.5 7.5s7.5-3.358 7.5-7.5v-142.001h6.643c4.143 0 7.5-3.358 7.5-7.5s-3.357-7.5-7.5-7.5h-6.643v-15.301h4.815c13.046 0 23.66-10.618 23.66-23.67 0-6.326-2.467-12.268-6.937-16.723-4.473-4.474-10.412-6.938-16.724-6.938h-64.323l-13.077-13.077c-2.192-13.79-10.287-25.635-21.608-32.86 13.339-8.514 22.208-23.441 22.208-40.406 0-26.415-21.49-47.906-47.906-47.906-22.954 0-42.181 16.23-46.828 37.815-5.084-3.463-11.22-5.49-17.822-5.49-17.504 0-31.744 14.24-31.744 31.744 0 7.645 2.717 14.667 7.235 20.152-4.376 3.205-7.235 8.365-7.235 14.193v42.863l-9.232 9.23c-4.466 4.467-6.926 10.409-6.926 16.733v14.91c0 4.142 3.357 7.5 7.5 7.5s7.5-3.358 7.5-7.5v-14.91c0-2.317.899-4.494 2.532-6.126l27.386-27.377 12.246 12.252-22.648 22.648c-1.406 1.406-2.196 3.314-2.196 5.303v59.84c0 2.311-.899 4.484-2.542 6.126-1.628 1.634-3.801 2.534-6.117 2.534-4.775 0-8.66-3.885-8.66-8.66v-16.63c0-4.142-3.357-7.5-7.5-7.5s-7.5 3.358-7.5 7.5v16.63c0 2.067.268 4.072.769 5.985l-12.677 12.677-4.696-4.696c-2.93-2.929-7.678-2.929-10.607 0s-2.929 7.678 0 10.606l4.697 4.697-100.415 100.411c-2.929 2.929-2.929 7.678 0 10.606 1.465 1.464 3.385 2.197 5.304 2.197 1.92 0 3.839-.732 5.304-2.197l100.411-100.412 4.696 4.696c1.465 1.464 3.385 2.197 5.304 2.197s3.839-.732 5.304-2.197c2.929-2.929 2.929-7.678 0-10.606l-4.697-4.697 10.535-10.535c3.996 3.085 8.999 4.926 14.427 4.926 1.861 0 3.688-.219 5.454-.633 1.506.413 3.072.633 4.645.633h28.284c.795 0 1.572-.071 2.34-.174v98.472l-90.153 90.153c-3.325 3.325-5.156 7.745-5.156 12.447s1.831 9.122 5.155 12.446l34.286 34.286c4.47 4.469 10.412 6.931 16.732 6.931s12.263-2.461 16.732-6.931c9.225-9.226 9.225-24.238 0-33.464l-.411-.411 81.463-81.463c4.182-4.182 6.874-9.483 7.784-15.33l.511-3.287 45.935 128.893c1.522 4.448 4.687 8.037 8.909 10.106 2.447 1.199 5.081 1.804 7.729 1.804 1.92 0 3.847-.318 5.717-.958l45.873-15.706c5.979-2.047 10.804-6.301 13.585-11.977 2.78-5.674 3.184-12.093 1.137-18.072zm-165.17-335.88-.17 50.47c-.013 4.713-1.964 9.296-5.354 12.574l-9.874 9.548v-57.195zm-14.741-30.973c1.636-1.636 3.812-2.537 6.125-2.537s4.489.901 6.125 2.537c3.378 3.377 3.378 8.874 0 12.251l-24.777 24.778-12.251-12.251zm65.158 144.089h-65.813v-19.657l20.302-19.631c6.284-6.077 9.901-14.575 9.926-23.315l.215-75.582c-.114-2.877-.576-5.73-1.655-8.441h4.12c18.145 0 32.906 14.762 32.906 32.907v113.719zm-32.906-227.439c18.145 0 32.906 14.762 32.906 32.907s-14.762 32.906-32.906 32.906c-18.146 0-32.907-14.762-32.907-32.906-.001-18.145 14.761-32.907 32.907-32.907zm-64.651 32.325c9.232 0 16.743 7.511 16.743 16.744 0 9.232-7.511 16.744-16.743 16.744s-16.744-7.511-16.744-16.744 7.512-16.744 16.744-16.744zm-16.744 51.09c0-1.435 1.167-2.602 2.602-2.602h27.864l-30.466 30.469zm30.886 144.024h-16.36c1.07-2.722 1.635-5.646 1.635-8.659v-56.733l17.326-17.326v80.117c0 1.434-1.167 2.601-2.601 2.601zm-30.67 252.023c-1.637 1.637-3.812 2.538-6.126 2.538s-4.489-.901-6.125-2.537l-34.287-34.287c-.663-.663-.762-1.437-.762-1.839 0-.403.099-1.177.763-1.84l10.41-10.411 36.126 36.125c3.378 3.378 3.378 8.874.001 12.251zm81.051-115.337-81.463 81.462-25.108-25.108 71.333-71.333c1.406-1.406 2.196-3.314 2.196-5.303v-101.404h54.453l-17.843 114.656c-.416 2.681-1.65 5.112-3.568 7.03zm133.179 97.553c-1.018 2.078-2.784 3.635-4.974 4.385l-45.873 15.706c-.883.305-1.625.052-1.987-.125-.361-.177-1.013-.606-1.316-1.494l-4.77-13.93 48.335-16.548c2.188-.749 4.538-.602 6.617.416 2.077 1.018 3.635 2.784 4.384 4.974.75 2.188.602 4.538-.416 6.616z"/></g></svg>