<svg id="Capa_1" enable-background="new 0 0 512 512" height="512" viewBox="0 0 512 512" width="512" xmlns="http://www.w3.org/2000/svg"><g><g><path d="m318.63 165.667c-58.722 0-106.496 47.774-106.496 106.496s47.774 106.495 106.496 106.495 106.496-47.773 106.496-106.495-47.774-106.496-106.496-106.496zm0 197.991c-50.451 0-91.496-41.045-91.496-91.495 0-50.451 41.045-91.496 91.496-91.496s91.496 41.045 91.496 91.496c0 50.45-41.045 91.495-91.496 91.495z"/><path d="m484.3 103.04h-34.93v-14.727c0-9.706-7.896-17.603-17.602-17.603h-44.447c-9.705 0-17.602 7.896-17.602 17.603v14.727h-124.569c-4.143 0-7.5 3.357-7.5 7.5s3.357 7.5 7.5 7.5h239.15c7.003 0 12.7 5.697 12.7 12.7v43.008h-80.562c-25.113-24.959-59.689-40.406-97.809-40.406s-72.696 15.447-97.808 40.406h-205.821v-43.008c0-7.003 5.697-12.7 12.7-12.7h182.45c4.143 0 7.5-3.357 7.5-7.5s-3.357-7.5-7.5-7.5h-13.321v-14.727c0-9.706-7.896-17.603-17.602-17.603h-24.244c-9.705 0-17.602 7.896-17.602 17.603v14.727h-15.305v-14.727c0-9.706-7.896-17.603-17.602-17.603h-24.243c-9.705 0-17.602 7.896-17.602 17.603v14.727h-34.929c-15.274 0-27.7 12.426-27.7 27.7v282.85c0 15.274 12.426 27.7 27.7 27.7h349.52c4.143 0 7.5-3.357 7.5-7.5s-3.357-7.5-7.5-7.5h-349.52c-7.003 0-12.7-5.697-12.7-12.7v-43.01h22.8c4.143 0 7.5-3.357 7.5-7.5s-3.357-7.5-7.5-7.5h-22.8v-166.832h192.737c-17.524 23.239-27.929 52.134-27.929 83.415 0 31.282 10.405 60.178 27.93 83.417h-134.938c-4.143 0-7.5 3.357-7.5 7.5s3.357 7.5 7.5 7.5h148.024c25.112 24.958 59.688 40.403 97.806 40.403 38.119 0 72.696-15.447 97.809-40.406h80.561v43.013c0 7.003-5.697 12.7-12.7 12.7h-72.08c-4.143 0-7.5 3.357-7.5 7.5s3.357 7.5 7.5 7.5h72.08c15.273 0 27.7-12.426 27.7-27.7v-282.85c0-15.275-12.427-27.7-27.7-27.7zm-99.58-14.727c0-1.435 1.167-2.603 2.602-2.603h44.447c1.435 0 2.602 1.168 2.602 2.603v14.727h-49.65v-14.727zm-232.338 0c0-1.435 1.167-2.603 2.602-2.603h24.244c1.435 0 2.602 1.168 2.602 2.603v14.727h-29.447v-14.727zm-74.752 0c0-1.435 1.167-2.603 2.602-2.603h24.244c1.435 0 2.602 1.168 2.602 2.603v14.727h-29.448zm241 307.67c-68.275 0-123.821-55.546-123.821-123.82 0-68.275 55.546-123.821 123.821-123.821s123.821 55.546 123.821 123.821c0 68.274-55.546 123.82-123.821 123.82zm110.893-40.406c17.524-23.238 27.928-52.133 27.928-83.414s-10.404-60.176-27.929-83.415h67.478v166.829z"/><path d="m109.955 237.817v-16.163c0-8.592-6.989-15.581-15.581-15.581h-48.488c-8.592 0-15.581 6.989-15.581 15.581v16.163c0 8.592 6.989 15.581 15.581 15.581h48.488c8.592 0 15.581-6.989 15.581-15.581zm-64.65 0v-16.163c0-.32.261-.581.581-.581h48.488c.32 0 .581.261.581.581v16.163c0 .32-.261.581-.581.581h-48.488c-.321 0-.581-.261-.581-.581z"/><path d="m69.285 318.048c13.048 0 23.663-10.615 23.663-23.663 0-13.047-10.615-23.662-23.663-23.662-13.047 0-23.662 10.615-23.662 23.662 0 13.048 10.615 23.663 23.662 23.663zm0-32.325c4.776 0 8.663 3.886 8.663 8.662s-3.887 8.663-8.663 8.663-8.662-3.887-8.662-8.663 3.886-8.662 8.662-8.662z"/></g></g></svg>