<svg id="Capa_1" enable-background="new 0 0 512 512" height="512" viewBox="0 0 512 512" width="512" xmlns="http://www.w3.org/2000/svg"><g><path d="m500.9 274.222c-6.847-3.374-14.861-2.582-20.915 2.069l-21.472 16.496c-6.874 5.281-14.612 8.882-22.667 10.817-25.128-41.763-61.105-70.332-87.316-87.133-23.482-15.052-43.057-23.409-50.484-26.341l-40.203-96.147c-6.435-15.458-20.115-26.417-36.595-29.314l-43.233-7.6c-4.083-.716-7.969 2.009-8.686 6.088s2.009 7.968 6.088 8.685l43.233 7.6c11.412 2.006 20.887 9.598 25.349 20.316l41.45 99.131c.815 1.948 2.419 3.465 4.408 4.173.858.306 82.511 30.061 129.324 102.174-12.163-.497-24.207-4.646-34.363-12.449-27.076-20.802-64.896-20.801-91.972 0-10.004 7.686-21.839 11.819-33.817 12.416-.421-.455-5.345-5.822-5.83-6.342-14.582-15.19-27.145-30.104-20.81-45.55 7.78-18.017 16.938-38.288 18.947-41.373 1.672-2.127 2.072-5 1.028-7.512l-35.25-84.79c-.963-2.315-3.019-3.997-5.479-4.48l-98.147-19.289c-8.042-1.584-13.879-8.667-13.879-16.842 0-1.147.121-2.329.356-3.491 1.885-9.175 10.598-15.092 19.814-13.473l20.989 3.69c4.076.716 7.968-2.009 8.686-6.088.717-4.08-2.009-7.968-6.088-8.686l-20.991-3.69c-17.277-3.034-33.573 8.049-37.108 25.25-.437 2.161-.658 4.343-.658 6.487 0 15.321 10.927 28.594 25.983 31.56l94.212 18.516 32.3 77.692c-3.523 6.671-9.721 20.273-18.511 40.629-.016.037-.031.073-.046.11-8.837 21.398 4.509 40.513 16.678 54.079-5.671-2.069-11.101-5.003-16.074-8.824-27.075-20.802-64.895-20.802-91.972 0-21.694 16.667-52 16.668-73.694 0l-21.47-16.496c-6.055-4.65-14.066-5.442-20.915-2.069-6.847 3.375-11.1 10.213-11.1 17.846v139.62c0 18.486 15.039 33.525 33.525 33.525h51.313c4.143 0 7.5-3.358 7.5-7.5s-3.357-7.5-7.5-7.5h-51.313c-10.215 0-18.525-8.311-18.525-18.525v-80.785c0-3.445 2.395-4.997 3.424-5.504 1.03-.508 3.721-1.461 6.451.638l19.473 14.959c13.539 10.402 29.76 15.602 45.985 15.601 16.222-.001 32.449-5.202 45.986-15.601 21.695-16.667 51.999-16.667 73.694 0 27.074 20.799 64.895 20.8 91.973 0 21.695-16.667 51.999-16.667 73.694 0 27.076 20.801 64.896 20.8 91.972 0l19.473-14.959c2.731-2.1 5.422-1.146 6.451-.638 1.029.507 3.424 2.059 3.424 5.504v80.785c0 10.215-8.311 18.525-18.525 18.525h-358.553c-4.143 0-7.5 3.358-7.5 7.5s3.357 7.5 7.5 7.5h358.553c18.486 0 33.525-15.04 33.525-33.525v-139.62c0-7.633-4.253-14.471-11.1-17.845zm-22.914 59.919-19.473 14.96c-21.695 16.667-51.999 16.667-73.694 0-27.076-20.801-64.896-20.801-91.972 0-21.693 16.668-51.998 16.668-73.695 0-27.075-20.802-64.895-20.801-91.972 0-21.694 16.668-52 16.669-73.694 0l-19.473-14.96c-5.506-4.23-12.539-5.446-19.014-3.46v-38.614c0-2.748 1.909-3.985 2.73-4.39.82-.405 2.964-1.167 5.146.509l21.472 16.495c13.539 10.402 29.76 15.602 45.985 15.601 16.222-.001 32.449-5.202 45.986-15.601 21.695-16.668 51.999-16.668 73.694 0 26.445 20.368 64.704 21.002 91.973 0 21.695-16.667 51.999-16.667 73.694 0 26.749 20.48 64.779 20.927 91.972 0l21.472-16.496c2.181-1.675 4.325-.914 5.146-.509s2.73 1.642 2.73 4.39v38.614c-6.474-1.985-13.505-.77-19.013 3.461z"/><path d="m121.183 248.947c5.456 6.999 13.647 11.42 22.307 14.278 12.289 4.128 27.569 3.619 40.684-3.013 18.095-9.116 29.336-27.374 29.336-47.648 0-8.247-1.976-16.527-5.713-23.945l-9.679-19.21c-9.364-19.56-35.655-29.141-56.04-18.495l-20.682 10.411c-16.543 7.863-26.958 29.351-21.515 48.158.724 2.675 1.726 5.317 3.021 7.887 0 .001 10.585 21.706 18.281 31.577zm56.243-2.131c-9.138 4.602-19.519 5.371-29.234 2.165-9.715-3.207-17.601-10.004-22.204-19.144l-6.313-12.52 68.422-34.462 6.305 12.513c2.727 5.411 4.108 11.196 4.108 17.195 0 14.578-8.079 27.702-21.084 34.253zm-28.6-82.505c9.037-4.624 23.199-3.811 31.569 5.629l-66.508 33.497c-1.897-10.561 2.971-23.33 14.254-28.714z"/></g></svg>