<svg id="Capa_1" enable-background="new 0 0 512.004 512.004" height="512" viewBox="0 0 512.004 512.004" width="512" xmlns="http://www.w3.org/2000/svg"><g><path d="m155.661 390.783c2.216 0 4.412-.979 5.892-2.853 2.567-3.251 2.012-7.967-1.24-10.534-37.418-29.537-58.878-73.783-58.878-121.394 0-85.229 69.338-154.567 154.567-154.567 9.538 0 19.086.874 28.38 2.599 4.076.755 7.987-1.933 8.742-6.006.756-4.073-1.933-7.987-6.006-8.742-10.194-1.891-20.663-2.85-31.116-2.85-93.499 0-169.567 76.067-169.567 169.567 0 52.231 23.54 100.769 64.584 133.168 1.377 1.086 3.015 1.612 4.642 1.612z"/><path d="m394.358 157.947c-19.968-28.126-47.56-49.263-79.795-61.126-3.889-1.431-8.198.562-9.629 4.448-1.431 3.887.561 8.198 4.448 9.629 29.382 10.812 54.537 30.084 72.745 55.732 18.606 26.208 28.441 57.113 28.441 89.371 0 85.228-69.338 154.567-154.566 154.567-25.51 0-50.788-6.343-73.102-18.343-3.646-1.961-8.195-.596-10.158 3.053-1.962 3.648-.595 8.196 3.053 10.158 24.489 13.171 52.224 20.133 80.206 20.133 93.499 0 169.566-76.067 169.566-169.567.001-35.388-10.791-69.295-31.209-98.055z"/><path d="m256.002 55.295c4.142 0 7.5-3.358 7.5-7.5v-27.17c0-4.142-3.358-7.5-7.5-7.5s-7.5 3.358-7.5 7.5v27.171c0 4.141 3.358 7.499 7.5 7.499z"/><path d="m170.07 66.207c1.19 2.901 3.989 4.657 6.942 4.657.948 0 1.911-.181 2.842-.563 3.833-1.571 5.666-5.952 4.094-9.785l-22.905-55.86c-1.572-3.832-5.952-5.665-9.785-4.094s-5.665 5.952-4.094 9.785z"/><path d="m333.469 70.848c.946.396 1.926.583 2.892.583 2.933 0 5.719-1.732 6.922-4.607l23.302-55.695c1.599-3.821-.203-8.215-4.024-9.814-3.82-1.598-8.214.203-9.814 4.024l-23.302 55.695c-1.599 3.822.203 8.215 4.024 9.814z"/><path d="m448.645 184.512c.948 0 1.911-.181 2.842-.563l55.86-22.905c3.832-1.572 5.666-5.952 4.094-9.785-1.572-3.832-5.951-5.665-9.785-4.094l-55.86 22.905c-3.832 1.572-5.665 5.952-4.094 9.785 1.191 2.902 3.99 4.657 6.943 4.657z"/><path d="m506.665 352.747-55.695-23.302c-3.822-1.598-8.215.203-9.814 4.024s.203 8.215 4.024 9.814l55.695 23.303c.946.396 1.927.583 2.892.583 2.933 0 5.719-1.732 6.922-4.607 1.599-3.822-.203-8.216-4.024-9.815z"/><path d="m341.933 445.797c-1.571-3.832-5.951-5.665-9.785-4.094-3.833 1.572-5.666 5.952-4.094 9.785l22.905 55.86c1.19 2.901 3.989 4.657 6.942 4.657.948 0 1.911-.181 2.842-.563 3.833-1.571 5.665-5.952 4.094-9.785z"/><path d="m178.535 441.156c-3.82-1.598-8.214.203-9.814 4.024l-23.302 55.695c-1.599 3.821.203 8.215 4.024 9.814.946.396 1.926.583 2.892.583 2.933 0 5.719-1.732 6.922-4.607l23.302-55.695c1.599-3.822-.203-8.215-4.024-9.814z"/><path d="m60.516 328.054-55.86 22.906c-3.832 1.572-5.665 5.952-4.094 9.785 1.19 2.901 3.989 4.656 6.942 4.656.948 0 1.911-.181 2.843-.563l55.859-22.905c3.832-1.571 5.665-5.952 4.094-9.785-1.571-3.832-5.949-5.665-9.784-4.094z"/><path d="m66.824 168.722-55.695-23.303c-3.821-1.598-8.215.203-9.814 4.024s.203 8.215 4.024 9.814l55.695 23.302c.946.396 1.927.583 2.892.583 2.933 0 5.719-1.732 6.922-4.607 1.598-3.821-.203-8.215-4.024-9.813z"/><path d="m417.135 84.262-19.212 19.213c-2.929 2.929-2.929 7.678 0 10.606 1.464 1.465 3.384 2.197 5.303 2.197s3.839-.732 5.303-2.197l19.212-19.213c2.929-2.929 2.929-7.678 0-10.606-2.928-2.929-7.677-2.929-10.606 0z"/><path d="m464.209 248.502c-4.142 0-7.5 3.358-7.5 7.5s3.358 7.5 7.5 7.5h27.17c4.142 0 7.5-3.358 7.5-7.5s-3.358-7.5-7.5-7.5z"/><path d="m408.529 397.923c-2.928-2.929-7.677-2.929-10.606 0s-2.929 7.677 0 10.606l19.212 19.213c1.464 1.465 3.384 2.197 5.303 2.197s3.839-.733 5.303-2.197c2.929-2.929 2.929-7.677 0-10.607z"/><path d="m256.002 456.708c-4.142 0-7.5 3.358-7.5 7.5v27.171c0 4.142 3.358 7.5 7.5 7.5s7.5-3.358 7.5-7.5v-27.171c0-4.142-3.358-7.5-7.5-7.5z"/><path d="m103.474 397.923-19.212 19.213c-2.929 2.929-2.929 7.678 0 10.607 1.464 1.465 3.384 2.197 5.303 2.197s3.839-.732 5.303-2.197l19.212-19.213c2.929-2.929 2.929-7.678 0-10.606-2.928-2.93-7.677-2.93-10.606-.001z"/><path d="m47.796 263.502c4.142 0 7.5-3.358 7.5-7.5s-3.358-7.5-7.5-7.5h-27.171c-4.142 0-7.5 3.358-7.5 7.5s3.358 7.5 7.5 7.5z"/><path d="m103.474 114.081c1.464 1.465 3.384 2.197 5.303 2.197s3.839-.732 5.303-2.197c2.929-2.929 2.929-7.678 0-10.606l-19.212-19.213c-2.929-2.929-7.678-2.929-10.606 0-2.929 2.929-2.929 7.677 0 10.606z"/></g></svg>