<svg id="Capa_1" enable-background="new 0 0 512 512" height="512" viewBox="0 0 512 512" width="512" xmlns="http://www.w3.org/2000/svg"><g><path d="m281.055 203.009c-1.406-1.407-3.314-2.197-5.303-2.197h-39.506c-1.989 0-3.896.79-5.304 2.197l-27.935 27.935c-1.406 1.406-2.196 3.314-2.196 5.303v39.506c0 1.989.79 3.897 2.196 5.303l27.935 27.934c1.407 1.407 3.314 2.197 5.304 2.197h39.506c1.989 0 3.896-.79 5.303-2.197l27.935-27.934c1.407-1.406 2.197-3.314 2.197-5.303v-39.506c0-1.989-.79-3.897-2.197-5.303zm15.133 36.345v9.146h-32.688v-32.688h9.146zm-56.835-23.542h9.146v32.688h-32.688v-9.146zm-23.541 56.835v-9.147h32.688v32.688h-9.146zm56.834 23.541h-9.146v-32.688h32.689v9.146z"/><path d="m504.5 248.5h-29.491l13.482-19.909c2.322-3.43 1.425-8.093-2.005-10.415-3.428-2.322-8.092-1.425-10.415 2.005l-19.177 28.319h-19.439l28.799-42.529c2.322-3.43 1.425-8.093-2.005-10.415-3.428-2.322-8.092-1.425-10.415 2.005l-34.494 50.939h-16.799v-41.392c0-7.615-2.965-14.773-8.349-20.156l-29.269-29.269 11.879-11.879 60.409 11.628c.479.092.956.137 1.426.137 3.524 0 6.666-2.495 7.357-6.084.782-4.067-1.88-7.999-5.947-8.782l-50.436-9.708 13.744-13.744 33.585 6.465c.479.092.956.137 1.426.137 3.524 0 6.666-2.495 7.357-6.084.782-4.067-1.88-8-5.947-8.782l-23.611-4.545 20.853-20.853c2.929-2.929 2.929-7.678 0-10.606-2.93-2.929-7.678-2.929-10.607 0l-20.851 20.85-4.545-23.61c-.783-4.067-4.715-6.733-8.783-5.947-4.067.783-6.729 4.715-5.947 8.782l6.465 33.585-13.743 13.744-9.709-50.435c-.783-4.067-4.714-6.732-8.783-5.947-4.067.783-6.729 4.715-5.947 8.782l11.629 60.411-11.879 11.879-29.269-29.268c-5.383-5.384-12.541-8.35-20.156-8.35h-41.393v-16.8l50.939-34.494c3.43-2.322 4.327-6.985 2.005-10.415-2.323-3.43-6.987-4.328-10.415-2.005l-42.529 28.799v-19.438l28.319-19.177c3.43-2.322 4.327-6.985 2.005-10.415s-6.987-4.328-10.415-2.005l-19.909 13.482v-29.491c0-4.142-3.357-7.5-7.5-7.5s-7.5 3.358-7.5 7.5v29.491l-19.909-13.482c-3.429-2.322-8.092-1.425-10.415 2.005-2.322 3.43-1.425 8.093 2.005 10.415l28.319 19.177v19.438l-42.528-28.799c-3.428-2.322-8.092-1.425-10.415 2.004-2.322 3.43-1.425 8.093 2.005 10.416l50.938 34.494v16.799h-41.392c-4.143 0-7.5 3.358-7.5 7.5s3.357 7.5 7.5 7.5h29.384l-17.471 34.544c-1.018 2.015-3.314 2.966-5.46 2.261l-36.779-12.073 10.831-10.831c2.929-2.929 2.929-7.678 0-10.606-2.93-2.929-7.678-2.929-10.607 0l-19.322 19.322-11.878-11.878 11.628-60.411c.782-4.067-1.88-7.999-5.947-8.782-4.079-.784-8 1.88-8.783 5.947l-9.708 50.436-13.743-13.743 6.465-33.586c.782-4.067-1.88-7.999-5.947-8.782-4.078-.786-8 1.88-8.783 5.947l-4.545 23.611-20.855-20.853c-2.93-2.929-7.678-2.929-10.607 0s-2.929 7.678 0 10.606l20.853 20.853-23.61 4.545c-4.067.783-6.73 4.715-5.947 8.782.691 3.589 3.832 6.084 7.356 6.084.47 0 .947-.045 1.426-.137l33.585-6.465 13.744 13.744-50.435 9.708c-4.067.783-6.73 4.715-5.947 8.782.691 3.589 3.833 6.084 7.356 6.084.47 0 .947-.044 1.426-.137l60.41-11.628 11.879 11.879-29.268 29.268c-5.385 5.384-8.35 12.542-8.35 20.157v41.394h-16.8l-34.494-50.939c-2.322-3.43-6.986-4.327-10.415-2.005-3.43 2.322-4.328 6.985-2.005 10.415l28.799 42.529h-19.437l-19.178-28.32c-2.322-3.43-6.986-4.327-10.416-2.004-3.43 2.322-4.327 6.985-2.004 10.415l13.482 19.909h-29.491c-4.142 0-7.5 3.358-7.5 7.5s3.358 7.5 7.5 7.5h29.49l-13.482 19.909c-2.323 3.43-1.425 8.093 2.004 10.415 1.289.873 2.751 1.291 4.199 1.291 2.405 0 4.767-1.155 6.217-3.295l19.178-28.32h19.437l-28.799 42.529c-2.323 3.43-1.425 8.093 2.005 10.415 1.289.873 2.751 1.291 4.198 1.291 2.405 0 4.767-1.155 6.217-3.296l34.495-50.939h16.8v41.392c0 4.142 3.357 7.5 7.5 7.5s7.5-3.358 7.5-7.5v-29.383l34.544 17.47c2.015 1.019 2.966 3.316 2.262 5.461l-12.073 36.78-13.234-13.234c-2.932-2.93-7.68-2.928-10.607 0-2.929 2.929-2.929 7.678 0 10.606l21.726 21.726-11.878 11.878-60.41-11.628c-4.065-.785-7.999 1.879-8.782 5.947-.783 4.067 1.88 7.999 5.947 8.782l50.436 9.708-13.744 13.744-33.585-6.465c-4.067-.785-7.999 1.879-8.782 5.947-.783 4.067 1.88 8 5.947 8.782l23.611 4.545-20.853 20.853c-2.929 2.929-2.929 7.678 0 10.606 1.464 1.465 3.384 2.197 5.303 2.197s3.839-.732 5.304-2.197l20.853-20.853 4.545 23.61c.691 3.589 3.833 6.084 7.357 6.084.47 0 .947-.044 1.426-.137 4.067-.783 6.729-4.715 5.947-8.782l-6.465-33.586 13.743-13.743 9.708 50.435c.691 3.589 3.833 6.084 7.357 6.084.47 0 .946-.044 1.426-.137 4.067-.783 6.729-4.715 5.947-8.782l-11.628-60.411 11.878-11.878 29.268 29.268c5.385 5.384 12.543 8.349 20.157 8.349h41.39v16.799l-50.939 34.494c-3.43 2.322-4.327 6.985-2.005 10.415 2.322 3.429 6.986 4.327 10.415 2.004l42.528-28.799v19.438l-28.319 19.177c-3.43 2.322-4.327 6.985-2.005 10.415 2.323 3.43 6.986 4.328 10.415 2.005l19.909-13.482v29.496c0 4.142 3.357 7.5 7.5 7.5s7.5-3.358 7.5-7.5v-29.491l19.909 13.482c1.288.873 2.751 1.291 4.198 1.291 2.404 0 4.767-1.155 6.217-3.296 2.322-3.43 1.425-8.093-2.005-10.415l-28.318-19.177v-19.438l42.529 28.799c1.288.872 2.751 1.291 4.198 1.291 2.404 0 4.767-1.155 6.217-3.296 2.322-3.43 1.425-8.093-2.005-10.415l-50.939-34.494v-16.799h41.393c7.615 0 14.773-2.965 20.156-8.349l29.268-29.268 11.879 11.879-11.629 60.41c-.782 4.067 1.88 7.999 5.947 8.782.479.092.956.137 1.426.137 3.525 0 6.666-2.495 7.357-6.084l9.709-50.435 13.743 13.743-6.465 33.585c-.782 4.067 1.88 8 5.947 8.782.479.092.956.137 1.426.137 3.524 0 6.666-2.495 7.357-6.084l4.545-23.61 20.852 20.852c1.465 1.464 3.385 2.197 5.304 2.197s3.839-.732 5.304-2.197c2.929-2.929 2.929-7.678 0-10.606l-20.853-20.853 23.611-4.545c4.067-.783 6.729-4.715 5.947-8.782-.784-4.067-4.716-6.732-8.783-5.947l-33.585 6.465-13.744-13.744 50.436-9.708c4.067-.783 6.729-4.715 5.947-8.782-.783-4.067-4.714-6.733-8.783-5.947l-60.41 11.628-11.879-11.879 29.268-29.268c5.385-5.384 8.35-12.542 8.35-20.157v-41.394h16.799l34.494 50.939c1.45 2.142 3.811 3.296 6.217 3.296 1.447 0 2.91-.418 4.198-1.291 3.43-2.322 4.327-6.985 2.005-10.415l-28.799-42.529h19.439l19.177 28.319c1.45 2.142 3.811 3.296 6.217 3.296 1.447-.001 2.91-.418 4.198-1.291 3.43-2.322 4.327-6.985 2.005-10.415l-13.482-19.909h29.491c4.143 0 7.5-3.358 7.5-7.5s-3.358-7.5-7.5-7.5zm-116.958-41.392v29.383l-34.544-17.47c-2.015-1.019-2.966-3.315-2.262-5.46l12.073-36.779 20.777 20.777c2.551 2.55 3.956 5.941 3.956 9.549zm-82.65-82.649c3.607 0 6.999 1.405 9.549 3.956l20.777 20.777-36.78 12.073c-2.147.706-4.441-.248-5.46-2.262l-17.469-34.544zm-180.433 82.649c0-3.608 1.404-6.999 3.956-9.55l20.777-20.777 12.073 36.779c.704 2.145-.247 4.442-2.262 5.46l-34.544 17.47zm73.099 176.478-20.777-20.777 36.78-12.073c2.144-.704 4.441.247 5.46 2.262l17.47 34.544h-29.383c-3.607 0-6.999-1.405-9.55-3.956zm116.883 0c-2.55 2.55-5.941 3.955-9.549 3.955h-29.384l17.47-34.544c1.019-2.015 3.314-2.968 5.461-2.262l6.944 2.279c3.935 1.292 8.173-.852 9.465-4.787s-.852-8.173-4.787-9.465l-6.943-2.279c-9.241-3.033-19.134 1.064-23.524 9.744l-19.548 38.651c-1.135 2.246-3.207 2.488-4.046 2.488-.838 0-2.91-.242-4.046-2.488l-19.547-38.651c-4.39-8.681-14.287-12.777-23.524-9.745l-41.154 13.509c-2.388.783-4.026-.509-4.619-1.102s-1.887-2.23-1.102-4.621l13.509-41.153c3.033-9.241-1.065-19.134-9.744-23.524l-38.651-19.547c-2.246-1.136-2.488-3.207-2.488-4.046 0-.838.242-2.91 2.488-4.046l38.651-19.548c8.679-4.39 12.777-14.283 9.744-23.523l-13.509-41.154c-.785-2.391.509-4.027 1.102-4.62.594-.593 2.23-1.886 4.62-1.102l41.152 13.509c9.247 3.033 19.136-1.064 23.525-9.744l19.549-38.651c1.135-2.246 3.207-2.488 4.045-2.488.839 0 2.911.242 4.047 2.488l19.547 38.652c4.39 8.679 14.281 12.778 23.523 9.744l41.153-13.509c2.392-.783 4.027.509 4.621 1.102.593.593 1.887 2.229 1.102 4.62l-13.509 41.152c-3.034 9.241 1.063 19.135 9.744 23.525l38.651 19.547c2.245 1.135 2.487 3.208 2.487 4.046s-.242 2.911-2.487 4.046l-38.651 19.547c-8.681 4.39-12.778 14.284-9.744 23.524l13.509 41.154c.785 2.39-.509 4.027-1.102 4.62-.594.593-2.226 1.887-4.621 1.102l-7.281-2.39c-3.934-1.292-8.173.851-9.465 4.787s.852 8.173 4.787 9.465l2.908.954zm69.145-69.144-20.777 20.777-12.073-36.78c-.704-2.145.247-4.441 2.262-5.46l34.544-17.47v29.383c0 3.608-1.405 6.999-3.956 9.55z"/></g></svg>