<svg id="Capa_1" enable-background="new 0 0 511.997 511.997" height="512" viewBox="0 0 511.997 511.997" width="512" xmlns="http://www.w3.org/2000/svg"><g><path d="m487.827 442.206c-.869-.56-1.761-1.075-2.667-1.559 4.283-15.411-1.789-32.467-15.741-41.448-2.456-1.579-5.082-2.842-7.805-3.803 4.768-15.581-1.123-33.085-15.484-42.327-6.747-4.342-14.53-6.356-22.389-5.88 3.275-8.954 4.416-17.532 3.393-25.634-.653-5.211-4.091-9.662-8.974-11.616-4.897-1.96-10.476-1.106-14.562 2.229l-5.531 4.516c-2.896-15.128-11.577-37.9-37.312-49.616v-5.556c0-31.767-14.356-61.224-39.387-80.816-3.263-2.554-7.976-1.978-10.528 1.283-2.553 3.262-1.979 7.976 1.283 10.529 19.388 15.175 31.275 37.28 33.316 61.5h-174.563c2.529-29.776 19.989-56.237 46.857-70.236 7.817-4.076 12.672-12.15 12.672-21.07v-44.523h55.5v43.723c0 4.142 3.358 7.5 7.5 7.5s7.5-3.358 7.5-7.5v-97.2c7.582-3.018 12.962-10.415 12.962-19.059v-25.124c.001-11.314-9.205-20.519-20.519-20.519h-70.397c-11.314 0-20.52 9.205-20.52 20.519v25.124c0 8.649 5.386 16.049 12.974 19.064v97.995c0 3.311-1.766 6.288-4.605 7.769-2.126 1.108-4.202 2.282-6.226 3.52l-.878-7.582c-.438-3.783-3.642-6.637-7.45-6.637h-168.93c-3.809 0-7.012 2.854-7.45 6.638l-12.141 104.898c-1.696 14.634-.24 29.075 4.328 42.923 1.04 3.154 3.972 5.153 7.122 5.153.778 0 1.57-.122 2.35-.379 3.934-1.298 6.071-5.538 4.773-9.472-3.88-11.764-5.116-24.043-3.672-36.498l11.372-98.262h155.567l1.092 9.428c-22.059 19.212-35.091 47.146-35.11 77.247 0 .02-.003.04-.003.061v4c-12.576-1.186-23.484-5.835-34.926-10.729-21.457-9.176-43.644-18.665-76.419-4.723-2.48 1.055-4.204 3.361-4.514 6.039l-2.161 18.662c-2.161 18.71 3.084 37.118 14.767 51.834 11.735 14.778 28.439 24.082 47.035 26.198l11.59 1.32c.282.032.565.048.849.048.283 0 .565-.016.847-.048l11.62-1.32c11.315-1.286 22.025-5.311 31.313-11.61v17.449c-9.228 4.827-19.171 7.876-29.619 9.067-3.789.432-6.65 3.638-6.65 7.452v91.849h-14.999v-91.845c0-3.814-2.862-7.02-6.651-7.452-21.923-2.497-41.794-13.293-55.951-30.4-2.64-3.191-7.368-3.637-10.56-.996-3.191 2.641-3.637 7.369-.996 10.56 15.199 18.366 36.011 30.545 59.158 34.757v85.376h-12.553c-18.362 0-33.3 14.938-33.3 33.3v4.2c0 4.142 3.358 7.5 7.5 7.5h121.709c2.022 0 3.854-.804 5.203-2.105 3.673 1.357 7.641 2.1 11.779 2.1h137.07c8.157 0 16.005-2.968 22.114-8.169.074.049.145.101.22.149 6.234 4.012 13.223 5.927 20.138 5.927 9.013-.001 17.889-3.267 24.797-9.375 2.006 2.084 4.245 3.953 6.7 5.534 6.192 3.985 13.189 5.899 20.129 5.899 8.702 0 17.304-3.021 24.114-8.737.814.623 1.651 1.221 2.519 1.78 6.116 3.936 13.134 5.94 20.199 5.94 4.965 0 9.954-.99 14.666-2.995 3.812-1.622 5.586-6.026 3.965-9.838-1.622-3.812-6.028-5.586-9.838-3.965-6.841 2.911-14.644 2.254-20.873-1.755-.462-.297-.909-.612-1.344-.939 3.832-7.603 4.919-16.22 3.204-24.431 8.196-1.842 15.594-6.402 20.906-13.029.474.259.942.534 1.399.828 6.244 4.025 10.078 10.854 10.256 18.267.099 4.079 3.436 7.319 7.495 7.319.061 0 .123-.001.184-.002 4.141-.1 7.417-3.537 7.317-7.678-.296-12.387-6.698-23.794-17.125-30.516zm-257.421-339.028v-37.016h55.5v37.016zm-12.974-82.659c0-3.043 2.476-5.519 5.52-5.519h70.397c3.043 0 5.52 2.476 5.52 5.519v25.124c0 3.039-2.468 5.511-5.505 5.519h-70.426c-3.037-.008-5.505-2.48-5.505-5.519v-25.124zm220.581 345.164c10.354 6.663 13.356 20.508 6.694 30.862-3.777 5.868-10.028 9.563-16.844 10.161-2.657-3.699-6.029-6.975-10.085-9.585s-8.433-4.322-12.9-5.208c-2.284-6.455-1.511-13.672 2.266-19.541 3.227-5.014 8.214-8.471 14.045-9.735 5.83-1.265 11.806-.183 16.824 3.046zm-52.529 81.618c-5.017-3.229-8.477-8.218-9.741-14.049-1.265-5.831-.183-11.805 3.046-16.822 4.264-6.627 11.469-10.243 18.819-10.243 4.137 0 8.322 1.146 12.052 3.547 10.355 6.666 13.36 20.514 6.696 30.871-6.667 10.357-20.516 13.361-30.872 6.696zm-45.384 1.94c-.065-.041-.133-.077-.198-.119-5.014-3.227-8.471-8.215-9.735-14.045-1.264-5.832-.182-11.807 3.047-16.825 3.767-5.854 10.004-9.545 16.815-10.155 2.701 3.753 6.102 7.007 10.106 9.583.472.304.958.582 1.443.864-1.582 5.681-1.788 11.691-.545 17.621-8.196 1.844-15.599 6.415-20.933 13.076zm-25.097-13.904h-144.457v-166.329h175.207v1.714c-20.409 12.356-27.762 32.286-30.383 45.965l-5.527-4.513c-4.075-3.334-9.646-4.194-14.541-2.242-4.889 1.948-8.337 6.398-9 11.623-2.419 19.278 8.086 37.978 16.743 49.723-5.334 1.371-9.787 5.175-11.932 10.453-2.74 6.743-1.129 14.384 4.105 19.468 6.416 6.229 14.161 10.574 23.118 12.999-3.169 6.574-4.325 13.87-3.333 21.139zm53.429-30.163c-.059-.037-.12-.069-.179-.107-5.014-3.227-8.471-8.215-9.735-14.045-1.264-5.832-.182-11.807 3.047-16.825s8.219-8.478 14.05-9.744c5.83-1.264 11.802-.185 16.816 3.042.065.042.126.089.191.132-3.855 7.621-4.949 16.258-3.226 24.484-8.058 1.809-15.526 6.265-20.964 13.063zm16.064-74.09c-.095 2.939 1.536 5.663 4.171 6.966 2.636 1.304 5.791.946 8.068-.914l15.62-12.754c1.017 10.93-4.017 22.19-8.813 30.181-.547.41-1.085.832-1.609 1.272-.457-.324-.912-.651-1.385-.955-8.384-5.395-18.37-7.202-28.115-5.086-9.747 2.115-18.086 7.899-23.483 16.285-5.347 8.309-7.166 18.188-5.145 27.848-5.44 1.226-10.536 3.641-14.907 7.082-9.42-1.201-17.229-4.745-23.231-10.573-1.187-1.153-.922-2.412-.659-3.06.308-.758.988-1.66 2.489-1.66h.004 11.23c3.043 0 5.782-1.843 6.937-4.659 1.154-2.816.489-6.054-1.68-8.19-.254-.251-25.109-25.038-22.911-48.485l15.62 12.754c2.271 1.854 5.414 2.205 8.046.912 2.632-1.291 4.271-4.01 4.194-6.941-.038-1.458-.567-34.787 27.783-49.346 28.352 14.561 27.814 47.887 27.776 49.323zm-261.959 6.801-10.772 1.224-10.743-1.224c-14.61-1.663-27.744-8.986-36.984-20.621-9.19-11.575-13.314-26.06-11.614-40.784l1.645-14.21c24.663-9.09 41.411-1.927 60.649 6.301 12.478 5.337 25.32 10.819 40.825 11.998v41.187c-8.841 9.004-20.458 14.704-33.006 16.129zm11.737 43.733c7.345-1.334 14.452-3.479 21.27-6.399v67.618c0 .013.002.026.002.039v25.288c-2.823-.766-5.753-1.167-8.712-1.167h-12.56zm-57.55 100.379h70.109c3.317 0 6.558.917 9.37 2.596.9 4.518 2.693 8.718 5.193 12.404h-102.673c1.558-8.521 9.038-15 18.001-15zm112.892 14.995c-10.515 0-19.07-8.55-19.07-19.06v-27.595h149.901c2.864 4.526 6.701 8.415 11.338 11.399.473.305.96.583 1.445.865-1.604 5.765-1.798 11.87-.494 17.885 1.001 4.615 2.833 8.908 5.366 12.729-3.245 2.438-7.205 3.776-11.416 3.776h-137.07zm167.522-5.634c-5.018-3.229-8.478-8.219-9.743-14.051s-.183-11.807 3.046-16.825c3.77-5.859 10.001-9.549 16.819-10.148 2.701 3.751 6.103 7.004 10.107 9.58 4.056 2.61 8.433 4.318 12.9 5.204 2.284 6.455 1.512 13.671-2.263 19.537-6.666 10.36-20.511 13.366-30.866 6.703zm51.635 2.085c-2.189-1.409-4.098-3.187-5.656-5.225 3.383-7.324 4.266-15.501 2.63-23.304 6.06-1.361 11.782-4.217 16.561-8.443 2.006 2.084 4.247 3.952 6.7 5.537 3.953 2.538 8.35 4.309 12.913 5.22 2.271 6.455 1.495 13.663-2.274 19.519-.304.473-.616.917-.979 1.394-6.987 9.264-20.119 11.594-29.895 5.302zm38.817-40.558c-3.693-.26-7.316-1.471-10.458-3.489-2.188-1.413-4.101-3.197-5.664-5.238 3.442-7.447 4.232-15.614 2.627-23.281 7.772-1.747 14.838-5.941 20.101-12.05 2.5.573 4.911 1.574 7.106 2.986 9.775 6.292 13.096 19.208 7.559 29.404-.019.035-.038.071-.057.106-.225.43-.477.857-.811 1.366-4.418 6.871-12.228 10.776-20.403 10.196z"/></g></svg>