<svg id="Capa_1" enable-background="new 0 0 512 512" height="512" viewBox="0 0 512 512" width="512" xmlns="http://www.w3.org/2000/svg"><g><path d="m486.7 279.95c0-23.58-16.709-43.634-38.9-48.732 1.051-4.063 1.6-8.254 1.6-12.548 0-27.565-22.425-49.99-49.99-49.99-14.428 0-27.941 6.214-37.319 16.722-1.518-1.7-3.144-3.301-4.876-4.779 1.509-4.449 3.219-8.855 5.121-13.155 2.889-6.571 6.271-13.006 10.054-19.125 2.178-3.523 1.087-8.145-2.437-10.323-3.523-2.178-8.146-1.087-10.323 2.436-4.147 6.711-7.857 13.768-11.019 20.96-1.616 3.655-3.096 7.389-4.458 11.159-5.38-2.26-11.139-3.57-17.027-3.835-2.746-.14-5.071-.035-7.717.238.989-5.439 2.202-10.857 3.636-16.197 6.123-22.853 16.165-44.371 29.853-63.969l.312-.449c5.843-8.371 17.417-10.426 25.794-4.585 8.121 5.673 10.348 16.614 5.123 24.986-.475.627-2.059 2.641-2.427 3.093-2.592 3.04-2.349 7.613.606 10.358 3.035 2.82 7.781 2.643 10.599-.391.412-.443 3.29-4.086 3.751-4.808 9.712-15.198 5.732-35.199-9.067-45.539-15.165-10.572-36.104-6.849-46.687 8.311l-.311.447c-3.93 5.626-7.57 11.405-10.934 17.317-19.822-33.133-59.452-80.023-130.716-97.34-2.569-.625-5.283.151-7.133 2.044-1.851 1.892-2.566 4.62-1.884 7.177l4.83 18.102c-8.93-2.551-21.532-5.263-35.959-5.791-4.126-.149-7.618 3.082-7.769 7.221s3.082 7.618 7.221 7.769c24.898.911 44.167 9.254 44.349 9.333 2.641 1.168 5.715.717 7.909-1.159s3.116-4.844 2.372-7.633l-5.085-19.059c64.178 19.992 98.1 66.338 113.649 95.235-2.763 5.938-5.249 11.996-7.465 18.158h-30.868l-50.653-50.663c-2.928-2.929-7.677-2.93-10.606-.001-2.929 2.928-2.93 7.677-.001 10.606l40.049 40.057h-77.39l-38.172-38.168c-2.929-2.929-7.678-2.929-10.606 0-2.929 2.929-2.929 7.678 0 10.606l27.564 27.564h-55.273c-4.142 0-7.5 3.358-7.5 7.5s3.358 7.5 7.5 7.5h55.264l-27.556 27.555c-2.929 2.929-2.929 7.677 0 10.606 1.464 1.465 3.384 2.197 5.303 2.197s3.839-.732 5.303-2.197l38.162-38.162h77.396l-23.472 23.472c-22.28 5.372-38.211 25.432-38.211 48.588 0 4.285.55 8.471 1.602 12.532-5.251 1.19-10.287 3.229-14.916 6.051-19.603 5.012-54.873 9.514-85.801-10.449l9.013-11.788c1.498-1.959 1.928-4.533 1.165-6.878-.763-2.346-2.64-4.169-5.004-4.872-.464-.138-45.889-14.164-65.452-64.155 19.562-50.008 64.987-64.027 65.434-64.16 2.375-.693 4.255-2.511 5.026-4.861s.334-4.929-1.168-6.894l-9.013-11.787c7.666-4.948 16.038-8.687 24.975-11.146 3.994-1.099 6.34-5.227 5.242-9.221-1.099-3.994-5.229-6.342-9.221-5.242-13.257 3.647-25.456 9.717-36.258 18.04-3.272 2.521-3.89 7.215-1.38 10.496l7.683 10.049c-16.728 7.567-50.169 27.665-66.382 72.158-.604 1.659-.604 3.478 0 5.136 16.213 44.485 49.654 64.581 66.382 72.148l-7.683 10.048c-2.509 3.281-1.892 7.974 1.38 10.496 22.225 17.129 46.796 22.17 68.021 22.169 5.354 0 10.489-.325 15.326-.853-4.056 7.3-6.278 15.607-6.278 24.263 0 23.965 16.954 44.037 39.496 48.873-1.427 4.698-2.187 9.603-2.187 14.557 0 4.199.519 8.362 1.543 12.374.856 3.355 3.876 5.646 7.261 5.646.094 0 .188-.002.282-.005 1.799-.063 3.582-.771 4.971-2.127 2.082-2.031 2.731-4.977 1.932-7.578-.656-2.692-.989-5.486-.989-8.311 0-6.056 1.567-12.016 4.534-17.239 6.157-10.854 17.723-17.656 30.126-17.751h.593c11.385.087 22.015 5.788 28.493 15.092-2.658 6.101-4.142 12.828-4.142 19.897s1.484 13.796 4.142 19.897c-6.449 9.29-17.085 15.008-28.427 15.095h-.33c-5.857 0-11.429-1.398-16.56-4.156-3.647-1.961-8.195-.594-10.157 3.055-1.961 3.648-.593 8.196 3.055 10.157 4.135 2.223 8.585 3.824 13.174 4.807-1.437 4.715-2.202 9.634-2.202 14.597 0 23.103 16.02 42.949 37.758 48.46-.299 2.223-.459 4.466-.459 6.72 0 27.565 22.425 49.99 49.99 49.99 27.564 0 49.99-22.425 49.99-49.99 0-2.254-.159-4.497-.459-6.719 21.744-5.51 37.769-25.357 37.769-48.461 0-4.956-.763-9.868-2.196-14.577 22.542-4.836 39.496-24.908 39.496-48.873 0-4.955-.761-9.861-2.188-14.559 22.539-4.838 39.489-24.908 39.489-48.87zm-87.29-96.27c19.293 0 34.99 15.697 34.99 34.99 0 3.969-.651 7.811-1.925 11.476-12.817 1.088-24.633 7.071-33.085 16.553-6.918-7.735-16.086-13.173-26.205-15.483 1.054-4.066 1.605-8.256 1.605-12.546 0-6.859-1.44-13.651-4.15-19.904 6.506-9.38 17.214-15.086 28.77-15.086zm-74.606 194.687c-19.293 0-34.99-15.696-34.99-34.989s15.696-34.989 34.99-34.989c19.293 0 34.989 15.696 34.989 34.989s-15.696 34.989-34.989 34.989zm5.112-84.719c-1.826-4.311-2.795-8.982-2.795-13.698-.004-5.908 1.443-11.596 4.258-16.756 6.028-11.003 17.544-17.987 30.055-18.225.045-.001.09-.002.135-.004.178-.007.363-.005.542-.005.176 0 .346-.002.522.005.046.002.093.003.14.004 12.514.23 24.032 7.213 30.062 18.229 2.813 5.154 4.271 10.856 4.266 16.753 0 5.865-1.477 11.665-4.269 16.77-5.538 10.125-15.761 16.833-27.097 18.012-8.127-11.578-21.024-19.575-35.819-21.085zm-3.655-109.933c6.438.26 12.669 2.289 18.016 5.887 4.659 3.119 8.547 7.372 11.243 12.298 2.793 5.105 4.27 10.904 4.27 16.77 0 3.962-.654 7.805-1.933 11.477-15.55 1.332-29.685 9.934-38.039 23.146-10.8-1.557-20.415-8.133-25.742-17.87-2.801-5.108-4.275-10.912-4.266-16.753 0-5.866 1.477-11.665 4.27-16.77 4.102-7.497 10.778-13.229 18.799-16.14 4.245-1.539 8.818-2.25 13.382-2.045zm-17.066-37.105c-.213.762-.434 1.521-.639 2.285-2.167 8.072-3.868 16.311-5.081 24.552-6.094 2.876-11.522 6.942-15.979 11.938-7.199-8.06-16.831-13.59-27.441-15.723l23.053-23.053h26.087zm-65.608 37.695c2.157-.415 4.382-.625 6.614-.625 11.551 0 22.254 5.706 28.759 15.086-2.71 6.252-4.15 13.044-4.15 19.904 0 4.239.54 8.438 1.596 12.536-1.482.336-2.949.731-4.396 1.203-.078.023-.156.048-.233.073-7.908 2.625-15.104 7.241-20.814 13.351-.015.016-.029.031-.044.047-.247.265-.475.547-.716.817-8.488-9.511-20.331-15.44-33.054-16.533-1.284-3.677-1.939-7.526-1.939-11.495 0-16.77 11.93-31.222 28.377-34.364zm-34.338 130.445c-17.589-1.827-31.349-16.736-31.349-34.8 0-11.925 6-22.924 16.052-29.421 5.624-3.644 12.217-5.564 18.938-5.569 11.369 0 22.072 5.558 28.623 14.86.049.069.093.143.141.213-2.744 6.294-4.143 12.981-4.143 19.917 0 4.951.756 9.865 2.185 14.57-12.252 2.651-23.184 9.868-30.447 20.23zm46.079-21.063c-1.84-4.318-2.817-9.002-2.817-13.737 0-5.427 1.213-10.635 3.611-15.493 1.504-3.047 3.467-5.888 5.774-8.353 3.964-4.252 8.948-7.474 14.425-9.325 2.017-.672 4.09-1.147 6.199-1.444 7.111 11.251 18.406 19.148 31.199 22.069-1.051 4.062-1.6 8.252-1.6 12.547 0 4.944.755 9.854 2.18 14.558-10.545 2.264-19.863 7.862-26.797 15.636-8.251-9.228-19.73-15.155-32.174-16.458zm-2.818 113.143c0-4.739.977-9.423 2.824-13.752 12.423-1.294 23.91-7.226 32.169-16.467 6.935 7.776 16.256 13.375 26.804 15.638-1.43 4.71-2.187 9.629-2.187 14.581 0 6.852 1.437 13.642 4.144 19.902-6.497 9.381-17.203 15.088-28.764 15.088-.905 0-1.778-.032-2.668-.099-18.124-1.362-32.322-16.687-32.322-34.891zm72.291 90.17c-19.293 0-34.99-15.697-34.99-34.99 0-1.769.135-3.53.397-5.27 13.399-.724 25.813-6.789 34.596-16.629 8.786 9.837 21.197 15.901 34.59 16.628.262 1.74.397 3.501.397 5.271-.001 19.293-15.697 34.99-34.99 34.99zm39.964-55.279c-.868.066-1.761.099-2.655.099-12.799 0-24.575-6.983-30.726-18.212-2.79-5.114-4.264-10.916-4.264-16.778 0-4.729.975-9.413 2.805-13.724 12.738-1.302 24.068-7.412 32.16-16.474 8.249 9.242 19.716 15.174 32.201 16.468 1.84 4.323 2.814 8.999 2.814 13.729 0 18.204-14.201 33.53-32.335 34.892zm34.645-63.351h-.273c-11.44-.086-22.041-5.79-28.49-15.085 2.661-6.104 4.146-12.834 4.146-19.907 0-5.066-.763-9.955-2.171-14.566 12.265-2.648 23.207-9.848 30.456-20.209 11.137 1.185 21.197 7.681 26.79 17.542 2.965 5.22 4.532 11.18 4.532 17.236.001 19.293-15.696 34.989-34.99 34.989zm40.95-63.621c-7.258-10.353-18.181-17.564-30.448-20.22 1.431-4.708 2.188-9.625 2.188-14.579 0-6.938-1.4-13.625-4.14-19.911 6.504-9.376 17.204-15.079 28.75-15.079.177 0 .355-.002.532.005.057.002.118.004.177.004 18.906.367 34.281 16.053 34.281 34.981 0 18.061-13.756 32.968-31.34 34.799z"/></g></svg>