<?xml version="1.0" encoding="UTF-8"?><svg xmlns="http://www.w3.org/2000/svg" id="Outline" version="1.1" viewBox="0 0 64 64"><path d="M38,31h-12c-.552,0-1,.448-1,1v18c0,.552.448,1,1,1h12c.552,0,1-.448,1-1v-18c0-.552-.448-1-1-1ZM27,33h4v16h-4v-16ZM37,49h-4v-16h4v16Z"/><path d="M22,31h-5c-.504,0-.93.375-.992.876l-1,8c-.036.285.053.571.243.786.189.215.463.338.75.338h6c.552,0,1-.448,1-1v-8c0-.552-.448-1-1-1ZM21,39h-3.867l.75-6h3.117v6Z"/><path d="M47,31h-5c-.552,0-1,.448-1,1v8c0,.552.448,1,1,1h6c.287,0,.56-.123.75-.338.19-.215.278-.501.243-.786l-1-8c-.062-.5-.488-.876-.992-.876ZM43,39v-6h3.117l.75,6h-3.867Z"/><path d="M56,11h-17.18c-.42-1.16-1.52-2-2.82-2h-8c-1.3,0-2.4.84-2.82,2H8c-.55,0-1,.45-1,1s.45,1,1,1h17.18c.42,1.16,1.52,2,2.82,2h3v4h-3c-1.65,0-3,1.35-3,3v1h-5c-2.21,0-4,1.79-4,4-1.22.02-2.32.79-2.76,1.92-2.99,7.79-2.99,16.37,0,24.16.44,1.15,1.57,1.92,2.8,1.92h31.92c1.23,0,2.36-.77,2.8-1.92,2.99-7.79,2.99-16.37,0-24.16-.44-1.13-1.54-1.9-2.76-1.92,0-1.1-.45-2.1-1.17-2.83-.73-.72-1.73-1.17-2.83-1.17h-5v-1c0-1.65-1.35-3-3-3h-3v-4h3c1.3,0,2.4-.84,2.82-2h17.18c.55,0,1-.45,1-1s-.45-1-1-1ZM47.96,29c.41,0,.78.26.93.64,2.82,7.33,2.82,15.39,0,22.72-.15.38-.52.64-.93.64h-31.92c-.41,0-.78-.26-.93-.64-2.82-7.33-2.82-15.39,0-22.72.15-.38.52-.64.93-.64h31.92ZM44,25c1.1,0,2,.9,2,2h-28c0-1.1.9-2,2-2h24ZM36,21c.55,0,1,.45,1,1v1h-10v-1c0-.55.45-1,1-1h8ZM36,13h-8c-.55,0-1-.45-1-1s.45-1,1-1h8c.55,0,1,.45,1,1s-.45,1-1,1Z"/></svg>