<svg xmlns="http://www.w3.org/2000/svg" fill="none" viewBox="0 0 329 71">
    <path fill="#fff"
        d="M206.321 51.458h20.065a.125.125 0 0 0 .125-.125v-.79a.125.125 0 0 0-.125-.126h-2.045a4.297 4.297 0 0 1-4.296-4.298l.002-27.498a4.297 4.297 0 0 1 4.297-4.297h2.042a.124.124 0 0 0 .124-.124v-.786a.124.124 0 0 0-.124-.125h-20.065a.125.125 0 0 0-.124.125v.759c0 .068.056.124.124.124h2.846a4.297 4.297 0 0 1 4.297 4.32l-.139 27.523a4.297 4.297 0 0 1-4.297 4.275h-2.707a.124.124 0 0 0-.124.125v.793c0 .069.056.125.124.125M94.401 28.202c-6.429.87-6.2 13.624-4.722 18.108 2.372 7.198 10.253 5.79 12.398-.605 1.988-5.932 1.356-18.724-7.676-17.503m8.592 18.805c-2.102 2.7-3.824 4.841-7.584 5.104-7.271.507-12.22-6.003-11.852-12.879.554-10.343 11.543-16.044 19.422-8.476l.011-12.095a4.346 4.346 0 0 0-4.35-4.349c-.728.001-1.277.004-1.359.012v-.906c3.375.033 6.755-.084 10.099-.517l-.004 33.232a4.344 4.344 0 0 0 4.284 4.344l.132.002.122.98-8.806.387M122.506 28.202c-6.43.87-6.2 13.624-4.722 18.108 2.372 7.198 10.253 5.79 12.397-.605 1.989-5.932 1.356-18.724-7.675-17.503m8.592 18.805c-2.102 2.7-3.825 4.841-7.584 5.104-7.272.507-12.221-6.003-11.853-12.879.554-10.343 11.543-16.044 19.422-8.476l.011-12.095a4.346 4.346 0 0 0-4.349-4.349c-.729.001-1.278.004-1.359.012l-.001-.906c3.376.033 6.756-.084 10.1-.517l-.005 33.232a4.344 4.344 0 0 0 4.284 4.344l.133.002.121.98-8.805.387M192.197 50.418v1.04H180.13v-1.096a3.633 3.633 0 0 0 3.633-3.633V33.425c-.669-7.286-8.315-6.432-10.793-.208l-.003.008a16.8 16.8 0 0 0-1.093 5.966v7.588a3.633 3.633 0 0 0 3.582 3.633l.407.005.018 1.04H163.58v-1.034a4.1 4.1 0 0 0 4.039-4.1V32.528c0-2.265-1.836-4.101-4.101-4.101h-.198v-.907l8.547-.388v5.564c.306.063.208-.04.291-.167.537-.833.825-1.656 1.526-2.482 4.62-5.443 13.89-2.82 14.497 4.398l.048 12.02a3.97 3.97 0 0 0 3.968 3.951M235.834 27.522h8.287v1.682h-8.287V45.83c0 1.478 1.172 3.81 2.631 4.358 3.891 1.46 6.648-3.443 6.303-6.753h1.038c.592 6.16-5.553 10.64-11.139 7.572-1.471-.808-3.235-3.07-3.235-4.79V29.075h-4.921v-1.552h4.921v-8.928l4.402-1.682zM287.759 50.552v.906h-12.69v-.906h.05a4.16 4.16 0 0 0 4.085-4.158V18.622a4.297 4.297 0 0 0-4.297-4.297h-.227l.057-.785 8.878-.51v33.364c0 2.291 1.853 4.15 4.144 4.158M145.433 36.579h10.96c2.217-4.026.196-8.764-4.797-8.416-4.138.288-6.363 4.694-6.163 8.415m.019 3.815c.23 4.256 1.144 8.981 5.669 10.12 4.091 1.03 7.607-1.178 9.869-4.435l.771.412c-5.3 8.082-17.079 7.425-20.55-1.988-2.375-6.438.452-14.44 7.224-16.653 7.014-2.292 13.049 2.45 13.591 9.505h-16.639zM70.478 15.23c.062-.401.152-1.055.516-1.294.165.673.097.934-.516 1.294M264.322 44.794c0 .393-.574 1.648-.803 2.045-2.329 4.05-9.824 5.913-9.824-.621 0-6.39 6.184-6.03 10.627-7.828zm8.546-.711v2.485c0 .404-.027.808-.107 1.204-.266 1.327-.877 1.875-1.502 2.143-1.579.677-2.397-.774-2.533-2.146-.435-4.375.897-12.395-.551-16.141-2.656-6.874-17.597-5.153-18.225 1.523-.452 4.806 6.121 4.865 5.83.77-.104-1.463-1.472-1.732-1.733-2.935-.522-2.402 3.806-2.91 5.425-2.824 5.672.301 4.88 4.87 4.787 9.195-4.137 2.014-9.871 1.915-13.465 4.918-2.313 1.933-3.26 4.857-1.171 7.373 2.56 3.082 8.475 2.664 11.63.75 1.277-.776 2.165-1.907 3.197-2.951.346 6.013 8.337 5.56 9.304.265.06-.33.078-.666.078-1.001v-2.629z" />
    <path fill="#fff"
        d="M62.48 48.11c.034.212.292.86.496.922.1.03.267-.005.29-.122.054-.287-.359-.49-.548-.631-.077-.058-.126-.182-.239-.169m-2.248-21.02c-.269.113-.604.41-.562.73.045.054.194-.251.213-.278.11-.156.247-.29.349-.452M71.41 14.638l-.237-.756-.435 1.349c.229-.194.4-.449.671-.593m.784-.535c.015-.025.003-.056-.01-.08a3 3 0 0 0-.35-.408 2.5 2.5 0 0 0-.45-.311l-.057.03c.095.36.258.802.654.91zm-3.451-6.066.234.117c.468.389.968.785 1.382 1.231.11.12.257.362.364.451.188.156.751.326.885.464.041.043.037.123.07.155.04.04.117.014.185.066.084.066.084.213.141.281.055.066.159.043.165.173.002.049-.03.098-.028.14.006.116.06.233.017.352-.172.104-.303-.078-.465-.086a5.4 5.4 0 0 1-.245 1.674c.172.132.377.229.51.407.098.132.195.41.4.444.052.008.321-.164.372-.208.18-.158.215-.335.482-.474.23-.12.407-.053.58-.122.223-.089.181-.456.57-.302.118.047.145.251.167-.013l-.084-.015c.065-.23.102-.491.114-.73.055-1.044-.286-2.025.617-2.811.382-.333 1.398-.892 1.896-.94.563-.056 1.214.055 1.657.421.127.106.208.245.323.351.095.087.236.162.338.252.71.629 1.327 1.716.506 2.53-.05.051-.169.103-.183.127-.062.102-.082.447-.148.582-.046.09-.174.118-.197.196-.034.113.025.286.024.417-.002.08-.029.148-.031.222-.014.435.077.797-.544.61-.145.118-.135.36-.382.305.127.308-.123.254-.24.392-.085.098-.053.246-.125.346a.84.84 0 0 1-.359.21c-.24.04-.683-.217-.949-.235l-.545.541c.223.28.506.55.588.91-.539-.073-.52.668-.62 1.051-.075.288-.266.761-.305 1.016-.035.23-.044 1.013-.031 1.262.01.189.36 1.083.45 1.322.038.1.136.253.157.321.018.063 0 .131.017.18.011.034.092.069.132.12.068.091.09.313.104.323.024.017.117.032.163.056.241.129.138.066.365.082.059.004.122.056.173.054.063-.003.204-.134.364-.14.18-.009.354.119.5.079.037-.01.073-.054.125-.07.266-.084.634.04.92.05.34.01.81-.04 1.138-.128.112-.03.312-.139.386-.15.072-.012.118.034.204.011.186-.047.844-.547 1.058-.686.043-.027.098-.025.138-.06.088-1.15.283-2.292.4-3.437-.157-.13.018-.288.055-.462.027-.127.088-.587.083-.702-.003-.059-.05-.093-.048-.16.002-.068.061-.14.076-.207.056-.258.102-.847.445-.904.216-.036.32.03.43.213.114.19.08.373.06.586-.054.58-.126 1.19-.2 1.767-.137 1.06-.353 2.113-.47 3.177.01.047.264.074.34.108.19.084.253.256.182.449-.014.04-.069.072-.07.09-.005.063.19.169.074.391-.027.052-.123.106-.131.148s.055.131.05.218c-.008.11-.12.23-.127.283-.005.041.022.107.016.17-.014.14-.107.262-.212.35-.11.091-.301.139-.367.196-.062.055-.055.388-.068.493-.162 1.316-.287 2.614-.454 3.93-.295 2.336-.675 4.665-.95 7.002-.29 2.449-.486 4.911-.76 7.363a886 886 0 0 1-1.095 9.33c-.034.278-.058.693-.118.95-.02.082-.115.21-.187.113-.079-.105-.066-.261-.06-.389.07-1.455.33-3.033.477-4.496q.92-9.089 1.799-18.182c.101-1.048.246-2.098.336-3.148.02-.223.008-.279-.026-.479-.038-.22.057-.393.08-.591.028-.24.016-.522.041-.751.018-.154.225-.995.175-1.06-.239-.068-.475-.14-.72-.07-.232.066-.101.249-.242.377-.197-.006-.447-.094-.638-.079-.428.033-1.225.427-1.682.567-1.303.4-2.471.407-3.8.555-.131.014-.548 0-.616.086-.042.053-.216.59-.207.653.004.082.094.103.125.142.198.245.297.487.303.807.245.141.199-.081.297-.128.043-.022.161-.028.198-.002.09.063-.043 1.068-.129 1.194-.085.125-.25-.003-.378.03-.052.398-.108.884-.284 1.247-.037.075-.158.207-.166.258-.027.166.175.495-.018.655-.184.152-.506.22-.74.229.02.185.093.365.109.551.16 1.842.383 3.686.537 5.533.023.272-.003.612.03.868.049.363.278.725.307 1.183.014.222-.07.579-.05.725.01.08.149.308.178.44.107.483-.111.89-.518 1.144.066.426.132.858.165 1.288.094 1.232.076 2.55-.21 3.752-.033.14-.192.564-.183.657.012.114.177.454.216.63.056.255.021.494.06.697.093.487.347 1.12.496 1.613.05.164.116.596.226.702.058.056.388.14.49.183.532.224.87.366 1.475.38.411.01.915-.148 1.264.14.54.445.065 1.328-.462 1.547l.05.219c-.183.11-.219.185-.444.089l.029.14c-.118-.008-.233.07-.35.056-.108-.014-.175-.145-.307-.114l-.047.17c-.112-.035-.405.061-.477.014-.024-.016-.031-.068-.056-.084-.05-.032-.16-.012-.223-.01l-.016.08c-.271-.046-.545-.104-.818-.136-.198-.024-.661-.09-.833-.054-.053.01-.217.127-.245.106-.02-.194-.162-.145-.306-.11l-.007.205-.277.102-.032-.165c-.08-.015-.174-.007-.236.052l-.01.155-.334.065c-.13-.314-.273-.285-.313.05-.11-.005-.254.043-.353.041-.085 0-.03-.164-.117-.194-.144-.051-.12.063-.19.11-.094.065-.273-.037-.378-.062l-.007-.147c-.176-.159-.365.052-.585-.048l-.005-.106c-.01-.016-.088-.02-.118-.036-.071-.043-.146-.446-.155-.548-.056-.605.153-1.18.11-1.74-.023-.286-.217-.422-.228-.728-.01-.272.18-.656.17-.814s-.228-.423-.227-.705c0-.148.115-.256.116-.364.001-.135-.11-.413-.134-.57-.05-.324-.034-.65-.037-.978-.01-1.097-.041-2.22-.027-3.315.002-.165.05-.385.048-.5-.002-.073-.05-.159-.05-.258 0-.138.072-.244.08-.344.006-.075-.03-.137-.015-.24.016-.104.123-.211.128-.264.005-.047-.14-.256-.133-.413.008-.164.2-.398.195-.48-.004-.078-.118-.294-.183-.352-.066.236-.046.534-.105.765-.06.234-.41.488-.598.639-.185.149-.53.339-.678.487-.114.115-.27.438-.38.59a29 29 0 0 1-2.227 2.746c-.979 1.051-2.146 1.917-3.288 2.78l.015.071.405.126c.038.013.012.057-.012.072-.065.04-.538-.273-.634-.1-.04.089.398.351.478.423.172.154.422.402.157.605-.403.308-.626-.447-.787-.662.024.555.055.993.38 1.46.153.22.36.348.513.583.177.27.354.64.28.972-.052.231-.583.375-.79.375-.14 0-.299-.068-.4-.072-.11-.005-.31.064-.403-.075-.052-.08-.018-.244-.157-.04-.049-.079-.227-.148-.269-.208-.06-.084.002-.281-.18-.318l-.085.077c-.064-.097-.295-.25-.338-.338-.032-.062.062-.104.03-.167-.068-.14-.19-.084-.227-.11-.048-.035-.103-.202-.153-.27-.137-.185-.517-.493-.604-.69-.036-.082.038-.19.014-.28-.02-.021-.214.09-.263.08-.034-.008-.056-.066-.093-.076-.042-.01-.089.031-.15.014-.072-.02-.112-.125-.196-.13l.072-.168c-.097-.118-.128-.132-.269-.07l-.127-.127.059-.168c-.109-.185-.171-.015-.27-.097-.169-.14-.046-.256-.126-.353-.055-.068-.114-.043-.167-.086-.083-.066-.164-.384-.218-.414-.034-.02-.092.004-.15-.032a.7.7 0 0 1-.119-.162c-.006-.041.04-.075.043-.111.013-.118-.09-.181.002-.368.105-.212.914-.775 1.149-.93.3-.198.635-.397.963-.54-.103-.302.084-.52.296-.7.065-.056.177-.094.223-.144.07-.074.09-.186.199-.279.2-.172.274-.069.464-.125.123-.037.277-.214.417-.244-.127-.549.118-.985.44-1.4.382-.488.84-.807 1.277-1.223.555-.53 1.112-1.077 1.602-1.658.148-.177.395-.352.591-.476.099-.063.43-.21.475-.256.06-.063.063-.23.112-.303.028-.042.101-.05.133-.084.055-.06.074-.181.162-.274.146-.155.372-.25.564-.335l.126-1.28a10.6 10.6 0 0 1-.394-3.934c.011-.135.083-.357.075-.474-.007-.091-.087-.23-.1-.344-.018-.153.008-.32-.004-.474-.035-.182-.61-.51-.745-.66-.091-.1-.335-.535-.35-.661-.038-.332.042-.693.028-1.026-.54.114-1.117.136-1.651-.02-.477-.14-.962-.365-1.45-.49l-1.606-1.175c-.115-.2-.108-.453-.069-.676-.014-.017-.238.148-.266.17-.39.3-.776.766-.857 1.263-.254-.104-.446-.442-.359-.71.127-.39.585-.697.95-.848.106-.044.591-.173.617-.226a2.57 2.57 0 0 1-1.053-1.195c-.052-.125-.183-.542-.183-.66v-.688h-.169l.028-.535.207-.003.043-.042c.064-.755.205-1.53.452-2.245.049-.14.197-.405.22-.512.041-.207.008-.567.034-.808.07-.652.278-1.38.78-1.826-.308-.529-.52-1.276-.118-1.811.285-.38.658-.834 1.088-1.047.095-.048.221-.059.31-.112.178-.105.25-.329.552-.249-.009-.118.03-.266.148-.315.049-.021.18-.017.185-.063-.178-.293.285-.3.482-.296-.114-.24-.261-.436-.323-.702-.386-1.648.433-2.617 1.516-3.683.649-.638 1.347-1.277 2.234-1.559l.422-.098s.477-.083.786 0M57.18 50.418l-2.045-.001a4.297 4.297 0 0 1-4.296-4.297l.001-27.499a4.297 4.297 0 0 1 4.298-4.297h2.042a.124.124 0 0 0 .124-.124v-.786a.124.124 0 0 0-.124-.125H37.115a.125.125 0 0 0-.125.125v.759c0 .069.056.124.125.124h2.846a4.297 4.297 0 0 1 4.297 4.32l-.066 13.075H26.944l.067-13.216a4.173 4.173 0 0 1 4.172-4.152h2.13V13.29H13v1.008h3.095a4.173 4.173 0 0 1 4.173 4.194l-.14 27.773a4.173 4.173 0 0 1-4.173 4.152H13v1.042h20.314v-1.04l-2.273-.001a4.17 4.17 0 0 1-4.171-4.194l.068-13.454h17.249l-.068 13.37a4.3 4.3 0 0 1-4.297 4.277h-2.707a.124.124 0 0 0-.125.124v.793c0 .069.056.125.125.125H57.18a.125.125 0 0 0 .124-.124v-.792a.124.124 0 0 0-.124-.124M305.11 27.521v.828h2.056c.933 0 1.586.92 1.279 1.801l-5.162 14.785-6.99-14.81a1.237 1.237 0 0 1 1.119-1.765h1.842v-.838h-12.79v.906c1.147-.008 2.437-.092 3.275.717.19.183.333.41.444.65l10.63 22.921c.043.315-.303.99-.433 1.325-1.115 2.897-2.938 8.154-5.756 9.646-.432.23-2.256.894-2.664.465a3.181 3.181 0 1 0-3.686-.348c1.61 1.828 5.228 1.719 7.428.312 1.736-1.11 3.009-3.746 3.864-5.584 3.524-7.58 6.376-15.697 9.757-23.372 1.282-2.91 2.643-6.888 6.535-6.733v-.905z" />
</svg>