<svg width="24" height="24" viewBox="0 0 24 24" fill="none" xmlns="http://www.w3.org/2000/svg">
<g clip-path="url(#clip0_5840_42614)">
<path d="M17.596 12.768C17.9711 13.1432 18.48 13.3539 19.0105 13.3539C19.541 13.3539 20.0499 13.1432 20.425 12.768C20.8001 12.3929 21.0109 11.884 21.0109 11.3535C21.0109 10.823 20.8001 10.3142 20.425 9.93901L18.657 8.17201C19.0321 8.54702 19.5409 8.75765 20.0714 8.75756C20.334 8.75751 20.5941 8.70573 20.8367 8.60518C21.0794 8.50462 21.2998 8.35726 21.4855 8.17151C21.6712 7.98575 21.8185 7.76524 21.9189 7.52257C22.0194 7.27989 22.0711 7.0198 22.0711 6.75715C22.071 6.4945 22.0192 6.23443 21.9187 5.99179C21.8181 5.74915 21.6708 5.5287 21.485 5.34301L18.657 2.51501C18.282 2.13986 17.7733 1.92905 17.2429 1.92896C16.7124 1.92886 16.2036 2.13949 15.8285 2.51451C15.4534 2.88952 15.2425 3.39821 15.2424 3.92865C15.2424 4.4591 15.453 4.96786 15.828 5.34301L14.061 3.57501C13.8752 3.38925 13.6547 3.2419 13.412 3.14137C13.1693 3.04084 12.9092 2.9891 12.6465 2.9891C12.3838 2.9891 12.1237 3.04084 11.881 3.14137C11.6383 3.2419 11.4178 3.38925 11.232 3.57501C11.0462 3.76076 10.8989 3.98128 10.7984 4.22398C10.6978 4.46669 10.6461 4.72681 10.6461 4.98951C10.6461 5.2522 10.6978 5.51233 10.7984 5.75503C10.8989 5.99773 11.0462 6.21825 11.232 6.40401L17.596 12.768Z" stroke="#312E29" stroke-width="2" stroke-linecap="round" stroke-linejoin="round"/>
<path d="M2.5 21.5L3.9 20.1" stroke="#312E29" stroke-width="2" stroke-linecap="round" stroke-linejoin="round"/>
<path d="M20.1 3.9L21.5 2.5" stroke="#312E29" stroke-width="2" stroke-linecap="round" stroke-linejoin="round"/>
<path d="M5.343 21.485C5.71802 21.8602 6.2267 22.071 6.75715 22.0711C7.0198 22.0711 7.27988 22.0194 7.52256 21.919C7.76523 21.8185 7.98574 21.6712 8.1715 21.4855C8.35725 21.2998 8.50462 21.0794 8.60517 20.8367C8.70573 20.5941 8.7575 20.334 8.75755 20.0714C8.7576 19.8087 8.70591 19.5486 8.60544 19.306C8.50497 19.0633 8.35769 18.8428 8.172 18.657L9.939 20.425C10.3141 20.8002 10.823 21.0109 11.3535 21.0109C11.884 21.0109 12.3928 20.8002 12.768 20.425C13.1431 20.0499 13.3539 19.5411 13.3539 19.0105C13.3539 18.48 13.1431 17.9712 12.768 17.596L6.404 11.232C6.21824 11.0463 5.99772 10.8989 5.75502 10.7984C5.51232 10.6979 5.2522 10.6461 4.9895 10.6461C4.7268 10.6461 4.46668 10.6979 4.22398 10.7984C3.98128 10.8989 3.76075 11.0463 3.575 11.232C3.38924 11.4178 3.2419 11.6383 3.14137 11.881C3.04084 12.1237 2.98909 12.3838 2.98909 12.6465C2.98909 12.9092 3.04084 13.1693 3.14137 13.412C3.2419 13.6547 3.38924 13.8753 3.575 14.061L5.343 15.828C4.96785 15.453 4.45909 15.2424 3.92865 15.2425C3.3982 15.2426 2.88952 15.4534 2.5145 15.8285C2.13948 16.2037 1.92885 16.7124 1.92895 17.2429C1.92904 17.7733 2.13985 18.282 2.515 18.657L5.343 21.485Z" stroke="#312E29" stroke-width="2" stroke-linecap="round" stroke-linejoin="round"/>
<path d="M9.6 14.4L14.4 9.59998" stroke="#312E29" stroke-width="2" stroke-linecap="round" stroke-linejoin="round"/>
</g>
<defs>
<clipPath id="clip0_5840_42614">
<rect width="24" height="24" fill="white"/>
</clipPath>
</defs>
</svg>
