<svg width="303" height="66" viewBox="0 0 303 66" fill="none" xmlns="http://www.w3.org/2000/svg">
<path d="M193.321 51.458H213.386C213.419 51.458 213.45 51.4448 213.474 51.4214C213.497 51.3979 213.511 51.3662 213.511 51.333V50.543C213.511 50.5265 213.508 50.5101 213.501 50.4949C213.495 50.4796 213.486 50.4657 213.474 50.454C213.463 50.4423 213.449 50.433 213.434 50.4266C213.418 50.4203 213.402 50.417 213.386 50.417H211.341C210.776 50.4169 210.218 50.3056 209.696 50.0895C209.175 49.8735 208.701 49.5568 208.302 49.1577C207.903 48.7586 207.587 48.2849 207.371 47.7635C207.155 47.2421 207.044 46.6833 207.045 46.119L207.047 18.621C207.047 17.4814 207.499 16.3884 208.305 15.5826C209.111 14.7767 210.204 14.324 211.344 14.324H213.386C213.418 14.324 213.45 14.3109 213.473 14.2877C213.496 14.2644 213.51 14.2329 213.51 14.2V13.414C213.51 13.3976 213.507 13.3814 213.5 13.3662C213.494 13.3511 213.485 13.3373 213.474 13.3257C213.462 13.3141 213.448 13.3048 213.433 13.2985C213.418 13.2922 213.402 13.289 213.386 13.289H193.321C193.288 13.2893 193.256 13.3026 193.233 13.326C193.21 13.3494 193.197 13.381 193.197 13.414V14.173C193.197 14.241 193.253 14.297 193.321 14.297H196.167C196.733 14.297 197.293 14.4089 197.816 14.6263C198.339 14.8437 198.814 15.1622 199.213 15.5637C199.612 15.9651 199.928 16.4416 200.143 16.9655C200.358 17.4895 200.467 18.0508 200.464 18.617L200.325 46.14C200.319 47.2758 199.863 48.3631 199.058 49.1642C198.253 49.9653 197.163 50.415 196.028 50.415H193.321C193.304 50.415 193.288 50.4182 193.273 50.4245C193.258 50.4308 193.244 50.4401 193.232 50.4517C193.221 50.4633 193.212 50.4771 193.206 50.4922C193.2 50.5074 193.196 50.5236 193.197 50.54V51.333C193.197 51.402 193.253 51.458 193.321 51.458ZM81.4005 28.202C74.9715 29.072 75.2005 41.826 76.6785 46.31C79.0505 53.508 86.9315 52.1 89.0765 45.705C91.0645 39.773 90.4325 26.981 81.4005 28.202ZM89.9925 47.007C87.8905 49.707 86.1685 51.848 82.4085 52.111C75.1375 52.618 70.1885 46.108 70.5565 39.232C71.1105 28.889 82.0995 23.188 89.9785 30.756L89.9895 18.661C89.9899 18.0897 89.8777 17.5239 89.6592 16.996C89.4407 16.4681 89.1203 15.9885 88.7163 15.5846C88.3123 15.1806 87.8325 14.8603 87.3046 14.642C86.7767 14.4236 86.2109 14.3115 85.6395 14.312C84.9115 14.313 84.3625 14.316 84.2805 14.324V13.418C87.6555 13.451 91.0355 13.334 94.3795 12.901L94.3755 46.133C94.3754 47.2748 94.8249 48.3707 95.6266 49.1837C96.4283 49.9966 97.5179 50.4612 98.6595 50.477L98.7915 50.479L98.9135 51.459L90.1075 51.846M109.506 28.202C103.076 29.072 103.306 41.826 104.784 46.31C107.156 53.508 115.037 52.1 117.181 45.705C119.17 39.773 118.537 26.981 109.506 28.202ZM118.098 47.007C115.996 49.707 114.273 51.848 110.514 52.111C103.242 52.618 98.2925 46.108 98.6605 39.232C99.2145 28.889 110.204 23.188 118.083 30.756L118.094 18.661C118.094 18.0898 117.982 17.5241 117.763 16.9962C117.545 16.4684 117.225 15.9888 116.821 15.5849C116.417 15.181 115.937 14.8607 115.409 14.6422C114.881 14.4238 114.316 14.3116 113.745 14.312C113.016 14.313 112.467 14.316 112.386 14.324L112.385 13.418C115.761 13.451 119.141 13.334 122.485 12.901L122.48 46.133C122.479 47.2748 122.929 48.3707 123.731 49.1837C124.532 49.9966 125.622 50.4612 126.764 50.477L126.897 50.479L127.018 51.459L118.213 51.846M179.197 50.418V51.458H167.13V50.362C167.607 50.362 168.079 50.268 168.52 50.0855C168.961 49.9029 169.361 49.6353 169.698 49.2979C170.036 48.9606 170.303 48.5601 170.486 48.1193C170.669 47.6785 170.763 47.2061 170.763 46.729V33.425C170.094 26.139 162.448 26.993 159.97 33.217L159.967 33.225C159.243 35.1309 158.873 37.1525 158.874 39.191V46.779C158.873 47.7338 159.249 48.6502 159.92 49.3301C160.59 50.0099 161.501 50.3986 162.456 50.412L162.863 50.417L162.881 51.457H150.58V50.423C151.656 50.407 152.684 49.968 153.439 49.2008C154.195 48.4336 154.619 47.3999 154.619 46.323V32.528C154.619 30.263 152.783 28.427 150.518 28.427H150.32V27.52L158.867 27.132V32.696C159.173 32.759 159.075 32.656 159.158 32.529C159.695 31.696 159.983 30.873 160.684 30.047C165.304 24.604 174.574 27.227 175.181 34.445L175.229 46.465C175.234 47.5143 175.654 48.5189 176.397 49.2592C177.141 49.9996 178.147 50.4155 179.197 50.416M222.834 27.522H231.121V29.204H222.834V45.83C222.834 47.308 224.006 49.64 225.465 50.188C229.356 51.648 232.113 46.745 231.768 43.435H232.806C233.398 49.595 227.253 54.075 221.667 51.007C220.196 50.199 218.432 47.937 218.432 46.217V29.075H213.511V27.523H218.432V18.595L222.834 16.913V27.522ZM274.759 50.552V51.458H262.069V50.552H262.119C263.208 50.5323 264.247 50.0857 265.011 49.3081C265.775 48.5305 266.203 47.4841 266.204 46.394V18.622C266.204 17.4824 265.751 16.3894 264.945 15.5836C264.139 14.7777 263.046 14.325 261.907 14.325H261.68L261.737 13.54L270.615 13.03V46.394C270.615 48.685 272.468 50.544 274.759 50.552ZM132.433 36.579H143.393C145.61 32.553 143.589 27.815 138.596 28.163C134.458 28.451 132.233 32.858 132.433 36.579ZM132.452 40.393C132.682 44.649 133.596 49.374 138.121 50.513C142.212 51.543 145.728 49.335 147.99 46.078L148.761 46.49C143.461 54.572 131.682 53.915 128.211 44.502C125.836 38.064 128.663 30.062 135.435 27.849C142.449 25.557 148.484 30.299 149.026 37.354H132.387L132.452 40.393ZM57.4775 15.23C57.5395 14.829 57.6295 14.175 57.9935 13.936C58.1585 14.609 58.0905 14.87 57.4775 15.23ZM251.322 44.794C251.322 45.187 250.748 46.442 250.519 46.839C248.19 50.889 240.695 52.752 240.695 46.218C240.695 39.828 246.879 40.188 251.322 38.39V44.794ZM259.868 44.083V46.568C259.868 46.972 259.841 47.376 259.761 47.772C259.495 49.099 258.884 49.647 258.259 49.915C256.68 50.592 255.862 49.141 255.726 47.769C255.291 43.394 256.623 35.374 255.175 31.628C252.519 24.754 237.578 26.475 236.95 33.151C236.498 37.957 243.071 38.016 242.78 33.921C242.676 32.458 241.308 32.189 241.047 30.986C240.525 28.584 244.853 28.076 246.472 28.162C252.144 28.463 251.352 33.032 251.259 37.357C247.122 39.371 241.388 39.272 237.794 42.275C235.481 44.208 234.534 47.132 236.623 49.648C239.183 52.73 245.098 52.312 248.253 50.398C249.53 49.622 250.418 48.491 251.45 47.447C251.796 53.46 259.787 53.007 260.754 47.712C260.814 47.382 260.832 47.046 260.832 46.711V44.082L259.868 44.083Z" fill="white"/>
<path d="M49.48 48.11C49.514 48.322 49.772 48.97 49.976 49.032C50.076 49.062 50.243 49.027 50.266 48.91C50.32 48.623 49.907 48.42 49.718 48.279C49.641 48.221 49.593 48.097 49.48 48.11ZM47.231 27.09C46.962 27.203 46.627 27.5 46.669 27.82C46.714 27.874 46.863 27.569 46.882 27.542C46.992 27.386 47.129 27.252 47.231 27.09ZM58.41 14.638L58.173 13.882L57.738 15.231C57.967 15.037 58.138 14.782 58.409 14.638M59.193 14.103C59.208 14.078 59.196 14.047 59.183 14.023C59.0788 13.8768 58.9616 13.7403 58.833 13.615C58.6948 13.4952 58.5439 13.3909 58.383 13.304L58.326 13.334C58.421 13.694 58.584 14.136 58.98 14.244L59.193 14.103ZM55.742 8.037L55.976 8.154C56.444 8.543 56.944 8.939 57.358 9.385C57.468 9.505 57.615 9.747 57.722 9.836C57.91 9.992 58.473 10.162 58.607 10.3C58.648 10.343 58.644 10.423 58.677 10.455C58.717 10.495 58.794 10.469 58.862 10.521C58.946 10.587 58.946 10.734 59.003 10.802C59.058 10.868 59.162 10.845 59.168 10.975C59.17 11.024 59.138 11.073 59.14 11.115C59.146 11.231 59.2 11.348 59.157 11.467C58.985 11.571 58.854 11.389 58.692 11.381C58.6988 11.9484 58.6161 12.5133 58.447 13.055C58.619 13.187 58.824 13.284 58.957 13.462C59.055 13.594 59.152 13.872 59.357 13.906C59.409 13.914 59.678 13.742 59.729 13.698C59.909 13.54 59.944 13.363 60.211 13.224C60.441 13.104 60.618 13.171 60.791 13.102C61.014 13.013 60.972 12.646 61.361 12.8C61.479 12.847 61.506 13.051 61.528 12.787L61.444 12.772C61.509 12.542 61.546 12.281 61.558 12.042C61.613 10.998 61.272 10.017 62.175 9.231C62.557 8.898 63.573 8.339 64.071 8.291C64.634 8.235 65.285 8.346 65.728 8.712C65.855 8.818 65.936 8.957 66.051 9.063C66.146 9.15 66.287 9.225 66.389 9.315C67.099 9.944 67.716 11.031 66.895 11.845C66.845 11.896 66.726 11.948 66.712 11.972C66.65 12.074 66.63 12.419 66.564 12.554C66.518 12.644 66.39 12.672 66.367 12.75C66.333 12.863 66.392 13.036 66.391 13.167C66.389 13.247 66.362 13.315 66.36 13.389C66.346 13.824 66.437 14.186 65.816 13.999C65.671 14.117 65.681 14.359 65.434 14.304C65.561 14.612 65.311 14.558 65.194 14.696C65.109 14.794 65.141 14.942 65.069 15.042C64.9688 15.141 64.8454 15.2132 64.71 15.252C64.47 15.292 64.027 15.035 63.761 15.017L63.216 15.558C63.439 15.838 63.722 16.108 63.804 16.468C63.265 16.395 63.284 17.136 63.184 17.519C63.109 17.807 62.918 18.28 62.879 18.535C62.844 18.765 62.835 19.548 62.848 19.797C62.858 19.986 63.208 20.88 63.298 21.119C63.336 21.219 63.434 21.372 63.455 21.44C63.473 21.503 63.455 21.571 63.472 21.62C63.483 21.654 63.564 21.689 63.604 21.74C63.672 21.831 63.694 22.053 63.708 22.063C63.732 22.08 63.825 22.095 63.871 22.119C64.112 22.248 64.009 22.185 64.236 22.201C64.295 22.205 64.358 22.257 64.409 22.255C64.472 22.252 64.613 22.121 64.773 22.115C64.953 22.106 65.127 22.234 65.273 22.194C65.31 22.184 65.346 22.14 65.398 22.124C65.664 22.04 66.032 22.164 66.318 22.174C66.658 22.184 67.128 22.134 67.456 22.046C67.568 22.016 67.768 21.907 67.842 21.896C67.914 21.884 67.96 21.93 68.046 21.907C68.232 21.86 68.89 21.36 69.104 21.221C69.147 21.194 69.202 21.196 69.242 21.161C69.33 20.011 69.525 18.869 69.642 17.724C69.485 17.594 69.66 17.436 69.697 17.262C69.724 17.135 69.785 16.675 69.78 16.56C69.777 16.501 69.73 16.467 69.732 16.4C69.734 16.332 69.793 16.26 69.808 16.193C69.864 15.935 69.91 15.346 70.253 15.289C70.469 15.253 70.573 15.319 70.683 15.502C70.797 15.692 70.763 15.875 70.743 16.088C70.689 16.668 70.617 17.278 70.543 17.855C70.406 18.915 70.19 19.968 70.073 21.032C70.083 21.079 70.337 21.106 70.413 21.14C70.603 21.224 70.666 21.396 70.595 21.589C70.581 21.629 70.526 21.661 70.525 21.679C70.52 21.742 70.715 21.848 70.599 22.07C70.572 22.122 70.476 22.176 70.468 22.218C70.46 22.26 70.523 22.349 70.518 22.436C70.51 22.546 70.398 22.666 70.391 22.719C70.386 22.76 70.413 22.826 70.407 22.889C70.393 23.029 70.3 23.151 70.195 23.239C70.085 23.33 69.894 23.378 69.828 23.435C69.766 23.49 69.773 23.823 69.76 23.928C69.598 25.244 69.473 26.542 69.306 27.858C69.011 30.194 68.631 32.523 68.356 34.86C68.066 37.309 67.87 39.771 67.596 42.223C67.2475 45.3349 66.8825 48.445 66.501 51.553C66.467 51.831 66.443 52.246 66.383 52.503C66.363 52.585 66.268 52.713 66.196 52.616C66.117 52.511 66.13 52.355 66.136 52.227C66.206 50.772 66.466 49.194 66.613 47.731C67.2263 41.6717 67.826 35.611 68.412 29.549C68.513 28.501 68.658 27.451 68.748 26.401C68.768 26.178 68.756 26.122 68.722 25.922C68.684 25.702 68.779 25.529 68.802 25.331C68.83 25.091 68.818 24.809 68.843 24.58C68.861 24.426 69.068 23.585 69.018 23.52C68.779 23.452 68.543 23.38 68.298 23.45C68.066 23.516 68.197 23.699 68.056 23.827C67.859 23.821 67.609 23.733 67.418 23.748C66.99 23.781 66.193 24.175 65.736 24.315C64.433 24.715 63.265 24.722 61.936 24.87C61.805 24.884 61.388 24.87 61.32 24.956C61.278 25.009 61.104 25.546 61.113 25.609C61.117 25.691 61.207 25.712 61.238 25.751C61.436 25.996 61.535 26.238 61.541 26.558C61.786 26.699 61.74 26.477 61.838 26.43C61.881 26.408 61.999 26.402 62.036 26.428C62.126 26.491 61.993 27.496 61.907 27.622C61.822 27.747 61.657 27.619 61.529 27.652C61.477 28.05 61.421 28.536 61.245 28.899C61.208 28.974 61.087 29.106 61.079 29.157C61.052 29.323 61.254 29.652 61.061 29.812C60.877 29.964 60.555 30.032 60.321 30.041C60.341 30.226 60.414 30.406 60.43 30.592C60.59 32.434 60.813 34.278 60.967 36.125C60.99 36.397 60.964 36.737 60.997 36.993C61.046 37.356 61.275 37.718 61.304 38.176C61.318 38.398 61.234 38.755 61.254 38.901C61.264 38.981 61.403 39.209 61.432 39.341C61.539 39.824 61.321 40.231 60.914 40.485C60.98 40.911 61.046 41.343 61.079 41.773C61.173 43.005 61.155 44.323 60.869 45.525C60.836 45.665 60.677 46.089 60.686 46.182C60.698 46.296 60.863 46.636 60.902 46.812C60.958 47.067 60.923 47.306 60.962 47.509C61.055 47.996 61.309 48.629 61.458 49.122C61.508 49.286 61.574 49.718 61.684 49.824C61.742 49.88 62.072 49.964 62.174 50.007C62.706 50.231 63.044 50.373 63.649 50.387C64.06 50.397 64.564 50.239 64.913 50.527C65.453 50.972 64.978 51.855 64.451 52.074L64.501 52.293C64.318 52.403 64.282 52.478 64.057 52.382L64.086 52.522C63.968 52.514 63.853 52.592 63.736 52.578C63.628 52.564 63.561 52.433 63.429 52.464L63.382 52.634C63.27 52.599 62.977 52.695 62.905 52.648C62.881 52.632 62.874 52.58 62.849 52.564C62.799 52.532 62.689 52.552 62.626 52.554L62.61 52.634C62.339 52.588 62.065 52.53 61.792 52.498C61.594 52.474 61.131 52.408 60.959 52.444C60.906 52.454 60.742 52.571 60.714 52.55C60.694 52.356 60.552 52.405 60.408 52.44L60.401 52.645L60.124 52.747L60.092 52.582C60.012 52.567 59.918 52.575 59.856 52.634L59.846 52.789L59.512 52.854C59.382 52.54 59.239 52.569 59.199 52.904C59.089 52.899 58.945 52.947 58.846 52.945C58.761 52.945 58.816 52.781 58.729 52.751C58.585 52.7 58.609 52.814 58.539 52.861C58.445 52.926 58.266 52.824 58.161 52.799L58.154 52.652C57.978 52.493 57.789 52.704 57.569 52.604L57.564 52.498C57.554 52.482 57.476 52.478 57.446 52.462C57.375 52.419 57.3 52.016 57.291 51.914C57.235 51.309 57.444 50.734 57.401 50.174C57.378 49.888 57.184 49.752 57.173 49.446C57.163 49.174 57.353 48.79 57.343 48.632C57.333 48.474 57.115 48.209 57.116 47.927C57.116 47.779 57.231 47.671 57.232 47.563C57.233 47.428 57.122 47.15 57.098 46.993C57.048 46.669 57.064 46.343 57.061 46.015C57.051 44.918 57.02 43.795 57.034 42.7C57.036 42.535 57.084 42.315 57.082 42.2C57.08 42.127 57.032 42.041 57.032 41.942C57.032 41.804 57.104 41.698 57.112 41.598C57.118 41.523 57.082 41.461 57.097 41.358C57.113 41.254 57.22 41.147 57.225 41.094C57.23 41.047 57.085 40.838 57.092 40.681C57.1 40.517 57.292 40.283 57.287 40.201C57.283 40.123 57.169 39.907 57.104 39.849C57.038 40.085 57.058 40.383 56.999 40.614C56.939 40.848 56.589 41.102 56.401 41.253C56.216 41.402 55.871 41.592 55.723 41.74C55.609 41.855 55.453 42.178 55.343 42.33C54.6572 43.2898 53.9135 44.2068 53.116 45.076C52.137 46.127 50.97 46.993 49.828 47.856L49.843 47.927L50.248 48.053C50.286 48.066 50.26 48.11 50.236 48.125C50.171 48.165 49.698 47.852 49.602 48.025C49.562 48.114 50 48.376 50.08 48.448C50.252 48.602 50.502 48.85 50.237 49.053C49.834 49.361 49.611 48.606 49.45 48.391C49.474 48.946 49.505 49.384 49.83 49.851C49.983 50.071 50.19 50.199 50.343 50.434C50.52 50.704 50.697 51.074 50.623 51.406C50.571 51.637 50.04 51.781 49.833 51.781C49.693 51.781 49.534 51.713 49.433 51.709C49.323 51.704 49.123 51.773 49.03 51.634C48.978 51.554 49.012 51.39 48.873 51.594C48.824 51.515 48.646 51.446 48.604 51.386C48.544 51.302 48.606 51.105 48.424 51.068L48.339 51.145C48.275 51.048 48.044 50.895 48.001 50.807C47.969 50.745 48.063 50.703 48.031 50.64C47.963 50.5 47.841 50.556 47.804 50.53C47.756 50.495 47.701 50.328 47.651 50.26C47.514 50.075 47.134 49.767 47.047 49.57C47.011 49.488 47.085 49.38 47.061 49.29C47.041 49.269 46.847 49.38 46.798 49.37C46.764 49.362 46.742 49.304 46.705 49.294C46.663 49.284 46.616 49.325 46.555 49.308C46.483 49.288 46.443 49.183 46.359 49.178L46.431 49.01C46.334 48.892 46.303 48.878 46.162 48.94L46.035 48.813L46.094 48.645C45.985 48.46 45.923 48.63 45.824 48.548C45.655 48.408 45.778 48.292 45.698 48.195C45.643 48.127 45.584 48.152 45.531 48.109C45.448 48.043 45.367 47.725 45.313 47.695C45.279 47.675 45.221 47.699 45.163 47.663C45.1157 47.615 45.0757 47.5604 45.044 47.501C45.038 47.46 45.084 47.426 45.087 47.39C45.1 47.272 44.997 47.209 45.089 47.022C45.194 46.81 46.003 46.247 46.238 46.092C46.538 45.894 46.873 45.695 47.201 45.552C47.098 45.25 47.285 45.032 47.497 44.852C47.562 44.796 47.674 44.758 47.72 44.708C47.79 44.634 47.81 44.522 47.919 44.429C48.119 44.257 48.193 44.36 48.383 44.304C48.506 44.267 48.66 44.09 48.8 44.06C48.673 43.511 48.918 43.075 49.24 42.66C49.622 42.172 50.08 41.853 50.517 41.437C51.072 40.907 51.629 40.36 52.119 39.779C52.267 39.602 52.514 39.427 52.71 39.303C52.809 39.24 53.14 39.093 53.185 39.047C53.245 38.984 53.248 38.817 53.297 38.744C53.325 38.702 53.398 38.694 53.43 38.66C53.485 38.6 53.504 38.479 53.592 38.386C53.738 38.231 53.964 38.136 54.156 38.051L54.282 36.771C53.9051 35.496 53.7715 34.1614 53.888 32.837C53.899 32.702 53.971 32.48 53.963 32.363C53.956 32.272 53.876 32.133 53.863 32.019C53.845 31.866 53.871 31.699 53.859 31.545C53.824 31.363 53.249 31.035 53.114 30.885C53.023 30.785 52.779 30.35 52.764 30.224C52.726 29.892 52.806 29.531 52.792 29.198C52.252 29.312 51.675 29.334 51.141 29.178C50.664 29.038 50.179 28.813 49.691 28.688L48.085 27.513C47.97 27.313 47.977 27.06 48.016 26.837C48.002 26.82 47.778 26.985 47.75 27.007C47.36 27.307 46.974 27.773 46.893 28.27C46.639 28.166 46.447 27.828 46.534 27.56C46.661 27.17 47.119 26.863 47.484 26.712C47.59 26.668 48.075 26.539 48.101 26.486C47.6323 26.2092 47.2636 25.7908 47.048 25.291C46.996 25.166 46.865 24.749 46.865 24.631V23.943H46.696L46.724 23.408L46.931 23.405L46.974 23.363C47.038 22.608 47.179 21.833 47.426 21.118C47.475 20.978 47.623 20.713 47.646 20.606C47.687 20.399 47.654 20.039 47.68 19.798C47.75 19.146 47.958 18.418 48.46 17.972C48.152 17.443 47.94 16.696 48.342 16.161C48.627 15.781 49 15.327 49.43 15.114C49.525 15.066 49.651 15.055 49.74 15.002C49.918 14.897 49.99 14.673 50.292 14.753C50.283 14.635 50.322 14.487 50.44 14.438C50.489 14.417 50.62 14.421 50.625 14.375C50.447 14.082 50.91 14.075 51.107 14.079C50.993 13.839 50.846 13.643 50.784 13.377C50.398 11.729 51.217 10.76 52.3 9.694C52.949 9.056 53.647 8.417 54.534 8.135L54.956 8.037C54.956 8.037 55.433 7.954 55.742 8.037ZM44.18 50.418L42.135 50.417C40.9955 50.4167 39.9028 49.9639 39.0972 49.1581C38.2916 48.3523 37.839 47.2595 37.839 46.12L37.84 18.621C37.84 18.0566 37.9512 17.4978 38.1672 16.9764C38.3832 16.455 38.6998 15.9812 39.0989 15.5822C39.498 15.1832 39.9718 14.8667 40.4933 14.6508C41.0148 14.4349 41.5736 14.3239 42.138 14.324H44.18C44.2129 14.324 44.2444 14.3109 44.2677 14.2877C44.2909 14.2644 44.304 14.2329 44.304 14.2V13.414C44.3041 13.3976 44.301 13.3814 44.2948 13.3662C44.2887 13.3511 44.2796 13.3373 44.268 13.3257C44.2565 13.3141 44.2428 13.3048 44.2277 13.2985C44.2126 13.2922 44.1964 13.289 44.18 13.289H24.115C24.0818 13.289 24.0501 13.3022 24.0266 13.3256C24.0032 13.3491 23.99 13.3808 23.99 13.414V14.173C23.99 14.242 24.046 14.297 24.115 14.297H26.961C27.5272 14.297 28.0879 14.4089 28.6107 14.6263C29.1336 14.8437 29.6083 15.1622 30.0076 15.5637C30.4069 15.9651 30.7229 16.4416 30.9375 16.9655C31.1521 17.4895 31.261 18.0508 31.258 18.617L31.192 31.692H13.944L14.011 18.476C14.0166 17.3731 14.4585 16.3172 15.2403 15.5392C16.0221 14.7611 17.0801 14.3243 18.183 14.324H20.313V13.29H0V14.298H3.095C3.64478 14.298 4.18914 14.4066 4.6968 14.6176C5.20447 14.8287 5.66543 15.1379 6.05321 15.5277C6.44098 15.9174 6.74792 16.3799 6.9564 16.8886C7.16487 17.3973 7.27077 17.9422 7.268 18.492L7.128 46.265C7.12245 47.3681 6.68035 48.4241 5.89836 49.2022C5.11637 49.9802 4.05812 50.417 2.955 50.417H0V51.459H20.314V50.419L18.041 50.418C17.4913 50.4181 16.947 50.3096 16.4393 50.0986C15.9317 49.8876 15.4708 49.5783 15.0832 49.1885C14.6956 48.7987 14.3888 48.3362 14.1806 47.8274C13.9724 47.3186 13.8668 46.7737 13.87 46.224L13.938 32.77H31.187L31.119 46.14C31.1129 47.2759 30.6576 48.3633 29.8525 49.1646C29.0474 49.966 27.9579 50.4162 26.822 50.417H24.115C24.0986 50.4169 24.0824 50.42 24.0672 50.4262C24.0521 50.4323 24.0383 50.4414 24.0267 50.453C24.0151 50.4645 24.0058 50.4782 23.9995 50.4933C23.9932 50.5084 23.99 50.5246 23.99 50.541V51.334C23.99 51.403 24.046 51.459 24.115 51.459H44.18C44.2128 51.4587 44.2442 51.4456 44.2674 51.4224C44.2906 51.3992 44.3037 51.3678 44.304 51.335V50.543C44.304 50.5101 44.2909 50.4786 44.2677 50.4553C44.2444 50.4321 44.2129 50.418 44.18 50.418ZM292.11 27.521V28.349H294.166C295.099 28.349 295.752 29.269 295.445 30.15L290.283 44.935L283.293 30.125C283.204 29.9364 283.164 29.7284 283.177 29.5203C283.19 29.3122 283.255 29.1108 283.367 28.9346C283.479 28.7585 283.633 28.6135 283.816 28.5131C283.998 28.4126 284.203 28.3599 284.412 28.36H286.254V27.522H273.464V28.428C274.611 28.42 275.901 28.336 276.739 29.145C276.929 29.328 277.072 29.555 277.183 29.795L287.813 52.716C287.856 53.031 287.51 53.706 287.38 54.041C286.265 56.938 284.442 62.195 281.624 63.687C281.192 63.917 279.368 64.581 278.96 64.152C279.542 63.8132 280.002 63.2982 280.273 62.6813C280.544 62.0644 280.612 61.3775 280.467 60.7195C280.322 60.0615 279.972 59.4664 279.468 59.02C278.963 58.5736 278.33 58.299 277.659 58.2357C276.988 58.1724 276.315 58.3236 275.736 58.6677C275.156 59.0117 274.701 59.5308 274.436 60.1501C274.171 60.7694 274.109 61.4569 274.26 62.1136C274.41 62.7703 274.765 63.3622 275.274 63.804C276.884 65.632 280.502 65.523 282.702 64.116C284.438 63.006 285.711 60.37 286.566 58.532C290.09 50.952 292.942 42.835 296.323 35.16C297.605 32.25 298.966 28.272 302.858 28.427V27.522L292.11 27.521Z" fill="white"/>
</svg>
