<svg xmlns="http://www.w3.org/2000/svg" fill="none" viewBox="0 0 402 1243"><g fill="currentColor" clip-path="url(#a)" opacity=".7"><path d="M387.254 1214.89c-1.447.07-2.849.05-4.532 0-12.354-.31-19.912-7.87-20.207-20.22-.044-2.19-.428-6.22-2.406-8.52-3.749-4.38-10.096-6.81-16.99-6.51-6.45.28-12.133 3-15.189 7.27-3.896 5.44-8.767 7.55-14.893 6.45-2.613-.47-5.594-2.34-7.1-4.45-.62-.88.65-4.17 2.096-6.14 1.668-2.28 3.587-4.44 5.447-6.53 1.432-1.62 2.908-3.28 4.281-5.01.634-.81 1.298-1.62 1.963-2.42 4.62-5.63 9.402-11.45 8-19.99-.753-4.52-1.461-9.05-2.17-13.57-1.683-10.58-3.41-21.53-5.535-32.2-.886-4.4-1.122-8.96-1.358-13.37-.399-7.55-.812-15.35-4.399-22.73-4.221-8.7-2.642-11.56 5.019-16.87 3.719-2.58 7.734-4.85 11.631-7.04 2.14-1.21 4.34-2.45 6.48-3.74 4.325-2.6 9.226-5.54 11.145-12.32 1.107-3.93 3.335-9.31 9.948-10.68 11.691-2.43 17.905-11.99 22.791-20.766 1.623-2.91 1.609-8.184-.03-11.516-.62-1.281-1.491-2.105-2.553-2.452-2.2-.714-4.827.682-7.145 1.913l-.398.208c-.428.232-.93.374-1.447.524q-.377.11-.752.234c-.399.134-.812.287-1.226.444-3.158 1.19-5.299 1.753-6.361-1.088-.739-1.969.516-5.594 2.096-7.823 1.254-1.766 2.907-3.309 4.516-4.803 1.506-1.41 3.071-2.867 4.325-4.533 1.506-1.999 2.126-3.938 1.845-5.766-.28-1.752-1.387-3.325-3.306-4.675-1.24-.87-2.376-1.964-3.484-3.018-1.077-1.033-2.184-2.099-3.409-2.983-4.089-2.944-5.624-7.329-4.118-11.731 1.21-3.547 4.723-6.713 7.276-9.024 4.783-4.33 9.757-6.08 13.979-4.938 4.266 1.152 7.602 5.149 9.668 11.558 1.181 3.662 2.583 7.314 3.941 10.845.945 2.453 1.919 4.99 2.819 7.507.679 1.937 1.713 3.326 3.012 4.146v-.942c-.96-.754-1.757-1.899-2.303-3.461-.9-2.526-1.875-5.067-2.819-7.526-1.358-3.521-2.761-7.162-3.927-10.804-2.155-6.667-5.668-10.839-10.185-12.058-4.502-1.216-9.712.598-14.686 5.104-2.628 2.368-6.215 5.611-7.484 9.345-1.624 4.737.015 9.449 4.384 12.599 1.181.854 2.273 1.901 3.336 2.915 1.122 1.076 2.273 2.187 3.557 3.092 1.757 1.225 2.76 2.629 2.997 4.167.25 1.614-.31 3.358-1.698 5.187-1.21 1.612-2.76 3.047-4.236 4.434-1.639 1.519-3.321 3.09-4.62 4.92-1.462 2.062-3.1 6.073-2.185 8.535 1.402 3.77 4.694 2.53 7.336 1.535.413-.155.812-.307 1.196-.439.236-.079.487-.15.723-.221.546-.154 1.092-.313 1.594-.582l.399-.209c2.184-1.16 4.664-2.477 6.554-1.861.885.284 1.564.96 2.11 2.065 1.521 3.082 1.55 8.128.059 10.801-4.826 8.631-10.908 18.031-22.288 20.391-7.012 1.45-9.373 7.1-10.539 11.22-1.698 6.02-5.536 8.72-10.791 11.88-2.125 1.28-4.339 2.52-6.465 3.72-3.911 2.2-7.956 4.48-11.69 7.08-7.823 5.42-9.683 8.76-5.27 17.84 3.513 7.24 3.927 14.96 4.325 22.43.236 4.44.472 9.03 1.358 13.48 2.14 10.66 3.867 21.59 5.535 32.17.709 4.53 1.432 9.06 2.17 13.58 1.358 8.2-3.321 13.88-7.838 19.37-.664.81-1.328 1.62-1.963 2.44-1.358 1.7-2.834 3.36-4.266 4.97-1.86 2.1-3.793 4.28-5.476 6.58-1.299 1.77-3.1 5.64-2.111 7.05 1.639 2.29 4.753 4.25 7.587 4.75 6.436 1.16 11.558-1.05 15.647-6.75 2.922-4.08 8.384-6.68 14.598-6.96 6.672-.29 12.797 2.05 16.384 6.25 1.816 2.12 2.17 5.95 2.229 8.04.31 12.81 8.133 20.64 20.946 20.97 1.697.04 3.114.07 4.575-.01 3.75-.2 6.775.87 8.724 3.08 2.037 2.3 2.819 5.65 2.185 9.45-.709 4.32-1.728 8.67-2.702 12.87-.162.65-.31 1.31-.457 1.97h.782c.133-.6.266-1.21.413-1.8.975-4.21 1.993-8.57 2.716-12.92.665-4.02-.177-7.6-2.361-10.07-2.126-2.39-5.359-3.55-9.329-3.34m-82.911-989.023c-2.789 2.028-5.712 3.978-8.546 5.863-3.439 2.295-6.997 4.67-10.347 7.211-11.381 8.612-14.097 24.524-6.038 35.47 1.137 1.543 2.082 3.443 2.997 5.281 2.317 4.709 4.738 9.575 10.805 9.983 3.011.2 5.948.302 8.827.302 7.129 0 13.83-.617 20.015-1.842 12.252-2.427 21.551-10.998 28.282-18.195 6.052-6.479 12.635-10.191 19.558-11.034 3.468-.425 7.129.043 10.657.494 2.701.346 5.491.706 8.236.672 3.897-.044 7.824-.182 11.735-.36v-.763c-3.911.178-7.838.317-11.749.36-2.672.034-5.447-.323-8.133-.666-3.573-.457-7.263-.931-10.835-.496-7.1.867-13.845 4.659-20.015 11.269-6.657 7.113-15.839 15.587-27.883 17.971-8.621 1.709-18.259 2.223-28.651 1.526-5.624-.378-7.838-4.837-10.17-9.561-.93-1.867-1.889-3.798-3.07-5.396-7.809-10.609-5.167-26.044 5.889-34.406 3.336-2.527 6.879-4.894 10.318-7.184 2.834-1.889 5.757-3.842 8.561-5.881 2.879-2.094 4.428-4.379 4.606-6.788.162-2.238-.886-4.467-3.115-6.625-7.056-6.851-14.702-13.11-21.255-18.326-1.506-1.196-3.602-1.617-5.624-2.023a40 40 0 0 1-2.022-.437c-5.58-1.414-9.536-2.909-10.687-5.607-.974-2.235-.148-5.506 2.657-10.604 1.328-2.399 3.247-4.541 5.107-6.615l.871-.969c6.79-7.654 7.07-11.45 1.52-20.314-.546-.877-1.166-1.733-1.756-2.562-.975-1.372-1.993-2.787-2.716-4.299-4.679-9.799-2.775-18.467 5.077-23.187 2.067-1.234 4.045-2.669 5.949-4.057 2.007-1.459 4.089-2.969 6.244-4.234 10.17-5.946 23.071-5.341 32.134 1.504 4.192 3.166 8.295 6.598 12.266 9.917 2.686 2.247 5.476 4.572 8.251 6.796 10.51 8.39 22.924 13.248 34.939 17.946 6.819 2.669 13.875 5.431 20.488 8.808.221.106.442.081.62.06.073-.008.177-.02.221-.011.65.165 1.314.33 1.963.494v-.785c-.59-.151-1.195-.301-1.786-.449a1.3 1.3 0 0 0-.487-.007c-.059.007-.177.017-.177.017-6.657-3.394-13.728-6.162-20.577-8.838-11.941-4.678-24.31-9.513-34.731-17.833-2.776-2.22-5.55-4.54-8.237-6.785-3.985-3.324-8.104-6.762-12.296-9.94-9.299-7.028-22.554-7.652-32.96-1.554-2.2 1.284-4.296 2.804-6.318 4.276-1.904 1.379-3.852 2.801-5.889 4.019-8.119 4.87-10.171 14.132-5.373 24.175.752 1.569 1.786 3.014 2.775 4.412.59.82 1.195 1.667 1.727 2.524 5.432 8.663 5.181 11.926-1.447 19.397l-.856.969c-1.889 2.105-3.838 4.282-5.21 6.754-2.967 5.398-3.779 8.771-2.702 11.279 1.299 2.993 5.255 4.531 11.218 6.043.65.167 1.344.307 2.037.446 1.949.388 3.956.791 5.314 1.871 6.539 5.206 14.171 11.449 21.197 18.279 2.051 1.992 3.026 4.017 2.893 6.02-.163 2.175-1.609 4.269-4.296 6.225"/><path d="M327.075 238.769c-5.86 3.851-11.956 7.18-18.126 9.894-9.89 4.347-11.661 7.769-8.621 16.641 1.432 4.185 4.001 7.189 7.248 8.46q1.837.717 3.897.717c2.539 0 5.314-.818 8.31-2.45 5.934-3.237 11.277-7.767 16.429-12.145 2.627-2.222 5.328-4.517 8.089-6.616 2.022-1.551 4.221-2.974 6.347-4.349 1.638-1.067 3.35-2.172 4.974-3.334 4.945-3.544 10.052-4.282 15.602-2.255 9.816 3.582 19.617 3.693 29.3 2.445v-.77c-9.624 1.247-19.337 1.148-29.034-2.393-5.801-2.118-11.145-1.349-16.311 2.35-1.609 1.151-3.306 2.253-4.945 3.317-2.14 1.381-4.339 2.813-6.391 4.382-2.775 2.11-5.491 4.412-8.118 6.638-5.137 4.355-10.436 8.858-16.311 12.06-4.399 2.401-8.296 2.971-11.558 1.691-3.04-1.188-5.461-4.028-6.819-7.996-2.878-8.441-1.269-11.522 8.222-15.693 6.199-2.731 12.34-6.08 18.229-9.955 6.259-4.111 8.473-11.463 5.403-17.878-6.628-13.816-10.333-28.016-11.337-43.41-.177-2.869-.797-5.748-1.387-8.53-.62-2.955-1.27-6.012-1.403-9.026-.191-4.49.532-7.28 2.288-8.778 1.846-1.583 5.034-1.843 10.023-.817.546.108 1.078.223 1.624.338 4.059.861 8.251 1.751 12.133 1.047 11.351-2.061 20.842 1.77 29.403 6.216 5.004 2.595 10.377 4.911 15.971 6.881l1.668.582c2.982 1.042 5.905 2.074 8.65 3.367v-.829c-2.745-1.269-5.594-2.28-8.399-3.26l-1.668-.58c-5.564-1.96-10.908-4.26-15.867-6.84-8.694-4.507-18.318-8.389-29.906-6.287-3.719.676-7.852-.199-11.838-1.044-.531-.115-1.077-.23-1.609-.339-5.328-1.091-8.62-.788-10.687.983-1.933 1.665-2.745 4.65-2.538 9.392.133 3.078.782 6.167 1.417 9.153.59 2.758 1.195 5.608 1.372 8.421 1.004 15.493 4.739 29.786 11.396 43.691 2.952 6.156.9 12.952-5.122 16.908m20.015 375.467a.386.386 0 0 0 .428-.329.38.38 0 0 0-.325-.427 74 74 0 0 0-1.476-.183.387.387 0 0 0-.428.334c-.03.209.133.398.339.423q.73.087 1.462.182m-14.805-1.369.044.002a.37.37 0 0 0 .369-.346.375.375 0 0 0-.339-.416l-1.477-.147a.38.38 0 0 0-.413.344.374.374 0 0 0 .34.416zm5.359.457q1.771.138 3.542.289l.044.002a.37.37 0 0 0 .369-.348.38.38 0 0 0-.339-.412 351 351 0 0 0-3.557-.291l-.901-.072a.37.37 0 0 0-.398.349c-.03.21.133.395.339.411zm24.206 2.843.044.003a.39.39 0 0 0 .384-.334.38.38 0 0 0-.325-.427l-4.428-.566a.387.387 0 0 0-.428.33c-.03.208.118.4.325.427zm-8.856-1.137q.023.004.044.003c.192 0 .355-.14.384-.332a.38.38 0 0 0-.325-.428l-1.476-.193a.385.385 0 0 0-.428.329.38.38 0 0 0 .325.428zm-37.196 98.845a.38.38 0 0 0-.088.533l.885 1.208a.38.38 0 0 0 .31.158.4.4 0 0 0 .222-.073.38.38 0 0 0 .073-.534l-.871-1.211a.38.38 0 0 0-.531-.081m9.137-101.2q.73-.063 1.461-.092a.37.37 0 0 0 .369-.395c-.015-.21-.162-.389-.398-.368a34 34 0 0 0-1.491.094.383.383 0 0 0-.354.414.384.384 0 0 0 .383.348zm-5.683 106.074a.39.39 0 0 0-.103.53c.28.412.546.828.811 1.244a.38.38 0 0 0 .325.177.4.4 0 0 0 .207-.06.393.393 0 0 0 .118-.527c-.281-.424-.546-.843-.827-1.259a.383.383 0 0 0-.531-.105M316.3 614.891c.059 0 .103-.01.162-.034a24.5 24.5 0 0 1 4.133-1.452.39.39 0 0 0 .28-.463c-.059-.206-.251-.33-.457-.278-1.476.376-2.908.88-4.281 1.498-.177.087-.266.313-.177.505.059.14.192.224.34.224m81.656 8.096c-.074.2.044.417.236.486.782.272 1.55.565 2.332.85v-.81c-.694-.254-1.387-.518-2.081-.76a.38.38 0 0 0-.487.234m-30.201-6.038a.2.2 0 0 0 .044.005.39.39 0 0 0 .384-.331.383.383 0 0 0-.325-.43l-1.476-.2a.383.383 0 0 0-.428.327.38.38 0 0 0 .325.428zm-62.158 78.764a.39.39 0 0 0-.236.482c.163.476.325.953.502 1.425.044.155.192.25.354.25a.4.4 0 0 0 .133-.024.385.385 0 0 0 .222-.49 24 24 0 0 1-.487-1.401.387.387 0 0 0-.488-.242m88.359-73.625a.4.4 0 0 0 .118.017c.162 0 .31-.107.354-.271a.377.377 0 0 0-.251-.476 62 62 0 0 0-1.432-.424.381.381 0 1 0-.206.735q.708.204 1.417.419m-93.879 17.227a.374.374 0 0 0-.413.335c-.059.499-.104.997-.148 1.498a.373.373 0 0 0 .34.415l.029.001a.386.386 0 0 0 .384-.348c.044-.495.089-.988.148-1.481a.38.38 0 0 0-.34-.42m88.152-18.76q.043.01.088.01a.38.38 0 0 0 .369-.296.38.38 0 0 0-.28-.458q-.731-.168-1.462-.329a.38.38 0 0 0-.443.292.374.374 0 0 0 .281.453c.487.107.974.216 1.447.328m-14.599-2.749.059.003a.38.38 0 0 0 .383-.323.39.39 0 0 0-.324-.435l-1.476-.223a.386.386 0 0 0-.428.322.387.387 0 0 0 .324.434zm8.797 1.516a.3.3 0 0 0 .074.007c.177 0 .325-.127.369-.31a.39.39 0 0 0-.31-.445 195 195 0 0 0-4.399-.805.376.376 0 0 0-.428.312.377.377 0 0 0 .31.441q2.193.376 4.384.8m-45.256 117.79a.37.37 0 0 0-.369.386c0 .21.162.377.369.377h.014c1.314-.018 2.776-.223 4.488-.626a.38.38 0 0 0 .28-.459.38.38 0 0 0-.457-.284c-1.654.39-3.071.588-4.325.606m-36.74-74.619.045-.002a.38.38 0 0 0 .339-.412l-.118-1.493c-.029-.21-.221-.371-.413-.347a.39.39 0 0 0-.354.411l.132 1.493c.015.199.178.35.369.35m.384 8.607a.375.375 0 0 0 .384.345l.03-.003a.374.374 0 0 0 .339-.416c-.088-.99-.177-1.982-.251-2.973l-.118-1.496a.395.395 0 0 0-.413-.35.39.39 0 0 0-.354.41l.118 1.494q.11 1.495.265 2.989m-1.55-25.441a80 80 0 0 0-.015 1.839q0 1.332.045 2.67c0 .208.162.372.369.372h.015a.387.387 0 0 0 .369-.391q-.045-1.33-.045-2.651c0-.608.015-1.216.03-1.822a.385.385 0 0 0-.369-.391.41.41 0 0 0-.399.374m.709 10.863.015-.001a.383.383 0 0 0 .354-.406l-.089-1.492a.38.38 0 0 0-.413-.357.38.38 0 0 0-.354.403c.029.498.073.997.103 1.498a.38.38 0 0 0 .384.355m1.933 20.869q.022 0 .045-.004a.383.383 0 0 0 .324-.431c-.059-.492-.132-.986-.191-1.479a.384.384 0 0 0-.428-.329.38.38 0 0 0-.325.428c.059.496.133.992.192 1.488.029.19.192.327.383.327m2.672 14.728a.384.384 0 0 0 .369-.464c-.325-1.459-.62-2.922-.915-4.389a.375.375 0 0 0-.443-.3.374.374 0 0 0-.295.449c.28 1.471.59 2.94.9 4.404a.4.4 0 0 0 .384.3m-1.741-8.811a.38.38 0 0 0 .369-.449l-.251-1.473a.37.37 0 0 0-.428-.313.374.374 0 0 0-.31.44l.251 1.477a.38.38 0 0 0 .369.318m1.83-58.121c-.177-.106-.399-.046-.517.137a34 34 0 0 0-1.993 4.077.39.39 0 0 0 .207.498.386.386 0 0 0 .502-.208 31 31 0 0 1 1.948-3.983.377.377 0 0 0-.147-.521m60.902 109.421c-.103.187-.014.418.163.512q.664.327 1.284.701a.4.4 0 0 0 .192.052.36.36 0 0 0 .325-.189.376.376 0 0 0-.133-.523 19 19 0 0 0-1.329-.724.374.374 0 0 0-.502.171m-34.362 1.141a.38.38 0 0 0 .118.528c.428.282.886.529 1.343.736a.4.4 0 0 0 .163.032c.147 0 .28-.084.339-.227a.38.38 0 0 0-.192-.504 10 10 0 0 1-1.254-.68.37.37 0 0 0-.517.115m-22.983-115.357a.375.375 0 0 0-.531.03q-.51.564-.974 1.156a.38.38 0 0 0 .044.535.4.4 0 0 0 .251.086.36.36 0 0 0 .28-.142c.31-.382.635-.758.96-1.126a.37.37 0 0 0-.03-.539m37.522 114.876a.394.394 0 0 0-.236.483.395.395 0 0 0 .487.242c.458-.154.93-.314 1.403-.486a.37.37 0 0 0 .236-.484.366.366 0 0 0-.473-.236q-.73.253-1.417.481m-18.672-3.794a.395.395 0 0 0-.074.534c.325.419.635.814.945 1.185a.374.374 0 0 0 .532.046.385.385 0 0 0 .044-.539 40 40 0 0 1-.915-1.152c-.118-.169-.355-.201-.532-.074m24.281 1.773a.37.37 0 0 0-.236.486.36.36 0 0 0 .354.257.3.3 0 0 0 .118-.021c.473-.161.945-.3 1.403-.419a.39.39 0 0 0 .28-.464.39.39 0 0 0-.472-.276c-.473.126-.96.27-1.447.437m-28.99-9.392a.377.377 0 0 0-.147.521 94 94 0 0 0 2.273 3.884.38.38 0 0 0 .325.181.377.377 0 0 0 .31-.583 144 144 0 0 1-2.244-3.858.38.38 0 0 0-.517-.145m-21.698-88.222a.39.39 0 0 0 .457-.292c.104-.48.222-.96.34-1.44a.384.384 0 0 0-.266-.466.39.39 0 0 0-.472.27l-.354 1.473c-.03.207.088.409.295.455m56.651 96.609a.385.385 0 0 0-.384.381c0 .211.177.382.384.382 1.432.005 2.893.195 4.325.563a.377.377 0 0 0 .457-.275.38.38 0 0 0-.265-.465 18.6 18.6 0 0 0-4.517-.586m-46.762-25.201a94 94 0 0 0 2.524 3.731c.074.105.192.16.31.16a.381.381 0 0 0 .31-.604 77 77 0 0 1-2.494-3.698.39.39 0 0 0-.532-.116.39.39 0 0 0-.118.527m75.295 45.019a.4.4 0 0 0-.015.54q.51.542 1.019 1.089a.37.37 0 0 0 .531.021.384.384 0 0 0 .029-.539q-.508-.55-1.018-1.098a.39.39 0 0 0-.546-.013m4 4.441a.385.385 0 0 0-.044.539 97 97 0 0 1 2.79 3.482.36.36 0 0 0 .295.15.4.4 0 0 0 .236-.078.38.38 0 0 0 .059-.534 83 83 0 0 0-2.804-3.513.374.374 0 0 0-.532-.046m-8.207-8.677a.384.384 0 0 0 .015.54q.53.517 1.063 1.042a.37.37 0 0 0 .265.109.36.36 0 0 0 .266-.114.384.384 0 0 0 0-.54l-1.063-1.048a.39.39 0 0 0-.546.011m-10.642-9.126.738.639a.4.4 0 0 0 .251.093.37.37 0 0 0 .281-.131.384.384 0 0 0-.03-.539l-.738-.64-.399-.34a.375.375 0 0 0-.531.05.384.384 0 0 0 .044.538c.133.109.251.218.384.33m4.059 3.054a.384.384 0 0 0 .045.539c1.107.99 2.214 1.991 3.306 3.001a.37.37 0 0 0 .531-.024.384.384 0 0 0-.014-.539 505 505 0 0 0-3.322-3.009.39.39 0 0 0-.546.032M311.458 617.91c.384-.303.782-.595 1.181-.875a.383.383 0 0 0 .103-.532c-.132-.173-.369-.217-.531-.096-.413.29-.827.591-1.21.902a.37.37 0 0 0-.074.536.38.38 0 0 0 .295.146.35.35 0 0 0 .236-.081m83.826 145.71a.38.38 0 0 0-.103.53c.281.409.546.824.827 1.242a.37.37 0 0 0 .516.112.393.393 0 0 0 .118-.529c-.28-.42-.546-.837-.826-1.253a.38.38 0 0 0-.532-.102m-86.985-60.489c.074.13.207.203.34.203a.4.4 0 0 0 .177-.042.387.387 0 0 0 .162-.517 25 25 0 0 1-.664-1.324.39.39 0 0 0-.517-.179.38.38 0 0 0-.162.511c.206.453.443.902.664 1.348m90.144 65.563a.374.374 0 0 0-.148.518q.354.649.708 1.308a.36.36 0 0 0 .325.203.3.3 0 0 0 .177-.047.373.373 0 0 0 .163-.515l-.709-1.321a.377.377 0 0 0-.516-.146M202.922.164a41 41 0 0 0-.177 4.062c.044 8.005 2.288 14.935 5.978 18.537 4.975 4.835 10.318 6.36 16.34 4.654a461 461 0 0 1 14.392-3.817c4.753-1.18 9.889-.365 14.126 2.239 3.749 2.31 6.317 5.76 7.247 9.714.724 3.104.443 7.078-.738 10.372-2.243 6.238-.339 11.254 2.392 17.163.354.764.738 1.524 1.121 2.287 2.067 4.073 4.015 7.92 1.344 12.674-.251.449-.133 1.126 0 1.615.28.952.915 2.115 1.623 2.497 1.255.678 3.956.938 4.812-.03 4.443-4.988 9.241-3.776 14.805-2.377l.886.226c27.337 6.798 47.869 19.75 62.762 39.598 1.226 1.621 3.1 3.943 5.418 5.395 12 7.528 25.757 10.616 38.82 12.833a9.6 9.6 0 0 0 1.594.129c1.58 0 3.218-.349 4.857-.829v-.798c-2.185.652-4.34 1.08-6.318.745-13.004-2.202-26.658-5.271-38.555-12.728-2.199-1.384-4.03-3.635-5.21-5.207-15.012-19.992-35.677-33.038-63.176-39.88l-.901-.224c-5.55-1.4-10.804-2.723-15.543 2.609-.487.549-2.775.47-3.882-.132-.442-.239-1.003-1.153-1.254-2.038-.163-.564-.148-.907-.074-1.03 2.863-5.11.738-9.32-1.329-13.395-.383-.752-.767-1.505-1.122-2.26-2.642-5.749-4.501-10.62-2.361-16.584 1.225-3.426 1.52-7.565.767-10.805-.974-4.154-3.66-7.773-7.587-10.191-4.413-2.709-9.771-3.557-14.701-2.33a451 451 0 0 0-14.421 3.824c-5.816 1.648-10.776.229-15.602-4.468-4.311-4.19-6.377-13.013-5.55-22.05zM392.288 730.19c1.269.806 2.583 1.64 3.897 2.352 1.24.667 2.465 1.387 3.661 2.084.236.131.457.261.678.393v-.882c-.103-.057-.191-.115-.295-.171a130 130 0 0 0-3.675-2.096c-1.299-.699-2.613-1.526-3.868-2.325-2.922-1.852-5.948-3.765-9.181-4.341-5.963-1.058-12.103-1.589-18.052-2.105-4.281-.369-8.694-.751-13.004-1.325-2.45-.329-7.07-1.253-10.347-3.757-10.864-8.273-17.802-18.206-20.075-28.72-3.646-16.852-5.137-34.379-6.229-49.485-.384-5.23 1.107-9.522 4.31-12.414 3.661-3.303 9.167-4.479 15.543-3.31 8.06 1.479 16.326 2.566 24.311 3.617 4.458.588 9.078 1.193 13.595 1.862 1.121.165 2.243.323 3.35.481 8.03 1.138 16.237 2.306 23.617 5.867v-.845c-7.395-3.485-15.543-4.647-23.499-5.778-1.121-.158-2.243-.316-3.35-.479-4.532-.671-9.152-1.277-13.61-1.863-7.985-1.051-16.236-2.138-24.281-3.614-6.598-1.212-12.355.03-16.178 3.494-3.395 3.056-4.959 7.565-4.561 13.038 1.092 15.131 2.583 32.692 6.244 49.592 2.317 10.695 9.358 20.78 20.355 29.166 3.41 2.609 8.177 3.566 10.702 3.904 4.324.577 8.767.961 13.048 1.331 5.919.512 12.045 1.042 17.979 2.095 3.085.549 6.051 2.422 8.915 4.234M274.6 3.693c4.546 5.964 8.827 11.846 11.13 18.239 2.642 7.281 7.262 12.303 11.764 16.822 2.849 2.846 5.668 5.713 8.487 8.578 5.639 5.727 11.469 11.652 17.359 17.322.93.89 1.845 1.787 2.775 2.686 5.343 5.21 10.879 10.597 17.108 14.724 7.144 4.735 12.384 9.859 16.472 16.119 3.573 5.457 6.687 7.557 10.451 7.557 2.952 0 6.303-1.302 10.583-3.295 9.846-4.581 15.544-11.573 19.795-19.64v-1.68c-4.266 8.5-9.934 15.896-20.119 20.628-10.2 4.752-14.303 4.822-20.075-3.99-4.148-6.35-9.461-11.541-16.694-16.337-6.17-4.087-11.676-9.45-17.005-14.635-.915-.899-1.845-1.796-2.76-2.688-5.889-5.664-11.72-11.583-17.358-17.308-2.82-2.867-5.639-5.733-8.488-8.58-4.443-4.46-9.004-9.41-11.572-16.545-2.362-6.494-6.672-12.428-11.248-18.442a83 83 0 0 1-2.214-3.064h-.945a89 89 0 0 0 2.554 3.53M400.524 1170.48c-1.992-.89-3.985-1.48-5.682-1.05-10.362 2.65-18.304-1.54-23.618-12.46-5.033-10.31-10.849-16.06-19.439-19.22-3.661-1.35-7.13-5.28-9.506-10.79-2.761-6.41-3.381-13.31-1.58-17.56.532-1.26 1.063-2.52 1.595-3.79 4.014-9.53 8.147-19.38 13.727-28.07 5.919-9.23 8.517-18.57 8.192-29.41-.251-7.91 3.366-13.83 11.041-18.08l.93-.51c4.605-2.53 9.831-5.41 12.635-9.61 4.989-7.47 8.916-14.99 11.705-22.426v-2.257c-2.804 8.023-6.937 16.173-12.339 24.253-2.702 4.05-7.838 6.88-12.37 9.37l-.93.51c-7.941 4.4-11.69 10.54-11.439 18.78.339 10.67-2.229 19.87-8.06 28.97-5.609 8.74-9.771 18.63-13.786 28.18-.532 1.27-1.063 2.53-1.594 3.79-1.875 4.44-1.255 11.57 1.579 18.17 2.45 5.69 6.081 9.78 9.934 11.2 8.399 3.08 14.082 8.71 19.012 18.83 5.505 11.29 13.742 15.62 24.502 12.87 1.565-.4 3.528.24 5.491 1.14zM371.15 526.34c5.299 5.084 8.723 11.286 10.45 18.963 1.403 6.192 3.941 10.228 7.764 12.336 2.141 1.179 4.709 1.766 7.75 1.766 1.077 0 2.214-.078 3.409-.222v-.775c-4.472.553-8.029.085-10.79-1.438-3.631-1.997-6.037-5.869-7.395-11.837-1.756-7.827-5.255-14.155-10.657-19.345-7.941-7.615-12.119-18.324-11.764-30.152.383-13.386-4-21.466-14.259-26.197-4.192-1.935-6.539-5.376-7.159-10.52-1.181-9.828 1.019-18.201 6.569-24.89a282 282 0 0 1 4.192-4.903c5.476-6.291 11.144-12.798 14.244-21.083.693-1.851 3.114-3.665 4.959-4.285 7.882-2.639 17.152-4.639 26.245.537 1.83 1.038 3.852 1.748 5.815 2.429v-.809c-1.859-.642-3.749-1.323-5.446-2.284-9.358-5.324-18.82-3.29-26.85-.596-2.052.689-4.65 2.651-5.432 4.74-3.055 8.155-8.664 14.608-14.096 20.849a223 223 0 0 0-4.207 4.915c-5.698 6.858-7.956 15.427-6.746 25.473.65 5.427 3.144 9.066 7.602 11.122 9.934 4.585 14.185 12.442 13.801 25.48-.354 12.046 3.912 22.959 12.001 30.726"/><path d="M301.392 16.39c1.372 5.505 4.147 11.093 7.616 15.332 7.809 9.524 16.311 18.733 24.518 27.638l3.468 3.75c2.672 2.903 5.329 5.612 8.488 6.853l.576.226c9.963 3.919 19.38 7.618 28.222 13.463.959.633 2.14.952 3.439.952.989 0 2.037-.177 3.13-.534 3.719-1.216 7.026-4.161 8.221-7.326 1.048-2.79 2.244-6.452 2.244-10.028-.015-6.002 1.609-11.613 5.284-18.191 4.473-8.024 4.015-16.553 3.528-25.582l-.118-2.048c-.369-7.338-2.465-14.155-4.871-20.73h-.812c2.436 6.602 4.561 13.437 4.93 20.77l.103 2.05c.487 8.913.945 17.334-3.424 25.166-3.734 6.7-5.402 12.426-5.388 18.568.015 3.45-1.166 7.026-2.184 9.755-1.107 2.914-4.281 5.739-7.75 6.87-2.332.763-4.443.646-5.919-.331-8.9-5.888-18.79-9.776-28.355-13.536l-.576-.226c-3.011-1.182-5.609-3.825-8.221-6.66l-3.454-3.75c-8.207-8.897-16.695-18.098-24.488-27.604-3.395-4.154-6.126-9.633-7.469-15.032-1.314-5.305-2.849-10.733-4.93-16.04h-.812c2.11 5.362 3.675 10.856 5.004 16.226"/><path d="M265.685 17.362c3.971 3.591 8.739 8.64 10.495 15.863 1.978 8.163 7.203 13.375 14.421 18.692 7.263 5.344 14.23 11.373 20.96 17.203 2.141 1.853 4.281 3.704 6.421 5.537 1.462 1.238 2.923 2.472 4.37 3.706 6.125 5.181 12.458 10.538 18.303 16.199 4.089 3.963 7.779 8.5 11.351 12.889 1.033 1.266 2.052 2.534 3.1 3.789 5.225 6.307 11.011 9.398 17.786 9.398 2.879 0 5.934-.558 9.196-1.661 1.934-.655 3.927-1.27 5.86-1.867 4.104-1.266 8.355-2.579 12.325-4.357.089-.04.163-.084.251-.123v-.847c-.192.089-.369.188-.561.273-3.926 1.76-8.162 3.063-12.251 4.325-1.919.598-3.926 1.215-5.875 1.872-10.613 3.592-18.923 1.209-26.156-7.502a968 968 0 0 1-3.099-3.784c-3.573-4.405-7.277-8.959-11.41-12.954-5.86-5.68-12.193-11.044-18.333-16.234-1.447-1.233-2.908-2.465-4.355-3.704-2.155-1.832-4.295-3.683-6.435-5.533-6.731-5.84-13.713-11.88-20.99-17.24-7.1-5.219-12.207-10.32-14.141-18.258-1.815-7.425-6.686-12.584-10.716-16.25-5.107-4.622-9.093-10.122-12.089-16.63h-.842c3.056 6.744 7.159 12.426 12.414 17.198m73.39 659.885c-.118 12.316 5.167 22.382 16.163 30.77 2.259 1.731 4.975 2.57 7.927 2.57 5.299 0 11.336-2.738 16.739-7.918l.428-.407c4.738-4.549 9.225-8.846 16.074-9.381a62 62 0 0 0 3.114-.346c.325-.042.665-.082 1.004-.123v-.768c-.369.045-.738.088-1.092.133-1.019.13-2.066.265-3.085.344-7.115.555-11.912 5.147-16.532 9.589l-.428.407c-8.118 7.784-17.654 9.911-23.691 5.292-10.79-8.232-15.971-18.097-15.868-30.156.015-1.628.089-3.284.163-4.885.28-5.975.56-12.153-2.288-18.248-2.067-4.427-2.377-7.843-.945-10.151 1.52-2.424 4.989-3.676 10.318-3.72 2.568-.022 5.196.022 7.72.067 4.694.079 9.535.163 14.288-.172 13.107-.922 23.263 1.491 31.44 7.527v-.955c-8.251-5.904-18.421-8.253-31.484-7.333-4.724.332-9.55.249-14.23.17-2.538-.043-5.166-.089-7.749-.067-5.594.047-9.285 1.419-10.938 4.076-1.594 2.543-1.284 6.205.901 10.883 2.76 5.923 2.494 11.734 2.214 17.888-.074 1.608-.148 3.271-.163 4.914M105.062.164h-.764c-.046.3-.086.6-.109.91-.564 7.42 4.63 12.152 9.088 14.815q.897.538 1.793 1.09c2.597 1.593 5.282 3.24 8.16 4.207 7.764 2.61 13.639 7.336 17.949 14.45 2.17 3.575 5.137 5.344 9.019 5.344 1.328 0 2.76-.208 4.31-.624 2.582-.694 5.196-1.453 7.733-2.186 3.677-1.064 7.471-2.166 11.235-3.088 6.583-1.609 9.52-8.622 8.5-20.283-.426-4.875-1.046-9.777-1.711-14.635h-.767c.679 4.883 1.299 9.809 1.727 14.702.679 7.833-.149 17.57-7.927 19.474-3.778.926-7.587 2.03-11.277 3.096a418 418 0 0 1-7.705 2.183c-5.698 1.528-9.772.093-12.488-4.38-4.413-7.275-10.406-12.107-18.362-14.776-2.79-.939-5.439-2.564-8.002-4.136-.599-.369-1.2-.737-1.799-1.095-4.273-2.552-9.253-7.07-8.721-14.101q.04-.492.118-.967m233.349 40.323c2.996 2.006 5.535 4.829 8 7.56 1.816 2.027 3.705 4.124 5.786 5.908 3.794 3.246 8.045 4.97 11.647 4.97 2.125 0 4.029-.6 5.476-1.838 5.387-4.629 6.111-14.291 1.564-21.099-.398-.603-.885-1.155-1.358-1.688-.62-.701-1.195-1.364-1.609-2.126-1.269-2.397-1.49-5.047-.62-7.464.93-2.564 2.953-4.597 5.698-5.719 8.812-3.592 11.307-8.813 8.606-18.024l-.222-.803h-.797c.103.338.192.682.295 1.02 2.598 8.854.31 13.648-8.162 17.1-2.952 1.205-5.122 3.395-6.126 6.166-.945 2.623-.709 5.494.664 8.084.443.84 1.092 1.568 1.698 2.27.457.516.93 1.048 1.299 1.61 4.339 6.502 3.69 15.702-1.432 20.092-3.602 3.098-10.392 1.78-16.119-3.133-2.052-1.752-3.926-3.828-5.727-5.839-2.495-2.765-5.063-5.624-8.148-7.681-13.181-8.83-21.373-21.3-25.905-39.689h-.782c4.576 18.687 12.871 31.35 26.274 40.323m44.798 999.773c-5.387 5.75-8.118 12.39-7.897 19.2.236 7.51 3.956 14.86 10.731 21.24 4.65 4.38 9.432 7.7 14.48 10.05v-.84c-4.856-2.31-9.476-5.54-13.963-9.76-6.628-6.25-10.259-13.41-10.495-20.72-.207-6.6 2.45-13.05 7.69-18.65 2.834-3.02 5.772-6.06 8.606-9 2.701-2.79 5.447-5.65 8.162-8.54v-1.11c-2.893 3.1-5.815 6.13-8.708 9.12-2.834 2.94-5.772 5.98-8.606 9.01m17.315-666.565v-1.813c-.664-1.929-.59-4.037 0-5.855v-2.177c-.147.407-.295.813-.457 1.223-1.063 2.595-1.137 5.916.457 8.622"/><path d="M388.775 1058.86c-.177 3.84 1.978 7.92 6.568 12.46a55 55 0 0 0 5.181 4.5v-.97a54 54 0 0 1-4.649-4.08c-4.429-4.38-6.51-8.26-6.347-11.88.147-3.41 2.273-6.77 6.479-10.26 1.609-1.33 3.1-2.72 4.517-4.14v-1.07a64 64 0 0 1-4.989 4.62c-4.399 3.64-6.598 7.17-6.76 10.82m-154.472 44.08c-.664 1.52-1.373 3.1-1.638 4.62-.414 2.19-3.617 5.4-5.462 5.45-2.642.08-6.524-2.04-7.631-4.17-1.033-1.97-.325-6.35 1.343-8.37 2.096-2.57 4.916-4.65 7.646-6.66 1.137-.84 2.332-1.72 3.454-2.63a.38.38 0 0 0 .148-.29c0 .12.059.24.162.32 5.565 3.64 3.823 7.57 1.978 11.73m-1.565-12.37c-.162-.12-.398-.07-.516.11a.33.33 0 0 0-.059.2c0-.08-.03-.16-.089-.23a.37.37 0 0 0-.531-.06 94 94 0 0 1-3.439 2.61c-2.761 2.04-5.609 4.14-7.779 6.78-1.683 2.04-2.687 6.79-1.417 9.21 1.225 2.35 5.24 4.58 8.177 4.58h.148c2.184-.06 5.697-3.52 6.17-6.07.266-1.44.915-2.9 1.594-4.45 1.801-4.07 3.852-8.68-2.259-12.68m5.522 26.53c2.745-4.32 7.114-5.64 11.72-7.03 1.299-.39 2.642-.8 3.926-1.27.148-.06.251-.2.251-.36 0 .21.177.38.384.38.708 0 1.417-.01 2.125-.02 1.536-.03 3.13-.06 4.665.04 4.679.3 7.882 3.32 8.531 8.08.369 2.56.945 8.83-1.461 11.65-3.661 4.31-9.698 6.18-16.148 5-6.952-1.27-12.576-5.7-14.702-11.56-.472-1.32-.147-3.56.709-4.91m13.86 17.22c1.314.24 2.613.36 3.882.36 5.211 0 9.89-1.98 12.975-5.61 2.598-3.06 2.022-9.59 1.638-12.26-.694-5.06-4.236-8.41-9.225-8.73-1.58-.1-3.188-.07-4.724-.05q-1.062.03-2.125.03a.377.377 0 0 0-.384.37c0-.04-.015-.08-.03-.12a.377.377 0 0 0-.487-.23c-1.254.47-2.583.87-3.882 1.26-4.531 1.37-9.24 2.79-12.133 7.35-.989 1.54-1.343 4.05-.782 5.58 2.199 6.11 8.059 10.74 15.277 12.05m51.973-93.77c.339 4.79-.753 8.32-3.159 10.19-2.273 1.78-5.654 1.99-9.787.62-6.908-2.29-13.875-2.52-20.62-2.75-1.521-.05-3.056-.1-4.591-.18-2.509-.12-5.048-.68-7.498-1.23-1.506-.34-3.056-.68-4.606-.93-2.081-.33-3.601-1.15-4.413-2.37-.709-1.07-.886-2.43-.502-4.04.369-1.5.709-3 1.048-4.51 2.022-8.99 4.104-18.29 10.17-25.89 1.402-1.76 2.908-3.51 4.369-5.2 3.587-4.16 7.307-8.467 9.787-13.329 3.498-6.84 7.867-10.806 13.757-12.483 8.679-2.473 14.052-8.181 16.886-17.964.133-.459.266-.918.384-1.379 1.402-4.958 2.73-9.641 7.793-12.114a.37.37 0 0 0 .207-.338c0 .208.177.377.384.377.472 0 .959-.018 1.446-.034 1.019-.036 2.067-.074 3.041.059 9.034 1.21 14.967 4.767 17.639 10.57 2.244 4.881-1.122 8.089-4.694 11.485-.856.813-1.742 1.655-2.509 2.499-1.358 1.494-2.879 2.979-4.34 4.417-3.926 3.845-7.985 7.821-9.801 12.607-7.085 18.637-11.572 34.587-10.391 51.917m20.724-63.978c1.476-1.444 2.996-2.939 4.369-4.446.753-.827 1.623-1.658 2.465-2.461 3.616-3.433 7.336-6.982 4.856-12.36-2.79-6.055-8.915-9.759-18.215-11.007-1.048-.141-2.125-.102-3.173-.065-.473.016-.945.032-1.417.032a.383.383 0 0 0-.384.376.33.33 0 0 0-.044-.16.373.373 0 0 0-.502-.178c-5.373 2.623-6.79 7.692-8.178 12.594l-.398 1.373c-2.746 9.507-7.941 15.05-16.355 17.443-6.111 1.738-10.628 5.829-14.215 12.87-2.45 4.779-6.125 9.046-9.697 13.177-1.462 1.7-2.982 3.45-4.384 5.22-6.17 7.74-8.281 17.12-10.318 26.2-.34 1.5-.679 3.01-1.048 4.51-.428 1.82-.222 3.38.605 4.64.93 1.4 2.642 2.33 4.93 2.7 1.521.24 3.07.58 4.561.91 2.48.56 5.063 1.13 7.617 1.26 1.55.07 3.085.12 4.62.17 6.997.24 13.595.46 20.399 2.71 1.86.62 3.602.93 5.166.93 2.096 0 3.897-.56 5.329-1.67 2.598-2.03 3.793-5.78 3.454-10.84-1.181-17.19 3.277-33.06 10.332-51.594 1.757-4.629 5.757-8.545 9.625-12.334M199.335 69.37c-1.417 1.227-3.424 1.528-5.343.805-3.707-1.387-6.539-5.023-7.589-9.723-1.12-5.048.105-10.148 3.174-13.311a.36.36 0 0 0 .105-.263c0 .13.072.254.192.325 5.86 3.5 9.609 9.069 11.129 16.551.458 2.226-.162 4.327-1.668 5.617m-9.077-22.824a.38.38 0 0 0-.519.135.32.32 0 0 0-.057.19.4.4 0 0 0-.12-.27.37.37 0 0 0-.53.007c-3.247 3.345-4.531 8.715-3.367 14.011 1.107 4.952 4.12 8.793 8.061 10.27a6.6 6.6 0 0 0 2.332.437c1.403 0 2.716-.467 3.779-1.377 1.712-1.473 2.421-3.846 1.919-6.348-1.579-7.703-5.447-13.44-11.498-17.055m206.605 614.83c1.875 3.26 2.465 5.569 1.949 7.482-.487 1.799-2.052 3.393-4.901 5.013a1786 1786 0 0 0-10.17 5.843c-3.69 2.126-7.366 4.253-11.07 6.351-3.44 1.949-6.849 2.438-9.846 1.412-3.041-1.042-5.476-3.575-7.055-7.324-2.48-5.866-2.126-12.365.974-17.834 3.085-5.444 8.413-9.051 14.642-9.896 1.934-.261 3.868-.64 5.742-1.006.871-.173 1.742-.344 2.628-.505a.38.38 0 0 0 .31-.366c0 .161.103.308.265.357 6.274 1.904 12.768 3.873 16.532 10.473m-16.31-11.204a.38.38 0 0 0-.473.256c-.014.034-.014.068-.014.102v-.061c-.045-.208-.251-.347-.443-.307-.886.161-1.757.332-2.642.505-1.86.365-3.794.741-5.698.999-6.45.877-12 4.623-15.203 10.275-3.204 5.677-3.587 12.423-1.019 18.509 1.668 3.955 4.266 6.636 7.513 7.749 1.107.379 2.259.565 3.439.565 2.259 0 4.635-.683 7.027-2.035 3.704-2.098 7.395-4.225 11.07-6.352 3.395-1.954 6.775-3.908 10.185-5.841 3.026-1.727 4.709-3.468 5.255-5.477.575-2.124-.045-4.611-2.022-8.065-3.927-6.861-10.554-8.875-16.975-10.822m-33.36-282.448c3.749-1.491 7.498-3.138 11.129-4.731a917 917 0 0 1 4.827-2.108.38.38 0 0 0 .222-.344c.014.197.162.362.354.374 7.572.514 9.668 2.477 9.358 8.751-.487 10.333-3.498 18.975-8.915 25.687-4.37 5.402-8.99 6.101-14.554 2.196-6.392-4.479-7.292-11.764-8.148-18.808l-.089-.701c-.649-5.2 1.211-8.478 5.816-10.316m1.978 30.451c2.48 1.736 4.812 2.606 7.026 2.606 3.055 0 5.889-1.646 8.561-4.947 5.521-6.84 8.576-15.631 9.093-26.131.354-7.47-3.115-9.077-10.067-9.548-.192-.018-.399.143-.399.354 0 .006-.014.013-.014.019 0-.049 0-.097-.03-.143a.364.364 0 0 0-.487-.201c-1.624.695-3.233 1.402-4.842 2.108-3.616 1.591-7.365 3.236-11.1 4.722-4.915 1.959-6.967 5.596-6.288 11.121l.089.701c.886 7.209 1.801 14.665 8.458 19.339m34.732 114.719c1.845 3.506 5.167 6.122 9.373 7.369.561.17 1.167.238 1.787.238 1.136 0 2.332-.232 3.498-.457a35 35 0 0 1 1.963-.33v-6.501c0-.032-.015-.065-.015-.097-.044-.332-.325-.546-.561-.735-.088-.076-.177-.148-.251-.231-10.096-11.473-7.616-24.247-5.225-36.602.605-3.161 1.24-6.429 1.653-9.628.266-2.024 2.096-4.123 3.617-5.875.251-.285.531-.555.782-.834v-1.113c-.472.496-.945.983-1.402 1.51-1.55 1.764-3.454 3.959-3.75 6.213-.413 3.175-1.033 6.431-1.653 9.581-2.42 12.536-4.93 25.499 5.403 37.255.103.112.236.218.369.322.088.076.251.205.265.252.237 1.517.428 3.07.606 4.573l.132 1.135c-.679.088-1.387.223-2.081.356-1.697.33-3.469.67-4.93.237-4.059-1.206-7.144-3.625-8.915-6.993-1.757-3.355-2.023-7.428-.724-11.465 2.082-6.549 1.934-12.541-.487-19.424-2.878-8.205-6.79-17.721-13.86-26.083-2.775-3.271-4.03-6.35-3.764-9.155.221-2.261 1.461-4.303 3.675-6.064 4.99-3.954 10.451-7.48 15.735-10.89a419 419 0 0 0 6.894-4.499.39.39 0 0 0 .162-.314c0 .209.177.377.384.377l1.195-.001c.857-.003 1.727-.006 2.598.004 1.447.015 2.819.169 4.148.461v-.778a21 21 0 0 0-4.148-.447c-.871-.009-1.727-.006-2.598-.003l-1.195.001a.384.384 0 0 0-.384.378.36.36 0 0 0-.059-.208.385.385 0 0 0-.532-.105 514 514 0 0 1-6.863 4.492c-5.314 3.42-10.79 6.955-15.794 10.935-2.391 1.893-3.72 4.109-3.971 6.586-.295 3.017 1.033 6.289 3.941 9.724 6.982 8.268 10.864 17.704 13.728 25.845 2.361 6.714 2.509 12.554.472 18.933-1.358 4.235-1.077 8.517.782 12.055m14.17 341.408c-.045 14.577-6.761 26.007-19.44 33.057-5.786 3.225-12.606 6.293-20.06 1.85-3.882-2.309-8.059-4.234-12.104-6.095-3.262-1.498-6.627-3.048-9.801-4.787-11.986-6.548-24.842-8.527-38.068-10.127-5.594-.678-11.233-3.298-16.487-6.029-1.196-.621-1.86-1.619-1.831-2.741.045-1.279 1.004-2.487 2.51-3.153 4.856-2.143 9.874-4.357 15.07-5.274 14.51-2.568 25.522-9.649 33.625-21.645 1.314-1.933 2.583-3.966 3.809-5.929 5.638-9.038 11.469-18.383 23.248-21.413a.38.38 0 0 0 .28-.365c0 .208.177.376.384.376l3.114-.002c2.244-.003 4.487-.006 6.746.004 13.713.068 23.425 7.954 25.979 21.096 2.037 10.448 3.04 20.938 3.026 31.177m-29.005-53.035c-2.244-.012-4.502-.009-6.746-.006l-3.114.003a.38.38 0 0 0-.384.375c0-.029 0-.059-.015-.088a.37.37 0 0 0-.457-.275c-12.075 3.106-17.979 12.582-23.706 21.747-1.225 1.957-2.48 3.984-3.779 5.907-8 11.816-18.834 18.791-33.138 21.321-5.284.934-10.347 3.169-15.247 5.327-1.772.787-2.908 2.252-2.952 3.829-.045 1.426.767 2.682 2.228 3.443 5.329 2.764 11.027 5.416 16.754 6.107 13.137 1.593 25.934 3.557 37.787 10.04 3.218 1.752 6.584 3.307 9.86 4.811 4.015 1.852 8.178 3.768 12.016 6.057 2.834 1.682 5.55 2.342 8.162 2.342 4.606-.002 8.857-2.057 12.665-4.181 12.93-7.191 19.779-18.852 19.823-33.721.03-10.289-.988-20.83-3.025-31.325-2.628-13.528-12.621-21.645-26.732-21.713"/></g><defs><clipPath id="a"><rect width="402" height="1243" fill="none" rx="11.809"/></clipPath></defs></svg>