<svg xmlns="http://www.w3.org/2000/svg" fill="none" viewBox="0 0 400 1243"><g fill="currentColor" clip-path="url(#a)" opacity=".7"><path d="M171.914 433.735a.382.382 0 0 0 .108.747.3.3 0 0 0 .106-.016q.73-.216 1.451-.465a.381.381 0 0 0-.243-.722q-.707.243-1.422.456m26.275-11.297-1.349.673a.382.382 0 0 0 .167.725.4.4 0 0 0 .167-.04l1.353-.673a.383.383 0 0 0 .171-.512.38.38 0 0 0-.509-.173m-5.422 2.641-1.366.639a.385.385 0 0 0-.187.506c.066.14.204.223.347.223a.4.4 0 0 0 .156-.036l1.372-.64a.39.39 0 0 0 .183-.509.38.38 0 0 0-.505-.183m-5.485 2.509q-2.066.916-4.149 1.798a.382.382 0 0 0 .294.704 281 281 0 0 0 4.161-1.804.38.38 0 0 0-.306-.698m-9.728 4.09a.38.38 0 0 0 .14.735.4.4 0 0 0 .139-.025l1.402-.566a.381.381 0 0 0-.282-.707zm-10.553 2.967a49 49 0 0 0-3.963.334.38.38 0 0 0-.328.426.38.38 0 0 0 .375.334q.025 0 .047-.003a49 49 0 0 1 3.903-.328q.294-.014.59-.038a.38.38 0 0 0 .346-.412c-.018-.211-.217-.372-.409-.348q-.28.021-.561.035m-65.482 38.083q-.52.558-1.009 1.16a.385.385 0 0 0 .054.538.38.38 0 0 0 .535-.055q.471-.582.974-1.123a.384.384 0 0 0-.018-.539.377.377 0 0 0-.536.019m18.384-9.013q-.467.102-.926.207a.382.382 0 0 0 .084.754.3.3 0 0 0 .085-.011q.456-.104.916-.205l.557-.125a.382.382 0 0 0-.172-.744zm-9.608 2.976a.384.384 0 0 0-.195.504.38.38 0 0 0 .499.196 41 41 0 0 1 4.204-1.559.383.383 0 0 0 .25-.478.38.38 0 0 0-.476-.251 42 42 0 0 0-4.282 1.588m-4.051 2.141q-.649.412-1.269.858a.383.383 0 0 0 .22.692.4.4 0 0 0 .221-.071q.602-.434 1.233-.834a.385.385 0 0 0 .118-.525.38.38 0 0 0-.523-.12m-12.14 16.871c-.355.3-.754.541-1.185.715a.383.383 0 0 0-.211.496.38.38 0 0 0 .493.212 5.2 5.2 0 0 0 1.392-.837.383.383 0 0 0 .045-.538.38.38 0 0 0-.534-.048m62.972-49.491a.38.38 0 1 0 .215.731q.712-.213 1.438-.394a.382.382 0 0 0-.182-.741q-.745.185-1.471.404m-59.089 41.532a27.4 27.4 0 0 0-1.771 4.251.384.384 0 0 0 .362.5.38.38 0 0 0 .36-.264 26.5 26.5 0 0 1 1.72-4.131.383.383 0 0 0-.16-.516.376.376 0 0 0-.51.16m49.639-36.625a28 28 0 0 0-3.314 3.183.386.386 0 0 0 .032.54.38.38 0 0 0 .536-.033 27 27 0 0 1 3.221-3.095.384.384 0 0 0 .058-.536.38.38 0 0 0-.533-.059m-6.084 6.841q-.417.628-.847 1.242a.381.381 0 0 0 .308.602.38.38 0 0 0 .309-.161q.439-.62.86-1.261a.38.38 0 1 0-.63-.422m11.254-10.105q-.691.332-1.361.7a.386.386 0 0 0-.151.519.38.38 0 0 0 .515.151 25 25 0 0 1 1.323-.681.383.383 0 0 0 .18-.509.38.38 0 0 0-.506-.18m-19.144 19.083a34 34 0 0 1-3.619 2.64.38.38 0 0 0 .403.646 34.5 34.5 0 0 0 3.7-2.698.38.38 0 0 0 .05-.537.377.377 0 0 0-.534-.051m4.266-4.193q-.491.565-1.003 1.112a.38.38 0 0 0 .55.524q.522-.557 1.023-1.134a.38.38 0 0 0-.034-.537.377.377 0 0 0-.536.035m-11.828 8.944q-.678.303-1.376.575a.384.384 0 0 0-.216.495.38.38 0 0 0 .49.217q.716-.28 1.41-.589a.384.384 0 0 0 .192-.505.38.38 0 0 0-.5-.193m149.542-116.18a.38.38 0 0 0-.505-.184.384.384 0 0 0-.183.508q.318.685.63 1.375a.377.377 0 0 0 .502.189.386.386 0 0 0 .189-.506q-.313-.69-.633-1.382m4.151 11.012a.38.38 0 0 0-.228.487c.512 1.438.994 2.884 1.431 4.301a.38.38 0 0 0 .476.253.383.383 0 0 0 .249-.478 108 108 0 0 0-1.442-4.333.38.38 0 0 0-.486-.23m-14.438-34.01a.38.38 0 0 0 .379-.379 13.2 13.2 0 0 1 .756-4.337.383.383 0 0 0-.23-.487.38.38 0 0 0-.484.231 14 14 0 0 0-.8 4.588.38.38 0 0 0 .376.384zm7.974 19.443a.4.4 0 0 0 .17-.042.38.38 0 0 0 .17-.51 231 231 0 0 0-2.058-4.063.379.379 0 1 0-.671.353 240 240 0 0 1 2.051 4.049c.065.134.2.213.338.213m-9.132 41.793a.38.38 0 0 0 .518.139q.652-.38 1.306-.754a.384.384 0 0 0 .142-.521.38.38 0 0 0-.516-.144q-.66.378-1.313.758a.384.384 0 0 0-.137.522m-57.997 34.474a234 234 0 0 1-3.982 2.149.381.381 0 0 0 .353.676q2.008-1.058 3.994-2.157a.38.38 0 1 0-.365-.668m62.364-104.332q.425-.591.909-1.173a.38.38 0 0 0-.047-.537.38.38 0 0 0-.534.045q-.503.607-.944 1.22a.383.383 0 0 0 .309.605.38.38 0 0 0 .307-.16m9.028 36.982a.38.38 0 0 0-.205.498q.29.698.571 1.4a.38.38 0 0 0 .493.212.384.384 0 0 0 .211-.498 189 189 0 0 0-.574-1.407.377.377 0 0 0-.496-.205m-2.63 26.566a.382.382 0 0 0 .172.722.4.4 0 0 0 .172-.042l1.138-.583a65 65 0 0 0 2.883-1.541.382.382 0 0 0-.376-.663c-.738.424-1.643.91-2.856 1.527zm-2.946-130.8a.38.38 0 0 0-.384.658 50 50 0 0 1 3.778 2.441.37.37 0 0 0 .22.071.382.382 0 0 0 .22-.692 52 52 0 0 0-3.834-2.478M87.27 486.106a.38.38 0 0 0-.233.727c.518.169 1.017.31 1.485.416a.38.38 0 0 0 .453-.288.38.38 0 0 0-.285-.455 17 17 0 0 1-1.42-.4m181.542-152.43a.37.37 0 0 0 .333.199.4.4 0 0 0 .18-.044.384.384 0 0 0 .154-.518l-.719-1.335a.377.377 0 0 0-.514-.153.38.38 0 0 0-.152.516zm5.009-25.636a.38.38 0 0 0-.535-.049c-.369.31-.735.62-1.129.955l-.031.028c-.156.137-.148.353-.01.512.069.082.172.12.279.12a.44.44 0 0 0 .282-.102q.544-.465 1.095-.925a.387.387 0 0 0 .049-.539m-44.644 95.681q-.674.37-1.321.78a.381.381 0 0 0 .403.645 27 27 0 0 1 1.281-.756.38.38 0 0 0 .152-.516.38.38 0 0 0-.515-.153m37.297-75.282q.069 0 .133-.023a.384.384 0 0 0 .225-.492 19 19 0 0 1-.468-1.413.378.378 0 1 0-.728.213q.209.726.484 1.467a.38.38 0 0 0 .354.248m-55.045 86.791q-.651.383-1.302.76a.386.386 0 0 0-.14.521.38.38 0 0 0 .52.141q.653-.38 1.304-.765a.383.383 0 0 0 .136-.523.377.377 0 0 0-.518-.134m23.264-14.061c-.465.197-.93.391-1.394.591a.383.383 0 0 0-.2.5.38.38 0 0 0 .499.201q.69-.296 1.387-.588a.381.381 0 0 0-.292-.704m-18.114 10.923-1.28.799a.382.382 0 0 0 .199.705.37.37 0 0 0 .198-.056q.643-.398 1.284-.801a.384.384 0 0 0 .121-.526.377.377 0 0 0-.522-.121m7.547-4.99q-1.862 1.293-3.746 2.537a.383.383 0 0 0 .208.701.37.37 0 0 0 .208-.063 200 200 0 0 0 3.761-2.546.384.384 0 0 0 .096-.532.38.38 0 0 0-.527-.097m28.708-16.563-1.255.841a.383.383 0 0 0 .212.7.37.37 0 0 0 .209-.065l1.255-.841a.385.385 0 0 0 .106-.53.38.38 0 0 0-.527-.105m7.6-4.967a202 202 0 0 0-3.822 2.453.383.383 0 0 0 .207.702.4.4 0 0 0 .208-.062 192 192 0 0 1 3.807-2.443.383.383 0 0 0-.4-.65m-12.624 8.324q-.628.415-1.261.826a.383.383 0 0 0 .207.703.4.4 0 0 0 .205-.062q.635-.413 1.265-.83a.38.38 0 0 0 .109-.528.38.38 0 0 0-.525-.109m-5.079 3.25q-.803.494-1.615.976c-.692.413-1.445.814-2.298 1.228a.383.383 0 0 0 .163.726.4.4 0 0 0 .166-.038 32 32 0 0 0 2.357-1.26q.812-.482 1.622-.981a.38.38 0 0 0 .126-.524.376.376 0 0 0-.521-.127m27.051-16.17a.4.4 0 0 0 .181-.045q.66-.36 1.327-.716a.381.381 0 0 0-.356-.673q-.668.356-1.332.717a.381.381 0 0 0 .18.717M41.549 526.233a60 60 0 0 0-1.437 4.347.383.383 0 0 0 .366.489.38.38 0 0 0 .364-.276c.41-1.429.887-2.872 1.417-4.292a.383.383 0 0 0-.222-.492.38.38 0 0 0-.488.224m5.289-10.968q-.389.657-.76 1.319a.38.38 0 0 0 .33.57c.13 0 .259-.069.328-.193q.37-.655.753-1.306a.384.384 0 0 0-.133-.524.374.374 0 0 0-.518.134m7.954-12.878q-.371.657-.748 1.313a.382.382 0 0 0 .329.573c.13 0 .257-.069.328-.19q.379-.659.75-1.32a.38.38 0 0 0-.14-.519.38.38 0 0 0-.519.143m-3.075 5.202q-.906 1.458-1.86 2.884l-.61.919a.384.384 0 0 0 .108.529.37.37 0 0 0 .208.062.38.38 0 0 0 .317-.17l.605-.915q.962-1.434 1.875-2.904a.385.385 0 0 0-.12-.527.38.38 0 0 0-.523.122m26.684-23.578a.395.395 0 0 0-.409.348.38.38 0 0 0 .346.412c1.393.117 2.873.366 4.4.741q.045.012.09.012a.38.38 0 0 0 .367-.292.38.38 0 0 0-.277-.461 29 29 0 0 0-4.517-.76m-34.445 36.618q-.335.687-.65 1.379a.383.383 0 0 0 .343.542.38.38 0 0 0 .344-.222q.315-.686.644-1.365a.38.38 0 0 0-.175-.509.377.377 0 0 0-.506.175m19.098-30.99a29 29 0 0 0-2.94 3.536.383.383 0 0 0 .31.603.39.39 0 0 0 .31-.159 27.6 27.6 0 0 1 2.857-3.441.383.383 0 0 0-.001-.54.38.38 0 0 0-.536.001m9.236-5.27a.383.383 0 0 0 .164.746q.714-.157 1.454-.256a.381.381 0 0 0-.101-.757 19 19 0 0 0-1.516.267m-4.334 1.583c-.45.236-.898.497-1.333.773a.384.384 0 0 0-.117.527.377.377 0 0 0 .523.118c.419-.267.848-.517 1.278-.742a.383.383 0 0 0 .16-.516.38.38 0 0 0-.511-.16m-10.261 11.12-.717 1.336a.384.384 0 0 0 .333.564.37.37 0 0 0 .332-.201l.716-1.334a.38.38 0 0 0-.15-.517.377.377 0 0 0-.514.152m-18.674 37.959q-.149.736-.335 1.458a.38.38 0 0 0 .366.477.38.38 0 0 0 .366-.285q.195-.74.347-1.498a.38.38 0 1 0-.744-.152m-1.84 5.67q-.32.68-.679 1.324a.383.383 0 0 0 .145.52.376.376 0 0 0 .517-.146q.372-.67.702-1.372a.38.38 0 0 0-.181-.509.376.376 0 0 0-.504.183M4.006 550.762a.374.374 0 0 0-.412.346c-.02.21.136.396.342.415a96 96 0 0 0 1.538.124.382.382 0 0 0 .027-.763 74 74 0 0 1-1.495-.122m5.999.345a.374.374 0 0 0-.39.372.38.38 0 0 0 .369.391 103 103 0 0 0 4.542.017.38.38 0 0 0 .372-.388c-.005-.211-.154-.37-.387-.375a103 103 0 0 1-4.506-.017m23.902-5.48a15.8 15.8 0 0 1-3.42 2.787.38.38 0 0 0-.133.522.38.38 0 0 0 .326.188.37.37 0 0 0 .193-.057 16.5 16.5 0 0 0 3.587-2.919.38.38 0 0 0-.018-.539.376.376 0 0 0-.535.018m-8.925 4.801a.38.38 0 0 0 .063.757l.065-.004a19 19 0 0 0 1.504-.326.382.382 0 0 0-.19-.74c-.471.124-.955.229-1.442.313m-5.964.529a.38.38 0 0 0 .022.761l.02-.001q.756-.043 1.51-.095a.38.38 0 0 0 .353-.406.39.39 0 0 0-.404-.355q-.75.052-1.501.096m123.09-457.156h.003c1.42 0 2.858-.168 4.272-.5a.38.38 0 0 0 .283-.458.377.377 0 0 0-.456-.285 18 18 0 0 1-4.1.478l-.293-.001a.39.39 0 0 0-.386.375.38.38 0 0 0 .373.388zm144.384 200.417a.377.377 0 0 0 .501-.192q.313-.697.577-1.432a.38.38 0 0 0-.227-.488.38.38 0 0 0-.486.228q-.254.709-.555 1.379a.383.383 0 0 0 .19.505M155.929 88.576a41 41 0 0 0 1.203-.939.384.384 0 0 0 .058-.537.38.38 0 0 0-.533-.058q-.585.474-1.181.921a.385.385 0 0 0-.078.535.38.38 0 0 0 .531.078m4.839-3.552a22.7 22.7 0 0 1 4.01-1.925.383.383 0 0 0 .228-.489.377.377 0 0 0-.485-.228 23.4 23.4 0 0 0-4.143 1.988.381.381 0 0 0 .39.654m8.318-2.982q.73-.099 1.476-.152a.38.38 0 0 0-.051-.76q-.771.052-1.527.157a.38.38 0 0 0-.324.428c.025.191.187.33.375.33zm-18.528 9.764q.083-.001.163-.037.688-.328 1.364-.697a.383.383 0 0 0 .152-.518.38.38 0 0 0-.515-.152q-.654.359-1.325.676a.38.38 0 0 0-.181.508c.063.138.201.22.342.22m-18.742-1.46a56 56 0 0 0-1.42-.541.38.38 0 0 0-.486.228.383.383 0 0 0 .229.489q.702.257 1.399.534a.4.4 0 0 0 .139.028.382.382 0 0 0 .139-.738m5.428 2.804a.382.382 0 0 0 .199-.736c-.477-.13-.948-.279-1.42-.438a.377.377 0 0 0-.481.237c-.068.2.04.416.239.484q.728.252 1.463.453m146.01 163.634a.38.38 0 0 0-.521-.127.383.383 0 0 0-.127.524q.382.63.72 1.299a.38.38 0 0 0 .339.208.36.36 0 0 0 .172-.04.385.385 0 0 0 .166-.515 21 21 0 0 0-.749-1.349m-.3 114.641a3.8 3.8 0 0 1-.593 1.233.383.383 0 0 0 .084.533.38.38 0 0 0 .53-.086c.333-.463.567-.947.71-1.479a.38.38 0 0 0-.267-.468.376.376 0 0 0-.464.267m1.725-73.409a.38.38 0 1 0-.616-.446q-.433.606-.903 1.187a.385.385 0 0 0 .056.537.377.377 0 0 0 .534-.056q.482-.598.929-1.222m-2.419 67.653q.215.774.38 1.455a.38.38 0 0 0 .458.281.383.383 0 0 0 .279-.462 47 47 0 0 0-.387-1.479.38.38 0 0 0-.466-.266.38.38 0 0 0-.264.471m4.756-94.569a.38.38 0 0 0-.31.44q.127.747.249 1.493a.38.38 0 0 0 .374.319l.062-.003a.38.38 0 0 0 .313-.438q-.123-.752-.251-1.5a.377.377 0 0 0-.437-.311m.955 5.992a.38.38 0 0 0-.319.434l.22 1.501c.028.186.181.3.363.3q.03 0 .063-.006c.208-.031.347-.251.316-.459l-.212-1.45a.38.38 0 0 0-.431-.32m-2.355-14.627a.378.378 0 1 0-.733.186l.034.142c.333 1.357.655 2.799.956 4.284a.38.38 0 1 0 .744-.154 112 112 0 0 0-.964-4.314zm2.552 21.037a59 59 0 0 1-.192 3.572q-.037.471-.095.93a.383.383 0 0 0 .332.425l.046.003a.38.38 0 0 0 .375-.335q.06-.473.097-.961c.08-.995.173-2.306.194-3.622a.38.38 0 0 0-.372-.387c-.233.006-.382.164-.385.375M176.496 82.165q.03.006.058.006a.376.376 0 0 0 .372-.326.38.38 0 0 0-.317-.434 33 33 0 0 0-1.516-.19.38.38 0 0 0-.415.342.38.38 0 0 0 .339.418q.732.074 1.479.184m58.533 121.022a.4.4 0 0 0 .182-.049.38.38 0 0 0 .15-.517c-.727-1.331-1.464-2.658-2.199-3.982a.38.38 0 0 0-.517-.148.384.384 0 0 0-.146.52q1.104 1.984 2.197 3.978a.38.38 0 0 0 .333.198m-19.838-41.615a62 62 0 0 0-.093 3.306q-.001.64.016 1.276a.38.38 0 0 0 .379.37h.011a.38.38 0 0 0 .369-.391 44 44 0 0 1-.017-1.255c0-1.014.03-2.082.092-3.265a.38.38 0 0 0-.359-.401.39.39 0 0 0-.398.36m1.927-16.619q.023-.983.024-1.967 0-1.307-.044-2.607a.38.38 0 0 0-.393-.368.38.38 0 0 0-.366.396q.044 1.287.044 2.579 0 .974-.023 1.95a.38.38 0 0 0 .37.391h.009a.38.38 0 0 0 .379-.374m-31.902-60.634q.058.02.115.019a.38.38 0 0 0 .362-.266.384.384 0 0 0-.245-.48 69 69 0 0 0-4.374-1.256.38.38 0 0 0-.183.74c1.431.36 2.887.78 4.325 1.243m32.113 35.007a21.8 21.8 0 0 0-1.467 4.382.383.383 0 0 0 .371.465.38.38 0 0 0 .37-.301c.317-1.45.793-2.871 1.414-4.226a.385.385 0 0 0-.186-.508.38.38 0 0 0-.502.188m13.303 75.901a.38.38 0 0 0 .332-.565l-.725-1.332a.38.38 0 0 0-.515-.15.384.384 0 0 0-.149.518l.725 1.33a.38.38 0 0 0 .332.199m-15.12-24.495q.12.763.279 1.513a.38.38 0 1 0 .743-.159 28 28 0 0 1-.272-1.472.383.383 0 0 0-.434-.317.383.383 0 0 0-.316.435m.141-15.138-.128 1.425a.38.38 0 0 0 .344.414l.034.002a.38.38 0 0 0 .378-.348l.136-1.51c.019-.21-.139-.353-.347-.372-.188-.021-.397.178-.417.389m.739-19.36q.022 0 .043-.002a.38.38 0 0 0 .335-.422 51 51 0 0 0-.194-1.516.379.379 0 1 0-.75.108q.105.743.189 1.494a.38.38 0 0 0 .377.338m.418 14.801q.055-.757.105-1.519a.38.38 0 0 0-.356-.405.38.38 0 0 0-.401.356q-.05.757-.105 1.51a.38.38 0 0 0 .35.41h.029a.38.38 0 0 0 .378-.352m63.38 102.722a.382.382 0 0 0 .276-.642 25 25 0 0 0-1.081-1.092.376.376 0 0 0-.535.016.383.383 0 0 0 .014.539q.54.513 1.048 1.058c.076.08.177.121.278.121m-52.578-63.784a.384.384 0 0 0 .319-.59 34 34 0 0 0-.862-1.268.38.38 0 1 0-.615.447q.433.605.841 1.237a.38.38 0 0 0 .317.174m35.088 52.016a.38.38 0 0 0 .318-.17.384.384 0 0 0-.107-.53 75 75 0 0 1-1.242-.849.375.375 0 0 0-.527.095.38.38 0 0 0 .094.53q.622.438 1.256.86a.4.4 0 0 0 .208.064m-4.866-3.59a.38.38 0 0 0 .296-.14.385.385 0 0 0-.056-.538 58 58 0 0 1-3.381-2.98.38.38 0 0 0-.534.015.38.38 0 0 0 .013.54 58 58 0 0 0 3.425 3.019.37.37 0 0 0 .237.084m10.029 6.733a.38.38 0 0 0 .332-.196.386.386 0 0 0-.149-.52 69 69 0 0 1-1.306-.742.381.381 0 0 0-.38.661q.654.38 1.318.75a.4.4 0 0 0 .185.047m-29.985-36.594q.09.001.176-.043a.384.384 0 0 0 .162-.515q-.349-.674-.701-1.348a.38.38 0 0 0-.512-.158.383.383 0 0 0-.16.514q.353.67.698 1.343a.38.38 0 0 0 .337.207m38.839 97.078a.38.38 0 0 0 .535.044 71 71 0 0 0 3.39-3.053.38.38 0 1 0-.525-.55 72 72 0 0 1-3.355 3.021.383.383 0 0 0-.045.538m-32.354-83.384q.091 0 .181-.047a.383.383 0 0 0 .151-.517 55 55 0 0 1-1.978-4.056.38.38 0 1 0-.694.307 56 56 0 0 0 2.005 4.113c.069.128.2.2.335.2m-3.819-8.25a.38.38 0 0 0 .344-.54q-.32-.691-.645-1.378a.38.38 0 0 0-.506-.18.384.384 0 0 0-.179.51q.326.681.642 1.368c.065.139.201.22.344.22m10.741 18.152c.09 0 .18-.031.252-.096a.385.385 0 0 0 .031-.54 53 53 0 0 1-.98-1.137.377.377 0 0 0-.534-.047.383.383 0 0 0-.046.537q.49.586.994 1.156a.38.38 0 0 0 .283.127m-3.747-4.75a.382.382 0 0 0 .31-.601 45 45 0 0 1-.841-1.243.38.38 0 1 0-.634.421q.419.638.854 1.262a.38.38 0 0 0 .311.161m-32.203-99.087q-.007.266-.006.532 0 .5.017 1.008a.38.38 0 0 0 .38.367h.013a.38.38 0 0 0 .366-.395 27 27 0 0 1-.012-1.495.378.378 0 1 0-.758-.017m-5.73-31.903a.383.383 0 0 0 .201-.706l-1.283-.801a.376.376 0 0 0-.522.124.383.383 0 0 0 .124.525l1.279.799a.37.37 0 0 0 .201.059m5.088 3.264a.381.381 0 0 0 .206-.703l-1.269-.824a.38.38 0 0 0-.524.115.383.383 0 0 0 .113.527l1.268.823a.4.4 0 0 0 .206.062m-10.248-6.413a.38.38 0 0 0 .19-.712 139 139 0 0 0-3.949-2.242.382.382 0 0 0-.362.672 142 142 0 0 1 3.931 2.23.37.37 0 0 0 .19.052m-7.959-4.326a.381.381 0 0 0 .168-.725q-.68-.335-1.364-.66a.381.381 0 0 0-.325.69q.68.322 1.354.656a.4.4 0 0 0 .167.039m24.42 92.527a.376.376 0 0 0-.532-.058.385.385 0 0 0-.058.538 26.5 26.5 0 0 0 3.184 3.315.38.38 0 0 0 .249.094.4.4 0 0 0 .287-.129.384.384 0 0 0-.036-.539 25.5 25.5 0 0 1-3.094-3.221m-3.54-5.296a.384.384 0 0 0-.201.5q.3.706.651 1.398c.067.133.2.21.337.21a.38.38 0 0 0 .338-.555 21 21 0 0 1-.627-1.351.38.38 0 0 0-.498-.202m1.336-74.716-.211.317-.171.344c1.501.979 2.593 1.895 3.342 2.8a.374.374 0 0 0 .533.05.38.38 0 0 0 .05-.536c-.797-.966-1.947-1.933-3.543-2.975m-29.248-15.6q.7.274 1.39.56a.382.382 0 0 0 .289-.706q-.697-.288-1.406-.565a.38.38 0 0 0-.492.217.385.385 0 0 0 .219.494m31.697 28.714a.38.38 0 0 0-.097-.53.38.38 0 0 0-.527.099q-.345.507-.732 1.037l-.139.192a.385.385 0 0 0 .087.533.376.376 0 0 0 .529-.089l.134-.184q.395-.543.745-1.058m1.814-3.837a.38.38 0 0 0 .361-.26c.178-.537.298-1.06.355-1.553a.383.383 0 0 0-.333-.424.38.38 0 0 0-.421.335c-.05.442-.158.913-.32 1.4a.38.38 0 0 0 .358.502m-97.639-20.994a.38.38 0 0 0 .357-.403c-.012-.21-.158-.37-.4-.36l-.605.038c-.552.037-1.104.074-1.646.074-.167 0-.287.122-.335.276l.348.353.127.128a28 28 0 0 0 1.556-.068zm20.948 1153.133c1.123-7.25-2.12-13.87-9.81-20.02-6.55-5.24-11.303-9.82-14.959-14.42-4.341-5.47-3.197-12.82 2.783-17.88.255-.22.571-.4.904-.6.486-.28.988-.57 1.404-1.02 1.376-1.46 3.135-2.5 4.998-3.6 3.606-2.14 7.338-4.35 8.183-9.75 1.533-9.77.759-18.39-2.361-26.36-1.122-2.87-2.257-5.95-2.967-9.06-.811-3.55-2.257-7.11-7.311-9.04-11.097-4.23-18.547-12.64-26.321-23.96-1.626-2.37-3.608-4.51-5.525-6.59-1.702-1.83-3.462-3.74-4.936-5.76-.403-.56-.82-1.12-1.239-1.68-2.614-3.52-5.315-7.15-6.004-10.97-1.64-9.09-6.482-16.62-14.39-22.37-5.033-3.66-10.48-6.89-15.75-10.02-6.098-3.63-12.404-7.37-18.036-11.77-9.86-7.68-18.764-16.96-27.377-25.95l-2.095-2.18c-1.19-1.24-.435-5.43.018-7.94l.06-.33c.488-2.722 1.155-5.479 1.801-8.147.99-4.087 2.012-8.312 2.427-12.557.359-3.681-.617-8.925-3.174-11.83-1.176-1.336-2.338-2.69-3.5-4.043-8.454-9.847-17.195-20.031-31.55-23.29-7.661-1.739-15.251-4.505-22.593-7.178-3.02-1.101-6.14-2.238-9.23-3.29-5.092-1.734-7.71-5.671-10.741-10.231l-.495-.742c-4.558-6.826-9.665-13.683-16.121-17.616-14.137-8.61-22.026-4.602-35.491 5.908-3.355 2.618-6.529 5.582-9.599 8.446-4.189 3.908-8.52 7.95-13.293 11.087-18.944 12.449-22.165 31.221-22.825 49.653-.335 9.42 8.04 12.235 17.142 13.877 1.864.335 3.78.628 5.711.925 7.525 1.151 15.307 2.344 20.938 6.25 7.204 4.998 14.093 13.048 21.06 24.598 3.605 5.98 5.744 13.05 7.812 19.89.721 2.39 1.468 4.86 2.265 7.25 1.809 5.4 5.15 9.57 10.836 13.52 3.599 2.49 8.566 6.6 11.804 11.94 2.098 3.47 3.434 7.53 4.724 11.45.717 2.19 1.457 4.44 2.326 6.6 1.97 4.88 1.76 9.18-.682 13.92l-.978 1.9c-5.127 10-9.968 19.44-18.522 26.98-5.22 4.6-7.814 9.84-7.504 15.15.329 5.63 3.979 11 10.556 15.55 17.444 12.05 31 24.53 41.447 38.13 5.671 7.39 13.761 10.46 20.175 12.31 10.781 3.11 18.223 10.81 25.424 18.25 1.718 1.78 3.517 3.53 5.259 5.22.47.46.946.93 1.421 1.39h2.173a243 243 0 0 0-2.54-2.48c-1.732-1.69-3.525-3.43-5.225-5.19-7.338-7.59-14.925-15.43-26.094-18.66-6.191-1.78-13.99-4.74-19.393-11.77-10.544-13.74-24.212-26.31-41.788-38.46-6.177-4.27-9.6-9.24-9.901-14.38-.282-4.82 2.134-9.63 6.99-13.91 8.768-7.73 13.904-17.74 18.87-27.43l.978-1.9c2.627-5.1 2.863-9.93.74-15.2-.85-2.11-1.583-4.34-2.292-6.5-1.318-4-2.68-8.15-4.868-11.76-3.378-5.58-8.518-9.83-12.238-12.41-5.471-3.8-8.54-7.61-10.258-12.75-.792-2.37-1.535-4.82-2.254-7.2-2.095-6.93-4.262-14.1-7.965-20.24-7.079-11.74-14.113-19.94-21.498-25.064-5.917-4.105-13.875-5.325-21.57-6.504-1.918-.294-3.821-.585-5.672-.918-11.677-2.105-16.134-5.559-15.893-12.319.645-18.022 3.771-36.362 22.138-48.432 4.882-3.206 9.26-7.292 13.494-11.243 3.047-2.843 6.197-5.782 9.5-8.36 13.196-10.303 20.381-13.966 33.774-5.807 6.204 3.778 11.188 10.481 15.648 17.161l.493.739c3.053 4.591 5.936 8.927 11.517 10.828 3.073 1.047 6.187 2.182 9.198 3.279 7.385 2.689 15.022 5.472 22.776 7.233 13.866 3.148 22.442 13.137 30.736 22.796a440 440 0 0 0 3.512 4.058c2.245 2.55 3.119 7.401 2.8 10.669-.404 4.139-1.414 8.31-2.391 12.346-.651 2.689-1.324 5.47-1.82 8.238l-.06.33c-.6 3.33-1.347 7.47.385 9.27l2.094 2.19c8.65 9.01 17.595 18.34 27.54 26.09 5.706 4.45 12.054 8.22 18.192 11.87 5.24 3.11 10.658 6.33 15.633 9.95 7.58 5.51 12.219 12.71 13.785 21.4.753 4.18 3.564 7.96 6.283 11.61.417.56.83 1.12 1.23 1.67 1.528 2.1 3.318 4.03 5.05 5.91 1.88 2.03 3.823 4.13 5.386 6.4 7.935 11.56 15.568 20.15 27.031 24.53 4.143 1.58 5.544 4.32 6.372 7.95.732 3.21 1.89 6.36 3.032 9.27 3.02 7.72 3.764 16.08 2.276 25.57-.735 4.69-3.998 6.63-7.455 8.67-1.871 1.11-3.807 2.26-5.329 3.87-.266.28-.655.51-1.064.75-.375.22-.763.45-1.121.75-6.539 5.54-7.798 13.95-2.99 20 3.73 4.7 8.56 9.36 15.2 14.67 7.345 5.87 10.388 12.01 9.235 18.82z"/><path d="M122.698 89.343q-.457-.466-.914-.928a.377.377 0 0 0-.536 0 .38.38 0 0 0 0 .54q.631.636 1.258 1.276l.342.348a.38.38 0 0 0 .537.003.38.38 0 0 0 .003-.538l-.215-.22-.127-.129zm6.987 9.306q.353.674.653 1.359a.38.38 0 0 0 .499.198.384.384 0 0 0 .196-.503 21 21 0 0 0-.678-1.411.377.377 0 0 0-.512-.158.38.38 0 0 0-.158.515m-3.042-5.363a.38.38 0 0 0-.536.002.38.38 0 0 0 .002.54q.537.537 1.027 1.102a.374.374 0 0 0 .534.037.38.38 0 0 0 .037-.537 21 21 0 0 0-1.064-1.144m.163 26.757a.38.38 0 0 0 .537.003c.369-.367.726-.755 1.062-1.15a.38.38 0 0 0-.042-.538.377.377 0 0 0-.534.042c-.322.381-.666.751-1.02 1.102a.387.387 0 0 0-.003.541m5.342-10.786q.016.002.034.002c.195 0 .36-.149.376-.347.047-.524.069-1.058.069-1.591 0-1.031-.087-2.074-.259-3.105a.379.379 0 1 0-.747.127 18 18 0 0 1 .183 4.501.377.377 0 0 0 .344.413m-12.689 16.298a.38.38 0 0 0 .527.097 155 155 0 0 0 3.75-2.676.38.38 0 0 0 .082-.531.375.375 0 0 0-.529-.084c-1.179.869-2.4 1.739-3.733 2.663a.383.383 0 0 0-.097.531m11.862-12.544a.38.38 0 0 0-.487.227c-.172.468-.365.935-.576 1.386a.38.38 0 0 0 .342.544.38.38 0 0 0 .344-.219c.22-.471.422-.958.601-1.448a.38.38 0 0 0-.224-.49M28.865 191.165a.4.4 0 0 0 .158-.035q.705-.327 1.389-.68a.38.38 0 0 0 .163-.514.38.38 0 0 0-.51-.165q-.67.346-1.36.667a.382.382 0 0 0 .16.727m5.508-3.141a27.6 27.6 0 0 0 3.528-3.038.38.38 0 0 0-.005-.54.376.376 0 0 0-.536.004 27 27 0 0 1-3.43 2.955.38.38 0 0 0 .443.619m80.527-58.942 1.277-.847a.38.38 0 0 0 .107-.528.375.375 0 0 0-.524-.108l-1.276.844a.383.383 0 0 0-.11.529.38.38 0 0 0 .526.11m-70.362 47.485q.53-.537 1.09-1.033a.38.38 0 0 0-.498-.574q-.583.512-1.133 1.07a.383.383 0 0 0 .003.54.38.38 0 0 0 .266.109.38.38 0 0 0 .272-.112m-21.269 16.746q.645-.218 1.291-.432l.157-.053a.38.38 0 0 0-.238-.723l-.155.051q-.649.214-1.297.436a.38.38 0 0 0-.238.482.377.377 0 0 0 .48.239m-14.387 5.179 1.44-.52a.38.38 0 1 0-.256-.717l-1.439.518a.382.382 0 0 0 .255.719m-5.795 1.997q.728-.24 1.454-.485a.382.382 0 0 0-.242-.723q-.722.244-1.446.48a.384.384 0 0 0-.244.482.38.38 0 0 0 .478.246m11.547-4.094c1.435-.525 2.871-1.051 4.31-1.567a.386.386 0 0 0 .23-.489.38.38 0 0 0-.485-.231q-2.158.778-4.314 1.57a.383.383 0 0 0 .13.741.4.4 0 0 0 .13-.024M49.134 173c.06 0 .124-.016.18-.047a23.7 23.7 0 0 1 4.15-1.772.38.38 0 0 0 .246-.479.38.38 0 0 0-.477-.247 24.3 24.3 0 0 0-4.28 1.828.383.383 0 0 0 .18.717m-8.276 8.381q.303-.44.595-.901l.253-.389a.385.385 0 0 0-.108-.53.38.38 0 0 0-.526.109l-.26.4q-.281.447-.577.875a.383.383 0 0 0 .31.6.38.38 0 0 0 .313-.164m51.333-36.717 1.227-.914a.383.383 0 0 0 .081-.534.38.38 0 0 0-.53-.082l-1.23.917a.383.383 0 0 0 .225.688c.08 0 .16-.025.228-.075m4.933-3.624 1.238-.897a.38.38 0 0 0 .089-.533.38.38 0 0 0-.529-.089l-1.241.899a.38.38 0 0 0 .443.62m-12.12 9.319a125 125 0 0 1 3.544-2.902.381.381 0 0 0-.466-.601 117 117 0 0 0-3.568 2.921.382.382 0 0 0 .245.673.4.4 0 0 0 .245-.091m17.114-12.852a272 272 0 0 1 3.809-2.556.384.384 0 0 0 .11-.53.38.38 0 0 0-.526-.11q-1.921 1.268-3.82 2.564a.382.382 0 0 0 .427.632m7.651-5.072 1.285-.835a.386.386 0 0 0 .112-.529.38.38 0 0 0-.524-.112l-1.284.835a.384.384 0 0 0-.113.527.38.38 0 0 0 .524.114m-51.886 37.536q.74-.225 1.467-.477a.381.381 0 0 0-.248-.722q-.711.249-1.44.468a.382.382 0 0 0 .22.731m11.091-5.326a51 51 0 0 0 3.717-2.761.38.38 0 0 0-.477-.594 49 49 0 0 1-3.66 2.719.385.385 0 0 0-.105.531.38.38 0 0 0 .525.105m11.516-10.177q.545-.534 1.102-1.057a.386.386 0 0 0 .018-.54.377.377 0 0 0-.536-.016q-.562.527-1.113 1.066a.386.386 0 0 0-.007.54.377.377 0 0 0 .535.007m-17.024 13.295q.082 0 .163-.037a44 44 0 0 0 1.377-.698.383.383 0 0 0 .16-.515.38.38 0 0 0-.514-.16q-.668.355-1.352.685a.384.384 0 0 0-.177.509.38.38 0 0 0 .343.216m12.696-8.94q.556-.53 1.105-1.075a.385.385 0 0 0 .005-.54.38.38 0 0 0-.537-.005q-.543.542-1.094 1.066a.381.381 0 0 0 .52.554M8.787 1216.82a.377.377 0 0 0 .08.53c.401.3.8.61 1.195.92.068.05.15.08.234.08.112 0 .224-.05.298-.15.13-.16.1-.4-.065-.53-.4-.32-.803-.62-1.21-.93a.383.383 0 0 0-.532.08m11.181 10.21a.384.384 0 0 0-.014.54c.348.37.704.74 1.065 1.1.073.07.17.11.268.11.097 0 .194-.04.268-.11a.383.383 0 0 0-.003-.54 80 80 0 0 1-1.048-1.08.376.376 0 0 0-.536-.02m-3.164-2.73c.075.07.17.11.268.11s.194-.04.269-.11a.385.385 0 0 0-.002-.54 85 85 0 0 0-3.313-3.15.385.385 0 0 0-.536.03c-.139.16-.126.4.03.54 1.083.98 2.156 2 3.284 3.12m7.546 6.92a.385.385 0 0 0 .047.54c.387.33.778.65 1.174.97.07.06.153.09.238.09.11 0 .22-.05.295-.14a.386.386 0 0 0-.058-.54q-.586-.48-1.16-.96a.376.376 0 0 0-.536.04M3.72 1213.5a.38.38 0 0 0 .137.52c.434.25.862.52 1.285.78q.094.06.2.06a.39.39 0 0 0 .321-.18.387.387 0 0 0-.12-.53c-.429-.27-.864-.53-1.304-.79a.38.38 0 0 0-.52.14m-7.713-4.08a.375.375 0 0 0-.496.21c-.08.19.012.41.206.49.45.19.898.37 1.35.56.946.38 1.89.79 2.803 1.23a.5.5 0 0 0 .163.04c.143 0 .277-.09.343-.22a.385.385 0 0 0-.181-.51c-.929-.44-1.886-.86-2.844-1.25-.45-.18-.898-.37-1.344-.55m109.017-65.66a.38.38 0 0 0-.52-.14.38.38 0 0 0-.134.52c.772 1.32 1.544 2.63 2.334 3.93a.37.37 0 0 0 .521.12.377.377 0 0 0 .125-.52c-.786-1.29-1.557-2.6-2.326-3.91M.428 1035.1c.067.05.148.08.228.08a.39.39 0 0 0 .304-.16.38.38 0 0 0-.078-.53c-.924-.69-1.851-1.39-2.78-2.07-.29-.22-.57-.43-.847-.66a.383.383 0 0 0-.533.06c-.13.17-.105.41.06.54.284.23.575.45.871.67q1.391 1.035 2.775 2.07m105.807 198.33a.384.384 0 0 0-.517.14.377.377 0 0 0 .14.52q.666.39 1.28.78c.063.04.134.06.204.06.125 0 .248-.06.32-.18a.376.376 0 0 0-.118-.52c-.418-.27-.853-.53-1.309-.8m8.682 8.53a.373.373 0 0 0-.499-.19.38.38 0 0 0-.197.5c.085.19.15.39.22.58h.811c-.102-.3-.208-.59-.335-.89m-4.228-4.93c-.14.15-.13.39.025.54.378.34.729.69 1.055 1.04a.38.38 0 0 0 .278.12c.091 0 .186-.03.258-.1a.38.38 0 0 0 .018-.54c-.34-.37-.706-.73-1.098-1.09a.376.376 0 0 0-.536.03m-.879-83.39c.046 0 .095 0 .139-.02.196-.08.291-.3.214-.5q-.273-.69-.611-1.41a.373.373 0 0 0-.503-.19.384.384 0 0 0-.183.51c.218.47.416.93.591 1.37.06.15.203.24.353.24m1.049 5.94h.033a.38.38 0 0 0 .378-.35 10.5 10.5 0 0 0 .009-1.58.37.37 0 0 0-.405-.35.37.37 0 0 0-.351.4q.023.36.024.69c0 .26-.012.52-.033.77-.018.21.137.4.345.42M17.713 1047.8c.118 0 .236-.05.31-.16a.38.38 0 0 0-.093-.53c-1.237-.87-2.467-1.76-3.69-2.65a.383.383 0 0 0-.53.09.38.38 0 0 0 .084.53c1.228.89 2.46 1.78 3.7 2.65.067.05.142.07.219.07m-7.359-5.35a.375.375 0 0 0 .224-.68l-1.215-.91a.38.38 0 0 0-.53.08c-.125.17-.09.41.079.53l1.216.91c.068.05.147.07.226.07m-4.851-3.63c.113 0 .228-.06.302-.16a.38.38 0 0 0-.075-.53l-1.212-.91a.375.375 0 0 0-.531.08c-.124.16-.09.4.076.53l1.21.91a.4.4 0 0 0 .23.08m17.391 12.11c.145 0 .283-.09.347-.23.085-.19 0-.42-.19-.5-.45-.2-.895-.43-1.332-.66a.383.383 0 0 0-.515.15.39.39 0 0 0 .155.52c.454.24.915.47 1.38.68.05.03.103.04.155.04M97.65 1229.4a.38.38 0 0 0 .167.51c1.351.68 2.699 1.37 4.046 2.06.056.03.114.04.173.04.137 0 .27-.07.338-.2a.39.39 0 0 0-.165-.52c-1.349-.69-2.699-1.38-4.05-2.06a.37.37 0 0 0-.51.17m-.593-56.59c-.286.16-.57.33-.848.49a.38.38 0 0 0-.132.52.38.38 0 0 0 .52.14c.273-.16.55-.33.832-.49l.47-.26c.184-.1.252-.33.152-.51a.376.376 0 0 0-.514-.16zm9.108-6.21a.385.385 0 0 0-.023.54.38.38 0 0 0 .536.02c1.324-1.22 2.318-2.37 3.042-3.5a.39.39 0 0 0-.115-.53.38.38 0 0 0-.524.12c-.687 1.07-1.642 2.17-2.916 3.35m-7.664-33.14a.375.375 0 0 0-.532-.08.38.38 0 0 0-.077.53q.446.615.88 1.23c.074.1.19.16.31.16a.38.38 0 0 0 .31-.6 54 54 0 0 0-.892-1.24m-69.801-81.16c.02.01.037.01.056.01a.382.382 0 0 0 .056-.76c-.499-.08-1.002-.15-1.51-.2a.376.376 0 0 0-.42.33c-.025.21.122.4.33.42.5.06.997.13 1.488.2m30.028 190.19a.373.373 0 0 0-.481-.23c-.472.16-.948.32-1.427.47-.067.02-.102.07-.147.12h1.964c.085-.1.137-.22.091-.36m29.24-42.3c.209 0 .377-.17.38-.38l.001-.33c0-1.44-.104-2.88-.313-4.28a.38.38 0 0 0-.43-.32.376.376 0 0 0-.32.43c.203 1.37.306 2.77.306 4.17l-.003.32c-.003.21.165.38.375.39zm-.686-17.21a.374.374 0 0 0-.492.22c-.193.49-.357.99-.485 1.49a.378.378 0 0 0 .368.47c.168 0 .323-.11.367-.28.12-.47.273-.94.455-1.4a.39.39 0 0 0-.213-.5m-1.414 27.19q-.214.72-.448 1.44a.38.38 0 0 0 .242.48c.04.02.08.02.12.02a.38.38 0 0 0 .36-.26c.157-.49.308-.98.453-1.46a.384.384 0 0 0-.254-.48.383.383 0 0 0-.473.26m-21.552-136.76c.073.08.175.12.276.12.093 0 .186-.03.26-.1.151-.15.16-.39.017-.54-.233-.25-.475-.51-.729-.76l-.344-.34a.375.375 0 0 0-.536.01.37.37 0 0 0 .006.53l.341.35c.245.24.481.48.709.73m22.896 130.88c-.075.5-.16.99-.256 1.49-.04.2.093.4.3.44.025.01.048.01.073.01.176 0 .335-.13.37-.31.1-.5.187-1.01.263-1.51a.39.39 0 0 0-.315-.44c-.21-.03-.4.11-.434.32m-2.722 11.42a.38.38 0 0 0-.456.28c-.232.99-.346 1.85-.346 2.64 0 .76.104 1.44.318 2.08a.38.38 0 0 0 .48.24.39.39 0 0 0 .239-.49 5.7 5.7 0 0 1-.278-1.83c0-.73.106-1.53.325-2.46a.38.38 0 0 0-.282-.46m3.833 9.44c.059.04.124.05.188.05.13 0 .259-.06.33-.19a.385.385 0 0 0-.142-.52c-.47-.27-.88-.52-1.255-.79a.38.38 0 0 0-.43.63c.392.27.82.54 1.309.82m.591-101.51q-.61-.465-1.235-.9a.38.38 0 0 0-.529.09.38.38 0 0 0 .095.53c.409.29.812.59 1.212.89a.37.37 0 0 0 .531-.07.39.39 0 0 0-.074-.54m-20.795-32.09-.274 1.5c-.04.21.096.41.303.44a.2.2 0 0 0 .07.01.38.38 0 0 0 .37-.31l.277-1.5a.37.37 0 0 0-.304-.44.38.38 0 0 0-.442.3m-1.013-15.08a.385.385 0 0 0-.144.52 14.8 14.8 0 0 1 1.564 4.14c.037.18.195.31.37.31.026 0 .054-.01.08-.01a.39.39 0 0 0 .29-.46 15.6 15.6 0 0 0-1.643-4.36.38.38 0 0 0-.517-.14m-.452 26.03h.043c.19 0 .355-.15.377-.34.128-1.18.332-2.52.684-4.49.037-.2-.1-.4-.306-.44a.385.385 0 0 0-.44.31c-.356 1.98-.563 3.34-.693 4.54-.023.21.127.39.335.42m.027 5.76c.053.16.2.26.36.26.04 0 .08 0 .12-.01a.393.393 0 0 0 .24-.49 9 9 0 0 1-.338-1.41.385.385 0 0 0-.434-.32.383.383 0 0 0-.316.44c.086.54.207 1.04.368 1.53m20.07 82.91a.38.38 0 0 0 .28-.46c-.117-.48-.207-.97-.268-1.45a.38.38 0 0 0-.423-.33.386.386 0 0 0-.328.43q.095.765.282 1.53c.043.18.196.3.369.3.03 0 .059-.01.088-.02M37.414 1054.5c.043.02.084.02.127.02.156 0 .302-.1.357-.25a.383.383 0 0 0-.23-.49c-1.438-.51-2.91-.96-4.377-1.33a.377.377 0 0 0-.459.28c-.05.2.072.41.276.46 1.442.36 2.89.81 4.306 1.31m45.996 66.52.175-.34.099-.38-1.268-.65a.37.37 0 0 0-.51.16.374.374 0 0 0 .16.51l1.271.66zm-14.131-35.81a.39.39 0 0 0-.391.37q-.023.735-.09 1.5c-.02.21.132.39.342.41h.034a.38.38 0 0 0 .378-.34c.047-.53.08-1.04.094-1.55a.38.38 0 0 0-.367-.39m-.074 26.45a.383.383 0 0 0 .002.54c.342.35.729.7 1.145 1.05.07.06.157.08.242.08.11 0 .217-.04.293-.13a.387.387 0 0 0-.05-.54c-.4-.33-.768-.67-1.096-1a.375.375 0 0 0-.536 0m32.695 26.87a.377.377 0 0 0-.522-.12.377.377 0 0 0-.121.52c.267.43.531.86.792 1.3.071.11.197.18.325.18.066 0 .134-.02.195-.06.18-.11.236-.34.127-.52-.263-.44-.527-.87-.796-1.3m-6.57-8c.09 0 .18-.03.252-.1.156-.14.17-.38.03-.54a49 49 0 0 0-3.2-3.28.367.367 0 0 0-.535.02.385.385 0 0 0 .019.54c1.08 1.01 2.14 2.1 3.15 3.23.077.09.178.13.283.13m-39.639-65.25a.383.383 0 0 0 .24-.68 87 87 0 0 0-3.598-2.82.384.384 0 0 0-.53.09.38.38 0 0 0 .083.53c1.169.86 2.369 1.8 3.564 2.79.07.06.155.09.24.09m36.537 161.42a.384.384 0 0 0 .174.51l1.358.67c.053.02.11.04.167.04.14 0 .275-.08.34-.22a.38.38 0 0 0-.173-.51l-1.36-.67a.38.38 0 0 0-.506.18m-3.071-47.51c-.132.16-.107.4.056.53.07.06.155.09.239.09.11 0 .22-.05.295-.14.872-1.09 1.938-2.15 3.166-3.15a.39.39 0 0 0 .055-.54.384.384 0 0 0-.535-.05c-1.267 1.03-2.37 2.13-3.276 3.26m12.318-8.85a.373.373 0 0 0-.112.52c.072.12.193.18.317.18q.111 0 .207-.06c.298-.2.589-.4.872-.61l.383-.29a.38.38 0 0 0 .073-.53.37.37 0 0 0-.529-.08l-.38.29c-.27.2-.547.39-.831.58M43.102 1056.9a.38.38 0 0 0 .168-.72q-.679-.345-1.373-.66a.374.374 0 0 0-.502.18c-.087.2-.004.42.186.51.454.21.905.43 1.351.65.055.03.112.04.17.04m5.262 3c.125 0 .248-.07.32-.18a.39.39 0 0 0-.116-.53c-.428-.27-.861-.54-1.295-.8a.377.377 0 0 0-.521.13.38.38 0 0 0 .13.52c.43.26.856.53 1.28.8.062.04.133.06.202.06M62.7 1241.05a.395.395 0 0 0-.338.43c.021.19.186.34.377.34.013 0 .028-.01.04-.01a9 9 0 0 1 1.442-.03c.202.02.391-.14.406-.35a.383.383 0 0 0-.349-.41 9.4 9.4 0 0 0-1.579.03m-2.452-171.76c.102 0 .204-.04.279-.12a.385.385 0 0 0-.022-.54c-.372-.35-.745-.69-1.122-1.03a.376.376 0 0 0-.536.03c-.14.15-.128.39.028.53.374.34.746.68 1.115 1.03.074.06.165.1.258.1M29.64 1234.9a.37.37 0 0 0-.53.08.38.38 0 0 0 .084.53c1.097.81 2.28 1.64 3.722 2.64a.39.39 0 0 0 .525-.1.38.38 0 0 0-.097-.53c-1.437-.99-2.613-1.83-3.704-2.62m6.936 5.28a.383.383 0 0 0 .102.53l1.251.85q.102.06.214.06a.384.384 0 0 0 .213-.7l-1.255-.85a.38.38 0 0 0-.525.11m41.657-121.95c.134 0 .264-.08.334-.2.1-.19.032-.42-.152-.52a75 75 0 0 1-3.912-2.27.38.38 0 0 0-.522.13c-.11.18-.055.41.124.52 1.108.69 2.4 1.44 3.948 2.29a.4.4 0 0 0 .18.05M98.796 1.854A36.7 36.7 0 0 0 104.783 0h-2.189a37 37 0 0 1-3.958 1.109C91.727 2.604 86.221 7.21 83.53 13.745c-2.847 6.911-2.148 14.783 1.874 21.055 4.593 7.165 11.923 11.355 19.265 11.355 1.61-.001 3.22-.202 4.801-.618 20.628-5.422 37.715-7.655 53.756-7.034 3.886.15 11.327-.056 17.505-3.133 10.003-4.988 20.892-6.203 31.424-7.38 6.176-.69 12.563-1.403 18.71-2.869 5.499-1.31 11.568.234 17.092 4.344.345.259.683.524 1.023.791.651.516 1.325 1.049 2.044 1.503 1.337.843 2.695 1.872 4.008 2.867 4.782 3.623 9.725 7.373 15.943 4.533 10.995-5.028 22.914-11.596 25.183-25.997.822-5.21 2.279-9.518 4.477-13.162h-.898c-2.113 3.64-3.52 7.916-4.328 13.043-2.211 14.025-13.934 20.476-24.749 25.42-5.799 2.651-10.564-.958-15.172-4.447-1.324-1.004-2.697-2.043-4.061-2.905-.685-.43-1.343-.952-1.979-1.454a44 44 0 0 0-1.04-.804c-5.705-4.248-11.996-5.838-17.717-4.474-6.103 1.454-12.467 2.164-18.62 2.853-10.597 1.182-21.553 2.408-31.677 7.453-6.027 3.005-13.324 3.204-17.139 3.057-16.118-.628-33.273 1.616-53.975 7.057-8.35 2.193-17.903-2.089-23.238-10.413a22.11 22.11 0 0 1-1.811-20.349c2.595-6.3 7.904-10.74 14.566-12.183M-74.572 7.856c.158.95.301 2.034-.001 2.832-3.538 9.313.013 17.354 3.448 25.133.617 1.397 1.235 2.796 1.816 4.207.838 2.037 1.483 4.23 2.104 6.353 1.648 5.605 3.35 11.401 8.802 15.065 5.19 3.488 11.07 6.834 17.477 9.947 2.707 1.314 5.249 1.17 7.163-.409 2.166-1.786 3.125-5.206 2.33-8.314-.81-3.165-1.899-6.305-2.954-9.34-1.023-2.944-2.081-5.99-2.874-9.042-.623-2.394-.434-5.928.742-6.896 1.12-.921 4.325-.38 6.914.63 3.667 1.43 7.23 3.35 10.675 5.206l1.454.784c5.435 2.912 9.078 7.346 10.259 12.485 1.06 4.62.02 9.284-3.011 13.49-2.062 2.862-2.88 5.25-2.5 7.3.328 1.768 1.528 3.305 3.672 4.701 1.209.789 2.323 1.115 3.372 1.115 2.644 0 4.858-2.078 7.02-4.107l.674-.628c4.298-3.981 9.454-8.537 15.099-12.16 14.02-8.998 16.878-15.692 13.895-32.562-.823-4.659-.462-9.633-.112-14.445l.052-.695c.474-6.587-.55-12.681-3.073-18.506h-.834c2.572 5.804 3.623 11.877 3.15 18.45l-.05.696c-.354 4.858-.72 9.88.12 14.634 2.913 16.468.126 23.004-13.556 31.784C11.006 69.22 5.82 73.802 1.496 77.805l-.677.633c-2.936 2.755-5.711 5.356-9.462 2.91-1.96-1.276-3.052-2.651-3.339-4.2-.34-1.834.434-4.03 2.37-6.714 3.115-4.325 4.23-9.336 3.134-14.11-1.23-5.355-5.01-9.968-10.64-12.985l-1.455-.782c-3.464-1.87-7.048-3.8-10.757-5.246-2.089-.815-6.056-1.838-7.668-.51-1.589 1.308-1.597 5.372-.998 7.68.801 3.082 1.866 6.142 2.893 9.1 1.05 3.022 2.134 6.145 2.934 9.277.725 2.833-.13 5.931-2.075 7.537-1.672 1.376-3.928 1.488-6.352.31-6.376-3.096-12.224-6.425-17.386-9.892-5.224-3.512-6.814-8.92-8.493-14.649-.63-2.14-1.28-4.354-2.133-6.43-.583-1.415-1.205-2.82-1.823-4.223-3.528-7.987-6.86-15.53-3.435-24.55.372-.978.217-2.18.043-3.23-.428-2.578-.873-5.154-1.308-7.731h-.77c.442 2.619.894 5.236 1.33 7.856"/><path d="M122.752 9.04c1.7-2.95 3.417-5.937 4.864-9.04h-.856c-1.403 2.962-3.034 5.83-4.663 8.659-1.088 1.889-2.214 3.842-3.246 5.79-2.083 3.932-2.595 6.523-1.661 8.4.908 1.823 3.228 2.966 7.307 3.596 10.492 1.627 20.161 2.917 29.443 2.917 10.569 0 20.632-1.675 30.825-6.434 3.669-1.715 8.158-1.896 12.501-2.071 2.311-.092 4.702-.19 6.974-.51 2.304-.329 4.614-.633 6.926-.937 7.485-.986 15.224-2.004 22.643-3.84 6.862-1.7 12.537.367 17.184 2.612 8.802 4.254 16.247 5.013 22.131 2.26 5.914-2.766 10.164-9.042 12.631-18.653.15-.589.279-1.191.417-1.789h-.779c-.124.533-.239 1.072-.375 1.599-2.405 9.378-6.515 15.485-12.213 18.15-5.671 2.653-12.896 1.895-21.484-2.255-4.768-2.304-10.603-4.422-17.692-2.665-7.379 1.825-15.098 2.843-22.562 3.824-2.313.306-4.626.61-6.933.937-2.234.318-4.606.414-6.899.505-4.417.177-8.982.36-12.791 2.139-18.949 8.853-37.521 6.914-59.831 3.458-3.814-.591-5.957-1.602-6.744-3.183-.813-1.634-.304-4.01 1.65-7.701 1.026-1.935 2.148-3.884 3.233-5.769"/><path d="M167.778 12.724c3.195.051 6.447-.002 9.59-.053 5.063-.082 10.297-.167 15.411.183q2.273.155 4.523.153c12.008 0 23.487-3.147 34.291-6.427 5.136-1.558 11.907-2.882 18.707.746 1.178.627 2.461 1.064 3.702 1.486.789.269 1.605.546 2.375.868 4.743 1.978 9.099 1.215 13.316-2.326C271.6 5.752 273.05 3.086 273.98 0h-.758c-.893 2.838-2.248 5.283-4.015 6.768-4.035 3.39-8.022 4.09-12.54 2.208-.794-.334-1.621-.614-2.421-.887-1.212-.412-2.468-.839-3.59-1.438-7.044-3.758-14.006-2.401-19.283-.8-12.083 3.668-25.023 7.17-38.542 6.242-5.144-.352-10.396-.267-15.475-.185-3.138.051-6.383.104-9.565.053-8.033-.13-16.526-5.25-21.233-11.961h-.918c4.788 7.115 13.715 12.588 22.138 12.724M-62.165.956c1.238 4.314 3.777 9.86 8.843 11.791 3.79 1.445 8.259.55 13.285-2.657C-25.137.582-22.834.943-9.216 14.925c.293.298.573.62.852.941.688.79 1.397 1.605 2.295 2.121a83 83 0 0 1 2.262 1.379c2.952 1.84 5.015 3.061 6.205 3.061.291 0 .53-.073.716-.228 3.51-2.936 5.498-7.85 6.372-10.517 1.287-3.933 1.416-7.83.957-11.682h-.766c.46 3.79.344 7.612-.911 11.443-.849 2.589-2.772 7.355-6.136 10.168-.589.498-4.002-1.625-6.037-2.894-.815-.508-1.599-.997-2.285-1.392-.788-.453-1.426-1.186-2.1-1.96-.29-.333-.58-.666-.88-.975C-22.547.146-25.22-.27-40.443 9.445c-4.814 3.072-9.058 3.943-12.61 2.588-4.773-1.82-7.193-7.143-8.383-11.29-.07-.244-.124-.495-.187-.743h-.784c.08.32.152.64.242.956"/><path d="M193.352 3.591c6.295 0 12.62-1.215 18.949-3.591h-2.215c-11.164 3.754-22.301 3.743-33.284 0h-2.251c6.223 2.382 12.496 3.591 18.801 3.591m-4.338 345.067c1.997 0 4.065-.395 6.161-.873 6.26-1.429 7.771-6.773 8.427-11.812 1.046-8.073-.121-14.896-3.574-20.857-1.359-2.348-2.551-4.861-3.703-7.289-1.246-2.627-2.535-5.345-4.048-7.88-1.209-2.027-2.921-3.767-4.574-5.452a67 67 0 0 1-2.192-2.301.38.38 0 1 0-.564.511 66 66 0 0 0 2.217 2.326c1.621 1.652 3.302 3.361 4.464 5.31 1.494 2.503 2.773 5.204 4.013 7.815 1.157 2.442 2.356 4.969 3.733 7.345 3.363 5.81 4.501 12.473 3.475 20.373-.62 4.778-2.037 9.841-7.841 11.167-5.32 1.214-10.045 1.831-14.079-2.914-12.406-14.601-10.636-38.616 3.791-51.391a.38.38 0 0 0 .13-.286.37.37 0 0 0-.096-.251.376.376 0 0 0-.535-.036c-14.726 13.04-16.532 37.554-3.865 52.46 2.618 3.082 5.553 4.037 8.66 4.035M-4.868 1193.35c-2.243-1.62-4.37-3.49-6.426-5.31-2.336-2.06-4.753-4.19-7.364-5.96-7.66-5.2-10.72-11.42-9.628-19.57.996-7.45-1.369-14.45-7.03-20.81-5.325-5.99-4.9-12.24-3.648-18.09l.698-3.24c1.5-6.93 3.051-14.09 3.767-21.23 1.141-11.35 5.324-18.09 13.565-21.83 5.476-2.49 10.796-5.8 12.622-13.14.385-1.55 2.221-2.85 3.997-4.11.844-.6 1.717-1.22 2.447-1.87a.38.38 0 0 0 .127-.28c.002.14.077.27.206.33 2.08 1.09 4.168 2.16 6.254 3.24 5.17 2.67 10.518 5.42 15.71 8.26 2.279 1.24 5.188 2.97 7.448 5.29 1.786 1.84 2.6 3.68 2.418 5.48-.19 1.88-1.515 3.71-3.83 5.28-1.765 1.19-3.8 2.08-5.766 2.94l-.222.1c-5.156 2.25-8.224 5.41-8.877 9.13-.639 3.64 1.101 7.55 5.03 11.3 2.542 2.43 5.124 4.25 7.678 5.39 12.883 5.78 26.054 11.49 38.792 17.01l6.69 2.91c9.237 4 15.385 10.15 16.446 16.43.887 5.26-1.567 10.62-7.299 15.92-4.158 3.85-7.764 9.44-9.891 15.33-3.698 10.23-9.435 19.92-17.545 29.62-3.461 4.14-6.084 6-8.772 6.23-2.574.21-5.298-1.06-8.876-4.13-8.376-7.18-17.369-11.97-27.491-14.64-4.076-1.08-7.964-3.63-11.23-5.98m47.042 25.53c.207 0 .413-.01.618-.02 2.907-.25 5.685-2.19 9.29-6.5 8.168-9.76 13.95-19.53 17.675-29.85 2.09-5.78 5.623-11.25 9.694-15.02 5.932-5.49 8.466-11.09 7.532-16.62-1.104-6.53-7.419-12.89-16.892-17l-6.691-2.91c-12.736-5.52-25.905-11.23-38.784-17.01-2.472-1.11-4.985-2.87-7.463-5.24-3.736-3.57-5.398-7.24-4.806-10.62.607-3.45 3.522-6.41 8.433-8.56l.22-.1c2-.87 4.066-1.78 5.89-3.01 2.507-1.7 3.945-3.72 4.159-5.83.207-2.04-.68-4.09-2.63-6.09-2.331-2.4-5.303-4.16-7.629-5.43-5.199-2.84-10.55-5.6-15.726-8.27-2.084-1.07-4.17-2.15-6.251-3.23a.37.37 0 0 0-.51.16.4.4 0 0 0-.044.17.378.378 0 0 0-.632-.28c-.696.62-1.55 1.23-2.38 1.82-1.888 1.34-3.841 2.72-4.296 4.55-1.65 6.63-6.07 9.84-12.198 12.63-8.515 3.86-12.836 10.79-14.006 22.44-.713 7.1-2.259 14.24-3.755 21.14l-.699 3.25c-1.23 5.76-1.74 12.5 3.825 18.75 5.509 6.2 7.81 12.99 6.844 20.21-1.133 8.47 2.03 14.92 9.957 20.3 2.57 1.75 4.968 3.86 7.287 5.91 2.07 1.82 4.211 3.71 6.484 5.35 3.323 2.39 7.285 4.99 11.48 6.1 10.01 2.64 18.904 7.38 27.192 14.48 3.466 2.97 6.217 4.33 8.812 4.33"/><path d="M-20.44 1120.37c-.8-4.38.38-10.49 6.345-13.28a.37.37 0 0 0 .22-.33c.003.16.11.3.27.35.81.25 1.654.45 2.47.64 1.728.41 3.516.84 4.993 1.69 8.994 5.19 18.073 10.57 26.853 15.79 3.956 2.34 7.91 4.69 11.87 7.03 2.962 1.74 5.942 3.46 8.92 5.17 6.066 3.49 12.336 7.1 18.323 10.93 7.379 4.72 8.784 9.23 5.014 16.08-3.731 6.79-8.825 12.98-13.75 18.96l-1.309 1.59c-1.25 1.52-4.347 2.34-6.33 2.12-1.964-.21-4.002-.37-5.971-.52-6.222-.48-12.656-.97-18.07-3.41-27.166-12.24-35.206-37.42-39.848-62.81m63.806 67.5c.242.03.496.04.758.04 2.172 0 4.969-.88 6.241-2.43l1.308-1.59c4.946-6.01 10.063-12.23 13.83-19.08 3.966-7.21 2.438-12.16-5.273-17.09-6-3.84-12.28-7.45-18.352-10.95a994 994 0 0 1-8.911-5.17c-3.96-2.34-7.916-4.68-11.87-7.03-8.783-5.21-17.863-10.6-26.862-15.79-1.572-.91-3.414-1.34-5.196-1.77a40 40 0 0 1-2.427-.63.383.383 0 0 0-.487.36.4.4 0 0 0-.035-.15.39.39 0 0 0-.504-.19c-6.358 2.98-7.622 9.46-6.773 14.1 4.68 25.6 12.8 50.99 40.285 63.38 5.535 2.49 12.036 2.99 18.32 3.47 1.965.15 3.996.31 5.948.52m173.85-70.04c2.534-.84 5.183-1.51 7.743-2.16 1.203-.3 2.405-.6 3.602-.92a.39.39 0 0 0 .281-.36c.003.2.159.36.361.37 9.282.47 14.476 5.22 16.345 14.95l.053.28c2.128 11.07 4.328 22.53 12.913 31.23 2.658 2.7 5.293 5.51 7.842 8.22 2.641 2.82 5.371 5.73 8.135 8.52 3.958 4 3.966 7.52.02 11.77-3.805 4.1-8.608 5.46-13.692 6.91-1.452.42-2.955.84-4.409 1.34-17.198 5.82-20.737 4.45-29.121-11.28-5.958-11.19-12.783-18-21.483-21.44-5.309-2.1-7.112-5.71-8.186-10.49-3.391-15.08 5.765-32.34 19.596-36.94m-11.686 48.14c8.521 3.37 15.223 10.07 21.09 21.09 5.627 10.56 9.252 14.84 16.064 14.83 3.547 0 7.959-1.16 13.967-3.19 1.439-.49 2.931-.91 4.375-1.32 4.959-1.42 10.09-2.88 14.04-7.13 4.236-4.57 4.226-8.52-.038-12.83-2.756-2.78-5.484-5.69-8.122-8.5-2.552-2.72-5.189-5.53-7.855-8.24-8.421-8.53-10.598-19.87-12.705-30.84l-.053-.27c-1.92-9.99-7.497-15.09-17.053-15.57-.235-.02-.388.15-.397.36l-.001.01q0-.045-.012-.09a.385.385 0 0 0-.465-.27c-1.191.32-2.39.62-3.589.92-2.574.65-5.237 1.32-7.799 2.17-14.176 4.72-23.569 22.4-20.097 37.84 1.126 5.01 3.029 8.81 8.65 11.03m-36.161-174.828c2.415-.427 4.891-.762 7.285-1.085q1.661-.222 3.319-.458a.384.384 0 0 0 .327-.373.38.38 0 0 0 .377.376h.005l.611-.006c4.706-.059 8.421-.103 9.888 6.52 1.16 5.244.204 10.104-2.772 14.034-3.479 4.6-9.343 7.44-16.089 7.79-8.563.44-12.461-3.14-13.906-12.77-1.171-7.814 2.515-12.535 10.955-14.028m-11.703 14.148c1.42 9.46 5.316 13.45 13.327 13.45.441 0 .897-.01 1.367-.04 6.968-.36 13.039-3.31 16.654-8.09 3.113-4.12 4.12-9.19 2.907-14.662-1.599-7.226-5.8-7.175-10.635-7.115l-.611.006a.38.38 0 0 0-.375.378.382.382 0 0 0-.433-.374c-1.104.158-2.21.307-3.314.458-2.401.323-4.885.66-7.315 1.089-8.924 1.58-12.82 6.591-11.572 14.9m121.38 7.39c-6.062 7.32-14.405 8.17-22.508 8.01-5.894-.11-9.639-3.26-10.274-8.62-.149-1.26-.285-2.52-.42-3.79-.462-4.3-.941-8.758-1.972-13.013-1.171-4.832-.006-8.249 3.78-11.083a.39.39 0 0 0 .152-.299c.003.146.09.284.232.345 2.879 1.219 5.774 2.407 8.67 3.597 6.645 2.728 13.518 5.55 20.079 8.722 2.859 1.382 4.681 3.551 5.267 6.261.679 3.15-.417 6.75-3.006 9.87m-1.932-16.819c-6.583-3.182-13.466-6.007-20.12-8.741a822 822 0 0 1-8.663-3.594.38.38 0 0 0-.527.345.38.38 0 0 0-.607-.299c-4.064 3.042-5.315 6.705-4.062 11.875 1.02 4.206 1.495 8.633 1.954 12.923.136 1.26.272 2.53.422 3.79.685 5.78 4.699 9.17 11.012 9.3.549.01 1.1.01 1.652.01 7.767 0 15.603-1.24 21.454-8.3 2.74-3.31 3.893-7.14 3.164-10.52-.638-2.954-2.603-5.301-5.679-6.789M82.85 1009.71c-1.415 1.03-3.72.92-6.672-.31-2.322-.96-4.705-2.39-7.497-4.5-2.406-1.82-4.774-3.79-7.062-5.689-1.663-1.381-3.383-2.81-5.108-4.174-5.505-4.353-8.18-9.507-7.533-14.514.657-5.082 4.653-9.456 11.25-12.321a.38.38 0 0 0 .228-.342c.003.175.127.33.306.367 8.806 1.77 17.66 4.275 20.703 13.564 2.136 6.521 2.607 13.735 3.061 20.709l.082 1.25c.196 2.97-.396 4.98-1.758 5.96m2.432-7.26c-.457-7.022-.93-14.286-3.098-20.897-3.17-9.68-12.247-12.262-21.275-14.074a.38.38 0 0 0-.453.364.378.378 0 0 0-.53-.341c-6.852 2.975-11.007 7.564-11.7 12.923-.683 5.283 2.092 10.686 7.815 15.213 1.718 1.358 3.435 2.784 5.096 4.162 2.295 1.91 4.667 3.88 7.088 5.71 2.846 2.15 5.281 3.61 7.663 4.6 1.721.71 3.23 1.07 4.514 1.07 1.143 0 2.11-.28 2.89-.85 1.59-1.15 2.287-3.38 2.073-6.63zM-3.522 353.104c.16-.052.263-.2.266-.358a.38.38 0 0 0 .136.287c.924.773 1.957 1.507 2.956 2.215 2.272 1.611 4.623 3.277 5.719 5.521.813 1.663 2.172 4.446 1.29 6.62-.452 1.113-1.472 1.957-3.034 2.509-1.81.639-5.257-.079-8.574-1.792-3.154-1.628-5.442-3.768-5.97-5.588-1.57-5.394 1.747-7.664 7.211-9.414m-7.94 9.628c.595 2.044 2.969 4.307 6.352 6.053 2.633 1.36 5.3 2.107 7.326 2.107.7 0 1.327-.09 1.848-.275 1.773-.627 2.946-1.616 3.483-2.939 1.011-2.491-.443-5.467-1.337-7.299-1.156-2.366-3.587-4.089-5.938-5.754-.986-.701-2.008-1.424-2.908-2.178a.374.374 0 0 0-.531.048.38.38 0 0 0-.09.238.4.4 0 0 0-.018-.109.377.377 0 0 0-.476-.248c-5.095 1.632-9.556 4.018-7.71 10.356m115.733 597c-2.72 3.133-5.92 6.551-9.473 7.441-5 1.258-7.407-3.045-9.261-7.882-.162-.428-.347-.865-.533-1.311-.834-1.986-1.696-4.04-.955-5.65.483-1.054 1.61-1.848 3.447-2.43a.38.38 0 0 0 .265-.355c.003.162.11.308.272.358 1.262.372 2.564.706 3.823 1.028 3.028.773 6.157 1.572 8.89 2.986 1.809.933 3.751 5.259 3.525 5.815m-3.178-6.494c-2.81-1.453-5.982-2.263-9.05-3.048-1.253-.319-2.547-.65-3.796-1.02a.38.38 0 0 0-.486.358.38.38 0 0 0-.493-.355c-2.051.649-3.33 1.578-3.908 2.835-.88 1.918.047 4.13.944 6.269.183.437.365.868.524 1.287 1.11 2.895 3.29 8.591 8.303 8.591.579 0 1.194-.075 1.851-.239 3.766-.946 7.065-4.461 9.861-7.682.188-.217.233-.549.137-1.048-.321-1.685-2.229-5.092-3.887-5.948"/><path d="M-42.38 240.931c1.89.307 3.351 1.233 4.342 2.753 1.63 2.502 1.857 6.505.645 11.271-.222.87-.567 1.767-.9 2.636-.649 1.683-1.317 3.425-1.148 5.111.225 2.196 1.668 4.791 3.863 6.94.333.325 1.02.4 2.037.229 1.159-.198 3.051-.828 3.518-1.761 1.717-3.432 3.119-7.085 4.475-10.616a274 274 0 0 1 1.79-4.583c3.269-8.085 1.741-14.235-4.67-18.801-3.672-2.615-5.113-5.727-4.403-9.51.297-1.583.665-3.184 1.02-4.732q.2-.874.397-1.75c.538.12 1.088.214 1.626.306 1.449.248 2.817.483 3.908 1.163 9.006 5.619 18.073 5.326 27.725-.894 1.265-.815 2.375-1.878 3.448-2.905.858-.821 1.745-1.67 2.694-2.374 6.94-5.145 16.259-10.142 26.819-3.026 2.624 1.767 5.336 3.999 8.29 6.82 4.767 4.547 9.284 8.159 16.341 6.232 7.456-2.036 10.306-8.91 10.48-14.177.542-16.229 7.835-28.99 16.593-42.81 8.539-13.477 20.327-22.732 38.217-30.012a220 220 0 0 1 5.615-2.166c7.086-2.659 14.413-5.407 20.284-10.938l.153-.145c1.227-1.157 2.755-2.598 4.151-2.714 10.309-.858 18.919-6.033 27.245-11.04l.971-.583a.38.38 0 0 0 .186-.323c.002.106.046.21.133.285.57.49 1.206.95 1.823 1.393 1.351.974 2.628 1.894 3.285 3.135 1.685 3.187 3.234 6.522 4.732 9.748 1.894 4.082 3.854 8.303 6.114 12.272 4.881 8.573 6 15.157 3.86 22.723-3.08 10.89-.995 19.954 6.028 26.211 10.725 9.556 16.337 21.89 20.414 32.696 5.523 14.641 14.966 25.56 28.063 32.453 3.928 2.068 7.915 5.529 11.224 9.749 9.693 12.358 7.202 31.044-5.925 44.432-12.408 12.655-13.27 19.16-4.611 34.796 5.881 10.624 4.951 19.961-2.927 29.389-1.481 1.774-2.642 3.841-3.767 5.839-.759 1.352-1.544 2.749-2.419 4.036-3.828 5.634-7.951 9.438-13.371 12.333-6.97 3.724-14.411 6.77-21.606 9.716-10.771 4.411-21.908 8.971-31.736 15.904-1.424 1.005-3.32 1.312-5.326 1.637-1.197.195-2.434.394-3.575.757-3.088.983-6.325 1.752-9.457 2.497-8.108 1.93-16.492 3.922-23.261 9.806-2.845 2.472-5.584 5.156-8.232 7.748-2.27 2.223-4.616 4.521-7.015 6.673-5.086 4.563-9.525 8.093-16.409 8.61-5.836.437-11.637 2.402-17.248 4.303q-1.283.434-2.558.86c-3.302 1.097-6.586 2.423-9.763 3.704-3.987 1.612-8.11 3.275-12.28 4.489-8.534 2.485-17.587 6.652-20.016 18.716a30 30 0 0 1-2.99 8.269c-5.357 9.888-29.67 21.92-41.277 20.441-3.342-.425-6.762-2.551-8.714-5.413-1.402-2.058-1.905-4.291-1.417-6.287.356-1.449.66-2.958.954-4.418 1.164-5.786 2.369-11.77 7.14-15.993 5.973-5.288 7.767-12.474 9.503-19.425q.266-1.074.541-2.148a63.5 63.5 0 0 1 5.265-13.633q.512-.969 1.028-1.932c3.564-6.672 7.25-13.571 5.9-22.037-.265-1.655.721-4.293 2.107-5.646 4.668-4.553 6.156-10.414 7.595-16.082.274-1.081.549-2.166.846-3.245l.693-2.496c1.98-7.101 3.07-11.014 1.35-13.541-1.744-2.558-6.342-3.422-15.36-4.29a20 20 0 0 0-1.853-.095c-2.322 0-3.98.522-5.135 1.602-1.304 1.217-1.909 3.091-1.854 5.729.03 1.488-.483 3.053-.979 4.566-.156.473-.31.947-.45 1.418-1.65 5.577-6.034 10.043-11.441 11.655-4.173 1.245-8.291.481-11.298-2.093-2.87-2.459-4.635-6.399-6.34-10.207l-.436-.974c-.736-1.628-1.175-3.47-1.6-5.252-.573-2.388-1.165-4.861-2.476-6.864-5.906-9.017-12.328-17.901-18.538-26.492a2985 2985 0 0 1-4.089-5.664c-8.815-12.248-9.773-22.497-3.11-33.229 3.37-5.426 6.517-11.739 9.906-19.87 3.834-9.201 2.294-13.584-6.865-19.538-7.175-4.666-10.446-11.214-9.72-19.461.325-3.666 2.276-7.234 5.224-9.54 2.472-1.936 5.315-2.763 8.005-2.326m-13.982 11.798c-.755 8.553 2.632 15.337 10.064 20.169 8.85 5.754 10.264 9.753 6.576 18.603-3.372 8.092-6.503 14.371-9.849 19.76-6.852 11.035-5.885 21.547 3.137 34.081q2.042 2.834 4.09 5.666c6.205 8.584 12.623 17.461 18.519 26.464 1.238 1.891 1.789 4.189 2.37 6.622.434 1.817.883 3.694 1.648 5.389l.435.971c1.74 3.887 3.54 7.904 6.54 10.476 3.207 2.744 7.58 3.561 12.005 2.243 5.65-1.684 10.231-6.348 11.954-12.17.137-.463.289-.928.442-1.396.516-1.574 1.05-3.202 1.017-4.821-.051-2.408.477-4.093 1.61-5.153 1.275-1.19 3.31-1.606 6.401-1.306 8.78.844 13.235 1.653 14.807 3.96 1.52 2.233.465 6.022-1.454 12.904l-.694 2.499c-.298 1.085-.574 2.174-.85 3.259-1.478 5.821-2.874 11.32-7.388 15.723-1.393 1.361-2.661 4.223-2.33 6.315 1.31 8.211-2.151 14.694-5.818 21.555q-.517.965-1.029 1.938a64.3 64.3 0 0 0-5.33 13.797q-.275 1.077-.542 2.153c-1.786 7.152-3.473 13.908-9.27 19.039-4.96 4.392-6.191 10.503-7.381 16.415-.29 1.451-.593 2.952-.945 4.387-.543 2.208 0 4.66 1.528 6.899 2.1 3.082 5.641 5.28 9.243 5.739q1.063.135 2.247.134c12.64-.001 34.535-11.268 39.792-20.967a30.8 30.8 0 0 0 3.067-8.483c2.348-11.663 11.166-15.712 19.483-18.134 4.206-1.225 8.348-2.896 12.353-4.514 3.164-1.276 6.438-2.598 9.717-3.688.851-.282 1.706-.572 2.562-.862 5.566-1.885 11.322-3.834 17.062-4.263 7.11-.535 11.841-4.302 16.858-8.802 2.411-2.164 4.764-4.467 7.04-6.696 2.64-2.586 5.371-5.26 8.198-7.716 6.629-5.763 14.921-7.735 22.939-9.642 3.146-.749 6.398-1.521 9.512-2.512 1.088-.346 2.297-.542 3.466-.731 2.004-.325 4.074-.661 5.642-1.767 9.755-6.884 20.853-11.426 31.584-15.82 7.216-2.954 14.676-6.008 21.678-9.75 5.534-2.956 9.741-6.834 13.642-12.576.891-1.314 1.686-2.726 2.453-4.09 1.106-1.969 2.251-4.005 3.687-5.724 8.107-9.703 9.062-19.315 3.007-30.252-8.433-15.231-7.593-21.564 4.49-33.89 13.399-13.665 15.914-32.776 5.981-45.44-3.375-4.302-7.448-7.837-11.469-9.952-12.929-6.805-22.249-17.586-27.704-32.049-4.109-10.891-9.773-23.33-20.621-32.996-8.577-7.643-7.889-18.048-5.802-25.431 2.725-9.633-.279-16.896-3.931-23.31-2.244-3.943-4.196-8.148-6.086-12.216-1.501-3.234-3.054-6.58-4.748-9.783-.741-1.4-2.151-2.415-3.513-3.397-.604-.434-1.227-.884-1.772-1.352a.378.378 0 0 0-.626.284.38.38 0 0 0-.572-.324l-.974.586c-8.252 4.96-16.786 10.091-26.918 10.932-1.661.14-3.295 1.681-4.607 2.92l-.153.143c-5.762 5.426-13.015 8.149-20.032 10.781-1.853.695-3.767 1.413-5.634 2.174-18.047 7.342-29.942 16.69-38.571 30.309-8.82 13.916-16.163 26.773-16.711 43.194-.167 5.008-2.865 11.538-9.92 13.466-6.689 1.824-10.86-1.506-15.622-6.049-2.986-2.85-5.73-5.107-8.39-6.899-10.951-7.38-20.551-2.25-27.691 3.045-.988.732-1.892 1.599-2.766 2.436-1.048 1.002-2.132 2.04-3.335 2.814-9.383 6.046-18.188 6.336-26.916.889-1.218-.76-2.725-1.018-4.183-1.268-.648-.111-1.32-.226-1.945-.382a.38.38 0 0 0-.462.286 249 249 0 0 1-.48 2.12c-.357 1.557-.727 3.164-1.026 4.763-.76 4.052.825 7.507 4.71 10.275 6.166 4.39 7.565 10.076 4.406 17.89-.617 1.523-1.206 3.06-1.795 4.595-1.35 3.516-2.745 7.149-4.446 10.548-.25.502-1.609 1.122-2.967 1.351-.875.149-1.309.05-1.38-.021-1.6-1.566-3.395-4.089-3.637-6.471-.152-1.503.456-3.085 1.1-4.759.34-.889.695-1.808.927-2.722 1.266-4.977 1-9.196-.747-11.878-1.097-1.684-2.775-2.751-4.853-3.089-2.898-.47-5.95.41-8.593 2.478-3.11 2.434-5.17 6.201-5.511 10.074"/><path d="M1.943 243.927c5.388-4.602 10.344-8.589 15.153-12.189 3.122-2.338 6.299-3.506 9.653-3.506 3.28 0 6.729 1.119 10.459 3.357 5 2.996 10.487 5.34 15.792 7.606 1.305.558 2.609 1.115 3.905 1.68 10.517 4.592 17.615 2.869 23.013-5.586 2.647-4.144 3.495-9.855 3.904-13.789.33-3.162.295-6.424.264-9.578-.045-4.409-.093-8.966.867-13.204 3.545-15.665 13.34-28.352 22.816-40.623l2.057-2.667c2.433-3.165 6.403-6.019 10.361-7.448 9.566-3.454 19.437-6.576 28.982-9.595 3.717-1.174 7.434-2.349 11.145-3.547a.38.38 0 0 0 .262-.355l.006.059a.38.38 0 0 0 .44.308c8.525-1.536 16.996 1.045 23.242 7.078 6.489 6.267 9.618 15.454 8.374 24.575-1.718 12.582 5.242 22.873 13.019 32.119 5.562 6.615 9.32 13.847 12.693 20.689 8.018 16.266 17.171 27.275 28.804 34.648 5.032 3.188 9.701 7.129 13.501 11.395 3.632 4.076 4.957 9.727 3.837 16.348-1.519 8.98-7.013 15.264-13.503 21.972-10.384 10.734-13.496 22.918-9.248 36.213 4.833 15.127-2.028 33.034-11.394 38.939-6.686 4.215-14.363 7.133-21.788 9.954-2.743 1.042-5.578 2.12-8.322 3.248-2.514 1.031-5.143 1.914-7.684 2.767-2.46.825-5 1.68-7.446 2.67-2.511 1.017-4.983 2.231-7.373 3.404-1.812.89-3.687 1.811-5.56 2.635-3.596 1.585-7.299 3.097-10.88 4.56-15.92 6.5-32.382 13.224-44.114 28.194-3.008 3.841-6.681 5.625-10.333 5.029-4.208-.686-7.802-4.377-9.86-10.124-3.522-9.837-8.8-17.873-16.135-24.567-3.758-3.429-5.644-6.587-5.764-9.659-.158-4.024 2.718-7.674 5.849-11.02 1.946-2.08 4.466-3.714 6.903-5.295 1.181-.766 2.403-1.557 3.553-2.396.539-.392 1.09-.773 1.643-1.154 1.535-1.061 3.122-2.157 4.428-3.51 3.323-3.439 3.349-7.298.075-11.156-4.587-5.41-10.797-8.758-18.457-9.953-9.442-1.473-16.01-7.484-21.702-13.76-5.314-5.862-3.13-12.166-1.017-18.262.39-1.125.793-2.287 1.136-3.42 3.686-12.113 3.707-13.164-7.148-18.723-9.912-5.077-16.607-11.109-21.071-18.985-3.39-5.981-9.262-9.172-16.987-9.228-7.008-.052-11.681-3.118-13.89-9.111-1.788-4.863-2.628-11.767 3.54-17.037m10.344 26.911c7.438.054 13.087 3.113 16.333 8.843 4.54 8.01 11.336 14.139 21.387 19.286 10.545 5.401 10.332 6.102 6.768 17.821a95 95 0 0 1-1.13 3.392c-2.184 6.307-4.443 12.83 1.175 19.026 5.785 6.38 12.472 12.491 22.147 14.002 7.475 1.166 13.529 4.429 17.997 9.692 3.021 3.563 3.008 6.972-.043 10.131-1.255 1.298-2.81 2.373-4.315 3.411-.556.385-1.114.77-1.659 1.166-1.132.826-2.344 1.613-3.517 2.373-2.477 1.605-5.037 3.265-7.046 5.413-3.244 3.466-6.224 7.268-6.053 11.572.129 3.288 2.095 6.622 6.01 10.196 7.242 6.607 12.453 14.542 15.933 24.259 2.154 6.016 5.964 9.887 10.452 10.619a9 9 0 0 0 1.513.124c3.42 0 6.758-1.888 9.537-5.434 11.607-14.812 27.973-21.496 43.803-27.959 3.587-1.466 7.294-2.979 10.899-4.567 1.888-.831 3.768-1.755 5.588-2.648 2.378-1.168 4.839-2.375 7.325-3.384 2.423-.981 4.955-1.83 7.401-2.652 2.555-.858 5.195-1.746 7.731-2.787 2.735-1.123 5.567-2.199 8.305-3.238 7.458-2.836 15.172-5.766 21.922-10.023 11.641-7.339 15.784-27.077 11.711-39.82-4.153-13.004-1.101-24.929 9.071-35.446 6.579-6.8 12.152-13.179 13.708-22.377 1.162-6.857-.23-12.73-4.019-16.983-3.848-4.32-8.572-8.308-13.663-11.532-11.51-7.296-20.575-18.208-28.529-34.342-3.392-6.883-7.175-14.163-12.793-20.843-7.663-9.111-14.523-19.236-12.847-31.523 1.277-9.361-1.936-18.791-8.599-25.229-6.422-6.205-15.139-8.857-23.901-7.278a.38.38 0 0 0-.313.367.38.38 0 0 0-.494-.355c-3.708 1.197-7.425 2.372-11.14 3.547-9.552 3.021-19.431 6.145-29.011 9.605-4.087 1.474-8.189 4.425-10.704 7.697l-2.056 2.669c-9.525 12.334-19.375 25.089-22.958 40.92-.978 4.325-.931 8.928-.885 13.38.03 3.134.065 6.374-.259 9.491-.401 3.857-1.23 9.449-3.79 13.458-5.157 8.077-11.965 9.709-22.072 5.296-1.299-.566-2.604-1.123-3.91-1.681-5.283-2.256-10.746-4.591-15.7-7.561-7.84-4.7-14.497-4.639-20.954.195-4.822 3.609-9.79 7.606-15.19 12.219-6.505 5.554-5.634 12.792-3.76 17.882 2.294 6.234 7.342 9.555 14.594 9.61"/><path d="M137.519 176.487c2.802-5.599 7.076-7.422 12.027-9.531l.182-.077a.38.38 0 0 0 .23-.344q0 .024.004.047c.03.21.223.352.43.324 4.611-.675 8.394.301 11.243 2.896 4.008 3.652 6.006 10.34 5.628 18.834-.149 3.313-1.146 5.798-2.966 7.388-1.953 1.706-4.846 2.385-8.599 2.022-4.493-.437-9.001-1.769-12.692-3.758-7.996-4.3-10.525-7.724-5.487-17.801m5.13 18.476c3.777 2.032 8.387 3.398 12.977 3.844a21 21 0 0 0 1.957.097c3.037 0 5.457-.772 7.211-2.304 1.984-1.732 3.069-4.4 3.225-7.93.391-8.725-1.696-15.627-5.875-19.434-3.024-2.755-7.015-3.793-11.861-3.085a.38.38 0 0 0-.325.369.378.378 0 0 0-.527-.344l-.18.077c-4.877 2.079-9.484 4.042-12.408 9.891-5.292 10.582-2.486 14.358 5.806 18.819"/><path d="M107.855 201.164c3.167-8.171 7.79-15.95 12.259-23.475 1.107-1.864 2.214-3.727 3.299-5.595 4.039-6.95 10.401-11.641 19.452-14.341 2.582-.771 5.237-1.463 7.805-2.131 1.187-.31 2.372-.619 3.558-.938a.376.376 0 0 0 .28-.361.38.38 0 0 0 .357.375c13.083.774 18.928 6.035 20.85 18.76.313 2.062.48 4.192.643 6.253.216 2.72.44 5.532.995 8.245 1.971 9.632-.732 16.749-8.261 21.755q-1.303.864-2.62 1.712c-2.16 1.401-4.395 2.849-6.483 4.43-4.784 3.622-7.426 8.443-7.438 13.575-.012 5.45 2.85 10.647 8.062 14.631 5.674 4.338 11.593 4.986 18.63 2.038 5.563-2.332 10.1-1.489 13.125 2.436 1.06 1.374 2.236 2.707 3.376 3.997 4.416 4.999 8.586 9.72 7.683 17.787-.346 3.07.835 6.28 1.976 9.385.902 2.448 1.833 4.981 2.03 7.449 1.114 13.921 3.533 28.496 7.618 45.869 4.567 19.434 2.801 26.611-17.129 33.647-11.808 4.169-24.166 7.417-36.118 10.561-4.121 1.084-8.242 2.167-12.35 3.289-1.609.439-4.286.099-4.697-.595a177 177 0 0 0-2.496-4.063c-4.412-7.049-8.971-14.337-7.637-23.852q.162-1.144.331-2.307c1.061-7.299 2.158-14.848.178-21.372-3.443-11.353-3.802-23.108-4.149-34.474-.205-6.753-.418-13.736-1.275-20.562-.802-6.382-2.194-11.584-6.383-16.217-9.144-10.117-17.321-21.704-15.254-37.861.337-2.626-.036-5.437-.398-8.154-.48-3.611-.933-7.022.181-9.896m-.535 17.951c-2.108 16.465 6.177 28.221 15.445 38.473 4.057 4.485 5.409 9.56 6.191 15.8.853 6.789 1.066 13.753 1.271 20.49.348 11.416.708 23.223 4.182 34.673 1.929 6.36.844 13.822-.204 21.038q-.17 1.165-.332 2.312c-1.373 9.792 3.263 17.2 7.746 24.364.84 1.343 1.681 2.686 2.486 4.047.491.832 2.134 1.157 3.621 1.157.733 0 1.428-.079 1.927-.215 4.105-1.122 8.225-2.206 12.343-3.288 11.967-3.147 24.341-6.4 36.177-10.579 17.83-6.295 22.873-12.17 17.616-34.543-4.076-17.334-6.489-31.872-7.601-45.753-.205-2.575-1.155-5.158-2.072-7.654-1.163-3.16-2.26-6.146-1.937-9.035.944-8.404-3.536-13.475-7.868-18.38-1.13-1.28-2.299-2.602-3.342-3.957-3.257-4.226-8.104-5.152-14.019-2.673-6.76 2.834-12.441 2.217-17.878-1.94-5.018-3.838-7.776-8.816-7.762-14.023.01-4.887 2.546-9.492 7.135-12.967 2.066-1.563 4.289-3.005 6.439-4.397.876-.57 1.755-1.138 2.625-1.718 7.818-5.197 10.627-12.572 8.585-22.546-.544-2.664-.766-5.454-.978-8.152-.166-2.072-.335-4.216-.651-6.306-1.987-13.165-8.03-18.606-21.555-19.407a.376.376 0 0 0-.4.359q-.002.006-.002.016a.378.378 0 0 0-.477-.363q-1.773.474-3.551.934c-2.574.672-5.236 1.365-7.831 2.139-9.114 2.72-15.808 7.661-19.89 14.688a686 686 0 0 1-3.297 5.589c-4.486 7.55-9.124 15.358-12.314 23.59-1.185 3.056-.698 6.725-.225 10.274.352 2.668.72 5.427.397 7.953"/><path d="M45.275 258.642q.586-.609 1.898-.609c.784 0 1.763.164 2.927.492 1.042.292 2.083.806 3.09 1.302 1.479.729 3.006 1.482 4.6 1.573 1.613.095 3.3.251 4.932.405 5.597.522 11.384 1.063 16.296-.703 10.098-3.626 15.782-12.509 15.595-24.37-.06-3.832-.039-7.733-.015-11.506.023-4.233.049-8.611-.043-12.917-.257-11.932 2.942-22.1 9.778-31.078 2.543-3.344 5.436-7.266 7.584-11.517 5.119-10.145 13.745-16.564 26.37-19.624 4.023-.976 8.09-2.065 12.024-3.116 1.809-.484 3.619-.97 5.432-1.445a.38.38 0 0 0 .283-.363v.019a.38.38 0 0 0 .406.356c14.666-1.011 23.185 4.726 26.813 18.062.568 2.086.725 4.343.877 6.525.146 2.121.299 4.316.826 6.392.716 2.833 1.329 5.75 1.925 8.573 2.185 10.386 4.443 21.126 12.333 29.909 4.654 5.179 8.829 10.964 12.868 16.558 2.75 3.81 5.593 7.748 8.568 11.474q1.243 1.56 2.47 3.127c5.653 7.205 11.5 14.656 20.263 19.306 5.763 3.055 9.216 7.098 9.985 11.687.764 4.563-1.149 9.474-5.536 14.196-4.425 4.768-9.472 9.118-14.351 13.326l-2.256 1.948c-4.447 3.854-6.205 8.719-5.373 14.873.397 2.948.909 5.932 1.404 8.818.917 5.351 1.866 10.885 2.118 16.348.176 3.826.021 10.939-3.02 15.603-7.661 11.754-20.371 16.399-30.59 19.133q-1.211.323-2.431.641c-4.262 1.117-8.669 2.27-12.758 4.017-4.525 1.934-9.048 4.088-13.422 6.172-6.496 3.092-13.214 6.289-20.039 8.815-12.858 4.759-16.796.196-21.751-7.887-7.127-11.622-7.956-24.088-7.792-35.83.189-13.497-4.395-21.381-14.864-25.562-8.283-3.308-12.413-9.93-12.627-20.245-.33-15.869-4.295-20.963-19.286-24.774-13.114-3.333-21.69-11.212-25.496-23.418-.735-2.357-.741-3.934-.015-4.686m25.326 28.845c14.544 3.698 18.39 8.642 18.713 24.05.221 10.654 4.508 17.504 13.104 20.936 10.271 4.102 14.572 11.531 14.386 24.844-.165 11.856.677 24.454 7.906 36.242 3.631 5.923 6.88 10.171 13.492 10.171 2.505-.001 5.493-.611 9.167-1.969 6.858-2.538 13.59-5.743 20.101-8.843 4.366-2.08 8.882-4.23 13.392-6.156 4.039-1.726 8.418-2.874 12.653-3.984q1.222-.318 2.437-.642c10.348-2.768 23.226-7.48 31.029-19.452 3.157-4.845 3.324-12.139 3.142-16.055-.254-5.512-1.206-11.069-2.128-16.444-.493-2.88-1.004-5.857-1.401-8.791-.793-5.878.881-10.52 5.118-14.191l2.255-1.949c4.895-4.22 9.956-8.584 14.412-13.383 4.554-4.904 6.535-10.036 5.729-14.843-.81-4.833-4.399-9.065-10.38-12.237-8.621-4.573-14.415-11.959-20.021-19.102-.821-1.046-1.642-2.094-2.473-3.134-2.965-3.71-5.804-7.643-8.548-11.444-4.048-5.61-8.237-11.41-12.917-16.622-7.753-8.629-9.99-19.267-12.157-29.554-.593-2.829-1.208-5.755-1.93-8.604-.509-2.01-.66-4.169-.805-6.257-.153-2.218-.313-4.512-.9-6.673-3.74-13.748-12.514-19.664-27.597-18.623a.38.38 0 0 0-.354.374.377.377 0 0 0-.474-.361q-2.72.716-5.438 1.445c-3.927 1.051-7.99 2.139-12.006 3.113-12.852 3.114-21.642 9.662-26.867 20.018-2.12 4.195-4.988 8.083-7.511 11.399-6.943 9.123-10.193 19.447-9.934 31.561.092 4.294.067 8.666.042 12.895-.021 3.777-.043 7.681.017 11.522.183 11.682-5.176 20.078-15.09 23.639-4.758 1.711-10.459 1.177-15.972.662-1.639-.152-3.333-.312-4.963-.406-1.437-.083-2.83-.769-4.307-1.497-1.037-.512-2.11-1.041-3.219-1.352-2.788-.784-4.613-.679-5.575.32-.946.983-1 2.765-.163 5.447 3.888 12.476 12.649 20.526 26.035 23.93m99.824 424.777c3.788-5.762 9.744-9.252 16.34-9.572l.25-.012c2.057-.099 3.544-.17 4.409-1.224.707-.862.872-2.289.538-4.626-.915-6.356-1.095-15.362 7.856-20.172a.38.38 0 0 0 .201-.33.38.38 0 0 0 .175.316c.877.562 1.846 1.07 2.78 1.561 2.022 1.062 4.111 2.158 5.275 3.81 3.099 4.391.443 17.605-3.586 22.295-2.541 2.955-4.067 4.875-3.841 6.62.215 1.672 1.897 2.995 5.414 5.416q1.652 1.131 3.317 2.254c4.243 2.868 8.63 5.834 12.526 9.222 1.957 1.702 4.001 3.377 5.978 4.997 8.437 6.913 17.161 14.065 21.422 25.246 4.542 11.921 13.035 17.046 24.569 14.823.623-.12 1.28-.084 1.972-.046.583.031 1.188.065 1.783-.003 4.945-.546 8.377 1.369 9.192 5.122.727 3.342.474 8.172-1.417 10.944-3.068 4.499-8.443 7.696-14.746 8.772-7.017 1.197-14.268-.344-19.396-4.13-1.523-1.123-3.11-2.22-4.643-3.28-3.022-2.087-6.145-4.245-8.904-6.707a254 254 0 0 0-3.211-2.802c-4.645-4.012-9.449-8.159-12.4-13.233-4.971-8.552-11.727-12.692-22.59-13.838-12.253-1.294-25.824-4.027-31.755-20.184-2.572-7.012-1.642-14.952 2.492-21.239m29.185 42.18c10.594 1.119 17.177 5.148 22.014 13.465 3.014 5.184 7.868 9.376 12.561 13.428 1.081.931 2.154 1.86 3.201 2.794 2.794 2.493 5.936 4.666 8.977 6.765 1.529 1.055 3.11 2.149 4.625 3.267 4.112 3.036 9.539 4.674 15.143 4.674 1.603 0 3.222-.133 4.828-.407 6.505-1.112 12.061-4.425 15.245-9.093 2.104-3.088 2.27-8.146 1.532-11.538-.895-4.111-4.735-6.303-10.015-5.718-.535.059-1.081.03-1.659-.003-.71-.036-1.443-.079-2.156.06-11.287 2.176-19.262-2.651-23.719-14.346-4.333-11.371-13.138-18.587-21.652-25.565-1.972-1.617-4.01-3.288-5.96-4.984-3.93-3.415-8.337-6.397-12.599-9.277-1.107-.748-2.214-1.495-3.312-2.252-3.047-2.095-4.908-3.467-5.089-4.883-.172-1.309.991-2.915 3.66-6.022 4.244-4.936 6.976-18.497 3.634-23.235-1.272-1.803-3.443-2.942-5.544-4.046-.921-.483-1.873-.983-2.723-1.528a.38.38 0 0 0-.583.316.38.38 0 0 0-.558-.331c-9.373 5.035-9.196 14.371-8.25 20.955.298 2.076.18 3.358-.372 4.031-.649.792-1.999.857-3.86.947l-.251.012c-6.84.332-13.013 3.944-16.936 9.912-4.266 6.489-5.227 14.686-2.57 21.926 6.081 16.567 19.906 19.361 32.388 20.676m-208.026 6.409c-.737.938-1.08 2.152-1.416 3.325-.27.946-.549 1.925-1.028 2.718-1.528 2.533-2.953 4.13-4.473 5.024-.056.024-.366.015-.998-.289-1.105-.529-2.465-1.611-2.726-2.375-2.608-7.673-8.087-10.604-15.514-12.643-6.373-1.75-10.927-9.851-10.447-15.392.269-3.107.564-6.216.859-9.324.946-9.957 1.925-20.251 1.974-30.39.04-8.654 3.337-14.177 10.69-17.907 4.256-2.161 8.733-4.076 13.062-5.925 1.953-.834 3.906-1.67 5.847-2.529a.38.38 0 0 0 .228-.342v.028a.38.38 0 0 0 .411.345c6.82-.621 10.737 1.02 12.32 5.171l.413 1.082c2.889 7.554 5.875 15.367 6.269 23.165 1.167 23.052-3.894 41.454-15.471 56.258m9.91-79.698-.411-1.082c-2.266-5.931-8.557-6.071-13.096-5.656a.38.38 0 0 0-.345.372.38.38 0 0 0-.533-.343 505 505 0 0 1-5.838 2.526c-4.341 1.855-8.83 3.774-13.11 5.946-7.535 3.824-11.062 9.73-11.105 18.586-.049 10.104-1.025 20.38-1.97 30.32-.296 3.11-.591 6.222-.861 9.33-.504 5.829 4.294 14.352 11.005 16.194 7.193 1.975 12.497 4.798 14.996 12.154.404 1.192 2.345 2.552 3.557 3.007q.482.182.818.183a.84.84 0 0 0 .443-.111c1.641-.963 3.148-2.645 4.744-5.288.533-.88.825-1.91 1.108-2.904.33-1.153.64-2.243 1.283-3.064C3.875 746.369 8.989 727.8 7.812 704.557c-.4-7.921-3.408-15.791-6.318-23.402"/><path d="M27.27 790.005c-.688 4.496-.515 9.181-.348 13.711.093 2.524.19 5.134.136 7.679-.175 8.224-2.178 13.696-6.128 16.73-4.054 3.114-10.097 3.603-18.473 1.493-3.417-.862-8.189.966-11.516 2.963-6.995 4.196-13.877 5.108-19.373 2.573-5.435-2.507-9.19-8.249-10.57-16.169-.601-3.453-1.667-6.868-2.696-10.172-.603-1.931-1.225-3.929-1.746-5.909-.251-.949-.517-1.898-.782-2.848-.921-3.288-1.872-6.687-2.151-10.061-.186-2.271-.167-4.612-.15-6.876.048-5.677.097-11.546-3.059-16.93-6.912-11.797-8.486-23.963-4.81-37.191 1.9-6.846 2.194-15.204.807-22.931-2.715-15.096 3.771-26.879 18.26-33.179 1.484-.645 3.093-1.147 4.65-1.633 2.58-.804 5.247-1.637 7.442-3.148 9.041-6.232 19.455-10.914 31.836-14.311a.38.38 0 0 0 .28-.358.38.38 0 0 0 .25.348c5.153 1.889 10.879 5.889 9.401 20.185-.803 7.766-1.713 16.568 2.73 23.805 7.09 11.551 4.13 22.136-.126 31.853-2.401 5.481-4.655 11.955-.995 19.442 6.862 14.027 9.195 27.416 7.131 40.934m-5.442-60.069c4.34-9.907 7.352-20.71.077-32.562-4.306-7.016-3.45-15.307-2.62-23.323.804-7.786.407-17.205-9.898-20.981a.378.378 0 0 0-.509.35.38.38 0 0 0-.478-.36c-12.465 3.421-22.953 8.136-32.065 14.416-2.1 1.448-4.713 2.263-7.238 3.05-1.577.492-3.206.999-4.727 1.662-14.846 6.455-21.488 18.535-18.706 34.015 1.368 7.616 1.08 15.85-.791 22.589-3.733 13.44-2.134 25.799 4.887 37.785 3.05 5.202 3.003 10.963 2.957 16.536-.02 2.281-.039 4.64.15 6.944.284 3.449 1.246 6.884 2.176 10.205.264.948.53 1.893.78 2.837.525 1.997 1.15 4.003 1.756 5.943 1.023 3.28 2.08 6.672 2.673 10.074 1.424 8.176 5.33 14.117 11 16.733 2.142.986 4.477 1.476 6.939 1.476 4.131 0 8.619-1.377 13.138-4.089 3.199-1.919 7.753-3.683 10.944-2.878 8.613 2.171 14.868 1.64 19.118-1.627 4.145-3.184 6.245-8.849 6.425-17.322.055-2.565-.043-5.186-.136-7.721-.165-4.494-.336-9.143.34-13.568 2.089-13.676-.267-27.214-7.2-41.387-3.164-6.467-1.885-12.191 1.008-18.797m121.154-59.232c1.067 0 2.196.258 3.336.78 8.255 3.774 14.749 2.305 21.066-4.759 6.245-6.985 14.317-11.59 23.992-13.688a.38.38 0 0 0 .298-.364.38.38 0 0 0 .281.36c.881.243 1.782.45 2.682.657 1.885.436 3.835.885 5.581 1.669 13.758 6.17 20.601 17.775 20.922 35.473.17 9.392 2.45 15.984 7.173 20.746 10.495 10.582 22.421 23.124 31.125 38.081 3.367 5.78 9.014 7.618 15.5 5.038 10.012-3.982 16.445-2.192 23.746 6.605 2.019 2.434 4.316 5.286 5.995 8.345 3.053 5.557 3.946 12.118 2.387 17.552-1.259 4.389-4.099 7.916-8.211 10.198-10.35 5.74-19.527 11.25-28.056 16.845-4.583 3.006-9.039 2.946-14.024-.189-3.048-1.916-5.949-4.204-8.755-6.415-1.129-.889-2.258-1.779-3.397-2.648-1.67-1.271-3.323-2.657-4.923-3.998-3.501-2.934-7.122-5.967-11.171-8.038-9.146-4.681-16.184-11.149-21.862-16.86-7.05-7.092-16.017-10.859-28.217-11.851-11.244-.915-17.441-1.419-20.935-15.508-.4-1.61-.9-3.218-1.384-4.772-.3-.958-.598-1.916-.874-2.88-1.088-3.773-2.164-7.551-3.242-11.33-2.152-7.549-4.376-15.353-6.648-23.006-.99-3.33-2.09-6.687-3.154-9.934-1.792-5.472-3.646-11.131-5.014-16.801-.792-3.281-.037-6.263 2.019-7.973 1.064-.888 2.36-1.335 3.764-1.335m-6.521 9.488c1.377 5.699 3.234 11.373 5.033 16.86 1.061 3.241 2.158 6.595 3.144 9.913 2.273 7.649 4.498 15.453 6.648 22.999a4063 4063 0 0 0 3.242 11.333c.279.969.578 1.932.878 2.893.481 1.546.979 3.141 1.373 4.731 3.626 14.619 10.396 15.168 21.611 16.083 12.009.976 20.824 4.672 27.741 11.629 5.72 5.754 12.814 12.272 22.056 17.001 3.97 2.031 7.558 5.038 11.027 7.945 1.606 1.346 3.268 2.736 4.949 4.019 1.139.866 2.263 1.753 3.39 2.64 2.82 2.225 5.739 4.525 8.821 6.463 2.68 1.685 5.217 2.527 7.705 2.527 2.397 0 4.748-.782 7.135-2.346 8.512-5.585 17.673-11.085 28.007-16.817 4.292-2.382 7.258-6.066 8.574-10.655 1.612-5.623.696-12.402-2.451-18.132-1.714-3.116-4.036-6.004-6.079-8.464-7.458-8.991-14.359-10.905-24.606-6.827-6.191 2.464-11.363.787-14.566-4.715-8.75-15.033-20.715-27.618-31.244-38.234-4.576-4.613-6.784-11.038-6.951-20.221-.326-18.024-7.316-29.85-21.372-36.155-1.812-.813-3.799-1.272-5.719-1.716-.89-.206-1.78-.409-2.653-.65a.38.38 0 0 0-.48.36.377.377 0 0 0-.46-.364c-9.831 2.131-18.041 6.816-24.395 13.923-6.139 6.867-12.176 8.235-20.187 4.573-2.917-1.333-5.793-1.089-7.898.662-2.284 1.901-3.134 5.17-2.273 8.742"/><path d="M25.679 878.823a307 307 0 0 1 1.616 1.691c1.67 1.755 3.395 3.569 5.26 5.169 1.426 1.221 2.133 2.427 2.108 3.581-.03 1.323-.962 2.656-2.932 4.195-1.186.926-2.65 1.575-4.066 2.203-.636.282-1.272.565-1.889.872-9.221 4.594-14.486 11.177-16.098 20.125-1.142 6.345-4.642 8.932-11.08 8.13-2.957-.369-6.31-.784-9.133.09-9.751 3.022-18.8 1.222-29.389-2.407-14.665-5.028-21.733-14.895-21.61-30.17l.014-1.408c.113-11.602.12-12.297-13.298-17.233-9.608-3.535-10.947-5.99-8.957-16.417 1.345-7.045 2.735-14.33 2.192-21.434-1.104-14.485.977-28.912 2.989-42.864 1.396-9.671 2.837-19.67 3.207-29.611.068-1.796.147-3.597.225-5.4.407-9.315.827-18.946-.406-28.209-3.62-27.208 1.048-47.709 14.694-64.514 5.778-7.115 10.768-14.879 15.263-23.737 5.414-10.671 10.359-15.192 18.756-15.192 3.487 0 7.568.78 12.525 2.222 8.196 2.387 14.862 2.031 21.61-1.15 11.628-5.479 21.411-7.766 30.781-7.194 7.106.434 10.811-4.736 13.252-9.286a1821 1821 0 0 1 9.103-16.786c3.304-5.999 7.918-9.183 14.106-9.729a.38.38 0 0 0 .345-.374.38.38 0 0 0 .245.35c1.639.628 3.283 1.24 4.927 1.854 3.621 1.349 7.366 2.746 10.972 4.284 3.333 1.42 5.71 3.705 6.874 6.605 1.231 3.066 1.06 6.628-.493 10.297-1.705 4.031-5.326 9.006-9.57 11.034-6.783 3.24-14.837 5.649-23.283 6.963-11.472 1.786-16.32 3.851-16.656 12.025-.181 4.456 1.44 10.052 4.453 15.356 5.96 10.492 6.737 21.928 6.687 32.726-.024 5.105.481 9.011 1.587 12.288 2.636 7.811 8.02 13.791 16.006 17.775 4.69 2.341 10.117 6.558 9.338 13.36-.828 7.218-2.71 14.219-10.795 16.56-1.669.482-3.278 1.222-4.835 1.939-1.398.642-2.843 1.305-4.309 1.772-6.51 2.066-9.678 6.18-10.27 13.34-.616 7.453-1.75 14.993-2.845 22.286a709 709 0 0 0-1.53 10.526c-.471 3.497-.868 7.058-1.252 10.505l-.276 2.477c-1.154 10.279-3.318 22.101-10.606 31.822-2.25 3.001-4.742 5.911-7.151 8.724-2.669 3.113-5.428 6.332-7.878 9.701-5.175 7.113-4.68 13.931 1.472 20.268m6.979-29.472c2.419-2.822 4.918-5.74 7.184-8.761 7.398-9.869 9.588-21.814 10.754-32.197l.278-2.478c.38-3.441.776-6.999 1.247-10.486.475-3.507 1.01-7.07 1.53-10.517 1.097-7.303 2.231-14.856 2.85-22.334.57-6.899 3.484-10.69 9.743-12.675 1.51-.481 2.977-1.156 4.396-1.808 1.53-.705 3.114-1.432 4.729-1.899 8.513-2.463 10.48-9.726 11.34-17.205.829-7.244-4.848-11.683-9.756-14.132-7.798-3.891-13.056-9.724-15.624-17.336-1.078-3.194-1.57-7.02-1.547-12.04.049-10.904-.738-22.46-6.787-33.109-2.943-5.181-4.53-10.627-4.353-14.945.313-7.634 4.976-9.584 16.012-11.302 8.52-1.326 16.643-3.755 23.493-7.029 4.424-2.112 8.18-7.26 9.942-11.422 1.635-3.861 1.806-7.624.5-10.882-1.241-3.092-3.76-5.522-7.281-7.023-3.624-1.545-7.376-2.943-11.004-4.297a587 587 0 0 1-4.922-1.851.38.38 0 0 0-.515.349l-.001-.027a.38.38 0 0 0-.41-.345c-6.368.562-11.315 3.967-14.702 10.12a1794 1794 0 0 0-9.108 16.791c-2.333 4.352-5.877 9.294-12.537 8.888-9.512-.579-19.405 1.728-31.151 7.265-6.569 3.097-13.068 3.439-21.079 1.109-17.159-4.994-24.374-2-32.165 13.355-4.47 8.809-9.433 16.529-15.175 23.6-13.79 16.98-18.51 37.666-14.858 65.1 1.223 9.195.806 18.792.4 28.072-.08 1.807-.158 3.608-.225 5.407-.369 9.897-1.808 19.878-3.201 29.53-2.018 13.992-4.105 28.462-2.994 43.031.535 7.004-.846 14.236-2.181 21.231-2.048 10.73-.46 13.636 9.44 17.278 12.916 4.751 12.912 5.193 12.801 16.51l-.013 1.409c-.126 15.645 7.11 25.752 22.123 30.897 6.204 2.127 12.747 3.947 19.548 3.947 3.377 0 6.818-.448 10.31-1.53 2.669-.828 5.935-.422 8.896-.053 6.854.853 10.61-1.933 11.84-8.762 1.564-8.694 6.697-15.099 15.688-19.576.606-.303 1.232-.58 1.86-.859 1.456-.647 2.963-1.314 4.222-2.297 2.166-1.693 3.19-3.21 3.227-4.781.031-1.415-.745-2.782-2.373-4.179-1.838-1.575-3.549-3.375-5.205-5.117a202 202 0 0 0-1.624-1.695c-5.852-6.031-6.323-12.518-1.402-19.285 2.434-3.344 5.182-6.552 7.84-9.655"/><path d="M26.519 840.947c-3.448 2.942-6.77 6.143-9.981 9.239-3.654 3.521-7.43 7.163-11.396 10.424-7.63 6.273-10.41 6.854-16.852-.6-6.166-7.131-13.927-11.001-23.73-11.833-8.271-.703-13.071-4.156-15.104-10.863-.878-2.893-2.78-5.473-4.619-7.968-1.225-1.665-2.493-3.384-3.448-5.182-6.692-12.613-11.888-24.168-7.643-37.841 3.059-9.848 3.679-19.904 1.894-30.751-.952-5.784-.508-11.923-.077-17.862.208-2.865.422-5.826.48-8.722.027-1.368.078-2.742.13-4.116.155-4.195.317-8.531-.236-12.715-1.847-13.983-1.358-25.095 7.03-33.866 6.443-6.735 13.726-12.89 20.767-18.842 3.09-2.609 6.284-5.309 9.367-8.024 5.22-4.596 11.468-7.219 20.255-8.503 5.39-.789 10.743-2.383 15.918-3.925 2.263-.675 4.6-1.371 6.91-1.99a.38.38 0 0 0 .28-.363q0 .02.003.04a.38.38 0 0 0 .423.333c6.436-.798 11.283 1.636 14.805 7.447l1.981 3.271c3.3 5.453 6.71 11.091 10.176 16.566 3.311 5.234 2.924 10.755 2.513 16.598l-.18 2.629c-.442 6.569-.944 14.013 1.785 19.49 7.518 15.083 5.441 16.944-2.289 23.873-.831.745-1.725 1.548-2.679 2.43-7.618 7.043-7.44 15.041-6.117 22.632.307 1.755.635 3.515.963 5.274 1.304 7.008 2.654 14.256 2.639 21.359-.024 11.563-1.028 24.116-2.985 37.309-1.402 9.459-3.297 18.494-10.983 25.052m14.727-62.36c.013-7.173-1.342-14.455-2.653-21.497-.326-1.761-.654-3.518-.96-5.268-1.487-8.528-1.058-15.521 5.883-21.941.949-.878 1.842-1.676 2.67-2.42 7.866-7.052 10.24-9.18 2.464-24.785-2.638-5.292-2.144-12.625-1.708-19.096l.18-2.627c.419-5.973.816-11.616-2.63-17.061-3.462-5.47-6.87-11.104-10.17-16.554l-1.98-3.271c-3.642-6.008-8.867-8.638-15.545-7.807a.38.38 0 0 0-.333.371.38.38 0 0 0-.477-.362c-2.318.621-4.662 1.32-6.929 1.996-5.15 1.535-10.475 3.122-15.811 3.902-8.94 1.307-15.309 3.984-20.646 8.684-3.076 2.709-6.268 5.406-9.354 8.014-7.057 5.965-14.355 12.132-20.826 18.898-9.107 9.52-8.86 22.204-7.236 34.494.544 4.121.384 8.424.23 12.587a242 242 0 0 0-.13 4.128c-.057 2.877-.272 5.829-.479 8.682-.432 5.983-.881 12.169.086 18.044 1.764 10.725 1.153 20.666-1.87 30.4-4.333 13.953.923 25.657 7.699 38.426.98 1.848 2.265 3.591 3.508 5.277 1.882 2.555 3.66 4.968 4.5 7.736 2.137 7.045 7.147 10.668 15.767 11.398 9.596.817 17.191 4.603 23.221 11.576 3.413 3.948 5.9 5.758 8.533 5.758 2.625 0 5.395-1.8 9.37-5.069 3.99-3.28 7.778-6.932 11.443-10.462 3.203-3.088 6.515-6.283 9.946-9.21 7.886-6.729 9.819-15.912 11.243-25.521 1.963-13.23 2.97-25.819 2.993-37.42m265.283 150.654c-2.363.304-3.972-.033-4.776-1-.763-.915-.817-2.448-.161-4.553l.201-.642c1.409-4.519 2.868-9.193 3.558-13.917 1.705-11.64 7.173-17.595 17.207-18.742a.38.38 0 0 0 .336-.374.38.38 0 0 0 .38.377c14.304 0 19.289 3.549 23.193 16.506 1.224 4.06.902 7.916-.93 11.15-1.806 3.187-4.998 5.544-8.757 6.468-8.123 2.002-16.634 3.045-24.866 4.056-1.798.22-3.593.44-5.385.671m30.432-3.984c3.961-.975 7.326-3.466 9.235-6.835 1.938-3.418 2.283-7.48.998-11.748-4.032-13.383-9.174-17.047-23.92-17.047a.38.38 0 0 0-.38.38l-.003-.042a.38.38 0 0 0-.419-.335c-10.43 1.191-16.108 7.352-17.871 19.388-.683 4.665-2.131 9.308-3.532 13.8l-.2.642c-.739 2.369-.637 4.144.302 5.271.763.917 2.043 1.379 3.817 1.379q.76 0 1.637-.112 2.688-.342 5.38-.67c8.255-1.013 16.789-2.061 24.956-4.071m-234.953 72.436c1.529 10.977 7.107 20.037 12.501 28.787.698 1.14 1.398 2.27 2.09 3.41 2.41 3.98 5.922 4.77 9.987 5.69l2.109.48c11.007 2.48 22.387 5.05 32.743 9.53 5.632 2.43 9.027 5.71 10.087 9.76 1.156 4.41-.458 9.56-4.794 15.3-.245.33-.495.65-.744.98-1.076 1.4-2.189 2.85-3.054 4.42-6.3 11.43-17.611 14.74-27.845 16.47-4.97.85-7.839-.63-9.588-4.93-2.809-6.9-6.21-13.68-9.499-20.24a832 832 0 0 1-3.262-6.55c-2.832-5.77-5.965-11.14-13.057-13.34-3.394-1.06-6.7-2.65-9.896-4.18-2.95-1.42-6.003-2.89-9.141-3.95-12.914-4.36-22.975-12.6-30.761-25.19-2.313-3.74-4.287-7.79-6.194-11.71-1.67-3.427-3.395-6.971-5.348-10.31-8.543-14.607-4.128-30.144 4.04-39.062 8.623-9.418 14.14-18.739 17.36-29.34 2.16-7.115 6.259-11.028 12.528-11.962a.38.38 0 0 0 .323-.374l.001.015c.012.21.151.372.397.362 5.009-.257 10.683-.551 14.008 4.457 6.623 9.983 16.085 17.09 29.777 22.373 5.401 2.083 8.191 9.289 7.407 14.709-1.906 13.173-6.914 21.812-15.763 27.191-6.741 4.097-7.439 9.841-6.412 17.204m6.805-16.55c9.058-5.506 14.179-14.318 16.12-27.736.827-5.712-2.145-13.317-7.887-15.531-13.537-5.222-22.883-12.239-29.416-22.083-3.564-5.367-9.722-5.051-14.675-4.796a.38.38 0 0 0-.362.376.38.38 0 0 0-.434-.372c-6.496.967-10.918 5.173-13.143 12.494-3.185 10.487-8.648 19.716-17.193 29.046-8.356 9.125-12.876 25.022-4.135 39.966 1.938 3.315 3.658 6.846 5.322 10.263 1.914 3.93 3.896 8 6.23 11.77 7.772 12.58 18.258 21.16 31.163 25.51 3.095 1.05 6.126 2.51 9.057 3.91 3.22 1.55 6.552 3.15 9.999 4.23 6.803 2.11 9.842 7.33 12.6 12.95 1.076 2.18 2.169 4.37 3.265 6.55 3.282 6.55 6.676 13.32 9.473 20.19 1.847 4.54 4.862 5.64 7.78 5.64.901 0 1.792-.1 2.637-.24 10.412-1.77 21.927-5.15 28.382-16.86.838-1.52 1.932-2.94 2.992-4.32.251-.33.5-.66.748-.98 4.484-5.95 6.14-11.32 4.923-15.96-1.124-4.29-4.665-7.74-10.523-10.27-10.42-4.51-21.834-7.08-32.874-9.57l-2.109-.48c-4.059-.92-7.264-1.64-9.507-5.34-.693-1.15-1.392-2.28-2.092-3.42-5.352-8.69-10.888-17.68-12.396-28.492-.985-7.065-.331-12.565 6.055-16.445m165.277 73.737c.151 3.83-.695 8.85-5.584 11.07-4.486 2.04-7.389-.55-10.465-3.3l-.508-.45c-2.387-2.11-4.794-4.21-7.202-6.3-5.895-5.13-11.991-10.43-17.671-15.97-2.387-2.32-3.652-6.36-4.486-9.62-.908-3.54-1.634-7.21-2.337-10.77-1.093-5.52-2.224-11.24-4.071-16.63-3.204-9.334-8.19-15.596-15.695-19.704-3.223-1.763-5.725-5.064-8.146-8.257-1.302-1.716-2.648-3.492-4.108-5.042-1.137-1.206-2.254-2.446-3.374-3.687-3.444-3.82-7.003-7.769-11.17-10.739-7.035-5.014-10.881-13.334-10.292-22.256.571-8.633 5.293-16.104 12.632-19.983a.38.38 0 0 0 .202-.33.38.38 0 0 0 .174.314c1.11.717 2.244 1.404 3.377 2.09 2.437 1.475 4.956 2.999 7.153 4.815 1.462 1.203 2.91 2.49 4.311 3.736 6.147 5.463 12.505 11.112 21.757 11.521 6.731.296 13.578.457 20.201.612 2.371.056 4.742.111 7.111.173.513.013 1.031.041 1.549.069 1.521.083 3.093.169 4.588-.121 12.486-2.406 17.058-1.364 21.328 9.835 5.507 14.438 13.311 24.469 24.557 31.571 5.659 3.573 14.633 11.41 11.158 23.753-4.765 16.92-12.629 29.05-24.044 37.1l-.412.28c-5.833 4.11-10.869 7.65-10.533 16.22m10.969-15.59.412-.29c11.562-8.15 19.524-20.42 24.339-37.52 3.609-12.814-5.646-20.911-11.486-24.598-11.1-7.01-18.808-16.924-24.252-31.2-4.434-11.621-9.429-12.768-22.178-10.311-1.406.272-2.931.189-4.404.11-.527-.028-1.051-.058-1.572-.071q-3.556-.091-7.112-.171c-6.619-.157-13.463-.318-20.185-.613-8.986-.397-15.241-5.956-21.29-11.332-1.405-1.249-2.859-2.542-4.329-3.753-2.245-1.851-4.785-3.391-7.244-4.879a135 135 0 0 1-3.358-2.078.376.376 0 0 0-.524.114.4.4 0 0 0-.061.199.38.38 0 0 0-.555-.331c-7.575 4.005-12.448 11.708-13.037 20.609-.606 9.189 3.36 17.759 10.612 22.929 4.097 2.923 7.63 6.84 11.044 10.628 1.126 1.246 2.245 2.49 3.387 3.701 1.434 1.52 2.765 3.278 4.055 4.978 2.47 3.257 5.022 6.625 8.389 8.467 7.325 4.011 12.201 10.138 15.339 19.282 1.83 5.34 2.957 11.03 4.044 16.53.704 3.57 1.432 7.25 2.346 10.81.859 3.35 2.17 7.52 4.692 9.98 5.696 5.55 11.801 10.86 17.706 16 2.404 2.09 4.81 4.18 7.196 6.29l.503.45c2.34 2.09 4.74 4.23 7.869 4.23 1.048 0 2.177-.24 3.414-.8 5.273-2.4 6.189-7.74 6.03-11.8-.322-8.15 4.558-11.59 10.21-15.56m70.472-95.741c1.66-5.646 5.763-8.626 13.304-9.661a.38.38 0 0 0 .327-.373.4.4 0 0 0 .113.266c.333.336.742.661 1.139.974.78.618 1.585 1.257 1.653 1.866.489 4.326-5.804 13.007-10.199 14.071-1.981.481-3.868-.036-5.169-1.416-1.361-1.442-1.798-3.581-1.168-5.727m4.933 8.077q.784 0 1.582-.192c4.759-1.152 11.306-10.204 10.776-14.899-.104-.924-1.037-1.664-1.94-2.379-.378-.3-.769-.61-1.072-.916a.376.376 0 0 0-.535 0 .4.4 0 0 0-.113.266l-.003-.047a.39.39 0 0 0-.426-.328c-4.89.672-11.654 2.459-13.93 10.203-.708 2.409-.205 4.826 1.345 6.469 1.122 1.187 2.664 1.823 4.316 1.823m-255.207-104.87c-6.742 4.363-12.082 7.173-17.322 9.111-2.272.842-5.128-.453-6.946-2.11-1.694-1.543-2.517-3.386-2.151-4.812.367-1.429.701-2.907 1.024-4.336 1.689-7.473 3.434-15.2 10.76-19.91a.38.38 0 0 0 .174-.316.38.38 0 0 0 .314.37c8.328 1.437 15.454 8.336 16.223 15.707.22 2.101-.658 5.378-2.076 6.296m-14.017-22.755a.377.377 0 0 0-.439.311q-.004.031-.005.059a.37.37 0 0 0-.061-.199.376.376 0 0 0-.522-.117c-7.588 4.88-9.368 12.762-11.09 20.385a159 159 0 0 1-1.019 4.313c-.444 1.728.443 3.81 2.375 5.569 1.547 1.408 3.798 2.568 5.933 2.568a5.1 5.1 0 0 0 1.786-.307c5.291-1.958 10.68-4.791 17.469-9.185 1.663-1.076 2.667-4.656 2.421-7.019-.803-7.692-8.204-14.886-16.848-16.378m75.124.745a.38.38 0 0 0 .282-.364.38.38 0 0 0 .379.375c.484 0 .973-.022 1.461-.044 1.054-.05 2.051-.096 3.017.077 3.825.689 7.24 3.315 8.498 6.533.8 2.049.586 4.05-.599 5.637-1.684 2.253-5.472 4.155-8.62 4.331-4.631.254-8.367-2.597-9.329-7.1-1.092-5.113.558-8.291 4.911-9.445m3.839 17.324q.308 0 .621-.017c3.347-.186 7.381-2.222 9.184-4.634 1.35-1.807 1.598-4.071.699-6.376-1.351-3.454-4.995-6.269-9.071-7.003-1.048-.189-2.133-.139-3.185-.09-.477.024-.954.046-1.426.046a.38.38 0 0 0-.379.375.3.3 0 0 0-.014-.092.38.38 0 0 0-.463-.271c-4.747 1.26-6.635 4.837-5.459 10.342 1.001 4.682 4.775 7.72 9.493 7.72m27.959 43.066c1.027-1.85 3.372-3.079 7.609-3.987l1.247-.269c8.657-1.852 17.608-3.77 26.05-6.741 4.484-1.579 8.706-4.096 12.787-6.532 1.808-1.079 3.678-2.194 5.544-3.21a.38.38 0 0 0 .198-.329.38.38 0 0 0 .329.372c1.207.162 2.502.207 3.755.251 2.672.091 5.434.187 7.316 1.44 3.372 2.245 5.39 5.914 5.535 10.063.167 4.827-2.149 9.575-6.203 12.706-8.652 6.682-17.575 13.32-26.204 19.738a4587 4587 0 0 0-9.407 7.008c-5.817 4.347-11.53 4.104-16.977-.728-5.473-4.853-7.683-11.56-9.818-18.046-.439-1.331-.877-2.661-1.342-3.974-1.255-3.551-1.389-6.018-.419-7.762m1.04 11.977c2.169 6.581 4.411 13.389 10.038 18.378 2.989 2.651 6.125 3.978 9.309 3.978 2.858 0 5.755-1.068 8.62-3.21a4773 4773 0 0 1 9.406-7.007c8.632-6.421 17.558-13.06 26.216-19.748 4.246-3.279 6.675-8.264 6.498-13.337-.154-4.4-2.294-8.289-5.875-10.673-2.059-1.372-4.93-1.47-7.706-1.566-1.234-.043-2.511-.089-3.682-.244a.38.38 0 0 0-.429.371.382.382 0 0 0-.56-.33c-1.877 1.023-3.753 2.144-5.569 3.226-4.05 2.416-8.238 4.913-12.65 6.466-8.396 2.957-17.324 4.87-25.958 6.719l-1.247.266c-4.468.96-6.972 2.303-8.114 4.36-1.082 1.953-.967 4.619.369 8.39.462 1.31.897 2.634 1.334 3.961m82.68-25.683c2.539-1.677 5.488-2.855 8.34-3.995 1.194-.479 2.43-.972 3.622-1.498a.38.38 0 0 0 .228-.342.38.38 0 0 0 .206.333c4.709 2.424 5.856 6.495 3.507 12.453-1.896 4.81-8.32 7.142-13.743 4.989-2.471-.98-5.02-3.615-5.565-5.754-.427-1.672 1.622-5.008 3.405-6.186m1.881 12.65c1.466.581 2.998.854 4.505.854 4.462 0 8.694-2.395 10.223-6.273 2.52-6.388 1.255-10.777-3.867-13.412a.38.38 0 0 0-.552.331.38.38 0 0 0-.532-.341c-1.181.52-2.409 1.01-3.598 1.487-2.888 1.152-5.872 2.345-8.476 4.065-2.059 1.36-4.235 5.006-3.724 7.014.68 2.67 3.656 5.337 6.021 6.275"/></g><defs><clipPath id="a"><rect width="400" height="1243" fill="none" rx="11.809"/></clipPath></defs></svg>