<?xml version="1.0" encoding="UTF-8"?><svg xmlns="http://www.w3.org/2000/svg" version="1.1" viewBox="0 0 64 64"><g><g id="Outline"><g><path d="M56.63,20.42105c.23999-.63.37-1.27002.37-1.92999,0-6.17004-10.97998-11-25-11S7,12.32101,7,18.49106c0,.65997.13,1.29999.37,1.92999-.23999,1.14996-.37,2.33997-.37,3.57001,0,5.39001,2.32001,10.37,6.21997,14.19l-5.52997,14.26996c-.58225,1.50249.18676,3.27031,1.71993,3.86003,1.53003.58852,3.28874-.18067,3.88004-1.71001l.60004-1.54999c5.78998,2.14996,11.87,3.25,18.10999,3.25s12.32001-1.10004,18.10999-3.25l.60003,1.54998c.56992,1.4722,2.40615,2.29931,3.88001,1.71003,1.16998-.45001,1.91998-1.55005,1.91998-2.79004,0-.34998-.07001-.70996-.21002-1.07996l-5.51996-14.26001c3.89996-3.82001,6.21997-8.79999,6.21997-14.19,0-1.23004-.13-2.42004-.37-3.57001ZM11.42999,53.88107c-.19242.49647-.77712.75815-1.2999.56998-.51482-.18531-.74283-.77153-.5701-1.29001l5.25-13.54999c.53003.42999,1.09003.84998,1.66998,1.23999,0,0-5.0434,13.01304-5.04999,13.03003ZM18.20001,41.93106c2.32001,1.31,4.91998,2.31,7.72998,2.90997,1.78003.39001,3.73999.57001,6,.57001h.14001c2.26001,0,4.21997-.17999,6-.57001,2.81-.59998,5.40997-1.59998,7.72998-2.90997l2.14001,5.52997c-10.17999,3.75-21.67999,3.75-31.88,0l2.14001-5.52997ZM32,54.30106c-5.98999,0-11.83002-1.06-17.39001-3.10999l.73004-1.86005c5.32996,1.96002,11,2.95001,16.66998,2.95001s11.33002-.98999,16.64996-2.95001l.73004,1.86005c-5.56,2.04999-11.40002,3.10999-17.39001,3.10999ZM54.42999,53.15103c.19073.49298-.03937,1.08643-.56,1.29999-.50261.20615-1.10599-.06942-1.29998-.56995l-5.04999-13.03003c.57996-.39001,1.13995-.81,1.66998-1.23999,0,0,5.2253,13.50203,5.23999,13.53998ZM35.98999,29.35104h.07001c8.77002-.60999,15.64001-3.04999,18.88-6.40002.02997.35004.06.69.06,1.04004,0,8.94-7.13,16.70996-17.34998,18.89996-1.64001.35004-3.46002.52002-5.58002.52002h-.14001c-2.12,0-3.94-.16998-5.58002-.52002-10.21997-2.19-17.34998-9.95996-17.34998-18.89996,0-.35004.03003-.69.06-1.04004,3.23999,3.35004,10.10999,5.79004,18.88,6.40002.53998.02002,1.02997-.38,1.07001-.92999.03998-.54999-.38-1.03003-.92999-1.07001-10.70001-.73999-19.08002-4.63-19.08002-8.85999,0-4.35004,9.23999-9,23-9s23,4.64996,23,9c0,4.22998-8.38,8.12-19.08002,8.85999-.54999.03998-.96997.52002-.92999,1.07001.04004.52997.47998.92999,1,.92999Z"/><path d="M19.19189,37.8641c2.26807,1.44727,4.81738,2.48145,7.58301,3.0752,1.51318.31738,3.19971.47168,5.15527.47168h.13965c1.95557,0,3.64209-.1543,5.16016-.47266,2.76074-.59277,5.31006-1.62695,7.57812-3.07422.46533-.29688.60205-.91504.30518-1.38086-.29639-.46582-.91455-.60156-1.38135-.30469-2.06592,1.31836-4.39502,2.26172-6.91699,2.80371-1.37695.28809-2.9292.42871-4.74512.42871h-.13965c-1.81592,0-3.36816-.14062-4.74023-.42773-2.52686-.54297-4.85596-1.48633-6.92188-2.80469-.46533-.29688-1.0835-.16113-1.38135.30469-.29688.46582-.16016,1.08398.30518,1.38086Z"/><path d="M36.65823,25.43052c.5137.18679,1.09538-.08605,1.28171-.59767l4-11c.18848-.51953-.0791-1.09277-.59814-1.28125-.51611-.1875-1.0918.0791-1.28174.59766l-4,11c-.18848.51953.0791,1.09277.59817,1.28126Z"/><path d="M29.66955,25.39965c.46928.1724,1.04868.04199,1.27039-.56679l4-11c.18848-.51953-.0791-1.09277-.59814-1.28125-.5166-.1875-1.09229.0791-1.28174.59766l-3.99994,10.99984c-.21916.6027.14004,1.0781.60943,1.25054Z"/><path d="M27.3418,12.5516c-.51709-.1875-1.09229.0791-1.28174.59766l-3.99999,10.99997c-.42955,1.18126,1.42988,1.91922,1.87987.68363l4-11c.18848-.51953-.0791-1.09277-.59814-1.28125Z"/><path d="M43.64916,23.42767c.51031.18934,1.09495-.07194,1.28736-.58505l3-8c.19385-.51758-.06836-1.09375-.58545-1.28809-.51709-.19141-1.09326.06738-1.2876.58496l-3,8c-.19385.51758.06836,1.09375.58569,1.28817Z"/><path d="M20.35107,13.55453c-.5166-.19141-1.09326.06738-1.2876.58496l-3,8c-.19384.51755.06833,1.09369.58537,1.28806.48671.18296,1.09216-.06482,1.28767-.58493l3-8c.19385-.51758-.06836-1.09375-.58545-1.28809Z"/><circle cx="32" cy="28.49106" r="1"/></g></g></g></svg>