<?xml version="1.0" encoding="UTF-8"?><svg xmlns="http://www.w3.org/2000/svg" version="1.1" viewBox="0 0 64 64"><g><g id="Outline"><g><path d="M54,38h-3v-4c0-6.81-3.60999-12.77002-9-16.13v-.87c0-2.67999-1.03998-5.19-2.92999-7.06-1.88-1.90002-4.39001-2.94-7.07001-2.94-5.51001,0-10,4.48999-10,10v.87c-5.39001,3.35999-9,9.32001-9,16.13v4h-3c-1.65002,0-3,1.34998-3,3v10c0,1.64996,1.34998,3,3,3h3v2c0,.54999.45001,1,1,1h36c.54999,0,1-.45001,1-1v-2h3c1.65002,0,3-1.35004,3-3v-10c0-1.65002-1.34998-3-3-3ZM13,52h-3c-.54999,0-1-.45001-1-1v-6h4v7ZM13,43h-4v-2c0-.54999.45001-1,1-1h3v3ZM32,9c2.14001,0,4.15002.82996,5.65997,2.34998.91003.91003,1.57001,2,1.95001,3.19-.16998-.21002-.34998-.40997-.53998-.59998-1.88-1.90002-4.39001-2.94-7.07001-2.94-2.98999,0-5.72998,1.32001-7.59003,3.48999,1.05005-3.17999,4.05005-5.48999,7.59003-5.48999ZM38.32001,16.09998c-1.97998-.70001-4.10004-1.09998-6.32001-1.09998s-4.33002.39996-6.31,1.09998c1.47998-1.90997,3.78998-3.09998,6.31-3.09998,2.14001,0,4.15002.82996,5.65997,2.34998.24005.23999.45001.48999.66003.75ZM32,17c9.03998,0,16.42999,7.08997,16.95001,16h-1.98004c-.51996-7.81-7.03998-14-14.96997-14s-14.45001,6.19-14.96997,14h-1.98004c.52002-8.91003,7.91003-16,16.95001-16ZM33,21.04999v3.95001h-2v-3.95001c.33002-.02002.65997-.04999,1-.04999s.66998.02997,1,.04999ZM45,55h-26v-9h26v9ZM49,55h-2v-10c0-.54999-.45001-1-1-1h-28c-.54999,0-1,.45001-1,1v10h-2v-20h3c.54999,0,1-.45001,1-1,0-6.13,4.28003-11.28003,10-12.64001v4.64001c0,.54999.45001,1,1,1h4c.54999,0,1-.45001,1-1v-4.64001c5.71997,1.35999,10,6.51001,10,12.64001,0,.54999.45001,1,1,1h3v20ZM55,51c0,.54999-.45001,1-1,1h-3v-7h4v6ZM55,43h-4v-3h3c.54999,0,1,.45001,1,1v2Z"/><path d="M42,48h-20c-.55273,0-1,.44775-1,1s.44727,1,1,1h1v2c0,.55225.44727,1,1,1s1-.44775,1-1v-2h17c.55273,0,1-.44775,1-1s-.44727-1-1-1Z"/><path d="M46,36h-15c-.55273,0-1,.44775-1,1s.44727,1,1,1h14v2h-26v-2h4c.55273,0,1-.44775,1-1s-.44727-1-1-1h-5c-.55273,0-1,.44775-1,1v4c0,.55225.44727,1,1,1h28c.55273,0,1-.44775,1-1v-4c0-.55225-.44727-1-1-1Z"/><circle cx="27" cy="37" r="1"/></g></g></g></svg>