<?xml version="1.0" encoding="UTF-8"?><svg xmlns="http://www.w3.org/2000/svg" version="1.1" viewBox="0 0 64 64"><g><g id="Outline"><g><path d="M54.78998,11.38c-.19-.23999-.47998-.38-.78998-.38h-2v-3c0-.54999-.45001-1-1-1h-14c-.54999,0-1,.45001-1,1v3h-2c-.31,0-.59998.14001-.78998.38-.19.25-.25.56-.17999.85999l1.96997,7.88v4.88h-6v-4.88l1.96997-7.88c.07001-.29999.01001-.60999-.17999-.85999-.19-.23999-.47998-.38-.78998-.38h-2v-3c0-.54999-.45001-1-1-1h-14c-.54999,0-1,.45001-1,1v3h-2c-.31,0-.59998.14001-.78998.38-.19.25-.25.56-.17999.85999l1.97998,7.91998,1.98999,27.91003c.03998.51996.47998.92999,1,.92999h1v3c0,.54999.45001,1,1,1h2v3c0,.54999.45001,1,1,1h6c.54999,0,1-.45001,1-1v-3c.54999,0,1-.45001,1-1v-3h1c.54999,0,1-.45001,1-1v-5h6v5c0,.54999.45001,1,1,1h1v3c0,.54999.45001,1,1,1v3c0,.54999.45001,1,1,1h6c.54999,0,1-.45001,1-1v-3h2c.54999,0,1-.45001,1-1v-3h1c.52002,0,.96002-.41003,1-.92999l1.98999-27.91003,1.97998-7.91998c.07001-.29999.01001-.60999-.17999-.85999ZM14,9h12v2h-12v-2ZM12.78003,19l-1.5-6h17.43994l-1.5,6h-14.43994ZM24,55h-4v-2h4v2ZM25,51h-8v-2h8v2ZM35,41h-6v-3c0-.54999-.45001-1-1-1s-1,.45001-1,1v9h-12.07001l-1.85999-26h13.92999v9c0,.54999.45001,1,1,1s1-.45001,1-1v-3h6v14ZM38,9h12v2h-12v-2ZM44,55h-4v-2h4v2ZM47,51h-8v-2h8v2ZM49.07001,47h-12.07001v-26h13.92999l-1.85999,26ZM51.21997,19h-14.43994l-1.5-6h17.43994l-1.5,6Z"/><path d="M40,33h7.2002c.51367,0,.94385-.38965.99512-.90039l.7998-8c.02783-.28125-.06396-.56152-.25391-.77051-.18945-.20996-.4585-.3291-.74121-.3291h-8c-.55225,0-1,.44727-1,1v8c0,.55273.44775,1,1,1ZM41,25h5.89502l-.59961,6h-5.29541v-6Z"/><path d="M40,45h6c.51367,0,.94385-.38965.99512-.90039l.7998-8c.02783-.28125-.06396-.56152-.25391-.77051-.18945-.20996-.4585-.3291-.74121-.3291h-6.7998c-.55225,0-1,.44727-1,1v8c0,.55273.44775,1,1,1ZM41,37h4.69482l-.59961,6h-4.09521v-6Z"/><path d="M24,23h-8c-.28271,0-.55176.11914-.74121.3291-.18994.20898-.28174.48926-.25391.77051l.7998,8c.05127.51074.48145.90039.99512.90039h7.2002c.55225,0,1-.44727,1-1v-8c0-.55273-.44775-1-1-1ZM23,31h-5.29541l-.59961-6h5.89502v6Z"/><path d="M24,35h-6.7998c-.28271,0-.55176.11914-.74121.3291-.18994.20898-.28174.48926-.25391.77051l.7998,8c.05127.51074.48145.90039.99512.90039h6c.55225,0,1-.44727,1-1v-8c0-.55273-.44775-1-1-1ZM23,43h-4.09521l-.59961-6h4.69482v6Z"/><circle cx="28" cy="34" r="1"/></g></g></g></svg>