<?xml version="1.0" encoding="UTF-8"?><svg xmlns="http://www.w3.org/2000/svg" version="1.1" viewBox="0 0 64 64"><g><g id="Outline"><g><path d="M21,47.99993c0-2.75684-2.24316-5-5-5s-5,2.24316-5,5,2.24316,5,5,5,5-2.24316,5-5ZM13,47.99993c0-1.6543,1.3457-3,3-3s3,1.3457,3,3-1.3457,3-3,3-3-1.3457-3-3Z"/><path d="M54.35999,41.62993c-1.70001-1.70001-3.95996-2.63-6.35999-2.63h-3.02002c1.32001-1.98999,2.02002-4.37,2.02002-7,0-2.33002-.53003-4.76001-1.54999-7.03003-.16003-.37-.54004-.60999-.96002-.58997-.40997.01996-.77002.28998-.89996.67999l-.28003.83002c-.31.91998-.88,1.69995-1.65997,2.25-.5.35999-1.06.62-1.65002.75v-.71002c0-3.53998-.97998-7.01001-2.84998-10.03003-.53003-.85999-1.15002-1.69995-1.85004-2.5-.01996-.02997-.04999-.04999-.08002-.07996-1.59998-1.84003-3.53998-3.34003-5.76996-4.46002-.35999-.17999-.79999-.13-1.10004.13-.31.27002-.42999.69-.29999,1.08002l.66003,1.97998c.19995.58002.29999,1.21002.29999,1.84998,0,1.56-.60999,3.03003-1.71002,4.13-1.47998,1.48999-2.29999,3.46002-2.29999,5.56v.52002c-1.5-.85999-2.65997-2.20001-3.29999-3.81-.14001-.34998-.46002-.59003-.84003-.63-.37-.03998-.72998.15002-.92999.46002-1.89001,2.95996-2.92999,6.38-2.92999,9.62,0,2.63.70001,5.01001,2.02002,7h-3.02002c-4.96002,0-9,4.03998-9,9s4.03998,9,9,9h32c4.96002,0,9-4.04004,9-9,0-2.40002-.92999-4.66003-2.64001-6.37ZM16,54.99993c-3.85999,0-7-3.14001-7-7s3.14001-7,7-7,7,3.14001,7,7-3.14001,7-7,7ZM48,54.99993h-26.35999c2.04999-1.65002,3.35999-4.17004,3.35999-7s-1.31-5.35004-3.35999-7h6.35999c.54999,0,1-.45001,1-1s-.45001-1-1-1h-6.44c-1.66998-1.85004-2.56-4.26001-2.56-7,0-2.32001.60999-4.75,1.72998-6.98999.94,1.42999,2.23999,2.58997,3.79004,3.35999l1.02997.52002c.31.15997.67999.13995.97003-.04004.29999-.17999.47998-.5.47998-.84998v-2.16003c0-1.56.60999-3.03998,1.71997-4.13995,1.48004-1.48004,2.29004-3.45001,2.29004-5.55005,0-.65997-.08002-1.31-.23999-1.91998,1.12.78003,2.13,1.70001,3.01001,2.72998.02997.03003.06.06.08997.09003.59998.69,1.13,1.40997,1.58002,2.14001,1.66998,2.71997,2.54999,5.82001,2.54999,8.98999v1.82001c0,.54999.45001,1,1,1,1.39001,0,2.71002-.42999,3.82001-1.23004.64996-.45996,1.20001-1.02997,1.63-1.69.35999,1.31006.54999,2.63.54999,3.92004,0,2.73999-.89001,5.14996-2.56,7h-6.44c-.54999,0-1,.45001-1,1s.45001,1,1,1h12c1.85999,0,3.62.72998,4.95001,2.03998,1.32001,1.34003,2.04999,3.10004,2.04999,4.96002,0,3.85999-3.14001,7-7,7Z"/><path d="M34,49.99993h-6c-.55225,0-1,.44775-1,1s.44775,1,1,1h6c.55225,0,1-.44775,1-1s-.44775-1-1-1Z"/><path d="M36,43.99993h-4c-.55225,0-1,.44775-1,1s.44775,1,1,1h4c.55225,0,1-.44775,1-1s-.44775-1-1-1Z"/><path d="M44,47.99993h-4c-.55225,0-1,.44775-1,1s.44775,1,1,1h4c.55225,0,1-.44775,1-1s-.44775-1-1-1Z"/><path d="M51,43.99993h-4c-.55225,0-1,.44775-1,1s.44775,1,1,1h4c.55225,0,1-.44775,1-1s-.44775-1-1-1Z"/><path d="M40.88672,19.98577l-.5708,1.69482c-.1416.42139.01123.88525.37562,1.13974.36549.25461.85363.23634,1.19859-.04111l2.41016-1.93799c1.10303-.88672,1.77686-2.15186,1.89697-3.56201.12061-1.41016-.3291-2.77148-1.26611-3.83252l-.66406-.75195c-.4209-.47705-.68408-1.06299-.76123-1.69434l-.37939-3.12109c-.05127-.4209-.3623-.76367-.77588-.85547-.41406-.0918-.84082.0874-1.06543.44678l-1.85742,2.97803c-1.26562,2.02979-.97217,4.6333.71338,6.33154.84131.84619,1.12695,2.07471.74561,3.20557ZM41.125,11.50725l.35791-.57422.0376.30908c.12598,1.03418.55713,1.99414,1.24707,2.77637l.66455.75244c.57178.64697.84619,1.47754.77246,2.33838-.07324.86035-.48438,1.63232-1.15723,2.17334l-.00244.00146c.08789-1.43604-.43408-2.85645-1.48486-3.91357-1.02832-1.03613-1.20752-2.625-.43506-3.86328Z"/><path d="M18.42041,14.03704c-.55664,1.29932-.55762,2.73047-.00293,4.03027.55518,1.2998,1.58936,2.28857,2.9126,2.78516,0,0,2.89062,1.08398,2.89072,1.08402.41769.15636.88442.01885,1.15127-.33695.2666-.35547.26611-.84424-.00049-1.19971l-1.07129-1.42822c-.71387-.95215-.82715-2.20508-.29443-3.27051,1.06836-2.13672.53271-4.69678-1.30273-6.22656l-2.69141-2.24268c-.32568-.27197-.7876-.30713-1.15137-.09131-.36426.2168-.55273.63965-.46924,1.05566l.61572,3.07764c.12451.62207.05811,1.25928-.19238,1.84229l-.39404.9209ZM20.25879,14.82464l.39404-.92041c.41016-.95703.51904-2.00195.31494-3.02295l-.06006-.29932.51514.42871c1.11865.93262,1.44531,2.49365.79395,3.7959-.66455,1.33008-.71631,2.83887-.18604,4.17236-.80566-.30273-1.43555-.90527-1.77393-1.69678-.33838-.79248-.33789-1.66504.00195-2.45752Z"/><circle cx="32" cy="39.99993" r="1"/></g></g></g></svg>