<?xml version="1.0" encoding="UTF-8"?><svg xmlns="http://www.w3.org/2000/svg" version="1.1" viewBox="0 0 64 64"><g><g id="Outline"><g><path d="M57,21.8902v-2.89001c0-.32001-.15002-.62-.41998-.81-.26001-.19-.59003-.23999-.90002-.14001l-1.96997.65997c-6.55005,2.18005-13.38,3.29004-20.29004,3.29004h-2.83997c-6.91003,0-13.73999-1.10999-20.29004-3.29004l-1.96997-.65997c-.31-.09998-.64001-.04999-.90002.14001-.26996.19-.41998.48999-.41998.81v2.89001c0,1.42999.25,2.83997.75,4.18994.5,1.36005,1.22998,2.60004,2.15997,3.69.75.88,1.62006,1.61005,2.57001,2.23004h-2.47998c-.54999,0-1,.45001-1,1s.45001,1,1,1h18c.54999,0,1-.45001,1-1s-.45001-1-1-1h-8.89001c-2.95001,0-5.75-1.29004-7.67999-3.53003-.77997-.90997-1.39001-1.94-1.79999-3.07996-.10999-.29004-.20001-.58002-.28003-.88l.30005.09998c6.75995,2.25,13.81,3.39001,20.92999,3.39001h2.83997c7.12,0,14.17004-1.14001,20.92999-3.39001l.30005-.09998c-.38,1.44995-1.09003,2.79999-2.08002,3.95996-1.92999,2.23999-4.72998,3.53003-7.67999,3.53003h-8.89001c-.54999,0-1,.45001-1,1s.45001,1,1,1h18c.54999,0,1-.45001,1-1s-.45001-1-1-1h-2.47998c.94995-.62,1.82001-1.35999,2.57001-2.23004,1.87994-2.19,2.90997-4.98999,2.90997-7.87994ZM53.71002,22.71015c-6.55005,2.18005-13.38,3.29004-20.29004,3.29004h-2.83997c-6.91003,0-13.73999-1.10999-20.29004-3.29004l-1.26996-.41998c-.01001-.14001-.02002-.27002-.02002-.39996v-1.5l.65002.21997c6.75995,2.25,13.81,3.39001,20.92999,3.39001h2.83997c7.12,0,14.17004-1.14001,20.92999-3.39001l.65002-.21997v1.5c0,.12994-.01001.25995-.02002.39996l-1.26996.41998Z"/><path d="M56,36.00019h-24c-.55225,0-1,.44727-1,1s.44775,1,1,1h24c.55225,0,1-.44727,1-1s-.44775-1-1-1Z"/><path d="M37,41.00019c0-.55273-.44775-1-1-1H12c-.55225,0-1,.44727-1,1s.44775,1,1,1h24c.55225,0,1-.44727,1-1Z"/><path d="M44,44.00019h-24c-.55225,0-1,.44727-1,1s.44775,1,1,1h24c.55225,0,1-.44727,1-1s-.44775-1-1-1Z"/><path d="M17,38.00019c.55225,0,1-.44727,1-1s-.44775-1-1-1h-4c-.55225,0-1,.44727-1,1s.44775,1,1,1h4Z"/><path d="M27,38.00019c.55225,0,1-.44727,1-1s-.44775-1-1-1h-4c-.55225,0-1,.44727-1,1s.44775,1,1,1h4Z"/><path d="M42,42.00019c.55225,0,1-.44727,1-1s-.44775-1-1-1h-2c-.55225,0-1,.44727-1,1s.44775,1,1,1h2Z"/><path d="M48,40.00019h-2c-.55225,0-1,.44727-1,1s.44775,1,1,1h2c.55225,0,1-.44727,1-1s-.44775-1-1-1Z"/><circle cx="32" cy="33.00019" r="1"/></g></g></g></svg>