<?xml version="1.0" encoding="UTF-8"?><svg xmlns="http://www.w3.org/2000/svg" version="1.1" viewBox="0 0 64 64"><g><g id="Outline"><g><path d="M32,7c-8.98877,0-17.31934,4.85791-21.74072,12.67773-.27148.48096-.10254,1.09082.37842,1.36279.48242.27197,1.09082.10254,1.36279-.37842.86383-1.52795,1.89825-2.92419,3.05798-4.18958l1.42584,1.42584c-3.39478,3.73181-5.48431,8.67114-5.48431,14.10162s2.08954,10.36981,5.48431,14.10162l-1.43036,1.43036c-3.75665-4.09528-6.05396-9.54987-6.05396-15.53198,0-1.38867.12891-2.7876.3833-4.15723.10059-.54297-.25781-1.06494-.80078-1.16602-.54834-.10107-1.06543.25781-1.16602.80078-.27637,1.49023-.4165,3.01172-.4165,4.52246,0,13.78516,11.21484,25,25,25s25-11.21484,25-25S45.78516,7,32,7ZM47.51569,46.10162c3.39478-3.73181,5.48431-8.67114,5.48431-14.10162s-2.08954-10.36981-5.48431-14.10162l1.43036-1.43036c3.75665,4.09528,6.05396,9.54987,6.05396,15.53198s-2.2973,11.43671-6.05396,15.53198l-1.43036-1.43036ZM47.53198,15.05396l-1.43036,1.43036c-3.73181-3.39478-8.67114-5.48431-14.10162-5.48431s-10.36981,2.08954-14.10162,5.48431l-1.42725-1.42725c4.17932-3.82947,9.7005-6.05707,15.52887-6.05707,5.98212,0,11.43671,2.2973,15.53198,6.05396ZM32,13c10.47656,0,19,8.52344,19,19s-8.52344,19-19,19-19-8.52344-19-19,8.52344-19,19-19ZM16.46802,48.94604l1.43036-1.43036c3.73181,3.39478,8.67114,5.48431,14.10162,5.48431s10.36981-2.08954,14.10162-5.48431l1.43036,1.43036c-4.09528,3.75665-9.54987,6.05396-15.53198,6.05396s-11.43671-2.2973-15.53198-6.05396Z"/><path d="M28.63623,43.5083l2.46924,4.93896c.16943.33887.51562.55273.89453.55273s.7251-.21387.89453-.55273l2.46924-4.93848c1.24536-.36182,2.43433-.94714,3.50507-1.6958,0,0,3.92999,2.35791,3.93008,2.35796.39158.23466.8981.17257,1.2216-.15044.32471-.32422.38672-.82812.15039-1.22168l-2.35791-3.92999c.74866-1.07074,1.33398-2.2597,1.6958-3.50507l4.93848-2.46924c.33887-.16943.55273-.51562.55273-.89453s-.21387-.7251-.55273-.89453l-4.93896-2.46924c-1.14453-3.93604-4.2085-7-8.14453-8.14453l-2.46924-4.93896c-.33887-.67773-1.4502-.67773-1.78906,0l-2.46924,4.93848c-1.24536.36182-2.43433.94714-3.50507,1.6958l-3.92999-2.35791c-.39355-.23535-.89697-.17334-1.22168.15039-.32471.32422-.38672.82812-.15039,1.22168l2.35791,3.92999c-.74866,1.07074-1.33398,2.2597-1.6958,3.50507l-4.93848,2.46924c-.33887.16943-.55273.51562-.55273.89453s.21387.7251.55273.89453l4.93896,2.46924c1.14453,3.93604,4.2085,7,8.14453,8.14453ZM29.56982,22.31055c.28418-.07031.52393-.26172.65479-.52344l1.77539-3.55127,1.77539,3.55127c.13086.26123.36914.45215.65283.52295,3.58496.89404,6.36768,3.67676,7.26172,7.26172.0708.28369.26172.52197.52295.65283l3.55127,1.77539-3.55127,1.77539c-.26172.13086-.45312.37061-.52344.65479-.21692.87799-.57343,1.72662-1.02704,2.52087l-4.97638-8.29431c-.08447-.14062-.20215-.2583-.34277-.34277l-8.29431-4.97638c.79425-.45361,1.64288-.81012,2.52087-1.02704ZM34.09961,29.90039l6.29883,10.49805-10.49805-6.29883-6.29883-10.49805,10.49805,6.29883ZM21.78711,30.22461c.26172-.13086.45312-.37061.52344-.65479.21692-.87799.57343-1.72662,1.02704-2.52087l4.97638,8.29431c.08447.14062.20215.2583.34277.34277l8.29431,4.97638c-.79425.45361-1.64288.81012-2.52087,1.02704-.28418.07031-.52393.26172-.65479.52344l-1.77539,3.55127-1.77539-3.55127c-.13086-.26123-.36914-.45215-.65283-.52295-3.58496-.89404-6.36768-3.67676-7.26172-7.26172-.0708-.28369-.26172-.52197-.52295-.65283l-3.55127-1.77539,3.55127-1.77539Z"/><circle cx="32" cy="32" r="1"/><path d="M9.10535,24.7312c.51898.1889,1.09283-.07867,1.28174-.59766s-.07874-1.09283-.59772-1.28174c-.51892-.1889-1.09277.07867-1.28168.59766s.07867,1.09283.59766,1.28174Z"/></g></g></g></svg>