<?xml version="1.0" encoding="UTF-8"?><svg xmlns="http://www.w3.org/2000/svg" version="1.1" viewBox="0 0 64 64"><g><g id="Outline"><g><path d="M42,13h-20c-1.65002,0-3,1.34998-3,3,0,1.29999.84003,2.39996,2,2.82001v3.94c0,2.84998,1.07001,5.53998,3,7.62v23.62c0,1.64996,1.34998,3,3,3h10c1.65002,0,3-1.35004,3-3v-6c0-.54999-.45001-1-1-1s-1,.45001-1,1v6c0,.54999-.45001,1-1,1h-1v-3c0-.54999-.45001-1-1-1h-6c-.54999,0-1,.45001-1,1v3h-1c-.54999,0-1-.45001-1-1v-23h12v9c0,.54999.45001,1,1,1s1-.45001,1-1v-9.62c1.92999-2.08002,3-4.77002,3-7.62v-3.94c1.15997-.42004,2-1.52002,2-2.82001,0-1.65002-1.34998-3-3-3ZM30,53h4v2h-4v-2ZM41,22.76001c0,2.32996-.85999,4.52997-2.42999,6.23999h-13.14001c-1.57001-1.71002-2.42999-3.91003-2.42999-6.23999v-3.76001h18v3.76001ZM42,17h-20c-.54999,0-1-.45001-1-1s.45001-1,1-1h20c.54999,0,1,.45001,1,1s-.45001,1-1,1Z"/><path d="M32,11c.55225,0,1-.44727,1-1v-2c0-.55273-.44775-1-1-1s-1,.44727-1,1v2c0,.55273.44775,1,1,1Z"/><path d="M26.86768,10.23535c.23055.49438.83719.71178,1.3291.4834.50049-.2334.7168-.82812.4834-1.3291l-.84521-1.8125c-.23291-.5-.82959-.71582-1.3291-.4834-.50049.2334-.7168.82812-.4834,1.3291,0,0,.84305,1.80786.84521,1.8125Z"/><path d="M35.80335,10.71881c.49818.23122,1.09557.01708,1.32898-.48346l.84521-1.8125c.2334-.50098.01709-1.0957-.4834-1.3291-.50049-.23242-1.0957-.0166-1.3291.4834l-.84521,1.8125c-.2334.50098-.01709,1.0957.48352,1.32916Z"/><path d="M36,41v-4c0-2.20605-1.79443-4-4-4s-4,1.79395-4,4v4c0,2.20605,1.79443,4,4,4s4-1.79395,4-4ZM34,41c0,1.10254-.89697,2-2,2s-2-.89746-2-2v-4c0-1.10254.89697-2,2-2s2,.89746,2,2v4Z"/><circle cx="32" cy="48" r="1"/><circle cx="39" cy="44" r="1"/></g></g></g></svg>