<?xml version="1.0" encoding="UTF-8"?><svg xmlns="http://www.w3.org/2000/svg" version="1.1" viewBox="0 0 64 64"><g><g id="Outline"><g><path d="M56,44.18954v-1.19c0-4.96002-4.03998-9-9-9h-1.35999c-4.70001,0-9.27002-1.65002-12.87-4.66003-1.87-1.56-3.42004-3.42999-4.63-5.54999-1.20001-2.13-1.98999-4.41998-2.35999-6.83002l-.79004-5.10999c-.04999-.32001-.25-.59998-.53998-.75-.29999-.14001-.64001-.13-.91998.02002l-13,7c-.33002.16998-.53003.51001-.53003.88v26c-1.65002,0-3,1.34998-3,3v4c0,.54999.45001,1,1,1h17c.54999,0,1-.45001,1-1s.45001-1,1-1,1,.45001,1,1,.45001,1,1,1h11.48999c1.15002,0,2.29999-.04999,3.46002-.13.01001,0,.02997.01001.04999.01001.03998,0,.07001-.02002.10999-.02002,1.85004-.13,3.69-.34998,5.51001-.69l6.56-1.19c.47003-.08002.82001-.5.82001-.97998v-3.60004c0-.85999-.38-1.64996-1-2.20996ZM44.90002,35.96951c.25.01001.48999.03003.73999.03003h1.35999c3.85999,0,7,3.14001,7,7v.39996c-.17999,0-.35999.01001-.53998.05005l-4.20001.75995c-2.89001.52002-5.84003.79004-8.77002.79004h-8.39996c.47998-2.83002,2.94-5,5.90997-5h1.98999c2.41998,0,4.45001-1.73999,4.91003-4.03003ZM12,19.59951l11.22998-6.04999.57001,3.71002c.41003,2.64996,1.28003,5.17999,2.60004,7.50995.16998.30005.35999.58002.54999.87006l-2.65996,2.64989c-.61984.61749-.16061,1.71009.70995,1.71009.26001,0,.51001-.10004.71002-.29004l2.38995-2.39996c.46002.59998.94,1.16998,1.46002,1.71997l-2.27002,2.26001c-.38994.39-.38995,1.02999-.00003,1.41995.37443.37447,1.01819.3818,1.42008.00003l2.27997-2.28998c.16998.15002.33002.31.5.46002.41003.33997.83002.64996,1.26001.95996l-2.46002,2.45001c-.38991.38998-.38995,1.0299-.00012,1.41986.37512.37524,1.01956.38067,1.42016.00012l2.75-2.75995c2.57996,1.50995,5.44,2.47998,8.40997,2.84998-.35999,1.27002-1.51001,2.20001-2.88,2.20001h-1.98999c-4.07001,0-7.44,3.06-7.92999,7h-2.39001l-6.01001-15.47003c-.59998-1.53998-2.04999-2.52997-3.70001-2.52997-1.08997,0-1.96997-.88-1.96997-2.03003,0-2.19-1.78003-3.96997-3.96997-3.96997h-.03003v-1.40002ZM55,49.16952l-4,.72003v-.89001c0-.54999-.45001-1-1-1s-1,.45001-1,1v1.25c-1.32001.22998-2.65997.40997-4,.53998v-.78998c0-.54999-.45001-1-1-1s-1,.45001-1,1v.92999c-.84003.03998-1.66998.07001-2.51001.07001h-1.48999v-1c0-.54999-.45001-1-1-1s-1,.45001-1,1v1h-7.16998c-.41003-1.16003-1.53003-2-2.83002-2s-2.41998.83997-2.83002,2h-3.16998v-1c0-.54999-.45001-1-1-1s-1,.45001-1,1v1h-4v-1c0-.54999-.45001-1-1-1s-1,.45001-1,1v1h-4v-3c0-.54999.45001-1,1-1h4c.54999,0,1-.45001,1-1s-.45001-1-1-1h-2v-22h.03003c1.08997,0,1.96997.88,1.96997,2.02997,0,2.19,1.78003,3.97003,3.96997,3.97003.82001,0,1.54004.48999,1.83002,1.26001l5.73999,14.73999h-3.53998c-.54999,0-1,.45001-1,1s.45001,1,1,1h18.48999c3.04999,0,6.12-.28003,9.13-.83002l4.20001-.76001c.22998-.03998.46997,0,.67999.13.31.17999.5.5.5.85999v2.77002Z"/><circle cx="18" cy="45.99954" r="1"/></g></g></g></svg>