<?xml version="1.0" encoding="UTF-8"?><svg xmlns="http://www.w3.org/2000/svg" version="1.1" viewBox="0 0 64 64"><g><g id="Outline"><g><path d="M50,42h-4c-.27002,0-.52002.10999-.71002.28998l-1.69995,1.71002h-2.77002c.51001-2.41003.88-5.07001,1.06-7.95001.02997-.54999-.39001-1.02002-.94-1.06-.54999-.03003-1.02002.39001-1.06.94-.19,3.01001-.58002,5.71002-1.09998,8.07001h-13.53003c-.77002-3.41003-1.25-7.47003-1.25-12,0-4.12.39001-7.85999,1.03998-11.07001,1.76001-.53998,3.80005-.85999,5.96002-.92999v4.08997c-2.83002.48004-5,2.94-5,5.91003v4c0,3.31,2.69,6,6,6s6-2.69,6-6v-4c0-2.97003-2.16998-5.42999-5-5.91003v-4.08997c2.16998.07001,4.21002.39001,5.96997.92999.42004,2.14001.75,4.52002.91003,7.14001.03998.54999.51001.95996,1.06.94.54999-.04004.96997-.51001.94-1.06-.78003-12.34003-4.84998-20.95001-9.88-20.95001-5.60999,0-10,10.97998-10,25,0,4.38.42999,8.45996,1.19,12h-2.78003l-1.69995-1.71002c-.19-.17999-.44-.28998-.71002-.28998h-4c-.54999,0-1,.45001-1,1v4c0,.54999.45001,1,1,1h4c.27002,0,.52002-.10999.71002-.29004l1.69995-1.70996h3.26001c1.77002,6.67999,4.81,11,8.33002,11,3.53003,0,6.57001-4.23004,8.34998-11h3.24005l1.69995,1.70996c.19.18005.44.29004.71002.29004h4c.54999,0,1-.45001,1-1v-4c0-.54999-.45001-1-1-1ZM32,38c-1.85999,0-3.40997-1.28003-3.85999-3h7.71997c-.45001,1.71997-2,3-3.85999,3ZM36,33h-8v-2h8v2ZM35.85999,29h-7.71997c.45001-1.72003,2-3,3.85999-3s3.40997,1.27997,3.85999,3ZM32,9c1.34003,0,2.77002,1.20001,4.03998,3.41998-1.26996-.27002-2.63-.41998-4.03998-.41998-1.40002,0-2.76001.14996-4.02002.41998,1.25-2.19,2.66003-3.41998,4.02002-3.41998ZM26.84003,14.77997c1.51996-.5,3.28998-.77997,5.15997-.77997,1.89001,0,3.65997.27997,5.19.78998.46997,1.15002.90002,2.46002,1.27997,3.92999-1.96997-.48999-4.16998-.76001-6.46997-.76001s-4.48999.27002-6.45001.76001c.38-1.46997.82001-2.76996,1.29004-3.94ZM17.59003,46h-2.59003v-2h2.59003l1,1-1,1ZM32,55c-2.26001,0-4.66998-3.39001-6.25-9h12.52002c-1.60004,5.76001-4.06,9-6.27002,9ZM49,46h-2.59003l-1-1,1-1h2.59003v2Z"/><circle cx="41" cy="32" r="1"/></g></g></g></svg>