<?xml version="1.0" encoding="UTF-8"?><svg xmlns="http://www.w3.org/2000/svg" version="1.1" viewBox="0 0 64 64"><g><g id="Outline"><g><path d="M48,45c-1.31,0-2.41998.85999-2.83002,2.02997-.06-.01001-.10999-.02997-.16998-.02997h-2v-2h1c1.65002,0,3-1.35004,3-3v-20c0-1.65002-1.34998-3-3-3h-1.95001l-1.09998-3.32001c-.14001-.40002-.52002-.67999-.95001-.67999h-4.09998c-.47003-2.28003-2.49005-4-4.90002-4v-3c0-.54999-.45001-1-1-1s-1,.45001-1,1v3c-2.40997,0-4.42999,1.71997-4.90002,4h-4.09998c-.42999,0-.81.27997-.95001.67999l-1.09998,3.32001h-1.95001c-1.65002,0-3,1.34998-3,3v20c0,1.64996,1.34998,3,3,3h1v6c-1.65002,0-3,1.34998-3,3v2c0,.54999.45001,1,1,1h30c.54999,0,1-.45001,1-1v-2c0-1.65002-1.34998-3-3-3v-2h2c.06,0,.10999-.02002.16998-.03003.41003,1.17004,1.52002,2.03003,2.83002,2.03003,1.65002,0,3-1.35004,3-3s-1.34998-3-3-3ZM29,13h2c1.29999,0,2.41998.83997,2.83002,2h-7.66003c.41003-1.16003,1.53003-2,2.83002-2ZM20.71997,17h18.56006l1.32996,4h-21.21997l1.32996-4ZM16,43c-.54999,0-1-.45001-1-1v-20c0-.54999.45001-1,1-1h1.28003l-.23004.67999c-.09998.31-.04999.64001.14001.89996.19.27002.48999.42004.81.42004h2v18c-1.29999,0-2.40002.83997-2.82001,2h-1.17999ZM40,43c.54999,0,1,.45001,1,1v1h-22v-1c0-.54999.45001-1,1-1h20ZM27,39c0-1.07001,1.57001-3.53003,3-5.40002,1.42999,1.87,3,4.33002,3,5.40002,0,.48999,0,2-3,2s-3-1.51001-3-2ZM41,47v4h-22v-4h22ZM44,54v1h-28v-1c0-.54999.45001-1,1-1h26c.54999,0,1,.45001,1,1ZM42.82001,43c-.41998-1.16003-1.52002-2-2.82001-2v-6c0-.54999-.45001-1-1-1s-1,.45001-1,1v6h-3.53003c.33002-.57001.53003-1.23004.53003-2,0-2.45001-3.53003-6.79004-4.22998-7.64001-.38-.46002-1.16003-.46002-1.54004,0-.69995.84998-4.22998,5.19-4.22998,7.64001,0,.76996.20001,1.42999.53003,2h-3.53003v-18h16v4c0,.54999.45001,1,1,1s1-.45001,1-1v-4h2c.32001,0,.62-.15002.81-.42004.19-.25995.23999-.58997.14001-.89996l-.23004-.67999h1.28003c.54999,0,1,.45001,1,1v20c0,.54999-.45001,1-1,1h-1.17999ZM48,49c-.54999,0-1-.45001-1-1s.45001-1,1-1,1,.45001,1,1-.45001,1-1,1Z"/><circle cx="39" cy="31" r="1"/></g></g></g></svg>