<?xml version="1.0" encoding="UTF-8"?><svg xmlns="http://www.w3.org/2000/svg" version="1.1" viewBox="0 0 64 64"><g><g id="Outline"><g><path d="M56,55h-1.32001l-5.96997-15.35999c-.28003-.73004-.95001-1.22003-1.73004-1.27002-.79999-.06-1.51001.34998-1.88995,1.03998l-.16003.29999-9.95001-18.98999c.01001-.02997.02002-.04999.02002-.07996v-3.64001h7c.34998,0,.66998-.17999.84998-.47003.18005-.29999.20001-.66998.04004-.97998l-1.77002-3.54999,1.77002-3.54999c.15997-.31.14001-.68005-.04004-.98004-.17999-.28998-.5-.46997-.84998-.46997h-8c-.54999,0-1,.45001-1,1v12.64001c0,.02997.01001.04999.02002.07996l-10.14001,18.42999-1.03003-1.66998c-.17999-.29999-.5-.47998-.84998-.47998s-.66998.17999-.84998.47998l-10.71002,17.52002h-1.44c-.54999,0-1,.45001-1,1s.45001,1,1,1h30c.54999,0,1-.45001,1-1s-.45001-1-1-1h-7.59003l1.04004-1.04004c1.34998-1.33997,3.03998-2.29999,4.89001-2.75995,3.38995-.85004,6.28998-3.09003,7.95996-6.16003l2.54999-4.66998,5.69,14.63h-6.53998c-.54999,0-1,.45001-1,1s.45001,1,1,1h10c.54999,0,1-.45001,1-1s-.45001-1-1-1ZM35,9h5.38l-1.27002,2.54999c-.14996.27997-.14996.62,0,.90002l1.27002,2.54999h-5.38v-6ZM27.59003,55h-15.81l9.21997-15.08002,8.21997,13.45001-1.62994,1.63ZM42.53998,44.07996c-1.39996,2.58002-3.83997,4.46002-6.69,5.18005-1.90997.46997-3.65997,1.41998-5.14996,2.70996l-6.62-10.84998,9.89996-18.01001,9.80005,18.71002-1.24005,2.25995Z"/><path d="M11,19h2.13245c-.0816.32135-.13245.6546-.13245,1,0,2.20557,1.79395,4,4,4h10c1.03223,0,1.98047-.52295,2.53613-1.39941,0-.00049,0-.00098.00098-.00146.30273-.47949.46289-1.03271.46289-1.59912,0-1.33838-.88086-2.4751-2.09375-2.85986-.24316-1.10449-.94629-2.05762-1.93359-2.61182-.23438-1.98438-1.92676-3.52832-3.97266-3.52832-.18115,0-.36017.01239-.53613.03613-.35291-.62518-.85901-1.15265-1.49121-1.50732-.23438-1.98438-1.92676-3.52881-3.97266-3.52881-1.45801,0-2.77734.79102-3.47168,2.02686-1.40527.16211-2.60352,1.0415-3.1748,2.32617-1.42676.63477-2.35352,2.04199-2.35352,3.64697,0,2.20557,1.79395,4,4,4ZM24.00293,16.01953c-.07812.48145.20215.94922.66406,1.10693.79688.27246,1.33301,1.02539,1.33301,1.87354,0,.55225.44727,1,1,1,.55176,0,1,.44873,1,1,0,.18799-.05371.37158-.1543.53076-.18652.29395-.50293.46924-.8457.46924h-10c-1.10254,0-2-.89697-2-2,0-.89062.56934-1.65918,1.41602-1.91211.32324-.09619.5752-.34912.67188-.67188.25293-.84717,1.02148-1.41602,1.92969-1.41943.4834.07764.94922-.20117,1.1084-.66309.27246-.79736,1.02637-1.3335,1.87402-1.3335,1.10254,0,2,.89697,2.00293,2.01953ZM10.41602,13.08789c.32324-.09619.5752-.34912.67188-.67188.25293-.84717,1.02148-1.41602,1.92969-1.41943.48242.07666.9502-.20117,1.1084-.66309.27246-.79736,1.02637-1.3335,1.87402-1.3335,1.10254,0,2,.89697,2.00293,2.01953-.07812.48096.20117.94775.66211,1.10645.38074.13098.69275.37866.92426.68811-.42792.32501-.79218.73431-1.06097,1.21277-1.40527.16211-2.60352,1.0415-3.1748,2.32617-.37238.16571-.70837.38629-1.00507.64697h-3.34845c-1.10254,0-2-.89697-2-2,0-.89062.56934-1.65918,1.41602-1.91211Z"/><circle cx="42" cy="56" r="1"/></g></g></g></svg>