<?xml version="1.0" encoding="UTF-8"?><svg xmlns="http://www.w3.org/2000/svg" version="1.1" viewBox="0 0 64 64"><g><g id="Outline"><g><path d="M25.73279,7h-.97656c-3.30859,0-6.38965,1.31738-8.67578,3.70947s-3.46191,5.52979-3.3125,8.83545l1.02344,22.51074c.16003,3.51666,1.88434,6.59106,4.4798,8.58014.27032,3.55371,3.24164,6.3642,6.86298,6.3642h.2207c3.62134,0,6.59265-2.81049,6.86298-6.3642,2.59546-1.98907,4.31976-5.06348,4.4798-8.58014l1.02344-22.51074c.14941-3.30566-1.02637-6.44336-3.3125-8.83545s-5.36719-3.70947-8.67578-3.70947ZM25.35486,55h-.2207c-2.01422,0-3.74591-1.22534-4.49408-2.96881,1.41119.61798,2.96582.96881,4.60443.96881s3.19324-.35083,4.60443-.96881c-.74817,1.74347-2.47986,2.96881-4.49408,2.96881ZM29.24451,50.10773v-11.10773c0-.55225-.44727-1-1-1s-1,.44775-1,1v11.78302c-.64557.13843-1.31329.21698-2,.21698-5.07129,0-9.22461-3.96875-9.45508-9.03516l-.79065-17.39062,2.91077.63232c2.40039.52832,4.86914.79199,7.33691.79199.66656,0,1.33289-.02289,1.99805-.0614v5.06287c0,.55225.44727,1,1,1s1-.44775,1-1v-5.2406c1.11938-.1308,2.23181-.30994,3.32812-.55139l2.9176-.63379-.79065,17.39062c-.16547,3.63721-2.35791,6.6994-5.45508,8.14288ZM18.69373,18.6499c-.05957-1.49463.47363-2.90723,1.50195-3.97705,1.03711-1.07861,2.42871-1.67285,3.91895-1.67285h2.25977c1.49023,0,2.88184.59424,3.91895,1.67285,1.02832,1.06982,1.56152,2.48242,1.50195,3.97461l-.19989,4.71198c-4.16687.8382-8.52979.83899-12.70184-.00012l-.19983-4.70941ZM35.58423,22.50726l-1.96918.4278.17828-4.20508c.08203-2.04395-.64941-3.97705-2.05859-5.44287-1.41699-1.47461-3.32031-2.28711-5.36035-2.28711h-2.25977c-2.04004,0-3.94336.8125-5.36035,2.28711-1.40918,1.46582-2.14062,3.39893-2.05859,5.44531l.17828,4.20264-1.96918-.4278-.13879-3.05316c-.125-2.75439.85547-5.36963,2.76074-7.36279,1.9043-1.99365,4.47266-3.09131,7.22949-3.09131h.97656c2.75684,0,5.3252,1.09766,7.22949,3.09131,1.90527,1.99316,2.88574,4.6084,2.76074,7.36279l-.13879,3.05316Z"/><path d="M44.24451,18h-1.58594l2.29297-2.29297c.28613-.28613.37207-.71582.2168-1.08984-.1543-.37354-.51953-.61719-.92383-.61719h-4c-.55273,0-1,.44775-1,1s.44727,1,1,1h1.58594l-2.29297,2.29297c-.28613.28613-.37207.71582-.2168,1.08984.1543.37354.51953.61719.92383.61719h4c.55273,0,1-.44775,1-1s-.44727-1-1-1Z"/><path d="M50.24451,11h-1.58594l2.29297-2.29297c.28613-.28613.37207-.71582.2168-1.08984-.1543-.37354-.51953-.61719-.92383-.61719h-4c-.55273,0-1,.44775-1,1s.44727,1,1,1h1.58594l-2.29297,2.29297c-.28613.28613-.37207.71582-.2168,1.08984.1543.37354.51953.61719.92383.61719h4c.55273,0,1-.44775,1-1s-.44727-1-1-1Z"/><circle cx="28.24451" cy="35" r="1"/></g></g></g></svg>