<?xml version="1.0" encoding="UTF-8"?><svg xmlns="http://www.w3.org/2000/svg" version="1.1" viewBox="0 0 64 64"><g><g id="Outline"><g><path d="M36,33v-3c0-.55273-.44727-1-1-1h-6c-.55273,0-1,.44727-1,1v3h-3c-.55273,0-1,.44727-1,1v6c0,.55273.44727,1,1,1h3v3c0,.55273.44727,1,1,1h6c.55273,0,1-.44727,1-1v-3h3c.55273,0,1-.44727,1-1v-6c0-.55273-.44727-1-1-1h-3ZM38,39h-3c-.55273,0-1,.44727-1,1v3h-4v-3c0-.55273-.44727-1-1-1h-3v-4h3c.55273,0,1-.44727,1-1v-3h4v3c0,.55273.44727,1,1,1h3v4Z"/><path d="M32,25c-6.61719,0-12,5.38281-12,12s5.38281,12,12,12,12-5.38281,12-12-5.38281-12-12-12ZM32,47c-5.51367,0-10-4.48633-10-10s4.48633-10,10-10,10,4.48633,10,10-4.48633,10-10,10Z"/><path d="M56,34c.54999,0,1-.45001,1-1v-9c0-1.65002-1.34998-3-3-3h-5v-3c0-.54999-.45001-1-1-1h-1v-5c0-2.76001-2.23999-5-5-5h-20c-2.76001,0-5,2.23999-5,5v5h-1c-.54999,0-1,.45001-1,1v3h-5c-1.65002,0-3,1.34998-3,3v30c0,1.64996,1.34998,3,3,3h5c.38,0,.71997-.21002.89001-.54999.52997-1.03003,1.32996-1.91003,2.29999-2.52002.98999-.60999,2.13-.92999,3.27997-.92999h21.06006c2.37,0,4.50995,1.32001,5.57996,3.45001.17004.33997.51001.54999.89001.54999h5c1.65002,0,3-1.35004,3-3v-13c0-.54999-.45001-1-1-1s-1,.45001-1,1v5.91998c-3.39001-.48999-6-3.40002-6-6.91998v-13h3c.54999,0,1-.45001,1-1v-3h1c.54999,0,1,.45001,1,1v9c0,.54999.45001,1,1,1ZM47,19v2h-6v-2h6ZM24,17h-1v-4h18v4h-1c-.54999,0-1,.45001-1,1v3h-14v-3c0-.54999-.45001-1-1-1ZM19,12c0-1.65002,1.34998-3,3-3h20c1.65002,0,3,1.34998,3,3v5h-2v-5c0-.54999-.45001-1-1-1h-20c-.54999,0-1,.45001-1,1v5h-2v-5ZM17,19h6v2h-6v-2ZM13,23h6v2h-6v-2ZM9,24c0-.54999.45001-1,1-1h1v3c0,.54999.45001,1,1,1h3v13c0,3.51996-2.60999,6.42999-6,6.91998v-22.91998ZM55,48.94v5.06c0,.54999-.45001,1-1,1h-4.40997c-1.49005-2.48004-4.14001-4-7.06-4h-21.06006c-1.52997,0-3.01996.41998-4.32996,1.22998-1.10999.70001-2.04999,1.65002-2.73004,2.77002h-4.40997c-.54999,0-1-.45001-1-1v-5.06c4.48999-.5,8-4.32001,8-8.94v-13h3c.54999,0,1-.45001,1-1v-3h22v3c0,.54999.45001,1,1,1h3v13c0,4.62,3.51001,8.44,8,8.94ZM51,25h-6v-2h6v2Z"/><circle cx="56" cy="37" r="1"/></g></g></g></svg>