<?xml version="1.0" encoding="UTF-8"?><svg xmlns="http://www.w3.org/2000/svg" version="1.1" viewBox="0 0 64 64"><g><g id="Outline"><g><path d="M56,55h-3v-1.19c0-6.54004-2.92999-12.63-8.03003-16.72003-1.68994-1.34998-3.81-2.08997-5.96997-2.08997h-14c-2.15997,0-4.28003.73999-5.96997,2.08997-5.10004,4.09003-8.03003,10.17999-8.03003,16.72003v1.19h-3c-.54999,0-1,.45001-1,1s.45001,1,1,1h48c.54999,0,1-.45001,1-1s-.45001-1-1-1ZM24,55h-6.76001c.67999-4.40002,2.71002-10.95001,5.54004-13.22003.35999-.28998.77997-.48999,1.21997-.60999v13.83002ZM26,55v-13.83002c.44.12.85999.32001,1.21997.60999,2.83002,2.27002,4.86005,8.82001,5.54004,13.22003h-6.76001ZM37,55h-2.21997c-.65002-4.59003-2.78003-11.96002-6.31006-14.78003-.89996-.71997-2.00995-1.08997-3.14996-1.14996-.10004-.04004-.21002-.07001-.32001-.07001s-.21997.02997-.32001.07001c-1.14001.06-2.25.42999-3.14996,1.14996-3.52002,2.82001-5.66003,10.19-6.31006,14.78003h-2.21997v-1.19c0-5.92999,2.65002-11.45001,7.28003-15.16003,1.33997-1.06,3.00995-1.64996,4.71997-1.64996s3.38.58997,4.71997,1.64996c4.63,3.71002,7.28003,9.23004,7.28003,15.16003v1.19ZM51,55h-12v-1.19c0-6.54004-2.92999-12.63-8.03003-16.72003-.03998-.02997-.08997-.06-.12994-.08997h8.15997c1.71002,0,3.38.58997,4.71997,1.64996,4.63,3.71002,7.28003,9.23004,7.28003,15.16003v1.19Z"/><path d="M11,19h10c1.03174,0,1.97949-.52295,2.53564-1.39941v-.00049c.30371-.47949.46436-1.03271.46436-1.6001,0-1.33838-.88086-2.4751-2.09326-2.85986-.24365-1.10449-.94678-2.05762-1.93457-2.61182-.23389-1.98438-1.92627-3.52832-3.97217-3.52832-1.45801,0-2.77734.79102-3.47119,2.02686-1.40527.16211-2.60352,1.0415-3.17578,2.32617-1.42627.63525-2.35303,2.04248-2.35303,3.64697,0,2.20557,1.79443,4,4,4ZM10.41602,13.08789c.32275-.09619.57568-.34912.67188-.67188.25293-.84717,1.02148-1.41602,1.93164-1.41943.48535.07861.94922-.20215,1.10693-.66357.27246-.79736,1.02539-1.33301,1.87354-1.33301,1.10303,0,2,.89697,2.00342,2.01953-.07861.48145.20166.94922.66357,1.10693.79736.27246,1.33301,1.02539,1.33301,1.87354,0,.55225.44775,1,1,1,.55127,0,1,.44873,1,1,0,.1875-.05322.37109-.15381.52979-.18701.29443-.50342.47021-.84619.47021h-10c-1.10303,0-2-.89697-2-2,0-.89062.56885-1.65918,1.41602-1.91211Z"/><path d="M21.52881,22.02686c-1.40527.16211-2.60352,1.0415-3.17578,2.32617-1.42627.63525-2.35303,2.04248-2.35303,3.64697,0,2.20557,1.79443,4,4,4h10c1.03174,0,1.97949-.52295,2.53564-1.39941v-.00049c.30371-.47949.46436-1.03271.46436-1.6001,0-1.33838-.88086-2.4751-2.09326-2.85986-.24365-1.10449-.94678-2.05762-1.93457-2.61182-.23389-1.98438-1.92627-3.52832-3.97217-3.52832-1.45801,0-2.77734.79102-3.47119,2.02686ZM23.12646,23.33301c.27246-.79736,1.02539-1.33301,1.87354-1.33301,1.10303,0,2,.89697,2.00342,2.01953-.07861.48145.20166.94922.66357,1.10693.79736.27246,1.33301,1.02539,1.33301,1.87354,0,.55225.44775,1,1,1,.55127,0,1,.44873,1,1,0,.1875-.05322.37109-.15381.52979-.18701.29443-.50342.47021-.84619.47021h-10c-1.10303,0-2-.89697-2-2,0-.89062.56885-1.65918,1.41602-1.91211.32275-.09619.57568-.34912.67188-.67188.25293-.84717,1.02148-1.41602,1.93164-1.41943.48584.08057.94922-.20215,1.10693-.66357Z"/><path d="M48.90997,13.14001c-.25-1.10004-.94995-2.06006-1.94-2.61005-.22998-1.98999-1.91998-3.52997-3.96997-3.52997-1.46002,0-2.78003.78998-3.46997,2.02997-.37006.04004-.72003.13-1.05005.27002-.32001-.13-.65997-.22998-1.01001-.27002-.68994-1.23999-2.00995-2.02997-3.46997-2.02997-2.04999,0-3.73999,1.53998-3.96997,3.52997-.99005.54999-1.69,1.51001-1.94,2.61005-1.21002.37994-2.09003,1.51996-2.09003,2.85999,0,.58997.16998,1.14996.46002,1.57996.53998.89001,1.48999,1.42004,2.53998,1.42004h9c.54999,0,1-.45001,1-1s-.45001-1-1-1c-1.09998,0-2-.90002-2-2,0-.89001.57001-1.66003,1.41998-1.91003.32001-.09998.57001-.34998.67004-.66998.25-.84998,1.01996-1.41998,1.92999-1.41998.48999.07996.94995-.21002,1.10999-.67004.27002-.78998,1.02002-1.32996,1.87-1.32996,1.09998,0,2,.89996,2,2.01996-.08002.48004.21002.95001.66998,1.11005.79004.26996,1.33002,1.01996,1.33002,1.87,0,.54999.45001,1,1,1s1,.45001,1,1c0,.19-.04999.37-.15997.53998-.18005.28998-.49005.46002-.84003.46002h-2c-.54999,0-1,.45001-1,1s.45001,1,1,1h2c1.04999,0,2-.53003,2.52002-1.39001.31-.46002.47998-1.02002.47998-1.60999,0-1.34003-.88-2.48004-2.09003-2.85999ZM36.34998,11.34998c-1.41998.64001-2.34998,2.04999-2.34998,3.65002,0,.72998.21002,1.40997.56,2h-5.56c-.34998,0-.65997-.17004-.85999-.48999-.09003-.14001-.14001-.32001-.14001-.51001,0-.54999.45001-1,1-1s1-.45001,1-1c0-.85004.53998-1.60004,1.33002-1.87.45996-.16003.75-.65002.66998-1.13,0-1.10004.90002-2,2-2,.84998,0,1.59998.53998,1.87,1.32996.10999.32001.38.54004.69.63-.08002.13-.15002.26001-.21002.39001Z"/><circle cx="42" cy="18" r="1"/></g></g></g></svg>