<?xml version="1.0" encoding="UTF-8"?><svg xmlns="http://www.w3.org/2000/svg" version="1.1" viewBox="0 0 64 64"><g><g id="Outline"><g><path d="M30.98939,11.78998c-.76001-2.25-3.08002-3.59998-5.39996-3.13l-.59003.12v-.77997c0-.54999-.45001-1-1-1h-8c-.54999,0-1,.45001-1,1v4c0,.54999.45001,1,1,1h1v8h-1c-.54999,0-1,.45001-1,1v4c0,.54999.45001,1,1,1h2v6c0,.54999.45001,1,1,1s1-.45001,1-1v-6h2v18h-2v-4c0-.54999-.45001-1-1-1s-1,.45001-1,1v4h-1c-.54999,0-1,.45001-1,1v4c0,.54999.45001,1,1,1h1v3c0,.26996.10999.51996.28998.70996l2,2c.20001.19.45001.29004.71002.29004s.51001-.10004.71002-.29004l2-2c.17999-.19.28998-.44.28998-.70996v-3h1c.54999,0,1-.45001,1-1v-4c0-.54999-.45001-1-1-1h-1v-18h2c.54999,0,1-.45001,1-1v-4c0-.54999-.45001-1-1-1h-1v-1.42004l3.84998-2.19995c1.95001-1.11005,2.84003-3.46002,2.14001-5.59003ZM16.9994,9h6v12h-4v-9c0-.54999-.45001-1-1-1h-1v-2ZM21.9994,53.58997l-1,1-1-1v-2.58997h2v2.58997ZM23.9994,49h-6v-2h6v2ZM24.9994,25h-8v-2h8v2ZM27.85939,15.64001l-2.85999,1.63995v-6.45996l.97998-.20001c1.34003-.27002,2.67999.51001,3.11005,1.81.40997,1.21997-.11005,2.57001-1.23004,3.21002Z"/><path d="M48.75941,11.79999c-.75-2.26001-3.08002-3.60999-5.40002-3.14001l-.58997.12v-.77997c0-.54999-.45001-1-1-1h-8c-.55005,0-1,.45001-1,1v4c0,.54999.44995,1,1,1h1v8h-1c-.55005,0-1,.45001-1,1v4c0,.54999.44995,1,1,1h2v18h-1c-.55005,0-1,.45001-1,1v4c0,.54999.44995,1,1,1h1v3c0,.26996.10999.51996.28998.70996l2,2c.20001.19.46002.29004.71002.29004.26001,0,.51001-.10004.70996-.29004l2-2c.19-.19.29004-.44.29004-.70996v-3h1c.54999,0,1-.45001,1-1v-4c0-.54999-.45001-1-1-1h-1v-18h2c.54999,0,1-.45001,1-1v-4c0-.54999-.45001-1-1-1h-1v-1.42004l3.84998-2.19995c1.95001-1.11005,2.84998-3.46002,2.14001-5.58002ZM34.76942,9h6v12h-4v-9c0-.54999-.45001-1-1-1h-1v-2ZM39.76942,53.58997l-1,1-1-1v-2.58997h2v2.58997ZM41.76942,49h-6v-2h6v2ZM37.76942,45v-18h2v18h-2ZM42.76942,25h-8v-2h8v2ZM45.6294,15.64001l-2.85999,1.63995v-6.45996l.97998-.20001c1.34003-.27002,2.67999.51001,3.10999,1.81.41003,1.21997-.10999,2.57001-1.22998,3.21002Z"/><circle cx="18.9994" cy="37" r="1"/></g></g></g></svg>