<?xml version="1.0" encoding="UTF-8"?><svg xmlns="http://www.w3.org/2000/svg" version="1.1" viewBox="0 0 64 64"><g><g id="Outline"><g><path d="M45,40c.54999,0,1-.45001,1-1v-2.51001c0-5.59998-2.14001-10.84998-6-14.87v-7.62c0-.54999-.45001-1-1-1h-1c0-3.31-2.69-6-6-6s-6,2.69-6,6h-1c-.54999,0-1,.45001-1,1v7.62c-1.85999,1.92999-3.34003,4.15997-4.37,6.64001-1.08002,2.63-1.63,5.39996-1.63,8.22998v19.51001c0,.54999.45001,1,1,1h26c.54999,0,1-.45001,1-1v-9c0-.54999-.45001-1-1-1s-1,.45001-1,1v2h-5.72998c2.26001-1.65002,3.71997-4.16003,3.72998-6.97003v-.02997c0-2.83002-1.46002-5.35004-3.72998-7h5.65997c.03998.48999.07001.98999.07001,1.48999v2.51001c0,.54999.45001,1,1,1ZM32,9c2.21002,0,4,1.78998,4,4h-8c0-2.21002,1.78998-4,4-4ZM26,15h12v6h-12v-6ZM20,36.48999c0-.5.03003-1,.07001-1.48999h5.65997c-2.26001,1.64996-3.71997,4.15997-3.72998,6.96997v.03003c0,2.82996,1.46002,5.34998,3.72998,7h-5.72998v-12.51001ZM44,51v4h-24v-4h24ZM32,49c-4.15997,0-7.58002-2.79004-7.96002-6.34003l.17999-.07001c2.37006-.94995,5.05005-.83997,7.33002.30005,1.54004.76996,3.22003,1.15997,4.90002,1.15997,1.13,0,2.26001-.17999,3.35999-.53003-.79999,3.13-3.98999,5.48004-7.81,5.48004ZM39.96002,41.33997l-.17999.07001c-2.37006.95001-5.05005.84003-7.33002-.29999-2.57001-1.28998-5.54004-1.5-8.26001-.62.79999-3.14001,3.98999-5.48999,7.81-5.48999,4.15997,0,7.58002,2.78998,7.96002,6.33997ZM20.33002,33c.23999-1.35999.62-2.69,1.14996-3.98004.94-2.23999,2.26001-4.26996,3.94-6.01996h13.16003c2.67999,2.78998,4.42999,6.25,5.09998,10h-23.34998Z"/><circle cx="45" cy="43" r="1"/></g></g></g></svg>