<?xml version="1.0" encoding="UTF-8"?><svg id="_2GB_DIGITAL" xmlns="http://www.w3.org/2000/svg" viewBox="0 0 687.45 358.65"><defs><style>.cls-1{fill:#0057b7;}.cls-2{fill:#fff;}</style></defs><path d="M440.52,217.17v-8.08h22.74V17.86h-22.74V9.79h164.29c30.82,0,73.32,11.07,73.32,49.37s-39.8,46.08-69.13,46.68v5.98c6.28,.3,12.87,.9,19.15,1.5,27.83,2.69,55.06,16.76,55.06,48.48,0,59.25-69.43,55.36-111.02,55.36h-131.67Zm114.31-112.22h12.87c11.67,0,17.06-9.87,17.06-23.34V40.01c0-15.56-7.78-22.15-23.04-22.15h-6.88V104.94Zm0,104.14h10.18c22.74,0,23.34-20.65,23.34-29.03v-39.2c0-23.04-11.37-27.53-26.33-27.53h-7.18v95.76Z"/><path d="M318.89,109.72v8.38h17.38l.06,78.4c0,9.78-7.92,17.7-17.7,17.7s-17.7-7.93-17.7-17.7V86.08c0-29.03-.6-66.75,38.65-66.75,31.63,0,57.41,31.78,69.4,58.46h8.38V5.25h-11.37l-27.97,17.08c-18.31-12.29-39.93-17.08-61.8-17.08-47.98,0-112.19,32.05-112.19,111.06,0,62.87,45.91,105.4,112.48,105.4,20.98,0,32.09-2.4,72.02-17.38,11.11-4.19,22.21-6.29,34.53-6.29V118.1h16.19v-8.38h-120.33Z"/><path d="M177.07,146.58c-2.99,14.39-11.09,19.48-41.07,14.69-11.39-1.8-24.89-3.6-36.58-3.6-20.68,0-36.71,2.85-46.6,7.34-7.01,3.18-12.73,6.84-16.38,9.37-.68,.47-1.58-.2-1.3-.98,7.86-21.9,51.55-36.62,66.68-40.63,63.6-16.58,79.19-30.97,79.19-65.44,0-27.58-21.29-62.06-95.08-62.06C44.83,5.28,7.36,21.77,7.36,55.05c0,18.88,13.49,33.87,32.98,33.87s34.32-12.69,32.54-33.13c-1.42-16.19-15.5-28.16-31.73-27.38-.82,.04-1.58,.23-1.58,.23,6.13-12.63,20.51-13.62,25.19-13.1,25.97,2.87,36.51,22.71,36.51,46.09,0,29.08-10.82,44.37-32.46,62.05C36.89,150.25,3.35,175.08,4.25,221.7H13.51c2.1-8.67,11.09-12.85,19.48-12.85,8.99,0,19.49,2.69,29.98,5.38,23.86,5.98,34.65,7.48,43.35,7.48,25.48,0,42.87-3.89,56.66-17.05,12.29-11.67,22.02-29.62,22.91-58.07h-8.82Z"/><rect class="cls-1" x="5.3" y="246.72" width="675.74" height="106.69"/><g><polygon class="cls-2" points="227.27 331.42 227.27 307.14 201.54 270.6 216.79 270.6 234.25 296.15 251.88 270.6 266.62 270.6 240.89 307.14 240.89 331.42 227.27 331.42"/><path class="cls-2" d="M274.53,331.42v-60.81h27.26c11.64,0,20.51,2.6,26.62,7.79,6.1,5.2,9.16,12.73,9.16,22.62s-3.22,17.2-9.67,22.48c-6.45,5.28-15.6,7.92-27.47,7.92h-25.89Zm26.49-11.33c7.44,0,13.05-1.62,16.82-4.86,3.78-3.23,5.66-8,5.66-14.31,0-12.66-7.1-18.99-21.29-18.99h-14.14v38.16h12.95Z"/><polygon class="cls-2" points="397.96 331.42 362.78 288.91 362.78 331.42 349.75 331.42 349.75 270.6 362.18 270.6 397.36 313.1 397.36 270.6 410.39 270.6 410.39 331.42 397.96 331.42"/><polygon class="cls-2" points="425.82 331.42 425.82 270.6 476.75 270.6 476.75 281.76 439.45 281.76 439.45 294.53 474.96 294.53 474.96 305.69 439.45 305.69 439.45 320.26 476.75 320.26 476.75 331.42 425.82 331.42"/><polygon class="cls-2" points="509.27 331.42 509.27 307.14 483.55 270.6 498.8 270.6 516.26 296.15 533.89 270.6 548.62 270.6 522.9 307.14 522.9 331.42 509.27 331.42"/><path class="cls-2" d="M183.4,287.72c-.97-2.96-2.98-4.98-5.37-6.26s-5.71-1.92-9.96-1.92c-4.83,0-8.52,.6-11.07,1.79-2.56,1.19-3.83,2.93-3.83,5.2s.78,3.75,2.34,4.77c1.56,1.02,4.41,1.84,8.56,2.47l12.52,1.96c7.44,1.19,12.89,3.28,16.35,6.26,3.46,2.98,5.19,7.08,5.19,12.31,0,5.91-2.51,10.49-7.54,13.75-5.02,3.26-12.19,4.9-21.51,4.9-6.75,0-12.36-.79-16.82-2.38-4.46-1.59-7.87-4-10.22-7.24-2.36-3.24-3.76-7.35-4.21-12.35h13.71c.57,3.97,2.24,6.89,5.03,8.73,2.78,1.85,6.95,2.77,12.52,2.77,4.99,0,8.76-.67,11.29-2,2.53-1.33,3.79-3.31,3.79-5.92,0-2.1-.84-3.75-2.51-4.94-1.68-1.19-4.33-2.05-7.96-2.56l-10.22-1.45c-8.29-1.14-14.35-3.19-18.18-6.17-3.83-2.98-5.75-7.17-5.75-12.56,0-3.63,1.14-6.79,3.41-9.45,2.27-2.67,5.58-4.73,9.92-6.17,4.34-1.45,9.52-2.17,15.55-2.17,8.29,0,14.71,1.38,19.25,4.13,4.54,2.75,7.86,5.77,9.78,14.52h-14.04Z"/></g></svg>