<svg aria-hidden="true" height="34" preserveAspectRatio="xMinYMid meet" viewBox="0 0 137 34" width="137" xmlns="http://www.w3.org/2000/svg"><path d="M122.777 27.077c3.255 0 5.897-1.842 7.067-4.926l.282-.743 6.167 2.804-.292.666c-2.308 5.267-7.382 8.475-13.33 8.476-.195 0-.392-.004-.59-.011-8.783-.267-14.242-6.578-14.242-16.47 0-11.92 7.523-16.346 14.563-16.513 6.476-.172 11.813 3.258 13.625 8.751l.189.574-.529.3c-.198.112-1.328.644-3.482 1.652-.647.303-1.153.539-1.24.582l-.813.404-.24-.87c-.702-2.543-2.909-5.26-7.001-5.26-5.085 0-8.001 3.703-8.001 10.16 0 5.039 2.066 10.424 7.867 10.424Z" fill="currentColor"></path><path fill-rule="evenodd" clip-rule="evenodd" d="m60.746.354-11.63 32.682h7.517l2.572-7.53H70.26l2.573 7.53h7.562L68.764.354h-8.018Zm7.361 18.894H61.32l3.43-9.315 3.358 9.315ZM101.831 15.717c2.025-1.412 3.264-3.96 3.264-6.91 0-6.987-5.861-8.453-10.777-8.453H81.146v32.682h13.306c7.309 0 11.501-3.552 11.501-9.746 0-3.469-1.512-6.192-4.122-7.573ZM88.3 12.92V6.478h5.927c3.292 0 3.715 1.602 3.715 2.998 0 2.285-1.326 3.444-3.94 3.444H88.3Zm10.5 10.125c-.075 2.513-1.482 3.733-4.302 3.733H88.3v-7.555h5.747c1.763 0 3.105.416 3.881 1.203.61.62.904 1.5.872 2.62ZM41.306 1.426C40.056.674 38.57.268 37.1.383l-.038.003c-.045.004-.092.006-.138.011v.005c-.6.08-1.315.25-1.865.505-1.836.884-3.454 2.722-3.893 4.855l3.375 9.557 2.474-7.16.168-.49v18.156L30.13 5.91c-1.173-2.87-2.932-3.975-3.595-4.41C25.262.697 23.66.334 22.055.36V.354a5.479 5.479 0 0 0-.144.008l-.142.001V.37c-.765.052-1.697.182-2.368.391-1.983.739-3.67 1.47-5.434 4.635l3.599 9.482 2.061-5.666c.396-1.049 1.222-1.54 2.063-1.518a2.781 2.781 0 0 1 2.198 1.667l6.763 17.932s1.17 2.872 1.764 3.455c1.323 1.691 3.382 2.279 4.997 2.279.95 0 1.324-.073 2.127-.366 1.843-.808 3.972-2.575 4.189-5.88V7.23c-.069-2.866-.58-4.41-2.422-5.804Z" fill="currentColor"></path><path fill-rule="evenodd" clip-rule="evenodd" d="M24.032 24.209c-.365 1.062-1.303 1.549-2.155 1.515-.823-.073-1.64-.638-2.03-1.664L13.082 6.05s-1.181-2.86-1.764-3.45C9.92.979 7.937.32 6.321.394c-.956 0-1.327.072-2.202.366C2.278 1.571.222 3.333 0 6.572V26.19c.067 2.796.59 4.415 2.42 5.74a6.803 6.803 0 0 0 4.12 1.116l.18-.006c.727-.044 1.27-.207 1.955-.523 1.834-.882 3.384-2.72 3.893-4.927l-3.382-9.555-2.72 7.641V7.595l7.13 19.847c1.17 2.868 2.938 4.042 3.604 4.488 1.165.688 2.614 1.075 4.086 1.127.183.004.478.006.66 0a8.95 8.95 0 0 0 2.38-.396c1.982-.73 3.671-1.543 5.44-4.706l-3.595-9.408-2.14 5.662Z" fill="currentColor"></path></svg>