<svg width="1008" height="80" viewBox="0 0 1008 80" fill="none" xmlns="http://www.w3.org/2000/svg">
<path fill-rule="evenodd" clip-rule="evenodd" d="M978.309 9.59298L977.279 9.08908L978.031 6.43102L977.975 5.60904L978.781 5.41063L979.716 3.79501L979.02 2.97617L978.561 3.15569L977.861 2.47228L977.084 3.74147L976.428 3.39189L975.244 3.11474L973.852 2.64234L973.112 2.48802L972.278 1.80461L970.646 1.69438L971.623 2.36205L971.956 3.27536L971.512 3.76981L970.369 3.96507L969.198 3.68478L968.391 4.27056L967.891 4.79965L967.472 5.49566L967.862 6.47196L966.719 6.88768L966.609 7.39157L965.913 8.14112L966.634 8.81193L966.662 9.67486L965.966 9.53629L964.965 9.08908L964.351 9.45125L964.155 10.4842L963.878 10.6795L963.96 8.92216L963.179 8.70171L962.625 7.92067L962.093 7.58368L961.286 7.80729L960.896 8.58833L959.951 9.03554L959.419 8.55999L958.584 9.11742L957.998 10.733L957.359 11.2086L957.888 12.1534L957.775 12.9911L956.606 13.325L956.021 13.0478L955.825 13.7155L956.354 14.802L956.049 15.8319L955.186 14.2729L954.824 13.4352L954.128 14.106L953.57 14.9122L953.763 15.9137L954.153 17.0034L952.871 18.3954L952.456 19.8158L951.646 20.5401L950.783 20.7071L949.725 21.2928L948.695 21.4881L947.971 22.7132L946.966 22.2408L945.88 23.5194L944.85 23.214L943.763 24.08L943.178 25.1634L942.453 25.2201L941.757 26.3917L941.285 27.2829L940.39 26.6971L940.308 27.727L940.17 28.3946L940.529 29.6512L940.39 30.9047L940.504 31.796L941.31 33.1061L942.148 33.6068L942.006 35.1374L941.061 34.4698L941.228 35.2225L940.56 35.0272L941.452 36.5609L942.119 37.4522L943.011 39.0678L943.82 40.0977L945.045 40.7653L945.073 42.3809L945.603 43.6911L947.218 45.9208L947.247 47.1743L947.495 48.7049L946.856 49.2371L947.385 50.2669L948.305 50.796L949.53 51.4354L951.174 51.3535L952.484 50.796L954.21 49.6812L954.849 48.9568L956.077 48.3427L957.274 48.1506L957.998 48.8182L959.028 48.1191L959.727 48.0939L960.701 47.5081L960.981 46.3113L961.286 45.9208L963.374 44.4438L964.851 44.7493L967.554 43.5242L968.278 42.8565L969.84 42.466L971.371 42.7431L972.013 42.5479L972.791 42.9384L973.657 43.5525L974.797 43.4675L975.83 43.773L976.693 45.335L977.389 45.5303L977.528 46.1413L978.561 48.0655L979.786 48.6797L979.896 48.0088L980.23 47.2278L980.816 46.5885L981.93 46.0594L981.764 45.1965L981.987 44.7776L982.737 44.4438L982.598 45.9775L981.735 48.2325L981.26 49.0135L982.683 48.9568L982.96 47.3695L983.464 47.9553L983.546 49.1521L983.074 50.1536L983.77 50.1L984.519 49.7378L985.3 51.2968L985.637 52.5502L985.829 53.5265L987.835 55.3941L989.536 55.476L990.594 56.0051L991.514 56.6192L992.906 55.6146L993.215 55.0288L993.492 55.8665L993.992 55.8382L995.331 56.8396L996.528 56.2854L997.866 55.1988L998.701 54.9752L999.787 55.0855L1000.96 54.3611L1001.21 53.2746V52.8557L1001.57 51.3251L1002.52 49.5426L1002.99 48.1191L1003.47 47.4514L1003.8 46.4216L1004.83 45.0012L1005.42 44.5257L1006.11 43.5525L1006.84 41.5747L1006.75 39.9307L1007.39 39.345L1007.56 38.4254L1008.01 37.786L1007.87 34.2462L1007.56 34.2745L1007.7 32.4353L1007.64 31.4621L1007.73 30.5425L1007.7 29.204L1007.03 29.9284L1006.33 28.3128L1004.47 26.3633L1003.58 23.9666L1002.71 23.4942L1002.57 23.9666L1002.05 23.1604L1001.65 21.5416L1001.02 20.7638L1000.62 19.5103L999.482 18.8962L998.842 18.0616L997.614 17.753L996.613 16.7798L996.194 15.498L996.084 12.9061L995.47 12.462L995.051 10.7897L994.997 9.31268L994.522 8.28284L993.602 7.2782L993.268 7.30654L992.629 7.80729L991.738 6.19167L991.542 4.5477L991.208 3.57455L991.152 2.70848L990.456 2.51637L990.371 0.730681L989.703 0.286621L989.369 0.759025L989.089 1.40149L989.174 2.59825L988.506 3.48952L988.588 4.27056L988.45 5.60904L988.031 7.0294L988.059 8.2545L988.254 9.06073L987.782 9.952L987.725 11.8479L987.224 12.8242L987.001 13.6021L986.138 14.3265L984.661 13.7155L983.656 12.6825L982.655 12.377L981.345 11.4857L980.482 11.0133L978.309 9.59298ZM993.618 60.0457L992.657 60.074L992.698 61.1165L993.548 62.3006L993.605 63.8879L994.314 65.072L994.997 65.9224L995.986 65.8405L996.276 64.9744L996.947 64.5996L997.586 64.5713L997.683 63.5698L998.159 62.6376L998.074 60.5748L997.419 60.2535L996.417 60.6566L995.47 61.1731L994.496 60.559L993.618 60.0457Z" fill="#ED5843"/>
<path fill-rule="evenodd" clip-rule="evenodd" d="M409.089 80C397.994 80 387.973 76.9577 383.677 73.9123C383.677 73.6348 384.158 68.1164 384.595 63.0889L384.6 63.0308L384.602 63.0123L384.603 63.0005C384.941 59.1228 385.251 55.5579 385.294 54.9446L388.508 55.3027C388.508 59.0599 389.223 66.2184 395.128 68.7222C395.292 68.7904 395.472 68.8671 395.667 68.9504L395.669 68.9511C398.031 69.9594 402.683 71.9439 409.624 71.9439C420.54 71.9439 423.582 66.3979 423.582 61.3841C423.582 55.6586 419.287 52.4368 410.519 49.5741C408.015 48.6796 402.825 46.7113 396.92 44.3839C387.255 40.6267 383.497 33.4682 383.497 22.5494C383.497 3.58082 401.216 0 414.459 0C422.153 0 430.029 1.42981 435.755 2.86277C435.755 2.50374 433.786 25.9476 433.786 25.9476H430.565C430.744 12.1691 424.839 8.05291 413.564 8.05291C406.226 8.05291 397.814 9.48272 397.814 17.3561C397.814 23.4719 405.59 26.1331 415.77 29.6172L415.771 29.6173C418.696 30.6186 421.82 31.6878 425.015 32.9265C432.889 35.9688 438.079 43.4863 438.079 54.761C438.079 74.265 419.825 79.9937 409.086 79.9937L409.089 80ZM385.286 54.9437L385.294 54.9446C385.302 54.8244 385.3 54.8176 385.286 54.9437ZM62.2251 23.2368L62.2251 23.2366C61.0982 17.5746 59.596 10.0276 50.2858 10.0276H42.0534V67.2955C42.0534 72.9539 42.7839 73.0611 48.869 73.9546C49.517 74.0498 50.2257 74.1538 51.0007 74.2745L54.5784 74.454V78.5702H11.2747V74.454L23.8029 73.0242V10.0276H15.5704C6.34342 10.0276 4.91599 17.4446 3.82967 23.0892C3.63086 24.1222 3.44347 25.0959 3.22179 25.9539H0.00285328C0.0900758 25.4342 2.14786 1.25975 2.14786 1.25975H63.7084C63.7084 1.25975 65.7667 25.4403 65.8534 25.957H62.8139V25.9539C62.6033 25.1369 62.4198 24.2149 62.2251 23.2368ZM65.8562 25.957H65.8534C65.8553 25.9681 65.8562 25.9683 65.8562 25.957ZM0 25.9539C0 25.9653 0.000964723 25.9651 0.00285328 25.9539H0ZM121.868 78.567H110.593V74.4508L120.794 73.021V42.9573H96.2759V67.2955C96.2759 73.1186 97.0488 73.2183 103.627 74.0662C104.125 74.1304 104.656 74.1989 105.223 74.2745L106.477 74.454V78.5702H67.2829V74.454L78.0191 73.0242V12.5345C78.0191 6.5361 77.1989 6.44626 70.0584 5.66407L70.0576 5.66399C69.7415 5.62937 69.4131 5.59339 69.0717 5.55548L67.2829 5.37596V1.25975H106.477V5.37596L96.2759 6.80577V34.9043H120.794V12.5345C120.794 6.71131 120.021 6.61168 113.443 5.76377C112.945 5.69956 112.413 5.63107 111.846 5.55548L110.593 5.37596V1.25975H149.787V5.37596L139.05 6.80577V67.2955C139.05 73.2938 139.871 73.3837 147.011 74.1659C147.327 74.2005 147.656 74.2365 147.998 74.2745L149.787 74.454V78.5702H121.868V78.567ZM152.47 78.567H215.284V78.5733L217.252 56.5625H214.21C211.703 67.6545 208.302 70.5173 193.808 70.5173C181.449 70.5173 181.45 69.3345 181.459 60.8721L181.459 60.85L181.46 60.4436L181.46 60.1402V42.9604H195.238C199.175 42.9604 204.009 42.9604 203.83 52.6226H206.872L209.02 27.0309H205.798C205.083 30.9676 204.365 34.9043 196.851 34.9043H181.46V9.31266H199.893C209.379 9.31266 210.809 14.1469 210.988 20.7669H214.03L215.643 1.25975H152.47V5.37596L154.259 5.55548C154.6 5.59342 154.929 5.62942 155.245 5.66407C162.386 6.44626 163.206 6.5361 163.206 12.5345V73.021L152.47 74.4508V78.567ZM271.116 17.0065C271.116 17.0065 265.39 34.0068 260.38 48.1443H281.316L271.116 17.0065ZM301.539 78.567H301.535H277.559V74.4508L289.369 73.021L283.82 56.2003H257.514C255.593 61.6118 254.182 65.833 253.781 67.0322L253.753 67.116C251.964 72.662 254.292 73.5564 262.165 74.4508V78.567H234.246V74.4508L243.908 73.021L268.609 1.25975H284.894L307.62 68.7253C309.149 73.4768 311.318 73.7225 314.133 74.0414C314.286 74.0588 314.442 74.0764 314.599 74.095L318 74.4508V78.567H301.539ZM374.55 50.4716V6.80577H374.556L385.292 5.37596V1.25975H356.479V5.37596L358.268 5.55548C358.608 5.59327 358.936 5.62914 359.251 5.66366L359.254 5.66407C366.395 6.44626 367.215 6.5361 367.215 12.5345V48.3238C367.215 60.6724 365.962 71.229 349.856 71.229C336.074 71.229 332.676 62.4644 332.676 49.5772V6.80577L343.412 5.37596V1.25975H304.578V5.37596L306.366 5.55548C306.707 5.59327 307.034 5.62914 307.349 5.66366L307.353 5.66407C314.494 6.44626 315.314 6.5361 315.314 12.5345V50.4716C315.314 68.1868 322.116 79.641 347.349 79.641C374.012 79.641 374.55 60.6724 374.55 50.4716ZM501.199 23.2293L501.199 23.2302L501.2 23.2315C501.395 24.2116 501.579 25.1354 501.79 25.9539H504.827C504.829 25.965 504.83 25.9651 504.83 25.9539H504.827C504.74 25.4371 502.682 1.25659 502.682 1.25659H441.121C441.121 1.25659 439.063 25.4342 438.976 25.9539H438.973C438.973 25.9653 438.974 25.9651 438.976 25.9539H442.195C442.417 25.0965 442.604 24.1236 442.803 23.0914L442.803 23.0902L442.803 23.0892C443.889 17.4446 445.317 10.0276 454.544 10.0276H462.776V73.0242L450.248 74.454V78.5702H493.555V74.454L489.977 74.2745C489.202 74.1538 488.493 74.0498 487.845 73.9546C481.76 73.0611 481.03 72.9539 481.03 67.2955V10.0276H489.262C498.569 10.0276 500.071 17.5681 501.199 23.2293ZM726.198 78.567H668.754V74.4508L677.701 73.021V12.5345C677.701 6.5361 676.881 6.44626 669.74 5.66408C669.424 5.62943 669.095 5.59342 668.754 5.55548L666.965 5.37596V1.25975H706.691V5.37596L695.955 6.80577V60.137C695.955 60.3848 695.954 60.6268 695.954 60.8631C695.945 69.3308 695.944 70.5141 708.303 70.5141C719.578 70.5141 722.979 64.0737 725.483 52.9785H728.525L726.198 78.567ZM620.972 15.2177C620.972 15.2177 614.528 33.1124 608.982 48.1474H631.352L620.972 15.2177ZM629.204 78.567V74.4508L639.225 73.021L633.856 56.2003H605.94C603.612 62.6439 601.823 67.6514 601.464 68.7253C599.855 73.7359 603.433 74.4508 608.623 74.4508V78.567H586.074V74.4508L593.052 73.021L618.468 1.25975H634.753L657.482 68.7253C658.972 73.3565 661.988 73.8579 663.991 74.1907C664.116 74.2116 664.238 74.2318 664.355 74.2524L664.411 74.2622L664.461 74.2713L666.968 74.4508V78.567H629.207H629.204ZM545.989 9.31266H535.252V37.9466H545.989C554.936 37.9466 559.587 32.7565 559.587 23.0942C559.587 10.9251 550.82 9.31581 545.989 9.31581V9.31266ZM572.475 78.5733H561.379C560.844 75.5311 559.77 69.985 559.052 67.1223C557.619 60.3228 556.189 54.9532 553.682 50.3016C551.534 46.5412 547.418 46.0058 540.26 46.0058H535.249V67.3018C535.249 73.3001 536.069 73.39 543.21 74.1722C543.526 74.2068 543.855 74.2428 544.197 74.2808L545.985 74.4603V78.5765H506.256V74.4603L516.995 73.0305V12.5345C516.995 6.53606 516.175 6.44626 509.032 5.66406C508.716 5.62941 508.387 5.59341 508.045 5.55548L506.256 5.37596V1.25975H545.091C564.957 1.25975 576.052 6.27038 576.052 21.6613C576.052 39.0206 565.137 40.8094 557.084 41.8833C567.999 43.8517 573.728 47.9679 578.021 69.7992C578.76 73.4971 580.355 73.7717 582.603 74.1589C583.075 74.2403 583.577 74.3267 584.105 74.4508V78.567H572.475V78.5733ZM728.525 78.567H740.335V78.5702H768.254V74.454L766.466 74.2745C766.13 74.2372 765.806 74.2017 765.495 74.1676L765.49 74.1671L765.479 74.1659C758.338 73.3837 757.518 73.2938 757.518 67.2955V6.80577L768.254 5.37596V1.25975H728.525V5.37596L730.314 5.55548C730.656 5.59342 730.984 5.62943 731.301 5.66408C738.441 6.44626 739.262 6.5361 739.262 12.5345V73.021L728.525 74.4508V78.567ZM806.906 17.0065C806.906 17.0065 801.181 34.0068 796.17 48.1443H817.107L806.906 17.0065ZM837.329 78.567H813.35V74.4508L825.163 73.021L819.614 56.2003H793.308C791.431 61.4867 790.045 65.6371 789.608 66.9442L789.606 66.9499L789.55 67.116C787.762 72.662 790.089 73.5564 797.962 74.4508V78.567H770.043V74.4508L779.706 73.021L804.403 1.25975H820.688L843.417 68.7253C844.943 73.4765 847.115 73.7225 849.929 74.0413L850.204 74.0726C850.268 74.0799 850.332 74.0874 850.396 74.095L853.797 74.4508V78.567H837.333H837.329ZM924.482 79.2851V6.80577H924.488L935.224 5.37596V1.25975H906.414V5.37596L908.202 5.55548C908.544 5.59342 908.873 5.62942 909.189 5.66407C916.33 6.44626 917.15 6.5361 917.15 12.5345V52.2636L883.682 1.25975H853.259V5.37596L857.195 5.55548C857.97 5.67569 858.678 5.7794 859.325 5.87423C865.412 6.76568 866.143 6.87268 866.143 12.5345V73.021L856.122 74.4508V78.5702H884.217V74.4508L882.428 74.2713C882.09 74.2337 881.764 74.198 881.45 74.1637C874.301 73.3804 873.478 73.2901 873.478 67.2923V18.9749L913.027 79.2851H924.482Z" fill="#00405C"/>
</svg>
