<?xml version="1.0" encoding="UTF-8"?><svg xmlns="http://www.w3.org/2000/svg" version="1.1" viewBox="0 0 64 64"><g><g id="Outline"><g><path d="M56.01851,46.9995h-4v-21.92999l1.52002.85999c.47998.27002,1.08997.09998,1.37-.38l1.95996-3.47998c.14001-.23004.17004-.51001.10004-.76001-.07001-.26001-.23999-.47003-.47003-.60004l-24.01996-13.57996c-.32001-.17999-.71002-.17004-1.02002.01996L7.45851,21.75951c-.22998.13-.39001.35999-.45001.60999-.06.26001-.02002.52997.12.76001l2.08002,3.41998c.17999.31.51001.47998.84998.47998.17999,0,.36005-.04999.52002-.14996l1.44-.88v21h-4c-.54999,0-1,.45001-1,1v4c0,.54999.45001,1,1,1h4v3c0,.54999.45001,1,1,1h4c.54999,0,1-.45001,1-1v-3h19c.54999,0,1-.45001,1-1s-.45001-1-1-1H9.01851v-2h46v2h-14c-.54999,0-1,.45001-1,1s.45001,1,1,1h5v3c0,.54999.45001,1,1,1h4c.54999,0,1-.45001,1-1v-3h4c.54999,0,1-.45001,1-1v-4c0-.54999-.45001-1-1-1ZM14.01851,52.9995h2v2h-2v-2ZM10.3885,24.64946l-1.03998-1.70996,22.64996-13.78003,22.64001,12.79999-.97998,1.74005-21.10999-11.93005c-.32001-.17999-.70001-.17999-1.01001.01001l-21.15002,12.87ZM14.01851,36.9995h2v4h-2v-4ZM26.01851,46.9995h-12v-4h12v4ZM18.01851,40.9995v-6h4v6h-4ZM26.01851,40.9995h-2v-4h2v4ZM36.01851,46.9995h-8v-10h8v10ZM50.01851,46.9995h-12v-4h12v4ZM38.01851,40.9995v-4h2v4h-2ZM42.01851,40.9995v-6h4v6h-4ZM50.01851,40.9995h-2v-4h2v4ZM50.01851,28.9995h-21c-.54999,0-1,.45001-1,1s.45001,1,1,1h21v4h-2v-1c0-.54999-.45001-1-1-1h-6c-.54999,0-1,.45001-1,1v1h-16v-1c0-.54999-.45001-1-1-1h-6c-.54999,0-1,.45001-1,1v1h-2v-4h11c.54999,0,1-.45001,1-1s-.45001-1-1-1h-11v-4h10.25c.54999,0,1-.45001,1-1s-.45001-1-1-1h-7.31l15.12-9.20001,16.28003,9.20001h-8.59003c-.54999,0-1,.45001-1,1s.45001,1,1,1h10.25v4ZM50.01851,54.9995h-2v-2h2v2Z"/><path d="M32.01851,26.9995c2.75684,0,5-2.24316,5-5s-2.24316-5-5-5-5,2.24316-5,5,2.24316,5,5,5ZM32.01851,18.9995c1.6543,0,3,1.3457,3,3s-1.3457,3-3,3-3-1.3457-3-3,1.3457-3,3-3Z"/></g></g></g></svg>