<?xml version="1.0" encoding="UTF-8"?><svg xmlns="http://www.w3.org/2000/svg" version="1.1" viewBox="0 0 64 64"><g><g id="Outline"><g><path d="M53.54856,25.92876c.46057.26058,1.08967.10689,1.37-.38l1.95996-3.47998c.14001-.23004.17004-.51001.10004-.76001-.07001-.26001-.23999-.47003-.47003-.60004l-24.01996-13.57996c-.31-.17004-.67999-.17004-.99005,0L7.49851,20.70872c-.23999.14001-.40997.36005-.47998.62-.07001.26001-.02997.54004.12.77002l2.08002,3.41998c.27997.46002.87.61005,1.34003.35004l1.46997-.82001v2.95001c-1.65002,0-3,1.34998-3,3s1.34998,3,3,3v3c-1.65002,0-3,1.34998-3,3s1.34998,3,3,3v13c0,.54999.45001,1,1,1h21c.54999,0,1-.45001,1-1s-.45001-1-1-1h-8v-9c0-.54999-.45001-1-1-1h-8c-.54999,0-1,.45001-1,1v9h-2v-12h36v12h-12c-.54999,0-1,.45001-1,1s.45001,1,1,1h13c.54999,0,1-.45001,1-1v-13c1.65002,0,3-1.35004,3-3s-1.34998-3-3-3v-3c1.65002,0,3-1.35004,3-3s-1.34998-3-3-3v-2.92999l1.52002.85999ZM18.02854,46.99876h6v8h-6v-8ZM53.02854,39.99876c0,.54999-.45001,1-1,1H12.02854c-.54999,0-1-.45001-1-1s.45001-1,1-1h40c.54999,0,1,.45001,1,1ZM14.02854,36.99876v-3h36v3H14.02854ZM53.02854,30.99876c0,.54999-.45001,1-1,1H12.02854c-.54999,0-1-.45001-1-1s.45001-1,1-1h10c.54999,0,1-.45001,1-1s-.45001-1-1-1h-8v-4.08002l18.03998-10.14001,17.96002,10.16003v4.06h-24c-.54999,0-1,.45001-1,1s.45001,1,1,1h26c.54999,0,1,.45001,1,1ZM32.55857,11.76872c-.15002-.08997-.32001-.12994-.49005-.12994-.16998,0-.33997.03998-.48999.12994l-21.15997,11.89001-1.04004-1.71997,22.61005-12.79004,22.65997,12.81-.97998,1.74005-21.10999-11.93005Z"/><path d="M37.02854,45.99876c0-.55225-.44727-1-1-1h-7c-.55273,0-1,.44775-1,1v4c0,.55225.44727,1,1,1h7c.55273,0,1-.44775,1-1v-4ZM35.02854,48.99876h-5v-2h5v2Z"/><path d="M47.02854,50.99876c.55273,0,1-.44775,1-1v-4c0-.55225-.44727-1-1-1h-7c-.55273,0-1,.44775-1,1v4c0,.55225.44727,1,1,1h7ZM41.02854,46.99876h5v2h-5v-2Z"/><path d="M28.02854,21.99876c0,2.20557,1.79395,4,4,4s4-1.79443,4-4-1.79395-4-4-4-4,1.79443-4,4ZM34.02854,21.99876c0,1.10303-.89746,2-2,2s-2-.89697-2-2,.89746-2,2-2,2,.89697,2,2Z"/></g></g></g></svg>