<?xml version="1.0" encoding="UTF-8"?><svg xmlns="http://www.w3.org/2000/svg" version="1.1" viewBox="0 0 64 64"><g><g id="Outline"><g><path d="M51.58002,42.94996c.20001.27002.5.41003.81.41003.20001,0,.40997-.06.58997-.19l3.22003-2.37c.21997-.15002.35999-.39001.39996-.65002.04004-.26001-.01996-.52997-.17999-.73999L32.81,7.20997c-.38-.51996-1.23999-.51996-1.62,0L7.58002,39.40998c-.16003.21002-.22003.47998-.17999.73999.03998.26001.17999.5.39996.65002l3.22003,2.37c.44995.32001,1.07001.22998,1.39996-.22003l.58002-.78998v6.02002c0,.54999.45001,1,1,1s1-.45001,1-1v-8.73999l17-23.19,17,23.19v15.73999h-12v-4c0-.54999-.45001-1-1-1s-1,.45001-1,1v4h-6v-10h6v2c0,.54999.45001,1,1,1s1-.45001,1-1v-3c0-.54999-.45001-1-1-1h-8c-.54999,0-1,.45001-1,1v11h-12v-3c0-.54999-.45001-1-1-1s-1,.45001-1,1v3h-2c-.54999,0-1,.45001-1,1s.45001,1,1,1h41c.54999,0,1-.45001,1-1s-.45001-1-1-1h-1v-13.02002l.58002.78998ZM32.81,13.96998c-.19-.26001-.48999-.40997-.81-.40997s-.62.14996-.81.40997l-19.78998,27-1.62-1.19,22.21997-30.28998,22.21997,30.28998-1.62,1.19-19.78998-27Z"/><path d="M17,50.18c0,.55225.44727,1,1,1h6c.55273,0,1-.44775,1-1v-6c0-.55225-.44727-1-1-1h-6c-.55273,0-1,.44775-1,1v6ZM19,45.18h4v4h-4v-4Z"/><path d="M46,43.18h-6c-.55273,0-1,.44775-1,1v6c0,.55225.44727,1,1,1h6c.55273,0,1-.44775,1-1v-6c0-.55225-.44727-1-1-1ZM45,49.18h-4v-4h4v4Z"/><path d="M32,25.18c-4.41113,0-8,3.58887-8,8s3.58887,8,8,8,8-3.58887,8-8-3.58887-8-8-8ZM37.90967,32.18h-4.90967v-4.90967c2.50714.42328,4.48639,2.40253,4.90967,4.90967ZM31,27.27033v4.90967h-4.90967c.42328-2.50714,2.40253-4.48639,4.90967-4.90967ZM26.09033,34.18h4.90967v4.90967c-2.50714-.42328-4.48639-2.40253-4.90967-4.90967ZM33,39.08967v-4.90967h4.90967c-.42328,2.50714-2.40253,4.48639-4.90967,4.90967Z"/><path d="M18,39.18c-.55273,0-1,.44775-1,1s.44727,1,1,1h6c.55273,0,1-.44775,1-1s-.44727-1-1-1h-6Z"/><path d="M46,39.18h-6c-.55273,0-1,.44775-1,1s.44727,1,1,1h6c.55273,0,1-.44775,1-1s-.44727-1-1-1Z"/></g></g></g></svg>