<?xml version="1.0" encoding="UTF-8"?><svg xmlns="http://www.w3.org/2000/svg" version="1.1" viewBox="0 0 64 64"><g><g id="Outline"><g><path d="M56.69481,27.00127l-6.38-11.85004c-.09998-.19-.27002-.34998-.47998-.44l-17.42999-7.63c-.25-.10999-.55005-.10999-.80005,0l-17.42999,7.63c-.20996.09003-.38.25-.47998.44l-6.38,11.85004c-.76855,1.42749-.24076,3.27818,1.22003,4.06.44995.25.92999.35999,1.40997.35999.37,0,.71997-.09003,1.06-.21997v22.79999c0,1.64996,1.34998,3,3,3h36c1.65002,0,3-1.35004,3-3v-14c0-.54999-.45001-1-1-1s-1,.45001-1,1v1h-7c-.54999,0-1,.45001-1,1v10c0,.54999.45001,1,1,1h7v1c0,.54999-.45001,1-1,1h-9v-12c0-.54999-.45001-1-1-1h-9c-.54999,0-1,.45001-1,1s.45001,1,1,1h6.38l-5.38,4.22998-5.38-4.22998h.38c.54999,0,1-.45001,1-1s-.45001-1-1-1h-3c-.54999,0-1,.45001-1,1v12h-9c-.54999,0-1-.45001-1-1v-1h7c.54999,0,1-.45001,1-1v-10c0-.54999-.45001-1-1-1h-7v-11.92004l5.15002-9.56,13.84998-6.06,13.84998,6.06,5.15002,9.56v6.92004c0,.54999.45001,1,1,1s1-.45001,1-1v-4.78003c.77998.29002,1.67989.27002,2.46983-.1599,1.42315-.77453,1.98375-2.63349,1.22017-4.06007ZM45.00481,51.00127v-8h6v8h-6ZM39.00481,45.27122v8.46002l-5.38-4.22998,5.38-4.23004ZM37.38481,55.00127h-10.76001l5.38-4.23004,5.38,4.23004ZM25.00481,45.27122l5.38,4.23004-5.38,4.22998v-8.46002ZM19.00481,43.00127v8h-6v-8h6ZM54.53484,29.30125c-.49005.26001-1.10004.08002-1.36005-.40002l-5.71997-10.63995c-.10999-.19-.28003-.35004-.48004-.44l-14.56995-6.37c-.25-.11005-.55005-.11005-.80005,0l-14.56995,6.37c-.20001.08997-.37006.25-.48004.44l-5.71997,10.63995c-.26001.48004-.87.66003-1.36005.40002-.47998-.26001-.65997-.87-.39996-1.34998l6.21002-11.54004,16.71997-7.32001,16.71997,7.32001,6.21002,11.54004c.26001.47998.08002,1.08997-.39996,1.34998Z"/><path d="M40.00481,24.00127c0-4.41113-3.58887-8-8-8s-8,3.58887-8,8,3.58887,8,8,8,8-3.58887,8-8ZM33.00481,29.91093v-4.90967h4.90967c-.42328,2.50714-2.40253,4.48639-4.90967,4.90967ZM37.91448,23.00127h-4.90967v-4.90967c2.50714.42328,4.48639,2.40253,4.90967,4.90967ZM31.00481,18.0916v4.90967h-4.90967c.42328-2.50714,2.40253-4.48639,4.90967-4.90967ZM26.09514,25.00127h4.90967v4.90967c-2.50714-.42328-4.48639-2.40253-4.90967-4.90967Z"/><path d="M22.00481,35.00127v4c0,.55225.44775,1,1,1h18c.55225,0,1-.44775,1-1v-4c0-.55225-.44775-1-1-1h-18c-.55225,0-1,.44775-1,1ZM24.00481,36.00127h16v2h-16v-2Z"/></g></g></g></svg>