<?xml version="1.0" encoding="UTF-8"?><svg xmlns="http://www.w3.org/2000/svg" version="1.1" viewBox="0 0 64 64"><g><g id="Outline"><g><path d="M54,27c1.65002,0,3-1.35004,3-3,0-1.41003-.97998-2.59003-2.29999-2.91003l-5.78003-13.47998c-.15997-.37-.51996-.60999-.91998-.60999h-20c-.54999,0-1,.45001-1,1s.45001,1,1,1h19.34003l5.13995,12H11.52002l5.13995-12h7.34003c.54999,0,1-.45001,1-1s-.45001-1-1-1h-8c-.40002,0-.76001.23999-.91998.60999l-5.78003,13.47998c-1.32001.32001-2.29999,1.5-2.29999,2.91003,0,1.64996,1.34998,3,3,3h1v10h-1c-.54999,0-1,.45001-1,1v4c0,.54999.45001,1,1,1h1v13c0,.54999.45001,1,1,1h40c.54999,0,1-.45001,1-1v-13h1c.54999,0,1-.45001,1-1v-4c0-.54999-.45001-1-1-1h-1v-10h1ZM31,55h-4v-8h4v8ZM37,55h-4v-8h4v8ZM53,41h-24c-.54999,0-1,.45001-1,1s.45001,1,1,1h22v12h-12v-9c0-.54999-.45001-1-1-1h-12c-.54999,0-1,.45001-1,1v9h-12v-12h12c.54999,0,1-.45001,1-1s-.45001-1-1-1h-14v-2h42v2ZM13,37v-10h38v10H13ZM10,25c-.54999,0-1-.45001-1-1s.45001-1,1-1h44c.54999,0,1,.45001,1,1s-.45001,1-1,1H10Z"/><path d="M22,33v-1c0-1.65002-1.34998-3-3-3s-3,1.34998-3,3v1c-.54999,0-1,.45001-1,1s.45001,1,1,1h6c.54999,0,1-.45001,1-1s-.45001-1-1-1ZM20,33h-2v-1c0-.54999.45001-1,1-1s1,.45001,1,1v1Z"/><path d="M48,33v-1c0-1.65002-1.34998-3-3-3s-3,1.34998-3,3v1c-.54999,0-1,.45001-1,1s.45001,1,1,1h6c.54999,0,1-.45001,1-1s-.45001-1-1-1ZM46,33h-2v-1c0-.54999.45001-1,1-1s1,.45001,1,1v1Z"/><path d="M48,50v-1c0-1.65002-1.34998-3-3-3s-3,1.34998-3,3v1c-.54999,0-1,.45001-1,1s.45001,1,1,1h6c.54999,0,1-.45001,1-1s-.45001-1-1-1ZM46,50h-2v-1c0-.54999.45001-1,1-1s1,.45001,1,1v1Z"/><path d="M22,50v-1c0-1.65002-1.34998-3-3-3s-3,1.34998-3,3v1c-.54999,0-1,.45001-1,1s.45001,1,1,1h6c.54999,0,1-.45001,1-1s-.45001-1-1-1ZM20,50h-2v-1c0-.54999.45001-1,1-1s1,.45001,1,1v1Z"/><path d="M35,33v-1c0-1.65002-1.34998-3-3-3s-3,1.34998-3,3v1c-.54999,0-1,.45001-1,1s.45001,1,1,1h6c.54999,0,1-.45001,1-1s-.45001-1-1-1ZM33,33h-2v-1c0-.54999.45001-1,1-1s1,.45001,1,1v1Z"/></g></g></g></svg>