<?xml version="1.0" encoding="UTF-8"?><svg xmlns="http://www.w3.org/2000/svg" version="1.1" viewBox="0 0 64 64"><g><g id="Outline"><g><path d="M56,52.99851h-1v-17c0-.54999-.45001-1-1-1h-6c-.54999,0-1,.45001-1,1s.45001,1,1,1h5v16h-18v-13c0-.54999-.45001-1-1-1h-14c-.54999,0-1,.45001-1,1s.45001,1,1,1h13v12H15v-12h1c.54999,0,1-.45001,1-1s-.45001-1-1-1h-2c-.54999,0-1,.45001-1,1v13h-2v-16h33c.54999,0,1-.45001,1-1s-.45001-1-1-1h-1v-13.59003c.02002,0,.03003.01001.04999.01001.58002,0,1.15002-.17999,1.65002-.51001.66998-.44,1.12-1.12,1.27997-1.90997.32001-1.62-.72998-3.20001-2.34998-3.53003,0,0-32.04999-6.39996-32.08002-6.40997-1.60999-.32001-3.20001.73999-3.52997,2.34998-.32001,1.62.72998,3.21002,2.34998,3.53003l.63.13v19.92999h-1c-.54999,0-1,.45001-1,1v17h-1c-.54999,0-1,.45001-1,1s.45001,1,1,1h48c.54999,0,1-.45001,1-1s-.45001-1-1-1ZM41,34.99851H13V15.46848l28,5.60004v13.92999ZM10.77002,12.97849c-.55005-.10999-.90002-.64001-.79004-1.17999.09003-.44.53003-.79999.98004-.79999.06,0,.13.01001.19995.01996l32.07001,6.41003c.55005.10999.90002.64001.79004,1.17999-.11005.53003-.65002.89001-1.17999.78998L10.77002,12.97849Z"/><path d="M38,38.99851c-.55225,0-1,.44727-1,1v6c0,.55273.44775,1,1,1h12c.55225,0,1-.44727,1-1v-6c0-.55273-.44775-1-1-1h-12ZM39,40.99851h4v4h-4v-4ZM49,44.99851h-4v-4h4v4Z"/><path d="M38.19629,22.29734l-22-4.40039c-.2959-.05762-.59863.01758-.83008.20703-.23193.19043-.36621.47363-.36621.77344v13.12109c0,.55273.44775,1,1,1h22c.55225,0,1-.44727,1-1v-8.7207c0-.47656-.33643-.88672-.80371-.98047ZM28,22.29716l4,.79999v7.90137h-4v-8.70135ZM26,30.99851h-4v-9.90137l4,.79999v9.10138ZM17,20.09714l3,.59998v10.30139h-3v-10.90137ZM37,30.99851h-3v-7.50134l3,.59998v6.90137Z"/></g></g></g></svg>