<?xml version="1.0" encoding="UTF-8"?><svg xmlns="http://www.w3.org/2000/svg" version="1.1" viewBox="0 0 64 64"><g><g id="Outline"><g><path d="M56.00124,53h-1v-10c0-.54999-.45001-1-1-1s-1,.45001-1,1v10h-8v-18.17004l.28998.29004c.20001.20001.45001.28998.71002.28998s.51001-.08997.71002-.28998l2.82996-2.83002c.39001-.39001.39001-1.02002,0-1.40997l-6.53998-6.54004v-5.33997h10v20c0,.54999.45001,1,1,1s1-.45001,1-1v-20h1c.54999,0,1-.45001,1-1,0-4.96002-4.03998-9-9-9s-9,4.03998-9,9c0,.54999.45001,1,1,1h1v3.33997l-11.88-11.88c-.39001-.38995-1.02002-.38995-1.40997,0L7.29122,30.88c-.38995.38995-.38995,1.01996,0,1.40997l2.83002,2.83002c.39001.39001,1.02002.39001,1.41998,0l.29004-.29004v18.17004h-3.83002c-.54999,0-1,.45001-1,1s.45001,1,1,1h48c.54999,0,1-.45001,1-1s-.45001-1-1-1ZM48.00124,11c3.52002,0,6.44,2.60999,6.92999,6h-13.85999c.48999-3.39001,3.40997-6,6.92999-6ZM10.83126,33l-1.42004-1.41003L28.41122,12.58997l12.88,12.87.01001.01001,6.10999,6.12-1.40997,1.41003-16.88-16.88c-.19-.19-.45001-.29004-.71002-.29004-.25,0-.50995.10004-.69995.29004l-16.88,16.88ZM43.00124,49h-5v-10h5v10ZM43.00124,37h-6c-.54999,0-1,.45001-1,1v12c0,.54999.45001,1,1,1h6v2h-9v-15c0-.54999-.45001-1-1-1h-9c-.54999,0-1,.45001-1,1v5c0,.54999.45001,1,1,1s1-.45001,1-1v-4h7v14h-7v-6c0-.54999-.45001-1-1-1s-1,.45001-1,1v6h-9.16998v-2h6.16998c.54999,0,1-.45001,1-1v-12c0-.54999-.45001-1-1-1h-6.16998v-4.17004l14.57996-14.58997,14.59003,14.58997v4.17004ZM14.00124,49v-10h5v10h-5Z"/><path d="M28.41628,23c-3.30859,0-6,2.69141-6,6s2.69141,6,6,6,6-2.69141,6-6-2.69141-6-6-6ZM28.41628,33c-2.20557,0-4-1.79395-4-4s1.79443-4,4-4,4,1.79395,4,4-1.79443,4-4,4Z"/></g></g></g></svg>