<?xml version="1.0" encoding="UTF-8"?><svg xmlns="http://www.w3.org/2000/svg" version="1.1" viewBox="0 0 64 64"><g><g id="Outline"><path d="M56.01899,40.9995h-4v-15.92999l1.52002.85999c.47998.27002,1.08997.09998,1.37-.38l1.95996-3.47998c.14001-.23004.17004-.5.10004-.76001s-.23999-.47003-.47003-.60004l-24.01996-13.57996c-.32001-.17999-.71002-.17004-1.02002.01996L7.45899,21.7495c-.47003.28998-.62.90997-.33002,1.38l2.08002,3.41998c.13.21997.35999.39001.60999.45001.08002.01996.16003.02997.23999.02997.17999,0,.36005-.04999.52002-.14996l1.44-.88v15h-4c-.54999,0-1,.45001-1,1v4c0,.54999.45001,1,1,1h4v9c0,.54999.45001,1,1,1h4c.54999,0,1-.45001,1-1v-9h8c.54999,0,1-.45001,1-1s-.45001-1-1-1H9.01899v-2h46v2h-25c-.54999,0-1,.45001-1,1s.45001,1,1,1h16v9c0,.54999.45001,1,1,1h4c.54999,0,1-.45001,1-1v-2c0-.54999-.45001-1-1-1s-1,.45001-1,1v1h-2v-8h2v3c0,.54999.45001,1,1,1s1-.45001,1-1v-3h4c.54999,0,1-.45001,1-1v-4c0-.54999-.45001-1-1-1ZM14.01899,46.9995h2v8h-2v-8ZM10.38898,24.64946l-1.03998-1.70996,22.64996-13.78003,22.64001,12.79999-.97998,1.74005-21.10999-11.93005c-.32001-.17999-.70001-.17999-1.01001.01001l-21.15002,12.87ZM32.01899,16.9995c-2.76001,0-5,2.23999-5,5,0,.33997.03998.67999.09998,1h-10.15997l15.12-9.20001,16.28003,9.20001h-11.44c.06-.32001.09998-.66003.09998-1,0-2.76001-2.23999-5-5-5ZM35.01899,21.9995c0,1.64996-1.34998,3-3,3s-3-1.35004-3-3,1.34998-3,3-3,3,1.34998,3,3ZM14.01899,30.9995h2v6h-2v-6ZM26.01899,40.9995h-12v-2h12v2ZM18.01899,36.9995v-8h4v8h-4ZM26.01899,36.9995h-2v-6h2v6ZM36.01899,40.9995h-8v-10h8v10ZM50.01899,40.9995h-12v-2h12v2ZM38.01899,36.9995v-6h2v6h-2ZM42.01899,36.9995v-8h4v8h-4ZM50.01899,36.9995h-2v-6h2v6ZM50.01899,28.9995h-2v-1c0-.54999-.45001-1-1-1h-6c-.54999,0-1,.45001-1,1v1h-16v-1c0-.54999-.45001-1-1-1h-6c-.54999,0-1,.45001-1,1v1h-2v-4h14.02002c.91998,1.20996,2.34998,2,3.97998,2s3.06-.79004,3.97998-2h14.02002v4Z"/></g></g></svg>