<?xml version="1.0" encoding="UTF-8"?><svg xmlns="http://www.w3.org/2000/svg" version="1.1" viewBox="0 0 64 64"><g><g id="Outline"><g><path d="M46.45001,14.11125l-14-7c-.28003-.15002-.62-.15002-.90002,0l-14,7c-.48999.23999-.69.84003-.44,1.34003.23999.48999.84003.69,1.34003.44l1.54999-.77002v16.88c0,.54999.45001,1,1,1h2.25l.71997,2.51996c1.91003,6.70001,1.25,13.81-1.85999,20.03003-.15997.31-.14001.67999.04004.97998.17999.29004.5.47003.84998.47003h18c.34998,0,.66998-.17999.84998-.47003.18005-.29999.20001-.66998.04004-.97998-3.10999-6.22003-3.77002-13.33002-1.85999-20.03003l.71997-2.51996h2.25c.54999,0,1-.45001,1-1v-8c0-.54999-.45001-1-1-1s-1,.45001-1,1v7h-4v-9c0-.54999-.45001-1-1-1h-10c-.54999,0-1,.45001-1,1v3c0,.54999.45001,1,1,1s1-.45001,1-1v-2h8v8h-8v-2c0-.54999-.45001-1-1-1s-1,.45001-1,1v2h-4V14.12126l10-5,10,5v5.88c0,.54999.45001,1,1,1s1-.45001,1-1v-4.88s1.54999.77002,1.55008.77007c.48458.25819,1.10182.05003,1.33993-.44005.25-.5.04999-1.10004-.44-1.34003ZM34.28998,33.00127c-.94,1.77997-1.70996,3.63-2.28998,5.54999-.58002-1.91998-1.34998-3.77002-2.28998-5.54999h4.57996ZM27.41998,33.00127c1.77002,3.07996,2.97003,6.40997,3.54999,9.91998l.04004.25c.08002.47998.5.83002.98999.83002s.90997-.35004.98999-.83002l.04004-.25c.57996-3.51001,1.77997-6.84003,3.54999-9.91998h2.08997l-.56,1.97998c-1.89996,6.65002-1.42999,13.70001,1.32001,20.02002h-14.85999c2.75-6.32001,3.21997-13.37,1.32001-20.02002l-.56-1.97998h2.08997Z"/><path d="M28,13.00127c-.55225,0-1,.44727-1,1v4c0,.55273.44775,1,1,1h8c.55225,0,1-.44727,1-1v-4c0-.55273-.44775-1-1-1h-8ZM35,17.00127h-6v-2h6v2Z"/></g></g></g></svg>