<?xml version="1.0" encoding="UTF-8"?><svg xmlns="http://www.w3.org/2000/svg" version="1.1" viewBox="0 0 64 64"><g><g id="Outline"><g><path d="M54.65997,51.05621L32.89001,7.52624c-.33002-.66998-1.45001-.66998-1.78003,0L9.34003,51.05621c-1.34003.30005-2.34003,1.49005-2.34003,2.92004,0,1.64996,1.34998,3,3,3h13c.54999,0,1-.45001,1-1s-.45001-1-1-1h-13c-.54999,0-1-.45001-1-1s.45001-1,1-1h44c.54999,0,1,.45001,1,1s-.45001,1-1,1h-27c-.54999,0-1,.45001-1,1s.45001,1,1,1h27c1.65002,0,3-1.35004,3-3,0-1.42999-1-2.62-2.34003-2.92004ZM35,50.97625h-6v-7h6v7ZM37,50.97625v-8c0-.54999-.45001-1-1-1h-8c-.54999,0-1,.45001-1,1v8h-15.38L32,10.21624l20.38,40.76001h-15.38Z"/><path d="M31.10547,16.46893l-7.03027,14.06006c-.15479.31006-.13818.67822.04395.97314.18213.29443.50391.47412.85059.47412h14.06055c.34668,0,.66846-.17969.85059-.47412.18213-.29492.19873-.66309.04395-.97314l-7.03027-14.06006c-.33887-.67773-1.4502-.67773-1.78906,0ZM37.41211,29.97625h-10.82422l5.41211-10.82422,5.41211,10.82422Z"/><path d="M22,34.97625v4c0,.55225.44775,1,1,1h4c.55225,0,1-.44775,1-1s-.44775-1-1-1h-3v-2h16v2h-9c-.55225,0-1,.44775-1,1s.44775,1,1,1h10c.55225,0,1-.44775,1-1v-4c0-.55225-.44775-1-1-1h-18c-.55225,0-1,.44775-1,1Z"/><path d="M39,42.97625v5c0,.55225.44775,1,1,1h5c.55225,0,1-.44775,1-1v-5c0-.55225-.44775-1-1-1h-5c-.55225,0-1,.44775-1,1ZM41,43.97625h3v3h-3v-3Z"/><path d="M24,41.97625h-5c-.55225,0-1,.44775-1,1v5c0,.55225.44775,1,1,1h5c.55225,0,1-.44775,1-1v-5c0-.55225-.44775-1-1-1ZM23,46.97625h-3v-3h3v3Z"/></g></g></g></svg>