<?xml version="1.0" encoding="UTF-8"?><svg xmlns="http://www.w3.org/2000/svg" version="1.1" viewBox="0 0 64 64"><g><g id="Outline"><g><path d="M45.00075,37.00127v-5c0-.54999-.45001-1-1-1h-4c-.54999,0-1,.45001-1,1v5c-.54999,0-1,.45001-1,1s.45001,1,1,1h6c.54999,0,1-.45001,1-1s-.45001-1-1-1ZM43.00075,37.00127h-2v-4h2v4Z"/><path d="M45.00075,47.00127v-5c0-.54999-.45001-1-1-1h-4c-.54999,0-1,.45001-1,1v5c-.54999,0-1,.45001-1,1s.45001,1,1,1h6c.54999,0,1-.45001,1-1s-.45001-1-1-1ZM43.00075,47.00127h-2v-4h2v4Z"/><path d="M56.89077,27.55125l-6-12c-.16003-.34003-.51001-.54999-.89001-.54999h-6c-.54999,0-1,.45001-1,1s.45001,1,1,1h5.38l5,10h-21.38v-7c0-.27002-.10999-.52002-.28998-.71002l-2.30005-2.28998h9.59003c.54999,0,1-.45001,1-1s-.45001-1-1-1h-11.59003l-7.69995-7.71002c-.39001-.39001-1.03003-.39001-1.42004,0l-12,12c-.17999.19-.28998.44-.28998.71002v36c0,.54999.45001,1,1,1h44c.54999,0,1-.45001,1-1v-9c0-.54999-.45001-1-1-1s-1,.45001-1,1v8h-18v-26h18v14c0,.54999.45001,1,1,1s1-.45001,1-1v-14h3c.34998,0,.66998-.17999.84998-.47003.18005-.29999.20001-.66998.04004-.97998ZM23.00075,55.00127h-6v-8h6v8ZM31.00075,55.00127h-6v-9c0-.54999-.45001-1-1-1h-8c-.54999,0-1,.45001-1,1v9h-6v-28.59003l11-11,11,11v28.59003ZM31.00075,23.59123l-10.28998-10.29999c-.39001-.39001-1.03003-.39001-1.42004,0l-10.28998,10.29999v-3.17999l11-11,7.28998,7.29999,3.71002,3.70001v3.17999Z"/><path d="M28.00075,41.00127v-5c0-.54999-.45001-1-1-1h-4c-.54999,0-1,.45001-1,1v5c-.54999,0-1,.45001-1,1s.45001,1,1,1h6c.54999,0,1-.45001,1-1s-.45001-1-1-1ZM26.00075,41.00127h-2v-4h2v4Z"/><path d="M18.00075,41.00127v-5c0-.54999-.45001-1-1-1h-4c-.54999,0-1,.45001-1,1v5c-.54999,0-1,.45001-1,1s.45001,1,1,1h6c.54999,0,1-.45001,1-1s-.45001-1-1-1ZM16.00075,41.00127h-2v-4h2v4Z"/><path d="M18.00075,31.00127v-5c0-.54999-.45001-1-1-1h-4c-.54999,0-1,.45001-1,1v5c-.54999,0-1,.45001-1,1s.45001,1,1,1h6c.54999,0,1-.45001,1-1s-.45001-1-1-1ZM16.00075,31.00127h-2v-4h2v4Z"/><path d="M28.00075,31.00127v-5c0-.54999-.45001-1-1-1h-4c-.54999,0-1,.45001-1,1v5c-.54999,0-1,.45001-1,1s.45001,1,1,1h6c.54999,0,1-.45001,1-1s-.45001-1-1-1ZM26.00075,31.00127h-2v-4h2v4Z"/></g></g></g></svg>