<?xml version="1.0" encoding="UTF-8"?><svg xmlns="http://www.w3.org/2000/svg" version="1.1" viewBox="0 0 64 64"><g><g id="Outline"><g><path d="M14,25.99001h4c.55273,0,1-.44727,1-1v-4c0-.55273-.44727-1-1-1h-4c-.55273,0-1,.44727-1,1v4c0,.55273.44727,1,1,1ZM15,21.99001h2v2h-2v-2Z"/><path d="M14,33.99001h4c.55273,0,1-.44727,1-1v-4c0-.55273-.44727-1-1-1h-4c-.55273,0-1,.44727-1,1v4c0,.55273.44727,1,1,1ZM15,29.99001h2v2h-2v-2Z"/><path d="M14,41.99001h4c.55273,0,1-.44727,1-1v-4c0-.55273-.44727-1-1-1h-4c-.55273,0-1,.44727-1,1v4c0,.55273.44727,1,1,1ZM15,37.99001h2v2h-2v-2Z"/><path d="M14,49.99001h4c.55273,0,1-.44727,1-1v-4c0-.55273-.44727-1-1-1h-4c-.55273,0-1,.44727-1,1v4c0,.55273.44727,1,1,1ZM15,45.99001h2v2h-2v-2Z"/><path d="M56.78003,20.37002l-8-10c-.38-.48004-1.18005-.48004-1.56006,0l-8,10c-.34998.42999-.27997,1.06.16003,1.39996.42999.35004,1.06.27002,1.40002-.15997l.21997-.27002v4.65002h-13c-.54999,0-1,.45001-1,1s.45001,1,1,1h13v24h-4v-7c0-.54999-.45001-1-1-1h-8c-.54999,0-1,.45001-1,1v7h-4v-24h1c.54999,0,1-.45001,1-1s-.45001-1-1-1h-1v-4.65002l.21997.27001c.78301.96117,2.39696-.21174,1.56006-1.23998l-8-10c-.38-.48004-1.18005-.48004-1.56006,0l-8,10c-.34998.42999-.27997,1.06.16003,1.39996.42999.35004,1.06.27002,1.40002-.15997l.21997-.27002v31.65002c0,.54999.45001,1,1,1h44c.54999,0,1-.45001,1-1v-20c0-.54999-.45001-1-1-1s-1,.45001-1,1v19h-10V18.99001c0-.04004-.02002-.08002-.02002-.12l5.02002-6.28003,5.02002,6.28003c0,.03998-.02002.07996-.02002.12v10c0,.54999.45001,1,1,1s1-.45001,1-1v-7.65002l.21997.27002c.3175.38974.972.51673,1.40003.15997.44-.33997.51001-.96997.16003-1.39996ZM21,18.99001v33h-10V18.99001c0-.04004-.02002-.08002-.02002-.12l5.02002-6.28003,5.02002,6.28003c0,.03998-.02002.07996-.02002.12ZM35,51.99001h-6v-6h6v6Z"/><path d="M51,20.99001c0-.55273-.44727-1-1-1h-4c-.55273,0-1,.44727-1,1v4c0,.55273.44727,1,1,1h4c.55273,0,1-.44727,1-1v-4ZM49,23.99001h-2v-2h2v2Z"/><path d="M51,28.99001c0-.55273-.44727-1-1-1h-4c-.55273,0-1,.44727-1,1v4c0,.55273.44727,1,1,1h4c.55273,0,1-.44727,1-1v-4ZM49,31.99001h-2v-2h2v2Z"/><path d="M51,36.99001c0-.55273-.44727-1-1-1h-4c-.55273,0-1,.44727-1,1v4c0,.55273.44727,1,1,1h4c.55273,0,1-.44727,1-1v-4ZM49,39.99001h-2v-2h2v2Z"/><path d="M50,43.99001h-4c-.55273,0-1,.44727-1,1v4c0,.55273.44727,1,1,1h4c.55273,0,1-.44727,1-1v-4c0-.55273-.44727-1-1-1ZM49,47.99001h-2v-2h2v2Z"/><path d="M25,34.99001c0,.55273.44727,1,1,1h4c.55273,0,1-.44727,1-1v-4c0-.55273-.44727-1-1-1h-4c-.55273,0-1,.44727-1,1v4ZM27,31.99001h2v2h-2v-2Z"/><path d="M39,30.99001c0-.55273-.44727-1-1-1h-4c-.55273,0-1,.44727-1,1v4c0,.55273.44727,1,1,1h4c.55273,0,1-.44727,1-1v-4ZM37,33.99001h-2v-2h2v2Z"/><path d="M25,38.99001v2c0,.55273.44727,1,1,1s1-.44727,1-1v-2c0-.55273-.44727-1-1-1s-1,.44727-1,1Z"/><path d="M30,37.99001c-.55273,0-1,.44727-1,1v2c0,.55273.44727,1,1,1s1-.44727,1-1v-2c0-.55273-.44727-1-1-1Z"/><path d="M33,40.99001c0,.55273.44727,1,1,1s1-.44727,1-1v-2c0-.55273-.44727-1-1-1s-1,.44727-1,1v2Z"/><path d="M38,37.99001c-.55273,0-1,.44727-1,1v2c0,.55273.44727,1,1,1s1-.44727,1-1v-2c0-.55273-.44727-1-1-1Z"/></g></g></g></svg>