<?xml version="1.0" encoding="UTF-8"?><svg xmlns="http://www.w3.org/2000/svg" version="1.1" viewBox="0 0 64 64"><g><g id="Outline"><g><path d="M56,51.00047h-1v-8c0-.54999-.45001-1-1-1s-1,.45001-1,1v8h-18v-13c0-.54999-.45001-1-1-1h-14c-.54999,0-1,.45001-1,1s.45001,1,1,1h13v12H15v-12h1c.54999,0,1-.45001,1-1s-.45001-1-1-1h-2c-.54999,0-1,.45001-1,1v13h-2v-16h42v4c0,.54999.45001,1,1,1s1-.45001,1-1v-5c0-.54999-.45001-1-1-1h-1v-9c0-.38-.21002-.72003-.54999-.89001l-5.45001-2.72998v-2.38c0-.47003-.33002-.88-.78998-.98004l-27.92004-6c-.28998-.06-.60999.01001-.83997.20001-.23999.19-.37.48004-.37.78003v8.33997l-5.53003,2.77002c-.33997.16998-.54999.51001-.54999.89001v9h-1c-.54999,0-1,.45001-1,1v17h-1c-.54999,0-1,.45001-1,1s.45001,1,1,1h48c.54999,0,1-.45001,1-1s-.45001-1-1-1ZM47,22.62046l4,2v8.38h-4v-10.38ZM19.08002,13.24046l25.91998,5.57001v14.19h-25.91998V13.24046ZM13,24.62046l4.08002-2.04004v10.42004h-4.08002v-8.38Z"/><path d="M38,37.00047c-.55273,0-1,.44727-1,1v6c0,.55273.44727,1,1,1h12c.55273,0,1-.44727,1-1v-6c0-.55273-.44727-1-1-1h-12ZM39,39.00047h4v4h-4v-4ZM49,43.00047h-4v-4h4v4Z"/><path d="M42.20996,20.25437l-19.92188-4.28027c-.29199-.0625-.60352.00977-.83887.19922-.23438.19043-.37109.47656-.37109.77832v13.04883c0,.55273.44727,1,1,1h19.92188c.55273,0,1-.44727,1-1v-8.76855c0-.47168-.3291-.87891-.79004-.97754ZM33,20.32072l3,.64453v8.03522h-3v-8.67975ZM31,29.00047h-3v-9.75403l3,.64453v9.1095ZM23.07812,18.18894l2.92188.62775v10.18378h-2.92188v-10.81152ZM41,29.00047h-3v-7.60553l3,.64459v6.96094Z"/></g></g></g></svg>