<?xml version="1.0" encoding="UTF-8"?><svg xmlns="http://www.w3.org/2000/svg" id="Outline" version="1.1" viewBox="0 0 64 64"><path d="M49,32c0,13.79-7.63,25-17,25-8.94,0-16.23-9.86-16.94-22.95-.03-.55.39-1.02.94-1.05.55-.04,1.03.39,1.06.95.64,11.8,7.2,21.05,14.94,21.05,8.27,0,15-10.32,15-23s-6.73-23-15-23c-7.74,0-14.3,9.25-14.94,21.05-.03.56-.51.97-1.06.95-.55-.03-.97-.5-.94-1.05.71-13.09,8-22.95,16.94-22.95,9.37,0,17,11.21,17,25Z"/><path d="M44.94,34.06c-.68,10.62-6.36,18.94-12.94,18.94-7.05,0-13-9.62-13-21s5.95-21,13-21c6.58,0,12.26,8.32,12.94,18.94.03.55-.39,1.02-.94,1.06-.54.03-1.02-.39-1.06-.94-.59-9.41-5.5-17.06-10.94-17.06-5.86,0-11,8.88-11,19s5.14,19,11,19c5.44,0,10.35-7.65,10.94-17.06.04-.55.52-.98,1.06-.94.55.04.97.51.94,1.06Z"/><path d="M35.377,23.663c.991-.914,1.623-2.212,1.623-3.663,0-2.757-2.243-5-5-5s-5,2.243-5,5c0,1.451.632,2.749,1.623,3.663-3.293,1.339-5.623,4.569-5.623,8.337s2.33,6.998,5.623,8.337c-.991.914-1.623,2.212-1.623,3.663,0,2.757,2.243,5,5,5s5-2.243,5-5c0-1.451-.632-2.749-1.623-3.663,3.293-1.339,5.623-4.569,5.623-8.337s-2.33-6.998-5.623-8.337ZM33.414,32l4.184-4.184c.876,1.169,1.401,2.614,1.401,4.184s-.526,3.015-1.401,4.184l-4.184-4.184ZM29,20c0-1.654,1.346-3,3-3s3,1.346,3,3-1.346,3-3,3-3-1.346-3-3ZM36.185,26.402l-4.185,4.184-4.185-4.184c1.169-.876,2.615-1.402,4.185-1.402s3.016.526,4.185,1.402ZM26.401,27.816l4.184,4.184-4.184,4.184c-.876-1.169-1.401-2.614-1.401-4.184s.526-3.015,1.401-4.184ZM35,44c0,1.654-1.346,3-3,3s-3-1.346-3-3,1.346-3,3-3,3,1.346,3,3ZM27.815,37.598l4.185-4.184,4.185,4.184c-1.169.876-2.615,1.402-4.185,1.402s-3.016-.526-4.185-1.402Z"/><circle cx="25" cy="23" r="1"/><circle cx="39" cy="23" r="1"/><circle cx="25" cy="41" r="1"/><circle cx="39" cy="41" r="1"/></svg>