<?xml version="1.0" encoding="UTF-8"?><svg xmlns="http://www.w3.org/2000/svg" id="Outline" version="1.1" viewBox="0 0 64 64"><path d="M46.001,24h-3.17l.17-1.91c.049-.551-.414-1.09-1-1.09h-2.11c-.42-2.09-2.15-3.71-4.29-3.96l-3.73-6.54c-.23-.39-.69-.58-1.13-.47-.44.12-.74.52-.74.97v1c0,2.71-2.29,5-5,5h-2c-.55,0-1,.45-1,1s.45,1,1,1h2c3.05,0,5.72-2.07,6.65-4.85l2.48,4.35c.18.31.51.5.87.5,1.3,0,2.42.84,2.83,2H12.171c.41-1.16,1.53-2,2.83-2h4c.55,0,1-.45,1-1s-.45-1-1-1h-4c-2.41,0-4.43,1.72-4.9,4h-2.1c-.28,0-.55.12-.74.32-.19.21-.28.49-.26.77l1.5,17c.05.55.53.96,1.09.91.55-.05.95-.54.91-1.09l-1.41-15.91h31.82l-2.51,28.35c-.18,2.08-1.89,3.65-3.98,3.65H15.581c-2.09,0-3.8-1.57-3.98-3.65l-.75-8.44c-.05-.55-.52-.96-1.09-.91-.55.05-.96.54-.91,1.09l.75,8.44c.28,3.12,2.85,5.47,5.98,5.47h18.84c3.13,0,5.7-2.35,5.98-5.47l.48-5.53h5.12c6.07,0,11-4.93,11-11s-4.93-11-11-11ZM42.301,30h3.7c2.76,0,5,2.24,5,5s-2.24,5-5,5h-4.59l.89-10ZM46.001,44h-4.94l.18-2h4.76c3.86,0,7-3.14,7-7s-3.14-7-7-7h-3.53l.18-2h3.35c4.96,0,9,4.04,9,9s-4.04,9-9,9Z"/><g><path d="M17.294,7.293l-1,1c-.456.456-.707,1.062-.707,1.707s.251,1.251.707,1.707c.105.105.121.229.121.293s-.016.188-.121.293l-1,1c-.391.391-.391,1.023,0,1.414.385.385,1.03.384,1.414,0l1-1c.456-.456.707-1.062.707-1.707s-.251-1.251-.707-1.707c-.105-.105-.121-.229-.121-.293s.016-.188.121-.293l1-1c.391-.391.391-1.023,0-1.414s-1.023-.391-1.414,0Z"/><path d="M22.294,7.293l-1,1c-.456.456-.707,1.062-.707,1.707s.251,1.251.707,1.707c.105.105.121.229.121.293s-.016.188-.121.293l-1,1c-.391.391-.391,1.023,0,1.414.387.387,1.026.388,1.414,0l1-1c.456-.456.707-1.062.707-1.707s-.251-1.251-.707-1.707c-.105-.105-.121-.229-.121-.293s.016-.188.121-.293l1-1c.391-.391.391-1.023,0-1.414s-1.023-.391-1.414,0Z"/><path d="M28.708,8.707c.391-.391.391-1.023,0-1.414s-1.023-.391-1.414,0l-1,1c-.456.456-.707,1.062-.707,1.707s.251,1.251.707,1.707c.105.105.121.229.121.293s-.016.188-.121.293l-1,1c-.391.391-.391,1.023,0,1.414.387.387,1.027.387,1.414,0l1-1c.456-.456.707-1.062.707-1.707s-.251-1.251-.707-1.707c-.105-.105-.121-.229-.121-.293s.016-.188.121-.293l1-1Z"/></g></svg>