<?xml version="1.0" encoding="UTF-8"?><svg xmlns="http://www.w3.org/2000/svg" id="Outline" version="1.1" viewBox="0 0 64 64"><path d="M51.083,15.863c-.355-.42-.985-.475-1.409-.117-.421.357-.474.988-.116,1.41,3.51,4.145,5.442,9.416,5.442,14.844,0,12.682-10.317,23-23,23s-23-10.318-23-23,10.317-23,23-23c5.427,0,10.698,1.933,14.844,5.443.424.358,1.054.304,1.409-.117.357-.421.305-1.052-.116-1.409-4.507-3.815-10.237-5.917-16.137-5.917-13.785,0-25,11.215-25,25s11.215,25,25,25,25-11.215,25-25c0-5.9-2.102-11.631-5.917-16.137Z"/><path d="M32,53c11.579,0,21-9.42,21-21s-9.421-21-21-21-21,9.42-21,21c0,4.795,1.656,9.479,4.663,13.19.348.428.977.496,1.407.147.429-.348.495-.978.147-1.407-2.72-3.355-4.218-7.592-4.218-11.93,0-10.477,8.523-19,19-19s19,8.523,19,19-8.523,19-19,19c-4.409,0-8.711-1.549-12.113-4.361-.428-.353-1.057-.291-1.407.134-.353.426-.292,1.056.134,1.408,3.76,3.107,8.514,4.819,13.387,4.819Z"/><path d="M16.81,36.2c.57.57,1.24.99,1.96,1.28-.3.72-.48,1.49-.48,2.3,0,3.27,2.66,5.93,5.93,5.93.81,0,1.59-.18,2.3-.48.3.72.72,1.39,1.28,1.97,1.16,1.15,2.68,1.72,4.2,1.72s3.04-.57,4.2-1.73c.57-.57.99-1.24,1.28-1.96.72.3,1.49.48,2.3.48,3.27,0,5.93-2.66,5.93-5.93,0-.81-.18-1.59-.48-2.3.72-.3,1.39-.72,1.97-1.28,2.3-2.32,2.3-6.08-.01-8.4-.57-.57-1.24-.99-1.96-1.28.3-.72.48-1.49.48-2.3,0-3.27-2.66-5.93-5.93-5.93-.82,0-1.6.17-2.31.47-.29-.72-.71-1.39-1.27-1.96-2.32-2.3-6.08-2.3-8.4.01-.56.57-.98,1.23-1.27,1.95-.71-.3-1.49-.47-2.31-.47-3.27,0-5.93,2.66-5.93,5.93,0,.82.17,1.6.47,2.31-.72.29-1.39.71-1.96,1.27-2.3,2.32-2.3,6.08.01,8.4ZM26.53,42.95c-.66.5-1.46.76-2.31.76-2.17,0-3.93-1.76-3.93-3.93,0-.67.17-1.31.48-1.87.08,0,.17.02.25.02,1.56,0,3.04-.61,4.18-1.73.05-.06.1-.11.15-.17,1.43.42,2.52,1.65,2.75,3.2.03.16.05.34.05.55,0,1.26-.59,2.41-1.62,3.17ZM26.45,29.71c1.48-.6,2.66-1.78,3.26-3.26.73.3,1.51.47,2.29.47.79,0,1.57-.17,2.3-.48.6,1.47,1.78,2.65,3.26,3.25-.62,1.47-.62,3.15,0,4.62-1.47.6-2.65,1.77-3.25,3.25-1.47-.62-3.15-.62-4.62,0-.6-1.48-1.78-2.65-3.25-3.25.62-1.47.62-3.13.01-4.6ZM35.88,43.6c-.12.83-.5,1.58-1.09,2.18-1.54,1.53-4.04,1.53-5.57.01-.47-.48-.8-1.04-.98-1.66,1.22-1.12,1.91-2.67,1.91-4.35,0-.08-.01-.16-.01-.23,1.31-.71,2.97-.62,4.21.3,1.166.855,1.746,2.326,1.53,3.75ZM39.78,43.71c-.67,0-1.3-.17-1.86-.47.07-1.65-.54-3.24-1.72-4.44-.06-.05-.11-.1-.17-.15.42-1.43,1.649-2.519,3.199-2.75,2.311-.344,4.481,1.556,4.481,3.88,0,2.17-1.76,3.93-3.93,3.93ZM45.78,29.21c1.53,1.54,1.53,4.04.01,5.57-.48.47-1.04.8-1.66.98-1.12-1.22-2.67-1.91-4.35-1.91-.08,0-.16.01-.23.01-.71-1.31-.62-2.97.3-4.21,1.405-1.894,4.262-2.081,5.93-.44ZM39.78,20.29c2.17,0,3.93,1.76,3.93,3.93,0,.67-.17,1.3-.47,1.86-1.66-.07-3.24.54-4.44,1.72-.05.06-.1.11-.15.16-1.62-.48-2.8-2-2.8-3.74,0-2.17,1.76-3.93,3.93-3.93ZM29.21,18.22c1.54-1.53,4.04-1.53,5.57-.01.47.48.8,1.04.98,1.66-1.17,1.09-1.91,2.63-1.91,4.35,0,.08.02.15.02.23-1.16.63-2.57.63-3.73,0,0-.07.01-.15.01-.23,0-1.72-.74-3.26-1.91-4.34.18-.62.51-1.19.97-1.66ZM24.22,20.29c2.17,0,3.93,1.77,3.93,3.93s-1.76,3.93-3.93,3.93-3.93-1.76-3.93-3.93,1.77-3.93,3.93-3.93ZM18.21,29.22c.48-.47,1.05-.8,1.66-.98,1.09,1.17,2.63,1.91,4.35,1.91.08,0,.16-.01.23-.01.71,1.31.62,2.97-.3,4.21-1.383,1.885-4.272,2.071-5.93.44-1.53-1.54-1.53-4.04-.01-5.57Z"/><path d="M40.485,24.929c.391-.391.391-1.024,0-1.414s-1.024-.391-1.414,0c-.391.391-.391,1.024,0,1.414s1.024.391,1.414,0Z"/><path d="M39.071,39.071c-.391.391-.391,1.024,0,1.414.391.391,1.024.391,1.414,0,.391-.391.391-1.024,0-1.414s-1.024-.391-1.414,0Z"/><path d="M23.515,39.071c-.391.391-.391,1.024,0,1.414.391.391,1.024.391,1.414,0,.391-.391.391-1.024,0-1.414-.391-.391-1.024-.391-1.414,0Z"/><path d="M24.929,24.929c.391-.391.391-1.024,0-1.414-.391-.391-1.024-.391-1.414,0s-.391,1.024,0,1.414c.391.391,1.024.391,1.414,0Z"/><path d="M32,35c1.654,0,3-1.346,3-3s-1.346-3-3-3-3,1.346-3,3,1.346,3,3,3ZM32,31c.552,0,1,.449,1,1s-.448,1-1,1-1-.449-1-1,.448-1,1-1Z"/></svg>