<?xml version="1.0" encoding="UTF-8"?><svg xmlns="http://www.w3.org/2000/svg" id="Outline" version="1.1" viewBox="0 0 64 64"><path d="M46.001,24h-3.17l.17-1.91c.02-.28-.07-.56-.26-.77-.19-.2-.46-.32-.74-.32h-21c-.55,0-1,.45-1,1s.45,1,1,1h19.91l-.86,9.68-.37-.07c-1.16-.23-2.36-.13-3.45.31l-1.26.51c-1.18.47-2.53.36-3.61-.29l-.46-.27c-1.79-1.08-3.97-1.16-5.84-.23l-1.02.51c-1.25.62-2.71.57-3.91-.15-1.93-1.16-4.33-1.16-6.26,0l-.7.42c-.87.53-1.9.7-2.9.5l-.22-.04-.96-10.88h7.91c.55,0,1-.45,1-1s-.45-1-1-1h-9c-.28,0-.55.12-.74.32-.19.21-.28.49-.26.77l2.6,29.44c.28,3.12,2.85,5.47,5.98,5.47h12.42c.55,0,1-.45,1-1s-.45-1-1-1h-12.42c-2.09,0-3.8-1.57-3.98-3.65l-1.37-15.41c.29.04.57.06.85.06,1.09,0,2.17-.29,3.12-.86l.7-.43c1.3-.77,2.9-.77,4.2,0,1.79,1.08,3.97,1.16,5.84.23l1.02-.51c1.25-.63,2.71-.57,3.92.15l.45.27c1.62.97,3.63,1.13,5.38.43l1.26-.5c.74-.3,1.53-.37,2.31-.21l.6.12-1.48,16.66c-.18,2.08-1.89,3.65-3.98,3.65h-2.42c-.55,0-1,.45-1,1s.45,1,1,1h2.42c3.13,0,5.7-2.35,5.98-5.47l.48-5.53h5.12c6.07,0,11-4.93,11-11s-4.93-11-11-11ZM42.301,30h3.7c2.76,0,5,2.24,5,5s-2.24,5-5,5h-4.59l.89-10ZM46.001,44h-4.94l.18-2h4.76c3.86,0,7-3.14,7-7s-3.14-7-7-7h-3.53l.18-2h3.35c4.96,0,9,4.04,9,9s-4.04,9-9,9Z"/><path d="M12.708,18.707l1.232-1.232c1.357-1.357,1.512-3.539.36-5.074-.559-.745-.483-1.803.175-2.461l1.232-1.232c.391-.391.391-1.023,0-1.414s-1.023-.391-1.414,0l-1.232,1.232c-1.357,1.357-1.512,3.539-.36,5.074.559.745.483,1.803-.175,2.461l-1.232,1.232c-.391.391-.391,1.023,0,1.414.388.388,1.024.39,1.414,0Z"/><path d="M18.708,18.707l1.232-1.232c1.357-1.357,1.512-3.539.36-5.074-.559-.745-.483-1.803.175-2.461l1.232-1.232c.391-.391.391-1.023,0-1.414s-1.023-.391-1.414,0l-1.232,1.232c-1.357,1.357-1.512,3.539-.36,5.074.559.745.483,1.803-.175,2.461l-1.232,1.232c-.391.391-.391,1.023,0,1.414.389.389,1.027.387,1.414,0Z"/><path d="M24.708,18.707s1.232-1.232,1.232-1.232c1.357-1.357,1.512-3.539.36-5.074-.559-.745-.483-1.803.175-2.461l1.232-1.232c.391-.391.391-1.023,0-1.414s-1.023-.391-1.414,0l-1.232,1.232c-1.357,1.357-1.512,3.539-.36,5.074.559.745.483,1.803-.175,2.461l-1.232,1.232c-.391.391-.391,1.023,0,1.414.387.387,1.024.389,1.414,0Z"/><path d="M30.708,18.707l1.232-1.232c1.357-1.357,1.512-3.539.36-5.074-.559-.745-.483-1.803.175-2.461l1.232-1.232c.391-.391.391-1.023,0-1.414s-1.023-.391-1.414,0l-1.232,1.232c-1.357,1.357-1.512,3.539-.36,5.074.559.745.483,1.803-.175,2.461l-1.232,1.232c-.391.391-.391,1.023,0,1.414.39.39,1.027.387,1.414,0Z"/><path d="M36.708,18.707l1.232-1.232c1.357-1.357,1.512-3.539.36-5.074-.559-.745-.483-1.803.175-2.461l1.232-1.232c.391-.391.391-1.023,0-1.414s-1.023-.391-1.414,0l-1.232,1.232c-1.357,1.357-1.512,3.539-.36,5.074.559.745.483,1.803-.175,2.461l-1.232,1.232c-.391.391-.391,1.023,0,1.414s1.027.387,1.414,0Z"/></svg>