<?xml version="1.0" encoding="UTF-8"?><svg xmlns="http://www.w3.org/2000/svg" id="Outline" version="1.1" viewBox="0 0 64 64"><path d="M45,22c0-2.54-1.19-4.79-3.03-6.26.02-.23.03-.48.03-.74,0-4.41-3.59-8-8-8-3,0-5.61,1.66-6.98,4.11-.34-.07-.67-.11-1.02-.11-2.76,0-5,2.24-5,5,0,.62.12,1.22.34,1.79-1.43,1.28-2.34,3.14-2.34,5.21,0,1.08.25,2.12.72,3.07-.44.52-.72,1.19-.72,1.93,0,1.39.95,2.54,2.23,2.89l7.23,23.5c.48,1.56,1.9,2.61,3.54,2.61s3.06-1.05,3.55-2.62l4.02-13.07c.16-.52-.14-1.08-.67-1.25-.52-.16-1.08.14-1.25.67l-4.02,13.06c-.21.71-.89,1.21-1.63,1.21s-1.42-.5-1.63-1.2l-7.02-22.8h3.65c.55,0,1-.45,1-1s-.45-1-1-1h-5c-.55,0-1-.45-1-1s.45-1,1-1h20c.55,0,1,.45,1,1s-.45,1-1,1h-11c-.55,0-1,.45-1,1s.45,1,1,1h9.65l-1.81,5.87c-.16.52.14,1.08.67,1.25.09.03.19.04.29.04.43,0,.82-.28.96-.71l2.01-6.56c1.28-.35,2.23-1.51,2.23-2.89,0-.87-.38-1.65-.97-2.2.63-1.15.97-2.45.97-3.8ZM26,13c.09,0,.17.02.26.03-.16.63-.26,1.29-.26,1.97,0,.33.04.67.08,1h-.08c-1.04,0-2.02.23-2.91.64-.05-.21-.09-.42-.09-.64,0-1.65,1.35-3,3-3ZM22,25c-.19,0-.37.02-.55.06-.29-.65-.45-1.34-.45-2.06,0-2.76,2.24-5,5-5,1.29,0,2.51.5,3.45,1.38-.29.82-.45,1.7-.45,2.62,0,1.05.22,2.06.6,3h-7.6ZM28.17,16.35c-.1-.45-.17-.9-.17-1.35,0-3.31,2.69-6,6-6,3.17,0,5.76,2.47,5.98,5.58-.92-.37-1.93-.58-2.98-.58-2.76,0-5.2,1.4-6.63,3.54-.66-.53-1.41-.93-2.2-1.19ZM42.17,25.02c-.06-.01-.11-.02-.17-.02h-10.18c-.53-.9-.82-1.92-.82-3,0-3.31,2.69-6,6-6s6,2.69,6,6c0,1.09-.3,2.11-.83,3.02Z"/><circle cx="34" cy="21" r="1"/><circle cx="40" cy="21" r="1"/><circle cx="37" cy="19" r="1"/><circle cx="31" cy="13" r="1"/><circle cx="25" cy="22" r="1"/><circle cx="35" cy="12" r="1"/></svg>