<?xml version="1.0" encoding="UTF-8"?><svg xmlns="http://www.w3.org/2000/svg" id="Outline" version="1.1" viewBox="0 0 64 64"><path d="M54,41h-3v-3.21c0-.48-.34-.89-.8-.98l-2.2-.44v-3.46s1.793.359,1.8.36c.614.123,1.2-.357,1.2-.98v-5c0-.48-.34-.89-.8-.98l-2.2-.44v-2.96l1.8.36c.3.06.6-.02.83-.21.24-.19.37-.47.37-.77v-5c0-.48-.34-.89-.8-.98l-3.52-.7c-1.17-.24-2.35-.13-3.45.31l-1.26.51c-1.18.47-2.53.36-3.61-.29l-.46-.27c-.92-.56-1.96-.85-3-.87-.46-2.28-2.48-4-4.9-4-.75,0-1.48.17-2.15.5-1.11-1.55-2.92-2.5-4.85-2.5-3.31,0-6,2.69-6,6,0,.67.11,1.31.32,1.93-.01,0-.03,0-.05-.01,0,0-3.058-.608-3.07-.61-.614-.122-1.2.356-1.2.98v5c0,.48.34.89.8.98l2.2.44v2.96s-1.794-.359-1.8-.36c-.578-.116-1.2.336-1.2.98v5c0,.48.34.89.8.98l2.2.44v3.46s-1.802-.358-1.81-.36c-.611-.122-1.19.363-1.19.98v3.21h-3c-1.65,0-3,1.35-3,3,0,1.37.93,2.52,2.19,2.87l1.27,5.11c.46,1.78,2.05,3.02,3.88,3.02h3.66c.55,0,1-.45,1-1s-.45-1-1-1h-3.66c-.92,0-1.71-.62-1.94-1.51l-1.12-4.49h25.72c.55,0,1-.45,1-1s-.45-1-1-1H10c-.55,0-1-.45-1-1s.45-1,1-1h44c.55,0,1,.45,1,1s-.45,1-1,1h-13c-.55,0-1,.45-1,1s.45,1,1,1h11.72l-1.12,4.48c-.23.9-1.02,1.52-1.94,1.52h-27.66c-.55,0-1,.45-1,1s.45,1,1,1h27.66c1.83,0,3.42-1.24,3.88-3.03l1.27-5.1c1.26-.35,2.19-1.5,2.19-2.87,0-1.65-1.35-3-3-3ZM23,11c1.53,0,2.95.91,3.61,2.32.14.27.39.48.69.54.3.07.61,0,.85-.19.54-.44,1.18-.67,1.85-.67,1.41,0,2.59.98,2.91,2.3-.29.09-.57.2-.85.34l-1.02.51c-1.25.63-2.72.57-3.91-.15-1.93-1.16-4.33-1.16-6.26,0l-.7.42c-.24.15-.5.26-.76.35-.27-.55-.41-1.15-.41-1.77,0-2.21,1.79-4,4-4ZM15,21.47v-2.96l1.88.38c1.49.29,3.02.03,4.32-.75l.7-.43c1.3-.77,2.9-.77,4.2,0,1.78,1.08,3.97,1.16,5.84.23l1.02-.51c1.25-.63,2.71-.57,3.92.15l.45.27c1.61.97,3.63,1.13,5.38.43l1.26-.5c.74-.3,1.54-.37,2.31-.21l2.72.54v2.96l-2.32-.46c-1.17-.24-2.35-.13-3.45.31l-1.26.51c-1.18.47-2.53.36-3.61-.29l-.46-.27c-1.79-1.08-3.97-1.16-5.84-.23l-1.02.51c-1.25.62-2.72.57-3.91-.15-1.93-1.16-4.33-1.16-6.26,0l-.7.42c-.87.53-1.9.7-2.9.5l-2.27-.45ZM46,22.53v2.99c-.94-.08-1.89.05-2.77.4l-1.26.51c-1.18.47-2.53.36-3.61-.29l-.46-.27c-1.79-1.08-3.97-1.16-5.84-.23l-1.02.51c-1.25.62-2.72.57-3.91-.15-1.93-1.16-4.33-1.16-6.26,0l-.7.42c-.66.4-1.41.6-2.17.58v-3h.07c1.1,0,2.18-.29,3.13-.86l.7-.43c1.3-.77,2.9-.77,4.2,0,1.78,1.08,3.97,1.16,5.84.23l1.02-.51c1.25-.63,2.71-.57,3.92.15l.45.27c1.61.97,3.63,1.13,5.38.43l1.26-.5c.65-.26,1.34-.34,2.03-.25ZM15,31.47v-2.96l1.88.38c1.49.29,3.02.03,4.32-.75l.7-.43c1.3-.77,2.9-.77,4.2,0,1.78,1.08,3.97,1.16,5.84.23l1.02-.51c1.25-.63,2.71-.57,3.92.15l.45.27c1.61.97,3.63,1.13,5.38.43l1.26-.5c.74-.3,1.54-.37,2.31-.21l2.72.54v2.96l-2.32-.46c-1.17-.24-2.35-.13-3.45.31l-1.26.51c-1.18.47-2.53.36-3.61-.29l-.46-.27c-1.79-1.08-3.97-1.16-5.84-.23l-1.02.51c-1.25.63-2.72.57-3.91-.15-1.93-1.16-4.33-1.16-6.26,0l-.7.42c-.87.53-1.9.7-2.9.5l-2.27-.45ZM46,32.53v3.49c-.95-.08-1.9.05-2.77.4l-1.26.5c-1.2.48-2.52.37-3.62-.29l-.45-.27c-1.79-1.07-3.97-1.15-5.84-.22l-1.02.51c-1.24.62-2.72.56-3.92-.16-1.92-1.15-4.32-1.15-6.25,0l-.71.43c-.65.4-1.4.59-2.16.58v-3.5h.07c1.1,0,2.18-.29,3.13-.86l.7-.43c1.3-.77,2.9-.77,4.2,0,1.78,1.08,3.97,1.16,5.84.23l1.02-.51c1.25-.63,2.71-.57,3.92.15l.45.27c1.61.97,3.63,1.13,5.38.43l1.26-.5c.65-.26,1.34-.34,2.03-.25ZM49,41H15v-1.99l1.88.37c1.48.3,3.02.04,4.32-.74l.7-.43c1.3-.77,2.9-.77,4.2,0,1.77,1.06,3.99,1.15,5.84.22l1.02-.5c1.25-.63,2.71-.57,3.92.15l.44.27c1.64.98,3.6,1.14,5.39.43l1.27-.5c.72-.3,1.52-.37,2.3-.22l2.72.55v2.39Z"/></svg>