<?xml version="1.0" encoding="UTF-8"?><svg xmlns="http://www.w3.org/2000/svg" id="Outline" version="1.1" viewBox="0 0 64 64"><path d="M47.293,28.786c.408.375,1.04.348,1.413-.06.374-.406.348-1.039-.059-1.413-3.562-3.277-10.708-5.313-18.647-5.313s-15.1,2.04-18.658,5.325c-.406.374-.431,1.007-.057,1.413.197.213.466.321.735.321.242,0,.485-.088.678-.266,3.155-2.912,9.947-4.794,17.302-4.794s14.133,1.879,17.293,4.786Z"/><path d="M30,18c-12.9,0-23,4.39-23,10v2c0,9.35,5.61,17.41,13.64,21h-3.64c-1.65,0-3,1.35-3,3s1.35,3,3,3h26c1.65,0,3-1.35,3-3s-1.35-3-3-3h-3.64c8.03-3.59,13.64-11.65,13.64-21v-2c0-5.61-10.1-10-23-10ZM43,53c.55,0,1,.45,1,1s-.45,1-1,1h-26c-.55,0-1-.45-1-1s.45-1,1-1h26ZM32,37.96h.04c8.6-.32,15.52-2.51,18.83-5.66-1.15,10.5-10.07,18.7-20.87,18.7s-19.72-8.2-20.87-18.7c3.31,3.15,10.23,5.34,18.83,5.66.57.05,1.02-.41,1.04-.96.02-.56-.41-1.02-.96-1.04-10.5-.38-19.04-3.95-19.04-7.96,0-3.86,8.44-8,21-8s21,4.14,21,8c0,4.01-8.54,7.58-19.04,7.96-.55.02-.98.48-.96,1.04.02.54.46.96,1,.96Z"/><path d="M57,10c0,1.65-1.35,3-3,3h-18.13c-.17.68-.53,1.31-1.04,1.83-.76.75-1.76,1.17-2.83,1.17h-6c-2.76,0-5-2.24-5-5v-2c0-1.1.9-2,2-2h15c.55,0,1,.45,1,1s-.45,1-1,1h-15v2c0,1.65,1.35,3,3,3h6c.53,0,1.03-.21,1.41-.59.38-.38.59-.88.59-1.41,0-.55.45-1,1-1h19c.55,0,1-.45,1-1s-.45-1-1-1h-12c-.55,0-1-.45-1-1s.45-1,1-1h12c1.65,0,3,1.35,3,3Z"/><circle cx="16" cy="30" r="1"/><circle cx="19" cy="32" r="1"/><circle cx="20" cy="28" r="1"/><circle cx="24" cy="27" r="1"/><circle cx="23" cy="31" r="1"/><circle cx="27" cy="33" r="1"/><circle cx="27" cy="29" r="1"/><circle cx="44" cy="30" r="1"/><circle cx="41" cy="32" r="1"/><circle cx="40" cy="28" r="1"/><circle cx="36" cy="27" r="1"/><circle cx="37" cy="31" r="1"/><circle cx="33" cy="33" r="1"/><circle cx="32" cy="30" r="1"/><circle cx="30" cy="27" r="1"/></svg>