<?xml version="1.0" encoding="UTF-8"?><svg xmlns="http://www.w3.org/2000/svg" id="Outline" version="1.1" viewBox="0 0 64 64"><path d="M54,43h-1.21l-5.1-22.13c-.53-2.28-2.53-3.87-4.87-3.87h-4.22c2-2.32,1.48-6.08,1.46-6.25-.06-.44-.41-.78-.85-.84-.09-.02-2.04-.29-3.99.27-.97-1.77-2.53-2.95-2.62-3.02-.36-.26-.84-.26-1.2,0-.09.07-1.65,1.25-2.62,3.02-1.95-.56-3.9-.29-3.99-.27-.44.06-.79.4-.85.84-.02.17-.54,3.93,1.46,6.25h-4.22c-2.34,0-4.34,1.59-4.87,3.88l-1.82,7.9c-.13.53.21,1.07.75,1.19.54.13,1.07-.21,1.19-.75l.97-4.22h11.6c1.1,0,2,.9,2,2v6c0,1.65,1.35,3,3,3s3-1.35,3-3v-5c0-.55.45-1,1-1s1,.45,1,1v2c0,1.65,1.35,3,3,3s3-1.35,3-3v-3c0-.97.69-1.78,1.61-1.96l4.13,17.96H13.26l2.25-9.78c.13-.53-.21-1.07-.74-1.19-.54-.13-1.08.21-1.2.75l-2.36,10.22h-1.21c-1.65,0-3,1.35-3,3,0,1.37.93,2.52,2.19,2.87l1.27,5.11c.46,1.78,2.05,3.02,3.88,3.02h10.66c.55,0,1-.45,1-1s-.45-1-1-1h-10.66c-.91,0-1.71-.62-1.94-1.51l-1.12-4.49h41.44l-1.12,4.48c-.23.9-1.03,1.52-1.94,1.52h-20.66c-.55,0-1,.45-1,1s.45,1,1,1h20.66c1.83,0,3.42-1.24,3.88-3.03l1.27-5.1c1.26-.35,2.19-1.5,2.19-2.87,0-1.65-1.35-3-3-3ZM36,12.97c0-.31-.04-.61-.09-.9.81-.22,1.64-.25,2.23-.24.02,1.06-.1,2.93-1.19,4.02-.67.67-1.64.97-2.53,1.1.81-1.03,1.58-2.42,1.58-3.98ZM30.2,11.86l.01-.01c.01-.01,0-.02.01-.04.39-1.06,1.21-1.98,1.78-2.52.57.55,1.4,1.47,1.78,2.54.01,0,.01.01.01.02,0,0,.01,0,.01.01.12.36.2.73.2,1.11,0,1.53-1.23,2.94-2,3.67-.77-.73-2-2.15-2-3.67,0-.38.08-.75.2-1.11ZM28.09,12.07c-.05.29-.09.59-.09.9,0,1.56.77,2.95,1.58,3.97-.9-.13-1.87-.43-2.53-1.09-1.09-1.09-1.21-2.96-1.19-4.02.59-.02,1.42.02,2.23.24ZM43,27v3c0,.55-.45,1-1,1s-1-.45-1-1v-2c0-1.65-1.35-3-3-3s-3,1.35-3,3v5c0,.55-.45,1-1,1s-1-.45-1-1v-6c0-2.21-1.79-4-4-4h-11.14l.39-1.67c.32-1.35,1.55-2.33,2.93-2.33h21.64c1.38,0,2.61.98,2.93,2.32l.41,1.77c-1.8.39-3.16,1.99-3.16,3.91ZM54,47H10c-.55,0-1-.45-1-1s.45-1,1-1h44c.55,0,1,.45,1,1s-.45,1-1,1Z"/></svg>