<?xml version="1.0" encoding="UTF-8"?><svg xmlns="http://www.w3.org/2000/svg" id="Outline" version="1.1" viewBox="0 0 64 64"><path d="M15.521,7.187c-.348-.251-.818-.251-1.166,0-.304.217-7.417,5.391-7.417,10.812v14c0,.552.447,1,1,1s1-.448,1-1v-8.64c.619.888,1.312,1.706,2,2.426v24.951c-1.117-1.46-2-3.121-2-4.737v-10c0-.552-.447-1-1-1s-1,.448-1,1v10c0,5.421,7.113,10.595,7.416,10.812.175.125.379.188.584.188s.409-.062.584-.188c.303-.217,7.416-5.391,7.416-10.812v-28c0-5.421-7.113-10.595-7.417-10.812ZM16.938,52.968c-.787.767-1.518,1.384-2,1.77-.482-.385-1.213-1.002-2-1.77v-25.288c.775.663,1.337,1.074,1.417,1.132.174.125.379.188.583.188s.409-.062.583-.188c.08-.057.642-.469,1.417-1.132v25.288ZM20.938,45.999c0,1.616-.883,3.277-2,4.737v-24.951c.688-.72,1.381-1.538,2-2.426v22.64ZM14.938,26.737c-1.611-1.289-6-5.13-6-8.738s4.389-7.449,6-8.738c1.611,1.289,6,5.13,6,8.738s-4.389,7.449-6,8.738Z"/><path d="M54.373,42.999l-15.556-15.557c-3.833-3.833-12.521-2.46-12.891-2.401-.423.069-.756.401-.825.825-.06.368-1.431,9.056,2.402,12.889l15.556,15.557c2.207,2.207,6.022,2.688,8.934,2.688,2.146,0,3.801-.262,3.956-.287.424-.069.757-.401.826-.825.06-.368,1.431-9.057-2.402-12.889ZM26.982,26.914c2.651-.309,8.079-.4,10.421,1.942,2.551,2.551,2.164,8.371,1.936,10.421-2.049.228-7.87.615-10.421-1.936-2.553-2.553-2.164-8.382-1.936-10.428ZM44.473,52.899l-11.764-11.765c1.065.19,2.131.274,3.126.297l13.402,13.403c-1.822-.242-3.622-.793-4.765-1.935ZM54.895,54.834c-.614.068-1.567.149-2.666.163l-13.637-13.637c1.021-.079,1.703-.187,1.801-.203.423-.069.755-.401.825-.825.016-.097.122-.785.201-1.8,0,0,3.579,3.572,3.582,3.575.37.369,1.019.394,1.414-.001.39-.391.39-1.024-.002-1.415l-4.92-4.91c-.023-.997-.111-2.067-.301-3.134l11.766,11.767c1.141,1.141,1.692,2.937,1.935,4.757l-5.649-5.648c-.391-.391-1.023-.391-1.414,0s-.391,1.023,0,1.414l7.227,7.227c-.014,1.101-.095,2.057-.163,2.671Z"/></svg>