<?xml version="1.0" encoding="UTF-8"?><svg xmlns="http://www.w3.org/2000/svg" id="Outline" version="1.1" viewBox="0 0 64 64"><path d="M54.033,16.916c.03.84-.29,1.65-.88,2.23-.89.89-2.22,1.09-3.33.61l-16.88,36.69c-.16.35-.52.58-.91.58s-.75-.23-.91-.58l-11.5-25c-.23-.5-.01-1.1.49-1.33.5-.23,1.1-.01,1.33.49l10.59,23.03,16.13-35.07c-4.57-3.64-10.27-5.66-16.17-5.66-5.87,0-11.55,2-16.11,5.62l3.72,8.08c.23.5.01,1.1-.49,1.33-.14.06-.28.09-.42.09-.38,0-.74-.22-.91-.58l-3.55-7.72c-.4.19-.84.3-1.28.3-.77,0-1.54-.3-2.12-.88-1.215-1.215-1.144-3.26.15-4.39,5.33-4.65,11.89-7.34,18.99-7.78.55-.03,1.02.39,1.06.94.03.55-.39,1.02-.94,1.06-6.65.41-12.8,2.93-17.8,7.29-.437.381-.443,1.057-.05,1.47.37.37.96.39,1.35.05,5.387-4.234,11.443-6.88,18.4-6.88,6.63,0,13.04,2.34,18.06,6.6.492.415,1.112.798,1.68.23.406-.405.403-1.091-.04-1.47-4.98-4.34-11.11-6.86-17.72-7.28-.55-.04-.97-.51-.94-1.06.04-.55.5-.97,1.06-.94,7.06.45,13.6,3.14,18.91,7.77.63.55,1,1.34,1.03,2.16Z"/><path d="M22.033,17.026c-1.654,0-3,1.346-3,3s1.346,3,3,3,3-1.346,3-3-1.346-3-3-3ZM22.033,21.026c-.551,0-1-.449-1-1s.449-1,1-1,1,.449,1,1-.449,1-1,1Z"/><path d="M23.033,29.026c0,1.654,1.346,3,3,3s3-1.346,3-3-1.346-3-3-3-3,1.346-3,3ZM27.033,29.026c0,.551-.449,1-1,1s-1-.449-1-1,.449-1,1-1,1,.449,1,1Z"/><path d="M27.033,37.026c0,2.757,2.243,5,5,5s5-2.243,5-5-2.243-5-5-5-5,2.243-5,5ZM32.033,34.026c1.654,0,3,1.346,3,3s-1.346,3-3,3-3-1.346-3-3,1.346-3,3-3Z"/><path d="M35.033,29.026c0,1.654,1.346,3,3,3s3-1.346,3-3-1.346-3-3-3-3,1.346-3,3ZM39.033,29.026c0,.551-.449,1-1,1s-1-.449-1-1,.449-1,1-1,1,.449,1,1Z"/><path d="M45.033,20.026c0-1.654-1.346-3-3-3s-3,1.346-3,3,1.346,3,3,3,3-1.346,3-3ZM41.033,20.026c0-.551.449-1,1-1s1,.449,1,1-.449,1-1,1-1-.449-1-1Z"/><path d="M32.033,15.026c-1.654,0-3,1.346-3,3s1.346,3,3,3,3-1.346,3-3-1.346-3-3-3ZM32.033,19.026c-.551,0-1-.449-1-1s.449-1,1-1,1,.449,1,1-.449,1-1,1Z"/><path d="M27.033,23.026c1.103,0,2,.897,2,2,0,.552.448,1,1,1s1-.448,1-1c0-2.206-1.794-4-4-4-.552,0-1,.448-1,1s.448,1,1,1Z"/><path d="M33.033,25.026c0,.552.448,1,1,1s1-.448,1-1c0-1.103.897-2,2-2,.552,0,1-.448,1-1s-.448-1-1-1c-2.206,0-4,1.794-4,4Z"/><circle cx="32.033" cy="29.026" r="1"/><circle cx="27.033" cy="16.026" r="1"/><circle cx="37.033" cy="16.026" r="1"/></svg>