<?xml version="1.0" encoding="UTF-8"?><svg xmlns="http://www.w3.org/2000/svg" id="Outline" version="1.1" viewBox="0 0 64 64"><path d="M34,30v-12c0-2.206-1.794-4-4-4h-5c-.552,0-1,.448-1,1s.448,1,1,1h5c1.103,0,2,.897,2,2v12c0,1.103-.897,2-2,2h-12c-1.103,0-2-.897-2-2v-12c0-1.103.897-2,2-2h3c.552,0,1-.448,1-1s-.448-1-1-1h-3c-2.206,0-4,1.794-4,4v12c0,2.206,1.794,4,4,4h12c2.206,0,4-1.794,4-4Z"/><path d="M55.62,49.01c-.32-.63-.32-1.39-.01-2.01l.57-1.11c.58-1.18.58-2.6-.01-3.79l-.55-1.09c-.32-.63-.32-1.39-.01-2.01l.57-1.11c.58-1.18.58-2.6-.01-3.79l-.55-1.09c-.32-.63-.32-1.39-.01-2.01l.95-1.88c.29-.6.44-1.23.44-1.88,0-1.13-.44-2.2-1.24-3-1.26-1.26-3.21-1.61-4.89-.79l-1.86.93c-.63.32-1.39.31-2.01.01l-1.11-.57c-1.18-.58-2.6-.58-3.79.01l-1.09.55c-.49.24-1.04.29-1.56.16-.12-.51-.07-1.06.17-1.54l.55-1.11c.59-1.18.59-2.6,0-3.78l-.55-1.11c-.31-.63-.31-1.37,0-2l.93-1.87c.3-.59.45-1.24.45-1.89,0-2.34-1.9-4.24-4.24-4.24-.65,0-1.3.15-1.89.45l-1.87.93c-.63.32-1.37.32-2,0l-1.11-.55c-1.18-.59-2.6-.59-3.78,0l-1.11.55c-.63.32-1.37.32-2,0l-1.11-.55c-1.18-.59-2.6-.59-3.78,0l-1.11.55c-.63.32-1.37.32-2,0l-1.87-.93c-.59-.3-1.24-.45-1.89-.45-2.34,0-4.24,1.9-4.24,4.24,0,.65.15,1.3.45,1.89l.93,1.87c.31.63.31,1.37,0,2l-.55,1.11c-.59,1.18-.59,2.6,0,3.78l.55,1.11c.31.63.31,1.37,0,2l-.55,1.11c-.59,1.18-.59,2.6,0,3.78l.55,1.11c.31.63.31,1.37,0,2l-.93,1.87c-.3.59-.45,1.24-.45,1.89,0,2.34,1.9,4.24,4.24,4.24.65,0,1.3-.15,1.89-.45l1.87-.93c.63-.32,1.37-.32,2,0l1.11.55c1.18.59,2.6.59,3.78,0l1.11-.55c.48-.24,1.03-.29,1.54-.17.13.52.08,1.07-.15,1.55l-.57,1.11c-.58,1.18-.58,2.6.01,3.79l.55,1.09c.32.63.32,1.39.01,2.01l-.95,1.88c-.29.6-.44,1.23-.44,1.88,0,1.13.44,2.2,1.24,3,1.26,1.26,3.21,1.61,4.89.79l1.86-.93c.63-.32,1.39-.32,2.01-.01l1.11.57c1.18.58,2.6.58,3.79-.01l1.09-.55c.63-.32,1.39-.32,2.01-.01l1.11.57c1.18.58,2.6.58,3.79-.01l1.09-.55c.63-.31,1.39-.32,2.01-.01l1.88.95c.6.29,1.23.44,1.88.44,1.13,0,2.2-.44,3-1.24.8-.8,1.24-1.87,1.24-3,0-.65-.15-1.28-.45-1.89l-.93-1.86ZM22.11,37.83l-1.11.55c-.63.32-1.37.32-2,0l-1.11-.55c-1.18-.59-2.6-.59-3.78,0l-1.87.93c-.31.16-.66.24-1,.24-1.24,0-2.24-1-2.24-2.24,0-.34.08-.69.24-1l.93-1.87c.59-1.18.59-2.6,0-3.78l-.55-1.11c-.31-.63-.31-1.37,0-2l.55-1.11c.59-1.18.59-2.6,0-3.78l-.55-1.11c-.31-.63-.31-1.37,0-2l.55-1.11c.59-1.18.59-2.6,0-3.78l-.93-1.87c-.16-.31-.24-.66-.24-1,0-1.24,1-2.24,2.24-2.24.34,0,.69.08,1,.24l1.87.93c1.18.59,2.6.59,3.78,0l1.11-.55c.63-.32,1.37-.32,2,0l1.11.55c1.18.59,2.6.59,3.78,0l1.11-.55c.63-.32,1.37-.32,2,0l1.11.55c1.18.59,2.6.59,3.78,0l1.87-.93c.31-.16.66-.24,1-.24,1.24,0,2.24,1,2.24,2.24,0,.34-.08.69-.24,1l-.93,1.87c-.59,1.18-.59,2.6,0,3.78l.55,1.11c.31.63.31,1.37,0,2l-.55,1.11c-.59,1.18-.59,2.6,0,3.78l.55,1.11c.31.63.31,1.37,0,2l-.55,1.11c-.59,1.18-.59,2.6,0,3.78l.93,1.87c.16.31.24.66.24,1,0,1.24-1,2.24-2.24,2.24-.34,0-.69-.08-1-.24l-1.87-.93c-.59-.3-1.24-.45-1.89-.45s-1.3.15-1.89.45l-1.11.55c-.63.32-1.37.32-2,0l-1.11-.55c-1.18-.59-2.6-.59-3.78,0ZM53.83,33.9l.55,1.09c.32.63.32,1.39.01,2.01l-.57,1.11c-.58,1.18-.58,2.6.01,3.79l.55,1.09c.32.63.32,1.39.01,2.01l-.57,1.11c-.58,1.18-.58,2.6.01,3.79l.93,1.86c.16.32.24.66.24,1,0,.61-.23,1.15-.66,1.58-.67.68-1.7.85-2.57.43l-1.88-.95c-1.18-.58-2.6-.58-3.79.01l-1.09.55c-.63.31-1.39.32-2.01.01l-1.11-.57c-1.18-.58-2.6-.58-3.79.01l-1.09.55c-.63.31-1.39.32-2.01.01l-1.11-.57c-1.18-.58-2.6-.58-3.79.01l-1.86.93c-.9.44-1.91.26-2.58-.42-.43-.43-.66-.97-.66-1.58,0-.34.08-.68.23-.99l.95-1.88c.58-1.18.58-2.6-.01-3.79l-.55-1.09c-.32-.63-.32-1.39-.01-2.01l.57-1.11c.24-.48.36-1.01.4-1.55,1.08.39,2.28.35,3.31-.17l.11-.05v5.88c0,2.21,1.79,4,4,4h12c2.21,0,4-1.79,4-4v-4c0-.55-.45-1-1-1s-1,.45-1,1v4c0,1.1-.9,2-2,2h-12c-1.1,0-2-.9-2-2v-6.62c.34,0,.69.08,1,.24l1.87.93c.59.3,1.24.45,1.89.45,2.34,0,4.24-1.9,4.24-4.24,0-.65-.15-1.3-.45-1.89l-.93-1.87c-.16-.31-.24-.66-.24-1h6.62c1.1,0,2,.9,2,2v4c0,.55.45,1,1,1s1-.45,1-1v-4c0-2.21-1.79-4-4-4h-5.88l.05-.11c.52-1.03.56-2.23.17-3.31.54-.04,1.07-.17,1.56-.41l1.09-.55c.63-.32,1.39-.32,2.01-.01l1.11.57c1.18.58,2.6.58,3.79-.01l1.86-.93c.9-.44,1.91-.25,2.58.42.43.43.66.97.66,1.58,0,.34-.08.68-.23.99l-.95,1.88c-.58,1.18-.58,2.6.01,3.79Z"/></svg>