<?xml version="1.0" encoding="UTF-8"?><svg xmlns="http://www.w3.org/2000/svg" id="Outline" version="1.1" viewBox="0 0 64 64"><path d="M54.92,39.661c-.23-1.3-.95-2.47-2.03-3.23.07-.31.11-.62.11-.93,0-1.46-.8-2.78-2.04-3.47.03-.18.04-.35.04-.53,0-1.08-.43-2.09-1.18-2.83.12-.38.18-.77.18-1.17,0-2.21-1.79-4-4-4-.4,0-.79.06-1.17.18-.77-.78-1.84-1.22-2.96-1.18-.34-1.34-1.37-2.4-2.68-2.81,1.3-2.29.89-5.26.87-5.4-.06-.44-.41-.79-.85-.85-.09-.01-2.04-.28-3.99.28-.97-1.77-2.53-2.95-2.62-3.02-.36-.27-.84-.27-1.2,0-.09.07-1.65,1.25-2.62,3.02-1.95-.56-3.9-.29-3.99-.28-.44.06-.79.41-.85.85-.02.14-.43,3.11.87,5.4-1.31.41-2.34,1.47-2.68,2.81-1.13-.04-2.19.4-2.96,1.18-.38-.12-.77-.18-1.17-.18-2.21,0-4,1.79-4,4,0,.4.06.79.18,1.17-.75.74-1.18,1.75-1.18,2.83,0,.18.01.35.04.53-1.24.69-2.04,2.01-2.04,3.47,0,.31.04.62.11.93-1.08.76-1.8,1.93-2.03,3.23-1.2.39-2.08,1.51-2.08,2.84,0,1.37.93,2.52,2.19,2.87l1.27,5.11c.46,1.78,2.05,3.02,3.88,3.02h5.66c.55,0,1-.45,1-1s-.45-1-1-1h-5.66c-.91,0-1.71-.62-1.94-1.51l-1.12-4.49h27.72c.55,0,1-.45,1-1s-.45-1-1-1H10c-.55,0-1-.45-1-1s.45-1,1-1h44c.55,0,1,.45,1,1s-.45,1-1,1h-11c-.55,0-1,.45-1,1s.45,1,1,1h9.72l-1.12,4.48c-.23.9-1.03,1.52-1.94,1.52h-25.66c-.55,0-1,.45-1,1s.45,1,1,1h25.66c1.83,0,3.42-1.24,3.88-3.03l1.27-5.1c1.26-.35,2.19-1.5,2.19-2.87,0-1.33-.88-2.45-2.08-2.84ZM36,16.501c0-.31-.04-.61-.09-.9.81-.21,1.64-.25,2.23-.23.02,1.05-.1,2.92-1.19,4.01-.22.22-.48.4-.76.55,0,.01-.01.01-.02.01,0,0-.01.01-.02.01-.54.29-1.15.45-1.73.53.81-1.02,1.58-2.41,1.58-3.98ZM30.2,15.401c0-.01.01-.01.01-.02.01-.01,0-.02.01-.03.39-1.07,1.21-1.99,1.78-2.53.57.54,1.39,1.46,1.78,2.53.01.01,0,.02.01.03,0,.01.01.01.01.02.12.35.2.72.2,1.1,0,1.53-1.23,2.95-2,3.68-.77-.73-2-2.15-2-3.68,0-.38.08-.75.2-1.1ZM28.09,15.601c-.05.29-.09.59-.09.9,0,1.57.77,2.95,1.58,3.98-.59-.09-1.2-.25-1.75-.53-.01-.01-.03-.02-.03-.02l-.01-.01c-.27-.14-.52-.32-.74-.54-1.09-1.09-1.21-2.96-1.19-4.01.59-.02,1.42.01,2.23.23ZM11.18,39.501c.27-.75.83-1.38,1.57-1.72.25-.11.44-.32.53-.58.09-.26.07-.54-.05-.79-.15-.29-.23-.6-.23-.91,0-.9.61-1.68,1.48-1.91.27-.08.51-.27.63-.52.13-.26.14-.56.04-.82-.1-.25-.15-.5-.15-.75,0-.69.35-1.32.93-1.68.46-.29.6-.88.34-1.34-.18-.32-.27-.64-.27-.98,0-1.1.9-2,2-2,.34,0,.66.09.98.27.46.26,1.05.11,1.34-.34.49-.77,1.43-1.15,2.35-.8.3.11.65.07.92-.12.27-.18.43-.49.43-.82,0-.08-.01-.16-.02-.19,0-1.1.9-2,2-2,.437,0,.778.213,1.19.35,1.27.58,2.67.72,3.66.72.53,0,.94-.04,1.15-.06.21.02.61.06,1.15.06,1.07,0,2.63-.15,3.98-.87.28-.13.57-.2.87-.2,1.1,0,2,.9,2,1.94-.01.05-.02.2-.02.25,0,.33.16.64.43.82.27.19.62.23.92.12.92-.35,1.87.03,2.35.8.29.45.88.6,1.34.34.32-.18.64-.27.98-.27,1.1,0,2,.9,2,2,0,.34-.09.66-.27.98-.26.46-.12,1.05.34,1.34.58.36.93.99.93,1.68,0,.25-.05.5-.15.75-.1.26-.09.56.04.82.12.25.36.44.63.52.87.23,1.48,1.01,1.48,1.91,0,.31-.08.62-.23.91-.12.25-.14.53-.05.79.09.26.28.47.53.58.74.34,1.3.97,1.57,1.72H11.18Z"/><path d="M31,25.501c-1.654,0-3,1.346-3,3,0,.552.448,1,1,1s1-.448,1-1,.449-1,1-1,1-.448,1-1-.448-1-1-1Z"/><path d="M43,28.501c-.552,0-1,.448-1,1s.448,1,1,1,1,.449,1,1,.448,1,1,1,1-.448,1-1c0-1.654-1.346-3-3-3Z"/><path d="M35,32.501c.552,0,1-.448,1-1,0-1.654-1.346-3-3-3-.552,0-1,.448-1,1s.448,1,1,1,1,.449,1,1,.448,1,1,1Z"/><path d="M42,33.501c-.552,0-1,.448-1,1s.448,1,1,1,1,.449,1,1,.448,1,1,1,1-.448,1-1c0-1.654-1.346-3-3-3Z"/><path d="M37,33.501c-1.654,0-3,1.346-3,3,0,.552.448,1,1,1s1-.448,1-1,.449-1,1-1,1-.448,1-1-.448-1-1-1Z"/><path d="M40,26.501c-1.654,0-3,1.346-3,3,0,.552.448,1,1,1s1-.448,1-1,.449-1,1-1,1-.448,1-1-.448-1-1-1Z"/><path d="M19,31.501c0-.551.449-1,1-1s1-.448,1-1-.448-1-1-1c-1.654,0-3,1.346-3,3,0,.552.448,1,1,1s1-.448,1-1Z"/><path d="M21,33.501c-1.654,0-3,1.346-3,3,0,.552.448,1,1,1s1-.448,1-1,.449-1,1-1,1-.448,1-1-.448-1-1-1Z"/><path d="M26,33.501c-.552,0-1,.448-1,1s.448,1,1,1,1,.449,1,1,.448,1,1,1,1-.448,1-1c0-1.654-1.346-3-3-3Z"/><path d="M26,29.501c0-1.654-1.346-3-3-3-.552,0-1,.448-1,1s.448,1,1,1,1,.449,1,1,.448,1,1,1,1-.448,1-1Z"/></svg>