<?xml version="1.0" encoding="UTF-8"?><svg xmlns="http://www.w3.org/2000/svg" id="Outline" version="1.1" viewBox="0 0 64 64"><path d="M56.49,17.13c-.31-.18-.7-.17-1,.01l-4,2.4c-1.49-4.93-6.08-8.54-11.49-8.54h-4c-.55,0-1,.45-1,1s.45,1,1,1h4c5.51,0,10,4.49,10,10,0,3.26-1.57,6.25-4.2,8.12-1.93-1.33-4.28-2.12-6.8-2.12-3.54,0-6.72,1.55-8.92,4h-4.46c3.24-2.15,5.38-5.83,5.38-10s-2.14-7.85-5.38-10h6.38c.55,0,1-.45,1-1s-.45-1-1-1h-13c-6.62,0-12,5.38-12,12s5.38,12,12,12h9.62c-1.02,1.77-1.62,3.81-1.62,6,0,6.62,5.38,12,12,12s12-5.38,12-12c0-3.35-1.38-6.38-3.61-8.56,1.98-1.54,3.39-3.63,4.09-5.99,0,0,4.01,2.41,4.01,2.41.309.186.689.185,1,.01.32-.18.51-.51.51-.87v-10c0-.36-.19-.69-.51-.87ZM9,23c0-.68.07-1.34.2-1.98.98.11,1.8.95,1.8,1.98s-.82,1.87-1.8,1.98c-.13-.64-.2-1.3-.2-1.98ZM9.8,26.92c1.82-.37,3.2-1.99,3.2-3.92s-1.38-3.55-3.2-3.92c1.53-3.57,5.08-6.08,9.2-6.08,5.51,0,10,4.49,10,10s-4.49,10-10,10c-4.12,0-7.67-2.51-9.2-6.08ZM29,41c0-.68.07-1.34.2-1.98.98.11,1.8.95,1.8,1.98s-.82,1.87-1.8,1.98c-.13-.64-.2-1.3-.2-1.98ZM49,41c0,5.51-4.49,10-10,10-4.12,0-7.67-2.51-9.2-6.08,1.82-.37,3.2-1.99,3.2-3.92s-1.38-3.55-3.2-3.92c1.53-3.57,5.08-6.08,9.2-6.08,5.51,0,10,4.49,10,10ZM55,26.23l-3-1.8v-2.86l3-1.8v6.46Z"/><path d="M17,21c1.654,0,3-1.346,3-3s-1.346-3-3-3-3,1.346-3,3,1.346,3,3,3ZM17,17c.552,0,1,.448,1,1s-.448,1-1,1-1-.448-1-1,.448-1,1-1Z"/><path d="M24,24c1.654,0,3-1.346,3-3s-1.346-3-3-3-3,1.346-3,3,1.346,3,3,3ZM24,20c.552,0,1,.448,1,1s-.448,1-1,1-1-.448-1-1,.448-1,1-1Z"/><path d="M22,27c0-2.206-1.794-4-4-4s-4,1.794-4,4,1.794,4,4,4,4-1.794,4-4ZM18,29c-1.103,0-2-.897-2-2s.897-2,2-2,2,.897,2,2-.897,2-2,2Z"/><path d="M37,39c1.654,0,3-1.346,3-3s-1.346-3-3-3-3,1.346-3,3,1.346,3,3,3ZM37,35c.552,0,1,.448,1,1s-.448,1-1,1-1-.448-1-1,.448-1,1-1Z"/><path d="M41,39c0,1.654,1.346,3,3,3s3-1.346,3-3-1.346-3-3-3-3,1.346-3,3ZM45,39c0,.552-.448,1-1,1s-1-.448-1-1,.448-1,1-1,1,.448,1,1Z"/><path d="M38,41c-2.206,0-4,1.794-4,4s1.794,4,4,4,4-1.794,4-4-1.794-4-4-4ZM38,47c-1.103,0-2-.897-2-2s.897-2,2-2,2,.897,2,2-.897,2-2,2Z"/></svg>