<?xml version="1.0" encoding="UTF-8"?><svg xmlns="http://www.w3.org/2000/svg" id="Outline" version="1.1" viewBox="0 0 64 64"><path d="M54,41h-1.06c-.43-3.89-3.35-7.04-7.13-7.82-.84-4.14-4.5-7.18-8.81-7.18-3.08,0-5.95,1.62-7.59,4.2-.76-.36-1.57-.64-2.41-.84v-12.36h3c1.3,0,2.4-.84,2.82-2h21.18c1.65,0,3-1.35,3-3s-1.35-3-3-3h-9c-.55,0-1,.45-1,1s.45,1,1,1h9c.55,0,1,.45,1,1s-.45,1-1,1h-21v-2h8c.55,0,1-.45,1-1s-.45-1-1-1h-8.18c-.42-1.16-1.52-2-2.82-2h-11c-.55,0-1,.45-1,1s.45,1,1,1h2v2h-2c-.55,0-1,.45-1,1s.45,1,1,1h2v2h-2c-.55,0-1,.45-1,1s.45,1,1,1h2v12.36c-5.41,1.29-9.51,5.95-9.95,11.64h-1.05c-1.65,0-3,1.35-3,3,0,1.41.98,2.58,2.29,2.9l3.03,7.58c.6,1.53,2.06,2.52,3.71,2.52h6.97c.55,0,1-.45,1-1s-.45-1-1-1h-6.97c-.82,0-1.55-.49-1.85-1.26l-2.7-6.74h41.04l-2.7,6.74c-.3.77-1.03,1.26-1.85,1.26h-20.97c-.55,0-1,.45-1,1s.45,1,1,1h20.97c1.65,0,3.11-.99,3.71-2.52l3.03-7.58c1.31-.32,2.29-1.49,2.29-2.9,0-1.65-1.35-3-3-3ZM27,9h3c.55,0,1,.45,1,1v1h-4v-2ZM27,13h4v1c0,.55-.45,1-1,1h-3v-2ZM50.92,41h-2.02c-.47-2.28-2.49-4-4.9-4s-4.43,1.72-4.9,4h-2.02c.49-3.39,3.4-6,6.92-6s6.43,2.61,6.92,6ZM46.82,41h-5.64c.42-1.16,1.52-2,2.82-2s2.4.84,2.82,2ZM36.19,37.54c-.47-1.3-1.15-2.51-2-3.58.44-1.16,1.55-1.96,2.81-1.96,1.33,0,2.46.86,2.85,2.02-1.53.8-2.8,2.03-3.66,3.52ZM37,28c3.15,0,5.85,2.09,6.71,5.01-.7.03-1.37.13-2.02.3-.7-1.94-2.53-3.31-4.69-3.31-1.77,0-3.37.95-4.26,2.4-.5-.45-1.02-.87-1.58-1.24,1.29-1.94,3.49-3.16,5.84-3.16ZM23,9h2v2h-2v-2ZM23,13h2v2h-2v-2ZM23,17h2v12.05c-.33-.02-.66-.05-1-.05s-.67.03-1,.05v-12.05ZM24,31c5.73,0,10.44,4.4,10.95,10h-2.01c-.5-4.49-4.32-8-8.94-8s-8.44,3.51-8.94,8h-2.01c.51-5.6,5.22-10,10.95-10ZM24,37c-2.41,0-4.43,1.72-4.9,4h-2.02c.49-3.39,3.4-6,6.92-6s6.43,2.61,6.92,6h-2.02c-.47-2.28-2.49-4-4.9-4ZM26.82,41h-5.64c.42-1.16,1.52-2,2.82-2s2.4.84,2.82,2ZM54,45H10c-.55,0-1-.45-1-1s.45-1,1-1h44c.55,0,1,.45,1,1s-.45,1-1,1Z"/></svg>