<?xml version="1.0" encoding="UTF-8"?><svg xmlns="http://www.w3.org/2000/svg" id="Outline" version="1.1" viewBox="0 0 64 64"><path d="M54,43h-3v-20c0-2.21-1.79-4-4-4h-8.4c2-2.32,1.48-6.08,1.46-6.25-.06-.44-.41-.78-.85-.84-.09-.02-2.04-.29-3.99.27-.97-1.77-2.53-2.95-2.62-3.02-.36-.26-.84-.26-1.2,0-.09.07-1.65,1.25-2.62,3.02-1.95-.56-3.9-.29-3.99-.27-.44.06-.79.4-.85.84-.02.17-.54,3.93,1.46,6.25h-8.4c-2.21,0-4,1.79-4,4v20h-3c-1.65,0-3,1.35-3,3,0,1.37.93,2.52,2.19,2.87l1.27,5.11c.46,1.78,2.05,3.02,3.88,3.02h8.66c.55,0,1-.45,1-1s-.45-1-1-1h-8.66c-.91,0-1.71-.62-1.94-1.51l-1.12-4.49h41.44l-1.12,4.48c-.23.9-1.03,1.52-1.94,1.52h-22.66c-.55,0-1,.45-1,1s.45,1,1,1h22.66c1.83,0,3.42-1.24,3.88-3.03l1.27-5.1c1.26-.35,2.19-1.5,2.19-2.87,0-1.65-1.35-3-3-3ZM36,14.97c0-.31-.04-.61-.09-.9.81-.22,1.64-.25,2.23-.24.02,1.06-.1,2.93-1.19,4.02-.67.67-1.64.97-2.53,1.1.81-1.03,1.58-2.42,1.58-3.98ZM30.2,13.86l.01-.01c.01-.01,0-.02.01-.04.39-1.06,1.21-1.98,1.78-2.52.57.55,1.4,1.47,1.78,2.54.01,0,.01.01.01.02,0,0,.01,0,.01.01.12.36.2.73.2,1.11,0,1.53-1.23,2.94-2,3.67-.77-.73-2-2.15-2-3.67,0-.38.08-.75.2-1.11ZM28.09,14.07c-.05.29-.09.59-.09.9,0,1.56.77,2.95,1.58,3.97-.9-.13-1.87-.43-2.53-1.09-1.09-1.09-1.21-2.96-1.19-4.02.59-.01,1.42.02,2.23.24ZM15,26h8c.55,0,1-.45,1-1s-.45-1-1-1h-8v-1c0-1.1.9-2,2-2h30c1.1,0,2,.9,2,2v1h-22c-.55,0-1,.45-1,1s.45,1,1,1h22v2.57l-2.32-.47c-1.16-.23-2.36-.12-3.45.32l-1.26.5c-1.18.47-2.53.37-3.61-.28l-.46-.28c-1.79-1.07-3.97-1.15-5.84-.22l-1.02.51c-1.25.62-2.71.57-3.91-.15-1.93-1.16-4.33-1.16-6.26,0l-.7.42c-.87.52-1.9.7-2.9.5l-2.27-.45v-2.97ZM15,31.01l1.88.37c1.49.3,3.02.04,4.32-.74l.7-.43c1.3-.77,2.9-.77,4.2,0,1.79,1.08,3.97,1.16,5.84.23l1.02-.51c1.25-.63,2.71-.57,3.91.15l.46.27c1.61.97,3.63,1.13,5.38.43l1.26-.5c.74-.3,1.54-.37,2.31-.22l2.72.55v2.96l-2.32-.47c-1.16-.23-2.36-.12-3.45.32l-1.26.5c-1.18.48-2.53.37-3.61-.28l-.46-.28c-1.79-1.07-3.97-1.15-5.84-.22l-1.02.51c-1.25.62-2.71.57-3.91-.15-1.93-1.16-4.33-1.16-6.26,0l-.7.42c-.87.52-1.9.7-2.9.5l-2.27-.45v-2.96ZM15,36.01l1.88.37c.4.08.8.12,1.19.12,1.1,0,2.18-.29,3.13-.86l.7-.43c1.3-.77,2.9-.77,4.2,0,1.79,1.08,3.97,1.16,5.84.23l1.02-.51c1.25-.63,2.71-.57,3.91.15l.46.27c1.61.97,3.63,1.13,5.38.43l1.26-.5c.74-.3,1.54-.37,2.31-.22l2.72.55v2.39H15v-1.99ZM15,40h34v3H15v-3ZM54,47H10c-.55,0-1-.45-1-1s.45-1,1-1h44c.55,0,1,.45,1,1s-.45,1-1,1Z"/></svg>